G04 #@! TF.GenerationSoftware,KiCad,Pcbnew,(5.1.9-0-10_14)*
G04 #@! TF.CreationDate,2021-11-21T11:40:05-08:00*
G04 #@! TF.ProjectId,system,73797374-656d-42e6-9b69-6361645f7063,1.0-dev7*
G04 #@! TF.SameCoordinates,Original*
G04 #@! TF.FileFunction,Other,Fab,Bot*
%FSLAX46Y46*%
G04 Gerber Fmt 4.6, Leading zero omitted, Abs format (unit mm)*
G04 Created by KiCad (PCBNEW (5.1.9-0-10_14)) date 2021-11-21 11:40:05*
%MOMM*%
%LPD*%
G01*
G04 APERTURE LIST*
%ADD10C,0.100000*%
%ADD11C,0.150000*%
G04 APERTURE END LIST*
D10*
X117726000Y-134239000D02*
X109220000Y-134239000D01*
X117726000Y-131699000D02*
X109220000Y-131699000D01*
X109216000Y-132669000D02*
X107696000Y-132669000D01*
X107696000Y-133269000D02*
X109216000Y-133269000D01*
X109220000Y-134239000D02*
X109220000Y-131699000D01*
X117726000Y-134239000D02*
X117726000Y-131699000D01*
X111526000Y-114960000D02*
X114026000Y-114960000D01*
X114026000Y-114960000D02*
X114026000Y-121260000D01*
X114026000Y-121260000D02*
X111526000Y-121260000D01*
X111526000Y-121260000D02*
X111526000Y-114960000D01*
X112776000Y-114300000D02*
X112776000Y-114960000D01*
X112776000Y-121920000D02*
X112776000Y-121260000D01*
X102830000Y-116324000D02*
X104090000Y-116324000D01*
X102830000Y-119824000D02*
X104090000Y-119824000D01*
X102830000Y-116324000D02*
X102830000Y-119824000D01*
X110880000Y-121524000D02*
X107540000Y-121524000D01*
X110880000Y-114324000D02*
X110880000Y-114624000D01*
X107540000Y-114624000D02*
X107540000Y-121524000D01*
X110880000Y-121824000D02*
X104090000Y-121824000D01*
X104090000Y-114324000D02*
X104090000Y-121824000D01*
X110880000Y-114324000D02*
X104090000Y-114324000D01*
X110880000Y-121524000D02*
X110880000Y-121824000D01*
X110880000Y-114624000D02*
X107540000Y-114624000D01*
D11*
X174069333Y-80986380D02*
X174069333Y-81700666D01*
X174116952Y-81843523D01*
X174212190Y-81938761D01*
X174355047Y-81986380D01*
X174450285Y-81986380D01*
X173640761Y-81081619D02*
X173593142Y-81034000D01*
X173497904Y-80986380D01*
X173259809Y-80986380D01*
X173164571Y-81034000D01*
X173116952Y-81081619D01*
X173069333Y-81176857D01*
X173069333Y-81272095D01*
X173116952Y-81414952D01*
X173688380Y-81986380D01*
X173069333Y-81986380D01*
X140033333Y-111864480D02*
X140033333Y-112578766D01*
X140080952Y-112721623D01*
X140176190Y-112816861D01*
X140319047Y-112864480D01*
X140414285Y-112864480D01*
X139033333Y-112864480D02*
X139604761Y-112864480D01*
X139319047Y-112864480D02*
X139319047Y-111864480D01*
X139414285Y-112007338D01*
X139509523Y-112102576D01*
X139604761Y-112150195D01*
X115768380Y-117943333D02*
X115292190Y-117610000D01*
X115768380Y-117371904D02*
X114768380Y-117371904D01*
X114768380Y-117752857D01*
X114816000Y-117848095D01*
X114863619Y-117895714D01*
X114958857Y-117943333D01*
X115101714Y-117943333D01*
X115196952Y-117895714D01*
X115244571Y-117848095D01*
X115292190Y-117752857D01*
X115292190Y-117371904D01*
X115768380Y-118895714D02*
X115768380Y-118324285D01*
X115768380Y-118610000D02*
X114768380Y-118610000D01*
X114911238Y-118514761D01*
X115006476Y-118419523D01*
X115054095Y-118324285D01*
X108764761Y-116740666D02*
X108812380Y-116883523D01*
X108812380Y-117121619D01*
X108764761Y-117216857D01*
X108717142Y-117264476D01*
X108621904Y-117312095D01*
X108526666Y-117312095D01*
X108431428Y-117264476D01*
X108383809Y-117216857D01*
X108336190Y-117121619D01*
X108288571Y-116931142D01*
X108240952Y-116835904D01*
X108193333Y-116788285D01*
X108098095Y-116740666D01*
X108002857Y-116740666D01*
X107907619Y-116788285D01*
X107860000Y-116835904D01*
X107812380Y-116931142D01*
X107812380Y-117169238D01*
X107860000Y-117312095D01*
X107812380Y-117645428D02*
X108812380Y-117883523D01*
X108098095Y-118074000D01*
X108812380Y-118264476D01*
X107812380Y-118502571D01*
X107907619Y-118835904D02*
X107860000Y-118883523D01*
X107812380Y-118978761D01*
X107812380Y-119216857D01*
X107860000Y-119312095D01*
X107907619Y-119359714D01*
X108002857Y-119407333D01*
X108098095Y-119407333D01*
X108240952Y-119359714D01*
X108812380Y-118788285D01*
X108812380Y-119407333D01*
X122173904Y-148550380D02*
X122173904Y-149359904D01*
X122126285Y-149455142D01*
X122078666Y-149502761D01*
X121983428Y-149550380D01*
X121792952Y-149550380D01*
X121697714Y-149502761D01*
X121650095Y-149455142D01*
X121602476Y-149359904D01*
X121602476Y-148550380D01*
X120602476Y-149550380D02*
X121173904Y-149550380D01*
X120888190Y-149550380D02*
X120888190Y-148550380D01*
X120983428Y-148693238D01*
X121078666Y-148788476D01*
X121173904Y-148836095D01*
X119038095Y-149550380D02*
X119514285Y-149550380D01*
X119514285Y-148550380D01*
X118704761Y-149550380D02*
X118704761Y-148550380D01*
X118228571Y-149550380D02*
X118228571Y-148550380D01*
X117847619Y-148550380D01*
X117752380Y-148598000D01*
X117704761Y-148645619D01*
X117657142Y-148740857D01*
X117657142Y-148883714D01*
X117704761Y-148978952D01*
X117752380Y-149026571D01*
X117847619Y-149074190D01*
X118228571Y-149074190D01*
X117038095Y-148550380D02*
X116847619Y-148550380D01*
X116752380Y-148598000D01*
X116657142Y-148693238D01*
X116609523Y-148883714D01*
X116609523Y-149217047D01*
X116657142Y-149407523D01*
X116752380Y-149502761D01*
X116847619Y-149550380D01*
X117038095Y-149550380D01*
X117133333Y-149502761D01*
X117228571Y-149407523D01*
X117276190Y-149217047D01*
X117276190Y-148883714D01*
X117228571Y-148693238D01*
X117133333Y-148598000D01*
X117038095Y-148550380D01*
X116419047Y-149645619D02*
X115657142Y-149645619D01*
X114847619Y-149455142D02*
X114895238Y-149502761D01*
X115038095Y-149550380D01*
X115133333Y-149550380D01*
X115276190Y-149502761D01*
X115371428Y-149407523D01*
X115419047Y-149312285D01*
X115466666Y-149121809D01*
X115466666Y-148978952D01*
X115419047Y-148788476D01*
X115371428Y-148693238D01*
X115276190Y-148598000D01*
X115133333Y-148550380D01*
X115038095Y-148550380D01*
X114895238Y-148598000D01*
X114847619Y-148645619D01*
X114419047Y-149550380D02*
X114419047Y-148550380D01*
X114419047Y-149026571D02*
X113847619Y-149026571D01*
X113847619Y-149550380D02*
X113847619Y-148550380D01*
X113419047Y-149264666D02*
X112942857Y-149264666D01*
X113514285Y-149550380D02*
X113180952Y-148550380D01*
X112847619Y-149550380D01*
X111942857Y-149550380D02*
X112276190Y-149074190D01*
X112514285Y-149550380D02*
X112514285Y-148550380D01*
X112133333Y-148550380D01*
X112038095Y-148598000D01*
X111990476Y-148645619D01*
X111942857Y-148740857D01*
X111942857Y-148883714D01*
X111990476Y-148978952D01*
X112038095Y-149026571D01*
X112133333Y-149074190D01*
X112514285Y-149074190D01*
X110990476Y-148598000D02*
X111085714Y-148550380D01*
X111228571Y-148550380D01*
X111371428Y-148598000D01*
X111466666Y-148693238D01*
X111514285Y-148788476D01*
X111561904Y-148978952D01*
X111561904Y-149121809D01*
X111514285Y-149312285D01*
X111466666Y-149407523D01*
X111371428Y-149502761D01*
X111228571Y-149550380D01*
X111133333Y-149550380D01*
X110990476Y-149502761D01*
X110942857Y-149455142D01*
X110942857Y-149121809D01*
X111133333Y-149121809D01*
X110514285Y-149026571D02*
X110180952Y-149026571D01*
X110038095Y-149550380D02*
X110514285Y-149550380D01*
X110514285Y-148550380D01*
X110038095Y-148550380D01*
X109038095Y-149550380D02*
X109371428Y-149074190D01*
X109609523Y-149550380D02*
X109609523Y-148550380D01*
X109228571Y-148550380D01*
X109133333Y-148598000D01*
X109085714Y-148645619D01*
X109038095Y-148740857D01*
X109038095Y-148883714D01*
X109085714Y-148978952D01*
X109133333Y-149026571D01*
X109228571Y-149074190D01*
X109609523Y-149074190D01*
M02*
