G04 #@! TF.GenerationSoftware,KiCad,Pcbnew,(5.1.9-0-10_14)*
G04 #@! TF.CreationDate,2021-11-21T11:40:05-08:00*
G04 #@! TF.ProjectId,system,73797374-656d-42e6-9b69-6361645f7063,1.0-dev7*
G04 #@! TF.SameCoordinates,Original*
G04 #@! TF.FileFunction,Legend,Top*
G04 #@! TF.FilePolarity,Positive*
%FSLAX46Y46*%
G04 Gerber Fmt 4.6, Leading zero omitted, Abs format (unit mm)*
G04 Created by KiCad (PCBNEW (5.1.9-0-10_14)) date 2021-11-21 11:40:05*
%MOMM*%
%LPD*%
G01*
G04 APERTURE LIST*
%ADD10C,0.381000*%
%ADD11C,0.203200*%
%ADD12C,0.250000*%
%ADD13C,0.100000*%
%ADD14C,0.177800*%
%ADD15C,0.254000*%
%ADD16C,0.010000*%
%ADD17C,0.120000*%
%ADD18C,0.150000*%
%ADD19C,0.114300*%
%ADD20C,0.300000*%
%ADD21C,0.609600*%
%ADD22O,1.801600X1.801600*%
%ADD23C,1.801600*%
%ADD24C,1.851600*%
%ADD25C,2.101600*%
%ADD26C,3.851600*%
%ADD27C,1.401600*%
%ADD28C,5.501599*%
%ADD29C,5.501600*%
%ADD30C,1.701600*%
%ADD31O,1.701600X1.701600*%
%ADD32C,1.625600*%
%ADD33C,2.201600*%
G04 APERTURE END LIST*
D10*
X161562428Y-123307928D02*
X161925285Y-123398642D01*
X162046238Y-123489357D01*
X162167190Y-123670785D01*
X162167190Y-123942928D01*
X162046238Y-124124357D01*
X161925285Y-124215071D01*
X161683380Y-124305785D01*
X160715761Y-124305785D01*
X160715761Y-122400785D01*
X161562428Y-122400785D01*
X161804333Y-122491500D01*
X161925285Y-122582214D01*
X162046238Y-122763642D01*
X162046238Y-122945071D01*
X161925285Y-123126500D01*
X161804333Y-123217214D01*
X161562428Y-123307928D01*
X160715761Y-123307928D01*
X150997238Y-128841500D02*
X152206761Y-128841500D01*
X150755333Y-129385785D02*
X151602000Y-127480785D01*
X152448666Y-129385785D01*
D11*
X200959357Y-120856828D02*
X200959357Y-119332828D01*
X201322214Y-119332828D01*
X201539928Y-119405400D01*
X201685071Y-119550542D01*
X201757642Y-119695685D01*
X201830214Y-119985971D01*
X201830214Y-120203685D01*
X201757642Y-120493971D01*
X201685071Y-120639114D01*
X201539928Y-120784257D01*
X201322214Y-120856828D01*
X200959357Y-120856828D01*
X203063928Y-120784257D02*
X202918785Y-120856828D01*
X202628500Y-120856828D01*
X202483357Y-120784257D01*
X202410785Y-120639114D01*
X202410785Y-120058542D01*
X202483357Y-119913400D01*
X202628500Y-119840828D01*
X202918785Y-119840828D01*
X203063928Y-119913400D01*
X203136500Y-120058542D01*
X203136500Y-120203685D01*
X202410785Y-120348828D01*
X203717071Y-120784257D02*
X203862214Y-120856828D01*
X204152500Y-120856828D01*
X204297642Y-120784257D01*
X204370214Y-120639114D01*
X204370214Y-120566542D01*
X204297642Y-120421400D01*
X204152500Y-120348828D01*
X203934785Y-120348828D01*
X203789642Y-120276257D01*
X203717071Y-120131114D01*
X203717071Y-120058542D01*
X203789642Y-119913400D01*
X203934785Y-119840828D01*
X204152500Y-119840828D01*
X204297642Y-119913400D01*
X205023357Y-120856828D02*
X205023357Y-119840828D01*
X205023357Y-119332828D02*
X204950785Y-119405400D01*
X205023357Y-119477971D01*
X205095928Y-119405400D01*
X205023357Y-119332828D01*
X205023357Y-119477971D01*
X206402214Y-119840828D02*
X206402214Y-121074542D01*
X206329642Y-121219685D01*
X206257071Y-121292257D01*
X206111928Y-121364828D01*
X205894214Y-121364828D01*
X205749071Y-121292257D01*
X206402214Y-120784257D02*
X206257071Y-120856828D01*
X205966785Y-120856828D01*
X205821642Y-120784257D01*
X205749071Y-120711685D01*
X205676500Y-120566542D01*
X205676500Y-120131114D01*
X205749071Y-119985971D01*
X205821642Y-119913400D01*
X205966785Y-119840828D01*
X206257071Y-119840828D01*
X206402214Y-119913400D01*
X207127928Y-119840828D02*
X207127928Y-120856828D01*
X207127928Y-119985971D02*
X207200500Y-119913400D01*
X207345642Y-119840828D01*
X207563357Y-119840828D01*
X207708500Y-119913400D01*
X207781071Y-120058542D01*
X207781071Y-120856828D01*
X209087357Y-120784257D02*
X208942214Y-120856828D01*
X208651928Y-120856828D01*
X208506785Y-120784257D01*
X208434214Y-120639114D01*
X208434214Y-120058542D01*
X208506785Y-119913400D01*
X208651928Y-119840828D01*
X208942214Y-119840828D01*
X209087357Y-119913400D01*
X209159928Y-120058542D01*
X209159928Y-120203685D01*
X208434214Y-120348828D01*
X210466214Y-120856828D02*
X210466214Y-119332828D01*
X210466214Y-120784257D02*
X210321071Y-120856828D01*
X210030785Y-120856828D01*
X209885642Y-120784257D01*
X209813071Y-120711685D01*
X209740500Y-120566542D01*
X209740500Y-120131114D01*
X209813071Y-119985971D01*
X209885642Y-119913400D01*
X210030785Y-119840828D01*
X210321071Y-119840828D01*
X210466214Y-119913400D01*
X212353071Y-120856828D02*
X212353071Y-119332828D01*
X212353071Y-119913400D02*
X212498214Y-119840828D01*
X212788500Y-119840828D01*
X212933642Y-119913400D01*
X213006214Y-119985971D01*
X213078785Y-120131114D01*
X213078785Y-120566542D01*
X213006214Y-120711685D01*
X212933642Y-120784257D01*
X212788500Y-120856828D01*
X212498214Y-120856828D01*
X212353071Y-120784257D01*
X213586785Y-119840828D02*
X213949642Y-120856828D01*
X214312500Y-119840828D02*
X213949642Y-120856828D01*
X213804500Y-121219685D01*
X213731928Y-121292257D01*
X213586785Y-121364828D01*
X216489642Y-119332828D02*
X216489642Y-120421400D01*
X216417071Y-120639114D01*
X216271928Y-120784257D01*
X216054214Y-120856828D01*
X215909071Y-120856828D01*
X217433071Y-120856828D02*
X217287928Y-120784257D01*
X217215357Y-120711685D01*
X217142785Y-120566542D01*
X217142785Y-120131114D01*
X217215357Y-119985971D01*
X217287928Y-119913400D01*
X217433071Y-119840828D01*
X217650785Y-119840828D01*
X217795928Y-119913400D01*
X217868500Y-119985971D01*
X217941071Y-120131114D01*
X217941071Y-120566542D01*
X217868500Y-120711685D01*
X217795928Y-120784257D01*
X217650785Y-120856828D01*
X217433071Y-120856828D01*
X218594214Y-120856828D02*
X218594214Y-119332828D01*
X219247357Y-120856828D02*
X219247357Y-120058542D01*
X219174785Y-119913400D01*
X219029642Y-119840828D01*
X218811928Y-119840828D01*
X218666785Y-119913400D01*
X218594214Y-119985971D01*
X219973071Y-119840828D02*
X219973071Y-120856828D01*
X219973071Y-119985971D02*
X220045642Y-119913400D01*
X220190785Y-119840828D01*
X220408500Y-119840828D01*
X220553642Y-119913400D01*
X220626214Y-120058542D01*
X220626214Y-120856828D01*
X221424500Y-120784257D02*
X221424500Y-120856828D01*
X221351928Y-121001971D01*
X221279357Y-121074542D01*
X223238785Y-120856828D02*
X223238785Y-119332828D01*
X224109642Y-120856828D01*
X224109642Y-119332828D01*
X225488500Y-120856828D02*
X225488500Y-120058542D01*
X225415928Y-119913400D01*
X225270785Y-119840828D01*
X224980500Y-119840828D01*
X224835357Y-119913400D01*
X225488500Y-120784257D02*
X225343357Y-120856828D01*
X224980500Y-120856828D01*
X224835357Y-120784257D01*
X224762785Y-120639114D01*
X224762785Y-120493971D01*
X224835357Y-120348828D01*
X224980500Y-120276257D01*
X225343357Y-120276257D01*
X225488500Y-120203685D01*
X225996500Y-119840828D02*
X226577071Y-119840828D01*
X226214214Y-119332828D02*
X226214214Y-120639114D01*
X226286785Y-120784257D01*
X226431928Y-120856828D01*
X226577071Y-120856828D01*
X227085071Y-120856828D02*
X227085071Y-119332828D01*
X227738214Y-120856828D02*
X227738214Y-120058542D01*
X227665642Y-119913400D01*
X227520500Y-119840828D01*
X227302785Y-119840828D01*
X227157642Y-119913400D01*
X227085071Y-119985971D01*
X229117071Y-120856828D02*
X229117071Y-120058542D01*
X229044500Y-119913400D01*
X228899357Y-119840828D01*
X228609071Y-119840828D01*
X228463928Y-119913400D01*
X229117071Y-120784257D02*
X228971928Y-120856828D01*
X228609071Y-120856828D01*
X228463928Y-120784257D01*
X228391357Y-120639114D01*
X228391357Y-120493971D01*
X228463928Y-120348828D01*
X228609071Y-120276257D01*
X228971928Y-120276257D01*
X229117071Y-120203685D01*
X229842785Y-119840828D02*
X229842785Y-120856828D01*
X229842785Y-119985971D02*
X229915357Y-119913400D01*
X230060500Y-119840828D01*
X230278214Y-119840828D01*
X230423357Y-119913400D01*
X230495928Y-120058542D01*
X230495928Y-120856828D01*
X231294214Y-120784257D02*
X231294214Y-120856828D01*
X231221642Y-121001971D01*
X231149071Y-121074542D01*
X206692500Y-123346028D02*
X206692500Y-122547742D01*
X206619928Y-122402600D01*
X206474785Y-122330028D01*
X206184500Y-122330028D01*
X206039357Y-122402600D01*
X206692500Y-123273457D02*
X206547357Y-123346028D01*
X206184500Y-123346028D01*
X206039357Y-123273457D01*
X205966785Y-123128314D01*
X205966785Y-122983171D01*
X206039357Y-122838028D01*
X206184500Y-122765457D01*
X206547357Y-122765457D01*
X206692500Y-122692885D01*
X207418214Y-122330028D02*
X207418214Y-123346028D01*
X207418214Y-122475171D02*
X207490785Y-122402600D01*
X207635928Y-122330028D01*
X207853642Y-122330028D01*
X207998785Y-122402600D01*
X208071357Y-122547742D01*
X208071357Y-123346028D01*
X209450214Y-123346028D02*
X209450214Y-121822028D01*
X209450214Y-123273457D02*
X209305071Y-123346028D01*
X209014785Y-123346028D01*
X208869642Y-123273457D01*
X208797071Y-123200885D01*
X208724500Y-123055742D01*
X208724500Y-122620314D01*
X208797071Y-122475171D01*
X208869642Y-122402600D01*
X209014785Y-122330028D01*
X209305071Y-122330028D01*
X209450214Y-122402600D01*
X211264500Y-122910600D02*
X211990214Y-122910600D01*
X211119357Y-123346028D02*
X211627357Y-121822028D01*
X212135357Y-123346028D01*
X212643357Y-122330028D02*
X212643357Y-123346028D01*
X212643357Y-122475171D02*
X212715928Y-122402600D01*
X212861071Y-122330028D01*
X213078785Y-122330028D01*
X213223928Y-122402600D01*
X213296500Y-122547742D01*
X213296500Y-123346028D01*
X214675357Y-123346028D02*
X214675357Y-121822028D01*
X214675357Y-123273457D02*
X214530214Y-123346028D01*
X214239928Y-123346028D01*
X214094785Y-123273457D01*
X214022214Y-123200885D01*
X213949642Y-123055742D01*
X213949642Y-122620314D01*
X214022214Y-122475171D01*
X214094785Y-122402600D01*
X214239928Y-122330028D01*
X214530214Y-122330028D01*
X214675357Y-122402600D01*
X215401071Y-123346028D02*
X215401071Y-122330028D01*
X215401071Y-122620314D02*
X215473642Y-122475171D01*
X215546214Y-122402600D01*
X215691357Y-122330028D01*
X215836500Y-122330028D01*
X216925071Y-123273457D02*
X216779928Y-123346028D01*
X216489642Y-123346028D01*
X216344500Y-123273457D01*
X216271928Y-123128314D01*
X216271928Y-122547742D01*
X216344500Y-122402600D01*
X216489642Y-122330028D01*
X216779928Y-122330028D01*
X216925071Y-122402600D01*
X216997642Y-122547742D01*
X216997642Y-122692885D01*
X216271928Y-122838028D01*
X217505642Y-122330028D02*
X217795928Y-123346028D01*
X218086214Y-122620314D01*
X218376500Y-123346028D01*
X218666785Y-122330028D01*
X220408500Y-123346028D02*
X220408500Y-121822028D01*
X220916500Y-122910600D01*
X221424500Y-121822028D01*
X221424500Y-123346028D01*
X222730785Y-123273457D02*
X222585642Y-123346028D01*
X222295357Y-123346028D01*
X222150214Y-123273457D01*
X222077642Y-123128314D01*
X222077642Y-122547742D01*
X222150214Y-122402600D01*
X222295357Y-122330028D01*
X222585642Y-122330028D01*
X222730785Y-122402600D01*
X222803357Y-122547742D01*
X222803357Y-122692885D01*
X222077642Y-122838028D01*
X223311357Y-122330028D02*
X223674214Y-123346028D01*
X224037071Y-122330028D02*
X223674214Y-123346028D01*
X223529071Y-123708885D01*
X223456500Y-123781457D01*
X223311357Y-123854028D01*
X225198214Y-123273457D02*
X225053071Y-123346028D01*
X224762785Y-123346028D01*
X224617642Y-123273457D01*
X224545071Y-123128314D01*
X224545071Y-122547742D01*
X224617642Y-122402600D01*
X224762785Y-122330028D01*
X225053071Y-122330028D01*
X225198214Y-122402600D01*
X225270785Y-122547742D01*
X225270785Y-122692885D01*
X224545071Y-122838028D01*
X225923928Y-123346028D02*
X225923928Y-122330028D01*
X225923928Y-122620314D02*
X225996500Y-122475171D01*
X226069071Y-122402600D01*
X226214214Y-122330028D01*
X226359357Y-122330028D01*
D12*
X38354000Y-68580000D02*
G75*
G03*
X38354000Y-68580000I-63500J0D01*
G01*
D13*
G36*
X40957500Y-68580000D02*
G01*
X40513000Y-68897500D01*
X40513000Y-68262500D01*
X40957500Y-68580000D01*
G37*
X40957500Y-68580000D02*
X40513000Y-68897500D01*
X40513000Y-68262500D01*
X40957500Y-68580000D01*
G36*
X35560000Y-68897500D02*
G01*
X35115500Y-68580000D01*
X35560000Y-68262500D01*
X35560000Y-68897500D01*
G37*
X35560000Y-68897500D02*
X35115500Y-68580000D01*
X35560000Y-68262500D01*
X35560000Y-68897500D01*
D14*
X115352285Y-72226714D02*
X115497428Y-72226714D01*
X115570000Y-72263000D01*
X115642571Y-72335571D01*
X115678857Y-72480714D01*
X115678857Y-72734714D01*
X115642571Y-72879857D01*
X115570000Y-72952428D01*
X115497428Y-72988714D01*
X115352285Y-72988714D01*
X115279714Y-72952428D01*
X115207142Y-72879857D01*
X115170857Y-72734714D01*
X115170857Y-72480714D01*
X115207142Y-72335571D01*
X115279714Y-72263000D01*
X115352285Y-72226714D01*
X116005428Y-72988714D02*
X116005428Y-72226714D01*
X116440857Y-72988714D01*
X116440857Y-72226714D01*
X39025285Y-68162714D02*
X39170428Y-68162714D01*
X39243000Y-68199000D01*
X39315571Y-68271571D01*
X39351857Y-68416714D01*
X39351857Y-68670714D01*
X39315571Y-68815857D01*
X39243000Y-68888428D01*
X39170428Y-68924714D01*
X39025285Y-68924714D01*
X38952714Y-68888428D01*
X38880142Y-68815857D01*
X38843857Y-68670714D01*
X38843857Y-68416714D01*
X38880142Y-68271571D01*
X38952714Y-68199000D01*
X39025285Y-68162714D01*
X39678428Y-68924714D02*
X39678428Y-68162714D01*
X40113857Y-68924714D01*
X40113857Y-68162714D01*
X36104285Y-68162714D02*
X36249428Y-68162714D01*
X36322000Y-68199000D01*
X36394571Y-68271571D01*
X36430857Y-68416714D01*
X36430857Y-68670714D01*
X36394571Y-68815857D01*
X36322000Y-68888428D01*
X36249428Y-68924714D01*
X36104285Y-68924714D01*
X36031714Y-68888428D01*
X35959142Y-68815857D01*
X35922857Y-68670714D01*
X35922857Y-68416714D01*
X35959142Y-68271571D01*
X36031714Y-68199000D01*
X36104285Y-68162714D01*
X37011428Y-68525571D02*
X36757428Y-68525571D01*
X36757428Y-68924714D02*
X36757428Y-68162714D01*
X37120285Y-68162714D01*
X37664571Y-68525571D02*
X37410571Y-68525571D01*
X37410571Y-68924714D02*
X37410571Y-68162714D01*
X37773428Y-68162714D01*
D13*
G36*
X104267000Y-140716000D02*
G01*
X105029000Y-138049000D01*
X106426000Y-137795000D01*
X104267000Y-140716000D01*
G37*
X104267000Y-140716000D02*
X105029000Y-138049000D01*
X106426000Y-137795000D01*
X104267000Y-140716000D01*
G36*
X105410000Y-138430000D02*
G01*
X104013000Y-138684000D01*
X106172000Y-135763000D01*
X105410000Y-138430000D01*
G37*
X105410000Y-138430000D02*
X104013000Y-138684000D01*
X106172000Y-135763000D01*
X105410000Y-138430000D01*
G36*
X105664000Y-118872000D02*
G01*
X104902000Y-118110000D01*
X105664000Y-117348000D01*
X105664000Y-118872000D01*
G37*
X105664000Y-118872000D02*
X104902000Y-118110000D01*
X105664000Y-117348000D01*
X105664000Y-118872000D01*
D15*
X113284000Y-72034400D02*
X113284000Y-72517000D01*
X112890096Y-72250096D02*
G75*
G03*
X113665000Y-72237600I393904J-393904D01*
G01*
D14*
X110018285Y-72226714D02*
X110163428Y-72226714D01*
X110236000Y-72263000D01*
X110308571Y-72335571D01*
X110344857Y-72480714D01*
X110344857Y-72734714D01*
X110308571Y-72879857D01*
X110236000Y-72952428D01*
X110163428Y-72988714D01*
X110018285Y-72988714D01*
X109945714Y-72952428D01*
X109873142Y-72879857D01*
X109836857Y-72734714D01*
X109836857Y-72480714D01*
X109873142Y-72335571D01*
X109945714Y-72263000D01*
X110018285Y-72226714D01*
X110925428Y-72589571D02*
X110671428Y-72589571D01*
X110671428Y-72988714D02*
X110671428Y-72226714D01*
X111034285Y-72226714D01*
X111578571Y-72589571D02*
X111324571Y-72589571D01*
X111324571Y-72988714D02*
X111324571Y-72226714D01*
X111687428Y-72226714D01*
D16*
G36*
X123703197Y-148737658D02*
G01*
X123893983Y-148761530D01*
X124069748Y-148802130D01*
X124233084Y-148860124D01*
X124386581Y-148936179D01*
X124452352Y-148975971D01*
X124484313Y-148998861D01*
X124525208Y-149031618D01*
X124570902Y-149070492D01*
X124617259Y-149111732D01*
X124660147Y-149151588D01*
X124695428Y-149186309D01*
X124718968Y-149212144D01*
X124726700Y-149224817D01*
X124717463Y-149234928D01*
X124692005Y-149258308D01*
X124653706Y-149292076D01*
X124605947Y-149333346D01*
X124552108Y-149379236D01*
X124495569Y-149426861D01*
X124439711Y-149473338D01*
X124387916Y-149515783D01*
X124348955Y-149547054D01*
X124319138Y-149570658D01*
X124246694Y-149501933D01*
X124165347Y-149430737D01*
X124086831Y-149375963D01*
X124002012Y-149331630D01*
X123958238Y-149313046D01*
X123811581Y-149266586D01*
X123651529Y-149238392D01*
X123482931Y-149229057D01*
X123333941Y-149236650D01*
X123152104Y-149264584D01*
X122986679Y-149310752D01*
X122835378Y-149376204D01*
X122695910Y-149461986D01*
X122565986Y-149569146D01*
X122529243Y-149604899D01*
X122416423Y-149736336D01*
X122324435Y-149881892D01*
X122253630Y-150040660D01*
X122204362Y-150211734D01*
X122176983Y-150394206D01*
X122171034Y-150526750D01*
X122173161Y-150630535D01*
X122181594Y-150716945D01*
X122197932Y-150793567D01*
X122223774Y-150867986D01*
X122259188Y-150944750D01*
X122327106Y-151051975D01*
X122414994Y-151145674D01*
X122520791Y-151224961D01*
X122642434Y-151288952D01*
X122777863Y-151336761D01*
X122925017Y-151367505D01*
X123081834Y-151380296D01*
X123246253Y-151374251D01*
X123256988Y-151373202D01*
X123415868Y-151349791D01*
X123556926Y-151313142D01*
X123663370Y-151272015D01*
X123742038Y-151236597D01*
X123932953Y-150272750D01*
X124202827Y-150269322D01*
X124282532Y-150268747D01*
X124352917Y-150269079D01*
X124410294Y-150270227D01*
X124450971Y-150272108D01*
X124471258Y-150274633D01*
X124472860Y-150275672D01*
X124470453Y-150289700D01*
X124463489Y-150326194D01*
X124452450Y-150382726D01*
X124437817Y-150456868D01*
X124420070Y-150546190D01*
X124399691Y-150648265D01*
X124377162Y-150760663D01*
X124352964Y-150880956D01*
X124349740Y-150896951D01*
X124226461Y-151508453D01*
X124130505Y-151572760D01*
X123957433Y-151674458D01*
X123768865Y-151757718D01*
X123563310Y-151823172D01*
X123507500Y-151837208D01*
X123456516Y-151848633D01*
X123409001Y-151857206D01*
X123359508Y-151863431D01*
X123302590Y-151867812D01*
X123232803Y-151870854D01*
X123144702Y-151873059D01*
X123113801Y-151873635D01*
X122997410Y-151874730D01*
X122903121Y-151873404D01*
X122827736Y-151869543D01*
X122768060Y-151863031D01*
X122753336Y-151860649D01*
X122565702Y-151819299D01*
X122396620Y-151763818D01*
X122242620Y-151692729D01*
X122100229Y-151604553D01*
X122032819Y-151554006D01*
X121909126Y-151439789D01*
X121804853Y-151309373D01*
X121720289Y-151163269D01*
X121655723Y-151001987D01*
X121611443Y-150826035D01*
X121607419Y-150803445D01*
X121596564Y-150710082D01*
X121591925Y-150599967D01*
X121593255Y-150480914D01*
X121600311Y-150360737D01*
X121612846Y-150247248D01*
X121627543Y-150162272D01*
X121684067Y-149953622D01*
X121762450Y-149757124D01*
X121861716Y-149573943D01*
X121980886Y-149405241D01*
X122118983Y-149252183D01*
X122275028Y-149115932D01*
X122448046Y-148997652D01*
X122637057Y-148898506D01*
X122718327Y-148863905D01*
X122877798Y-148808582D01*
X123042232Y-148768575D01*
X123216645Y-148743016D01*
X123406052Y-148731039D01*
X123494800Y-148729849D01*
X123703197Y-148737658D01*
G37*
X123703197Y-148737658D02*
X123893983Y-148761530D01*
X124069748Y-148802130D01*
X124233084Y-148860124D01*
X124386581Y-148936179D01*
X124452352Y-148975971D01*
X124484313Y-148998861D01*
X124525208Y-149031618D01*
X124570902Y-149070492D01*
X124617259Y-149111732D01*
X124660147Y-149151588D01*
X124695428Y-149186309D01*
X124718968Y-149212144D01*
X124726700Y-149224817D01*
X124717463Y-149234928D01*
X124692005Y-149258308D01*
X124653706Y-149292076D01*
X124605947Y-149333346D01*
X124552108Y-149379236D01*
X124495569Y-149426861D01*
X124439711Y-149473338D01*
X124387916Y-149515783D01*
X124348955Y-149547054D01*
X124319138Y-149570658D01*
X124246694Y-149501933D01*
X124165347Y-149430737D01*
X124086831Y-149375963D01*
X124002012Y-149331630D01*
X123958238Y-149313046D01*
X123811581Y-149266586D01*
X123651529Y-149238392D01*
X123482931Y-149229057D01*
X123333941Y-149236650D01*
X123152104Y-149264584D01*
X122986679Y-149310752D01*
X122835378Y-149376204D01*
X122695910Y-149461986D01*
X122565986Y-149569146D01*
X122529243Y-149604899D01*
X122416423Y-149736336D01*
X122324435Y-149881892D01*
X122253630Y-150040660D01*
X122204362Y-150211734D01*
X122176983Y-150394206D01*
X122171034Y-150526750D01*
X122173161Y-150630535D01*
X122181594Y-150716945D01*
X122197932Y-150793567D01*
X122223774Y-150867986D01*
X122259188Y-150944750D01*
X122327106Y-151051975D01*
X122414994Y-151145674D01*
X122520791Y-151224961D01*
X122642434Y-151288952D01*
X122777863Y-151336761D01*
X122925017Y-151367505D01*
X123081834Y-151380296D01*
X123246253Y-151374251D01*
X123256988Y-151373202D01*
X123415868Y-151349791D01*
X123556926Y-151313142D01*
X123663370Y-151272015D01*
X123742038Y-151236597D01*
X123932953Y-150272750D01*
X124202827Y-150269322D01*
X124282532Y-150268747D01*
X124352917Y-150269079D01*
X124410294Y-150270227D01*
X124450971Y-150272108D01*
X124471258Y-150274633D01*
X124472860Y-150275672D01*
X124470453Y-150289700D01*
X124463489Y-150326194D01*
X124452450Y-150382726D01*
X124437817Y-150456868D01*
X124420070Y-150546190D01*
X124399691Y-150648265D01*
X124377162Y-150760663D01*
X124352964Y-150880956D01*
X124349740Y-150896951D01*
X124226461Y-151508453D01*
X124130505Y-151572760D01*
X123957433Y-151674458D01*
X123768865Y-151757718D01*
X123563310Y-151823172D01*
X123507500Y-151837208D01*
X123456516Y-151848633D01*
X123409001Y-151857206D01*
X123359508Y-151863431D01*
X123302590Y-151867812D01*
X123232803Y-151870854D01*
X123144702Y-151873059D01*
X123113801Y-151873635D01*
X122997410Y-151874730D01*
X122903121Y-151873404D01*
X122827736Y-151869543D01*
X122768060Y-151863031D01*
X122753336Y-151860649D01*
X122565702Y-151819299D01*
X122396620Y-151763818D01*
X122242620Y-151692729D01*
X122100229Y-151604553D01*
X122032819Y-151554006D01*
X121909126Y-151439789D01*
X121804853Y-151309373D01*
X121720289Y-151163269D01*
X121655723Y-151001987D01*
X121611443Y-150826035D01*
X121607419Y-150803445D01*
X121596564Y-150710082D01*
X121591925Y-150599967D01*
X121593255Y-150480914D01*
X121600311Y-150360737D01*
X121612846Y-150247248D01*
X121627543Y-150162272D01*
X121684067Y-149953622D01*
X121762450Y-149757124D01*
X121861716Y-149573943D01*
X121980886Y-149405241D01*
X122118983Y-149252183D01*
X122275028Y-149115932D01*
X122448046Y-148997652D01*
X122637057Y-148898506D01*
X122718327Y-148863905D01*
X122877798Y-148808582D01*
X123042232Y-148768575D01*
X123216645Y-148743016D01*
X123406052Y-148731039D01*
X123494800Y-148729849D01*
X123703197Y-148737658D01*
G36*
X112525932Y-149068115D02*
G01*
X112567126Y-149074253D01*
X112598821Y-149094323D01*
X112613383Y-149109337D01*
X112649000Y-149149200D01*
X112649000Y-150068920D01*
X112648930Y-150249463D01*
X112648698Y-150406428D01*
X112648269Y-150541635D01*
X112647609Y-150656903D01*
X112646681Y-150754056D01*
X112645454Y-150834911D01*
X112643890Y-150901292D01*
X112641956Y-150955017D01*
X112639618Y-150997909D01*
X112636840Y-151031787D01*
X112633588Y-151058473D01*
X112629827Y-151079787D01*
X112629766Y-151080075D01*
X112587087Y-151228430D01*
X112523550Y-151363887D01*
X112437578Y-151489461D01*
X112382437Y-151552976D01*
X112267332Y-151658353D01*
X112139576Y-151742115D01*
X112000597Y-151803451D01*
X111887415Y-151834763D01*
X111815737Y-151845218D01*
X111728664Y-151850936D01*
X111635193Y-151851932D01*
X111544320Y-151848221D01*
X111465041Y-151839816D01*
X111433360Y-151834034D01*
X111291464Y-151790345D01*
X111157843Y-151724509D01*
X111035533Y-151639009D01*
X110927567Y-151536328D01*
X110836983Y-151418947D01*
X110766815Y-151289347D01*
X110766553Y-151288750D01*
X110736308Y-151215844D01*
X110714689Y-151152871D01*
X110700319Y-151092585D01*
X110691820Y-151027738D01*
X110687815Y-150951082D01*
X110686915Y-150869650D01*
X110686958Y-150866821D01*
X110947087Y-150866821D01*
X110959565Y-151000379D01*
X110972288Y-151058930D01*
X111017600Y-151189016D01*
X111081867Y-151303622D01*
X111163029Y-151401531D01*
X111259024Y-151481525D01*
X111367790Y-151542386D01*
X111487265Y-151582897D01*
X111615389Y-151601840D01*
X111750100Y-151597999D01*
X111853817Y-151579529D01*
X111970545Y-151538762D01*
X112075872Y-151477274D01*
X112168209Y-151397767D01*
X112245968Y-151302947D01*
X112307562Y-151195517D01*
X112351405Y-151078182D01*
X112375909Y-150953647D01*
X112379486Y-150824617D01*
X112364169Y-150709997D01*
X112324077Y-150576477D01*
X112264691Y-150457874D01*
X112187968Y-150355519D01*
X112095864Y-150270743D01*
X111990338Y-150204877D01*
X111873347Y-150159251D01*
X111746848Y-150135197D01*
X111612800Y-150134046D01*
X111532328Y-150144403D01*
X111406037Y-150179071D01*
X111292041Y-150234346D01*
X111191785Y-150307874D01*
X111106710Y-150397296D01*
X111038260Y-150500259D01*
X110987877Y-150614405D01*
X110957005Y-150737378D01*
X110947087Y-150866821D01*
X110686958Y-150866821D01*
X110688445Y-150768837D01*
X110694139Y-150686229D01*
X110705541Y-150614764D01*
X110724196Y-150547382D01*
X110751646Y-150477022D01*
X110789435Y-150396624D01*
X110791034Y-150393400D01*
X110821827Y-150334794D01*
X110852080Y-150286527D01*
X110887379Y-150241070D01*
X110933312Y-150190898D01*
X110965755Y-150157940D01*
X111079670Y-150057628D01*
X111197999Y-149981341D01*
X111323844Y-149927794D01*
X111460310Y-149895696D01*
X111610499Y-149883762D01*
X111626651Y-149883627D01*
X111727174Y-149885912D01*
X111810678Y-149894152D01*
X111885112Y-149909652D01*
X111958425Y-149933713D01*
X111977088Y-149941049D01*
X112101191Y-150001098D01*
X112210285Y-150076359D01*
X112282818Y-150141620D01*
X112368567Y-150226391D01*
X112372259Y-149690770D01*
X112373221Y-149555543D01*
X112374256Y-149443394D01*
X112375633Y-149352000D01*
X112377628Y-149279043D01*
X112380512Y-149222198D01*
X112384554Y-149179147D01*
X112390030Y-149147567D01*
X112397211Y-149125136D01*
X112406367Y-149109534D01*
X112417772Y-149098439D01*
X112431699Y-149089530D01*
X112443475Y-149083145D01*
X112476393Y-149072722D01*
X112518171Y-149068089D01*
X112525932Y-149068115D01*
G37*
X112525932Y-149068115D02*
X112567126Y-149074253D01*
X112598821Y-149094323D01*
X112613383Y-149109337D01*
X112649000Y-149149200D01*
X112649000Y-150068920D01*
X112648930Y-150249463D01*
X112648698Y-150406428D01*
X112648269Y-150541635D01*
X112647609Y-150656903D01*
X112646681Y-150754056D01*
X112645454Y-150834911D01*
X112643890Y-150901292D01*
X112641956Y-150955017D01*
X112639618Y-150997909D01*
X112636840Y-151031787D01*
X112633588Y-151058473D01*
X112629827Y-151079787D01*
X112629766Y-151080075D01*
X112587087Y-151228430D01*
X112523550Y-151363887D01*
X112437578Y-151489461D01*
X112382437Y-151552976D01*
X112267332Y-151658353D01*
X112139576Y-151742115D01*
X112000597Y-151803451D01*
X111887415Y-151834763D01*
X111815737Y-151845218D01*
X111728664Y-151850936D01*
X111635193Y-151851932D01*
X111544320Y-151848221D01*
X111465041Y-151839816D01*
X111433360Y-151834034D01*
X111291464Y-151790345D01*
X111157843Y-151724509D01*
X111035533Y-151639009D01*
X110927567Y-151536328D01*
X110836983Y-151418947D01*
X110766815Y-151289347D01*
X110766553Y-151288750D01*
X110736308Y-151215844D01*
X110714689Y-151152871D01*
X110700319Y-151092585D01*
X110691820Y-151027738D01*
X110687815Y-150951082D01*
X110686915Y-150869650D01*
X110686958Y-150866821D01*
X110947087Y-150866821D01*
X110959565Y-151000379D01*
X110972288Y-151058930D01*
X111017600Y-151189016D01*
X111081867Y-151303622D01*
X111163029Y-151401531D01*
X111259024Y-151481525D01*
X111367790Y-151542386D01*
X111487265Y-151582897D01*
X111615389Y-151601840D01*
X111750100Y-151597999D01*
X111853817Y-151579529D01*
X111970545Y-151538762D01*
X112075872Y-151477274D01*
X112168209Y-151397767D01*
X112245968Y-151302947D01*
X112307562Y-151195517D01*
X112351405Y-151078182D01*
X112375909Y-150953647D01*
X112379486Y-150824617D01*
X112364169Y-150709997D01*
X112324077Y-150576477D01*
X112264691Y-150457874D01*
X112187968Y-150355519D01*
X112095864Y-150270743D01*
X111990338Y-150204877D01*
X111873347Y-150159251D01*
X111746848Y-150135197D01*
X111612800Y-150134046D01*
X111532328Y-150144403D01*
X111406037Y-150179071D01*
X111292041Y-150234346D01*
X111191785Y-150307874D01*
X111106710Y-150397296D01*
X111038260Y-150500259D01*
X110987877Y-150614405D01*
X110957005Y-150737378D01*
X110947087Y-150866821D01*
X110686958Y-150866821D01*
X110688445Y-150768837D01*
X110694139Y-150686229D01*
X110705541Y-150614764D01*
X110724196Y-150547382D01*
X110751646Y-150477022D01*
X110789435Y-150396624D01*
X110791034Y-150393400D01*
X110821827Y-150334794D01*
X110852080Y-150286527D01*
X110887379Y-150241070D01*
X110933312Y-150190898D01*
X110965755Y-150157940D01*
X111079670Y-150057628D01*
X111197999Y-149981341D01*
X111323844Y-149927794D01*
X111460310Y-149895696D01*
X111610499Y-149883762D01*
X111626651Y-149883627D01*
X111727174Y-149885912D01*
X111810678Y-149894152D01*
X111885112Y-149909652D01*
X111958425Y-149933713D01*
X111977088Y-149941049D01*
X112101191Y-150001098D01*
X112210285Y-150076359D01*
X112282818Y-150141620D01*
X112368567Y-150226391D01*
X112372259Y-149690770D01*
X112373221Y-149555543D01*
X112374256Y-149443394D01*
X112375633Y-149352000D01*
X112377628Y-149279043D01*
X112380512Y-149222198D01*
X112384554Y-149179147D01*
X112390030Y-149147567D01*
X112397211Y-149125136D01*
X112406367Y-149109534D01*
X112417772Y-149098439D01*
X112431699Y-149089530D01*
X112443475Y-149083145D01*
X112476393Y-149072722D01*
X112518171Y-149068089D01*
X112525932Y-149068115D01*
G36*
X114342433Y-149893929D02*
G01*
X114494497Y-149927603D01*
X114634888Y-149983027D01*
X114762345Y-150059425D01*
X114875608Y-150156026D01*
X114973414Y-150272055D01*
X115054504Y-150406737D01*
X115063548Y-150425150D01*
X115099859Y-150506236D01*
X115125731Y-150579101D01*
X115142751Y-150651292D01*
X115152504Y-150730359D01*
X115156579Y-150823847D01*
X115156980Y-150869650D01*
X115155151Y-150970328D01*
X115148361Y-151053539D01*
X115135162Y-151126970D01*
X115114104Y-151198309D01*
X115083742Y-151275244D01*
X115078222Y-151287908D01*
X115005373Y-151422720D01*
X114913022Y-151542482D01*
X114803274Y-151645497D01*
X114678235Y-151730071D01*
X114540009Y-151794507D01*
X114398616Y-151835477D01*
X114339890Y-151844055D01*
X114264913Y-151849610D01*
X114182023Y-151852050D01*
X114099557Y-151851287D01*
X114025853Y-151847230D01*
X113970755Y-151840091D01*
X113823044Y-151798763D01*
X113685110Y-151735647D01*
X113559447Y-151652722D01*
X113448549Y-151551965D01*
X113354912Y-151435356D01*
X113281029Y-151304871D01*
X113272931Y-151286820D01*
X113230382Y-151167933D01*
X113204439Y-151042337D01*
X113193849Y-150903475D01*
X113193454Y-150869650D01*
X113194089Y-150856945D01*
X113462686Y-150856945D01*
X113465942Y-150956348D01*
X113477907Y-151045947D01*
X113482306Y-151065689D01*
X113524369Y-151186423D01*
X113587765Y-151299255D01*
X113669151Y-151399433D01*
X113765189Y-151482202D01*
X113784313Y-151495239D01*
X113895486Y-151553126D01*
X114017785Y-151589497D01*
X114148152Y-151603906D01*
X114283530Y-151595908D01*
X114366354Y-151580057D01*
X114485025Y-151538670D01*
X114593275Y-151475624D01*
X114688579Y-151393403D01*
X114768408Y-151294489D01*
X114830235Y-151181366D01*
X114862075Y-151092903D01*
X114877696Y-151015516D01*
X114885994Y-150923540D01*
X114886862Y-150826737D01*
X114880189Y-150734871D01*
X114866924Y-150661679D01*
X114822391Y-150538446D01*
X114757277Y-150426667D01*
X114674123Y-150329036D01*
X114575471Y-150248248D01*
X114463861Y-150186998D01*
X114395777Y-150161970D01*
X114297018Y-150141000D01*
X114187712Y-150133208D01*
X114078047Y-150138604D01*
X113978212Y-150157198D01*
X113963450Y-150161516D01*
X113839565Y-150212793D01*
X113729827Y-150284301D01*
X113636133Y-150374021D01*
X113560380Y-150479932D01*
X113504469Y-150600014D01*
X113482306Y-150673611D01*
X113468142Y-150758959D01*
X113462686Y-150856945D01*
X113194089Y-150856945D01*
X113200941Y-150720039D01*
X113224653Y-150586220D01*
X113265907Y-150463422D01*
X113326019Y-150346873D01*
X113346503Y-150314567D01*
X113443198Y-150189096D01*
X113553620Y-150084970D01*
X113677584Y-150002287D01*
X113814904Y-149941144D01*
X113965395Y-149901636D01*
X114128871Y-149883859D01*
X114179957Y-149882779D01*
X114342433Y-149893929D01*
G37*
X114342433Y-149893929D02*
X114494497Y-149927603D01*
X114634888Y-149983027D01*
X114762345Y-150059425D01*
X114875608Y-150156026D01*
X114973414Y-150272055D01*
X115054504Y-150406737D01*
X115063548Y-150425150D01*
X115099859Y-150506236D01*
X115125731Y-150579101D01*
X115142751Y-150651292D01*
X115152504Y-150730359D01*
X115156579Y-150823847D01*
X115156980Y-150869650D01*
X115155151Y-150970328D01*
X115148361Y-151053539D01*
X115135162Y-151126970D01*
X115114104Y-151198309D01*
X115083742Y-151275244D01*
X115078222Y-151287908D01*
X115005373Y-151422720D01*
X114913022Y-151542482D01*
X114803274Y-151645497D01*
X114678235Y-151730071D01*
X114540009Y-151794507D01*
X114398616Y-151835477D01*
X114339890Y-151844055D01*
X114264913Y-151849610D01*
X114182023Y-151852050D01*
X114099557Y-151851287D01*
X114025853Y-151847230D01*
X113970755Y-151840091D01*
X113823044Y-151798763D01*
X113685110Y-151735647D01*
X113559447Y-151652722D01*
X113448549Y-151551965D01*
X113354912Y-151435356D01*
X113281029Y-151304871D01*
X113272931Y-151286820D01*
X113230382Y-151167933D01*
X113204439Y-151042337D01*
X113193849Y-150903475D01*
X113193454Y-150869650D01*
X113194089Y-150856945D01*
X113462686Y-150856945D01*
X113465942Y-150956348D01*
X113477907Y-151045947D01*
X113482306Y-151065689D01*
X113524369Y-151186423D01*
X113587765Y-151299255D01*
X113669151Y-151399433D01*
X113765189Y-151482202D01*
X113784313Y-151495239D01*
X113895486Y-151553126D01*
X114017785Y-151589497D01*
X114148152Y-151603906D01*
X114283530Y-151595908D01*
X114366354Y-151580057D01*
X114485025Y-151538670D01*
X114593275Y-151475624D01*
X114688579Y-151393403D01*
X114768408Y-151294489D01*
X114830235Y-151181366D01*
X114862075Y-151092903D01*
X114877696Y-151015516D01*
X114885994Y-150923540D01*
X114886862Y-150826737D01*
X114880189Y-150734871D01*
X114866924Y-150661679D01*
X114822391Y-150538446D01*
X114757277Y-150426667D01*
X114674123Y-150329036D01*
X114575471Y-150248248D01*
X114463861Y-150186998D01*
X114395777Y-150161970D01*
X114297018Y-150141000D01*
X114187712Y-150133208D01*
X114078047Y-150138604D01*
X113978212Y-150157198D01*
X113963450Y-150161516D01*
X113839565Y-150212793D01*
X113729827Y-150284301D01*
X113636133Y-150374021D01*
X113560380Y-150479932D01*
X113504469Y-150600014D01*
X113482306Y-150673611D01*
X113468142Y-150758959D01*
X113462686Y-150856945D01*
X113194089Y-150856945D01*
X113200941Y-150720039D01*
X113224653Y-150586220D01*
X113265907Y-150463422D01*
X113326019Y-150346873D01*
X113346503Y-150314567D01*
X113443198Y-150189096D01*
X113553620Y-150084970D01*
X113677584Y-150002287D01*
X113814904Y-149941144D01*
X113965395Y-149901636D01*
X114128871Y-149883859D01*
X114179957Y-149882779D01*
X114342433Y-149893929D01*
G36*
X115980223Y-149287518D02*
G01*
X116024859Y-149310825D01*
X116053160Y-149343166D01*
X116061194Y-149358203D01*
X116067286Y-149375838D01*
X116071702Y-149399604D01*
X116074708Y-149433029D01*
X116076568Y-149479644D01*
X116077549Y-149542977D01*
X116077917Y-149626560D01*
X116077953Y-149672675D01*
X116078001Y-149961600D01*
X116281609Y-149961600D01*
X116380868Y-149962908D01*
X116457566Y-149967585D01*
X116514442Y-149976761D01*
X116554236Y-149991567D01*
X116579687Y-150013131D01*
X116593535Y-150042584D01*
X116598518Y-150081057D01*
X116598700Y-150092383D01*
X116588021Y-150139053D01*
X116565219Y-150169418D01*
X116531736Y-150202900D01*
X116078001Y-150202900D01*
X116078001Y-150697575D01*
X116078197Y-150836568D01*
X116078934Y-150952740D01*
X116080431Y-151048667D01*
X116082909Y-151126926D01*
X116086588Y-151190094D01*
X116091689Y-151240746D01*
X116098431Y-151281460D01*
X116107035Y-151314813D01*
X116117721Y-151343379D01*
X116130709Y-151369738D01*
X116136322Y-151379759D01*
X116193447Y-151455124D01*
X116266366Y-151511086D01*
X116353537Y-151546811D01*
X116453426Y-151561464D01*
X116472067Y-151561800D01*
X116522736Y-151563870D01*
X116568881Y-151569251D01*
X116595968Y-151575450D01*
X116640008Y-151602420D01*
X116667701Y-151642916D01*
X116678836Y-151690847D01*
X116673202Y-151740126D01*
X116650589Y-151784663D01*
X116610788Y-151818367D01*
X116604468Y-151821575D01*
X116562744Y-151833264D01*
X116504004Y-151839264D01*
X116435979Y-151839591D01*
X116366403Y-151834259D01*
X116303009Y-151823282D01*
X116293900Y-151820988D01*
X116173331Y-151776421D01*
X116066545Y-151711111D01*
X115975032Y-151626534D01*
X115900277Y-151524173D01*
X115843769Y-151405506D01*
X115827536Y-151356937D01*
X115822375Y-151336017D01*
X115818031Y-151309174D01*
X115814404Y-151273985D01*
X115811390Y-151228030D01*
X115808890Y-151168885D01*
X115806801Y-151094128D01*
X115805022Y-151001337D01*
X115803452Y-150888090D01*
X115801989Y-150751966D01*
X115801929Y-150745825D01*
X115796684Y-150202900D01*
X115663457Y-150202900D01*
X115605270Y-150201630D01*
X115554553Y-150198205D01*
X115517989Y-150193201D01*
X115504590Y-150189177D01*
X115476472Y-150161815D01*
X115457249Y-150120316D01*
X115451054Y-150075496D01*
X115453812Y-150056387D01*
X115468961Y-150020750D01*
X115494804Y-149995239D01*
X115535015Y-149978248D01*
X115593273Y-149968170D01*
X115666140Y-149963619D01*
X115798600Y-149959288D01*
X115799317Y-149684218D01*
X115800395Y-149574496D01*
X115802961Y-149485735D01*
X115806952Y-149419211D01*
X115812305Y-149376196D01*
X115815192Y-149364700D01*
X115841823Y-149320982D01*
X115882404Y-149293166D01*
X115930638Y-149281821D01*
X115980223Y-149287518D01*
G37*
X115980223Y-149287518D02*
X116024859Y-149310825D01*
X116053160Y-149343166D01*
X116061194Y-149358203D01*
X116067286Y-149375838D01*
X116071702Y-149399604D01*
X116074708Y-149433029D01*
X116076568Y-149479644D01*
X116077549Y-149542977D01*
X116077917Y-149626560D01*
X116077953Y-149672675D01*
X116078001Y-149961600D01*
X116281609Y-149961600D01*
X116380868Y-149962908D01*
X116457566Y-149967585D01*
X116514442Y-149976761D01*
X116554236Y-149991567D01*
X116579687Y-150013131D01*
X116593535Y-150042584D01*
X116598518Y-150081057D01*
X116598700Y-150092383D01*
X116588021Y-150139053D01*
X116565219Y-150169418D01*
X116531736Y-150202900D01*
X116078001Y-150202900D01*
X116078001Y-150697575D01*
X116078197Y-150836568D01*
X116078934Y-150952740D01*
X116080431Y-151048667D01*
X116082909Y-151126926D01*
X116086588Y-151190094D01*
X116091689Y-151240746D01*
X116098431Y-151281460D01*
X116107035Y-151314813D01*
X116117721Y-151343379D01*
X116130709Y-151369738D01*
X116136322Y-151379759D01*
X116193447Y-151455124D01*
X116266366Y-151511086D01*
X116353537Y-151546811D01*
X116453426Y-151561464D01*
X116472067Y-151561800D01*
X116522736Y-151563870D01*
X116568881Y-151569251D01*
X116595968Y-151575450D01*
X116640008Y-151602420D01*
X116667701Y-151642916D01*
X116678836Y-151690847D01*
X116673202Y-151740126D01*
X116650589Y-151784663D01*
X116610788Y-151818367D01*
X116604468Y-151821575D01*
X116562744Y-151833264D01*
X116504004Y-151839264D01*
X116435979Y-151839591D01*
X116366403Y-151834259D01*
X116303009Y-151823282D01*
X116293900Y-151820988D01*
X116173331Y-151776421D01*
X116066545Y-151711111D01*
X115975032Y-151626534D01*
X115900277Y-151524173D01*
X115843769Y-151405506D01*
X115827536Y-151356937D01*
X115822375Y-151336017D01*
X115818031Y-151309174D01*
X115814404Y-151273985D01*
X115811390Y-151228030D01*
X115808890Y-151168885D01*
X115806801Y-151094128D01*
X115805022Y-151001337D01*
X115803452Y-150888090D01*
X115801989Y-150751966D01*
X115801929Y-150745825D01*
X115796684Y-150202900D01*
X115663457Y-150202900D01*
X115605270Y-150201630D01*
X115554553Y-150198205D01*
X115517989Y-150193201D01*
X115504590Y-150189177D01*
X115476472Y-150161815D01*
X115457249Y-150120316D01*
X115451054Y-150075496D01*
X115453812Y-150056387D01*
X115468961Y-150020750D01*
X115494804Y-149995239D01*
X115535015Y-149978248D01*
X115593273Y-149968170D01*
X115666140Y-149963619D01*
X115798600Y-149959288D01*
X115799317Y-149684218D01*
X115800395Y-149574496D01*
X115802961Y-149485735D01*
X115806952Y-149419211D01*
X115812305Y-149376196D01*
X115815192Y-149364700D01*
X115841823Y-149320982D01*
X115882404Y-149293166D01*
X115930638Y-149281821D01*
X115980223Y-149287518D01*
G36*
X118105988Y-148769786D02*
G01*
X118180163Y-148770686D01*
X118180709Y-148770695D01*
X118416518Y-148774150D01*
X118818469Y-149787113D01*
X118879035Y-149939458D01*
X118937032Y-150084779D01*
X118991768Y-150221376D01*
X119042551Y-150347547D01*
X119088689Y-150461590D01*
X119129489Y-150561808D01*
X119164262Y-150646498D01*
X119192316Y-150713961D01*
X119212956Y-150762494D01*
X119225494Y-150790400D01*
X119229180Y-150796763D01*
X119238040Y-150786493D01*
X119261438Y-150757514D01*
X119298319Y-150711171D01*
X119347628Y-150648808D01*
X119408311Y-150571766D01*
X119479312Y-150481391D01*
X119559578Y-150379025D01*
X119648053Y-150266011D01*
X119743684Y-150143693D01*
X119845415Y-150013414D01*
X119952191Y-149876517D01*
X120024443Y-149783799D01*
X120810946Y-148774150D01*
X121062136Y-148770701D01*
X121150841Y-148769800D01*
X121216841Y-148769960D01*
X121262814Y-148771320D01*
X121291437Y-148774019D01*
X121305390Y-148778194D01*
X121307591Y-148783401D01*
X121304423Y-148797679D01*
X121296598Y-148835336D01*
X121284425Y-148894843D01*
X121268212Y-148974669D01*
X121248267Y-149073283D01*
X121224898Y-149189154D01*
X121198413Y-149320753D01*
X121169121Y-149466549D01*
X121137329Y-149625011D01*
X121103345Y-149794609D01*
X121067478Y-149973813D01*
X121030035Y-150161091D01*
X120998220Y-150320375D01*
X120694585Y-151841200D01*
X120424643Y-151841200D01*
X120344946Y-151840773D01*
X120274596Y-151839581D01*
X120217275Y-151837753D01*
X120176668Y-151835419D01*
X120156460Y-151832709D01*
X120154889Y-151831675D01*
X120157335Y-151818013D01*
X120164365Y-151781339D01*
X120175606Y-151723555D01*
X120190680Y-151646559D01*
X120209217Y-151552253D01*
X120230840Y-151442538D01*
X120255177Y-151319312D01*
X120281852Y-151184475D01*
X120310491Y-151039929D01*
X120340721Y-150887574D01*
X120350586Y-150837900D01*
X120381174Y-150683646D01*
X120410207Y-150536724D01*
X120437317Y-150399022D01*
X120462139Y-150272421D01*
X120484306Y-150158808D01*
X120503452Y-150060068D01*
X120519210Y-149978085D01*
X120531214Y-149914743D01*
X120539099Y-149871928D01*
X120542497Y-149851526D01*
X120542575Y-149850035D01*
X120534367Y-149859207D01*
X120511623Y-149886877D01*
X120475511Y-149931580D01*
X120427198Y-149991850D01*
X120367851Y-150066221D01*
X120298636Y-150153226D01*
X120220722Y-150251400D01*
X120135275Y-150359275D01*
X120043461Y-150475387D01*
X119946448Y-150598269D01*
X119892852Y-150666237D01*
X119246650Y-151486054D01*
X119113978Y-151482652D01*
X118981305Y-151479249D01*
X118637728Y-150645079D01*
X118580971Y-150507652D01*
X118526930Y-150377524D01*
X118476389Y-150256536D01*
X118430131Y-150146533D01*
X118388941Y-150049356D01*
X118353602Y-149966848D01*
X118324898Y-149900850D01*
X118303614Y-149853207D01*
X118290534Y-149825759D01*
X118286503Y-149819578D01*
X118283029Y-149832949D01*
X118275016Y-149869361D01*
X118262841Y-149926941D01*
X118246884Y-150003810D01*
X118227522Y-150098093D01*
X118205133Y-150207912D01*
X118180096Y-150331391D01*
X118152787Y-150466654D01*
X118123586Y-150611824D01*
X118092869Y-150765025D01*
X118061017Y-150924380D01*
X118028405Y-151088011D01*
X117995412Y-151254044D01*
X117962417Y-151420601D01*
X117929797Y-151585806D01*
X117897931Y-151747782D01*
X117892682Y-151774525D01*
X117879599Y-151841200D01*
X117607450Y-151841200D01*
X117527398Y-151840770D01*
X117456663Y-151839568D01*
X117398918Y-151837724D01*
X117357835Y-151835369D01*
X117337089Y-151832633D01*
X117335300Y-151831525D01*
X117337745Y-151818082D01*
X117344875Y-151781255D01*
X117356391Y-151722562D01*
X117371990Y-151643524D01*
X117391370Y-151545660D01*
X117414227Y-151430491D01*
X117440261Y-151299536D01*
X117469168Y-151154316D01*
X117500649Y-150996351D01*
X117534398Y-150827159D01*
X117570116Y-150648261D01*
X117607499Y-150461179D01*
X117640101Y-150298150D01*
X117678637Y-150105473D01*
X117715765Y-149919788D01*
X117751181Y-149742605D01*
X117784585Y-149575437D01*
X117815673Y-149419795D01*
X117844146Y-149277193D01*
X117869699Y-149149140D01*
X117892033Y-149037150D01*
X117910846Y-148942735D01*
X117925835Y-148867407D01*
X117936698Y-148812676D01*
X117943135Y-148780056D01*
X117944901Y-148770844D01*
X117956941Y-148769886D01*
X117990433Y-148769388D01*
X118041430Y-148769354D01*
X118105988Y-148769786D01*
G37*
X118105988Y-148769786D02*
X118180163Y-148770686D01*
X118180709Y-148770695D01*
X118416518Y-148774150D01*
X118818469Y-149787113D01*
X118879035Y-149939458D01*
X118937032Y-150084779D01*
X118991768Y-150221376D01*
X119042551Y-150347547D01*
X119088689Y-150461590D01*
X119129489Y-150561808D01*
X119164262Y-150646498D01*
X119192316Y-150713961D01*
X119212956Y-150762494D01*
X119225494Y-150790400D01*
X119229180Y-150796763D01*
X119238040Y-150786493D01*
X119261438Y-150757514D01*
X119298319Y-150711171D01*
X119347628Y-150648808D01*
X119408311Y-150571766D01*
X119479312Y-150481391D01*
X119559578Y-150379025D01*
X119648053Y-150266011D01*
X119743684Y-150143693D01*
X119845415Y-150013414D01*
X119952191Y-149876517D01*
X120024443Y-149783799D01*
X120810946Y-148774150D01*
X121062136Y-148770701D01*
X121150841Y-148769800D01*
X121216841Y-148769960D01*
X121262814Y-148771320D01*
X121291437Y-148774019D01*
X121305390Y-148778194D01*
X121307591Y-148783401D01*
X121304423Y-148797679D01*
X121296598Y-148835336D01*
X121284425Y-148894843D01*
X121268212Y-148974669D01*
X121248267Y-149073283D01*
X121224898Y-149189154D01*
X121198413Y-149320753D01*
X121169121Y-149466549D01*
X121137329Y-149625011D01*
X121103345Y-149794609D01*
X121067478Y-149973813D01*
X121030035Y-150161091D01*
X120998220Y-150320375D01*
X120694585Y-151841200D01*
X120424643Y-151841200D01*
X120344946Y-151840773D01*
X120274596Y-151839581D01*
X120217275Y-151837753D01*
X120176668Y-151835419D01*
X120156460Y-151832709D01*
X120154889Y-151831675D01*
X120157335Y-151818013D01*
X120164365Y-151781339D01*
X120175606Y-151723555D01*
X120190680Y-151646559D01*
X120209217Y-151552253D01*
X120230840Y-151442538D01*
X120255177Y-151319312D01*
X120281852Y-151184475D01*
X120310491Y-151039929D01*
X120340721Y-150887574D01*
X120350586Y-150837900D01*
X120381174Y-150683646D01*
X120410207Y-150536724D01*
X120437317Y-150399022D01*
X120462139Y-150272421D01*
X120484306Y-150158808D01*
X120503452Y-150060068D01*
X120519210Y-149978085D01*
X120531214Y-149914743D01*
X120539099Y-149871928D01*
X120542497Y-149851526D01*
X120542575Y-149850035D01*
X120534367Y-149859207D01*
X120511623Y-149886877D01*
X120475511Y-149931580D01*
X120427198Y-149991850D01*
X120367851Y-150066221D01*
X120298636Y-150153226D01*
X120220722Y-150251400D01*
X120135275Y-150359275D01*
X120043461Y-150475387D01*
X119946448Y-150598269D01*
X119892852Y-150666237D01*
X119246650Y-151486054D01*
X119113978Y-151482652D01*
X118981305Y-151479249D01*
X118637728Y-150645079D01*
X118580971Y-150507652D01*
X118526930Y-150377524D01*
X118476389Y-150256536D01*
X118430131Y-150146533D01*
X118388941Y-150049356D01*
X118353602Y-149966848D01*
X118324898Y-149900850D01*
X118303614Y-149853207D01*
X118290534Y-149825759D01*
X118286503Y-149819578D01*
X118283029Y-149832949D01*
X118275016Y-149869361D01*
X118262841Y-149926941D01*
X118246884Y-150003810D01*
X118227522Y-150098093D01*
X118205133Y-150207912D01*
X118180096Y-150331391D01*
X118152787Y-150466654D01*
X118123586Y-150611824D01*
X118092869Y-150765025D01*
X118061017Y-150924380D01*
X118028405Y-151088011D01*
X117995412Y-151254044D01*
X117962417Y-151420601D01*
X117929797Y-151585806D01*
X117897931Y-151747782D01*
X117892682Y-151774525D01*
X117879599Y-151841200D01*
X117607450Y-151841200D01*
X117527398Y-151840770D01*
X117456663Y-151839568D01*
X117398918Y-151837724D01*
X117357835Y-151835369D01*
X117337089Y-151832633D01*
X117335300Y-151831525D01*
X117337745Y-151818082D01*
X117344875Y-151781255D01*
X117356391Y-151722562D01*
X117371990Y-151643524D01*
X117391370Y-151545660D01*
X117414227Y-151430491D01*
X117440261Y-151299536D01*
X117469168Y-151154316D01*
X117500649Y-150996351D01*
X117534398Y-150827159D01*
X117570116Y-150648261D01*
X117607499Y-150461179D01*
X117640101Y-150298150D01*
X117678637Y-150105473D01*
X117715765Y-149919788D01*
X117751181Y-149742605D01*
X117784585Y-149575437D01*
X117815673Y-149419795D01*
X117844146Y-149277193D01*
X117869699Y-149149140D01*
X117892033Y-149037150D01*
X117910846Y-148942735D01*
X117925835Y-148867407D01*
X117936698Y-148812676D01*
X117943135Y-148780056D01*
X117944901Y-148770844D01*
X117956941Y-148769886D01*
X117990433Y-148769388D01*
X118041430Y-148769354D01*
X118105988Y-148769786D01*
G36*
X41397988Y-115368786D02*
G01*
X41472163Y-115369686D01*
X41472709Y-115369695D01*
X41708518Y-115373150D01*
X42110469Y-116386113D01*
X42171035Y-116538458D01*
X42229032Y-116683779D01*
X42283768Y-116820376D01*
X42334551Y-116946547D01*
X42380689Y-117060590D01*
X42421489Y-117160808D01*
X42456262Y-117245498D01*
X42484316Y-117312961D01*
X42504956Y-117361494D01*
X42517494Y-117389400D01*
X42521180Y-117395763D01*
X42530040Y-117385493D01*
X42553438Y-117356514D01*
X42590319Y-117310171D01*
X42639628Y-117247808D01*
X42700311Y-117170766D01*
X42771312Y-117080391D01*
X42851578Y-116978025D01*
X42940053Y-116865011D01*
X43035684Y-116742693D01*
X43137415Y-116612414D01*
X43244191Y-116475517D01*
X43316443Y-116382799D01*
X44102946Y-115373150D01*
X44354136Y-115369701D01*
X44442841Y-115368800D01*
X44508841Y-115368960D01*
X44554814Y-115370320D01*
X44583437Y-115373019D01*
X44597390Y-115377194D01*
X44599591Y-115382401D01*
X44596423Y-115396679D01*
X44588598Y-115434336D01*
X44576425Y-115493843D01*
X44560212Y-115573669D01*
X44540267Y-115672283D01*
X44516898Y-115788154D01*
X44490413Y-115919753D01*
X44461121Y-116065549D01*
X44429329Y-116224011D01*
X44395345Y-116393609D01*
X44359478Y-116572813D01*
X44322035Y-116760091D01*
X44290220Y-116919375D01*
X43986585Y-118440200D01*
X43716643Y-118440200D01*
X43636946Y-118439773D01*
X43566596Y-118438581D01*
X43509275Y-118436753D01*
X43468668Y-118434419D01*
X43448460Y-118431709D01*
X43446889Y-118430675D01*
X43449335Y-118417013D01*
X43456365Y-118380339D01*
X43467606Y-118322555D01*
X43482680Y-118245559D01*
X43501217Y-118151253D01*
X43522840Y-118041538D01*
X43547177Y-117918312D01*
X43573852Y-117783475D01*
X43602491Y-117638929D01*
X43632721Y-117486574D01*
X43642586Y-117436900D01*
X43673174Y-117282646D01*
X43702207Y-117135724D01*
X43729317Y-116998022D01*
X43754139Y-116871421D01*
X43776306Y-116757808D01*
X43795452Y-116659068D01*
X43811210Y-116577085D01*
X43823214Y-116513743D01*
X43831099Y-116470928D01*
X43834497Y-116450526D01*
X43834575Y-116449035D01*
X43826367Y-116458207D01*
X43803623Y-116485877D01*
X43767511Y-116530580D01*
X43719198Y-116590850D01*
X43659851Y-116665221D01*
X43590636Y-116752226D01*
X43512722Y-116850400D01*
X43427275Y-116958275D01*
X43335461Y-117074387D01*
X43238448Y-117197269D01*
X43184852Y-117265237D01*
X42538650Y-118085054D01*
X42405978Y-118081652D01*
X42273305Y-118078249D01*
X41929728Y-117244079D01*
X41872971Y-117106652D01*
X41818930Y-116976524D01*
X41768389Y-116855536D01*
X41722131Y-116745533D01*
X41680941Y-116648356D01*
X41645602Y-116565848D01*
X41616898Y-116499850D01*
X41595614Y-116452207D01*
X41582534Y-116424759D01*
X41578503Y-116418578D01*
X41575029Y-116431949D01*
X41567016Y-116468361D01*
X41554841Y-116525941D01*
X41538884Y-116602810D01*
X41519522Y-116697093D01*
X41497133Y-116806912D01*
X41472096Y-116930391D01*
X41444787Y-117065654D01*
X41415586Y-117210824D01*
X41384869Y-117364025D01*
X41353017Y-117523380D01*
X41320405Y-117687011D01*
X41287412Y-117853044D01*
X41254417Y-118019601D01*
X41221797Y-118184806D01*
X41189931Y-118346782D01*
X41184682Y-118373525D01*
X41171599Y-118440200D01*
X40899450Y-118440200D01*
X40819398Y-118439770D01*
X40748663Y-118438568D01*
X40690918Y-118436724D01*
X40649835Y-118434369D01*
X40629089Y-118431633D01*
X40627300Y-118430525D01*
X40629745Y-118417082D01*
X40636875Y-118380255D01*
X40648391Y-118321562D01*
X40663990Y-118242524D01*
X40683370Y-118144660D01*
X40706227Y-118029491D01*
X40732261Y-117898536D01*
X40761168Y-117753316D01*
X40792649Y-117595351D01*
X40826398Y-117426159D01*
X40862116Y-117247261D01*
X40899499Y-117060179D01*
X40932101Y-116897150D01*
X40970637Y-116704473D01*
X41007765Y-116518788D01*
X41043181Y-116341605D01*
X41076585Y-116174437D01*
X41107673Y-116018795D01*
X41136146Y-115876193D01*
X41161699Y-115748140D01*
X41184033Y-115636150D01*
X41202846Y-115541735D01*
X41217835Y-115466407D01*
X41228698Y-115411676D01*
X41235135Y-115379056D01*
X41236901Y-115369844D01*
X41248941Y-115368886D01*
X41282433Y-115368388D01*
X41333430Y-115368354D01*
X41397988Y-115368786D01*
G37*
X41397988Y-115368786D02*
X41472163Y-115369686D01*
X41472709Y-115369695D01*
X41708518Y-115373150D01*
X42110469Y-116386113D01*
X42171035Y-116538458D01*
X42229032Y-116683779D01*
X42283768Y-116820376D01*
X42334551Y-116946547D01*
X42380689Y-117060590D01*
X42421489Y-117160808D01*
X42456262Y-117245498D01*
X42484316Y-117312961D01*
X42504956Y-117361494D01*
X42517494Y-117389400D01*
X42521180Y-117395763D01*
X42530040Y-117385493D01*
X42553438Y-117356514D01*
X42590319Y-117310171D01*
X42639628Y-117247808D01*
X42700311Y-117170766D01*
X42771312Y-117080391D01*
X42851578Y-116978025D01*
X42940053Y-116865011D01*
X43035684Y-116742693D01*
X43137415Y-116612414D01*
X43244191Y-116475517D01*
X43316443Y-116382799D01*
X44102946Y-115373150D01*
X44354136Y-115369701D01*
X44442841Y-115368800D01*
X44508841Y-115368960D01*
X44554814Y-115370320D01*
X44583437Y-115373019D01*
X44597390Y-115377194D01*
X44599591Y-115382401D01*
X44596423Y-115396679D01*
X44588598Y-115434336D01*
X44576425Y-115493843D01*
X44560212Y-115573669D01*
X44540267Y-115672283D01*
X44516898Y-115788154D01*
X44490413Y-115919753D01*
X44461121Y-116065549D01*
X44429329Y-116224011D01*
X44395345Y-116393609D01*
X44359478Y-116572813D01*
X44322035Y-116760091D01*
X44290220Y-116919375D01*
X43986585Y-118440200D01*
X43716643Y-118440200D01*
X43636946Y-118439773D01*
X43566596Y-118438581D01*
X43509275Y-118436753D01*
X43468668Y-118434419D01*
X43448460Y-118431709D01*
X43446889Y-118430675D01*
X43449335Y-118417013D01*
X43456365Y-118380339D01*
X43467606Y-118322555D01*
X43482680Y-118245559D01*
X43501217Y-118151253D01*
X43522840Y-118041538D01*
X43547177Y-117918312D01*
X43573852Y-117783475D01*
X43602491Y-117638929D01*
X43632721Y-117486574D01*
X43642586Y-117436900D01*
X43673174Y-117282646D01*
X43702207Y-117135724D01*
X43729317Y-116998022D01*
X43754139Y-116871421D01*
X43776306Y-116757808D01*
X43795452Y-116659068D01*
X43811210Y-116577085D01*
X43823214Y-116513743D01*
X43831099Y-116470928D01*
X43834497Y-116450526D01*
X43834575Y-116449035D01*
X43826367Y-116458207D01*
X43803623Y-116485877D01*
X43767511Y-116530580D01*
X43719198Y-116590850D01*
X43659851Y-116665221D01*
X43590636Y-116752226D01*
X43512722Y-116850400D01*
X43427275Y-116958275D01*
X43335461Y-117074387D01*
X43238448Y-117197269D01*
X43184852Y-117265237D01*
X42538650Y-118085054D01*
X42405978Y-118081652D01*
X42273305Y-118078249D01*
X41929728Y-117244079D01*
X41872971Y-117106652D01*
X41818930Y-116976524D01*
X41768389Y-116855536D01*
X41722131Y-116745533D01*
X41680941Y-116648356D01*
X41645602Y-116565848D01*
X41616898Y-116499850D01*
X41595614Y-116452207D01*
X41582534Y-116424759D01*
X41578503Y-116418578D01*
X41575029Y-116431949D01*
X41567016Y-116468361D01*
X41554841Y-116525941D01*
X41538884Y-116602810D01*
X41519522Y-116697093D01*
X41497133Y-116806912D01*
X41472096Y-116930391D01*
X41444787Y-117065654D01*
X41415586Y-117210824D01*
X41384869Y-117364025D01*
X41353017Y-117523380D01*
X41320405Y-117687011D01*
X41287412Y-117853044D01*
X41254417Y-118019601D01*
X41221797Y-118184806D01*
X41189931Y-118346782D01*
X41184682Y-118373525D01*
X41171599Y-118440200D01*
X40899450Y-118440200D01*
X40819398Y-118439770D01*
X40748663Y-118438568D01*
X40690918Y-118436724D01*
X40649835Y-118434369D01*
X40629089Y-118431633D01*
X40627300Y-118430525D01*
X40629745Y-118417082D01*
X40636875Y-118380255D01*
X40648391Y-118321562D01*
X40663990Y-118242524D01*
X40683370Y-118144660D01*
X40706227Y-118029491D01*
X40732261Y-117898536D01*
X40761168Y-117753316D01*
X40792649Y-117595351D01*
X40826398Y-117426159D01*
X40862116Y-117247261D01*
X40899499Y-117060179D01*
X40932101Y-116897150D01*
X40970637Y-116704473D01*
X41007765Y-116518788D01*
X41043181Y-116341605D01*
X41076585Y-116174437D01*
X41107673Y-116018795D01*
X41136146Y-115876193D01*
X41161699Y-115748140D01*
X41184033Y-115636150D01*
X41202846Y-115541735D01*
X41217835Y-115466407D01*
X41228698Y-115411676D01*
X41235135Y-115379056D01*
X41236901Y-115369844D01*
X41248941Y-115368886D01*
X41282433Y-115368388D01*
X41333430Y-115368354D01*
X41397988Y-115368786D01*
G36*
X39272223Y-115886518D02*
G01*
X39316859Y-115909825D01*
X39345160Y-115942166D01*
X39353194Y-115957203D01*
X39359286Y-115974838D01*
X39363702Y-115998604D01*
X39366708Y-116032029D01*
X39368568Y-116078644D01*
X39369549Y-116141977D01*
X39369917Y-116225560D01*
X39369953Y-116271675D01*
X39370001Y-116560600D01*
X39573609Y-116560600D01*
X39672868Y-116561908D01*
X39749566Y-116566585D01*
X39806442Y-116575761D01*
X39846236Y-116590567D01*
X39871687Y-116612131D01*
X39885535Y-116641584D01*
X39890518Y-116680057D01*
X39890700Y-116691383D01*
X39880021Y-116738053D01*
X39857219Y-116768418D01*
X39823736Y-116801900D01*
X39370001Y-116801900D01*
X39370001Y-117296575D01*
X39370197Y-117435568D01*
X39370934Y-117551740D01*
X39372431Y-117647667D01*
X39374909Y-117725926D01*
X39378588Y-117789094D01*
X39383689Y-117839746D01*
X39390431Y-117880460D01*
X39399035Y-117913813D01*
X39409721Y-117942379D01*
X39422709Y-117968738D01*
X39428322Y-117978759D01*
X39485447Y-118054124D01*
X39558366Y-118110086D01*
X39645537Y-118145811D01*
X39745426Y-118160464D01*
X39764067Y-118160800D01*
X39814736Y-118162870D01*
X39860881Y-118168251D01*
X39887968Y-118174450D01*
X39932008Y-118201420D01*
X39959701Y-118241916D01*
X39970836Y-118289847D01*
X39965202Y-118339126D01*
X39942589Y-118383663D01*
X39902788Y-118417367D01*
X39896468Y-118420575D01*
X39854744Y-118432264D01*
X39796004Y-118438264D01*
X39727979Y-118438591D01*
X39658403Y-118433259D01*
X39595009Y-118422282D01*
X39585900Y-118419988D01*
X39465331Y-118375421D01*
X39358545Y-118310111D01*
X39267032Y-118225534D01*
X39192277Y-118123173D01*
X39135769Y-118004506D01*
X39119536Y-117955937D01*
X39114375Y-117935017D01*
X39110031Y-117908174D01*
X39106404Y-117872985D01*
X39103390Y-117827030D01*
X39100890Y-117767885D01*
X39098801Y-117693128D01*
X39097022Y-117600337D01*
X39095452Y-117487090D01*
X39093989Y-117350966D01*
X39093929Y-117344825D01*
X39088684Y-116801900D01*
X38955457Y-116801900D01*
X38897270Y-116800630D01*
X38846553Y-116797205D01*
X38809989Y-116792201D01*
X38796590Y-116788177D01*
X38768472Y-116760815D01*
X38749249Y-116719316D01*
X38743054Y-116674496D01*
X38745812Y-116655387D01*
X38760961Y-116619750D01*
X38786804Y-116594239D01*
X38827015Y-116577248D01*
X38885273Y-116567170D01*
X38958140Y-116562619D01*
X39090600Y-116558288D01*
X39091317Y-116283218D01*
X39092395Y-116173496D01*
X39094961Y-116084735D01*
X39098952Y-116018211D01*
X39104305Y-115975196D01*
X39107192Y-115963700D01*
X39133823Y-115919982D01*
X39174404Y-115892166D01*
X39222638Y-115880821D01*
X39272223Y-115886518D01*
G37*
X39272223Y-115886518D02*
X39316859Y-115909825D01*
X39345160Y-115942166D01*
X39353194Y-115957203D01*
X39359286Y-115974838D01*
X39363702Y-115998604D01*
X39366708Y-116032029D01*
X39368568Y-116078644D01*
X39369549Y-116141977D01*
X39369917Y-116225560D01*
X39369953Y-116271675D01*
X39370001Y-116560600D01*
X39573609Y-116560600D01*
X39672868Y-116561908D01*
X39749566Y-116566585D01*
X39806442Y-116575761D01*
X39846236Y-116590567D01*
X39871687Y-116612131D01*
X39885535Y-116641584D01*
X39890518Y-116680057D01*
X39890700Y-116691383D01*
X39880021Y-116738053D01*
X39857219Y-116768418D01*
X39823736Y-116801900D01*
X39370001Y-116801900D01*
X39370001Y-117296575D01*
X39370197Y-117435568D01*
X39370934Y-117551740D01*
X39372431Y-117647667D01*
X39374909Y-117725926D01*
X39378588Y-117789094D01*
X39383689Y-117839746D01*
X39390431Y-117880460D01*
X39399035Y-117913813D01*
X39409721Y-117942379D01*
X39422709Y-117968738D01*
X39428322Y-117978759D01*
X39485447Y-118054124D01*
X39558366Y-118110086D01*
X39645537Y-118145811D01*
X39745426Y-118160464D01*
X39764067Y-118160800D01*
X39814736Y-118162870D01*
X39860881Y-118168251D01*
X39887968Y-118174450D01*
X39932008Y-118201420D01*
X39959701Y-118241916D01*
X39970836Y-118289847D01*
X39965202Y-118339126D01*
X39942589Y-118383663D01*
X39902788Y-118417367D01*
X39896468Y-118420575D01*
X39854744Y-118432264D01*
X39796004Y-118438264D01*
X39727979Y-118438591D01*
X39658403Y-118433259D01*
X39595009Y-118422282D01*
X39585900Y-118419988D01*
X39465331Y-118375421D01*
X39358545Y-118310111D01*
X39267032Y-118225534D01*
X39192277Y-118123173D01*
X39135769Y-118004506D01*
X39119536Y-117955937D01*
X39114375Y-117935017D01*
X39110031Y-117908174D01*
X39106404Y-117872985D01*
X39103390Y-117827030D01*
X39100890Y-117767885D01*
X39098801Y-117693128D01*
X39097022Y-117600337D01*
X39095452Y-117487090D01*
X39093989Y-117350966D01*
X39093929Y-117344825D01*
X39088684Y-116801900D01*
X38955457Y-116801900D01*
X38897270Y-116800630D01*
X38846553Y-116797205D01*
X38809989Y-116792201D01*
X38796590Y-116788177D01*
X38768472Y-116760815D01*
X38749249Y-116719316D01*
X38743054Y-116674496D01*
X38745812Y-116655387D01*
X38760961Y-116619750D01*
X38786804Y-116594239D01*
X38827015Y-116577248D01*
X38885273Y-116567170D01*
X38958140Y-116562619D01*
X39090600Y-116558288D01*
X39091317Y-116283218D01*
X39092395Y-116173496D01*
X39094961Y-116084735D01*
X39098952Y-116018211D01*
X39104305Y-115975196D01*
X39107192Y-115963700D01*
X39133823Y-115919982D01*
X39174404Y-115892166D01*
X39222638Y-115880821D01*
X39272223Y-115886518D01*
G36*
X37634433Y-116492929D02*
G01*
X37786497Y-116526603D01*
X37926888Y-116582027D01*
X38054345Y-116658425D01*
X38167608Y-116755026D01*
X38265414Y-116871055D01*
X38346504Y-117005737D01*
X38355548Y-117024150D01*
X38391859Y-117105236D01*
X38417731Y-117178101D01*
X38434751Y-117250292D01*
X38444504Y-117329359D01*
X38448579Y-117422847D01*
X38448980Y-117468650D01*
X38447151Y-117569328D01*
X38440361Y-117652539D01*
X38427162Y-117725970D01*
X38406104Y-117797309D01*
X38375742Y-117874244D01*
X38370222Y-117886908D01*
X38297373Y-118021720D01*
X38205022Y-118141482D01*
X38095274Y-118244497D01*
X37970235Y-118329071D01*
X37832009Y-118393507D01*
X37690616Y-118434477D01*
X37631890Y-118443055D01*
X37556913Y-118448610D01*
X37474023Y-118451050D01*
X37391557Y-118450287D01*
X37317853Y-118446230D01*
X37262755Y-118439091D01*
X37115044Y-118397763D01*
X36977110Y-118334647D01*
X36851447Y-118251722D01*
X36740549Y-118150965D01*
X36646912Y-118034356D01*
X36573029Y-117903871D01*
X36564931Y-117885820D01*
X36522382Y-117766933D01*
X36496439Y-117641337D01*
X36485849Y-117502475D01*
X36485454Y-117468650D01*
X36486089Y-117455945D01*
X36754686Y-117455945D01*
X36757942Y-117555348D01*
X36769907Y-117644947D01*
X36774306Y-117664689D01*
X36816369Y-117785423D01*
X36879765Y-117898255D01*
X36961151Y-117998433D01*
X37057189Y-118081202D01*
X37076313Y-118094239D01*
X37187486Y-118152126D01*
X37309785Y-118188497D01*
X37440152Y-118202906D01*
X37575530Y-118194908D01*
X37658354Y-118179057D01*
X37777025Y-118137670D01*
X37885275Y-118074624D01*
X37980579Y-117992403D01*
X38060408Y-117893489D01*
X38122235Y-117780366D01*
X38154075Y-117691903D01*
X38169696Y-117614516D01*
X38177994Y-117522540D01*
X38178862Y-117425737D01*
X38172189Y-117333871D01*
X38158924Y-117260679D01*
X38114391Y-117137446D01*
X38049277Y-117025667D01*
X37966123Y-116928036D01*
X37867471Y-116847248D01*
X37755861Y-116785998D01*
X37687777Y-116760970D01*
X37589018Y-116740000D01*
X37479712Y-116732208D01*
X37370047Y-116737604D01*
X37270212Y-116756198D01*
X37255450Y-116760516D01*
X37131565Y-116811793D01*
X37021827Y-116883301D01*
X36928133Y-116973021D01*
X36852380Y-117078932D01*
X36796469Y-117199014D01*
X36774306Y-117272611D01*
X36760142Y-117357959D01*
X36754686Y-117455945D01*
X36486089Y-117455945D01*
X36492941Y-117319039D01*
X36516653Y-117185220D01*
X36557907Y-117062422D01*
X36618019Y-116945873D01*
X36638503Y-116913567D01*
X36735198Y-116788096D01*
X36845620Y-116683970D01*
X36969584Y-116601287D01*
X37106904Y-116540144D01*
X37257395Y-116500636D01*
X37420871Y-116482859D01*
X37471957Y-116481779D01*
X37634433Y-116492929D01*
G37*
X37634433Y-116492929D02*
X37786497Y-116526603D01*
X37926888Y-116582027D01*
X38054345Y-116658425D01*
X38167608Y-116755026D01*
X38265414Y-116871055D01*
X38346504Y-117005737D01*
X38355548Y-117024150D01*
X38391859Y-117105236D01*
X38417731Y-117178101D01*
X38434751Y-117250292D01*
X38444504Y-117329359D01*
X38448579Y-117422847D01*
X38448980Y-117468650D01*
X38447151Y-117569328D01*
X38440361Y-117652539D01*
X38427162Y-117725970D01*
X38406104Y-117797309D01*
X38375742Y-117874244D01*
X38370222Y-117886908D01*
X38297373Y-118021720D01*
X38205022Y-118141482D01*
X38095274Y-118244497D01*
X37970235Y-118329071D01*
X37832009Y-118393507D01*
X37690616Y-118434477D01*
X37631890Y-118443055D01*
X37556913Y-118448610D01*
X37474023Y-118451050D01*
X37391557Y-118450287D01*
X37317853Y-118446230D01*
X37262755Y-118439091D01*
X37115044Y-118397763D01*
X36977110Y-118334647D01*
X36851447Y-118251722D01*
X36740549Y-118150965D01*
X36646912Y-118034356D01*
X36573029Y-117903871D01*
X36564931Y-117885820D01*
X36522382Y-117766933D01*
X36496439Y-117641337D01*
X36485849Y-117502475D01*
X36485454Y-117468650D01*
X36486089Y-117455945D01*
X36754686Y-117455945D01*
X36757942Y-117555348D01*
X36769907Y-117644947D01*
X36774306Y-117664689D01*
X36816369Y-117785423D01*
X36879765Y-117898255D01*
X36961151Y-117998433D01*
X37057189Y-118081202D01*
X37076313Y-118094239D01*
X37187486Y-118152126D01*
X37309785Y-118188497D01*
X37440152Y-118202906D01*
X37575530Y-118194908D01*
X37658354Y-118179057D01*
X37777025Y-118137670D01*
X37885275Y-118074624D01*
X37980579Y-117992403D01*
X38060408Y-117893489D01*
X38122235Y-117780366D01*
X38154075Y-117691903D01*
X38169696Y-117614516D01*
X38177994Y-117522540D01*
X38178862Y-117425737D01*
X38172189Y-117333871D01*
X38158924Y-117260679D01*
X38114391Y-117137446D01*
X38049277Y-117025667D01*
X37966123Y-116928036D01*
X37867471Y-116847248D01*
X37755861Y-116785998D01*
X37687777Y-116760970D01*
X37589018Y-116740000D01*
X37479712Y-116732208D01*
X37370047Y-116737604D01*
X37270212Y-116756198D01*
X37255450Y-116760516D01*
X37131565Y-116811793D01*
X37021827Y-116883301D01*
X36928133Y-116973021D01*
X36852380Y-117078932D01*
X36796469Y-117199014D01*
X36774306Y-117272611D01*
X36760142Y-117357959D01*
X36754686Y-117455945D01*
X36486089Y-117455945D01*
X36492941Y-117319039D01*
X36516653Y-117185220D01*
X36557907Y-117062422D01*
X36618019Y-116945873D01*
X36638503Y-116913567D01*
X36735198Y-116788096D01*
X36845620Y-116683970D01*
X36969584Y-116601287D01*
X37106904Y-116540144D01*
X37257395Y-116500636D01*
X37420871Y-116482859D01*
X37471957Y-116481779D01*
X37634433Y-116492929D01*
G36*
X35817932Y-115667115D02*
G01*
X35859126Y-115673253D01*
X35890821Y-115693323D01*
X35905383Y-115708337D01*
X35941000Y-115748200D01*
X35941000Y-116667920D01*
X35940930Y-116848463D01*
X35940698Y-117005428D01*
X35940269Y-117140635D01*
X35939609Y-117255903D01*
X35938681Y-117353056D01*
X35937454Y-117433911D01*
X35935890Y-117500292D01*
X35933956Y-117554017D01*
X35931618Y-117596909D01*
X35928840Y-117630787D01*
X35925588Y-117657473D01*
X35921827Y-117678787D01*
X35921766Y-117679075D01*
X35879087Y-117827430D01*
X35815550Y-117962887D01*
X35729578Y-118088461D01*
X35674437Y-118151976D01*
X35559332Y-118257353D01*
X35431576Y-118341115D01*
X35292597Y-118402451D01*
X35179415Y-118433763D01*
X35107737Y-118444218D01*
X35020664Y-118449936D01*
X34927193Y-118450932D01*
X34836320Y-118447221D01*
X34757041Y-118438816D01*
X34725360Y-118433034D01*
X34583464Y-118389345D01*
X34449843Y-118323509D01*
X34327533Y-118238009D01*
X34219567Y-118135328D01*
X34128983Y-118017947D01*
X34058815Y-117888347D01*
X34058553Y-117887750D01*
X34028308Y-117814844D01*
X34006689Y-117751871D01*
X33992319Y-117691585D01*
X33983820Y-117626738D01*
X33979815Y-117550082D01*
X33978915Y-117468650D01*
X33978958Y-117465821D01*
X34239087Y-117465821D01*
X34251565Y-117599379D01*
X34264288Y-117657930D01*
X34309600Y-117788016D01*
X34373867Y-117902622D01*
X34455029Y-118000531D01*
X34551024Y-118080525D01*
X34659790Y-118141386D01*
X34779265Y-118181897D01*
X34907389Y-118200840D01*
X35042100Y-118196999D01*
X35145817Y-118178529D01*
X35262545Y-118137762D01*
X35367872Y-118076274D01*
X35460209Y-117996767D01*
X35537968Y-117901947D01*
X35599562Y-117794517D01*
X35643405Y-117677182D01*
X35667909Y-117552647D01*
X35671486Y-117423617D01*
X35656169Y-117308997D01*
X35616077Y-117175477D01*
X35556691Y-117056874D01*
X35479968Y-116954519D01*
X35387864Y-116869743D01*
X35282338Y-116803877D01*
X35165347Y-116758251D01*
X35038848Y-116734197D01*
X34904800Y-116733046D01*
X34824328Y-116743403D01*
X34698037Y-116778071D01*
X34584041Y-116833346D01*
X34483785Y-116906874D01*
X34398710Y-116996296D01*
X34330260Y-117099259D01*
X34279877Y-117213405D01*
X34249005Y-117336378D01*
X34239087Y-117465821D01*
X33978958Y-117465821D01*
X33980445Y-117367837D01*
X33986139Y-117285229D01*
X33997541Y-117213764D01*
X34016196Y-117146382D01*
X34043646Y-117076022D01*
X34081435Y-116995624D01*
X34083034Y-116992400D01*
X34113827Y-116933794D01*
X34144080Y-116885527D01*
X34179379Y-116840070D01*
X34225312Y-116789898D01*
X34257755Y-116756940D01*
X34371670Y-116656628D01*
X34489999Y-116580341D01*
X34615844Y-116526794D01*
X34752310Y-116494696D01*
X34902499Y-116482762D01*
X34918651Y-116482627D01*
X35019174Y-116484912D01*
X35102678Y-116493152D01*
X35177112Y-116508652D01*
X35250425Y-116532713D01*
X35269088Y-116540049D01*
X35393191Y-116600098D01*
X35502285Y-116675359D01*
X35574818Y-116740620D01*
X35660567Y-116825391D01*
X35664259Y-116289770D01*
X35665221Y-116154543D01*
X35666256Y-116042394D01*
X35667633Y-115951000D01*
X35669628Y-115878043D01*
X35672512Y-115821198D01*
X35676554Y-115778147D01*
X35682030Y-115746567D01*
X35689211Y-115724136D01*
X35698367Y-115708534D01*
X35709772Y-115697439D01*
X35723699Y-115688530D01*
X35735475Y-115682145D01*
X35768393Y-115671722D01*
X35810171Y-115667089D01*
X35817932Y-115667115D01*
G37*
X35817932Y-115667115D02*
X35859126Y-115673253D01*
X35890821Y-115693323D01*
X35905383Y-115708337D01*
X35941000Y-115748200D01*
X35941000Y-116667920D01*
X35940930Y-116848463D01*
X35940698Y-117005428D01*
X35940269Y-117140635D01*
X35939609Y-117255903D01*
X35938681Y-117353056D01*
X35937454Y-117433911D01*
X35935890Y-117500292D01*
X35933956Y-117554017D01*
X35931618Y-117596909D01*
X35928840Y-117630787D01*
X35925588Y-117657473D01*
X35921827Y-117678787D01*
X35921766Y-117679075D01*
X35879087Y-117827430D01*
X35815550Y-117962887D01*
X35729578Y-118088461D01*
X35674437Y-118151976D01*
X35559332Y-118257353D01*
X35431576Y-118341115D01*
X35292597Y-118402451D01*
X35179415Y-118433763D01*
X35107737Y-118444218D01*
X35020664Y-118449936D01*
X34927193Y-118450932D01*
X34836320Y-118447221D01*
X34757041Y-118438816D01*
X34725360Y-118433034D01*
X34583464Y-118389345D01*
X34449843Y-118323509D01*
X34327533Y-118238009D01*
X34219567Y-118135328D01*
X34128983Y-118017947D01*
X34058815Y-117888347D01*
X34058553Y-117887750D01*
X34028308Y-117814844D01*
X34006689Y-117751871D01*
X33992319Y-117691585D01*
X33983820Y-117626738D01*
X33979815Y-117550082D01*
X33978915Y-117468650D01*
X33978958Y-117465821D01*
X34239087Y-117465821D01*
X34251565Y-117599379D01*
X34264288Y-117657930D01*
X34309600Y-117788016D01*
X34373867Y-117902622D01*
X34455029Y-118000531D01*
X34551024Y-118080525D01*
X34659790Y-118141386D01*
X34779265Y-118181897D01*
X34907389Y-118200840D01*
X35042100Y-118196999D01*
X35145817Y-118178529D01*
X35262545Y-118137762D01*
X35367872Y-118076274D01*
X35460209Y-117996767D01*
X35537968Y-117901947D01*
X35599562Y-117794517D01*
X35643405Y-117677182D01*
X35667909Y-117552647D01*
X35671486Y-117423617D01*
X35656169Y-117308997D01*
X35616077Y-117175477D01*
X35556691Y-117056874D01*
X35479968Y-116954519D01*
X35387864Y-116869743D01*
X35282338Y-116803877D01*
X35165347Y-116758251D01*
X35038848Y-116734197D01*
X34904800Y-116733046D01*
X34824328Y-116743403D01*
X34698037Y-116778071D01*
X34584041Y-116833346D01*
X34483785Y-116906874D01*
X34398710Y-116996296D01*
X34330260Y-117099259D01*
X34279877Y-117213405D01*
X34249005Y-117336378D01*
X34239087Y-117465821D01*
X33978958Y-117465821D01*
X33980445Y-117367837D01*
X33986139Y-117285229D01*
X33997541Y-117213764D01*
X34016196Y-117146382D01*
X34043646Y-117076022D01*
X34081435Y-116995624D01*
X34083034Y-116992400D01*
X34113827Y-116933794D01*
X34144080Y-116885527D01*
X34179379Y-116840070D01*
X34225312Y-116789898D01*
X34257755Y-116756940D01*
X34371670Y-116656628D01*
X34489999Y-116580341D01*
X34615844Y-116526794D01*
X34752310Y-116494696D01*
X34902499Y-116482762D01*
X34918651Y-116482627D01*
X35019174Y-116484912D01*
X35102678Y-116493152D01*
X35177112Y-116508652D01*
X35250425Y-116532713D01*
X35269088Y-116540049D01*
X35393191Y-116600098D01*
X35502285Y-116675359D01*
X35574818Y-116740620D01*
X35660567Y-116825391D01*
X35664259Y-116289770D01*
X35665221Y-116154543D01*
X35666256Y-116042394D01*
X35667633Y-115951000D01*
X35669628Y-115878043D01*
X35672512Y-115821198D01*
X35676554Y-115778147D01*
X35682030Y-115746567D01*
X35689211Y-115724136D01*
X35698367Y-115708534D01*
X35709772Y-115697439D01*
X35723699Y-115688530D01*
X35735475Y-115682145D01*
X35768393Y-115671722D01*
X35810171Y-115667089D01*
X35817932Y-115667115D01*
G36*
X46995197Y-115336658D02*
G01*
X47185983Y-115360530D01*
X47361748Y-115401130D01*
X47525084Y-115459124D01*
X47678581Y-115535179D01*
X47744352Y-115574971D01*
X47776313Y-115597861D01*
X47817208Y-115630618D01*
X47862902Y-115669492D01*
X47909259Y-115710732D01*
X47952147Y-115750588D01*
X47987428Y-115785309D01*
X48010968Y-115811144D01*
X48018700Y-115823817D01*
X48009463Y-115833928D01*
X47984005Y-115857308D01*
X47945706Y-115891076D01*
X47897947Y-115932346D01*
X47844108Y-115978236D01*
X47787569Y-116025861D01*
X47731711Y-116072338D01*
X47679916Y-116114783D01*
X47640955Y-116146054D01*
X47611138Y-116169658D01*
X47538694Y-116100933D01*
X47457347Y-116029737D01*
X47378831Y-115974963D01*
X47294012Y-115930630D01*
X47250238Y-115912046D01*
X47103581Y-115865586D01*
X46943529Y-115837392D01*
X46774931Y-115828057D01*
X46625941Y-115835650D01*
X46444104Y-115863584D01*
X46278679Y-115909752D01*
X46127378Y-115975204D01*
X45987910Y-116060986D01*
X45857986Y-116168146D01*
X45821243Y-116203899D01*
X45708423Y-116335336D01*
X45616435Y-116480892D01*
X45545630Y-116639660D01*
X45496362Y-116810734D01*
X45468983Y-116993206D01*
X45463034Y-117125750D01*
X45465161Y-117229535D01*
X45473594Y-117315945D01*
X45489932Y-117392567D01*
X45515774Y-117466986D01*
X45551188Y-117543750D01*
X45619106Y-117650975D01*
X45706994Y-117744674D01*
X45812791Y-117823961D01*
X45934434Y-117887952D01*
X46069863Y-117935761D01*
X46217017Y-117966505D01*
X46373834Y-117979296D01*
X46538253Y-117973251D01*
X46548988Y-117972202D01*
X46707868Y-117948791D01*
X46848926Y-117912142D01*
X46955370Y-117871015D01*
X47034038Y-117835597D01*
X47224953Y-116871750D01*
X47494827Y-116868322D01*
X47574532Y-116867747D01*
X47644917Y-116868079D01*
X47702294Y-116869227D01*
X47742971Y-116871108D01*
X47763258Y-116873633D01*
X47764860Y-116874672D01*
X47762453Y-116888700D01*
X47755489Y-116925194D01*
X47744450Y-116981726D01*
X47729817Y-117055868D01*
X47712070Y-117145190D01*
X47691691Y-117247265D01*
X47669162Y-117359663D01*
X47644964Y-117479956D01*
X47641740Y-117495951D01*
X47518461Y-118107453D01*
X47422505Y-118171760D01*
X47249433Y-118273458D01*
X47060865Y-118356718D01*
X46855310Y-118422172D01*
X46799500Y-118436208D01*
X46748516Y-118447633D01*
X46701001Y-118456206D01*
X46651508Y-118462431D01*
X46594590Y-118466812D01*
X46524803Y-118469854D01*
X46436702Y-118472059D01*
X46405801Y-118472635D01*
X46289410Y-118473730D01*
X46195121Y-118472404D01*
X46119736Y-118468543D01*
X46060060Y-118462031D01*
X46045336Y-118459649D01*
X45857702Y-118418299D01*
X45688620Y-118362818D01*
X45534620Y-118291729D01*
X45392229Y-118203553D01*
X45324819Y-118153006D01*
X45201126Y-118038789D01*
X45096853Y-117908373D01*
X45012289Y-117762269D01*
X44947723Y-117600987D01*
X44903443Y-117425035D01*
X44899419Y-117402445D01*
X44888564Y-117309082D01*
X44883925Y-117198967D01*
X44885255Y-117079914D01*
X44892311Y-116959737D01*
X44904846Y-116846248D01*
X44919543Y-116761272D01*
X44976067Y-116552622D01*
X45054450Y-116356124D01*
X45153716Y-116172943D01*
X45272886Y-116004241D01*
X45410983Y-115851183D01*
X45567028Y-115714932D01*
X45740046Y-115596652D01*
X45929057Y-115497506D01*
X46010327Y-115462905D01*
X46169798Y-115407582D01*
X46334232Y-115367575D01*
X46508645Y-115342016D01*
X46698052Y-115330039D01*
X46786800Y-115328849D01*
X46995197Y-115336658D01*
G37*
X46995197Y-115336658D02*
X47185983Y-115360530D01*
X47361748Y-115401130D01*
X47525084Y-115459124D01*
X47678581Y-115535179D01*
X47744352Y-115574971D01*
X47776313Y-115597861D01*
X47817208Y-115630618D01*
X47862902Y-115669492D01*
X47909259Y-115710732D01*
X47952147Y-115750588D01*
X47987428Y-115785309D01*
X48010968Y-115811144D01*
X48018700Y-115823817D01*
X48009463Y-115833928D01*
X47984005Y-115857308D01*
X47945706Y-115891076D01*
X47897947Y-115932346D01*
X47844108Y-115978236D01*
X47787569Y-116025861D01*
X47731711Y-116072338D01*
X47679916Y-116114783D01*
X47640955Y-116146054D01*
X47611138Y-116169658D01*
X47538694Y-116100933D01*
X47457347Y-116029737D01*
X47378831Y-115974963D01*
X47294012Y-115930630D01*
X47250238Y-115912046D01*
X47103581Y-115865586D01*
X46943529Y-115837392D01*
X46774931Y-115828057D01*
X46625941Y-115835650D01*
X46444104Y-115863584D01*
X46278679Y-115909752D01*
X46127378Y-115975204D01*
X45987910Y-116060986D01*
X45857986Y-116168146D01*
X45821243Y-116203899D01*
X45708423Y-116335336D01*
X45616435Y-116480892D01*
X45545630Y-116639660D01*
X45496362Y-116810734D01*
X45468983Y-116993206D01*
X45463034Y-117125750D01*
X45465161Y-117229535D01*
X45473594Y-117315945D01*
X45489932Y-117392567D01*
X45515774Y-117466986D01*
X45551188Y-117543750D01*
X45619106Y-117650975D01*
X45706994Y-117744674D01*
X45812791Y-117823961D01*
X45934434Y-117887952D01*
X46069863Y-117935761D01*
X46217017Y-117966505D01*
X46373834Y-117979296D01*
X46538253Y-117973251D01*
X46548988Y-117972202D01*
X46707868Y-117948791D01*
X46848926Y-117912142D01*
X46955370Y-117871015D01*
X47034038Y-117835597D01*
X47224953Y-116871750D01*
X47494827Y-116868322D01*
X47574532Y-116867747D01*
X47644917Y-116868079D01*
X47702294Y-116869227D01*
X47742971Y-116871108D01*
X47763258Y-116873633D01*
X47764860Y-116874672D01*
X47762453Y-116888700D01*
X47755489Y-116925194D01*
X47744450Y-116981726D01*
X47729817Y-117055868D01*
X47712070Y-117145190D01*
X47691691Y-117247265D01*
X47669162Y-117359663D01*
X47644964Y-117479956D01*
X47641740Y-117495951D01*
X47518461Y-118107453D01*
X47422505Y-118171760D01*
X47249433Y-118273458D01*
X47060865Y-118356718D01*
X46855310Y-118422172D01*
X46799500Y-118436208D01*
X46748516Y-118447633D01*
X46701001Y-118456206D01*
X46651508Y-118462431D01*
X46594590Y-118466812D01*
X46524803Y-118469854D01*
X46436702Y-118472059D01*
X46405801Y-118472635D01*
X46289410Y-118473730D01*
X46195121Y-118472404D01*
X46119736Y-118468543D01*
X46060060Y-118462031D01*
X46045336Y-118459649D01*
X45857702Y-118418299D01*
X45688620Y-118362818D01*
X45534620Y-118291729D01*
X45392229Y-118203553D01*
X45324819Y-118153006D01*
X45201126Y-118038789D01*
X45096853Y-117908373D01*
X45012289Y-117762269D01*
X44947723Y-117600987D01*
X44903443Y-117425035D01*
X44899419Y-117402445D01*
X44888564Y-117309082D01*
X44883925Y-117198967D01*
X44885255Y-117079914D01*
X44892311Y-116959737D01*
X44904846Y-116846248D01*
X44919543Y-116761272D01*
X44976067Y-116552622D01*
X45054450Y-116356124D01*
X45153716Y-116172943D01*
X45272886Y-116004241D01*
X45410983Y-115851183D01*
X45567028Y-115714932D01*
X45740046Y-115596652D01*
X45929057Y-115497506D01*
X46010327Y-115462905D01*
X46169798Y-115407582D01*
X46334232Y-115367575D01*
X46508645Y-115342016D01*
X46698052Y-115330039D01*
X46786800Y-115328849D01*
X46995197Y-115336658D01*
D17*
X167576000Y-96626000D02*
X167226000Y-96626000D01*
X167576000Y-95906000D02*
X167226000Y-95906000D01*
X167576000Y-94086000D02*
X167166000Y-94086000D01*
X167576000Y-93366000D02*
X167166000Y-93366000D01*
X167576000Y-91546000D02*
X167166000Y-91546000D01*
X167576000Y-90826000D02*
X167166000Y-90826000D01*
X167576000Y-89006000D02*
X167166000Y-89006000D01*
X167576000Y-88286000D02*
X167166000Y-88286000D01*
X176206000Y-94996000D02*
X167576000Y-94996000D01*
X176206000Y-92456000D02*
X167576000Y-92456000D01*
X176206000Y-89916000D02*
X167576000Y-89916000D01*
X176206000Y-97536000D02*
X167576000Y-97536000D01*
X167576000Y-100076000D02*
X167576000Y-82296000D01*
X176206000Y-87376000D02*
X167576000Y-87376000D01*
X176206000Y-100076000D02*
X176206000Y-82296000D01*
X176206000Y-100076000D02*
X167576000Y-100076000D01*
X176206000Y-82296000D02*
X167576000Y-82296000D01*
X167576000Y-99166000D02*
X167226000Y-99166000D01*
X167576000Y-98446000D02*
X167226000Y-98446000D01*
X167576000Y-86466000D02*
X167226000Y-86466000D01*
X167576000Y-85746000D02*
X167226000Y-85746000D01*
X176206000Y-107696000D02*
X167576000Y-107696000D01*
X167576000Y-104246000D02*
X167166000Y-104246000D01*
X167576000Y-103526000D02*
X167166000Y-103526000D01*
X167576000Y-107696000D02*
X167576000Y-100076000D01*
X176206000Y-102616000D02*
X167576000Y-102616000D01*
X176206000Y-105156000D02*
X167576000Y-105156000D01*
X167576000Y-106786000D02*
X167166000Y-106786000D01*
X167576000Y-106066000D02*
X167166000Y-106066000D01*
X176206000Y-107696000D02*
X176206000Y-100076000D01*
X167576000Y-101706000D02*
X167226000Y-101706000D01*
X167576000Y-100986000D02*
X167226000Y-100986000D01*
X167576000Y-83206000D02*
X167226000Y-83206000D01*
X167576000Y-83926000D02*
X167226000Y-83926000D01*
X176206000Y-84836000D02*
X167576000Y-84836000D01*
X148241901Y-148033377D02*
X148301929Y-148148688D01*
X148301929Y-148148688D02*
X143476590Y-150660600D01*
X143476590Y-150660600D02*
X143416562Y-150545289D01*
X147004415Y-145656187D02*
X146944388Y-145540876D01*
X146944388Y-145540876D02*
X142119049Y-148052789D01*
X142119049Y-148052789D02*
X142179076Y-148168100D01*
X147503619Y-148564262D02*
X146146078Y-145956450D01*
X147397178Y-148619671D02*
X146039637Y-146011860D01*
X147610060Y-148508852D02*
X146252519Y-145901040D01*
X137220924Y-148033377D02*
X137280952Y-148148688D01*
X137280952Y-148148688D02*
X132455613Y-150660600D01*
X132455613Y-150660600D02*
X132395585Y-150545289D01*
X135983438Y-145656187D02*
X135923411Y-145540876D01*
X135923411Y-145540876D02*
X131098072Y-148052789D01*
X131098072Y-148052789D02*
X131158099Y-148168100D01*
X136482642Y-148564262D02*
X135125101Y-145956450D01*
X136376201Y-148619671D02*
X135018660Y-146011860D01*
X136589083Y-148508852D02*
X135231542Y-145901040D01*
D18*
G36*
X98171000Y-118110000D02*
G01*
X99421000Y-122428000D01*
X99421000Y-118110000D01*
X98171000Y-118110000D01*
G37*
X98171000Y-118110000D02*
X99421000Y-122428000D01*
X99421000Y-118110000D01*
X98171000Y-118110000D01*
X103700000Y-73496000D02*
X175700000Y-73496000D01*
X103700000Y-116496000D02*
X175700000Y-116496000D01*
X175700000Y-73496000D02*
X175700000Y-116496000D01*
X103700000Y-73496000D02*
X103700000Y-116496000D01*
D12*
X111200000Y-77596000D02*
X168200000Y-77596000D01*
X111200000Y-107096000D02*
X168200000Y-107096000D01*
X108700000Y-75596000D02*
X170700000Y-75596000D01*
X108700000Y-75596000D02*
X108700000Y-114396000D01*
X170700000Y-75596000D02*
X170700000Y-114396000D01*
X108700000Y-114396000D02*
X170700000Y-114396000D01*
X111200000Y-77596000D02*
X111200000Y-107096000D01*
X168200000Y-77596000D02*
X168200000Y-107096000D01*
D17*
X154852000Y-137303000D02*
X154852000Y-132803000D01*
X150852000Y-138553000D02*
X152352000Y-138553000D01*
X148352000Y-132803000D02*
X148352000Y-137303000D01*
X152352000Y-131553000D02*
X150852000Y-131553000D01*
X164631000Y-132350000D02*
X164631000Y-127850000D01*
X160631000Y-133600000D02*
X162131000Y-133600000D01*
X158131000Y-127850000D02*
X158131000Y-132350000D01*
X162131000Y-126600000D02*
X160631000Y-126600000D01*
X126186000Y-128234000D02*
X126186000Y-123734000D01*
X122186000Y-129484000D02*
X123686000Y-129484000D01*
X119686000Y-123734000D02*
X119686000Y-128234000D01*
X123686000Y-122484000D02*
X122186000Y-122484000D01*
X119686000Y-137958000D02*
X119686000Y-142458000D01*
X123686000Y-136708000D02*
X122186000Y-136708000D01*
X126186000Y-142458000D02*
X126186000Y-137958000D01*
X122186000Y-143708000D02*
X123686000Y-143708000D01*
X119074000Y-135346000D02*
X119074000Y-130846000D01*
X115074000Y-136596000D02*
X116574000Y-136596000D01*
X112574000Y-130846000D02*
X112574000Y-135346000D01*
X116574000Y-129596000D02*
X115074000Y-129596000D01*
X126798000Y-130846000D02*
X126798000Y-135346000D01*
X130798000Y-129596000D02*
X129298000Y-129596000D01*
X133298000Y-135346000D02*
X133298000Y-130846000D01*
X129298000Y-136596000D02*
X130798000Y-136596000D01*
X168224000Y-125730000D02*
X168224000Y-118110000D01*
X168224000Y-125730000D02*
X170434000Y-125730000D01*
X177749000Y-121920000D02*
G75*
G03*
X177749000Y-121920000I-4445000J0D01*
G01*
X168224000Y-118110000D02*
X170434000Y-118110000D01*
X173804000Y-121920000D02*
G75*
G03*
X173804000Y-121920000I-500000J0D01*
G01*
D18*
G36*
X166370000Y-118110000D02*
G01*
X167620000Y-122428000D01*
X167620000Y-118110000D01*
X166370000Y-118110000D01*
G37*
X166370000Y-118110000D02*
X167620000Y-122428000D01*
X167620000Y-118110000D01*
X166370000Y-118110000D01*
D17*
X176026000Y-140208000D02*
G75*
G03*
X176026000Y-140208000I-6100000J0D01*
G01*
X109029500Y-68275200D02*
X117538500Y-68275200D01*
X109029500Y-71780400D02*
X109029500Y-68275200D01*
X117538500Y-71780400D02*
X117538500Y-68275200D01*
X109029500Y-71780400D02*
X117538500Y-71780400D01*
D19*
X125114866Y-148974628D02*
X125550295Y-148974628D01*
X125332580Y-149431828D02*
X125332580Y-148974628D01*
X125804295Y-149431828D02*
X125804295Y-148974628D01*
X126058295Y-149301200D01*
X126312295Y-148974628D01*
X126312295Y-149431828D01*
X48406866Y-115573628D02*
X48842295Y-115573628D01*
X48624580Y-116030828D02*
X48624580Y-115573628D01*
X49096295Y-116030828D02*
X49096295Y-115573628D01*
X49350295Y-115900200D01*
X49604295Y-115573628D01*
X49604295Y-116030828D01*
D14*
X98376619Y-125488095D02*
X99392619Y-125149428D01*
X98376619Y-124810761D01*
X98376619Y-124278571D02*
X98376619Y-124085047D01*
X98425000Y-123988285D01*
X98521761Y-123891523D01*
X98715285Y-123843142D01*
X99053952Y-123843142D01*
X99247476Y-123891523D01*
X99344238Y-123988285D01*
X99392619Y-124085047D01*
X99392619Y-124278571D01*
X99344238Y-124375333D01*
X99247476Y-124472095D01*
X99053952Y-124520476D01*
X98715285Y-124520476D01*
X98521761Y-124472095D01*
X98425000Y-124375333D01*
X98376619Y-124278571D01*
X99392619Y-122923904D02*
X99392619Y-123407714D01*
X98376619Y-123407714D01*
D10*
X72067344Y-130322853D02*
X73140205Y-129764357D01*
X72104095Y-130917340D02*
X71975467Y-128836637D01*
X73606100Y-130135446D01*
X82334268Y-124604508D02*
X82698013Y-124517424D01*
X82847186Y-124542039D01*
X83038247Y-124647119D01*
X83163909Y-124888512D01*
X83140397Y-125105291D01*
X83074998Y-125241605D01*
X82902313Y-125433769D01*
X82044024Y-125880566D01*
X81164393Y-124190810D01*
X81915396Y-123799863D01*
X82171855Y-123768628D01*
X82321028Y-123793243D01*
X82512089Y-123898323D01*
X82595863Y-124059252D01*
X82572352Y-124276030D01*
X82506953Y-124412345D01*
X82334268Y-124604508D01*
X81583265Y-124995455D01*
D14*
X166575619Y-125488095D02*
X167591619Y-125149428D01*
X166575619Y-124810761D01*
X166575619Y-124278571D02*
X166575619Y-124085047D01*
X166624000Y-123988285D01*
X166720761Y-123891523D01*
X166914285Y-123843142D01*
X167252952Y-123843142D01*
X167446476Y-123891523D01*
X167543238Y-123988285D01*
X167591619Y-124085047D01*
X167591619Y-124278571D01*
X167543238Y-124375333D01*
X167446476Y-124472095D01*
X167252952Y-124520476D01*
X166914285Y-124520476D01*
X166720761Y-124472095D01*
X166624000Y-124375333D01*
X166575619Y-124278571D01*
X167591619Y-122923904D02*
X167591619Y-123407714D01*
X166575619Y-123407714D01*
D18*
X107042095Y-118471904D02*
X106775428Y-118090952D01*
X106584952Y-118471904D02*
X106584952Y-117671904D01*
X106889714Y-117671904D01*
X106965904Y-117710000D01*
X107004000Y-117748095D01*
X107042095Y-117824285D01*
X107042095Y-117938571D01*
X107004000Y-118014761D01*
X106965904Y-118052857D01*
X106889714Y-118090952D01*
X106584952Y-118090952D01*
X107384952Y-118052857D02*
X107651619Y-118052857D01*
X107765904Y-118471904D02*
X107384952Y-118471904D01*
X107384952Y-117671904D01*
X107765904Y-117671904D01*
X108070666Y-118433809D02*
X108184952Y-118471904D01*
X108375428Y-118471904D01*
X108451619Y-118433809D01*
X108489714Y-118395714D01*
X108527809Y-118319523D01*
X108527809Y-118243333D01*
X108489714Y-118167142D01*
X108451619Y-118129047D01*
X108375428Y-118090952D01*
X108223047Y-118052857D01*
X108146857Y-118014761D01*
X108108761Y-117976666D01*
X108070666Y-117900476D01*
X108070666Y-117824285D01*
X108108761Y-117748095D01*
X108146857Y-117710000D01*
X108223047Y-117671904D01*
X108413523Y-117671904D01*
X108527809Y-117710000D01*
X108870666Y-118052857D02*
X109137333Y-118052857D01*
X109251619Y-118471904D02*
X108870666Y-118471904D01*
X108870666Y-117671904D01*
X109251619Y-117671904D01*
X109480190Y-117671904D02*
X109937333Y-117671904D01*
X109708761Y-118471904D02*
X109708761Y-117671904D01*
%LPC*%
D20*
X77141378Y-138760262D02*
G75*
G02*
X73281622Y-131345738I-1929878J3707262D01*
G01*
X83060622Y-126392738D02*
G75*
G02*
X86920378Y-133807262I1929878J-3707262D01*
G01*
X86920378Y-133807262D02*
X77141378Y-138760262D01*
X83060622Y-126392738D02*
X73281622Y-131345738D01*
D18*
X37395000Y-66865500D02*
X37395000Y-67691000D01*
X36895000Y-66865500D02*
X36895000Y-67691000D01*
X36395000Y-66865500D02*
X36395000Y-67691000D01*
X40513000Y-67691000D02*
G75*
G02*
X40513000Y-69469000I0J-889000D01*
G01*
X35560000Y-69469000D02*
G75*
G02*
X35560000Y-67691000I0J889000D01*
G01*
X35560000Y-67691000D02*
X40513000Y-67691000D01*
X40513000Y-69469000D02*
X35560000Y-69469000D01*
D20*
X93654500Y-66675000D02*
X93654500Y-73660000D01*
X32964500Y-66675000D02*
X32964500Y-73660000D01*
X25400000Y-73660000D02*
X100965000Y-73660000D01*
X53657500Y-133096000D02*
G75*
G03*
X53657500Y-133096000I-7112000J0D01*
G01*
D13*
G36*
X117264078Y-148724943D02*
G01*
X117265053Y-148725039D01*
X117274843Y-148726989D01*
X117275781Y-148727274D01*
X117284946Y-148731071D01*
X117285811Y-148731533D01*
X117294072Y-148737046D01*
X117294830Y-148737667D01*
X117301932Y-148744769D01*
X117302553Y-148745527D01*
X117308066Y-148753788D01*
X117308528Y-148754653D01*
X117312325Y-148763818D01*
X117312610Y-148764756D01*
X117314560Y-148774546D01*
X117314656Y-148775521D01*
X117314900Y-148780499D01*
X117314900Y-149631399D01*
X117314656Y-149636377D01*
X117314560Y-149637352D01*
X117312610Y-149647142D01*
X117312325Y-149648080D01*
X117308528Y-149657245D01*
X117308066Y-149658110D01*
X117302553Y-149666371D01*
X117301932Y-149667129D01*
X117294830Y-149674231D01*
X117294072Y-149674852D01*
X117285811Y-149680365D01*
X117284946Y-149680827D01*
X117275781Y-149684624D01*
X117274843Y-149684909D01*
X117265053Y-149686859D01*
X117264078Y-149686955D01*
X117259100Y-149687199D01*
X116420901Y-149687199D01*
X116415923Y-149686955D01*
X116414948Y-149686859D01*
X116405158Y-149684909D01*
X116404220Y-149684624D01*
X116395055Y-149680827D01*
X116394190Y-149680365D01*
X116385929Y-149674852D01*
X116385171Y-149674231D01*
X116378069Y-149667129D01*
X116377448Y-149666371D01*
X116371935Y-149658110D01*
X116371473Y-149657245D01*
X116367676Y-149648080D01*
X116367391Y-149647142D01*
X116365441Y-149637352D01*
X116365345Y-149636377D01*
X116365101Y-149631399D01*
X116365101Y-148780499D01*
X116365345Y-148775521D01*
X116365441Y-148774546D01*
X116367391Y-148764756D01*
X116367676Y-148763818D01*
X116371473Y-148754653D01*
X116371935Y-148753788D01*
X116377448Y-148745527D01*
X116378069Y-148744769D01*
X116385171Y-148737667D01*
X116385929Y-148737046D01*
X116394190Y-148731533D01*
X116395055Y-148731071D01*
X116404220Y-148727274D01*
X116405158Y-148726989D01*
X116414948Y-148725039D01*
X116415923Y-148724943D01*
X116420901Y-148724699D01*
X117259100Y-148724699D01*
X117264078Y-148724943D01*
G37*
D21*
X176879000Y-132207000D03*
X178911000Y-132207000D03*
X176879000Y-130429000D03*
X178911000Y-130429000D03*
X176879000Y-133096000D03*
X176879000Y-131318000D03*
X176879000Y-129540000D03*
X178911000Y-133096000D03*
X178911000Y-129540000D03*
X178911000Y-131318000D03*
X176879000Y-97028000D03*
X178911000Y-97028000D03*
X176879000Y-95250000D03*
X178911000Y-95250000D03*
X176879000Y-97917000D03*
X176879000Y-96139000D03*
X176879000Y-94361000D03*
X178911000Y-97917000D03*
X178911000Y-94361000D03*
X178911000Y-96139000D03*
X102521000Y-95250000D03*
X100489000Y-95250000D03*
X102521000Y-97028000D03*
X100489000Y-97028000D03*
X102521000Y-94361000D03*
X102521000Y-96139000D03*
X102521000Y-97917000D03*
X100489000Y-94361000D03*
X100489000Y-97917000D03*
X100489000Y-96139000D03*
X102521000Y-130429000D03*
X100489000Y-130429000D03*
X102521000Y-132207000D03*
X100489000Y-132207000D03*
X102521000Y-129540000D03*
X102521000Y-131318000D03*
X102521000Y-133096000D03*
X100489000Y-129540000D03*
X100489000Y-133096000D03*
X100489000Y-131318000D03*
D22*
X107696000Y-132969000D03*
D13*
G36*
X40556078Y-115323943D02*
G01*
X40557053Y-115324039D01*
X40566843Y-115325989D01*
X40567781Y-115326274D01*
X40576946Y-115330071D01*
X40577811Y-115330533D01*
X40586072Y-115336046D01*
X40586830Y-115336667D01*
X40593932Y-115343769D01*
X40594553Y-115344527D01*
X40600066Y-115352788D01*
X40600528Y-115353653D01*
X40604325Y-115362818D01*
X40604610Y-115363756D01*
X40606560Y-115373546D01*
X40606656Y-115374521D01*
X40606900Y-115379499D01*
X40606900Y-116230399D01*
X40606656Y-116235377D01*
X40606560Y-116236352D01*
X40604610Y-116246142D01*
X40604325Y-116247080D01*
X40600528Y-116256245D01*
X40600066Y-116257110D01*
X40594553Y-116265371D01*
X40593932Y-116266129D01*
X40586830Y-116273231D01*
X40586072Y-116273852D01*
X40577811Y-116279365D01*
X40576946Y-116279827D01*
X40567781Y-116283624D01*
X40566843Y-116283909D01*
X40557053Y-116285859D01*
X40556078Y-116285955D01*
X40551100Y-116286199D01*
X39712901Y-116286199D01*
X39707923Y-116285955D01*
X39706948Y-116285859D01*
X39697158Y-116283909D01*
X39696220Y-116283624D01*
X39687055Y-116279827D01*
X39686190Y-116279365D01*
X39677929Y-116273852D01*
X39677171Y-116273231D01*
X39670069Y-116266129D01*
X39669448Y-116265371D01*
X39663935Y-116257110D01*
X39663473Y-116256245D01*
X39659676Y-116247080D01*
X39659391Y-116246142D01*
X39657441Y-116236352D01*
X39657345Y-116235377D01*
X39657101Y-116230399D01*
X39657101Y-115379499D01*
X39657345Y-115374521D01*
X39657441Y-115373546D01*
X39659391Y-115363756D01*
X39659676Y-115362818D01*
X39663473Y-115353653D01*
X39663935Y-115352788D01*
X39669448Y-115344527D01*
X39670069Y-115343769D01*
X39677171Y-115336667D01*
X39677929Y-115336046D01*
X39686190Y-115330533D01*
X39687055Y-115330071D01*
X39696220Y-115326274D01*
X39697158Y-115325989D01*
X39706948Y-115324039D01*
X39707923Y-115323943D01*
X39712901Y-115323699D01*
X40551100Y-115323699D01*
X40556078Y-115323943D01*
G37*
D22*
X166116000Y-86106000D03*
X166116000Y-101346000D03*
X166116000Y-103886000D03*
X166116000Y-106426000D03*
X166116000Y-83566000D03*
D23*
X166116000Y-98806000D03*
D22*
X166116000Y-88646000D03*
X166116000Y-91186000D03*
X166116000Y-93726000D03*
D23*
X166116000Y-96266000D03*
G36*
G01*
X142851749Y-149328620D02*
X142851749Y-149328620D01*
G75*
G02*
X142362357Y-150880772I-1020772J-531380D01*
G01*
X142362357Y-150880772D01*
G75*
G02*
X140810205Y-150391380I-531380J1020772D01*
G01*
X140810205Y-150391380D01*
G75*
G02*
X141299597Y-148839228I1020772J531380D01*
G01*
X141299597Y-148839228D01*
G75*
G02*
X142851749Y-149328620I531380J-1020772D01*
G01*
G37*
G36*
G01*
X149102848Y-144834384D02*
X150118695Y-146785807D01*
G75*
G02*
X150097092Y-146854324I-45060J-23457D01*
G01*
X148145669Y-147870171D01*
G75*
G02*
X148077152Y-147848568I-23457J45060D01*
G01*
X147061305Y-145897145D01*
G75*
G02*
X147082908Y-145828628I45060J23457D01*
G01*
X149034331Y-144812781D01*
G75*
G02*
X149102848Y-144834384I23457J-45060D01*
G01*
G37*
G36*
G01*
X131830772Y-149328620D02*
X131830772Y-149328620D01*
G75*
G02*
X131341380Y-150880772I-1020772J-531380D01*
G01*
X131341380Y-150880772D01*
G75*
G02*
X129789228Y-150391380I-531380J1020772D01*
G01*
X129789228Y-150391380D01*
G75*
G02*
X130278620Y-148839228I1020772J531380D01*
G01*
X130278620Y-148839228D01*
G75*
G02*
X131830772Y-149328620I531380J-1020772D01*
G01*
G37*
G36*
G01*
X138081871Y-144834384D02*
X139097718Y-146785807D01*
G75*
G02*
X139076115Y-146854324I-45060J-23457D01*
G01*
X137124692Y-147870171D01*
G75*
G02*
X137056175Y-147848568I-23457J45060D01*
G01*
X136040328Y-145897145D01*
G75*
G02*
X136061931Y-145828628I45060J23457D01*
G01*
X138013354Y-144812781D01*
G75*
G02*
X138081871Y-144834384I23457J-45060D01*
G01*
G37*
D24*
X156210000Y-109920000D03*
X153670000Y-109920000D03*
X151130000Y-109920000D03*
X148590000Y-109920000D03*
X146050000Y-109920000D03*
X143510000Y-109920000D03*
X140970000Y-109920000D03*
X138430000Y-109920000D03*
X135890000Y-109920000D03*
X133350000Y-109920000D03*
X130810000Y-109920000D03*
X128270000Y-109920000D03*
X125730000Y-109920000D03*
X123190000Y-109920000D03*
X123190000Y-115000000D03*
X125730000Y-115000000D03*
X128270000Y-115000000D03*
X130810000Y-115000000D03*
X133350000Y-115000000D03*
X135890000Y-115000000D03*
X156210000Y-115000000D03*
X153670000Y-115000000D03*
X151130000Y-115000000D03*
X148590000Y-115000000D03*
X146050000Y-115000000D03*
X143510000Y-115000000D03*
X138430000Y-115000000D03*
X140970000Y-115000000D03*
D23*
X106200000Y-102616000D03*
X106200000Y-100076000D03*
X106200000Y-97536000D03*
X106200000Y-94996000D03*
X106200000Y-92456000D03*
X106200000Y-89916000D03*
X106200000Y-87376000D03*
D25*
X153852000Y-138303000D03*
X149352000Y-138303000D03*
X153852000Y-131803000D03*
X149352000Y-131803000D03*
X163631000Y-133350000D03*
X159131000Y-133350000D03*
X163631000Y-126850000D03*
X159131000Y-126850000D03*
X125186000Y-129234000D03*
X120686000Y-129234000D03*
X125186000Y-122734000D03*
X120686000Y-122734000D03*
X120686000Y-136958000D03*
X125186000Y-136958000D03*
X120686000Y-143458000D03*
X125186000Y-143458000D03*
X118074000Y-136346000D03*
X113574000Y-136346000D03*
X118074000Y-129846000D03*
X113574000Y-129846000D03*
X127798000Y-129846000D03*
X132298000Y-129846000D03*
X127798000Y-136346000D03*
X132298000Y-136346000D03*
D26*
X249999500Y-70104000D03*
X232854500Y-151130000D03*
X182181500Y-70104000D03*
X182181500Y-151130000D03*
D27*
X170434000Y-121920000D03*
X170434000Y-124460000D03*
X170434000Y-119380000D03*
D26*
X97218500Y-70104000D03*
X80073500Y-151130000D03*
X29400500Y-70104000D03*
X29400500Y-151130000D03*
D28*
X105791000Y-151130000D03*
X105791000Y-70104000D03*
X156464000Y-151130000D03*
D29*
X173609000Y-70104000D03*
D24*
X172426000Y-140208000D03*
X167426000Y-140208000D03*
D30*
X112776000Y-114300000D03*
D31*
X112776000Y-121920000D03*
D32*
X110794800Y-70866000D03*
X113284000Y-70866000D03*
X115773200Y-70866000D03*
D33*
X109170000Y-121584000D03*
D24*
X106680000Y-120324000D03*
X106680000Y-115824000D03*
D33*
X109170000Y-114574000D03*
D23*
X114554000Y-145161000D03*
X112014000Y-145161000D03*
X117094000Y-145161000D03*
X109474000Y-145161000D03*
M02*
