G04 #@! TF.GenerationSoftware,KiCad,Pcbnew,(5.1.9-0-10_14)*
G04 #@! TF.CreationDate,2021-11-21T11:40:05-08:00*
G04 #@! TF.ProjectId,system,73797374-656d-42e6-9b69-6361645f7063,1.0-dev7*
G04 #@! TF.SameCoordinates,Original*
G04 #@! TF.FileFunction,Copper,L2,Bot*
G04 #@! TF.FilePolarity,Positive*
%FSLAX46Y46*%
G04 Gerber Fmt 4.6, Leading zero omitted, Abs format (unit mm)*
G04 Created by KiCad (PCBNEW (5.1.9-0-10_14)) date 2021-11-21 11:40:05*
%MOMM*%
%LPD*%
G01*
G04 APERTURE LIST*
G04 #@! TA.AperFunction,NonConductor*
%ADD10C,0.100000*%
G04 #@! TD*
G04 #@! TA.AperFunction,NonConductor*
%ADD11C,0.250000*%
G04 #@! TD*
G04 #@! TA.AperFunction,ComponentPad*
%ADD12O,1.700000X1.700000*%
G04 #@! TD*
G04 #@! TA.AperFunction,ComponentPad*
%ADD13C,1.700000*%
G04 #@! TD*
G04 #@! TA.AperFunction,ComponentPad*
%ADD14C,0.100000*%
G04 #@! TD*
G04 #@! TA.AperFunction,ComponentPad*
%ADD15C,1.750000*%
G04 #@! TD*
G04 #@! TA.AperFunction,ComponentPad*
%ADD16C,2.000000*%
G04 #@! TD*
G04 #@! TA.AperFunction,ComponentPad*
%ADD17C,1.300000*%
G04 #@! TD*
G04 #@! TA.AperFunction,ComponentPad*
%ADD18C,5.399999*%
G04 #@! TD*
G04 #@! TA.AperFunction,ComponentPad*
%ADD19C,5.400000*%
G04 #@! TD*
G04 #@! TA.AperFunction,ComponentPad*
%ADD20C,1.600000*%
G04 #@! TD*
G04 #@! TA.AperFunction,ComponentPad*
%ADD21O,1.600000X1.600000*%
G04 #@! TD*
G04 #@! TA.AperFunction,ComponentPad*
%ADD22C,1.524000*%
G04 #@! TD*
G04 #@! TA.AperFunction,ComponentPad*
%ADD23C,2.100000*%
G04 #@! TD*
G04 #@! TA.AperFunction,ViaPad*
%ADD24C,0.600000*%
G04 #@! TD*
G04 #@! TA.AperFunction,Conductor*
%ADD25C,0.254000*%
G04 #@! TD*
G04 #@! TA.AperFunction,Conductor*
%ADD26C,0.508000*%
G04 #@! TD*
G04 #@! TA.AperFunction,Conductor*
%ADD27C,0.100000*%
G04 #@! TD*
G04 APERTURE END LIST*
D10*
G36*
X181737000Y-138176000D02*
G01*
X182499000Y-140843000D01*
X180340000Y-137922000D01*
X181737000Y-138176000D01*
G37*
X181737000Y-138176000D02*
X182499000Y-140843000D01*
X180340000Y-137922000D01*
X181737000Y-138176000D01*
G36*
X182753000Y-138684000D02*
G01*
X181356000Y-138430000D01*
X180594000Y-135763000D01*
X182753000Y-138684000D01*
G37*
X182753000Y-138684000D02*
X181356000Y-138430000D01*
X180594000Y-135763000D01*
X182753000Y-138684000D01*
D11*
X144357142Y-77066857D02*
X143957142Y-78266857D01*
X143557142Y-77066857D01*
X142528571Y-78266857D02*
X143214285Y-78266857D01*
X142871428Y-78266857D02*
X142871428Y-77066857D01*
X142985714Y-77238285D01*
X143100000Y-77352571D01*
X143214285Y-77409714D01*
X142014285Y-78152571D02*
X141957142Y-78209714D01*
X142014285Y-78266857D01*
X142071428Y-78209714D01*
X142014285Y-78152571D01*
X142014285Y-78266857D01*
X141214285Y-77066857D02*
X141100000Y-77066857D01*
X140985714Y-77124000D01*
X140928571Y-77181142D01*
X140871428Y-77295428D01*
X140814285Y-77524000D01*
X140814285Y-77809714D01*
X140871428Y-78038285D01*
X140928571Y-78152571D01*
X140985714Y-78209714D01*
X141100000Y-78266857D01*
X141214285Y-78266857D01*
X141328571Y-78209714D01*
X141385714Y-78152571D01*
X141442857Y-78038285D01*
X141500000Y-77809714D01*
X141500000Y-77524000D01*
X141442857Y-77295428D01*
X141385714Y-77181142D01*
X141328571Y-77124000D01*
X141214285Y-77066857D01*
X140300000Y-77809714D02*
X139385714Y-77809714D01*
X138300000Y-78266857D02*
X138300000Y-77066857D01*
X138300000Y-78209714D02*
X138414285Y-78266857D01*
X138642857Y-78266857D01*
X138757142Y-78209714D01*
X138814285Y-78152571D01*
X138871428Y-78038285D01*
X138871428Y-77695428D01*
X138814285Y-77581142D01*
X138757142Y-77524000D01*
X138642857Y-77466857D01*
X138414285Y-77466857D01*
X138300000Y-77524000D01*
X137271428Y-78209714D02*
X137385714Y-78266857D01*
X137614285Y-78266857D01*
X137728571Y-78209714D01*
X137785714Y-78095428D01*
X137785714Y-77638285D01*
X137728571Y-77524000D01*
X137614285Y-77466857D01*
X137385714Y-77466857D01*
X137271428Y-77524000D01*
X137214285Y-77638285D01*
X137214285Y-77752571D01*
X137785714Y-77866857D01*
X136814285Y-77466857D02*
X136528571Y-78266857D01*
X136242857Y-77466857D01*
X135900000Y-77066857D02*
X135100000Y-77066857D01*
X135614285Y-78266857D01*
D12*
X107696000Y-132969000D03*
X166116000Y-86106000D03*
X166116000Y-101346000D03*
X166116000Y-103886000D03*
X166116000Y-106426000D03*
X166116000Y-83566000D03*
D13*
X166116000Y-98806000D03*
D12*
X166116000Y-88646000D03*
X166116000Y-91186000D03*
X166116000Y-93726000D03*
D13*
X166116000Y-96266000D03*
G04 #@! TA.AperFunction,ComponentPad*
G36*
G01*
X142806689Y-149352077D02*
X142806689Y-149352077D01*
G75*
G02*
X142338900Y-150835712I-975712J-507923D01*
G01*
X142338900Y-150835712D01*
G75*
G02*
X140855265Y-150367923I-507923J975712D01*
G01*
X140855265Y-150367923D01*
G75*
G02*
X141323054Y-148884288I975712J507923D01*
G01*
X141323054Y-148884288D01*
G75*
G02*
X142806689Y-149352077I507923J-975712D01*
G01*
G37*
G04 #@! TD.AperFunction*
G04 #@! TA.AperFunction,ComponentPad*
D14*
G36*
X149057788Y-144857841D02*
G01*
X150073635Y-146809264D01*
X148122212Y-147825111D01*
X147106365Y-145873688D01*
X149057788Y-144857841D01*
G37*
G04 #@! TD.AperFunction*
G04 #@! TA.AperFunction,ComponentPad*
G36*
G01*
X131785712Y-149352077D02*
X131785712Y-149352077D01*
G75*
G02*
X131317923Y-150835712I-975712J-507923D01*
G01*
X131317923Y-150835712D01*
G75*
G02*
X129834288Y-150367923I-507923J975712D01*
G01*
X129834288Y-150367923D01*
G75*
G02*
X130302077Y-148884288I975712J507923D01*
G01*
X130302077Y-148884288D01*
G75*
G02*
X131785712Y-149352077I507923J-975712D01*
G01*
G37*
G04 #@! TD.AperFunction*
G04 #@! TA.AperFunction,ComponentPad*
G36*
X138036811Y-144857841D02*
G01*
X139052658Y-146809264D01*
X137101235Y-147825111D01*
X136085388Y-145873688D01*
X138036811Y-144857841D01*
G37*
G04 #@! TD.AperFunction*
D15*
X156210000Y-109920000D03*
X153670000Y-109920000D03*
X151130000Y-109920000D03*
X148590000Y-109920000D03*
X146050000Y-109920000D03*
X143510000Y-109920000D03*
X140970000Y-109920000D03*
X138430000Y-109920000D03*
X135890000Y-109920000D03*
X133350000Y-109920000D03*
X130810000Y-109920000D03*
X128270000Y-109920000D03*
X125730000Y-109920000D03*
X123190000Y-109920000D03*
X123190000Y-115000000D03*
X125730000Y-115000000D03*
X128270000Y-115000000D03*
X130810000Y-115000000D03*
X133350000Y-115000000D03*
X135890000Y-115000000D03*
X156210000Y-115000000D03*
X153670000Y-115000000D03*
X151130000Y-115000000D03*
X148590000Y-115000000D03*
X146050000Y-115000000D03*
X143510000Y-115000000D03*
X138430000Y-115000000D03*
X140970000Y-115000000D03*
D13*
X106200000Y-102616000D03*
X106200000Y-100076000D03*
X106200000Y-97536000D03*
X106200000Y-94996000D03*
X106200000Y-92456000D03*
X106200000Y-89916000D03*
X106200000Y-87376000D03*
D16*
X153852000Y-138303000D03*
X149352000Y-138303000D03*
X153852000Y-131803000D03*
X149352000Y-131803000D03*
X163631000Y-133350000D03*
X159131000Y-133350000D03*
X163631000Y-126850000D03*
X159131000Y-126850000D03*
X125186000Y-129234000D03*
X120686000Y-129234000D03*
X125186000Y-122734000D03*
X120686000Y-122734000D03*
X120686000Y-136958000D03*
X125186000Y-136958000D03*
X120686000Y-143458000D03*
X125186000Y-143458000D03*
X118074000Y-136346000D03*
X113574000Y-136346000D03*
X118074000Y-129846000D03*
X113574000Y-129846000D03*
X127798000Y-129846000D03*
X132298000Y-129846000D03*
X127798000Y-136346000D03*
X132298000Y-136346000D03*
D17*
X170434000Y-121920000D03*
X170434000Y-124460000D03*
X170434000Y-119380000D03*
D18*
X105791000Y-151130000D03*
X105791000Y-70104000D03*
X156464000Y-151130000D03*
D19*
X173609000Y-70104000D03*
D15*
X172426000Y-140208000D03*
X167426000Y-140208000D03*
D20*
X112776000Y-114300000D03*
D21*
X112776000Y-121920000D03*
D22*
X110794800Y-70866000D03*
X113284000Y-70866000D03*
X115773200Y-70866000D03*
D23*
X109170000Y-121584000D03*
D15*
X106680000Y-120324000D03*
X106680000Y-115824000D03*
D23*
X109170000Y-114574000D03*
D13*
X114554000Y-145161000D03*
X112014000Y-145161000D03*
X117094000Y-145161000D03*
X109474000Y-145161000D03*
D24*
X109220000Y-96266000D03*
X164084000Y-121920000D03*
X156464000Y-103251000D03*
X142494000Y-101092000D03*
X118364000Y-115316000D03*
X118872000Y-111506000D03*
X121666000Y-113538000D03*
X165100000Y-110490000D03*
X124460000Y-116840000D03*
X162560000Y-97536000D03*
X137033000Y-121793000D03*
X119887994Y-77470000D03*
X116839984Y-105410000D03*
X115062000Y-106680000D03*
X117602000Y-107188000D03*
X119633994Y-117094000D03*
X129032000Y-117094000D03*
X111760000Y-99060000D03*
X121666000Y-103886000D03*
X121666000Y-96520008D03*
X112776000Y-107442000D03*
X154940000Y-78994000D03*
X130301998Y-78994000D03*
X149098000Y-96265998D03*
X153416000Y-97536000D03*
X122428000Y-108458001D03*
X147637500Y-92646500D03*
X154178000Y-86106000D03*
D25*
X130810000Y-121158000D02*
X130810000Y-115000000D01*
X136502000Y-126850000D02*
X130810000Y-121158000D01*
X159131000Y-126850000D02*
X136502000Y-126850000D01*
D26*
X113284000Y-70866000D02*
X119887994Y-77469994D01*
X119887994Y-77469994D02*
X119887994Y-77470000D01*
D25*
X125186000Y-131127514D02*
X116839984Y-122781498D01*
X116839984Y-122781498D02*
X116839984Y-105410000D01*
X125186000Y-136958000D02*
X125186000Y-131127514D01*
X115062000Y-128358000D02*
X115062000Y-106680000D01*
X113574000Y-129846000D02*
X115062000Y-128358000D01*
X117602000Y-112268000D02*
X117602000Y-107188000D01*
X132298000Y-126964000D02*
X117602000Y-112268000D01*
X132298000Y-129846000D02*
X132298000Y-126964000D01*
X120686000Y-122734000D02*
X120686000Y-118146006D01*
X120686000Y-118146006D02*
X119633994Y-117094000D01*
X129032000Y-120650000D02*
X129032000Y-117094000D01*
X140185000Y-131803000D02*
X129032000Y-120650000D01*
X149352000Y-131803000D02*
X140185000Y-131803000D01*
X140778000Y-117348000D02*
X138430000Y-115000000D01*
X142810000Y-119380000D02*
X140778000Y-117348000D01*
X171196000Y-119380000D02*
X142810000Y-119380000D01*
X119380000Y-109474000D02*
X119380000Y-106680000D01*
X140970000Y-115000000D02*
X139254000Y-113284000D01*
X139254000Y-113284000D02*
X123190000Y-113284000D01*
X123190000Y-113284000D02*
X119380000Y-109474000D01*
X119380000Y-106680000D02*
X111760000Y-99060000D01*
X139152409Y-118262409D02*
X135890000Y-115000000D01*
X145350000Y-124460000D02*
X139152409Y-118262409D01*
X171196000Y-124460000D02*
X145350000Y-124460000D01*
D26*
X121666000Y-103886000D02*
X121666000Y-96520008D01*
X143572000Y-109920000D02*
X143510000Y-109920000D01*
X164846000Y-88646000D02*
X143572000Y-109920000D01*
X166116000Y-88646000D02*
X164846000Y-88646000D01*
X112776000Y-106652000D02*
X106200000Y-100076000D01*
X112776000Y-107442000D02*
X112776000Y-106652000D01*
D25*
X145734000Y-112776000D02*
X143510000Y-115000000D01*
X167894000Y-109474000D02*
X164592000Y-112776000D01*
X164592000Y-112776000D02*
X145734000Y-112776000D01*
X167894000Y-95504000D02*
X167894000Y-109474000D01*
X166116000Y-93726000D02*
X167894000Y-95504000D01*
X168910000Y-109728000D02*
X165100000Y-113538000D01*
X168910000Y-93980000D02*
X168910000Y-109728000D01*
X147512000Y-113538000D02*
X146050000Y-115000000D01*
X165100000Y-113538000D02*
X147512000Y-113538000D01*
X166116000Y-91186000D02*
X168910000Y-93980000D01*
X167132000Y-78994000D02*
X154940000Y-78994000D01*
X169926000Y-81788000D02*
X167132000Y-78994000D01*
X169926000Y-110236000D02*
X169926000Y-81788000D01*
X165162000Y-115000000D02*
X169926000Y-110236000D01*
X156210000Y-115000000D02*
X165162000Y-115000000D01*
X121919998Y-87376000D02*
X130301998Y-78994000D01*
X106200000Y-87376000D02*
X121919998Y-87376000D01*
X160782000Y-111760000D02*
X166116000Y-106426000D01*
X125030000Y-111760000D02*
X160782000Y-111760000D01*
X123190000Y-109920000D02*
X125030000Y-111760000D01*
X110806000Y-94996000D02*
X106200000Y-94996000D01*
X125730000Y-109920000D02*
X110806000Y-94996000D01*
X139384002Y-96265998D02*
X149098000Y-96265998D01*
X125730000Y-109920000D02*
X139384002Y-96265998D01*
X140654000Y-97536000D02*
X153416000Y-97536000D01*
X128270000Y-109920000D02*
X140654000Y-97536000D01*
X106200000Y-97536000D02*
X111505999Y-97536000D01*
X111505999Y-97536000D02*
X122428000Y-108458001D01*
D26*
X147637500Y-92646500D02*
X154178000Y-86106000D01*
D25*
X118213231Y-67804646D02*
X118312528Y-67834626D01*
X118404114Y-67883323D01*
X118484497Y-67948882D01*
X118550613Y-68028803D01*
X118612228Y-68142756D01*
X121733885Y-75935803D01*
X121745664Y-75974633D01*
X121777718Y-76034602D01*
X121809153Y-76095106D01*
X121811871Y-76098499D01*
X121813914Y-76102320D01*
X121857045Y-76154875D01*
X121899686Y-76208091D01*
X121903013Y-76210887D01*
X121905763Y-76214238D01*
X121958327Y-76257376D01*
X122010522Y-76301244D01*
X122014331Y-76303337D01*
X122017681Y-76306087D01*
X122077680Y-76338157D01*
X122137402Y-76370983D01*
X122141542Y-76372292D01*
X122145368Y-76374337D01*
X122210512Y-76394098D01*
X122275448Y-76414629D01*
X122279762Y-76415105D01*
X122283916Y-76416365D01*
X122351703Y-76423041D01*
X122419358Y-76430505D01*
X122459790Y-76427000D01*
X134168572Y-76426999D01*
X134168572Y-79482500D01*
X145231429Y-79482500D01*
X145231429Y-76426999D01*
X156940198Y-76426998D01*
X156980641Y-76430504D01*
X157048364Y-76423033D01*
X157116085Y-76416363D01*
X157120235Y-76415104D01*
X157124551Y-76414628D01*
X157189493Y-76394095D01*
X157254633Y-76374335D01*
X157258460Y-76372289D01*
X157262598Y-76370981D01*
X157322268Y-76338183D01*
X157382320Y-76306085D01*
X157385674Y-76303332D01*
X157389477Y-76301242D01*
X157441613Y-76257424D01*
X157494238Y-76214236D01*
X157496990Y-76210883D01*
X157500313Y-76208090D01*
X157542889Y-76154954D01*
X157586087Y-76102318D01*
X157588134Y-76098489D01*
X157590846Y-76095104D01*
X157622223Y-76034712D01*
X157654337Y-75974631D01*
X157666121Y-75935784D01*
X160769885Y-68187410D01*
X160835394Y-68050682D01*
X160897530Y-67967623D01*
X160974611Y-67898219D01*
X161063711Y-67845105D01*
X161161424Y-67810311D01*
X161290853Y-67791199D01*
X161298994Y-67791000D01*
X171205597Y-67791000D01*
X171018536Y-67978061D01*
X170653561Y-68524285D01*
X170402162Y-69131216D01*
X170274000Y-69775531D01*
X170274000Y-70432469D01*
X170402162Y-71076784D01*
X170653561Y-71683715D01*
X171018536Y-72229939D01*
X171483061Y-72694464D01*
X172029285Y-73059439D01*
X172636216Y-73310838D01*
X173280531Y-73439000D01*
X173937469Y-73439000D01*
X174581784Y-73310838D01*
X175188715Y-73059439D01*
X175734939Y-72694464D01*
X175890000Y-72539403D01*
X175890001Y-94070885D01*
X175886444Y-94107000D01*
X175900635Y-94251085D01*
X175942663Y-94389633D01*
X175999389Y-94495760D01*
X176024164Y-94620312D01*
X176091179Y-94782099D01*
X176106815Y-94805500D01*
X176091179Y-94828901D01*
X176024164Y-94990688D01*
X175990000Y-95162441D01*
X175990000Y-95337559D01*
X176024164Y-95509312D01*
X176091179Y-95671099D01*
X176106815Y-95694500D01*
X176091179Y-95717901D01*
X176024164Y-95879688D01*
X175990000Y-96051441D01*
X175990000Y-96226559D01*
X176024164Y-96398312D01*
X176091179Y-96560099D01*
X176106815Y-96583500D01*
X176091179Y-96606901D01*
X176024164Y-96768688D01*
X175990000Y-96940441D01*
X175990000Y-97115559D01*
X176024164Y-97287312D01*
X176091179Y-97449099D01*
X176106815Y-97472500D01*
X176091179Y-97495901D01*
X176024164Y-97657688D01*
X175999389Y-97782240D01*
X175942663Y-97888367D01*
X175900635Y-98026915D01*
X175886444Y-98171000D01*
X175890000Y-98207105D01*
X175890001Y-129249885D01*
X175886444Y-129286000D01*
X175900635Y-129430085D01*
X175942663Y-129568633D01*
X175999389Y-129674760D01*
X176024164Y-129799312D01*
X176091179Y-129961099D01*
X176106815Y-129984500D01*
X176091179Y-130007901D01*
X176024164Y-130169688D01*
X175990000Y-130341441D01*
X175990000Y-130516559D01*
X176024164Y-130688312D01*
X176091179Y-130850099D01*
X176106815Y-130873500D01*
X176091179Y-130896901D01*
X176024164Y-131058688D01*
X175990000Y-131230441D01*
X175990000Y-131405559D01*
X176024164Y-131577312D01*
X176091179Y-131739099D01*
X176106815Y-131762500D01*
X176091179Y-131785901D01*
X176024164Y-131947688D01*
X175990000Y-132119441D01*
X175990000Y-132294559D01*
X176024164Y-132466312D01*
X176091179Y-132628099D01*
X176106815Y-132651500D01*
X176091179Y-132674901D01*
X176024164Y-132836688D01*
X175999389Y-132961240D01*
X175942663Y-133067367D01*
X175900635Y-133205915D01*
X175886444Y-133350000D01*
X175890000Y-133386105D01*
X175890001Y-140180069D01*
X175819278Y-141109801D01*
X175615064Y-141990843D01*
X175279930Y-142830861D01*
X174821590Y-143610524D01*
X174250591Y-144311886D01*
X173576942Y-144921643D01*
X172940009Y-145352970D01*
X159587013Y-152305152D01*
X159670837Y-152102783D01*
X159798999Y-151458469D01*
X159798999Y-150801531D01*
X159670837Y-150157217D01*
X159419438Y-149550285D01*
X159054463Y-149004062D01*
X158589938Y-148539537D01*
X158043715Y-148174562D01*
X157436783Y-147923163D01*
X156792469Y-147795001D01*
X156135531Y-147795001D01*
X155491217Y-147923163D01*
X154884285Y-148174562D01*
X154338062Y-148539537D01*
X153873537Y-149004062D01*
X153508562Y-149550285D01*
X153257163Y-150157217D01*
X153129001Y-150801531D01*
X153129001Y-151458469D01*
X153257163Y-152102783D01*
X153508562Y-152709715D01*
X153873537Y-153255938D01*
X154108499Y-153490900D01*
X108146501Y-153490900D01*
X108381463Y-153255938D01*
X108746438Y-152709715D01*
X108997837Y-152102783D01*
X109125999Y-151458469D01*
X109125999Y-150801531D01*
X108997837Y-150157217D01*
X108803944Y-149689117D01*
X129075000Y-149689117D01*
X129075000Y-150030883D01*
X129141675Y-150366081D01*
X129272463Y-150681831D01*
X129462337Y-150965998D01*
X129704002Y-151207663D01*
X129988169Y-151397537D01*
X130303919Y-151528325D01*
X130639117Y-151595000D01*
X130980883Y-151595000D01*
X131316081Y-151528325D01*
X131631831Y-151397537D01*
X131915998Y-151207663D01*
X132157663Y-150965998D01*
X132347537Y-150681831D01*
X132478325Y-150366081D01*
X132545000Y-150030883D01*
X132545000Y-149689117D01*
X140095977Y-149689117D01*
X140095977Y-150030883D01*
X140162652Y-150366081D01*
X140293440Y-150681831D01*
X140483314Y-150965998D01*
X140724979Y-151207663D01*
X141009146Y-151397537D01*
X141324896Y-151528325D01*
X141660094Y-151595000D01*
X142001860Y-151595000D01*
X142337058Y-151528325D01*
X142652808Y-151397537D01*
X142936975Y-151207663D01*
X143178640Y-150965998D01*
X143368514Y-150681831D01*
X143499302Y-150366081D01*
X143565977Y-150030883D01*
X143565977Y-149689117D01*
X143499302Y-149353919D01*
X143368514Y-149038169D01*
X143178640Y-148754002D01*
X142936975Y-148512337D01*
X142652808Y-148322463D01*
X142337058Y-148191675D01*
X142001860Y-148125000D01*
X141660094Y-148125000D01*
X141324896Y-148191675D01*
X141009146Y-148322463D01*
X140724979Y-148512337D01*
X140483314Y-148754002D01*
X140293440Y-149038169D01*
X140162652Y-149353919D01*
X140095977Y-149689117D01*
X132545000Y-149689117D01*
X132478325Y-149353919D01*
X132347537Y-149038169D01*
X132157663Y-148754002D01*
X131915998Y-148512337D01*
X131631831Y-148322463D01*
X131316081Y-148191675D01*
X130980883Y-148125000D01*
X130639117Y-148125000D01*
X130303919Y-148191675D01*
X129988169Y-148322463D01*
X129704002Y-148512337D01*
X129462337Y-148754002D01*
X129272463Y-149038169D01*
X129141675Y-149353919D01*
X129075000Y-149689117D01*
X108803944Y-149689117D01*
X108746438Y-149550285D01*
X108381463Y-149004062D01*
X107916938Y-148539537D01*
X107370715Y-148174562D01*
X106763783Y-147923163D01*
X106119469Y-147795001D01*
X105462531Y-147795001D01*
X104818217Y-147923163D01*
X104211285Y-148174562D01*
X103665062Y-148539537D01*
X103510000Y-148694599D01*
X103510000Y-145014740D01*
X107989000Y-145014740D01*
X107989000Y-145307260D01*
X108046068Y-145594158D01*
X108158010Y-145864411D01*
X108320525Y-146107632D01*
X108527368Y-146314475D01*
X108770589Y-146476990D01*
X109040842Y-146588932D01*
X109327740Y-146646000D01*
X109620260Y-146646000D01*
X109907158Y-146588932D01*
X110177411Y-146476990D01*
X110420632Y-146314475D01*
X110545710Y-146189397D01*
X111165208Y-146189397D01*
X111242843Y-146438472D01*
X111506883Y-146564371D01*
X111790411Y-146636339D01*
X112082531Y-146651611D01*
X112372019Y-146609599D01*
X112647747Y-146511919D01*
X112785157Y-146438472D01*
X112862792Y-146189397D01*
X113705208Y-146189397D01*
X113782843Y-146438472D01*
X114046883Y-146564371D01*
X114330411Y-146636339D01*
X114622531Y-146651611D01*
X114912019Y-146609599D01*
X115187747Y-146511919D01*
X115325157Y-146438472D01*
X115402792Y-146189397D01*
X114554000Y-145340605D01*
X113705208Y-146189397D01*
X112862792Y-146189397D01*
X112014000Y-145340605D01*
X111165208Y-146189397D01*
X110545710Y-146189397D01*
X110627475Y-146107632D01*
X110743311Y-145934271D01*
X110985603Y-146009792D01*
X111834395Y-145161000D01*
X112193605Y-145161000D01*
X113042397Y-146009792D01*
X113284000Y-145934486D01*
X113525603Y-146009792D01*
X114374395Y-145161000D01*
X114733605Y-145161000D01*
X115582397Y-146009792D01*
X115824689Y-145934271D01*
X115940525Y-146107632D01*
X116147368Y-146314475D01*
X116390589Y-146476990D01*
X116660842Y-146588932D01*
X116947740Y-146646000D01*
X117240260Y-146646000D01*
X117527158Y-146588932D01*
X117797411Y-146476990D01*
X118040632Y-146314475D01*
X118247475Y-146107632D01*
X118366632Y-145929300D01*
X135449744Y-145929300D01*
X135472807Y-146052239D01*
X135519411Y-146168317D01*
X136535258Y-148119740D01*
X136603613Y-148224495D01*
X136691090Y-148313903D01*
X136794330Y-148384526D01*
X136909363Y-148433651D01*
X137031770Y-148459391D01*
X137156847Y-148460755D01*
X137279786Y-148437692D01*
X137395864Y-148391088D01*
X139347287Y-147375241D01*
X139452042Y-147306886D01*
X139541450Y-147219409D01*
X139612073Y-147116169D01*
X139661198Y-147001136D01*
X139686938Y-146878729D01*
X139688302Y-146753652D01*
X139665239Y-146630713D01*
X139618635Y-146514635D01*
X139313929Y-145929300D01*
X146470721Y-145929300D01*
X146493784Y-146052239D01*
X146540388Y-146168317D01*
X147556235Y-148119740D01*
X147624590Y-148224495D01*
X147712067Y-148313903D01*
X147815307Y-148384526D01*
X147930340Y-148433651D01*
X148052747Y-148459391D01*
X148177824Y-148460755D01*
X148300763Y-148437692D01*
X148416841Y-148391088D01*
X150368264Y-147375241D01*
X150473019Y-147306886D01*
X150562427Y-147219409D01*
X150633050Y-147116169D01*
X150682175Y-147001136D01*
X150707915Y-146878729D01*
X150709279Y-146753652D01*
X150686216Y-146630713D01*
X150639612Y-146514635D01*
X149623765Y-144563212D01*
X149555410Y-144458457D01*
X149467933Y-144369049D01*
X149364693Y-144298426D01*
X149249660Y-144249301D01*
X149127253Y-144223561D01*
X149002176Y-144222197D01*
X148879237Y-144245260D01*
X148763159Y-144291864D01*
X146811736Y-145307711D01*
X146706981Y-145376066D01*
X146617573Y-145463543D01*
X146546950Y-145566783D01*
X146497825Y-145681816D01*
X146472085Y-145804223D01*
X146470721Y-145929300D01*
X139313929Y-145929300D01*
X138602788Y-144563212D01*
X138534433Y-144458457D01*
X138446956Y-144369049D01*
X138343716Y-144298426D01*
X138228683Y-144249301D01*
X138106276Y-144223561D01*
X137981199Y-144222197D01*
X137858260Y-144245260D01*
X137742182Y-144291864D01*
X135790759Y-145307711D01*
X135686004Y-145376066D01*
X135596596Y-145463543D01*
X135525973Y-145566783D01*
X135476848Y-145681816D01*
X135451108Y-145804223D01*
X135449744Y-145929300D01*
X118366632Y-145929300D01*
X118409990Y-145864411D01*
X118521932Y-145594158D01*
X118579000Y-145307260D01*
X118579000Y-145014740D01*
X118521932Y-144727842D01*
X118466250Y-144593413D01*
X119730192Y-144593413D01*
X119825956Y-144857814D01*
X120115571Y-144998704D01*
X120427108Y-145080384D01*
X120748595Y-145099718D01*
X121067675Y-145055961D01*
X121372088Y-144950795D01*
X121546044Y-144857814D01*
X121641808Y-144593413D01*
X120686000Y-143637605D01*
X119730192Y-144593413D01*
X118466250Y-144593413D01*
X118409990Y-144457589D01*
X118247475Y-144214368D01*
X118040632Y-144007525D01*
X117797411Y-143845010D01*
X117527158Y-143733068D01*
X117240260Y-143676000D01*
X116947740Y-143676000D01*
X116660842Y-143733068D01*
X116390589Y-143845010D01*
X116147368Y-144007525D01*
X115940525Y-144214368D01*
X115824689Y-144387729D01*
X115582397Y-144312208D01*
X114733605Y-145161000D01*
X114374395Y-145161000D01*
X113525603Y-144312208D01*
X113284000Y-144387514D01*
X113042397Y-144312208D01*
X112193605Y-145161000D01*
X111834395Y-145161000D01*
X110985603Y-144312208D01*
X110743311Y-144387729D01*
X110627475Y-144214368D01*
X110545710Y-144132603D01*
X111165208Y-144132603D01*
X112014000Y-144981395D01*
X112862792Y-144132603D01*
X113705208Y-144132603D01*
X114554000Y-144981395D01*
X115402792Y-144132603D01*
X115325157Y-143883528D01*
X115061117Y-143757629D01*
X114777589Y-143685661D01*
X114485469Y-143670389D01*
X114195981Y-143712401D01*
X113920253Y-143810081D01*
X113782843Y-143883528D01*
X113705208Y-144132603D01*
X112862792Y-144132603D01*
X112785157Y-143883528D01*
X112521117Y-143757629D01*
X112237589Y-143685661D01*
X111945469Y-143670389D01*
X111655981Y-143712401D01*
X111380253Y-143810081D01*
X111242843Y-143883528D01*
X111165208Y-144132603D01*
X110545710Y-144132603D01*
X110420632Y-144007525D01*
X110177411Y-143845010D01*
X109907158Y-143733068D01*
X109620260Y-143676000D01*
X109327740Y-143676000D01*
X109040842Y-143733068D01*
X108770589Y-143845010D01*
X108527368Y-144007525D01*
X108320525Y-144214368D01*
X108158010Y-144457589D01*
X108046068Y-144727842D01*
X107989000Y-145014740D01*
X103510000Y-145014740D01*
X103510000Y-143520595D01*
X119044282Y-143520595D01*
X119088039Y-143839675D01*
X119193205Y-144144088D01*
X119286186Y-144318044D01*
X119550587Y-144413808D01*
X120506395Y-143458000D01*
X120865605Y-143458000D01*
X121821413Y-144413808D01*
X122085814Y-144318044D01*
X122226704Y-144028429D01*
X122308384Y-143716892D01*
X122327718Y-143395405D01*
X122314219Y-143296967D01*
X123551000Y-143296967D01*
X123551000Y-143619033D01*
X123613832Y-143934912D01*
X123737082Y-144232463D01*
X123916013Y-144500252D01*
X124143748Y-144727987D01*
X124411537Y-144906918D01*
X124709088Y-145030168D01*
X125024967Y-145093000D01*
X125347033Y-145093000D01*
X125662912Y-145030168D01*
X125960463Y-144906918D01*
X126228252Y-144727987D01*
X126455987Y-144500252D01*
X126634918Y-144232463D01*
X126758168Y-143934912D01*
X126821000Y-143619033D01*
X126821000Y-143296967D01*
X126758168Y-142981088D01*
X126634918Y-142683537D01*
X126455987Y-142415748D01*
X126228252Y-142188013D01*
X125960463Y-142009082D01*
X125662912Y-141885832D01*
X125347033Y-141823000D01*
X125024967Y-141823000D01*
X124709088Y-141885832D01*
X124411537Y-142009082D01*
X124143748Y-142188013D01*
X123916013Y-142415748D01*
X123737082Y-142683537D01*
X123613832Y-142981088D01*
X123551000Y-143296967D01*
X122314219Y-143296967D01*
X122283961Y-143076325D01*
X122178795Y-142771912D01*
X122085814Y-142597956D01*
X121821413Y-142502192D01*
X120865605Y-143458000D01*
X120506395Y-143458000D01*
X119550587Y-142502192D01*
X119286186Y-142597956D01*
X119145296Y-142887571D01*
X119063616Y-143199108D01*
X119044282Y-143520595D01*
X103510000Y-143520595D01*
X103510000Y-142322587D01*
X119730192Y-142322587D01*
X120686000Y-143278395D01*
X121641808Y-142322587D01*
X121546044Y-142058186D01*
X121256429Y-141917296D01*
X120944892Y-141835616D01*
X120623405Y-141816282D01*
X120304325Y-141860039D01*
X119999912Y-141965205D01*
X119825956Y-142058186D01*
X119730192Y-142322587D01*
X103510000Y-142322587D01*
X103510000Y-140059278D01*
X165916000Y-140059278D01*
X165916000Y-140356722D01*
X165974029Y-140648451D01*
X166087856Y-140923253D01*
X166253107Y-141170569D01*
X166463431Y-141380893D01*
X166710747Y-141546144D01*
X166985549Y-141659971D01*
X167277278Y-141718000D01*
X167574722Y-141718000D01*
X167866451Y-141659971D01*
X168141253Y-141546144D01*
X168388569Y-141380893D01*
X168598893Y-141170569D01*
X168764144Y-140923253D01*
X168877971Y-140648451D01*
X168936000Y-140356722D01*
X168936000Y-140059278D01*
X170916000Y-140059278D01*
X170916000Y-140356722D01*
X170974029Y-140648451D01*
X171087856Y-140923253D01*
X171253107Y-141170569D01*
X171463431Y-141380893D01*
X171710747Y-141546144D01*
X171985549Y-141659971D01*
X172277278Y-141718000D01*
X172574722Y-141718000D01*
X172866451Y-141659971D01*
X173141253Y-141546144D01*
X173388569Y-141380893D01*
X173598893Y-141170569D01*
X173764144Y-140923253D01*
X173877971Y-140648451D01*
X173936000Y-140356722D01*
X173936000Y-140059278D01*
X173877971Y-139767549D01*
X173764144Y-139492747D01*
X173598893Y-139245431D01*
X173388569Y-139035107D01*
X173141253Y-138869856D01*
X172866451Y-138756029D01*
X172574722Y-138698000D01*
X172277278Y-138698000D01*
X171985549Y-138756029D01*
X171710747Y-138869856D01*
X171463431Y-139035107D01*
X171253107Y-139245431D01*
X171087856Y-139492747D01*
X170974029Y-139767549D01*
X170916000Y-140059278D01*
X168936000Y-140059278D01*
X168877971Y-139767549D01*
X168764144Y-139492747D01*
X168598893Y-139245431D01*
X168388569Y-139035107D01*
X168141253Y-138869856D01*
X167866451Y-138756029D01*
X167574722Y-138698000D01*
X167277278Y-138698000D01*
X166985549Y-138756029D01*
X166710747Y-138869856D01*
X166463431Y-139035107D01*
X166253107Y-139245431D01*
X166087856Y-139492747D01*
X165974029Y-139767549D01*
X165916000Y-140059278D01*
X103510000Y-140059278D01*
X103510000Y-138093413D01*
X119730192Y-138093413D01*
X119825956Y-138357814D01*
X120115571Y-138498704D01*
X120427108Y-138580384D01*
X120748595Y-138599718D01*
X121067675Y-138555961D01*
X121372088Y-138450795D01*
X121546044Y-138357814D01*
X121641808Y-138093413D01*
X120686000Y-137137605D01*
X119730192Y-138093413D01*
X103510000Y-138093413D01*
X103510000Y-136184967D01*
X111939000Y-136184967D01*
X111939000Y-136507033D01*
X112001832Y-136822912D01*
X112125082Y-137120463D01*
X112304013Y-137388252D01*
X112531748Y-137615987D01*
X112799537Y-137794918D01*
X113097088Y-137918168D01*
X113412967Y-137981000D01*
X113735033Y-137981000D01*
X114050912Y-137918168D01*
X114348463Y-137794918D01*
X114616252Y-137615987D01*
X114750826Y-137481413D01*
X117118192Y-137481413D01*
X117213956Y-137745814D01*
X117503571Y-137886704D01*
X117815108Y-137968384D01*
X118136595Y-137987718D01*
X118455675Y-137943961D01*
X118760088Y-137838795D01*
X118934044Y-137745814D01*
X119029807Y-137481415D01*
X119145475Y-137597083D01*
X119168880Y-137573678D01*
X119193205Y-137644088D01*
X119286186Y-137818044D01*
X119550587Y-137913808D01*
X120506395Y-136958000D01*
X120865605Y-136958000D01*
X121821413Y-137913808D01*
X122085814Y-137818044D01*
X122226704Y-137528429D01*
X122308384Y-137216892D01*
X122327718Y-136895405D01*
X122283961Y-136576325D01*
X122178795Y-136271912D01*
X122085814Y-136097956D01*
X121821413Y-136002192D01*
X120865605Y-136958000D01*
X120506395Y-136958000D01*
X120492253Y-136943858D01*
X120671858Y-136764253D01*
X120686000Y-136778395D01*
X121641808Y-135822587D01*
X121546044Y-135558186D01*
X121256429Y-135417296D01*
X120944892Y-135335616D01*
X120623405Y-135316282D01*
X120304325Y-135360039D01*
X119999912Y-135465205D01*
X119825956Y-135558186D01*
X119730193Y-135822585D01*
X119614525Y-135706917D01*
X119591120Y-135730322D01*
X119566795Y-135659912D01*
X119473814Y-135485956D01*
X119209413Y-135390192D01*
X118253605Y-136346000D01*
X118267748Y-136360143D01*
X118088143Y-136539748D01*
X118074000Y-136525605D01*
X117118192Y-137481413D01*
X114750826Y-137481413D01*
X114843987Y-137388252D01*
X115022918Y-137120463D01*
X115146168Y-136822912D01*
X115209000Y-136507033D01*
X115209000Y-136408595D01*
X116432282Y-136408595D01*
X116476039Y-136727675D01*
X116581205Y-137032088D01*
X116674186Y-137206044D01*
X116938587Y-137301808D01*
X117894395Y-136346000D01*
X116938587Y-135390192D01*
X116674186Y-135485956D01*
X116533296Y-135775571D01*
X116451616Y-136087108D01*
X116432282Y-136408595D01*
X115209000Y-136408595D01*
X115209000Y-136184967D01*
X115146168Y-135869088D01*
X115022918Y-135571537D01*
X114843987Y-135303748D01*
X114750826Y-135210587D01*
X117118192Y-135210587D01*
X118074000Y-136166395D01*
X119029808Y-135210587D01*
X118934044Y-134946186D01*
X118644429Y-134805296D01*
X118332892Y-134723616D01*
X118011405Y-134704282D01*
X117692325Y-134748039D01*
X117387912Y-134853205D01*
X117213956Y-134946186D01*
X117118192Y-135210587D01*
X114750826Y-135210587D01*
X114616252Y-135076013D01*
X114348463Y-134897082D01*
X114050912Y-134773832D01*
X113735033Y-134711000D01*
X113412967Y-134711000D01*
X113097088Y-134773832D01*
X112799537Y-134897082D01*
X112531748Y-135076013D01*
X112304013Y-135303748D01*
X112125082Y-135571537D01*
X112001832Y-135869088D01*
X111939000Y-136184967D01*
X103510000Y-136184967D01*
X103510000Y-133386105D01*
X103513556Y-133350000D01*
X103499365Y-133205915D01*
X103457337Y-133067367D01*
X103400611Y-132961240D01*
X103375836Y-132836688D01*
X103370059Y-132822740D01*
X106211000Y-132822740D01*
X106211000Y-133115260D01*
X106268068Y-133402158D01*
X106380010Y-133672411D01*
X106542525Y-133915632D01*
X106749368Y-134122475D01*
X106992589Y-134284990D01*
X107262842Y-134396932D01*
X107549740Y-134454000D01*
X107842260Y-134454000D01*
X108129158Y-134396932D01*
X108399411Y-134284990D01*
X108642632Y-134122475D01*
X108849475Y-133915632D01*
X109011990Y-133672411D01*
X109123932Y-133402158D01*
X109181000Y-133115260D01*
X109181000Y-132822740D01*
X109123932Y-132535842D01*
X109011990Y-132265589D01*
X108849475Y-132022368D01*
X108642632Y-131815525D01*
X108399411Y-131653010D01*
X108129158Y-131541068D01*
X107842260Y-131484000D01*
X107549740Y-131484000D01*
X107262842Y-131541068D01*
X106992589Y-131653010D01*
X106749368Y-131815525D01*
X106542525Y-132022368D01*
X106380010Y-132265589D01*
X106268068Y-132535842D01*
X106211000Y-132822740D01*
X103370059Y-132822740D01*
X103308821Y-132674901D01*
X103293185Y-132651500D01*
X103308821Y-132628099D01*
X103375836Y-132466312D01*
X103410000Y-132294559D01*
X103410000Y-132119441D01*
X103375836Y-131947688D01*
X103308821Y-131785901D01*
X103293185Y-131762500D01*
X103308821Y-131739099D01*
X103375836Y-131577312D01*
X103410000Y-131405559D01*
X103410000Y-131230441D01*
X103375836Y-131058688D01*
X103308821Y-130896901D01*
X103293185Y-130873500D01*
X103308821Y-130850099D01*
X103375836Y-130688312D01*
X103410000Y-130516559D01*
X103410000Y-130341441D01*
X103375836Y-130169688D01*
X103308821Y-130007901D01*
X103293185Y-129984500D01*
X103308821Y-129961099D01*
X103375836Y-129799312D01*
X103398580Y-129684967D01*
X111939000Y-129684967D01*
X111939000Y-130007033D01*
X112001832Y-130322912D01*
X112125082Y-130620463D01*
X112304013Y-130888252D01*
X112531748Y-131115987D01*
X112799537Y-131294918D01*
X113097088Y-131418168D01*
X113412967Y-131481000D01*
X113735033Y-131481000D01*
X114050912Y-131418168D01*
X114348463Y-131294918D01*
X114616252Y-131115987D01*
X114750826Y-130981413D01*
X117118192Y-130981413D01*
X117213956Y-131245814D01*
X117503571Y-131386704D01*
X117815108Y-131468384D01*
X118136595Y-131487718D01*
X118455675Y-131443961D01*
X118760088Y-131338795D01*
X118934044Y-131245814D01*
X119029808Y-130981413D01*
X118074000Y-130025605D01*
X117118192Y-130981413D01*
X114750826Y-130981413D01*
X114843987Y-130888252D01*
X115022918Y-130620463D01*
X115146168Y-130322912D01*
X115209000Y-130007033D01*
X115209000Y-129908595D01*
X116432282Y-129908595D01*
X116476039Y-130227675D01*
X116581205Y-130532088D01*
X116674186Y-130706044D01*
X116938587Y-130801808D01*
X117894395Y-129846000D01*
X116938587Y-128890192D01*
X116674186Y-128985956D01*
X116533296Y-129275571D01*
X116451616Y-129587108D01*
X116432282Y-129908595D01*
X115209000Y-129908595D01*
X115209000Y-129684967D01*
X115146168Y-129369088D01*
X115141006Y-129356625D01*
X115574353Y-128923278D01*
X115603422Y-128899422D01*
X115644417Y-128849469D01*
X115698645Y-128783393D01*
X115751149Y-128685164D01*
X115769402Y-128651015D01*
X115812974Y-128507378D01*
X115824000Y-128395426D01*
X115824000Y-128395423D01*
X115827686Y-128358000D01*
X115824000Y-128320577D01*
X115824000Y-107222542D01*
X115890586Y-107122889D01*
X115961068Y-106952729D01*
X115997000Y-106772089D01*
X115997000Y-106587911D01*
X115961068Y-106407271D01*
X115890586Y-106237111D01*
X115788262Y-106083972D01*
X115658028Y-105953738D01*
X115504889Y-105851414D01*
X115334729Y-105780932D01*
X115154089Y-105745000D01*
X114969911Y-105745000D01*
X114789271Y-105780932D01*
X114619111Y-105851414D01*
X114465972Y-105953738D01*
X114335738Y-106083972D01*
X114233414Y-106237111D01*
X114162932Y-106407271D01*
X114127000Y-106587911D01*
X114127000Y-106772089D01*
X114162932Y-106952729D01*
X114233414Y-107122889D01*
X114300001Y-107222544D01*
X114300000Y-128042369D01*
X114063375Y-128278994D01*
X114050912Y-128273832D01*
X113735033Y-128211000D01*
X113412967Y-128211000D01*
X113097088Y-128273832D01*
X112799537Y-128397082D01*
X112531748Y-128576013D01*
X112304013Y-128803748D01*
X112125082Y-129071537D01*
X112001832Y-129369088D01*
X111939000Y-129684967D01*
X103398580Y-129684967D01*
X103400611Y-129674760D01*
X103457337Y-129568633D01*
X103499365Y-129430085D01*
X103513556Y-129286000D01*
X103510000Y-129249895D01*
X103510000Y-120175278D01*
X105170000Y-120175278D01*
X105170000Y-120472722D01*
X105228029Y-120764451D01*
X105341856Y-121039253D01*
X105507107Y-121286569D01*
X105717431Y-121496893D01*
X105964747Y-121662144D01*
X106239549Y-121775971D01*
X106531278Y-121834000D01*
X106828722Y-121834000D01*
X107120451Y-121775971D01*
X107395253Y-121662144D01*
X107485000Y-121602177D01*
X107485000Y-121749958D01*
X107549754Y-122075496D01*
X107676772Y-122382147D01*
X107861175Y-122658125D01*
X108095875Y-122892825D01*
X108371853Y-123077228D01*
X108678504Y-123204246D01*
X109004042Y-123269000D01*
X109335958Y-123269000D01*
X109661496Y-123204246D01*
X109968147Y-123077228D01*
X110244125Y-122892825D01*
X110478825Y-122658125D01*
X110663228Y-122382147D01*
X110790246Y-122075496D01*
X110849289Y-121778665D01*
X111341000Y-121778665D01*
X111341000Y-122061335D01*
X111396147Y-122338574D01*
X111504320Y-122599727D01*
X111661363Y-122834759D01*
X111861241Y-123034637D01*
X112096273Y-123191680D01*
X112357426Y-123299853D01*
X112634665Y-123355000D01*
X112917335Y-123355000D01*
X113194574Y-123299853D01*
X113455727Y-123191680D01*
X113690759Y-123034637D01*
X113890637Y-122834759D01*
X114047680Y-122599727D01*
X114155853Y-122338574D01*
X114211000Y-122061335D01*
X114211000Y-121778665D01*
X114155853Y-121501426D01*
X114047680Y-121240273D01*
X113890637Y-121005241D01*
X113690759Y-120805363D01*
X113455727Y-120648320D01*
X113194574Y-120540147D01*
X112917335Y-120485000D01*
X112634665Y-120485000D01*
X112357426Y-120540147D01*
X112096273Y-120648320D01*
X111861241Y-120805363D01*
X111661363Y-121005241D01*
X111504320Y-121240273D01*
X111396147Y-121501426D01*
X111341000Y-121778665D01*
X110849289Y-121778665D01*
X110855000Y-121749958D01*
X110855000Y-121418042D01*
X110790246Y-121092504D01*
X110663228Y-120785853D01*
X110478825Y-120509875D01*
X110244125Y-120275175D01*
X109968147Y-120090772D01*
X109661496Y-119963754D01*
X109335958Y-119899000D01*
X109004042Y-119899000D01*
X108678504Y-119963754D01*
X108371853Y-120090772D01*
X108190000Y-120212283D01*
X108190000Y-120175278D01*
X108131971Y-119883549D01*
X108018144Y-119608747D01*
X107852893Y-119361431D01*
X107642569Y-119151107D01*
X107395253Y-118985856D01*
X107120451Y-118872029D01*
X106828722Y-118814000D01*
X106531278Y-118814000D01*
X106239549Y-118872029D01*
X105964747Y-118985856D01*
X105717431Y-119151107D01*
X105507107Y-119361431D01*
X105341856Y-119608747D01*
X105228029Y-119883549D01*
X105170000Y-120175278D01*
X103510000Y-120175278D01*
X103510000Y-116870240D01*
X105813365Y-116870240D01*
X105894025Y-117121868D01*
X106162329Y-117250267D01*
X106450526Y-117323855D01*
X106747543Y-117339804D01*
X107041963Y-117297501D01*
X107322474Y-117198572D01*
X107465975Y-117121868D01*
X107546635Y-116870240D01*
X106680000Y-116003605D01*
X105813365Y-116870240D01*
X103510000Y-116870240D01*
X103510000Y-115891543D01*
X105164196Y-115891543D01*
X105206499Y-116185963D01*
X105305428Y-116466474D01*
X105382132Y-116609975D01*
X105633760Y-116690635D01*
X106500395Y-115824000D01*
X105633760Y-114957365D01*
X105382132Y-115038025D01*
X105253733Y-115306329D01*
X105180145Y-115594526D01*
X105164196Y-115891543D01*
X103510000Y-115891543D01*
X103510000Y-114777760D01*
X105813365Y-114777760D01*
X106680000Y-115644395D01*
X106694143Y-115630253D01*
X106873748Y-115809858D01*
X106859605Y-115824000D01*
X107726240Y-116690635D01*
X107977868Y-116609975D01*
X108106267Y-116341671D01*
X108179855Y-116053474D01*
X108185792Y-115942906D01*
X108371853Y-116067228D01*
X108678504Y-116194246D01*
X109004042Y-116259000D01*
X109335958Y-116259000D01*
X109661496Y-116194246D01*
X109968147Y-116067228D01*
X110244125Y-115882825D01*
X110478825Y-115648125D01*
X110663228Y-115372147D01*
X110790246Y-115065496D01*
X110855000Y-114739958D01*
X110855000Y-114408042D01*
X110805396Y-114158665D01*
X111341000Y-114158665D01*
X111341000Y-114441335D01*
X111396147Y-114718574D01*
X111504320Y-114979727D01*
X111661363Y-115214759D01*
X111861241Y-115414637D01*
X112096273Y-115571680D01*
X112357426Y-115679853D01*
X112634665Y-115735000D01*
X112917335Y-115735000D01*
X113194574Y-115679853D01*
X113455727Y-115571680D01*
X113690759Y-115414637D01*
X113890637Y-115214759D01*
X114047680Y-114979727D01*
X114155853Y-114718574D01*
X114211000Y-114441335D01*
X114211000Y-114158665D01*
X114155853Y-113881426D01*
X114047680Y-113620273D01*
X113890637Y-113385241D01*
X113690759Y-113185363D01*
X113455727Y-113028320D01*
X113194574Y-112920147D01*
X112917335Y-112865000D01*
X112634665Y-112865000D01*
X112357426Y-112920147D01*
X112096273Y-113028320D01*
X111861241Y-113185363D01*
X111661363Y-113385241D01*
X111504320Y-113620273D01*
X111396147Y-113881426D01*
X111341000Y-114158665D01*
X110805396Y-114158665D01*
X110790246Y-114082504D01*
X110663228Y-113775853D01*
X110478825Y-113499875D01*
X110244125Y-113265175D01*
X109968147Y-113080772D01*
X109661496Y-112953754D01*
X109335958Y-112889000D01*
X109004042Y-112889000D01*
X108678504Y-112953754D01*
X108371853Y-113080772D01*
X108095875Y-113265175D01*
X107861175Y-113499875D01*
X107676772Y-113775853D01*
X107549754Y-114082504D01*
X107485000Y-114408042D01*
X107485000Y-114585483D01*
X107465975Y-114526132D01*
X107197671Y-114397733D01*
X106909474Y-114324145D01*
X106612457Y-114308196D01*
X106318037Y-114350499D01*
X106037526Y-114449428D01*
X105894025Y-114526132D01*
X105813365Y-114777760D01*
X103510000Y-114777760D01*
X103510000Y-103644397D01*
X105351208Y-103644397D01*
X105428843Y-103893472D01*
X105692883Y-104019371D01*
X105976411Y-104091339D01*
X106268531Y-104106611D01*
X106558019Y-104064599D01*
X106833747Y-103966919D01*
X106971157Y-103893472D01*
X107048792Y-103644397D01*
X106200000Y-102795605D01*
X105351208Y-103644397D01*
X103510000Y-103644397D01*
X103510000Y-102684531D01*
X104709389Y-102684531D01*
X104751401Y-102974019D01*
X104849081Y-103249747D01*
X104922528Y-103387157D01*
X105171603Y-103464792D01*
X106020395Y-102616000D01*
X105171603Y-101767208D01*
X104922528Y-101844843D01*
X104796629Y-102108883D01*
X104724661Y-102392411D01*
X104709389Y-102684531D01*
X103510000Y-102684531D01*
X103510000Y-98207105D01*
X103513556Y-98171000D01*
X103499365Y-98026915D01*
X103457337Y-97888367D01*
X103400611Y-97782240D01*
X103375836Y-97657688D01*
X103308821Y-97495901D01*
X103293185Y-97472500D01*
X103308821Y-97449099D01*
X103375836Y-97287312D01*
X103410000Y-97115559D01*
X103410000Y-96940441D01*
X103375836Y-96768688D01*
X103308821Y-96606901D01*
X103293185Y-96583500D01*
X103308821Y-96560099D01*
X103375836Y-96398312D01*
X103410000Y-96226559D01*
X103410000Y-96051441D01*
X103375836Y-95879688D01*
X103308821Y-95717901D01*
X103293185Y-95694500D01*
X103308821Y-95671099D01*
X103375836Y-95509312D01*
X103410000Y-95337559D01*
X103410000Y-95162441D01*
X103375836Y-94990688D01*
X103308821Y-94828901D01*
X103293185Y-94805500D01*
X103308821Y-94782099D01*
X103375836Y-94620312D01*
X103400611Y-94495760D01*
X103457337Y-94389633D01*
X103499365Y-94251085D01*
X103513556Y-94107000D01*
X103510000Y-94070895D01*
X103510000Y-87229740D01*
X104715000Y-87229740D01*
X104715000Y-87522260D01*
X104772068Y-87809158D01*
X104884010Y-88079411D01*
X105046525Y-88322632D01*
X105253368Y-88529475D01*
X105427760Y-88646000D01*
X105253368Y-88762525D01*
X105046525Y-88969368D01*
X104884010Y-89212589D01*
X104772068Y-89482842D01*
X104715000Y-89769740D01*
X104715000Y-90062260D01*
X104772068Y-90349158D01*
X104884010Y-90619411D01*
X105046525Y-90862632D01*
X105253368Y-91069475D01*
X105427760Y-91186000D01*
X105253368Y-91302525D01*
X105046525Y-91509368D01*
X104884010Y-91752589D01*
X104772068Y-92022842D01*
X104715000Y-92309740D01*
X104715000Y-92602260D01*
X104772068Y-92889158D01*
X104884010Y-93159411D01*
X105046525Y-93402632D01*
X105253368Y-93609475D01*
X105427760Y-93726000D01*
X105253368Y-93842525D01*
X105046525Y-94049368D01*
X104884010Y-94292589D01*
X104772068Y-94562842D01*
X104715000Y-94849740D01*
X104715000Y-95142260D01*
X104772068Y-95429158D01*
X104884010Y-95699411D01*
X105046525Y-95942632D01*
X105253368Y-96149475D01*
X105427760Y-96266000D01*
X105253368Y-96382525D01*
X105046525Y-96589368D01*
X104884010Y-96832589D01*
X104772068Y-97102842D01*
X104715000Y-97389740D01*
X104715000Y-97682260D01*
X104772068Y-97969158D01*
X104884010Y-98239411D01*
X105046525Y-98482632D01*
X105253368Y-98689475D01*
X105427760Y-98806000D01*
X105253368Y-98922525D01*
X105046525Y-99129368D01*
X104884010Y-99372589D01*
X104772068Y-99642842D01*
X104715000Y-99929740D01*
X104715000Y-100222260D01*
X104772068Y-100509158D01*
X104884010Y-100779411D01*
X105046525Y-101022632D01*
X105253368Y-101229475D01*
X105426729Y-101345311D01*
X105351208Y-101587603D01*
X106200000Y-102436395D01*
X106214143Y-102422253D01*
X106393748Y-102601858D01*
X106379605Y-102616000D01*
X107228397Y-103464792D01*
X107477472Y-103387157D01*
X107603371Y-103123117D01*
X107675339Y-102839589D01*
X107676880Y-102810115D01*
X111887000Y-107020235D01*
X111887000Y-107144964D01*
X111876932Y-107169271D01*
X111841000Y-107349911D01*
X111841000Y-107534089D01*
X111876932Y-107714729D01*
X111947414Y-107884889D01*
X112049738Y-108038028D01*
X112179972Y-108168262D01*
X112333111Y-108270586D01*
X112503271Y-108341068D01*
X112683911Y-108377000D01*
X112868089Y-108377000D01*
X113048729Y-108341068D01*
X113218889Y-108270586D01*
X113372028Y-108168262D01*
X113502262Y-108038028D01*
X113604586Y-107884889D01*
X113675068Y-107714729D01*
X113711000Y-107534089D01*
X113711000Y-107349911D01*
X113675068Y-107169271D01*
X113665000Y-107144964D01*
X113665000Y-106695659D01*
X113669300Y-106651999D01*
X113665000Y-106608339D01*
X113665000Y-106608333D01*
X113652136Y-106477726D01*
X113652136Y-106477724D01*
X113601302Y-106310147D01*
X113583382Y-106276622D01*
X113518753Y-106155709D01*
X113407659Y-106020341D01*
X113373736Y-105992501D01*
X107671477Y-100290242D01*
X107685000Y-100222260D01*
X107685000Y-99929740D01*
X107627932Y-99642842D01*
X107515990Y-99372589D01*
X107353475Y-99129368D01*
X107146632Y-98922525D01*
X106972240Y-98806000D01*
X107146632Y-98689475D01*
X107353475Y-98482632D01*
X107476842Y-98298000D01*
X111190369Y-98298000D01*
X111201219Y-98308850D01*
X111163972Y-98333738D01*
X111033738Y-98463972D01*
X110931414Y-98617111D01*
X110860932Y-98787271D01*
X110825000Y-98967911D01*
X110825000Y-99152089D01*
X110860932Y-99332729D01*
X110931414Y-99502889D01*
X111033738Y-99656028D01*
X111163972Y-99786262D01*
X111317111Y-99888586D01*
X111487271Y-99959068D01*
X111604820Y-99982450D01*
X116281213Y-104658844D01*
X116243956Y-104683738D01*
X116113722Y-104813972D01*
X116011398Y-104967111D01*
X115940916Y-105137271D01*
X115904984Y-105317911D01*
X115904984Y-105502089D01*
X115940916Y-105682729D01*
X116011398Y-105852889D01*
X116077985Y-105952544D01*
X116077984Y-122744075D01*
X116074298Y-122781498D01*
X116077984Y-122818921D01*
X116077984Y-122818923D01*
X116089010Y-122930875D01*
X116132582Y-123074512D01*
X116132583Y-123074513D01*
X116203339Y-123206890D01*
X116217694Y-123224381D01*
X116298562Y-123322920D01*
X116327638Y-123346782D01*
X120579855Y-127599000D01*
X120524967Y-127599000D01*
X120209088Y-127661832D01*
X119911537Y-127785082D01*
X119643748Y-127964013D01*
X119416013Y-128191748D01*
X119237082Y-128459537D01*
X119170599Y-128620041D01*
X119145475Y-128594917D01*
X119029807Y-128710585D01*
X118934044Y-128446186D01*
X118644429Y-128305296D01*
X118332892Y-128223616D01*
X118011405Y-128204282D01*
X117692325Y-128248039D01*
X117387912Y-128353205D01*
X117213956Y-128446186D01*
X117118192Y-128710587D01*
X118074000Y-129666395D01*
X118088143Y-129652253D01*
X118267748Y-129831858D01*
X118253605Y-129846000D01*
X119209413Y-130801808D01*
X119473814Y-130706044D01*
X119595554Y-130455793D01*
X119643748Y-130503987D01*
X119911537Y-130682918D01*
X120209088Y-130806168D01*
X120524967Y-130869000D01*
X120847033Y-130869000D01*
X121162912Y-130806168D01*
X121460463Y-130682918D01*
X121728252Y-130503987D01*
X121955987Y-130276252D01*
X122134918Y-130008463D01*
X122258168Y-129710912D01*
X122321000Y-129395033D01*
X122321000Y-129340145D01*
X124424001Y-131443146D01*
X124424000Y-135503920D01*
X124411537Y-135509082D01*
X124143748Y-135688013D01*
X123916013Y-135915748D01*
X123737082Y-136183537D01*
X123613832Y-136481088D01*
X123551000Y-136796967D01*
X123551000Y-137119033D01*
X123613832Y-137434912D01*
X123737082Y-137732463D01*
X123916013Y-138000252D01*
X124143748Y-138227987D01*
X124411537Y-138406918D01*
X124709088Y-138530168D01*
X125024967Y-138593000D01*
X125347033Y-138593000D01*
X125662912Y-138530168D01*
X125960463Y-138406918D01*
X126228252Y-138227987D01*
X126314272Y-138141967D01*
X147717000Y-138141967D01*
X147717000Y-138464033D01*
X147779832Y-138779912D01*
X147903082Y-139077463D01*
X148082013Y-139345252D01*
X148309748Y-139572987D01*
X148577537Y-139751918D01*
X148875088Y-139875168D01*
X149190967Y-139938000D01*
X149513033Y-139938000D01*
X149828912Y-139875168D01*
X150126463Y-139751918D01*
X150394252Y-139572987D01*
X150528826Y-139438413D01*
X152896192Y-139438413D01*
X152991956Y-139702814D01*
X153281571Y-139843704D01*
X153593108Y-139925384D01*
X153914595Y-139944718D01*
X154233675Y-139900961D01*
X154538088Y-139795795D01*
X154712044Y-139702814D01*
X154807808Y-139438413D01*
X153852000Y-138482605D01*
X152896192Y-139438413D01*
X150528826Y-139438413D01*
X150621987Y-139345252D01*
X150800918Y-139077463D01*
X150924168Y-138779912D01*
X150987000Y-138464033D01*
X150987000Y-138365595D01*
X152210282Y-138365595D01*
X152254039Y-138684675D01*
X152359205Y-138989088D01*
X152452186Y-139163044D01*
X152716587Y-139258808D01*
X153672395Y-138303000D01*
X154031605Y-138303000D01*
X154987413Y-139258808D01*
X155251814Y-139163044D01*
X155392704Y-138873429D01*
X155474384Y-138561892D01*
X155493718Y-138240405D01*
X155449961Y-137921325D01*
X155344795Y-137616912D01*
X155251814Y-137442956D01*
X154987413Y-137347192D01*
X154031605Y-138303000D01*
X153672395Y-138303000D01*
X152716587Y-137347192D01*
X152452186Y-137442956D01*
X152311296Y-137732571D01*
X152229616Y-138044108D01*
X152210282Y-138365595D01*
X150987000Y-138365595D01*
X150987000Y-138141967D01*
X150924168Y-137826088D01*
X150800918Y-137528537D01*
X150621987Y-137260748D01*
X150528826Y-137167587D01*
X152896192Y-137167587D01*
X153852000Y-138123395D01*
X154807808Y-137167587D01*
X154712044Y-136903186D01*
X154422429Y-136762296D01*
X154110892Y-136680616D01*
X153789405Y-136661282D01*
X153470325Y-136705039D01*
X153165912Y-136810205D01*
X152991956Y-136903186D01*
X152896192Y-137167587D01*
X150528826Y-137167587D01*
X150394252Y-137033013D01*
X150126463Y-136854082D01*
X149828912Y-136730832D01*
X149513033Y-136668000D01*
X149190967Y-136668000D01*
X148875088Y-136730832D01*
X148577537Y-136854082D01*
X148309748Y-137033013D01*
X148082013Y-137260748D01*
X147903082Y-137528537D01*
X147779832Y-137826088D01*
X147717000Y-138141967D01*
X126314272Y-138141967D01*
X126455987Y-138000252D01*
X126634918Y-137732463D01*
X126701401Y-137571959D01*
X126726525Y-137597083D01*
X126842193Y-137481415D01*
X126937956Y-137745814D01*
X127227571Y-137886704D01*
X127539108Y-137968384D01*
X127860595Y-137987718D01*
X128179675Y-137943961D01*
X128484088Y-137838795D01*
X128658044Y-137745814D01*
X128753808Y-137481413D01*
X127798000Y-136525605D01*
X127783858Y-136539748D01*
X127604253Y-136360143D01*
X127618395Y-136346000D01*
X127977605Y-136346000D01*
X128933413Y-137301808D01*
X129197814Y-137206044D01*
X129338704Y-136916429D01*
X129420384Y-136604892D01*
X129439718Y-136283405D01*
X129426219Y-136184967D01*
X130663000Y-136184967D01*
X130663000Y-136507033D01*
X130725832Y-136822912D01*
X130849082Y-137120463D01*
X131028013Y-137388252D01*
X131255748Y-137615987D01*
X131523537Y-137794918D01*
X131821088Y-137918168D01*
X132136967Y-137981000D01*
X132459033Y-137981000D01*
X132774912Y-137918168D01*
X133072463Y-137794918D01*
X133340252Y-137615987D01*
X133567987Y-137388252D01*
X133746918Y-137120463D01*
X133870168Y-136822912D01*
X133933000Y-136507033D01*
X133933000Y-136184967D01*
X133870168Y-135869088D01*
X133746918Y-135571537D01*
X133567987Y-135303748D01*
X133340252Y-135076013D01*
X133072463Y-134897082D01*
X132774912Y-134773832D01*
X132459033Y-134711000D01*
X132136967Y-134711000D01*
X131821088Y-134773832D01*
X131523537Y-134897082D01*
X131255748Y-135076013D01*
X131028013Y-135303748D01*
X130849082Y-135571537D01*
X130725832Y-135869088D01*
X130663000Y-136184967D01*
X129426219Y-136184967D01*
X129395961Y-135964325D01*
X129290795Y-135659912D01*
X129197814Y-135485956D01*
X128933413Y-135390192D01*
X127977605Y-136346000D01*
X127618395Y-136346000D01*
X126662587Y-135390192D01*
X126398186Y-135485956D01*
X126276446Y-135736207D01*
X126228252Y-135688013D01*
X125960463Y-135509082D01*
X125948000Y-135503920D01*
X125948000Y-135210587D01*
X126842192Y-135210587D01*
X127798000Y-136166395D01*
X128753808Y-135210587D01*
X128658044Y-134946186D01*
X128368429Y-134805296D01*
X128056892Y-134723616D01*
X127735405Y-134704282D01*
X127416325Y-134748039D01*
X127111912Y-134853205D01*
X126937956Y-134946186D01*
X126842192Y-135210587D01*
X125948000Y-135210587D01*
X125948000Y-131164936D01*
X125951686Y-131127513D01*
X125943165Y-131041000D01*
X125937297Y-130981413D01*
X126842192Y-130981413D01*
X126937956Y-131245814D01*
X127227571Y-131386704D01*
X127539108Y-131468384D01*
X127860595Y-131487718D01*
X128179675Y-131443961D01*
X128484088Y-131338795D01*
X128658044Y-131245814D01*
X128753808Y-130981413D01*
X127798000Y-130025605D01*
X126842192Y-130981413D01*
X125937297Y-130981413D01*
X125936974Y-130978136D01*
X125893402Y-130834499D01*
X125841484Y-130737368D01*
X125872088Y-130726795D01*
X126046044Y-130633814D01*
X126141807Y-130369415D01*
X126257475Y-130485083D01*
X126280880Y-130461678D01*
X126305205Y-130532088D01*
X126398186Y-130706044D01*
X126662587Y-130801808D01*
X127618395Y-129846000D01*
X127977605Y-129846000D01*
X128933413Y-130801808D01*
X129197814Y-130706044D01*
X129338704Y-130416429D01*
X129420384Y-130104892D01*
X129439718Y-129783405D01*
X129395961Y-129464325D01*
X129290795Y-129159912D01*
X129197814Y-128985956D01*
X128933413Y-128890192D01*
X127977605Y-129846000D01*
X127618395Y-129846000D01*
X127604253Y-129831858D01*
X127783858Y-129652253D01*
X127798000Y-129666395D01*
X128753808Y-128710587D01*
X128658044Y-128446186D01*
X128368429Y-128305296D01*
X128056892Y-128223616D01*
X127735405Y-128204282D01*
X127416325Y-128248039D01*
X127111912Y-128353205D01*
X126937956Y-128446186D01*
X126842193Y-128710585D01*
X126726525Y-128594917D01*
X126703120Y-128618322D01*
X126678795Y-128547912D01*
X126585814Y-128373956D01*
X126321413Y-128278192D01*
X125365605Y-129234000D01*
X125379748Y-129248143D01*
X125200143Y-129427748D01*
X125186000Y-129413605D01*
X125171858Y-129427748D01*
X124992253Y-129248143D01*
X125006395Y-129234000D01*
X124050587Y-128278192D01*
X123786186Y-128373956D01*
X123695823Y-128559707D01*
X123234703Y-128098587D01*
X124230192Y-128098587D01*
X125186000Y-129054395D01*
X126141808Y-128098587D01*
X126046044Y-127834186D01*
X125756429Y-127693296D01*
X125444892Y-127611616D01*
X125123405Y-127592282D01*
X124804325Y-127636039D01*
X124499912Y-127741205D01*
X124325956Y-127834186D01*
X124230192Y-128098587D01*
X123234703Y-128098587D01*
X117601984Y-122465868D01*
X117601984Y-117001911D01*
X118698994Y-117001911D01*
X118698994Y-117186089D01*
X118734926Y-117366729D01*
X118805408Y-117536889D01*
X118907732Y-117690028D01*
X119037966Y-117820262D01*
X119191105Y-117922586D01*
X119361265Y-117993068D01*
X119478814Y-118016450D01*
X119924001Y-118461638D01*
X119924000Y-121279920D01*
X119911537Y-121285082D01*
X119643748Y-121464013D01*
X119416013Y-121691748D01*
X119237082Y-121959537D01*
X119113832Y-122257088D01*
X119051000Y-122572967D01*
X119051000Y-122895033D01*
X119113832Y-123210912D01*
X119237082Y-123508463D01*
X119416013Y-123776252D01*
X119643748Y-124003987D01*
X119911537Y-124182918D01*
X120209088Y-124306168D01*
X120524967Y-124369000D01*
X120847033Y-124369000D01*
X121162912Y-124306168D01*
X121460463Y-124182918D01*
X121728252Y-124003987D01*
X121862826Y-123869413D01*
X124230192Y-123869413D01*
X124325956Y-124133814D01*
X124615571Y-124274704D01*
X124927108Y-124356384D01*
X125248595Y-124375718D01*
X125567675Y-124331961D01*
X125872088Y-124226795D01*
X126046044Y-124133814D01*
X126141808Y-123869413D01*
X125186000Y-122913605D01*
X124230192Y-123869413D01*
X121862826Y-123869413D01*
X121955987Y-123776252D01*
X122134918Y-123508463D01*
X122258168Y-123210912D01*
X122321000Y-122895033D01*
X122321000Y-122796595D01*
X123544282Y-122796595D01*
X123588039Y-123115675D01*
X123693205Y-123420088D01*
X123786186Y-123594044D01*
X124050587Y-123689808D01*
X125006395Y-122734000D01*
X124050587Y-121778192D01*
X123786186Y-121873956D01*
X123645296Y-122163571D01*
X123563616Y-122475108D01*
X123544282Y-122796595D01*
X122321000Y-122796595D01*
X122321000Y-122572967D01*
X122258168Y-122257088D01*
X122134918Y-121959537D01*
X121955987Y-121691748D01*
X121728252Y-121464013D01*
X121460463Y-121285082D01*
X121448000Y-121279920D01*
X121448000Y-118183428D01*
X121451686Y-118146005D01*
X121447054Y-118098973D01*
X121436974Y-117996628D01*
X121393402Y-117852991D01*
X121322645Y-117720614D01*
X121227422Y-117604584D01*
X121198351Y-117580727D01*
X120556444Y-116938820D01*
X120533062Y-116821271D01*
X120462580Y-116651111D01*
X120360256Y-116497972D01*
X120230022Y-116367738D01*
X120076883Y-116265414D01*
X119906723Y-116194932D01*
X119726083Y-116159000D01*
X119541905Y-116159000D01*
X119361265Y-116194932D01*
X119191105Y-116265414D01*
X119037966Y-116367738D01*
X118907732Y-116497972D01*
X118805408Y-116651111D01*
X118734926Y-116821271D01*
X118698994Y-117001911D01*
X117601984Y-117001911D01*
X117601984Y-113345614D01*
X125363065Y-121106695D01*
X125123405Y-121092282D01*
X124804325Y-121136039D01*
X124499912Y-121241205D01*
X124325956Y-121334186D01*
X124230192Y-121598587D01*
X125186000Y-122554395D01*
X125200143Y-122540253D01*
X125379748Y-122719858D01*
X125365605Y-122734000D01*
X126321413Y-123689808D01*
X126585814Y-123594044D01*
X126726704Y-123304429D01*
X126808384Y-122992892D01*
X126827718Y-122671405D01*
X126811816Y-122555446D01*
X131536001Y-127279631D01*
X131536001Y-128391919D01*
X131523537Y-128397082D01*
X131255748Y-128576013D01*
X131028013Y-128803748D01*
X130849082Y-129071537D01*
X130725832Y-129369088D01*
X130663000Y-129684967D01*
X130663000Y-130007033D01*
X130725832Y-130322912D01*
X130849082Y-130620463D01*
X131028013Y-130888252D01*
X131255748Y-131115987D01*
X131523537Y-131294918D01*
X131821088Y-131418168D01*
X132136967Y-131481000D01*
X132459033Y-131481000D01*
X132774912Y-131418168D01*
X133072463Y-131294918D01*
X133340252Y-131115987D01*
X133567987Y-130888252D01*
X133746918Y-130620463D01*
X133870168Y-130322912D01*
X133933000Y-130007033D01*
X133933000Y-129684967D01*
X133870168Y-129369088D01*
X133746918Y-129071537D01*
X133567987Y-128803748D01*
X133340252Y-128576013D01*
X133072463Y-128397082D01*
X133060000Y-128391920D01*
X133060000Y-127001423D01*
X133063686Y-126964000D01*
X133052458Y-126850000D01*
X133048974Y-126814622D01*
X133005402Y-126670985D01*
X132944468Y-126556985D01*
X132934645Y-126538607D01*
X132876965Y-126468325D01*
X132839422Y-126422578D01*
X132810346Y-126398716D01*
X122891921Y-116480291D01*
X123041278Y-116510000D01*
X123338722Y-116510000D01*
X123630451Y-116451971D01*
X123905253Y-116338144D01*
X124152569Y-116172893D01*
X124362893Y-115962569D01*
X124460000Y-115817238D01*
X124557107Y-115962569D01*
X124767431Y-116172893D01*
X125014747Y-116338144D01*
X125289549Y-116451971D01*
X125581278Y-116510000D01*
X125878722Y-116510000D01*
X126170451Y-116451971D01*
X126445253Y-116338144D01*
X126692569Y-116172893D01*
X126902893Y-115962569D01*
X127000000Y-115817238D01*
X127097107Y-115962569D01*
X127307431Y-116172893D01*
X127554747Y-116338144D01*
X127829549Y-116451971D01*
X128121278Y-116510000D01*
X128297701Y-116510000D01*
X128203414Y-116651111D01*
X128132932Y-116821271D01*
X128097000Y-117001911D01*
X128097000Y-117186089D01*
X128132932Y-117366729D01*
X128203414Y-117536889D01*
X128270001Y-117636543D01*
X128270000Y-120612577D01*
X128266314Y-120650000D01*
X128270000Y-120687423D01*
X128270000Y-120687425D01*
X128281026Y-120799377D01*
X128324598Y-120943014D01*
X128324599Y-120943015D01*
X128395355Y-121075392D01*
X128425084Y-121111616D01*
X128490578Y-121191422D01*
X128519654Y-121215284D01*
X139619721Y-132315352D01*
X139643578Y-132344422D01*
X139672648Y-132368279D01*
X139759607Y-132439645D01*
X139809498Y-132466312D01*
X139891985Y-132510402D01*
X140035622Y-132553974D01*
X140147574Y-132565000D01*
X140147577Y-132565000D01*
X140185000Y-132568686D01*
X140222423Y-132565000D01*
X147897920Y-132565000D01*
X147903082Y-132577463D01*
X148082013Y-132845252D01*
X148309748Y-133072987D01*
X148577537Y-133251918D01*
X148875088Y-133375168D01*
X149190967Y-133438000D01*
X149513033Y-133438000D01*
X149828912Y-133375168D01*
X150126463Y-133251918D01*
X150394252Y-133072987D01*
X150528826Y-132938413D01*
X152896192Y-132938413D01*
X152991956Y-133202814D01*
X153281571Y-133343704D01*
X153593108Y-133425384D01*
X153914595Y-133444718D01*
X154233675Y-133400961D01*
X154538088Y-133295795D01*
X154712044Y-133202814D01*
X154717059Y-133188967D01*
X157496000Y-133188967D01*
X157496000Y-133511033D01*
X157558832Y-133826912D01*
X157682082Y-134124463D01*
X157861013Y-134392252D01*
X158088748Y-134619987D01*
X158356537Y-134798918D01*
X158654088Y-134922168D01*
X158969967Y-134985000D01*
X159292033Y-134985000D01*
X159607912Y-134922168D01*
X159905463Y-134798918D01*
X160173252Y-134619987D01*
X160307826Y-134485413D01*
X162675192Y-134485413D01*
X162770956Y-134749814D01*
X163060571Y-134890704D01*
X163372108Y-134972384D01*
X163693595Y-134991718D01*
X164012675Y-134947961D01*
X164317088Y-134842795D01*
X164491044Y-134749814D01*
X164586808Y-134485413D01*
X163631000Y-133529605D01*
X162675192Y-134485413D01*
X160307826Y-134485413D01*
X160400987Y-134392252D01*
X160579918Y-134124463D01*
X160703168Y-133826912D01*
X160766000Y-133511033D01*
X160766000Y-133412595D01*
X161989282Y-133412595D01*
X162033039Y-133731675D01*
X162138205Y-134036088D01*
X162231186Y-134210044D01*
X162495587Y-134305808D01*
X163451395Y-133350000D01*
X163810605Y-133350000D01*
X164766413Y-134305808D01*
X165030814Y-134210044D01*
X165171704Y-133920429D01*
X165253384Y-133608892D01*
X165272718Y-133287405D01*
X165228961Y-132968325D01*
X165123795Y-132663912D01*
X165030814Y-132489956D01*
X164766413Y-132394192D01*
X163810605Y-133350000D01*
X163451395Y-133350000D01*
X162495587Y-132394192D01*
X162231186Y-132489956D01*
X162090296Y-132779571D01*
X162008616Y-133091108D01*
X161989282Y-133412595D01*
X160766000Y-133412595D01*
X160766000Y-133188967D01*
X160703168Y-132873088D01*
X160579918Y-132575537D01*
X160400987Y-132307748D01*
X160307826Y-132214587D01*
X162675192Y-132214587D01*
X163631000Y-133170395D01*
X164586808Y-132214587D01*
X164491044Y-131950186D01*
X164201429Y-131809296D01*
X163889892Y-131727616D01*
X163568405Y-131708282D01*
X163249325Y-131752039D01*
X162944912Y-131857205D01*
X162770956Y-131950186D01*
X162675192Y-132214587D01*
X160307826Y-132214587D01*
X160173252Y-132080013D01*
X159905463Y-131901082D01*
X159607912Y-131777832D01*
X159292033Y-131715000D01*
X158969967Y-131715000D01*
X158654088Y-131777832D01*
X158356537Y-131901082D01*
X158088748Y-132080013D01*
X157861013Y-132307748D01*
X157682082Y-132575537D01*
X157558832Y-132873088D01*
X157496000Y-133188967D01*
X154717059Y-133188967D01*
X154807808Y-132938413D01*
X153852000Y-131982605D01*
X152896192Y-132938413D01*
X150528826Y-132938413D01*
X150621987Y-132845252D01*
X150800918Y-132577463D01*
X150924168Y-132279912D01*
X150987000Y-131964033D01*
X150987000Y-131865595D01*
X152210282Y-131865595D01*
X152254039Y-132184675D01*
X152359205Y-132489088D01*
X152452186Y-132663044D01*
X152716587Y-132758808D01*
X153672395Y-131803000D01*
X154031605Y-131803000D01*
X154987413Y-132758808D01*
X155251814Y-132663044D01*
X155392704Y-132373429D01*
X155474384Y-132061892D01*
X155493718Y-131740405D01*
X155449961Y-131421325D01*
X155344795Y-131116912D01*
X155251814Y-130942956D01*
X154987413Y-130847192D01*
X154031605Y-131803000D01*
X153672395Y-131803000D01*
X152716587Y-130847192D01*
X152452186Y-130942956D01*
X152311296Y-131232571D01*
X152229616Y-131544108D01*
X152210282Y-131865595D01*
X150987000Y-131865595D01*
X150987000Y-131641967D01*
X150924168Y-131326088D01*
X150800918Y-131028537D01*
X150621987Y-130760748D01*
X150528826Y-130667587D01*
X152896192Y-130667587D01*
X153852000Y-131623395D01*
X154807808Y-130667587D01*
X154712044Y-130403186D01*
X154422429Y-130262296D01*
X154110892Y-130180616D01*
X153789405Y-130161282D01*
X153470325Y-130205039D01*
X153165912Y-130310205D01*
X152991956Y-130403186D01*
X152896192Y-130667587D01*
X150528826Y-130667587D01*
X150394252Y-130533013D01*
X150126463Y-130354082D01*
X149828912Y-130230832D01*
X149513033Y-130168000D01*
X149190967Y-130168000D01*
X148875088Y-130230832D01*
X148577537Y-130354082D01*
X148309748Y-130533013D01*
X148082013Y-130760748D01*
X147903082Y-131028537D01*
X147897920Y-131041000D01*
X140500631Y-131041000D01*
X137071631Y-127612000D01*
X157676920Y-127612000D01*
X157682082Y-127624463D01*
X157861013Y-127892252D01*
X158088748Y-128119987D01*
X158356537Y-128298918D01*
X158654088Y-128422168D01*
X158969967Y-128485000D01*
X159292033Y-128485000D01*
X159607912Y-128422168D01*
X159905463Y-128298918D01*
X160173252Y-128119987D01*
X160307826Y-127985413D01*
X162675192Y-127985413D01*
X162770956Y-128249814D01*
X163060571Y-128390704D01*
X163372108Y-128472384D01*
X163693595Y-128491718D01*
X164012675Y-128447961D01*
X164317088Y-128342795D01*
X164491044Y-128249814D01*
X164586808Y-127985413D01*
X163631000Y-127029605D01*
X162675192Y-127985413D01*
X160307826Y-127985413D01*
X160400987Y-127892252D01*
X160579918Y-127624463D01*
X160703168Y-127326912D01*
X160766000Y-127011033D01*
X160766000Y-126912595D01*
X161989282Y-126912595D01*
X162033039Y-127231675D01*
X162138205Y-127536088D01*
X162231186Y-127710044D01*
X162495587Y-127805808D01*
X163451395Y-126850000D01*
X163810605Y-126850000D01*
X164766413Y-127805808D01*
X165030814Y-127710044D01*
X165171704Y-127420429D01*
X165253384Y-127108892D01*
X165272718Y-126787405D01*
X165228961Y-126468325D01*
X165123795Y-126163912D01*
X165030814Y-125989956D01*
X164766413Y-125894192D01*
X163810605Y-126850000D01*
X163451395Y-126850000D01*
X162495587Y-125894192D01*
X162231186Y-125989956D01*
X162090296Y-126279571D01*
X162008616Y-126591108D01*
X161989282Y-126912595D01*
X160766000Y-126912595D01*
X160766000Y-126688967D01*
X160703168Y-126373088D01*
X160579918Y-126075537D01*
X160400987Y-125807748D01*
X160173252Y-125580013D01*
X159905463Y-125401082D01*
X159607912Y-125277832D01*
X159327225Y-125222000D01*
X163468372Y-125222000D01*
X163249325Y-125252039D01*
X162944912Y-125357205D01*
X162770956Y-125450186D01*
X162675192Y-125714587D01*
X163631000Y-126670395D01*
X164586808Y-125714587D01*
X164491044Y-125450186D01*
X164201429Y-125309296D01*
X163889892Y-125227616D01*
X163796509Y-125222000D01*
X169397695Y-125222000D01*
X169435875Y-125279140D01*
X169614860Y-125458125D01*
X169825324Y-125598753D01*
X170059179Y-125695619D01*
X170307439Y-125745000D01*
X170560561Y-125745000D01*
X170808821Y-125695619D01*
X171042676Y-125598753D01*
X171253140Y-125458125D01*
X171432125Y-125279140D01*
X171516659Y-125152626D01*
X171621392Y-125096645D01*
X171737422Y-125001422D01*
X171832645Y-124885392D01*
X171903402Y-124753015D01*
X171946974Y-124609378D01*
X171961686Y-124460000D01*
X171946974Y-124310622D01*
X171903402Y-124166985D01*
X171832645Y-124034608D01*
X171737422Y-123918578D01*
X171621392Y-123823355D01*
X171516659Y-123767374D01*
X171432125Y-123640860D01*
X171253140Y-123461875D01*
X171042676Y-123321247D01*
X170808821Y-123224381D01*
X170635973Y-123190000D01*
X170808821Y-123155619D01*
X171042676Y-123058753D01*
X171253140Y-122918125D01*
X171432125Y-122739140D01*
X171572753Y-122528676D01*
X171669619Y-122294821D01*
X171719000Y-122046561D01*
X171719000Y-121793439D01*
X171669619Y-121545179D01*
X171572753Y-121311324D01*
X171432125Y-121100860D01*
X171253140Y-120921875D01*
X171042676Y-120781247D01*
X170808821Y-120684381D01*
X170635973Y-120650000D01*
X170808821Y-120615619D01*
X171042676Y-120518753D01*
X171253140Y-120378125D01*
X171432125Y-120199140D01*
X171516659Y-120072626D01*
X171621392Y-120016645D01*
X171737422Y-119921422D01*
X171832645Y-119805392D01*
X171903402Y-119673015D01*
X171946974Y-119529378D01*
X171961686Y-119380000D01*
X171946974Y-119230622D01*
X171903402Y-119086985D01*
X171832645Y-118954608D01*
X171737422Y-118838578D01*
X171621392Y-118743355D01*
X171516659Y-118687374D01*
X171432125Y-118560860D01*
X171253140Y-118381875D01*
X171042676Y-118241247D01*
X170808821Y-118144381D01*
X170560561Y-118095000D01*
X170307439Y-118095000D01*
X170059179Y-118144381D01*
X169825324Y-118241247D01*
X169614860Y-118381875D01*
X169435875Y-118560860D01*
X169397695Y-118618000D01*
X143125631Y-118618000D01*
X141343283Y-116835653D01*
X141343279Y-116835648D01*
X141017631Y-116510000D01*
X141118722Y-116510000D01*
X141410451Y-116451971D01*
X141685253Y-116338144D01*
X141932569Y-116172893D01*
X142142893Y-115962569D01*
X142240000Y-115817238D01*
X142337107Y-115962569D01*
X142547431Y-116172893D01*
X142794747Y-116338144D01*
X143069549Y-116451971D01*
X143361278Y-116510000D01*
X143658722Y-116510000D01*
X143950451Y-116451971D01*
X144225253Y-116338144D01*
X144472569Y-116172893D01*
X144682893Y-115962569D01*
X144780000Y-115817238D01*
X144877107Y-115962569D01*
X145087431Y-116172893D01*
X145334747Y-116338144D01*
X145609549Y-116451971D01*
X145901278Y-116510000D01*
X146198722Y-116510000D01*
X146490451Y-116451971D01*
X146765253Y-116338144D01*
X147012569Y-116172893D01*
X147222893Y-115962569D01*
X147320000Y-115817238D01*
X147417107Y-115962569D01*
X147627431Y-116172893D01*
X147874747Y-116338144D01*
X148149549Y-116451971D01*
X148441278Y-116510000D01*
X148738722Y-116510000D01*
X149030451Y-116451971D01*
X149305253Y-116338144D01*
X149552569Y-116172893D01*
X149679222Y-116046240D01*
X150263365Y-116046240D01*
X150344025Y-116297868D01*
X150612329Y-116426267D01*
X150900526Y-116499855D01*
X151197543Y-116515804D01*
X151491963Y-116473501D01*
X151772474Y-116374572D01*
X151915975Y-116297868D01*
X151996635Y-116046240D01*
X151130000Y-115179605D01*
X150263365Y-116046240D01*
X149679222Y-116046240D01*
X149762893Y-115962569D01*
X149872288Y-115798847D01*
X150083760Y-115866635D01*
X150950395Y-115000000D01*
X150936253Y-114985858D01*
X151115858Y-114806253D01*
X151130000Y-114820395D01*
X151144143Y-114806253D01*
X151323748Y-114985858D01*
X151309605Y-115000000D01*
X152176240Y-115866635D01*
X152387712Y-115798847D01*
X152497107Y-115962569D01*
X152707431Y-116172893D01*
X152954747Y-116338144D01*
X153229549Y-116451971D01*
X153521278Y-116510000D01*
X153818722Y-116510000D01*
X154110451Y-116451971D01*
X154385253Y-116338144D01*
X154632569Y-116172893D01*
X154842893Y-115962569D01*
X154940000Y-115817238D01*
X155037107Y-115962569D01*
X155247431Y-116172893D01*
X155494747Y-116338144D01*
X155769549Y-116451971D01*
X156061278Y-116510000D01*
X156358722Y-116510000D01*
X156650451Y-116451971D01*
X156925253Y-116338144D01*
X157172569Y-116172893D01*
X157382893Y-115962569D01*
X157516909Y-115762000D01*
X165124577Y-115762000D01*
X165162000Y-115765686D01*
X165199423Y-115762000D01*
X165199426Y-115762000D01*
X165311378Y-115750974D01*
X165455015Y-115707402D01*
X165587392Y-115636645D01*
X165703422Y-115541422D01*
X165727284Y-115512346D01*
X170438353Y-110801278D01*
X170467422Y-110777422D01*
X170562645Y-110661392D01*
X170633402Y-110529015D01*
X170676974Y-110385378D01*
X170688000Y-110273426D01*
X170688000Y-110273424D01*
X170691686Y-110236001D01*
X170688000Y-110198578D01*
X170688000Y-81825423D01*
X170691686Y-81788000D01*
X170688000Y-81750574D01*
X170676974Y-81638622D01*
X170633402Y-81494985D01*
X170600465Y-81433364D01*
X170562645Y-81362607D01*
X170527857Y-81320219D01*
X170467422Y-81246578D01*
X170438346Y-81222716D01*
X167697284Y-78481654D01*
X167673422Y-78452578D01*
X167557392Y-78357355D01*
X167425015Y-78286598D01*
X167281378Y-78243026D01*
X167169426Y-78232000D01*
X167169423Y-78232000D01*
X167132000Y-78228314D01*
X167094577Y-78232000D01*
X155482542Y-78232000D01*
X155382889Y-78165414D01*
X155212729Y-78094932D01*
X155032089Y-78059000D01*
X154847911Y-78059000D01*
X154667271Y-78094932D01*
X154497111Y-78165414D01*
X154343972Y-78267738D01*
X154213738Y-78397972D01*
X154111414Y-78551111D01*
X154040932Y-78721271D01*
X154005000Y-78901911D01*
X154005000Y-79086089D01*
X154040932Y-79266729D01*
X154111414Y-79436889D01*
X154213738Y-79590028D01*
X154343972Y-79720262D01*
X154497111Y-79822586D01*
X154667271Y-79893068D01*
X154847911Y-79929000D01*
X155032089Y-79929000D01*
X155212729Y-79893068D01*
X155382889Y-79822586D01*
X155482542Y-79756000D01*
X166816370Y-79756000D01*
X169164001Y-82103631D01*
X169164001Y-93156371D01*
X167557679Y-91550049D01*
X167601000Y-91332260D01*
X167601000Y-91039740D01*
X167543932Y-90752842D01*
X167431990Y-90482589D01*
X167269475Y-90239368D01*
X167062632Y-90032525D01*
X166888240Y-89916000D01*
X167062632Y-89799475D01*
X167269475Y-89592632D01*
X167431990Y-89349411D01*
X167543932Y-89079158D01*
X167601000Y-88792260D01*
X167601000Y-88499740D01*
X167543932Y-88212842D01*
X167431990Y-87942589D01*
X167269475Y-87699368D01*
X167062632Y-87492525D01*
X166888240Y-87376000D01*
X167062632Y-87259475D01*
X167269475Y-87052632D01*
X167431990Y-86809411D01*
X167543932Y-86539158D01*
X167601000Y-86252260D01*
X167601000Y-85959740D01*
X167543932Y-85672842D01*
X167431990Y-85402589D01*
X167269475Y-85159368D01*
X167062632Y-84952525D01*
X166880466Y-84830805D01*
X166997355Y-84761178D01*
X167213588Y-84566269D01*
X167387641Y-84332920D01*
X167512825Y-84070099D01*
X167557476Y-83922890D01*
X167436155Y-83693000D01*
X166243000Y-83693000D01*
X166243000Y-83713000D01*
X165989000Y-83713000D01*
X165989000Y-83693000D01*
X164795845Y-83693000D01*
X164674524Y-83922890D01*
X164719175Y-84070099D01*
X164844359Y-84332920D01*
X165018412Y-84566269D01*
X165234645Y-84761178D01*
X165351534Y-84830805D01*
X165169368Y-84952525D01*
X164962525Y-85159368D01*
X164800010Y-85402589D01*
X164688068Y-85672842D01*
X164631000Y-85959740D01*
X164631000Y-86252260D01*
X164688068Y-86539158D01*
X164800010Y-86809411D01*
X164962525Y-87052632D01*
X165169368Y-87259475D01*
X165343760Y-87376000D01*
X165169368Y-87492525D01*
X164962525Y-87699368D01*
X164924017Y-87757000D01*
X164889659Y-87757000D01*
X164845999Y-87752700D01*
X164802339Y-87757000D01*
X164802333Y-87757000D01*
X164704924Y-87766594D01*
X164671724Y-87769864D01*
X164570058Y-87800704D01*
X164504149Y-87820697D01*
X164349709Y-87903247D01*
X164214341Y-88014341D01*
X164186501Y-88048264D01*
X154221852Y-98012913D01*
X154244586Y-97978889D01*
X154315068Y-97808729D01*
X154351000Y-97628089D01*
X154351000Y-97443911D01*
X154315068Y-97263271D01*
X154244586Y-97093111D01*
X154142262Y-96939972D01*
X154012028Y-96809738D01*
X153858889Y-96707414D01*
X153688729Y-96636932D01*
X153508089Y-96601000D01*
X153323911Y-96601000D01*
X153143271Y-96636932D01*
X152973111Y-96707414D01*
X152873458Y-96774000D01*
X149883079Y-96774000D01*
X149926586Y-96708887D01*
X149997068Y-96538727D01*
X150033000Y-96358087D01*
X150033000Y-96173909D01*
X149997068Y-95993269D01*
X149926586Y-95823109D01*
X149824262Y-95669970D01*
X149694028Y-95539736D01*
X149540889Y-95437412D01*
X149370729Y-95366930D01*
X149190089Y-95330998D01*
X149005911Y-95330998D01*
X148825271Y-95366930D01*
X148655111Y-95437412D01*
X148555458Y-95503998D01*
X139421425Y-95503998D01*
X139384002Y-95500312D01*
X139346579Y-95503998D01*
X139346576Y-95503998D01*
X139234624Y-95515024D01*
X139090987Y-95558596D01*
X139041574Y-95585008D01*
X138958609Y-95629353D01*
X138907742Y-95671099D01*
X138842580Y-95724576D01*
X138818723Y-95753646D01*
X126115309Y-108457061D01*
X125878722Y-108410000D01*
X125581278Y-108410000D01*
X125344691Y-108457060D01*
X121708631Y-104821000D01*
X121758089Y-104821000D01*
X121938729Y-104785068D01*
X122108889Y-104714586D01*
X122262028Y-104612262D01*
X122392262Y-104482028D01*
X122494586Y-104328889D01*
X122565068Y-104158729D01*
X122601000Y-103978089D01*
X122601000Y-103793911D01*
X122565068Y-103613271D01*
X122555000Y-103588964D01*
X122555000Y-96817044D01*
X122565068Y-96792737D01*
X122601000Y-96612097D01*
X122601000Y-96427919D01*
X122565068Y-96247279D01*
X122494586Y-96077119D01*
X122392262Y-95923980D01*
X122262028Y-95793746D01*
X122108889Y-95691422D01*
X121938729Y-95620940D01*
X121758089Y-95585008D01*
X121573911Y-95585008D01*
X121393271Y-95620940D01*
X121223111Y-95691422D01*
X121069972Y-95793746D01*
X120939738Y-95923980D01*
X120837414Y-96077119D01*
X120766932Y-96247279D01*
X120731000Y-96427919D01*
X120731000Y-96612097D01*
X120766932Y-96792737D01*
X120777001Y-96817046D01*
X120777000Y-103588964D01*
X120766932Y-103613271D01*
X120731000Y-103793911D01*
X120731000Y-103843369D01*
X111371284Y-94483654D01*
X111347422Y-94454578D01*
X111231392Y-94359355D01*
X111099015Y-94288598D01*
X110955378Y-94245026D01*
X110843426Y-94234000D01*
X110843423Y-94234000D01*
X110806000Y-94230314D01*
X110768577Y-94234000D01*
X107476842Y-94234000D01*
X107353475Y-94049368D01*
X107146632Y-93842525D01*
X106972240Y-93726000D01*
X107146632Y-93609475D01*
X107353475Y-93402632D01*
X107515990Y-93159411D01*
X107627932Y-92889158D01*
X107685000Y-92602260D01*
X107685000Y-92554411D01*
X146702500Y-92554411D01*
X146702500Y-92738589D01*
X146738432Y-92919229D01*
X146808914Y-93089389D01*
X146911238Y-93242528D01*
X147041472Y-93372762D01*
X147194611Y-93475086D01*
X147364771Y-93545568D01*
X147545411Y-93581500D01*
X147729589Y-93581500D01*
X147910229Y-93545568D01*
X148080389Y-93475086D01*
X148233528Y-93372762D01*
X148363762Y-93242528D01*
X148466086Y-93089389D01*
X148476155Y-93065080D01*
X154596582Y-86944654D01*
X154620889Y-86934586D01*
X154774028Y-86832262D01*
X154904262Y-86702028D01*
X155006586Y-86548889D01*
X155077068Y-86378729D01*
X155113000Y-86198089D01*
X155113000Y-86013911D01*
X155077068Y-85833271D01*
X155006586Y-85663111D01*
X154904262Y-85509972D01*
X154774028Y-85379738D01*
X154620889Y-85277414D01*
X154450729Y-85206932D01*
X154270089Y-85171000D01*
X154085911Y-85171000D01*
X153905271Y-85206932D01*
X153735111Y-85277414D01*
X153581972Y-85379738D01*
X153451738Y-85509972D01*
X153349414Y-85663111D01*
X153339346Y-85687418D01*
X147218920Y-91807845D01*
X147194611Y-91817914D01*
X147041472Y-91920238D01*
X146911238Y-92050472D01*
X146808914Y-92203611D01*
X146738432Y-92373771D01*
X146702500Y-92554411D01*
X107685000Y-92554411D01*
X107685000Y-92309740D01*
X107627932Y-92022842D01*
X107515990Y-91752589D01*
X107353475Y-91509368D01*
X107146632Y-91302525D01*
X106972240Y-91186000D01*
X107146632Y-91069475D01*
X107353475Y-90862632D01*
X107515990Y-90619411D01*
X107627932Y-90349158D01*
X107685000Y-90062260D01*
X107685000Y-89769740D01*
X107627932Y-89482842D01*
X107515990Y-89212589D01*
X107353475Y-88969368D01*
X107146632Y-88762525D01*
X106972240Y-88646000D01*
X107146632Y-88529475D01*
X107353475Y-88322632D01*
X107476842Y-88138000D01*
X121882575Y-88138000D01*
X121919998Y-88141686D01*
X121957421Y-88138000D01*
X121957424Y-88138000D01*
X122069376Y-88126974D01*
X122213013Y-88083402D01*
X122345390Y-88012645D01*
X122461420Y-87917422D01*
X122485282Y-87888346D01*
X127164518Y-83209110D01*
X164674524Y-83209110D01*
X164795845Y-83439000D01*
X165989000Y-83439000D01*
X165989000Y-82245186D01*
X166243000Y-82245186D01*
X166243000Y-83439000D01*
X167436155Y-83439000D01*
X167557476Y-83209110D01*
X167512825Y-83061901D01*
X167387641Y-82799080D01*
X167213588Y-82565731D01*
X166997355Y-82370822D01*
X166747252Y-82221843D01*
X166472891Y-82124519D01*
X166243000Y-82245186D01*
X165989000Y-82245186D01*
X165759109Y-82124519D01*
X165484748Y-82221843D01*
X165234645Y-82370822D01*
X165018412Y-82565731D01*
X164844359Y-82799080D01*
X164719175Y-83061901D01*
X164674524Y-83209110D01*
X127164518Y-83209110D01*
X130457179Y-79916450D01*
X130574727Y-79893068D01*
X130744887Y-79822586D01*
X130898026Y-79720262D01*
X131028260Y-79590028D01*
X131130584Y-79436889D01*
X131201066Y-79266729D01*
X131236998Y-79086089D01*
X131236998Y-78901911D01*
X131201066Y-78721271D01*
X131130584Y-78551111D01*
X131028260Y-78397972D01*
X130898026Y-78267738D01*
X130744887Y-78165414D01*
X130574727Y-78094932D01*
X130394087Y-78059000D01*
X130209909Y-78059000D01*
X130029269Y-78094932D01*
X129859109Y-78165414D01*
X129705970Y-78267738D01*
X129575736Y-78397972D01*
X129473412Y-78551111D01*
X129402930Y-78721271D01*
X129379548Y-78838819D01*
X121604368Y-86614000D01*
X107476842Y-86614000D01*
X107353475Y-86429368D01*
X107146632Y-86222525D01*
X106903411Y-86060010D01*
X106633158Y-85948068D01*
X106346260Y-85891000D01*
X106053740Y-85891000D01*
X105766842Y-85948068D01*
X105496589Y-86060010D01*
X105253368Y-86222525D01*
X105046525Y-86429368D01*
X104884010Y-86672589D01*
X104772068Y-86942842D01*
X104715000Y-87229740D01*
X103510000Y-87229740D01*
X103510000Y-72539401D01*
X103665062Y-72694463D01*
X104211285Y-73059438D01*
X104818217Y-73310837D01*
X105462531Y-73438999D01*
X106119469Y-73438999D01*
X106763783Y-73310837D01*
X107370715Y-73059438D01*
X107916938Y-72694463D01*
X108381463Y-72229938D01*
X108746438Y-71683715D01*
X108997837Y-71076783D01*
X109067133Y-70728408D01*
X109397800Y-70728408D01*
X109397800Y-71003592D01*
X109451486Y-71273490D01*
X109556795Y-71527727D01*
X109709680Y-71756535D01*
X109904265Y-71951120D01*
X110133073Y-72104005D01*
X110387310Y-72209314D01*
X110657208Y-72263000D01*
X110932392Y-72263000D01*
X111202290Y-72209314D01*
X111456527Y-72104005D01*
X111685335Y-71951120D01*
X111879920Y-71756535D01*
X112032805Y-71527727D01*
X112039400Y-71511805D01*
X112045995Y-71527727D01*
X112198880Y-71756535D01*
X112393465Y-71951120D01*
X112622273Y-72104005D01*
X112876510Y-72209314D01*
X113146408Y-72263000D01*
X113421592Y-72263000D01*
X113423404Y-72262639D01*
X119049335Y-77888571D01*
X119059408Y-77912889D01*
X119161732Y-78066028D01*
X119291966Y-78196262D01*
X119445105Y-78298586D01*
X119615265Y-78369068D01*
X119795905Y-78405000D01*
X119980083Y-78405000D01*
X120160723Y-78369068D01*
X120330883Y-78298586D01*
X120484022Y-78196262D01*
X120614256Y-78066028D01*
X120716580Y-77912889D01*
X120787062Y-77742729D01*
X120822994Y-77562089D01*
X120822994Y-77377911D01*
X120787062Y-77197271D01*
X120716580Y-77027111D01*
X120614256Y-76873972D01*
X120484022Y-76743738D01*
X120330883Y-76641414D01*
X120306586Y-76631350D01*
X115933682Y-72258447D01*
X116180690Y-72209314D01*
X116434927Y-72104005D01*
X116663735Y-71951120D01*
X116858320Y-71756535D01*
X117011205Y-71527727D01*
X117116514Y-71273490D01*
X117170200Y-71003592D01*
X117170200Y-70728408D01*
X117116514Y-70458510D01*
X117011205Y-70204273D01*
X116858320Y-69975465D01*
X116663735Y-69780880D01*
X116434927Y-69627995D01*
X116180690Y-69522686D01*
X115910792Y-69469000D01*
X115635608Y-69469000D01*
X115365710Y-69522686D01*
X115111473Y-69627995D01*
X114882665Y-69780880D01*
X114688080Y-69975465D01*
X114535195Y-70204273D01*
X114528600Y-70220195D01*
X114522005Y-70204273D01*
X114369120Y-69975465D01*
X114174535Y-69780880D01*
X113945727Y-69627995D01*
X113691490Y-69522686D01*
X113421592Y-69469000D01*
X113146408Y-69469000D01*
X112876510Y-69522686D01*
X112622273Y-69627995D01*
X112393465Y-69780880D01*
X112198880Y-69975465D01*
X112045995Y-70204273D01*
X112039400Y-70220195D01*
X112032805Y-70204273D01*
X111879920Y-69975465D01*
X111685335Y-69780880D01*
X111456527Y-69627995D01*
X111202290Y-69522686D01*
X110932392Y-69469000D01*
X110657208Y-69469000D01*
X110387310Y-69522686D01*
X110133073Y-69627995D01*
X109904265Y-69780880D01*
X109709680Y-69975465D01*
X109556795Y-70204273D01*
X109451486Y-70458510D01*
X109397800Y-70728408D01*
X109067133Y-70728408D01*
X109125999Y-70432469D01*
X109125999Y-69775531D01*
X108997837Y-69131217D01*
X108746438Y-68524285D01*
X108381463Y-67978062D01*
X108194401Y-67791000D01*
X118074054Y-67791000D01*
X118213231Y-67804646D01*
G04 #@! TA.AperFunction,Conductor*
D27*
G36*
X118213231Y-67804646D02*
G01*
X118312528Y-67834626D01*
X118404114Y-67883323D01*
X118484497Y-67948882D01*
X118550613Y-68028803D01*
X118612228Y-68142756D01*
X121733885Y-75935803D01*
X121745664Y-75974633D01*
X121777718Y-76034602D01*
X121809153Y-76095106D01*
X121811871Y-76098499D01*
X121813914Y-76102320D01*
X121857045Y-76154875D01*
X121899686Y-76208091D01*
X121903013Y-76210887D01*
X121905763Y-76214238D01*
X121958327Y-76257376D01*
X122010522Y-76301244D01*
X122014331Y-76303337D01*
X122017681Y-76306087D01*
X122077680Y-76338157D01*
X122137402Y-76370983D01*
X122141542Y-76372292D01*
X122145368Y-76374337D01*
X122210512Y-76394098D01*
X122275448Y-76414629D01*
X122279762Y-76415105D01*
X122283916Y-76416365D01*
X122351703Y-76423041D01*
X122419358Y-76430505D01*
X122459790Y-76427000D01*
X134168572Y-76426999D01*
X134168572Y-79482500D01*
X145231429Y-79482500D01*
X145231429Y-76426999D01*
X156940198Y-76426998D01*
X156980641Y-76430504D01*
X157048364Y-76423033D01*
X157116085Y-76416363D01*
X157120235Y-76415104D01*
X157124551Y-76414628D01*
X157189493Y-76394095D01*
X157254633Y-76374335D01*
X157258460Y-76372289D01*
X157262598Y-76370981D01*
X157322268Y-76338183D01*
X157382320Y-76306085D01*
X157385674Y-76303332D01*
X157389477Y-76301242D01*
X157441613Y-76257424D01*
X157494238Y-76214236D01*
X157496990Y-76210883D01*
X157500313Y-76208090D01*
X157542889Y-76154954D01*
X157586087Y-76102318D01*
X157588134Y-76098489D01*
X157590846Y-76095104D01*
X157622223Y-76034712D01*
X157654337Y-75974631D01*
X157666121Y-75935784D01*
X160769885Y-68187410D01*
X160835394Y-68050682D01*
X160897530Y-67967623D01*
X160974611Y-67898219D01*
X161063711Y-67845105D01*
X161161424Y-67810311D01*
X161290853Y-67791199D01*
X161298994Y-67791000D01*
X171205597Y-67791000D01*
X171018536Y-67978061D01*
X170653561Y-68524285D01*
X170402162Y-69131216D01*
X170274000Y-69775531D01*
X170274000Y-70432469D01*
X170402162Y-71076784D01*
X170653561Y-71683715D01*
X171018536Y-72229939D01*
X171483061Y-72694464D01*
X172029285Y-73059439D01*
X172636216Y-73310838D01*
X173280531Y-73439000D01*
X173937469Y-73439000D01*
X174581784Y-73310838D01*
X175188715Y-73059439D01*
X175734939Y-72694464D01*
X175890000Y-72539403D01*
X175890001Y-94070885D01*
X175886444Y-94107000D01*
X175900635Y-94251085D01*
X175942663Y-94389633D01*
X175999389Y-94495760D01*
X176024164Y-94620312D01*
X176091179Y-94782099D01*
X176106815Y-94805500D01*
X176091179Y-94828901D01*
X176024164Y-94990688D01*
X175990000Y-95162441D01*
X175990000Y-95337559D01*
X176024164Y-95509312D01*
X176091179Y-95671099D01*
X176106815Y-95694500D01*
X176091179Y-95717901D01*
X176024164Y-95879688D01*
X175990000Y-96051441D01*
X175990000Y-96226559D01*
X176024164Y-96398312D01*
X176091179Y-96560099D01*
X176106815Y-96583500D01*
X176091179Y-96606901D01*
X176024164Y-96768688D01*
X175990000Y-96940441D01*
X175990000Y-97115559D01*
X176024164Y-97287312D01*
X176091179Y-97449099D01*
X176106815Y-97472500D01*
X176091179Y-97495901D01*
X176024164Y-97657688D01*
X175999389Y-97782240D01*
X175942663Y-97888367D01*
X175900635Y-98026915D01*
X175886444Y-98171000D01*
X175890000Y-98207105D01*
X175890001Y-129249885D01*
X175886444Y-129286000D01*
X175900635Y-129430085D01*
X175942663Y-129568633D01*
X175999389Y-129674760D01*
X176024164Y-129799312D01*
X176091179Y-129961099D01*
X176106815Y-129984500D01*
X176091179Y-130007901D01*
X176024164Y-130169688D01*
X175990000Y-130341441D01*
X175990000Y-130516559D01*
X176024164Y-130688312D01*
X176091179Y-130850099D01*
X176106815Y-130873500D01*
X176091179Y-130896901D01*
X176024164Y-131058688D01*
X175990000Y-131230441D01*
X175990000Y-131405559D01*
X176024164Y-131577312D01*
X176091179Y-131739099D01*
X176106815Y-131762500D01*
X176091179Y-131785901D01*
X176024164Y-131947688D01*
X175990000Y-132119441D01*
X175990000Y-132294559D01*
X176024164Y-132466312D01*
X176091179Y-132628099D01*
X176106815Y-132651500D01*
X176091179Y-132674901D01*
X176024164Y-132836688D01*
X175999389Y-132961240D01*
X175942663Y-133067367D01*
X175900635Y-133205915D01*
X175886444Y-133350000D01*
X175890000Y-133386105D01*
X175890001Y-140180069D01*
X175819278Y-141109801D01*
X175615064Y-141990843D01*
X175279930Y-142830861D01*
X174821590Y-143610524D01*
X174250591Y-144311886D01*
X173576942Y-144921643D01*
X172940009Y-145352970D01*
X159587013Y-152305152D01*
X159670837Y-152102783D01*
X159798999Y-151458469D01*
X159798999Y-150801531D01*
X159670837Y-150157217D01*
X159419438Y-149550285D01*
X159054463Y-149004062D01*
X158589938Y-148539537D01*
X158043715Y-148174562D01*
X157436783Y-147923163D01*
X156792469Y-147795001D01*
X156135531Y-147795001D01*
X155491217Y-147923163D01*
X154884285Y-148174562D01*
X154338062Y-148539537D01*
X153873537Y-149004062D01*
X153508562Y-149550285D01*
X153257163Y-150157217D01*
X153129001Y-150801531D01*
X153129001Y-151458469D01*
X153257163Y-152102783D01*
X153508562Y-152709715D01*
X153873537Y-153255938D01*
X154108499Y-153490900D01*
X108146501Y-153490900D01*
X108381463Y-153255938D01*
X108746438Y-152709715D01*
X108997837Y-152102783D01*
X109125999Y-151458469D01*
X109125999Y-150801531D01*
X108997837Y-150157217D01*
X108803944Y-149689117D01*
X129075000Y-149689117D01*
X129075000Y-150030883D01*
X129141675Y-150366081D01*
X129272463Y-150681831D01*
X129462337Y-150965998D01*
X129704002Y-151207663D01*
X129988169Y-151397537D01*
X130303919Y-151528325D01*
X130639117Y-151595000D01*
X130980883Y-151595000D01*
X131316081Y-151528325D01*
X131631831Y-151397537D01*
X131915998Y-151207663D01*
X132157663Y-150965998D01*
X132347537Y-150681831D01*
X132478325Y-150366081D01*
X132545000Y-150030883D01*
X132545000Y-149689117D01*
X140095977Y-149689117D01*
X140095977Y-150030883D01*
X140162652Y-150366081D01*
X140293440Y-150681831D01*
X140483314Y-150965998D01*
X140724979Y-151207663D01*
X141009146Y-151397537D01*
X141324896Y-151528325D01*
X141660094Y-151595000D01*
X142001860Y-151595000D01*
X142337058Y-151528325D01*
X142652808Y-151397537D01*
X142936975Y-151207663D01*
X143178640Y-150965998D01*
X143368514Y-150681831D01*
X143499302Y-150366081D01*
X143565977Y-150030883D01*
X143565977Y-149689117D01*
X143499302Y-149353919D01*
X143368514Y-149038169D01*
X143178640Y-148754002D01*
X142936975Y-148512337D01*
X142652808Y-148322463D01*
X142337058Y-148191675D01*
X142001860Y-148125000D01*
X141660094Y-148125000D01*
X141324896Y-148191675D01*
X141009146Y-148322463D01*
X140724979Y-148512337D01*
X140483314Y-148754002D01*
X140293440Y-149038169D01*
X140162652Y-149353919D01*
X140095977Y-149689117D01*
X132545000Y-149689117D01*
X132478325Y-149353919D01*
X132347537Y-149038169D01*
X132157663Y-148754002D01*
X131915998Y-148512337D01*
X131631831Y-148322463D01*
X131316081Y-148191675D01*
X130980883Y-148125000D01*
X130639117Y-148125000D01*
X130303919Y-148191675D01*
X129988169Y-148322463D01*
X129704002Y-148512337D01*
X129462337Y-148754002D01*
X129272463Y-149038169D01*
X129141675Y-149353919D01*
X129075000Y-149689117D01*
X108803944Y-149689117D01*
X108746438Y-149550285D01*
X108381463Y-149004062D01*
X107916938Y-148539537D01*
X107370715Y-148174562D01*
X106763783Y-147923163D01*
X106119469Y-147795001D01*
X105462531Y-147795001D01*
X104818217Y-147923163D01*
X104211285Y-148174562D01*
X103665062Y-148539537D01*
X103510000Y-148694599D01*
X103510000Y-145014740D01*
X107989000Y-145014740D01*
X107989000Y-145307260D01*
X108046068Y-145594158D01*
X108158010Y-145864411D01*
X108320525Y-146107632D01*
X108527368Y-146314475D01*
X108770589Y-146476990D01*
X109040842Y-146588932D01*
X109327740Y-146646000D01*
X109620260Y-146646000D01*
X109907158Y-146588932D01*
X110177411Y-146476990D01*
X110420632Y-146314475D01*
X110545710Y-146189397D01*
X111165208Y-146189397D01*
X111242843Y-146438472D01*
X111506883Y-146564371D01*
X111790411Y-146636339D01*
X112082531Y-146651611D01*
X112372019Y-146609599D01*
X112647747Y-146511919D01*
X112785157Y-146438472D01*
X112862792Y-146189397D01*
X113705208Y-146189397D01*
X113782843Y-146438472D01*
X114046883Y-146564371D01*
X114330411Y-146636339D01*
X114622531Y-146651611D01*
X114912019Y-146609599D01*
X115187747Y-146511919D01*
X115325157Y-146438472D01*
X115402792Y-146189397D01*
X114554000Y-145340605D01*
X113705208Y-146189397D01*
X112862792Y-146189397D01*
X112014000Y-145340605D01*
X111165208Y-146189397D01*
X110545710Y-146189397D01*
X110627475Y-146107632D01*
X110743311Y-145934271D01*
X110985603Y-146009792D01*
X111834395Y-145161000D01*
X112193605Y-145161000D01*
X113042397Y-146009792D01*
X113284000Y-145934486D01*
X113525603Y-146009792D01*
X114374395Y-145161000D01*
X114733605Y-145161000D01*
X115582397Y-146009792D01*
X115824689Y-145934271D01*
X115940525Y-146107632D01*
X116147368Y-146314475D01*
X116390589Y-146476990D01*
X116660842Y-146588932D01*
X116947740Y-146646000D01*
X117240260Y-146646000D01*
X117527158Y-146588932D01*
X117797411Y-146476990D01*
X118040632Y-146314475D01*
X118247475Y-146107632D01*
X118366632Y-145929300D01*
X135449744Y-145929300D01*
X135472807Y-146052239D01*
X135519411Y-146168317D01*
X136535258Y-148119740D01*
X136603613Y-148224495D01*
X136691090Y-148313903D01*
X136794330Y-148384526D01*
X136909363Y-148433651D01*
X137031770Y-148459391D01*
X137156847Y-148460755D01*
X137279786Y-148437692D01*
X137395864Y-148391088D01*
X139347287Y-147375241D01*
X139452042Y-147306886D01*
X139541450Y-147219409D01*
X139612073Y-147116169D01*
X139661198Y-147001136D01*
X139686938Y-146878729D01*
X139688302Y-146753652D01*
X139665239Y-146630713D01*
X139618635Y-146514635D01*
X139313929Y-145929300D01*
X146470721Y-145929300D01*
X146493784Y-146052239D01*
X146540388Y-146168317D01*
X147556235Y-148119740D01*
X147624590Y-148224495D01*
X147712067Y-148313903D01*
X147815307Y-148384526D01*
X147930340Y-148433651D01*
X148052747Y-148459391D01*
X148177824Y-148460755D01*
X148300763Y-148437692D01*
X148416841Y-148391088D01*
X150368264Y-147375241D01*
X150473019Y-147306886D01*
X150562427Y-147219409D01*
X150633050Y-147116169D01*
X150682175Y-147001136D01*
X150707915Y-146878729D01*
X150709279Y-146753652D01*
X150686216Y-146630713D01*
X150639612Y-146514635D01*
X149623765Y-144563212D01*
X149555410Y-144458457D01*
X149467933Y-144369049D01*
X149364693Y-144298426D01*
X149249660Y-144249301D01*
X149127253Y-144223561D01*
X149002176Y-144222197D01*
X148879237Y-144245260D01*
X148763159Y-144291864D01*
X146811736Y-145307711D01*
X146706981Y-145376066D01*
X146617573Y-145463543D01*
X146546950Y-145566783D01*
X146497825Y-145681816D01*
X146472085Y-145804223D01*
X146470721Y-145929300D01*
X139313929Y-145929300D01*
X138602788Y-144563212D01*
X138534433Y-144458457D01*
X138446956Y-144369049D01*
X138343716Y-144298426D01*
X138228683Y-144249301D01*
X138106276Y-144223561D01*
X137981199Y-144222197D01*
X137858260Y-144245260D01*
X137742182Y-144291864D01*
X135790759Y-145307711D01*
X135686004Y-145376066D01*
X135596596Y-145463543D01*
X135525973Y-145566783D01*
X135476848Y-145681816D01*
X135451108Y-145804223D01*
X135449744Y-145929300D01*
X118366632Y-145929300D01*
X118409990Y-145864411D01*
X118521932Y-145594158D01*
X118579000Y-145307260D01*
X118579000Y-145014740D01*
X118521932Y-144727842D01*
X118466250Y-144593413D01*
X119730192Y-144593413D01*
X119825956Y-144857814D01*
X120115571Y-144998704D01*
X120427108Y-145080384D01*
X120748595Y-145099718D01*
X121067675Y-145055961D01*
X121372088Y-144950795D01*
X121546044Y-144857814D01*
X121641808Y-144593413D01*
X120686000Y-143637605D01*
X119730192Y-144593413D01*
X118466250Y-144593413D01*
X118409990Y-144457589D01*
X118247475Y-144214368D01*
X118040632Y-144007525D01*
X117797411Y-143845010D01*
X117527158Y-143733068D01*
X117240260Y-143676000D01*
X116947740Y-143676000D01*
X116660842Y-143733068D01*
X116390589Y-143845010D01*
X116147368Y-144007525D01*
X115940525Y-144214368D01*
X115824689Y-144387729D01*
X115582397Y-144312208D01*
X114733605Y-145161000D01*
X114374395Y-145161000D01*
X113525603Y-144312208D01*
X113284000Y-144387514D01*
X113042397Y-144312208D01*
X112193605Y-145161000D01*
X111834395Y-145161000D01*
X110985603Y-144312208D01*
X110743311Y-144387729D01*
X110627475Y-144214368D01*
X110545710Y-144132603D01*
X111165208Y-144132603D01*
X112014000Y-144981395D01*
X112862792Y-144132603D01*
X113705208Y-144132603D01*
X114554000Y-144981395D01*
X115402792Y-144132603D01*
X115325157Y-143883528D01*
X115061117Y-143757629D01*
X114777589Y-143685661D01*
X114485469Y-143670389D01*
X114195981Y-143712401D01*
X113920253Y-143810081D01*
X113782843Y-143883528D01*
X113705208Y-144132603D01*
X112862792Y-144132603D01*
X112785157Y-143883528D01*
X112521117Y-143757629D01*
X112237589Y-143685661D01*
X111945469Y-143670389D01*
X111655981Y-143712401D01*
X111380253Y-143810081D01*
X111242843Y-143883528D01*
X111165208Y-144132603D01*
X110545710Y-144132603D01*
X110420632Y-144007525D01*
X110177411Y-143845010D01*
X109907158Y-143733068D01*
X109620260Y-143676000D01*
X109327740Y-143676000D01*
X109040842Y-143733068D01*
X108770589Y-143845010D01*
X108527368Y-144007525D01*
X108320525Y-144214368D01*
X108158010Y-144457589D01*
X108046068Y-144727842D01*
X107989000Y-145014740D01*
X103510000Y-145014740D01*
X103510000Y-143520595D01*
X119044282Y-143520595D01*
X119088039Y-143839675D01*
X119193205Y-144144088D01*
X119286186Y-144318044D01*
X119550587Y-144413808D01*
X120506395Y-143458000D01*
X120865605Y-143458000D01*
X121821413Y-144413808D01*
X122085814Y-144318044D01*
X122226704Y-144028429D01*
X122308384Y-143716892D01*
X122327718Y-143395405D01*
X122314219Y-143296967D01*
X123551000Y-143296967D01*
X123551000Y-143619033D01*
X123613832Y-143934912D01*
X123737082Y-144232463D01*
X123916013Y-144500252D01*
X124143748Y-144727987D01*
X124411537Y-144906918D01*
X124709088Y-145030168D01*
X125024967Y-145093000D01*
X125347033Y-145093000D01*
X125662912Y-145030168D01*
X125960463Y-144906918D01*
X126228252Y-144727987D01*
X126455987Y-144500252D01*
X126634918Y-144232463D01*
X126758168Y-143934912D01*
X126821000Y-143619033D01*
X126821000Y-143296967D01*
X126758168Y-142981088D01*
X126634918Y-142683537D01*
X126455987Y-142415748D01*
X126228252Y-142188013D01*
X125960463Y-142009082D01*
X125662912Y-141885832D01*
X125347033Y-141823000D01*
X125024967Y-141823000D01*
X124709088Y-141885832D01*
X124411537Y-142009082D01*
X124143748Y-142188013D01*
X123916013Y-142415748D01*
X123737082Y-142683537D01*
X123613832Y-142981088D01*
X123551000Y-143296967D01*
X122314219Y-143296967D01*
X122283961Y-143076325D01*
X122178795Y-142771912D01*
X122085814Y-142597956D01*
X121821413Y-142502192D01*
X120865605Y-143458000D01*
X120506395Y-143458000D01*
X119550587Y-142502192D01*
X119286186Y-142597956D01*
X119145296Y-142887571D01*
X119063616Y-143199108D01*
X119044282Y-143520595D01*
X103510000Y-143520595D01*
X103510000Y-142322587D01*
X119730192Y-142322587D01*
X120686000Y-143278395D01*
X121641808Y-142322587D01*
X121546044Y-142058186D01*
X121256429Y-141917296D01*
X120944892Y-141835616D01*
X120623405Y-141816282D01*
X120304325Y-141860039D01*
X119999912Y-141965205D01*
X119825956Y-142058186D01*
X119730192Y-142322587D01*
X103510000Y-142322587D01*
X103510000Y-140059278D01*
X165916000Y-140059278D01*
X165916000Y-140356722D01*
X165974029Y-140648451D01*
X166087856Y-140923253D01*
X166253107Y-141170569D01*
X166463431Y-141380893D01*
X166710747Y-141546144D01*
X166985549Y-141659971D01*
X167277278Y-141718000D01*
X167574722Y-141718000D01*
X167866451Y-141659971D01*
X168141253Y-141546144D01*
X168388569Y-141380893D01*
X168598893Y-141170569D01*
X168764144Y-140923253D01*
X168877971Y-140648451D01*
X168936000Y-140356722D01*
X168936000Y-140059278D01*
X170916000Y-140059278D01*
X170916000Y-140356722D01*
X170974029Y-140648451D01*
X171087856Y-140923253D01*
X171253107Y-141170569D01*
X171463431Y-141380893D01*
X171710747Y-141546144D01*
X171985549Y-141659971D01*
X172277278Y-141718000D01*
X172574722Y-141718000D01*
X172866451Y-141659971D01*
X173141253Y-141546144D01*
X173388569Y-141380893D01*
X173598893Y-141170569D01*
X173764144Y-140923253D01*
X173877971Y-140648451D01*
X173936000Y-140356722D01*
X173936000Y-140059278D01*
X173877971Y-139767549D01*
X173764144Y-139492747D01*
X173598893Y-139245431D01*
X173388569Y-139035107D01*
X173141253Y-138869856D01*
X172866451Y-138756029D01*
X172574722Y-138698000D01*
X172277278Y-138698000D01*
X171985549Y-138756029D01*
X171710747Y-138869856D01*
X171463431Y-139035107D01*
X171253107Y-139245431D01*
X171087856Y-139492747D01*
X170974029Y-139767549D01*
X170916000Y-140059278D01*
X168936000Y-140059278D01*
X168877971Y-139767549D01*
X168764144Y-139492747D01*
X168598893Y-139245431D01*
X168388569Y-139035107D01*
X168141253Y-138869856D01*
X167866451Y-138756029D01*
X167574722Y-138698000D01*
X167277278Y-138698000D01*
X166985549Y-138756029D01*
X166710747Y-138869856D01*
X166463431Y-139035107D01*
X166253107Y-139245431D01*
X166087856Y-139492747D01*
X165974029Y-139767549D01*
X165916000Y-140059278D01*
X103510000Y-140059278D01*
X103510000Y-138093413D01*
X119730192Y-138093413D01*
X119825956Y-138357814D01*
X120115571Y-138498704D01*
X120427108Y-138580384D01*
X120748595Y-138599718D01*
X121067675Y-138555961D01*
X121372088Y-138450795D01*
X121546044Y-138357814D01*
X121641808Y-138093413D01*
X120686000Y-137137605D01*
X119730192Y-138093413D01*
X103510000Y-138093413D01*
X103510000Y-136184967D01*
X111939000Y-136184967D01*
X111939000Y-136507033D01*
X112001832Y-136822912D01*
X112125082Y-137120463D01*
X112304013Y-137388252D01*
X112531748Y-137615987D01*
X112799537Y-137794918D01*
X113097088Y-137918168D01*
X113412967Y-137981000D01*
X113735033Y-137981000D01*
X114050912Y-137918168D01*
X114348463Y-137794918D01*
X114616252Y-137615987D01*
X114750826Y-137481413D01*
X117118192Y-137481413D01*
X117213956Y-137745814D01*
X117503571Y-137886704D01*
X117815108Y-137968384D01*
X118136595Y-137987718D01*
X118455675Y-137943961D01*
X118760088Y-137838795D01*
X118934044Y-137745814D01*
X119029807Y-137481415D01*
X119145475Y-137597083D01*
X119168880Y-137573678D01*
X119193205Y-137644088D01*
X119286186Y-137818044D01*
X119550587Y-137913808D01*
X120506395Y-136958000D01*
X120865605Y-136958000D01*
X121821413Y-137913808D01*
X122085814Y-137818044D01*
X122226704Y-137528429D01*
X122308384Y-137216892D01*
X122327718Y-136895405D01*
X122283961Y-136576325D01*
X122178795Y-136271912D01*
X122085814Y-136097956D01*
X121821413Y-136002192D01*
X120865605Y-136958000D01*
X120506395Y-136958000D01*
X120492253Y-136943858D01*
X120671858Y-136764253D01*
X120686000Y-136778395D01*
X121641808Y-135822587D01*
X121546044Y-135558186D01*
X121256429Y-135417296D01*
X120944892Y-135335616D01*
X120623405Y-135316282D01*
X120304325Y-135360039D01*
X119999912Y-135465205D01*
X119825956Y-135558186D01*
X119730193Y-135822585D01*
X119614525Y-135706917D01*
X119591120Y-135730322D01*
X119566795Y-135659912D01*
X119473814Y-135485956D01*
X119209413Y-135390192D01*
X118253605Y-136346000D01*
X118267748Y-136360143D01*
X118088143Y-136539748D01*
X118074000Y-136525605D01*
X117118192Y-137481413D01*
X114750826Y-137481413D01*
X114843987Y-137388252D01*
X115022918Y-137120463D01*
X115146168Y-136822912D01*
X115209000Y-136507033D01*
X115209000Y-136408595D01*
X116432282Y-136408595D01*
X116476039Y-136727675D01*
X116581205Y-137032088D01*
X116674186Y-137206044D01*
X116938587Y-137301808D01*
X117894395Y-136346000D01*
X116938587Y-135390192D01*
X116674186Y-135485956D01*
X116533296Y-135775571D01*
X116451616Y-136087108D01*
X116432282Y-136408595D01*
X115209000Y-136408595D01*
X115209000Y-136184967D01*
X115146168Y-135869088D01*
X115022918Y-135571537D01*
X114843987Y-135303748D01*
X114750826Y-135210587D01*
X117118192Y-135210587D01*
X118074000Y-136166395D01*
X119029808Y-135210587D01*
X118934044Y-134946186D01*
X118644429Y-134805296D01*
X118332892Y-134723616D01*
X118011405Y-134704282D01*
X117692325Y-134748039D01*
X117387912Y-134853205D01*
X117213956Y-134946186D01*
X117118192Y-135210587D01*
X114750826Y-135210587D01*
X114616252Y-135076013D01*
X114348463Y-134897082D01*
X114050912Y-134773832D01*
X113735033Y-134711000D01*
X113412967Y-134711000D01*
X113097088Y-134773832D01*
X112799537Y-134897082D01*
X112531748Y-135076013D01*
X112304013Y-135303748D01*
X112125082Y-135571537D01*
X112001832Y-135869088D01*
X111939000Y-136184967D01*
X103510000Y-136184967D01*
X103510000Y-133386105D01*
X103513556Y-133350000D01*
X103499365Y-133205915D01*
X103457337Y-133067367D01*
X103400611Y-132961240D01*
X103375836Y-132836688D01*
X103370059Y-132822740D01*
X106211000Y-132822740D01*
X106211000Y-133115260D01*
X106268068Y-133402158D01*
X106380010Y-133672411D01*
X106542525Y-133915632D01*
X106749368Y-134122475D01*
X106992589Y-134284990D01*
X107262842Y-134396932D01*
X107549740Y-134454000D01*
X107842260Y-134454000D01*
X108129158Y-134396932D01*
X108399411Y-134284990D01*
X108642632Y-134122475D01*
X108849475Y-133915632D01*
X109011990Y-133672411D01*
X109123932Y-133402158D01*
X109181000Y-133115260D01*
X109181000Y-132822740D01*
X109123932Y-132535842D01*
X109011990Y-132265589D01*
X108849475Y-132022368D01*
X108642632Y-131815525D01*
X108399411Y-131653010D01*
X108129158Y-131541068D01*
X107842260Y-131484000D01*
X107549740Y-131484000D01*
X107262842Y-131541068D01*
X106992589Y-131653010D01*
X106749368Y-131815525D01*
X106542525Y-132022368D01*
X106380010Y-132265589D01*
X106268068Y-132535842D01*
X106211000Y-132822740D01*
X103370059Y-132822740D01*
X103308821Y-132674901D01*
X103293185Y-132651500D01*
X103308821Y-132628099D01*
X103375836Y-132466312D01*
X103410000Y-132294559D01*
X103410000Y-132119441D01*
X103375836Y-131947688D01*
X103308821Y-131785901D01*
X103293185Y-131762500D01*
X103308821Y-131739099D01*
X103375836Y-131577312D01*
X103410000Y-131405559D01*
X103410000Y-131230441D01*
X103375836Y-131058688D01*
X103308821Y-130896901D01*
X103293185Y-130873500D01*
X103308821Y-130850099D01*
X103375836Y-130688312D01*
X103410000Y-130516559D01*
X103410000Y-130341441D01*
X103375836Y-130169688D01*
X103308821Y-130007901D01*
X103293185Y-129984500D01*
X103308821Y-129961099D01*
X103375836Y-129799312D01*
X103398580Y-129684967D01*
X111939000Y-129684967D01*
X111939000Y-130007033D01*
X112001832Y-130322912D01*
X112125082Y-130620463D01*
X112304013Y-130888252D01*
X112531748Y-131115987D01*
X112799537Y-131294918D01*
X113097088Y-131418168D01*
X113412967Y-131481000D01*
X113735033Y-131481000D01*
X114050912Y-131418168D01*
X114348463Y-131294918D01*
X114616252Y-131115987D01*
X114750826Y-130981413D01*
X117118192Y-130981413D01*
X117213956Y-131245814D01*
X117503571Y-131386704D01*
X117815108Y-131468384D01*
X118136595Y-131487718D01*
X118455675Y-131443961D01*
X118760088Y-131338795D01*
X118934044Y-131245814D01*
X119029808Y-130981413D01*
X118074000Y-130025605D01*
X117118192Y-130981413D01*
X114750826Y-130981413D01*
X114843987Y-130888252D01*
X115022918Y-130620463D01*
X115146168Y-130322912D01*
X115209000Y-130007033D01*
X115209000Y-129908595D01*
X116432282Y-129908595D01*
X116476039Y-130227675D01*
X116581205Y-130532088D01*
X116674186Y-130706044D01*
X116938587Y-130801808D01*
X117894395Y-129846000D01*
X116938587Y-128890192D01*
X116674186Y-128985956D01*
X116533296Y-129275571D01*
X116451616Y-129587108D01*
X116432282Y-129908595D01*
X115209000Y-129908595D01*
X115209000Y-129684967D01*
X115146168Y-129369088D01*
X115141006Y-129356625D01*
X115574353Y-128923278D01*
X115603422Y-128899422D01*
X115644417Y-128849469D01*
X115698645Y-128783393D01*
X115751149Y-128685164D01*
X115769402Y-128651015D01*
X115812974Y-128507378D01*
X115824000Y-128395426D01*
X115824000Y-128395423D01*
X115827686Y-128358000D01*
X115824000Y-128320577D01*
X115824000Y-107222542D01*
X115890586Y-107122889D01*
X115961068Y-106952729D01*
X115997000Y-106772089D01*
X115997000Y-106587911D01*
X115961068Y-106407271D01*
X115890586Y-106237111D01*
X115788262Y-106083972D01*
X115658028Y-105953738D01*
X115504889Y-105851414D01*
X115334729Y-105780932D01*
X115154089Y-105745000D01*
X114969911Y-105745000D01*
X114789271Y-105780932D01*
X114619111Y-105851414D01*
X114465972Y-105953738D01*
X114335738Y-106083972D01*
X114233414Y-106237111D01*
X114162932Y-106407271D01*
X114127000Y-106587911D01*
X114127000Y-106772089D01*
X114162932Y-106952729D01*
X114233414Y-107122889D01*
X114300001Y-107222544D01*
X114300000Y-128042369D01*
X114063375Y-128278994D01*
X114050912Y-128273832D01*
X113735033Y-128211000D01*
X113412967Y-128211000D01*
X113097088Y-128273832D01*
X112799537Y-128397082D01*
X112531748Y-128576013D01*
X112304013Y-128803748D01*
X112125082Y-129071537D01*
X112001832Y-129369088D01*
X111939000Y-129684967D01*
X103398580Y-129684967D01*
X103400611Y-129674760D01*
X103457337Y-129568633D01*
X103499365Y-129430085D01*
X103513556Y-129286000D01*
X103510000Y-129249895D01*
X103510000Y-120175278D01*
X105170000Y-120175278D01*
X105170000Y-120472722D01*
X105228029Y-120764451D01*
X105341856Y-121039253D01*
X105507107Y-121286569D01*
X105717431Y-121496893D01*
X105964747Y-121662144D01*
X106239549Y-121775971D01*
X106531278Y-121834000D01*
X106828722Y-121834000D01*
X107120451Y-121775971D01*
X107395253Y-121662144D01*
X107485000Y-121602177D01*
X107485000Y-121749958D01*
X107549754Y-122075496D01*
X107676772Y-122382147D01*
X107861175Y-122658125D01*
X108095875Y-122892825D01*
X108371853Y-123077228D01*
X108678504Y-123204246D01*
X109004042Y-123269000D01*
X109335958Y-123269000D01*
X109661496Y-123204246D01*
X109968147Y-123077228D01*
X110244125Y-122892825D01*
X110478825Y-122658125D01*
X110663228Y-122382147D01*
X110790246Y-122075496D01*
X110849289Y-121778665D01*
X111341000Y-121778665D01*
X111341000Y-122061335D01*
X111396147Y-122338574D01*
X111504320Y-122599727D01*
X111661363Y-122834759D01*
X111861241Y-123034637D01*
X112096273Y-123191680D01*
X112357426Y-123299853D01*
X112634665Y-123355000D01*
X112917335Y-123355000D01*
X113194574Y-123299853D01*
X113455727Y-123191680D01*
X113690759Y-123034637D01*
X113890637Y-122834759D01*
X114047680Y-122599727D01*
X114155853Y-122338574D01*
X114211000Y-122061335D01*
X114211000Y-121778665D01*
X114155853Y-121501426D01*
X114047680Y-121240273D01*
X113890637Y-121005241D01*
X113690759Y-120805363D01*
X113455727Y-120648320D01*
X113194574Y-120540147D01*
X112917335Y-120485000D01*
X112634665Y-120485000D01*
X112357426Y-120540147D01*
X112096273Y-120648320D01*
X111861241Y-120805363D01*
X111661363Y-121005241D01*
X111504320Y-121240273D01*
X111396147Y-121501426D01*
X111341000Y-121778665D01*
X110849289Y-121778665D01*
X110855000Y-121749958D01*
X110855000Y-121418042D01*
X110790246Y-121092504D01*
X110663228Y-120785853D01*
X110478825Y-120509875D01*
X110244125Y-120275175D01*
X109968147Y-120090772D01*
X109661496Y-119963754D01*
X109335958Y-119899000D01*
X109004042Y-119899000D01*
X108678504Y-119963754D01*
X108371853Y-120090772D01*
X108190000Y-120212283D01*
X108190000Y-120175278D01*
X108131971Y-119883549D01*
X108018144Y-119608747D01*
X107852893Y-119361431D01*
X107642569Y-119151107D01*
X107395253Y-118985856D01*
X107120451Y-118872029D01*
X106828722Y-118814000D01*
X106531278Y-118814000D01*
X106239549Y-118872029D01*
X105964747Y-118985856D01*
X105717431Y-119151107D01*
X105507107Y-119361431D01*
X105341856Y-119608747D01*
X105228029Y-119883549D01*
X105170000Y-120175278D01*
X103510000Y-120175278D01*
X103510000Y-116870240D01*
X105813365Y-116870240D01*
X105894025Y-117121868D01*
X106162329Y-117250267D01*
X106450526Y-117323855D01*
X106747543Y-117339804D01*
X107041963Y-117297501D01*
X107322474Y-117198572D01*
X107465975Y-117121868D01*
X107546635Y-116870240D01*
X106680000Y-116003605D01*
X105813365Y-116870240D01*
X103510000Y-116870240D01*
X103510000Y-115891543D01*
X105164196Y-115891543D01*
X105206499Y-116185963D01*
X105305428Y-116466474D01*
X105382132Y-116609975D01*
X105633760Y-116690635D01*
X106500395Y-115824000D01*
X105633760Y-114957365D01*
X105382132Y-115038025D01*
X105253733Y-115306329D01*
X105180145Y-115594526D01*
X105164196Y-115891543D01*
X103510000Y-115891543D01*
X103510000Y-114777760D01*
X105813365Y-114777760D01*
X106680000Y-115644395D01*
X106694143Y-115630253D01*
X106873748Y-115809858D01*
X106859605Y-115824000D01*
X107726240Y-116690635D01*
X107977868Y-116609975D01*
X108106267Y-116341671D01*
X108179855Y-116053474D01*
X108185792Y-115942906D01*
X108371853Y-116067228D01*
X108678504Y-116194246D01*
X109004042Y-116259000D01*
X109335958Y-116259000D01*
X109661496Y-116194246D01*
X109968147Y-116067228D01*
X110244125Y-115882825D01*
X110478825Y-115648125D01*
X110663228Y-115372147D01*
X110790246Y-115065496D01*
X110855000Y-114739958D01*
X110855000Y-114408042D01*
X110805396Y-114158665D01*
X111341000Y-114158665D01*
X111341000Y-114441335D01*
X111396147Y-114718574D01*
X111504320Y-114979727D01*
X111661363Y-115214759D01*
X111861241Y-115414637D01*
X112096273Y-115571680D01*
X112357426Y-115679853D01*
X112634665Y-115735000D01*
X112917335Y-115735000D01*
X113194574Y-115679853D01*
X113455727Y-115571680D01*
X113690759Y-115414637D01*
X113890637Y-115214759D01*
X114047680Y-114979727D01*
X114155853Y-114718574D01*
X114211000Y-114441335D01*
X114211000Y-114158665D01*
X114155853Y-113881426D01*
X114047680Y-113620273D01*
X113890637Y-113385241D01*
X113690759Y-113185363D01*
X113455727Y-113028320D01*
X113194574Y-112920147D01*
X112917335Y-112865000D01*
X112634665Y-112865000D01*
X112357426Y-112920147D01*
X112096273Y-113028320D01*
X111861241Y-113185363D01*
X111661363Y-113385241D01*
X111504320Y-113620273D01*
X111396147Y-113881426D01*
X111341000Y-114158665D01*
X110805396Y-114158665D01*
X110790246Y-114082504D01*
X110663228Y-113775853D01*
X110478825Y-113499875D01*
X110244125Y-113265175D01*
X109968147Y-113080772D01*
X109661496Y-112953754D01*
X109335958Y-112889000D01*
X109004042Y-112889000D01*
X108678504Y-112953754D01*
X108371853Y-113080772D01*
X108095875Y-113265175D01*
X107861175Y-113499875D01*
X107676772Y-113775853D01*
X107549754Y-114082504D01*
X107485000Y-114408042D01*
X107485000Y-114585483D01*
X107465975Y-114526132D01*
X107197671Y-114397733D01*
X106909474Y-114324145D01*
X106612457Y-114308196D01*
X106318037Y-114350499D01*
X106037526Y-114449428D01*
X105894025Y-114526132D01*
X105813365Y-114777760D01*
X103510000Y-114777760D01*
X103510000Y-103644397D01*
X105351208Y-103644397D01*
X105428843Y-103893472D01*
X105692883Y-104019371D01*
X105976411Y-104091339D01*
X106268531Y-104106611D01*
X106558019Y-104064599D01*
X106833747Y-103966919D01*
X106971157Y-103893472D01*
X107048792Y-103644397D01*
X106200000Y-102795605D01*
X105351208Y-103644397D01*
X103510000Y-103644397D01*
X103510000Y-102684531D01*
X104709389Y-102684531D01*
X104751401Y-102974019D01*
X104849081Y-103249747D01*
X104922528Y-103387157D01*
X105171603Y-103464792D01*
X106020395Y-102616000D01*
X105171603Y-101767208D01*
X104922528Y-101844843D01*
X104796629Y-102108883D01*
X104724661Y-102392411D01*
X104709389Y-102684531D01*
X103510000Y-102684531D01*
X103510000Y-98207105D01*
X103513556Y-98171000D01*
X103499365Y-98026915D01*
X103457337Y-97888367D01*
X103400611Y-97782240D01*
X103375836Y-97657688D01*
X103308821Y-97495901D01*
X103293185Y-97472500D01*
X103308821Y-97449099D01*
X103375836Y-97287312D01*
X103410000Y-97115559D01*
X103410000Y-96940441D01*
X103375836Y-96768688D01*
X103308821Y-96606901D01*
X103293185Y-96583500D01*
X103308821Y-96560099D01*
X103375836Y-96398312D01*
X103410000Y-96226559D01*
X103410000Y-96051441D01*
X103375836Y-95879688D01*
X103308821Y-95717901D01*
X103293185Y-95694500D01*
X103308821Y-95671099D01*
X103375836Y-95509312D01*
X103410000Y-95337559D01*
X103410000Y-95162441D01*
X103375836Y-94990688D01*
X103308821Y-94828901D01*
X103293185Y-94805500D01*
X103308821Y-94782099D01*
X103375836Y-94620312D01*
X103400611Y-94495760D01*
X103457337Y-94389633D01*
X103499365Y-94251085D01*
X103513556Y-94107000D01*
X103510000Y-94070895D01*
X103510000Y-87229740D01*
X104715000Y-87229740D01*
X104715000Y-87522260D01*
X104772068Y-87809158D01*
X104884010Y-88079411D01*
X105046525Y-88322632D01*
X105253368Y-88529475D01*
X105427760Y-88646000D01*
X105253368Y-88762525D01*
X105046525Y-88969368D01*
X104884010Y-89212589D01*
X104772068Y-89482842D01*
X104715000Y-89769740D01*
X104715000Y-90062260D01*
X104772068Y-90349158D01*
X104884010Y-90619411D01*
X105046525Y-90862632D01*
X105253368Y-91069475D01*
X105427760Y-91186000D01*
X105253368Y-91302525D01*
X105046525Y-91509368D01*
X104884010Y-91752589D01*
X104772068Y-92022842D01*
X104715000Y-92309740D01*
X104715000Y-92602260D01*
X104772068Y-92889158D01*
X104884010Y-93159411D01*
X105046525Y-93402632D01*
X105253368Y-93609475D01*
X105427760Y-93726000D01*
X105253368Y-93842525D01*
X105046525Y-94049368D01*
X104884010Y-94292589D01*
X104772068Y-94562842D01*
X104715000Y-94849740D01*
X104715000Y-95142260D01*
X104772068Y-95429158D01*
X104884010Y-95699411D01*
X105046525Y-95942632D01*
X105253368Y-96149475D01*
X105427760Y-96266000D01*
X105253368Y-96382525D01*
X105046525Y-96589368D01*
X104884010Y-96832589D01*
X104772068Y-97102842D01*
X104715000Y-97389740D01*
X104715000Y-97682260D01*
X104772068Y-97969158D01*
X104884010Y-98239411D01*
X105046525Y-98482632D01*
X105253368Y-98689475D01*
X105427760Y-98806000D01*
X105253368Y-98922525D01*
X105046525Y-99129368D01*
X104884010Y-99372589D01*
X104772068Y-99642842D01*
X104715000Y-99929740D01*
X104715000Y-100222260D01*
X104772068Y-100509158D01*
X104884010Y-100779411D01*
X105046525Y-101022632D01*
X105253368Y-101229475D01*
X105426729Y-101345311D01*
X105351208Y-101587603D01*
X106200000Y-102436395D01*
X106214143Y-102422253D01*
X106393748Y-102601858D01*
X106379605Y-102616000D01*
X107228397Y-103464792D01*
X107477472Y-103387157D01*
X107603371Y-103123117D01*
X107675339Y-102839589D01*
X107676880Y-102810115D01*
X111887000Y-107020235D01*
X111887000Y-107144964D01*
X111876932Y-107169271D01*
X111841000Y-107349911D01*
X111841000Y-107534089D01*
X111876932Y-107714729D01*
X111947414Y-107884889D01*
X112049738Y-108038028D01*
X112179972Y-108168262D01*
X112333111Y-108270586D01*
X112503271Y-108341068D01*
X112683911Y-108377000D01*
X112868089Y-108377000D01*
X113048729Y-108341068D01*
X113218889Y-108270586D01*
X113372028Y-108168262D01*
X113502262Y-108038028D01*
X113604586Y-107884889D01*
X113675068Y-107714729D01*
X113711000Y-107534089D01*
X113711000Y-107349911D01*
X113675068Y-107169271D01*
X113665000Y-107144964D01*
X113665000Y-106695659D01*
X113669300Y-106651999D01*
X113665000Y-106608339D01*
X113665000Y-106608333D01*
X113652136Y-106477726D01*
X113652136Y-106477724D01*
X113601302Y-106310147D01*
X113583382Y-106276622D01*
X113518753Y-106155709D01*
X113407659Y-106020341D01*
X113373736Y-105992501D01*
X107671477Y-100290242D01*
X107685000Y-100222260D01*
X107685000Y-99929740D01*
X107627932Y-99642842D01*
X107515990Y-99372589D01*
X107353475Y-99129368D01*
X107146632Y-98922525D01*
X106972240Y-98806000D01*
X107146632Y-98689475D01*
X107353475Y-98482632D01*
X107476842Y-98298000D01*
X111190369Y-98298000D01*
X111201219Y-98308850D01*
X111163972Y-98333738D01*
X111033738Y-98463972D01*
X110931414Y-98617111D01*
X110860932Y-98787271D01*
X110825000Y-98967911D01*
X110825000Y-99152089D01*
X110860932Y-99332729D01*
X110931414Y-99502889D01*
X111033738Y-99656028D01*
X111163972Y-99786262D01*
X111317111Y-99888586D01*
X111487271Y-99959068D01*
X111604820Y-99982450D01*
X116281213Y-104658844D01*
X116243956Y-104683738D01*
X116113722Y-104813972D01*
X116011398Y-104967111D01*
X115940916Y-105137271D01*
X115904984Y-105317911D01*
X115904984Y-105502089D01*
X115940916Y-105682729D01*
X116011398Y-105852889D01*
X116077985Y-105952544D01*
X116077984Y-122744075D01*
X116074298Y-122781498D01*
X116077984Y-122818921D01*
X116077984Y-122818923D01*
X116089010Y-122930875D01*
X116132582Y-123074512D01*
X116132583Y-123074513D01*
X116203339Y-123206890D01*
X116217694Y-123224381D01*
X116298562Y-123322920D01*
X116327638Y-123346782D01*
X120579855Y-127599000D01*
X120524967Y-127599000D01*
X120209088Y-127661832D01*
X119911537Y-127785082D01*
X119643748Y-127964013D01*
X119416013Y-128191748D01*
X119237082Y-128459537D01*
X119170599Y-128620041D01*
X119145475Y-128594917D01*
X119029807Y-128710585D01*
X118934044Y-128446186D01*
X118644429Y-128305296D01*
X118332892Y-128223616D01*
X118011405Y-128204282D01*
X117692325Y-128248039D01*
X117387912Y-128353205D01*
X117213956Y-128446186D01*
X117118192Y-128710587D01*
X118074000Y-129666395D01*
X118088143Y-129652253D01*
X118267748Y-129831858D01*
X118253605Y-129846000D01*
X119209413Y-130801808D01*
X119473814Y-130706044D01*
X119595554Y-130455793D01*
X119643748Y-130503987D01*
X119911537Y-130682918D01*
X120209088Y-130806168D01*
X120524967Y-130869000D01*
X120847033Y-130869000D01*
X121162912Y-130806168D01*
X121460463Y-130682918D01*
X121728252Y-130503987D01*
X121955987Y-130276252D01*
X122134918Y-130008463D01*
X122258168Y-129710912D01*
X122321000Y-129395033D01*
X122321000Y-129340145D01*
X124424001Y-131443146D01*
X124424000Y-135503920D01*
X124411537Y-135509082D01*
X124143748Y-135688013D01*
X123916013Y-135915748D01*
X123737082Y-136183537D01*
X123613832Y-136481088D01*
X123551000Y-136796967D01*
X123551000Y-137119033D01*
X123613832Y-137434912D01*
X123737082Y-137732463D01*
X123916013Y-138000252D01*
X124143748Y-138227987D01*
X124411537Y-138406918D01*
X124709088Y-138530168D01*
X125024967Y-138593000D01*
X125347033Y-138593000D01*
X125662912Y-138530168D01*
X125960463Y-138406918D01*
X126228252Y-138227987D01*
X126314272Y-138141967D01*
X147717000Y-138141967D01*
X147717000Y-138464033D01*
X147779832Y-138779912D01*
X147903082Y-139077463D01*
X148082013Y-139345252D01*
X148309748Y-139572987D01*
X148577537Y-139751918D01*
X148875088Y-139875168D01*
X149190967Y-139938000D01*
X149513033Y-139938000D01*
X149828912Y-139875168D01*
X150126463Y-139751918D01*
X150394252Y-139572987D01*
X150528826Y-139438413D01*
X152896192Y-139438413D01*
X152991956Y-139702814D01*
X153281571Y-139843704D01*
X153593108Y-139925384D01*
X153914595Y-139944718D01*
X154233675Y-139900961D01*
X154538088Y-139795795D01*
X154712044Y-139702814D01*
X154807808Y-139438413D01*
X153852000Y-138482605D01*
X152896192Y-139438413D01*
X150528826Y-139438413D01*
X150621987Y-139345252D01*
X150800918Y-139077463D01*
X150924168Y-138779912D01*
X150987000Y-138464033D01*
X150987000Y-138365595D01*
X152210282Y-138365595D01*
X152254039Y-138684675D01*
X152359205Y-138989088D01*
X152452186Y-139163044D01*
X152716587Y-139258808D01*
X153672395Y-138303000D01*
X154031605Y-138303000D01*
X154987413Y-139258808D01*
X155251814Y-139163044D01*
X155392704Y-138873429D01*
X155474384Y-138561892D01*
X155493718Y-138240405D01*
X155449961Y-137921325D01*
X155344795Y-137616912D01*
X155251814Y-137442956D01*
X154987413Y-137347192D01*
X154031605Y-138303000D01*
X153672395Y-138303000D01*
X152716587Y-137347192D01*
X152452186Y-137442956D01*
X152311296Y-137732571D01*
X152229616Y-138044108D01*
X152210282Y-138365595D01*
X150987000Y-138365595D01*
X150987000Y-138141967D01*
X150924168Y-137826088D01*
X150800918Y-137528537D01*
X150621987Y-137260748D01*
X150528826Y-137167587D01*
X152896192Y-137167587D01*
X153852000Y-138123395D01*
X154807808Y-137167587D01*
X154712044Y-136903186D01*
X154422429Y-136762296D01*
X154110892Y-136680616D01*
X153789405Y-136661282D01*
X153470325Y-136705039D01*
X153165912Y-136810205D01*
X152991956Y-136903186D01*
X152896192Y-137167587D01*
X150528826Y-137167587D01*
X150394252Y-137033013D01*
X150126463Y-136854082D01*
X149828912Y-136730832D01*
X149513033Y-136668000D01*
X149190967Y-136668000D01*
X148875088Y-136730832D01*
X148577537Y-136854082D01*
X148309748Y-137033013D01*
X148082013Y-137260748D01*
X147903082Y-137528537D01*
X147779832Y-137826088D01*
X147717000Y-138141967D01*
X126314272Y-138141967D01*
X126455987Y-138000252D01*
X126634918Y-137732463D01*
X126701401Y-137571959D01*
X126726525Y-137597083D01*
X126842193Y-137481415D01*
X126937956Y-137745814D01*
X127227571Y-137886704D01*
X127539108Y-137968384D01*
X127860595Y-137987718D01*
X128179675Y-137943961D01*
X128484088Y-137838795D01*
X128658044Y-137745814D01*
X128753808Y-137481413D01*
X127798000Y-136525605D01*
X127783858Y-136539748D01*
X127604253Y-136360143D01*
X127618395Y-136346000D01*
X127977605Y-136346000D01*
X128933413Y-137301808D01*
X129197814Y-137206044D01*
X129338704Y-136916429D01*
X129420384Y-136604892D01*
X129439718Y-136283405D01*
X129426219Y-136184967D01*
X130663000Y-136184967D01*
X130663000Y-136507033D01*
X130725832Y-136822912D01*
X130849082Y-137120463D01*
X131028013Y-137388252D01*
X131255748Y-137615987D01*
X131523537Y-137794918D01*
X131821088Y-137918168D01*
X132136967Y-137981000D01*
X132459033Y-137981000D01*
X132774912Y-137918168D01*
X133072463Y-137794918D01*
X133340252Y-137615987D01*
X133567987Y-137388252D01*
X133746918Y-137120463D01*
X133870168Y-136822912D01*
X133933000Y-136507033D01*
X133933000Y-136184967D01*
X133870168Y-135869088D01*
X133746918Y-135571537D01*
X133567987Y-135303748D01*
X133340252Y-135076013D01*
X133072463Y-134897082D01*
X132774912Y-134773832D01*
X132459033Y-134711000D01*
X132136967Y-134711000D01*
X131821088Y-134773832D01*
X131523537Y-134897082D01*
X131255748Y-135076013D01*
X131028013Y-135303748D01*
X130849082Y-135571537D01*
X130725832Y-135869088D01*
X130663000Y-136184967D01*
X129426219Y-136184967D01*
X129395961Y-135964325D01*
X129290795Y-135659912D01*
X129197814Y-135485956D01*
X128933413Y-135390192D01*
X127977605Y-136346000D01*
X127618395Y-136346000D01*
X126662587Y-135390192D01*
X126398186Y-135485956D01*
X126276446Y-135736207D01*
X126228252Y-135688013D01*
X125960463Y-135509082D01*
X125948000Y-135503920D01*
X125948000Y-135210587D01*
X126842192Y-135210587D01*
X127798000Y-136166395D01*
X128753808Y-135210587D01*
X128658044Y-134946186D01*
X128368429Y-134805296D01*
X128056892Y-134723616D01*
X127735405Y-134704282D01*
X127416325Y-134748039D01*
X127111912Y-134853205D01*
X126937956Y-134946186D01*
X126842192Y-135210587D01*
X125948000Y-135210587D01*
X125948000Y-131164936D01*
X125951686Y-131127513D01*
X125943165Y-131041000D01*
X125937297Y-130981413D01*
X126842192Y-130981413D01*
X126937956Y-131245814D01*
X127227571Y-131386704D01*
X127539108Y-131468384D01*
X127860595Y-131487718D01*
X128179675Y-131443961D01*
X128484088Y-131338795D01*
X128658044Y-131245814D01*
X128753808Y-130981413D01*
X127798000Y-130025605D01*
X126842192Y-130981413D01*
X125937297Y-130981413D01*
X125936974Y-130978136D01*
X125893402Y-130834499D01*
X125841484Y-130737368D01*
X125872088Y-130726795D01*
X126046044Y-130633814D01*
X126141807Y-130369415D01*
X126257475Y-130485083D01*
X126280880Y-130461678D01*
X126305205Y-130532088D01*
X126398186Y-130706044D01*
X126662587Y-130801808D01*
X127618395Y-129846000D01*
X127977605Y-129846000D01*
X128933413Y-130801808D01*
X129197814Y-130706044D01*
X129338704Y-130416429D01*
X129420384Y-130104892D01*
X129439718Y-129783405D01*
X129395961Y-129464325D01*
X129290795Y-129159912D01*
X129197814Y-128985956D01*
X128933413Y-128890192D01*
X127977605Y-129846000D01*
X127618395Y-129846000D01*
X127604253Y-129831858D01*
X127783858Y-129652253D01*
X127798000Y-129666395D01*
X128753808Y-128710587D01*
X128658044Y-128446186D01*
X128368429Y-128305296D01*
X128056892Y-128223616D01*
X127735405Y-128204282D01*
X127416325Y-128248039D01*
X127111912Y-128353205D01*
X126937956Y-128446186D01*
X126842193Y-128710585D01*
X126726525Y-128594917D01*
X126703120Y-128618322D01*
X126678795Y-128547912D01*
X126585814Y-128373956D01*
X126321413Y-128278192D01*
X125365605Y-129234000D01*
X125379748Y-129248143D01*
X125200143Y-129427748D01*
X125186000Y-129413605D01*
X125171858Y-129427748D01*
X124992253Y-129248143D01*
X125006395Y-129234000D01*
X124050587Y-128278192D01*
X123786186Y-128373956D01*
X123695823Y-128559707D01*
X123234703Y-128098587D01*
X124230192Y-128098587D01*
X125186000Y-129054395D01*
X126141808Y-128098587D01*
X126046044Y-127834186D01*
X125756429Y-127693296D01*
X125444892Y-127611616D01*
X125123405Y-127592282D01*
X124804325Y-127636039D01*
X124499912Y-127741205D01*
X124325956Y-127834186D01*
X124230192Y-128098587D01*
X123234703Y-128098587D01*
X117601984Y-122465868D01*
X117601984Y-117001911D01*
X118698994Y-117001911D01*
X118698994Y-117186089D01*
X118734926Y-117366729D01*
X118805408Y-117536889D01*
X118907732Y-117690028D01*
X119037966Y-117820262D01*
X119191105Y-117922586D01*
X119361265Y-117993068D01*
X119478814Y-118016450D01*
X119924001Y-118461638D01*
X119924000Y-121279920D01*
X119911537Y-121285082D01*
X119643748Y-121464013D01*
X119416013Y-121691748D01*
X119237082Y-121959537D01*
X119113832Y-122257088D01*
X119051000Y-122572967D01*
X119051000Y-122895033D01*
X119113832Y-123210912D01*
X119237082Y-123508463D01*
X119416013Y-123776252D01*
X119643748Y-124003987D01*
X119911537Y-124182918D01*
X120209088Y-124306168D01*
X120524967Y-124369000D01*
X120847033Y-124369000D01*
X121162912Y-124306168D01*
X121460463Y-124182918D01*
X121728252Y-124003987D01*
X121862826Y-123869413D01*
X124230192Y-123869413D01*
X124325956Y-124133814D01*
X124615571Y-124274704D01*
X124927108Y-124356384D01*
X125248595Y-124375718D01*
X125567675Y-124331961D01*
X125872088Y-124226795D01*
X126046044Y-124133814D01*
X126141808Y-123869413D01*
X125186000Y-122913605D01*
X124230192Y-123869413D01*
X121862826Y-123869413D01*
X121955987Y-123776252D01*
X122134918Y-123508463D01*
X122258168Y-123210912D01*
X122321000Y-122895033D01*
X122321000Y-122796595D01*
X123544282Y-122796595D01*
X123588039Y-123115675D01*
X123693205Y-123420088D01*
X123786186Y-123594044D01*
X124050587Y-123689808D01*
X125006395Y-122734000D01*
X124050587Y-121778192D01*
X123786186Y-121873956D01*
X123645296Y-122163571D01*
X123563616Y-122475108D01*
X123544282Y-122796595D01*
X122321000Y-122796595D01*
X122321000Y-122572967D01*
X122258168Y-122257088D01*
X122134918Y-121959537D01*
X121955987Y-121691748D01*
X121728252Y-121464013D01*
X121460463Y-121285082D01*
X121448000Y-121279920D01*
X121448000Y-118183428D01*
X121451686Y-118146005D01*
X121447054Y-118098973D01*
X121436974Y-117996628D01*
X121393402Y-117852991D01*
X121322645Y-117720614D01*
X121227422Y-117604584D01*
X121198351Y-117580727D01*
X120556444Y-116938820D01*
X120533062Y-116821271D01*
X120462580Y-116651111D01*
X120360256Y-116497972D01*
X120230022Y-116367738D01*
X120076883Y-116265414D01*
X119906723Y-116194932D01*
X119726083Y-116159000D01*
X119541905Y-116159000D01*
X119361265Y-116194932D01*
X119191105Y-116265414D01*
X119037966Y-116367738D01*
X118907732Y-116497972D01*
X118805408Y-116651111D01*
X118734926Y-116821271D01*
X118698994Y-117001911D01*
X117601984Y-117001911D01*
X117601984Y-113345614D01*
X125363065Y-121106695D01*
X125123405Y-121092282D01*
X124804325Y-121136039D01*
X124499912Y-121241205D01*
X124325956Y-121334186D01*
X124230192Y-121598587D01*
X125186000Y-122554395D01*
X125200143Y-122540253D01*
X125379748Y-122719858D01*
X125365605Y-122734000D01*
X126321413Y-123689808D01*
X126585814Y-123594044D01*
X126726704Y-123304429D01*
X126808384Y-122992892D01*
X126827718Y-122671405D01*
X126811816Y-122555446D01*
X131536001Y-127279631D01*
X131536001Y-128391919D01*
X131523537Y-128397082D01*
X131255748Y-128576013D01*
X131028013Y-128803748D01*
X130849082Y-129071537D01*
X130725832Y-129369088D01*
X130663000Y-129684967D01*
X130663000Y-130007033D01*
X130725832Y-130322912D01*
X130849082Y-130620463D01*
X131028013Y-130888252D01*
X131255748Y-131115987D01*
X131523537Y-131294918D01*
X131821088Y-131418168D01*
X132136967Y-131481000D01*
X132459033Y-131481000D01*
X132774912Y-131418168D01*
X133072463Y-131294918D01*
X133340252Y-131115987D01*
X133567987Y-130888252D01*
X133746918Y-130620463D01*
X133870168Y-130322912D01*
X133933000Y-130007033D01*
X133933000Y-129684967D01*
X133870168Y-129369088D01*
X133746918Y-129071537D01*
X133567987Y-128803748D01*
X133340252Y-128576013D01*
X133072463Y-128397082D01*
X133060000Y-128391920D01*
X133060000Y-127001423D01*
X133063686Y-126964000D01*
X133052458Y-126850000D01*
X133048974Y-126814622D01*
X133005402Y-126670985D01*
X132944468Y-126556985D01*
X132934645Y-126538607D01*
X132876965Y-126468325D01*
X132839422Y-126422578D01*
X132810346Y-126398716D01*
X122891921Y-116480291D01*
X123041278Y-116510000D01*
X123338722Y-116510000D01*
X123630451Y-116451971D01*
X123905253Y-116338144D01*
X124152569Y-116172893D01*
X124362893Y-115962569D01*
X124460000Y-115817238D01*
X124557107Y-115962569D01*
X124767431Y-116172893D01*
X125014747Y-116338144D01*
X125289549Y-116451971D01*
X125581278Y-116510000D01*
X125878722Y-116510000D01*
X126170451Y-116451971D01*
X126445253Y-116338144D01*
X126692569Y-116172893D01*
X126902893Y-115962569D01*
X127000000Y-115817238D01*
X127097107Y-115962569D01*
X127307431Y-116172893D01*
X127554747Y-116338144D01*
X127829549Y-116451971D01*
X128121278Y-116510000D01*
X128297701Y-116510000D01*
X128203414Y-116651111D01*
X128132932Y-116821271D01*
X128097000Y-117001911D01*
X128097000Y-117186089D01*
X128132932Y-117366729D01*
X128203414Y-117536889D01*
X128270001Y-117636543D01*
X128270000Y-120612577D01*
X128266314Y-120650000D01*
X128270000Y-120687423D01*
X128270000Y-120687425D01*
X128281026Y-120799377D01*
X128324598Y-120943014D01*
X128324599Y-120943015D01*
X128395355Y-121075392D01*
X128425084Y-121111616D01*
X128490578Y-121191422D01*
X128519654Y-121215284D01*
X139619721Y-132315352D01*
X139643578Y-132344422D01*
X139672648Y-132368279D01*
X139759607Y-132439645D01*
X139809498Y-132466312D01*
X139891985Y-132510402D01*
X140035622Y-132553974D01*
X140147574Y-132565000D01*
X140147577Y-132565000D01*
X140185000Y-132568686D01*
X140222423Y-132565000D01*
X147897920Y-132565000D01*
X147903082Y-132577463D01*
X148082013Y-132845252D01*
X148309748Y-133072987D01*
X148577537Y-133251918D01*
X148875088Y-133375168D01*
X149190967Y-133438000D01*
X149513033Y-133438000D01*
X149828912Y-133375168D01*
X150126463Y-133251918D01*
X150394252Y-133072987D01*
X150528826Y-132938413D01*
X152896192Y-132938413D01*
X152991956Y-133202814D01*
X153281571Y-133343704D01*
X153593108Y-133425384D01*
X153914595Y-133444718D01*
X154233675Y-133400961D01*
X154538088Y-133295795D01*
X154712044Y-133202814D01*
X154717059Y-133188967D01*
X157496000Y-133188967D01*
X157496000Y-133511033D01*
X157558832Y-133826912D01*
X157682082Y-134124463D01*
X157861013Y-134392252D01*
X158088748Y-134619987D01*
X158356537Y-134798918D01*
X158654088Y-134922168D01*
X158969967Y-134985000D01*
X159292033Y-134985000D01*
X159607912Y-134922168D01*
X159905463Y-134798918D01*
X160173252Y-134619987D01*
X160307826Y-134485413D01*
X162675192Y-134485413D01*
X162770956Y-134749814D01*
X163060571Y-134890704D01*
X163372108Y-134972384D01*
X163693595Y-134991718D01*
X164012675Y-134947961D01*
X164317088Y-134842795D01*
X164491044Y-134749814D01*
X164586808Y-134485413D01*
X163631000Y-133529605D01*
X162675192Y-134485413D01*
X160307826Y-134485413D01*
X160400987Y-134392252D01*
X160579918Y-134124463D01*
X160703168Y-133826912D01*
X160766000Y-133511033D01*
X160766000Y-133412595D01*
X161989282Y-133412595D01*
X162033039Y-133731675D01*
X162138205Y-134036088D01*
X162231186Y-134210044D01*
X162495587Y-134305808D01*
X163451395Y-133350000D01*
X163810605Y-133350000D01*
X164766413Y-134305808D01*
X165030814Y-134210044D01*
X165171704Y-133920429D01*
X165253384Y-133608892D01*
X165272718Y-133287405D01*
X165228961Y-132968325D01*
X165123795Y-132663912D01*
X165030814Y-132489956D01*
X164766413Y-132394192D01*
X163810605Y-133350000D01*
X163451395Y-133350000D01*
X162495587Y-132394192D01*
X162231186Y-132489956D01*
X162090296Y-132779571D01*
X162008616Y-133091108D01*
X161989282Y-133412595D01*
X160766000Y-133412595D01*
X160766000Y-133188967D01*
X160703168Y-132873088D01*
X160579918Y-132575537D01*
X160400987Y-132307748D01*
X160307826Y-132214587D01*
X162675192Y-132214587D01*
X163631000Y-133170395D01*
X164586808Y-132214587D01*
X164491044Y-131950186D01*
X164201429Y-131809296D01*
X163889892Y-131727616D01*
X163568405Y-131708282D01*
X163249325Y-131752039D01*
X162944912Y-131857205D01*
X162770956Y-131950186D01*
X162675192Y-132214587D01*
X160307826Y-132214587D01*
X160173252Y-132080013D01*
X159905463Y-131901082D01*
X159607912Y-131777832D01*
X159292033Y-131715000D01*
X158969967Y-131715000D01*
X158654088Y-131777832D01*
X158356537Y-131901082D01*
X158088748Y-132080013D01*
X157861013Y-132307748D01*
X157682082Y-132575537D01*
X157558832Y-132873088D01*
X157496000Y-133188967D01*
X154717059Y-133188967D01*
X154807808Y-132938413D01*
X153852000Y-131982605D01*
X152896192Y-132938413D01*
X150528826Y-132938413D01*
X150621987Y-132845252D01*
X150800918Y-132577463D01*
X150924168Y-132279912D01*
X150987000Y-131964033D01*
X150987000Y-131865595D01*
X152210282Y-131865595D01*
X152254039Y-132184675D01*
X152359205Y-132489088D01*
X152452186Y-132663044D01*
X152716587Y-132758808D01*
X153672395Y-131803000D01*
X154031605Y-131803000D01*
X154987413Y-132758808D01*
X155251814Y-132663044D01*
X155392704Y-132373429D01*
X155474384Y-132061892D01*
X155493718Y-131740405D01*
X155449961Y-131421325D01*
X155344795Y-131116912D01*
X155251814Y-130942956D01*
X154987413Y-130847192D01*
X154031605Y-131803000D01*
X153672395Y-131803000D01*
X152716587Y-130847192D01*
X152452186Y-130942956D01*
X152311296Y-131232571D01*
X152229616Y-131544108D01*
X152210282Y-131865595D01*
X150987000Y-131865595D01*
X150987000Y-131641967D01*
X150924168Y-131326088D01*
X150800918Y-131028537D01*
X150621987Y-130760748D01*
X150528826Y-130667587D01*
X152896192Y-130667587D01*
X153852000Y-131623395D01*
X154807808Y-130667587D01*
X154712044Y-130403186D01*
X154422429Y-130262296D01*
X154110892Y-130180616D01*
X153789405Y-130161282D01*
X153470325Y-130205039D01*
X153165912Y-130310205D01*
X152991956Y-130403186D01*
X152896192Y-130667587D01*
X150528826Y-130667587D01*
X150394252Y-130533013D01*
X150126463Y-130354082D01*
X149828912Y-130230832D01*
X149513033Y-130168000D01*
X149190967Y-130168000D01*
X148875088Y-130230832D01*
X148577537Y-130354082D01*
X148309748Y-130533013D01*
X148082013Y-130760748D01*
X147903082Y-131028537D01*
X147897920Y-131041000D01*
X140500631Y-131041000D01*
X137071631Y-127612000D01*
X157676920Y-127612000D01*
X157682082Y-127624463D01*
X157861013Y-127892252D01*
X158088748Y-128119987D01*
X158356537Y-128298918D01*
X158654088Y-128422168D01*
X158969967Y-128485000D01*
X159292033Y-128485000D01*
X159607912Y-128422168D01*
X159905463Y-128298918D01*
X160173252Y-128119987D01*
X160307826Y-127985413D01*
X162675192Y-127985413D01*
X162770956Y-128249814D01*
X163060571Y-128390704D01*
X163372108Y-128472384D01*
X163693595Y-128491718D01*
X164012675Y-128447961D01*
X164317088Y-128342795D01*
X164491044Y-128249814D01*
X164586808Y-127985413D01*
X163631000Y-127029605D01*
X162675192Y-127985413D01*
X160307826Y-127985413D01*
X160400987Y-127892252D01*
X160579918Y-127624463D01*
X160703168Y-127326912D01*
X160766000Y-127011033D01*
X160766000Y-126912595D01*
X161989282Y-126912595D01*
X162033039Y-127231675D01*
X162138205Y-127536088D01*
X162231186Y-127710044D01*
X162495587Y-127805808D01*
X163451395Y-126850000D01*
X163810605Y-126850000D01*
X164766413Y-127805808D01*
X165030814Y-127710044D01*
X165171704Y-127420429D01*
X165253384Y-127108892D01*
X165272718Y-126787405D01*
X165228961Y-126468325D01*
X165123795Y-126163912D01*
X165030814Y-125989956D01*
X164766413Y-125894192D01*
X163810605Y-126850000D01*
X163451395Y-126850000D01*
X162495587Y-125894192D01*
X162231186Y-125989956D01*
X162090296Y-126279571D01*
X162008616Y-126591108D01*
X161989282Y-126912595D01*
X160766000Y-126912595D01*
X160766000Y-126688967D01*
X160703168Y-126373088D01*
X160579918Y-126075537D01*
X160400987Y-125807748D01*
X160173252Y-125580013D01*
X159905463Y-125401082D01*
X159607912Y-125277832D01*
X159327225Y-125222000D01*
X163468372Y-125222000D01*
X163249325Y-125252039D01*
X162944912Y-125357205D01*
X162770956Y-125450186D01*
X162675192Y-125714587D01*
X163631000Y-126670395D01*
X164586808Y-125714587D01*
X164491044Y-125450186D01*
X164201429Y-125309296D01*
X163889892Y-125227616D01*
X163796509Y-125222000D01*
X169397695Y-125222000D01*
X169435875Y-125279140D01*
X169614860Y-125458125D01*
X169825324Y-125598753D01*
X170059179Y-125695619D01*
X170307439Y-125745000D01*
X170560561Y-125745000D01*
X170808821Y-125695619D01*
X171042676Y-125598753D01*
X171253140Y-125458125D01*
X171432125Y-125279140D01*
X171516659Y-125152626D01*
X171621392Y-125096645D01*
X171737422Y-125001422D01*
X171832645Y-124885392D01*
X171903402Y-124753015D01*
X171946974Y-124609378D01*
X171961686Y-124460000D01*
X171946974Y-124310622D01*
X171903402Y-124166985D01*
X171832645Y-124034608D01*
X171737422Y-123918578D01*
X171621392Y-123823355D01*
X171516659Y-123767374D01*
X171432125Y-123640860D01*
X171253140Y-123461875D01*
X171042676Y-123321247D01*
X170808821Y-123224381D01*
X170635973Y-123190000D01*
X170808821Y-123155619D01*
X171042676Y-123058753D01*
X171253140Y-122918125D01*
X171432125Y-122739140D01*
X171572753Y-122528676D01*
X171669619Y-122294821D01*
X171719000Y-122046561D01*
X171719000Y-121793439D01*
X171669619Y-121545179D01*
X171572753Y-121311324D01*
X171432125Y-121100860D01*
X171253140Y-120921875D01*
X171042676Y-120781247D01*
X170808821Y-120684381D01*
X170635973Y-120650000D01*
X170808821Y-120615619D01*
X171042676Y-120518753D01*
X171253140Y-120378125D01*
X171432125Y-120199140D01*
X171516659Y-120072626D01*
X171621392Y-120016645D01*
X171737422Y-119921422D01*
X171832645Y-119805392D01*
X171903402Y-119673015D01*
X171946974Y-119529378D01*
X171961686Y-119380000D01*
X171946974Y-119230622D01*
X171903402Y-119086985D01*
X171832645Y-118954608D01*
X171737422Y-118838578D01*
X171621392Y-118743355D01*
X171516659Y-118687374D01*
X171432125Y-118560860D01*
X171253140Y-118381875D01*
X171042676Y-118241247D01*
X170808821Y-118144381D01*
X170560561Y-118095000D01*
X170307439Y-118095000D01*
X170059179Y-118144381D01*
X169825324Y-118241247D01*
X169614860Y-118381875D01*
X169435875Y-118560860D01*
X169397695Y-118618000D01*
X143125631Y-118618000D01*
X141343283Y-116835653D01*
X141343279Y-116835648D01*
X141017631Y-116510000D01*
X141118722Y-116510000D01*
X141410451Y-116451971D01*
X141685253Y-116338144D01*
X141932569Y-116172893D01*
X142142893Y-115962569D01*
X142240000Y-115817238D01*
X142337107Y-115962569D01*
X142547431Y-116172893D01*
X142794747Y-116338144D01*
X143069549Y-116451971D01*
X143361278Y-116510000D01*
X143658722Y-116510000D01*
X143950451Y-116451971D01*
X144225253Y-116338144D01*
X144472569Y-116172893D01*
X144682893Y-115962569D01*
X144780000Y-115817238D01*
X144877107Y-115962569D01*
X145087431Y-116172893D01*
X145334747Y-116338144D01*
X145609549Y-116451971D01*
X145901278Y-116510000D01*
X146198722Y-116510000D01*
X146490451Y-116451971D01*
X146765253Y-116338144D01*
X147012569Y-116172893D01*
X147222893Y-115962569D01*
X147320000Y-115817238D01*
X147417107Y-115962569D01*
X147627431Y-116172893D01*
X147874747Y-116338144D01*
X148149549Y-116451971D01*
X148441278Y-116510000D01*
X148738722Y-116510000D01*
X149030451Y-116451971D01*
X149305253Y-116338144D01*
X149552569Y-116172893D01*
X149679222Y-116046240D01*
X150263365Y-116046240D01*
X150344025Y-116297868D01*
X150612329Y-116426267D01*
X150900526Y-116499855D01*
X151197543Y-116515804D01*
X151491963Y-116473501D01*
X151772474Y-116374572D01*
X151915975Y-116297868D01*
X151996635Y-116046240D01*
X151130000Y-115179605D01*
X150263365Y-116046240D01*
X149679222Y-116046240D01*
X149762893Y-115962569D01*
X149872288Y-115798847D01*
X150083760Y-115866635D01*
X150950395Y-115000000D01*
X150936253Y-114985858D01*
X151115858Y-114806253D01*
X151130000Y-114820395D01*
X151144143Y-114806253D01*
X151323748Y-114985858D01*
X151309605Y-115000000D01*
X152176240Y-115866635D01*
X152387712Y-115798847D01*
X152497107Y-115962569D01*
X152707431Y-116172893D01*
X152954747Y-116338144D01*
X153229549Y-116451971D01*
X153521278Y-116510000D01*
X153818722Y-116510000D01*
X154110451Y-116451971D01*
X154385253Y-116338144D01*
X154632569Y-116172893D01*
X154842893Y-115962569D01*
X154940000Y-115817238D01*
X155037107Y-115962569D01*
X155247431Y-116172893D01*
X155494747Y-116338144D01*
X155769549Y-116451971D01*
X156061278Y-116510000D01*
X156358722Y-116510000D01*
X156650451Y-116451971D01*
X156925253Y-116338144D01*
X157172569Y-116172893D01*
X157382893Y-115962569D01*
X157516909Y-115762000D01*
X165124577Y-115762000D01*
X165162000Y-115765686D01*
X165199423Y-115762000D01*
X165199426Y-115762000D01*
X165311378Y-115750974D01*
X165455015Y-115707402D01*
X165587392Y-115636645D01*
X165703422Y-115541422D01*
X165727284Y-115512346D01*
X170438353Y-110801278D01*
X170467422Y-110777422D01*
X170562645Y-110661392D01*
X170633402Y-110529015D01*
X170676974Y-110385378D01*
X170688000Y-110273426D01*
X170688000Y-110273424D01*
X170691686Y-110236001D01*
X170688000Y-110198578D01*
X170688000Y-81825423D01*
X170691686Y-81788000D01*
X170688000Y-81750574D01*
X170676974Y-81638622D01*
X170633402Y-81494985D01*
X170600465Y-81433364D01*
X170562645Y-81362607D01*
X170527857Y-81320219D01*
X170467422Y-81246578D01*
X170438346Y-81222716D01*
X167697284Y-78481654D01*
X167673422Y-78452578D01*
X167557392Y-78357355D01*
X167425015Y-78286598D01*
X167281378Y-78243026D01*
X167169426Y-78232000D01*
X167169423Y-78232000D01*
X167132000Y-78228314D01*
X167094577Y-78232000D01*
X155482542Y-78232000D01*
X155382889Y-78165414D01*
X155212729Y-78094932D01*
X155032089Y-78059000D01*
X154847911Y-78059000D01*
X154667271Y-78094932D01*
X154497111Y-78165414D01*
X154343972Y-78267738D01*
X154213738Y-78397972D01*
X154111414Y-78551111D01*
X154040932Y-78721271D01*
X154005000Y-78901911D01*
X154005000Y-79086089D01*
X154040932Y-79266729D01*
X154111414Y-79436889D01*
X154213738Y-79590028D01*
X154343972Y-79720262D01*
X154497111Y-79822586D01*
X154667271Y-79893068D01*
X154847911Y-79929000D01*
X155032089Y-79929000D01*
X155212729Y-79893068D01*
X155382889Y-79822586D01*
X155482542Y-79756000D01*
X166816370Y-79756000D01*
X169164001Y-82103631D01*
X169164001Y-93156371D01*
X167557679Y-91550049D01*
X167601000Y-91332260D01*
X167601000Y-91039740D01*
X167543932Y-90752842D01*
X167431990Y-90482589D01*
X167269475Y-90239368D01*
X167062632Y-90032525D01*
X166888240Y-89916000D01*
X167062632Y-89799475D01*
X167269475Y-89592632D01*
X167431990Y-89349411D01*
X167543932Y-89079158D01*
X167601000Y-88792260D01*
X167601000Y-88499740D01*
X167543932Y-88212842D01*
X167431990Y-87942589D01*
X167269475Y-87699368D01*
X167062632Y-87492525D01*
X166888240Y-87376000D01*
X167062632Y-87259475D01*
X167269475Y-87052632D01*
X167431990Y-86809411D01*
X167543932Y-86539158D01*
X167601000Y-86252260D01*
X167601000Y-85959740D01*
X167543932Y-85672842D01*
X167431990Y-85402589D01*
X167269475Y-85159368D01*
X167062632Y-84952525D01*
X166880466Y-84830805D01*
X166997355Y-84761178D01*
X167213588Y-84566269D01*
X167387641Y-84332920D01*
X167512825Y-84070099D01*
X167557476Y-83922890D01*
X167436155Y-83693000D01*
X166243000Y-83693000D01*
X166243000Y-83713000D01*
X165989000Y-83713000D01*
X165989000Y-83693000D01*
X164795845Y-83693000D01*
X164674524Y-83922890D01*
X164719175Y-84070099D01*
X164844359Y-84332920D01*
X165018412Y-84566269D01*
X165234645Y-84761178D01*
X165351534Y-84830805D01*
X165169368Y-84952525D01*
X164962525Y-85159368D01*
X164800010Y-85402589D01*
X164688068Y-85672842D01*
X164631000Y-85959740D01*
X164631000Y-86252260D01*
X164688068Y-86539158D01*
X164800010Y-86809411D01*
X164962525Y-87052632D01*
X165169368Y-87259475D01*
X165343760Y-87376000D01*
X165169368Y-87492525D01*
X164962525Y-87699368D01*
X164924017Y-87757000D01*
X164889659Y-87757000D01*
X164845999Y-87752700D01*
X164802339Y-87757000D01*
X164802333Y-87757000D01*
X164704924Y-87766594D01*
X164671724Y-87769864D01*
X164570058Y-87800704D01*
X164504149Y-87820697D01*
X164349709Y-87903247D01*
X164214341Y-88014341D01*
X164186501Y-88048264D01*
X154221852Y-98012913D01*
X154244586Y-97978889D01*
X154315068Y-97808729D01*
X154351000Y-97628089D01*
X154351000Y-97443911D01*
X154315068Y-97263271D01*
X154244586Y-97093111D01*
X154142262Y-96939972D01*
X154012028Y-96809738D01*
X153858889Y-96707414D01*
X153688729Y-96636932D01*
X153508089Y-96601000D01*
X153323911Y-96601000D01*
X153143271Y-96636932D01*
X152973111Y-96707414D01*
X152873458Y-96774000D01*
X149883079Y-96774000D01*
X149926586Y-96708887D01*
X149997068Y-96538727D01*
X150033000Y-96358087D01*
X150033000Y-96173909D01*
X149997068Y-95993269D01*
X149926586Y-95823109D01*
X149824262Y-95669970D01*
X149694028Y-95539736D01*
X149540889Y-95437412D01*
X149370729Y-95366930D01*
X149190089Y-95330998D01*
X149005911Y-95330998D01*
X148825271Y-95366930D01*
X148655111Y-95437412D01*
X148555458Y-95503998D01*
X139421425Y-95503998D01*
X139384002Y-95500312D01*
X139346579Y-95503998D01*
X139346576Y-95503998D01*
X139234624Y-95515024D01*
X139090987Y-95558596D01*
X139041574Y-95585008D01*
X138958609Y-95629353D01*
X138907742Y-95671099D01*
X138842580Y-95724576D01*
X138818723Y-95753646D01*
X126115309Y-108457061D01*
X125878722Y-108410000D01*
X125581278Y-108410000D01*
X125344691Y-108457060D01*
X121708631Y-104821000D01*
X121758089Y-104821000D01*
X121938729Y-104785068D01*
X122108889Y-104714586D01*
X122262028Y-104612262D01*
X122392262Y-104482028D01*
X122494586Y-104328889D01*
X122565068Y-104158729D01*
X122601000Y-103978089D01*
X122601000Y-103793911D01*
X122565068Y-103613271D01*
X122555000Y-103588964D01*
X122555000Y-96817044D01*
X122565068Y-96792737D01*
X122601000Y-96612097D01*
X122601000Y-96427919D01*
X122565068Y-96247279D01*
X122494586Y-96077119D01*
X122392262Y-95923980D01*
X122262028Y-95793746D01*
X122108889Y-95691422D01*
X121938729Y-95620940D01*
X121758089Y-95585008D01*
X121573911Y-95585008D01*
X121393271Y-95620940D01*
X121223111Y-95691422D01*
X121069972Y-95793746D01*
X120939738Y-95923980D01*
X120837414Y-96077119D01*
X120766932Y-96247279D01*
X120731000Y-96427919D01*
X120731000Y-96612097D01*
X120766932Y-96792737D01*
X120777001Y-96817046D01*
X120777000Y-103588964D01*
X120766932Y-103613271D01*
X120731000Y-103793911D01*
X120731000Y-103843369D01*
X111371284Y-94483654D01*
X111347422Y-94454578D01*
X111231392Y-94359355D01*
X111099015Y-94288598D01*
X110955378Y-94245026D01*
X110843426Y-94234000D01*
X110843423Y-94234000D01*
X110806000Y-94230314D01*
X110768577Y-94234000D01*
X107476842Y-94234000D01*
X107353475Y-94049368D01*
X107146632Y-93842525D01*
X106972240Y-93726000D01*
X107146632Y-93609475D01*
X107353475Y-93402632D01*
X107515990Y-93159411D01*
X107627932Y-92889158D01*
X107685000Y-92602260D01*
X107685000Y-92554411D01*
X146702500Y-92554411D01*
X146702500Y-92738589D01*
X146738432Y-92919229D01*
X146808914Y-93089389D01*
X146911238Y-93242528D01*
X147041472Y-93372762D01*
X147194611Y-93475086D01*
X147364771Y-93545568D01*
X147545411Y-93581500D01*
X147729589Y-93581500D01*
X147910229Y-93545568D01*
X148080389Y-93475086D01*
X148233528Y-93372762D01*
X148363762Y-93242528D01*
X148466086Y-93089389D01*
X148476155Y-93065080D01*
X154596582Y-86944654D01*
X154620889Y-86934586D01*
X154774028Y-86832262D01*
X154904262Y-86702028D01*
X155006586Y-86548889D01*
X155077068Y-86378729D01*
X155113000Y-86198089D01*
X155113000Y-86013911D01*
X155077068Y-85833271D01*
X155006586Y-85663111D01*
X154904262Y-85509972D01*
X154774028Y-85379738D01*
X154620889Y-85277414D01*
X154450729Y-85206932D01*
X154270089Y-85171000D01*
X154085911Y-85171000D01*
X153905271Y-85206932D01*
X153735111Y-85277414D01*
X153581972Y-85379738D01*
X153451738Y-85509972D01*
X153349414Y-85663111D01*
X153339346Y-85687418D01*
X147218920Y-91807845D01*
X147194611Y-91817914D01*
X147041472Y-91920238D01*
X146911238Y-92050472D01*
X146808914Y-92203611D01*
X146738432Y-92373771D01*
X146702500Y-92554411D01*
X107685000Y-92554411D01*
X107685000Y-92309740D01*
X107627932Y-92022842D01*
X107515990Y-91752589D01*
X107353475Y-91509368D01*
X107146632Y-91302525D01*
X106972240Y-91186000D01*
X107146632Y-91069475D01*
X107353475Y-90862632D01*
X107515990Y-90619411D01*
X107627932Y-90349158D01*
X107685000Y-90062260D01*
X107685000Y-89769740D01*
X107627932Y-89482842D01*
X107515990Y-89212589D01*
X107353475Y-88969368D01*
X107146632Y-88762525D01*
X106972240Y-88646000D01*
X107146632Y-88529475D01*
X107353475Y-88322632D01*
X107476842Y-88138000D01*
X121882575Y-88138000D01*
X121919998Y-88141686D01*
X121957421Y-88138000D01*
X121957424Y-88138000D01*
X122069376Y-88126974D01*
X122213013Y-88083402D01*
X122345390Y-88012645D01*
X122461420Y-87917422D01*
X122485282Y-87888346D01*
X127164518Y-83209110D01*
X164674524Y-83209110D01*
X164795845Y-83439000D01*
X165989000Y-83439000D01*
X165989000Y-82245186D01*
X166243000Y-82245186D01*
X166243000Y-83439000D01*
X167436155Y-83439000D01*
X167557476Y-83209110D01*
X167512825Y-83061901D01*
X167387641Y-82799080D01*
X167213588Y-82565731D01*
X166997355Y-82370822D01*
X166747252Y-82221843D01*
X166472891Y-82124519D01*
X166243000Y-82245186D01*
X165989000Y-82245186D01*
X165759109Y-82124519D01*
X165484748Y-82221843D01*
X165234645Y-82370822D01*
X165018412Y-82565731D01*
X164844359Y-82799080D01*
X164719175Y-83061901D01*
X164674524Y-83209110D01*
X127164518Y-83209110D01*
X130457179Y-79916450D01*
X130574727Y-79893068D01*
X130744887Y-79822586D01*
X130898026Y-79720262D01*
X131028260Y-79590028D01*
X131130584Y-79436889D01*
X131201066Y-79266729D01*
X131236998Y-79086089D01*
X131236998Y-78901911D01*
X131201066Y-78721271D01*
X131130584Y-78551111D01*
X131028260Y-78397972D01*
X130898026Y-78267738D01*
X130744887Y-78165414D01*
X130574727Y-78094932D01*
X130394087Y-78059000D01*
X130209909Y-78059000D01*
X130029269Y-78094932D01*
X129859109Y-78165414D01*
X129705970Y-78267738D01*
X129575736Y-78397972D01*
X129473412Y-78551111D01*
X129402930Y-78721271D01*
X129379548Y-78838819D01*
X121604368Y-86614000D01*
X107476842Y-86614000D01*
X107353475Y-86429368D01*
X107146632Y-86222525D01*
X106903411Y-86060010D01*
X106633158Y-85948068D01*
X106346260Y-85891000D01*
X106053740Y-85891000D01*
X105766842Y-85948068D01*
X105496589Y-86060010D01*
X105253368Y-86222525D01*
X105046525Y-86429368D01*
X104884010Y-86672589D01*
X104772068Y-86942842D01*
X104715000Y-87229740D01*
X103510000Y-87229740D01*
X103510000Y-72539401D01*
X103665062Y-72694463D01*
X104211285Y-73059438D01*
X104818217Y-73310837D01*
X105462531Y-73438999D01*
X106119469Y-73438999D01*
X106763783Y-73310837D01*
X107370715Y-73059438D01*
X107916938Y-72694463D01*
X108381463Y-72229938D01*
X108746438Y-71683715D01*
X108997837Y-71076783D01*
X109067133Y-70728408D01*
X109397800Y-70728408D01*
X109397800Y-71003592D01*
X109451486Y-71273490D01*
X109556795Y-71527727D01*
X109709680Y-71756535D01*
X109904265Y-71951120D01*
X110133073Y-72104005D01*
X110387310Y-72209314D01*
X110657208Y-72263000D01*
X110932392Y-72263000D01*
X111202290Y-72209314D01*
X111456527Y-72104005D01*
X111685335Y-71951120D01*
X111879920Y-71756535D01*
X112032805Y-71527727D01*
X112039400Y-71511805D01*
X112045995Y-71527727D01*
X112198880Y-71756535D01*
X112393465Y-71951120D01*
X112622273Y-72104005D01*
X112876510Y-72209314D01*
X113146408Y-72263000D01*
X113421592Y-72263000D01*
X113423404Y-72262639D01*
X119049335Y-77888571D01*
X119059408Y-77912889D01*
X119161732Y-78066028D01*
X119291966Y-78196262D01*
X119445105Y-78298586D01*
X119615265Y-78369068D01*
X119795905Y-78405000D01*
X119980083Y-78405000D01*
X120160723Y-78369068D01*
X120330883Y-78298586D01*
X120484022Y-78196262D01*
X120614256Y-78066028D01*
X120716580Y-77912889D01*
X120787062Y-77742729D01*
X120822994Y-77562089D01*
X120822994Y-77377911D01*
X120787062Y-77197271D01*
X120716580Y-77027111D01*
X120614256Y-76873972D01*
X120484022Y-76743738D01*
X120330883Y-76641414D01*
X120306586Y-76631350D01*
X115933682Y-72258447D01*
X116180690Y-72209314D01*
X116434927Y-72104005D01*
X116663735Y-71951120D01*
X116858320Y-71756535D01*
X117011205Y-71527727D01*
X117116514Y-71273490D01*
X117170200Y-71003592D01*
X117170200Y-70728408D01*
X117116514Y-70458510D01*
X117011205Y-70204273D01*
X116858320Y-69975465D01*
X116663735Y-69780880D01*
X116434927Y-69627995D01*
X116180690Y-69522686D01*
X115910792Y-69469000D01*
X115635608Y-69469000D01*
X115365710Y-69522686D01*
X115111473Y-69627995D01*
X114882665Y-69780880D01*
X114688080Y-69975465D01*
X114535195Y-70204273D01*
X114528600Y-70220195D01*
X114522005Y-70204273D01*
X114369120Y-69975465D01*
X114174535Y-69780880D01*
X113945727Y-69627995D01*
X113691490Y-69522686D01*
X113421592Y-69469000D01*
X113146408Y-69469000D01*
X112876510Y-69522686D01*
X112622273Y-69627995D01*
X112393465Y-69780880D01*
X112198880Y-69975465D01*
X112045995Y-70204273D01*
X112039400Y-70220195D01*
X112032805Y-70204273D01*
X111879920Y-69975465D01*
X111685335Y-69780880D01*
X111456527Y-69627995D01*
X111202290Y-69522686D01*
X110932392Y-69469000D01*
X110657208Y-69469000D01*
X110387310Y-69522686D01*
X110133073Y-69627995D01*
X109904265Y-69780880D01*
X109709680Y-69975465D01*
X109556795Y-70204273D01*
X109451486Y-70458510D01*
X109397800Y-70728408D01*
X109067133Y-70728408D01*
X109125999Y-70432469D01*
X109125999Y-69775531D01*
X108997837Y-69131217D01*
X108746438Y-68524285D01*
X108381463Y-67978062D01*
X108194401Y-67791000D01*
X118074054Y-67791000D01*
X118213231Y-67804646D01*
G37*
G04 #@! TD.AperFunction*
D25*
X134717107Y-115962569D02*
X134927431Y-116172893D01*
X135174747Y-116338144D01*
X135449549Y-116451971D01*
X135741278Y-116510000D01*
X136038722Y-116510000D01*
X136275309Y-116462939D01*
X138640057Y-118827688D01*
X138640063Y-118827693D01*
X144784721Y-124972352D01*
X144808578Y-125001422D01*
X144924608Y-125096645D01*
X145056985Y-125167402D01*
X145200622Y-125210974D01*
X145312574Y-125222000D01*
X145312576Y-125222000D01*
X145349999Y-125225686D01*
X145387422Y-125222000D01*
X158934775Y-125222000D01*
X158654088Y-125277832D01*
X158356537Y-125401082D01*
X158088748Y-125580013D01*
X157861013Y-125807748D01*
X157682082Y-126075537D01*
X157676920Y-126088000D01*
X136817630Y-126088000D01*
X131572000Y-120842370D01*
X131572000Y-116306909D01*
X131772569Y-116172893D01*
X131982893Y-115962569D01*
X132080000Y-115817238D01*
X132177107Y-115962569D01*
X132387431Y-116172893D01*
X132634747Y-116338144D01*
X132909549Y-116451971D01*
X133201278Y-116510000D01*
X133498722Y-116510000D01*
X133790451Y-116451971D01*
X134065253Y-116338144D01*
X134312569Y-116172893D01*
X134522893Y-115962569D01*
X134620000Y-115817238D01*
X134717107Y-115962569D01*
G04 #@! TA.AperFunction,Conductor*
D27*
G36*
X134717107Y-115962569D02*
G01*
X134927431Y-116172893D01*
X135174747Y-116338144D01*
X135449549Y-116451971D01*
X135741278Y-116510000D01*
X136038722Y-116510000D01*
X136275309Y-116462939D01*
X138640057Y-118827688D01*
X138640063Y-118827693D01*
X144784721Y-124972352D01*
X144808578Y-125001422D01*
X144924608Y-125096645D01*
X145056985Y-125167402D01*
X145200622Y-125210974D01*
X145312574Y-125222000D01*
X145312576Y-125222000D01*
X145349999Y-125225686D01*
X145387422Y-125222000D01*
X158934775Y-125222000D01*
X158654088Y-125277832D01*
X158356537Y-125401082D01*
X158088748Y-125580013D01*
X157861013Y-125807748D01*
X157682082Y-126075537D01*
X157676920Y-126088000D01*
X136817630Y-126088000D01*
X131572000Y-120842370D01*
X131572000Y-116306909D01*
X131772569Y-116172893D01*
X131982893Y-115962569D01*
X132080000Y-115817238D01*
X132177107Y-115962569D01*
X132387431Y-116172893D01*
X132634747Y-116338144D01*
X132909549Y-116451971D01*
X133201278Y-116510000D01*
X133498722Y-116510000D01*
X133790451Y-116451971D01*
X134065253Y-116338144D01*
X134312569Y-116172893D01*
X134522893Y-115962569D01*
X134620000Y-115817238D01*
X134717107Y-115962569D01*
G37*
G04 #@! TD.AperFunction*
D25*
X140265648Y-117913279D02*
X140265653Y-117913283D01*
X142244721Y-119892352D01*
X142268578Y-119921422D01*
X142297648Y-119945279D01*
X142384607Y-120016645D01*
X142455364Y-120054465D01*
X142516985Y-120087402D01*
X142660622Y-120130974D01*
X142772574Y-120142000D01*
X142772577Y-120142000D01*
X142810000Y-120145686D01*
X142847423Y-120142000D01*
X169397695Y-120142000D01*
X169435875Y-120199140D01*
X169614860Y-120378125D01*
X169825324Y-120518753D01*
X170059179Y-120615619D01*
X170232027Y-120650000D01*
X170059179Y-120684381D01*
X169825324Y-120781247D01*
X169614860Y-120921875D01*
X169435875Y-121100860D01*
X169295247Y-121311324D01*
X169198381Y-121545179D01*
X169149000Y-121793439D01*
X169149000Y-122046561D01*
X169198381Y-122294821D01*
X169295247Y-122528676D01*
X169435875Y-122739140D01*
X169614860Y-122918125D01*
X169825324Y-123058753D01*
X170059179Y-123155619D01*
X170232027Y-123190000D01*
X170059179Y-123224381D01*
X169825324Y-123321247D01*
X169614860Y-123461875D01*
X169435875Y-123640860D01*
X169397695Y-123698000D01*
X145665631Y-123698000D01*
X139717693Y-117750063D01*
X139717688Y-117750057D01*
X138477631Y-116510000D01*
X138578722Y-116510000D01*
X138815309Y-116462939D01*
X140265648Y-117913279D01*
G04 #@! TA.AperFunction,Conductor*
D27*
G36*
X140265648Y-117913279D02*
G01*
X140265653Y-117913283D01*
X142244721Y-119892352D01*
X142268578Y-119921422D01*
X142297648Y-119945279D01*
X142384607Y-120016645D01*
X142455364Y-120054465D01*
X142516985Y-120087402D01*
X142660622Y-120130974D01*
X142772574Y-120142000D01*
X142772577Y-120142000D01*
X142810000Y-120145686D01*
X142847423Y-120142000D01*
X169397695Y-120142000D01*
X169435875Y-120199140D01*
X169614860Y-120378125D01*
X169825324Y-120518753D01*
X170059179Y-120615619D01*
X170232027Y-120650000D01*
X170059179Y-120684381D01*
X169825324Y-120781247D01*
X169614860Y-120921875D01*
X169435875Y-121100860D01*
X169295247Y-121311324D01*
X169198381Y-121545179D01*
X169149000Y-121793439D01*
X169149000Y-122046561D01*
X169198381Y-122294821D01*
X169295247Y-122528676D01*
X169435875Y-122739140D01*
X169614860Y-122918125D01*
X169825324Y-123058753D01*
X170059179Y-123155619D01*
X170232027Y-123190000D01*
X170059179Y-123224381D01*
X169825324Y-123321247D01*
X169614860Y-123461875D01*
X169435875Y-123640860D01*
X169397695Y-123698000D01*
X145665631Y-123698000D01*
X139717693Y-117750063D01*
X139717688Y-117750057D01*
X138477631Y-116510000D01*
X138578722Y-116510000D01*
X138815309Y-116462939D01*
X140265648Y-117913279D01*
G37*
G04 #@! TD.AperFunction*
D25*
X118618001Y-106995632D02*
X118618000Y-109436577D01*
X118614314Y-109474000D01*
X118618000Y-109511423D01*
X118618000Y-109511425D01*
X118629026Y-109623377D01*
X118672598Y-109767014D01*
X118705535Y-109828635D01*
X118743355Y-109899392D01*
X118760267Y-109919999D01*
X118838578Y-110015422D01*
X118867654Y-110039284D01*
X122485692Y-113657322D01*
X122474747Y-113661856D01*
X122227431Y-113827107D01*
X122017107Y-114037431D01*
X121851856Y-114284747D01*
X121738029Y-114559549D01*
X121680000Y-114851278D01*
X121680000Y-115148722D01*
X121709709Y-115298079D01*
X118364000Y-111952370D01*
X118364000Y-107730542D01*
X118430586Y-107630889D01*
X118501068Y-107460729D01*
X118537000Y-107280089D01*
X118537000Y-107095911D01*
X118501068Y-106915271D01*
X118475208Y-106852839D01*
X118618001Y-106995632D01*
G04 #@! TA.AperFunction,Conductor*
D27*
G36*
X118618001Y-106995632D02*
G01*
X118618000Y-109436577D01*
X118614314Y-109474000D01*
X118618000Y-109511423D01*
X118618000Y-109511425D01*
X118629026Y-109623377D01*
X118672598Y-109767014D01*
X118705535Y-109828635D01*
X118743355Y-109899392D01*
X118760267Y-109919999D01*
X118838578Y-110015422D01*
X118867654Y-110039284D01*
X122485692Y-113657322D01*
X122474747Y-113661856D01*
X122227431Y-113827107D01*
X122017107Y-114037431D01*
X121851856Y-114284747D01*
X121738029Y-114559549D01*
X121680000Y-114851278D01*
X121680000Y-115148722D01*
X121709709Y-115298079D01*
X118364000Y-111952370D01*
X118364000Y-107730542D01*
X118430586Y-107630889D01*
X118501068Y-107460729D01*
X118537000Y-107280089D01*
X118537000Y-107095911D01*
X118501068Y-106915271D01*
X118475208Y-106852839D01*
X118618001Y-106995632D01*
G37*
G04 #@! TD.AperFunction*
D25*
X167132001Y-109158368D02*
X164276370Y-112014000D01*
X161605630Y-112014000D01*
X165751952Y-107867679D01*
X165969740Y-107911000D01*
X166262260Y-107911000D01*
X166549158Y-107853932D01*
X166819411Y-107741990D01*
X167062632Y-107579475D01*
X167132001Y-107510106D01*
X167132001Y-109158368D01*
G04 #@! TA.AperFunction,Conductor*
D27*
G36*
X167132001Y-109158368D02*
G01*
X164276370Y-112014000D01*
X161605630Y-112014000D01*
X165751952Y-107867679D01*
X165969740Y-107911000D01*
X166262260Y-107911000D01*
X166549158Y-107853932D01*
X166819411Y-107741990D01*
X167062632Y-107579475D01*
X167132001Y-107510106D01*
X167132001Y-109158368D01*
G37*
G04 #@! TD.AperFunction*
D25*
X165169368Y-89799475D02*
X165343760Y-89916000D01*
X165169368Y-90032525D01*
X164962525Y-90239368D01*
X164800010Y-90482589D01*
X164688068Y-90752842D01*
X164631000Y-91039740D01*
X164631000Y-91332260D01*
X164688068Y-91619158D01*
X164800010Y-91889411D01*
X164962525Y-92132632D01*
X165169368Y-92339475D01*
X165343760Y-92456000D01*
X165169368Y-92572525D01*
X164962525Y-92779368D01*
X164800010Y-93022589D01*
X164688068Y-93292842D01*
X164631000Y-93579740D01*
X164631000Y-93872260D01*
X164688068Y-94159158D01*
X164800010Y-94429411D01*
X164962525Y-94672632D01*
X165169368Y-94879475D01*
X165343760Y-94996000D01*
X165169368Y-95112525D01*
X164962525Y-95319368D01*
X164800010Y-95562589D01*
X164688068Y-95832842D01*
X164631000Y-96119740D01*
X164631000Y-96412260D01*
X164688068Y-96699158D01*
X164800010Y-96969411D01*
X164962525Y-97212632D01*
X165169368Y-97419475D01*
X165343760Y-97536000D01*
X165169368Y-97652525D01*
X164962525Y-97859368D01*
X164800010Y-98102589D01*
X164688068Y-98372842D01*
X164631000Y-98659740D01*
X164631000Y-98952260D01*
X164688068Y-99239158D01*
X164800010Y-99509411D01*
X164962525Y-99752632D01*
X165169368Y-99959475D01*
X165343760Y-100076000D01*
X165169368Y-100192525D01*
X164962525Y-100399368D01*
X164800010Y-100642589D01*
X164688068Y-100912842D01*
X164631000Y-101199740D01*
X164631000Y-101492260D01*
X164688068Y-101779158D01*
X164800010Y-102049411D01*
X164962525Y-102292632D01*
X165169368Y-102499475D01*
X165343760Y-102616000D01*
X165169368Y-102732525D01*
X164962525Y-102939368D01*
X164800010Y-103182589D01*
X164688068Y-103452842D01*
X164631000Y-103739740D01*
X164631000Y-104032260D01*
X164688068Y-104319158D01*
X164800010Y-104589411D01*
X164962525Y-104832632D01*
X165169368Y-105039475D01*
X165343760Y-105156000D01*
X165169368Y-105272525D01*
X164962525Y-105479368D01*
X164800010Y-105722589D01*
X164688068Y-105992842D01*
X164631000Y-106279740D01*
X164631000Y-106572260D01*
X164674321Y-106790048D01*
X160466370Y-110998000D01*
X157267462Y-110998000D01*
X157382893Y-110882569D01*
X157548144Y-110635253D01*
X157661971Y-110360451D01*
X157720000Y-110068722D01*
X157720000Y-109771278D01*
X157661971Y-109479549D01*
X157548144Y-109204747D01*
X157382893Y-108957431D01*
X157172569Y-108747107D01*
X156925253Y-108581856D01*
X156650451Y-108468029D01*
X156358722Y-108410000D01*
X156061278Y-108410000D01*
X155769549Y-108468029D01*
X155494747Y-108581856D01*
X155247431Y-108747107D01*
X155037107Y-108957431D01*
X154940000Y-109102762D01*
X154842893Y-108957431D01*
X154632569Y-108747107D01*
X154385253Y-108581856D01*
X154110451Y-108468029D01*
X153818722Y-108410000D01*
X153521278Y-108410000D01*
X153229549Y-108468029D01*
X152954747Y-108581856D01*
X152707431Y-108747107D01*
X152497107Y-108957431D01*
X152400000Y-109102762D01*
X152302893Y-108957431D01*
X152092569Y-108747107D01*
X151845253Y-108581856D01*
X151570451Y-108468029D01*
X151278722Y-108410000D01*
X150981278Y-108410000D01*
X150689549Y-108468029D01*
X150414747Y-108581856D01*
X150167431Y-108747107D01*
X149957107Y-108957431D01*
X149860000Y-109102762D01*
X149762893Y-108957431D01*
X149552569Y-108747107D01*
X149305253Y-108581856D01*
X149030451Y-108468029D01*
X148738722Y-108410000D01*
X148441278Y-108410000D01*
X148149549Y-108468029D01*
X147874747Y-108581856D01*
X147627431Y-108747107D01*
X147417107Y-108957431D01*
X147320000Y-109102762D01*
X147222893Y-108957431D01*
X147012569Y-108747107D01*
X146765253Y-108581856D01*
X146490451Y-108468029D01*
X146315922Y-108433313D01*
X165059564Y-89689671D01*
X165169368Y-89799475D01*
G04 #@! TA.AperFunction,Conductor*
D27*
G36*
X165169368Y-89799475D02*
G01*
X165343760Y-89916000D01*
X165169368Y-90032525D01*
X164962525Y-90239368D01*
X164800010Y-90482589D01*
X164688068Y-90752842D01*
X164631000Y-91039740D01*
X164631000Y-91332260D01*
X164688068Y-91619158D01*
X164800010Y-91889411D01*
X164962525Y-92132632D01*
X165169368Y-92339475D01*
X165343760Y-92456000D01*
X165169368Y-92572525D01*
X164962525Y-92779368D01*
X164800010Y-93022589D01*
X164688068Y-93292842D01*
X164631000Y-93579740D01*
X164631000Y-93872260D01*
X164688068Y-94159158D01*
X164800010Y-94429411D01*
X164962525Y-94672632D01*
X165169368Y-94879475D01*
X165343760Y-94996000D01*
X165169368Y-95112525D01*
X164962525Y-95319368D01*
X164800010Y-95562589D01*
X164688068Y-95832842D01*
X164631000Y-96119740D01*
X164631000Y-96412260D01*
X164688068Y-96699158D01*
X164800010Y-96969411D01*
X164962525Y-97212632D01*
X165169368Y-97419475D01*
X165343760Y-97536000D01*
X165169368Y-97652525D01*
X164962525Y-97859368D01*
X164800010Y-98102589D01*
X164688068Y-98372842D01*
X164631000Y-98659740D01*
X164631000Y-98952260D01*
X164688068Y-99239158D01*
X164800010Y-99509411D01*
X164962525Y-99752632D01*
X165169368Y-99959475D01*
X165343760Y-100076000D01*
X165169368Y-100192525D01*
X164962525Y-100399368D01*
X164800010Y-100642589D01*
X164688068Y-100912842D01*
X164631000Y-101199740D01*
X164631000Y-101492260D01*
X164688068Y-101779158D01*
X164800010Y-102049411D01*
X164962525Y-102292632D01*
X165169368Y-102499475D01*
X165343760Y-102616000D01*
X165169368Y-102732525D01*
X164962525Y-102939368D01*
X164800010Y-103182589D01*
X164688068Y-103452842D01*
X164631000Y-103739740D01*
X164631000Y-104032260D01*
X164688068Y-104319158D01*
X164800010Y-104589411D01*
X164962525Y-104832632D01*
X165169368Y-105039475D01*
X165343760Y-105156000D01*
X165169368Y-105272525D01*
X164962525Y-105479368D01*
X164800010Y-105722589D01*
X164688068Y-105992842D01*
X164631000Y-106279740D01*
X164631000Y-106572260D01*
X164674321Y-106790048D01*
X160466370Y-110998000D01*
X157267462Y-110998000D01*
X157382893Y-110882569D01*
X157548144Y-110635253D01*
X157661971Y-110360451D01*
X157720000Y-110068722D01*
X157720000Y-109771278D01*
X157661971Y-109479549D01*
X157548144Y-109204747D01*
X157382893Y-108957431D01*
X157172569Y-108747107D01*
X156925253Y-108581856D01*
X156650451Y-108468029D01*
X156358722Y-108410000D01*
X156061278Y-108410000D01*
X155769549Y-108468029D01*
X155494747Y-108581856D01*
X155247431Y-108747107D01*
X155037107Y-108957431D01*
X154940000Y-109102762D01*
X154842893Y-108957431D01*
X154632569Y-108747107D01*
X154385253Y-108581856D01*
X154110451Y-108468029D01*
X153818722Y-108410000D01*
X153521278Y-108410000D01*
X153229549Y-108468029D01*
X152954747Y-108581856D01*
X152707431Y-108747107D01*
X152497107Y-108957431D01*
X152400000Y-109102762D01*
X152302893Y-108957431D01*
X152092569Y-108747107D01*
X151845253Y-108581856D01*
X151570451Y-108468029D01*
X151278722Y-108410000D01*
X150981278Y-108410000D01*
X150689549Y-108468029D01*
X150414747Y-108581856D01*
X150167431Y-108747107D01*
X149957107Y-108957431D01*
X149860000Y-109102762D01*
X149762893Y-108957431D01*
X149552569Y-108747107D01*
X149305253Y-108581856D01*
X149030451Y-108468029D01*
X148738722Y-108410000D01*
X148441278Y-108410000D01*
X148149549Y-108468029D01*
X147874747Y-108581856D01*
X147627431Y-108747107D01*
X147417107Y-108957431D01*
X147320000Y-109102762D01*
X147222893Y-108957431D01*
X147012569Y-108747107D01*
X146765253Y-108581856D01*
X146490451Y-108468029D01*
X146315922Y-108433313D01*
X165059564Y-89689671D01*
X165169368Y-89799475D01*
G37*
G04 #@! TD.AperFunction*
D25*
X152973111Y-98364586D02*
X153143271Y-98435068D01*
X153323911Y-98471000D01*
X153508089Y-98471000D01*
X153688729Y-98435068D01*
X153858889Y-98364586D01*
X153892913Y-98341852D01*
X143797216Y-108437549D01*
X143658722Y-108410000D01*
X143361278Y-108410000D01*
X143069549Y-108468029D01*
X142794747Y-108581856D01*
X142547431Y-108747107D01*
X142337107Y-108957431D01*
X142240000Y-109102762D01*
X142142893Y-108957431D01*
X141932569Y-108747107D01*
X141685253Y-108581856D01*
X141410451Y-108468029D01*
X141118722Y-108410000D01*
X140821278Y-108410000D01*
X140529549Y-108468029D01*
X140254747Y-108581856D01*
X140007431Y-108747107D01*
X139797107Y-108957431D01*
X139700000Y-109102762D01*
X139602893Y-108957431D01*
X139392569Y-108747107D01*
X139145253Y-108581856D01*
X138870451Y-108468029D01*
X138578722Y-108410000D01*
X138281278Y-108410000D01*
X137989549Y-108468029D01*
X137714747Y-108581856D01*
X137467431Y-108747107D01*
X137257107Y-108957431D01*
X137160000Y-109102762D01*
X137062893Y-108957431D01*
X136852569Y-108747107D01*
X136605253Y-108581856D01*
X136330451Y-108468029D01*
X136038722Y-108410000D01*
X135741278Y-108410000D01*
X135449549Y-108468029D01*
X135174747Y-108581856D01*
X134927431Y-108747107D01*
X134717107Y-108957431D01*
X134620000Y-109102762D01*
X134522893Y-108957431D01*
X134312569Y-108747107D01*
X134065253Y-108581856D01*
X133790451Y-108468029D01*
X133498722Y-108410000D01*
X133201278Y-108410000D01*
X132909549Y-108468029D01*
X132634747Y-108581856D01*
X132387431Y-108747107D01*
X132177107Y-108957431D01*
X132080000Y-109102762D01*
X131982893Y-108957431D01*
X131772569Y-108747107D01*
X131525253Y-108581856D01*
X131250451Y-108468029D01*
X130958722Y-108410000D01*
X130857630Y-108410000D01*
X140969631Y-98298000D01*
X152873458Y-98298000D01*
X152973111Y-98364586D01*
G04 #@! TA.AperFunction,Conductor*
D27*
G36*
X152973111Y-98364586D02*
G01*
X153143271Y-98435068D01*
X153323911Y-98471000D01*
X153508089Y-98471000D01*
X153688729Y-98435068D01*
X153858889Y-98364586D01*
X153892913Y-98341852D01*
X143797216Y-108437549D01*
X143658722Y-108410000D01*
X143361278Y-108410000D01*
X143069549Y-108468029D01*
X142794747Y-108581856D01*
X142547431Y-108747107D01*
X142337107Y-108957431D01*
X142240000Y-109102762D01*
X142142893Y-108957431D01*
X141932569Y-108747107D01*
X141685253Y-108581856D01*
X141410451Y-108468029D01*
X141118722Y-108410000D01*
X140821278Y-108410000D01*
X140529549Y-108468029D01*
X140254747Y-108581856D01*
X140007431Y-108747107D01*
X139797107Y-108957431D01*
X139700000Y-109102762D01*
X139602893Y-108957431D01*
X139392569Y-108747107D01*
X139145253Y-108581856D01*
X138870451Y-108468029D01*
X138578722Y-108410000D01*
X138281278Y-108410000D01*
X137989549Y-108468029D01*
X137714747Y-108581856D01*
X137467431Y-108747107D01*
X137257107Y-108957431D01*
X137160000Y-109102762D01*
X137062893Y-108957431D01*
X136852569Y-108747107D01*
X136605253Y-108581856D01*
X136330451Y-108468029D01*
X136038722Y-108410000D01*
X135741278Y-108410000D01*
X135449549Y-108468029D01*
X135174747Y-108581856D01*
X134927431Y-108747107D01*
X134717107Y-108957431D01*
X134620000Y-109102762D01*
X134522893Y-108957431D01*
X134312569Y-108747107D01*
X134065253Y-108581856D01*
X133790451Y-108468029D01*
X133498722Y-108410000D01*
X133201278Y-108410000D01*
X132909549Y-108468029D01*
X132634747Y-108581856D01*
X132387431Y-108747107D01*
X132177107Y-108957431D01*
X132080000Y-109102762D01*
X131982893Y-108957431D01*
X131772569Y-108747107D01*
X131525253Y-108581856D01*
X131250451Y-108468029D01*
X130958722Y-108410000D01*
X130857630Y-108410000D01*
X140969631Y-98298000D01*
X152873458Y-98298000D01*
X152973111Y-98364586D01*
G37*
G04 #@! TD.AperFunction*
D25*
X111502981Y-96770611D02*
X111468576Y-96774000D01*
X107476842Y-96774000D01*
X107353475Y-96589368D01*
X107146632Y-96382525D01*
X106972240Y-96266000D01*
X107146632Y-96149475D01*
X107353475Y-95942632D01*
X107476842Y-95758000D01*
X110490370Y-95758000D01*
X111502981Y-96770611D01*
G04 #@! TA.AperFunction,Conductor*
D27*
G36*
X111502981Y-96770611D02*
G01*
X111468576Y-96774000D01*
X107476842Y-96774000D01*
X107353475Y-96589368D01*
X107146632Y-96382525D01*
X106972240Y-96266000D01*
X107146632Y-96149475D01*
X107353475Y-95942632D01*
X107476842Y-95758000D01*
X110490370Y-95758000D01*
X111502981Y-96770611D01*
G37*
G04 #@! TD.AperFunction*
M02*
