M48
; DRILL file {KiCad (5.1.9-0-10_14)} date Sunday, November 21, 2021 at 11:40:08 AM
; FORMAT={-:-/ absolute / inch / decimal}
; #@! TF.CreationDate,2021-11-21T11:40:08-08:00
; #@! TF.GenerationSoftware,Kicad,Pcbnew,(5.1.9-0-10_14)
; #@! TF.FileFunction,NonPlated,1,2,NPTH
FMAT,2
INCH
T1C0.0200
T2C0.1476
%
G90
G05
T1
X3.9563Y-3.715
X3.9563Y-3.75
X3.9563Y-3.785
X3.9563Y-3.82
X3.9563Y-3.855
X3.9563Y-5.1
X3.9563Y-5.135
X3.9563Y-5.17
X3.9563Y-5.205
X3.9563Y-5.24
X4.0363Y-3.715
X4.0363Y-3.75
X4.0363Y-3.785
X4.0363Y-3.82
X4.0363Y-3.855
X4.0363Y-5.1
X4.0363Y-5.135
X4.0363Y-5.17
X4.0363Y-5.205
X4.0363Y-5.24
X6.9637Y-3.715
X6.9637Y-3.75
X6.9637Y-3.785
X6.9637Y-3.82
X6.9637Y-3.855
X6.9637Y-5.1
X6.9637Y-5.135
X6.9637Y-5.17
X6.9637Y-5.205
X6.9637Y-5.24
X7.0437Y-3.715
X7.0437Y-3.75
X7.0437Y-3.785
X7.0437Y-3.82
X7.0437Y-3.855
X7.0437Y-5.1
X7.0437Y-5.135
X7.0437Y-5.17
X7.0437Y-5.205
X7.0437Y-5.24
T2
X1.1575Y-2.76
X1.1575Y-5.95
X3.1525Y-5.95
X3.8275Y-2.76
X7.1725Y-2.76
X7.1725Y-5.95
X9.1675Y-5.95
X9.8425Y-2.76
T0
M30
