<?xml version="1.0" encoding="UTF-8" standalone="no"?>
<!DOCTYPE svg PUBLIC "-//W3C//DTD SVG 1.1//EN" "http://www.w3.org/Graphics/SVG/1.1/DTD/svg11.dtd">
<svg width="100%" height="100%" viewBox="0 0 210 248" version="1.1" xmlns="http://www.w3.org/2000/svg" xmlns:xlink="http://www.w3.org/1999/xlink" xml:space="preserve" xmlns:serif="http://www.serif.com/" style="fill-rule:evenodd;clip-rule:evenodd;">
    <g id="Front">
        <path id="Cut" d="M9,247.096C4.063,247.096 0,243.033 0,238.096L0,9C0,4.063 4.063,-0 9,0L200.339,0C205.276,0 209.339,4.063 209.339,9L209.419,207.31C209.422,214.067 205.814,220.335 199.968,223.726L159.386,244.857C156.625,246.294 153.563,247.061 150.451,247.096L9,247.096ZM146.732,238.32C146.732,241.315 149.196,243.779 152.191,243.779C155.186,243.779 157.65,241.315 157.65,238.32C157.65,235.326 155.186,232.862 152.191,232.862C149.196,232.862 146.732,235.326 146.732,238.32ZM3.092,238.32C3.092,241.315 5.557,243.779 8.551,243.779C11.546,243.779 14.01,241.315 14.01,238.32C14.01,235.326 11.546,232.862 8.551,232.862C5.557,232.862 3.092,235.326 3.092,238.32ZM188.884,216.237C189.34,217.113 188.994,218.21 188.118,218.666C187.241,219.123 186.144,218.777 185.688,217.901L179.042,205.127C178.587,204.252 178.932,203.157 179.807,202.702C180.681,202.247 181.775,202.591 182.231,203.464L188.884,216.237ZM65.916,206.366L62.489,200.188C60.859,197.257 57.107,196.186 54.176,197.816C53.18,198.37 52.358,199.192 51.804,200.188L48.369,206.366C48.047,206.945 47.895,207.604 47.93,208.266L47.937,213.594C47.939,214.759 48.897,215.717 50.061,215.718L64.231,215.718C65.397,215.718 66.358,214.761 66.362,213.594L66.355,208.266C66.354,207.608 66.204,206.958 65.916,206.366ZM195.27,212.91C195.726,213.787 195.381,214.883 194.504,215.34C193.628,215.797 192.531,215.451 192.074,214.574L185.427,201.799C184.972,200.924 185.317,199.829 186.193,199.374C187.067,198.919 188.162,199.263 188.618,200.138L195.27,212.91ZM195.003,196.817L201.657,209.592C202.113,210.468 201.768,211.564 200.892,212.02C200.016,212.476 198.92,212.131 198.464,211.255L191.814,198.474C191.36,197.6 191.706,196.507 192.58,196.052C193.454,195.597 194.548,195.943 195.003,196.817ZM129.196,192.748C129.196,197.802 133.355,201.961 138.409,201.961C143.463,201.961 147.621,197.802 147.621,192.748C147.621,187.694 143.463,183.536 138.409,183.536C133.355,183.536 129.196,187.694 129.196,192.748ZM76.312,178.43L70.142,181.857C67.211,183.488 66.142,187.242 67.773,190.173C68.327,191.167 69.147,191.988 70.142,192.542L76.312,195.976C76.892,196.299 77.551,196.451 78.213,196.415L83.541,196.408C84.707,196.406 85.667,195.45 85.672,194.284L85.672,180.107C85.672,178.942 84.714,177.983 83.548,177.983L78.213,177.99C77.555,177.991 76.905,178.142 76.312,178.43ZM36.079,177.983L30.751,177.983C29.586,177.983 28.627,178.942 28.627,180.107L28.627,194.284C28.627,195.449 29.586,196.408 30.751,196.408L36.079,196.408C36.738,196.408 37.388,196.258 37.98,195.969L44.157,192.542C47.088,190.916 48.162,187.166 46.536,184.235C45.981,183.236 45.157,182.411 44.157,181.857L37.98,178.422C37.4,178.1 36.741,177.948 36.079,177.983ZM156.916,178.708C156.916,183.762 161.075,187.921 166.129,187.921C171.182,187.921 175.341,183.762 175.341,178.708C175.341,173.654 171.182,169.496 166.129,169.496C161.075,169.496 156.916,173.654 156.916,178.708ZM48.377,168.026L51.804,174.203C53.43,177.134 57.179,178.208 60.11,176.582C61.11,176.027 61.934,175.203 62.489,174.203L65.923,168.033C66.245,167.453 66.398,166.794 66.362,166.132L66.362,160.804C66.362,159.635 65.4,158.673 64.231,158.673L50.061,158.673C48.896,158.673 47.937,159.632 47.937,160.797L47.937,166.132C47.937,166.789 48.088,167.436 48.377,168.026ZM19.627,29.873L19.627,127.101C19.627,129.435 21.548,131.356 23.882,131.356L159.515,131.356C161.199,131.356 162.859,130.951 164.354,130.175L187.134,118.317C188.628,117.54 189.606,116.03 189.705,114.35L189.705,29.873C189.705,27.542 187.787,25.625 185.457,25.625L23.882,25.625C21.551,25.625 19.631,27.541 19.627,29.873ZM3.092,8.642C3.092,11.636 5.557,14.101 8.551,14.101C11.546,14.101 14.01,11.636 14.01,8.642C14.01,5.647 11.546,3.183 8.551,3.183C5.557,3.183 3.092,5.647 3.092,8.642ZM195.332,8.642C195.332,11.636 197.796,14.101 200.791,14.101C203.785,14.101 206.25,11.636 206.25,8.642C206.25,5.647 203.785,3.183 200.791,3.183C197.796,3.183 195.332,5.647 195.332,8.642Z" style="fill:rgb(218,218,218);"/>
        <g id="Engrave">
            <g>
                <path d="M48.837,168.856C44.418,170.882 40.835,174.464 38.808,178.883" style="fill:none;fill-rule:nonzero;stroke:rgb(100,100,100);stroke-width:1px;"/>
                <path d="M38.805,195.511C40.829,199.93 44.41,203.513 48.828,205.541" style="fill:none;fill-rule:nonzero;stroke:rgb(100,100,100);stroke-width:1px;"/>
                <path d="M65.462,205.547C69.882,203.521 73.465,199.94 75.493,195.52" style="fill:none;fill-rule:nonzero;stroke:rgb(100,100,100);stroke-width:1px;"/>
                <path d="M75.495,178.884C73.468,174.464 69.885,170.882 65.465,168.856" style="fill:none;fill-rule:nonzero;stroke:rgb(100,100,100);stroke-width:1px;"/>
            </g>
            <g>
                <g transform="matrix(1,0,0,-1,-25.2719,-6.46557)">
                    <path d="M169.149,-209.721L196.869,-195.681C196.869,-195.681 196.869,-195.681 196.869,-195.681C202.6,-192.614 204.792,-185.375 201.725,-179.644C198.706,-174.002 191.634,-171.773 185.925,-174.664L158.205,-188.704C158.205,-188.704 158.205,-188.704 158.205,-188.704C152.474,-191.771 150.282,-199.01 153.349,-204.741C156.368,-210.383 163.44,-212.612 169.149,-209.721Z" style="fill:none;fill-rule:nonzero;stroke:rgb(100,100,100);stroke-width:1px;"/>
                </g>
                <g transform="matrix(0.470601,-0.24498,0.261662,0.502649,71.6239,139.472)">
                    <path d="M123.737,113.341L119.613,113.341C119.018,113.341 118.593,113.216 118.339,112.966C118.084,112.716 117.957,112.318 117.957,111.773L117.957,102.277C117.957,101.72 118.087,101.319 118.348,101.075C118.609,100.831 119.031,100.709 119.613,100.709L123.985,100.709C124.629,100.709 125.188,100.746 125.66,100.821C126.132,100.896 126.556,101.039 126.93,101.252C127.249,101.43 127.531,101.655 127.777,101.928C128.022,102.201 128.209,102.503 128.338,102.833C128.467,103.163 128.531,103.512 128.531,103.88C128.531,105.144 127.857,106.068 126.507,106.654C128.28,107.183 129.167,108.211 129.167,109.739C129.167,110.446 128.973,111.082 128.587,111.648C128.2,112.213 127.679,112.631 127.022,112.901C126.611,113.062 126.139,113.176 125.605,113.242C125.071,113.308 124.448,113.341 123.737,113.341ZM123.534,107.731L120.69,107.731L120.69,111.419L123.626,111.419C125.473,111.419 126.396,110.796 126.396,109.55C126.396,108.912 126.157,108.449 125.678,108.162C125.2,107.875 124.485,107.731 123.534,107.731ZM120.69,102.63L120.69,105.896L123.194,105.896C123.875,105.896 124.401,105.836 124.772,105.715C125.143,105.595 125.427,105.365 125.623,105.026C125.777,104.785 125.853,104.515 125.853,104.216C125.853,103.578 125.611,103.155 125.126,102.945C124.642,102.735 123.902,102.63 122.908,102.63L120.69,102.63Z" style="fill:rgb(100,100,100);fill-rule:nonzero;"/>
                </g>
                <g transform="matrix(0.542644,-0.282483,0.262697,0.504635,35.1934,157.668)">
                    <path d="M126.608,111.866L125.964,110.286L120.479,110.286L119.834,111.9C119.583,112.529 119.368,112.954 119.19,113.174C119.012,113.395 118.721,113.505 118.316,113.505C117.972,113.505 117.668,113.388 117.405,113.153C117.141,112.918 117.009,112.652 117.009,112.355C117.009,112.183 117.04,112.006 117.101,111.823C117.162,111.64 117.264,111.385 117.405,111.059L120.856,102.888C120.954,102.653 121.072,102.372 121.21,102.043C121.348,101.714 121.496,101.44 121.652,101.223C121.808,101.006 122.014,100.83 122.269,100.695C122.523,100.561 122.838,100.494 123.212,100.494C123.592,100.494 123.91,100.561 124.165,100.695C124.419,100.83 124.625,101.003 124.781,101.214C124.938,101.426 125.069,101.654 125.177,101.897C125.284,102.14 125.421,102.465 125.586,102.871L129.111,110.99C129.387,111.608 129.525,112.057 129.525,112.338C129.525,112.629 129.395,112.897 129.134,113.14C128.874,113.383 128.559,113.505 128.191,113.505C127.976,113.505 127.792,113.469 127.639,113.398C127.485,113.326 127.357,113.229 127.252,113.106C127.148,112.983 127.036,112.794 126.916,112.539C126.797,112.285 126.694,112.06 126.608,111.866ZM121.196,108.372L125.227,108.372L123.194,103.18L121.196,108.372Z" style="fill:rgb(100,100,100);fill-rule:nonzero;"/>
                </g>
            </g>
            <g>
                <g transform="matrix(1,0,0,-1,-25.2719,-6.46557)">
                    <path d="M232.306,-151.186L228.762,-151.186L232.306,-163.426L232.306,-151.186Z" style="fill:rgb(100,100,100);fill-rule:nonzero;"/>
                </g>
                <g>
                    <g transform="matrix(8.38096e-17,-0.383585,0.275971,-1.6263e-16,175.757,210.377)">
                        <path d="M112.259,102.207L114.358,110.844L116.463,102.145C116.573,101.689 116.655,101.371 116.71,101.192C116.764,101.013 116.855,100.852 116.982,100.709C117.108,100.565 117.281,100.494 117.5,100.494C117.66,100.494 117.809,100.549 117.946,100.66C118.083,100.772 118.19,100.92 118.268,101.104C118.346,101.289 118.385,101.475 118.385,101.662C118.385,101.791 118.372,101.93 118.347,102.08C118.322,102.229 118.29,102.375 118.252,102.519C118.214,102.662 118.176,102.81 118.138,102.963L115.894,111.38C115.814,111.702 115.734,112.008 115.654,112.298C115.574,112.588 115.481,112.843 115.376,113.063C115.27,113.283 115.13,113.463 114.955,113.603C114.781,113.744 114.567,113.814 114.314,113.814C114.061,113.814 113.847,113.745 113.672,113.608C113.497,113.47 113.356,113.288 113.249,113.063C113.141,112.837 113.047,112.581 112.967,112.294C112.887,112.007 112.807,111.702 112.727,111.38L110.521,103.033C110.483,102.881 110.444,102.731 110.404,102.585C110.364,102.438 110.33,102.28 110.303,102.11C110.275,101.94 110.262,101.797 110.262,101.68C110.262,101.381 110.348,101.109 110.521,100.863C110.694,100.617 110.911,100.494 111.172,100.494C111.492,100.494 111.719,100.63 111.852,100.902C111.984,101.174 112.12,101.609 112.259,102.207Z" style="fill:rgb(100,100,100);fill-rule:nonzero;"/>
                        <path d="M123.701,100.494C124.662,100.494 125.487,100.764 126.176,101.306C126.865,101.848 127.387,102.618 127.741,103.617C128.095,104.616 128.272,105.789 128.272,107.136C128.272,108.132 128.175,109.037 127.981,109.851C127.787,110.666 127.496,111.371 127.109,111.969C126.721,112.566 126.245,113.023 125.68,113.34C125.115,113.656 124.468,113.814 123.739,113.814C123.014,113.814 122.365,113.652 121.792,113.326C121.219,113.001 120.741,112.543 120.357,111.951C119.974,111.36 119.684,110.648 119.488,109.816C119.292,108.984 119.194,108.085 119.194,107.119C119.194,106.129 119.296,105.221 119.501,104.395C119.705,103.569 120.001,102.866 120.389,102.286C120.777,101.706 121.249,101.262 121.805,100.955C122.361,100.647 122.993,100.494 123.701,100.494ZM126.369,107.119C126.369,106.176 126.26,105.358 126.04,104.667C125.821,103.976 125.508,103.453 125.102,103.099C124.695,102.744 124.228,102.567 123.701,102.567C123.326,102.567 122.98,102.665 122.661,102.862C122.343,103.058 122.069,103.343 121.84,103.718C121.61,104.093 121.429,104.572 121.296,105.155C121.163,105.738 121.097,106.392 121.097,107.119C121.097,107.851 121.163,108.513 121.296,109.104C121.429,109.696 121.616,110.187 121.859,110.576C122.101,110.966 122.379,111.257 122.693,111.45C123.007,111.644 123.352,111.74 123.727,111.74C124.207,111.74 124.649,111.574 125.051,111.24C125.453,110.906 125.774,110.39 126.012,109.693C126.25,108.996 126.369,108.138 126.369,107.119Z" style="fill:rgb(100,100,100);fill-rule:nonzero;"/>
                        <path d="M131.717,102.075L131.717,111.45L135.523,111.45C135.826,111.45 136.059,111.553 136.221,111.758C136.384,111.963 136.465,112.221 136.465,112.531C136.465,112.848 136.385,113.104 136.224,113.3C136.064,113.496 135.83,113.594 135.523,113.594L130.99,113.594C130.581,113.594 130.287,113.468 130.108,113.217C129.929,112.965 129.84,112.558 129.84,111.995L129.84,102.075C129.84,101.548 129.925,101.153 130.096,100.889C130.266,100.625 130.491,100.494 130.769,100.494C131.051,100.494 131.28,100.624 131.455,100.885C131.63,101.145 131.717,101.542 131.717,102.075Z" style="fill:rgb(100,100,100);fill-rule:nonzero;"/>
                    </g>
                    <g transform="matrix(1.80842e-16,-0.827687,0.827687,-4.87759e-16,120.313,258.413)">
                        <text x="108.957px" y="104.862px" style="font-family:'ArialRoundedMTBold', 'Arial Rounded MT Bold', sans-serif;font-size:6px;fill:rgb(100,100,100);">VOL</text>
                    </g>
                </g>
            </g>
            <g>
                <g transform="matrix(1,0,0,-1,-25.2719,-6.46557)">
                    <path d="M43.92,-6.466L43.92,-25.185" style="fill:none;fill-rule:nonzero;stroke:rgb(100,100,100);stroke-width:1px;"/>
                </g>
                <g transform="matrix(1,0,0,-1,-25.2719,-6.46557)">
                    <path d="M25.272,-25.185L234.615,-25.185" style="fill:none;fill-rule:nonzero;stroke:rgb(100,100,100);stroke-width:1px;"/>
                </g>
                <g transform="matrix(1,0,0,-1,-25.2719,-6.46557)">
                    <path d="M215.956,-6.466L215.956,-25.185" style="fill:none;fill-rule:nonzero;stroke:rgb(100,100,100);stroke-width:1px;"/>
                </g>
            </g>
            <g>
                <g transform="matrix(1,0,0,-1,-25.2719,-6.46557)">
                    <path d="M65.318,-8.266C66.701,-8.266 67.838,-9.403 67.838,-10.786C67.838,-12.168 66.701,-13.306 65.318,-13.306L51.278,-13.306C49.896,-13.306 48.758,-12.168 48.758,-10.786C48.758,-9.403 49.896,-8.266 51.278,-8.266L65.318,-8.266Z" style="fill:none;fill-rule:nonzero;stroke:rgb(100,100,100);stroke-width:1px;"/>
                </g>
                <g transform="matrix(1,0,0,-1,-25.2719,-6.46557)">
                    <path d="M53.647,-6.466L53.647,-8.266" style="fill:none;fill-rule:nonzero;stroke:rgb(100,100,100);stroke-width:1px;"/>
                </g>
                <g transform="matrix(1,0,0,-1,-25.2719,-6.46557)">
                    <path d="M55.065,-6.466L55.065,-8.266" style="fill:none;fill-rule:nonzero;stroke:rgb(100,100,100);stroke-width:1px;"/>
                </g>
                <g transform="matrix(1,0,0,-1,-25.2719,-6.46557)">
                    <path d="M56.484,-6.466L56.484,-8.266" style="fill:none;fill-rule:nonzero;stroke:rgb(100,100,100);stroke-width:1px;"/>
                </g>
                <g transform="matrix(0.571658,-2.01635e-17,3.58875e-16,0.223916,-37.4483,-19.6935)">
                    <g>
                        <path d="M112.493,108.518L111.564,108.518L111.564,112.138C111.564,112.656 111.516,113.048 111.42,113.316C111.325,113.583 111.204,113.717 111.058,113.717C110.905,113.717 110.782,113.585 110.689,113.32C110.596,113.055 110.549,112.667 110.549,112.156L110.549,102.299C110.549,101.729 110.6,101.322 110.703,101.078C110.805,100.834 110.968,100.712 111.191,100.712L112.493,100.712C112.878,100.712 113.174,100.787 113.381,100.938C113.586,101.084 113.763,101.325 113.913,101.662C114.062,102 114.175,102.412 114.253,102.901C114.33,103.389 114.369,103.939 114.369,104.55C114.369,105.852 114.212,106.839 113.897,107.511C113.583,108.182 113.115,108.518 112.493,108.518ZM112.247,102.657L111.564,102.657L111.564,106.564L112.247,106.564C112.486,106.564 112.686,106.5 112.847,106.373C113.007,106.245 113.13,106.035 113.214,105.745C113.298,105.454 113.34,105.073 113.34,104.602C113.34,104.038 113.275,103.578 113.146,103.224C113,102.846 112.7,102.657 112.247,102.657Z" style="fill:rgb(100,100,100);fill-rule:nonzero;"/>
                        <path d="M117.42,100.494C117.939,100.494 118.385,100.762 118.757,101.3C119.13,101.838 119.412,102.603 119.603,103.594C119.794,104.586 119.89,105.75 119.89,107.088C119.89,108.076 119.838,108.975 119.733,109.783C119.628,110.591 119.471,111.292 119.261,111.885C119.052,112.478 118.794,112.932 118.489,113.246C118.184,113.56 117.834,113.717 117.44,113.717C117.049,113.717 116.698,113.556 116.388,113.233C116.078,112.91 115.82,112.455 115.612,111.868C115.405,111.28 115.249,110.574 115.143,109.748C115.037,108.922 114.984,108.03 114.984,107.07C114.984,106.088 115.039,105.186 115.149,104.366C115.26,103.546 115.42,102.849 115.63,102.273C115.839,101.697 116.094,101.257 116.395,100.951C116.695,100.646 117.037,100.494 117.42,100.494ZM118.862,107.07C118.862,106.134 118.802,105.323 118.684,104.637C118.566,103.951 118.396,103.432 118.177,103.08C117.957,102.728 117.705,102.552 117.42,102.552C117.217,102.552 117.03,102.649 116.858,102.844C116.686,103.039 116.538,103.323 116.414,103.695C116.289,104.067 116.192,104.542 116.12,105.121C116.048,105.699 116.012,106.349 116.012,107.07C116.012,107.797 116.048,108.454 116.12,109.042C116.192,109.629 116.293,110.116 116.424,110.503C116.555,110.889 116.705,111.179 116.875,111.371C117.045,111.562 117.231,111.658 117.433,111.658C117.693,111.658 117.932,111.493 118.149,111.161C118.367,110.83 118.54,110.318 118.669,109.626C118.797,108.934 118.862,108.082 118.862,107.07Z" style="fill:rgb(100,100,100);fill-rule:nonzero;"/>
                        <path d="M124.39,111.484L123.58,103.817L122.76,111.484C122.696,112.065 122.645,112.483 122.608,112.736C122.57,112.989 122.505,113.215 122.411,113.416C122.318,113.617 122.194,113.717 122.039,113.717C121.914,113.717 121.811,113.657 121.73,113.538C121.649,113.419 121.583,113.25 121.533,113.032C121.483,112.814 121.442,112.555 121.41,112.256C121.379,111.956 121.35,111.679 121.325,111.423L120.491,102.814C120.441,102.314 120.416,101.933 120.416,101.671C120.416,101.34 120.462,101.06 120.553,100.834C120.644,100.607 120.757,100.494 120.891,100.494C121.076,100.494 121.2,100.645 121.263,100.947C121.327,101.249 121.383,101.689 121.431,102.264L122.087,109.731L122.821,102.744C122.876,102.209 122.925,101.802 122.968,101.523C123.012,101.244 123.082,101.002 123.18,100.799C123.278,100.595 123.411,100.494 123.58,100.494C123.751,100.494 123.883,100.6 123.978,100.812C124.072,101.024 124.138,101.255 124.174,101.505C124.211,101.755 124.26,102.168 124.321,102.744L125.063,109.731L125.719,102.264C125.751,101.875 125.781,101.569 125.809,101.348C125.838,101.127 125.887,100.93 125.956,100.755C126.026,100.581 126.126,100.494 126.259,100.494C126.391,100.494 126.503,100.605 126.595,100.829C126.687,101.053 126.733,101.334 126.733,101.671C126.733,101.909 126.708,102.29 126.658,102.814L125.825,111.423C125.768,112.004 125.72,112.43 125.683,112.701C125.645,112.971 125.581,113.208 125.492,113.412C125.402,113.615 125.275,113.717 125.111,113.717C124.956,113.717 124.832,113.618 124.738,113.42C124.645,113.223 124.58,113 124.543,112.753C124.507,112.506 124.456,112.083 124.39,111.484Z" style="fill:rgb(100,100,100);fill-rule:nonzero;"/>
                        <path d="M130.707,102.709L128.421,102.709L128.421,105.849L130.526,105.849C130.681,105.849 130.796,105.938 130.873,106.115C130.949,106.293 130.987,106.527 130.987,106.817C130.987,107.108 130.95,107.345 130.874,107.528C130.799,107.711 130.683,107.803 130.526,107.803L128.421,107.803L128.421,111.44L130.786,111.44C130.945,111.44 131.065,111.535 131.146,111.724C131.227,111.913 131.267,112.164 131.267,112.478C131.267,112.781 131.227,113.026 131.146,113.215C131.065,113.404 130.945,113.499 130.786,113.499L128.028,113.499C127.807,113.499 127.649,113.374 127.552,113.124C127.455,112.874 127.407,112.47 127.407,111.911L127.407,102.299C127.407,101.927 127.428,101.623 127.471,101.388C127.515,101.152 127.582,100.981 127.675,100.873C127.767,100.765 127.885,100.712 128.028,100.712L130.707,100.712C130.869,100.712 130.989,100.803 131.067,100.986C131.146,101.17 131.185,101.409 131.185,101.706C131.185,102.008 131.146,102.251 131.067,102.434C130.989,102.617 130.869,102.709 130.707,102.709Z" style="fill:rgb(100,100,100);fill-rule:nonzero;"/>
                        <path d="M133.437,108.03L133.081,108.03L133.081,112.138C133.081,112.679 133.035,113.077 132.941,113.333C132.848,113.589 132.726,113.717 132.576,113.717C132.414,113.717 132.289,113.583 132.2,113.316C132.111,113.048 132.067,112.656 132.067,112.138L132.067,102.299C132.067,101.741 132.116,101.337 132.214,101.087C132.312,100.837 132.47,100.712 132.689,100.712L134.339,100.712C134.567,100.712 134.761,100.736 134.923,100.786C135.085,100.835 135.231,100.935 135.36,101.087C135.518,101.255 135.656,101.497 135.777,101.811C135.898,102.125 135.99,102.49 136.052,102.905C136.115,103.321 136.146,103.762 136.146,104.227C136.146,105.18 136.041,105.942 135.83,106.512C135.619,107.082 135.3,107.486 134.872,107.725C135.052,107.969 135.224,108.329 135.388,108.806C135.552,109.283 135.698,109.79 135.827,110.328C135.955,110.866 136.056,111.352 136.127,111.785C136.199,112.218 136.235,112.516 136.235,112.679C136.235,112.848 136.214,113.015 136.172,113.181C136.13,113.346 136.072,113.477 135.999,113.573C135.926,113.669 135.842,113.717 135.746,113.717C135.633,113.717 135.537,113.649 135.459,113.512C135.382,113.375 135.315,113.202 135.26,112.993C135.204,112.784 135.128,112.475 135.032,112.068L134.626,110.341C134.48,109.707 134.35,109.225 134.235,108.893C134.12,108.562 134.003,108.335 133.884,108.213C133.766,108.091 133.617,108.03 133.437,108.03ZM134.018,102.657L133.081,102.657L133.081,106.172L133.99,106.172C134.234,106.172 134.439,106.118 134.605,106.011C134.772,105.903 134.899,105.72 134.986,105.461C135.074,105.202 135.118,104.846 135.118,104.393C135.118,104.038 135.082,103.725 135.012,103.455C134.941,103.184 134.843,102.982 134.718,102.849C134.6,102.721 134.366,102.657 134.018,102.657Z" style="fill:rgb(100,100,100);fill-rule:nonzero;"/>
                    </g>
                </g>
            </g>
            <g id="logo" transform="matrix(0.0598628,0,0,0.0598628,-0.796693,117.272)">
                <g transform="matrix(17.4802,0,0,17.4802,-6782.28,-5486.5)">
                    <path d="M438.208,332.553L436.528,340.953L435.052,340.953L436.144,335.445L432.556,339.993L431.86,339.993L429.94,335.337L428.824,340.953L427.336,340.953L429.016,332.553L430.288,332.553L432.508,338.145L436.864,332.553L438.208,332.553Z" style="fill:rgb(100,100,100);fill-rule:nonzero;"/>
                    <path d="M445.396,336.657L446.872,336.657L446.188,340.041C445.764,340.369 445.282,340.623 444.742,340.803C444.202,340.983 443.64,341.073 443.056,341.073C442.232,341.073 441.512,340.923 440.896,340.623C440.28,340.323 439.806,339.903 439.474,339.363C439.142,338.823 438.976,338.197 438.976,337.485C438.976,336.541 439.192,335.685 439.624,334.917C440.056,334.149 440.668,333.543 441.46,333.099C442.252,332.655 443.164,332.433 444.196,332.433C444.956,332.433 445.62,332.551 446.188,332.787C446.756,333.023 447.216,333.365 447.568,333.813L446.44,334.749C446.168,334.421 445.844,334.181 445.468,334.029C445.092,333.877 444.644,333.801 444.124,333.801C443.412,333.801 442.786,333.959 442.246,334.275C441.706,334.591 441.288,335.021 440.992,335.565C440.696,336.109 440.548,336.717 440.548,337.389C440.548,338.101 440.78,338.665 441.244,339.081C441.708,339.497 442.372,339.705 443.236,339.705C443.82,339.705 444.364,339.573 444.868,339.309L445.396,336.657Z" style="fill:rgb(100,100,100);fill-rule:nonzero;"/>
                </g>
                <g transform="matrix(14.1558,0,0,14.1558,-5683.33,-4353.06)">
                    <path d="M430.912,341.013C430.28,341.013 429.712,340.867 429.208,340.575C428.704,340.283 428.306,339.885 428.014,339.381C427.722,338.877 427.576,338.305 427.576,337.665C427.576,337.033 427.718,336.465 428.002,335.961C428.286,335.457 428.672,335.059 429.16,334.767C429.648,334.475 430.2,334.329 430.816,334.329C431.352,334.329 431.836,334.443 432.268,334.671C432.7,334.899 433.048,335.201 433.312,335.577L433.312,332.049C433.312,331.905 433.356,331.791 433.444,331.707C433.532,331.623 433.644,331.581 433.78,331.581C433.916,331.581 434.028,331.623 434.116,331.707C434.204,331.791 434.248,331.905 434.248,332.049L434.248,337.713C434.232,338.337 434.078,338.899 433.786,339.399C433.494,339.899 433.098,340.293 432.598,340.581C432.098,340.869 431.536,341.013 430.912,341.013ZM430.912,340.173C431.376,340.173 431.79,340.063 432.154,339.843C432.518,339.623 432.806,339.325 433.018,338.949C433.23,338.573 433.336,338.145 433.336,337.665C433.336,337.193 433.23,336.767 433.018,336.387C432.806,336.007 432.518,335.709 432.154,335.493C431.79,335.277 431.376,335.169 430.912,335.169C430.456,335.169 430.044,335.277 429.676,335.493C429.308,335.709 429.016,336.007 428.8,336.387C428.584,336.767 428.476,337.193 428.476,337.665C428.476,338.145 428.584,338.573 428.8,338.949C429.016,339.325 429.308,339.623 429.676,339.843C430.044,340.063 430.456,340.173 430.912,340.173Z" style="fill:rgb(100,100,100);fill-rule:nonzero;"/>
                    <path d="M439.396,341.013C438.756,341.013 438.184,340.869 437.68,340.581C437.176,340.293 436.78,339.897 436.492,339.393C436.204,338.889 436.06,338.317 436.06,337.677C436.06,337.029 436.204,336.453 436.492,335.949C436.78,335.445 437.176,335.049 437.68,334.761C438.184,334.473 438.756,334.329 439.396,334.329C440.036,334.329 440.606,334.473 441.106,334.761C441.606,335.049 442,335.445 442.288,335.949C442.576,336.453 442.724,337.029 442.732,337.677C442.732,338.317 442.586,338.889 442.294,339.393C442.002,339.897 441.606,340.293 441.106,340.581C440.606,340.869 440.036,341.013 439.396,341.013ZM439.396,340.173C439.86,340.173 440.276,340.065 440.644,339.849C441.012,339.633 441.3,339.337 441.508,338.961C441.716,338.585 441.82,338.157 441.82,337.677C441.82,337.197 441.716,336.767 441.508,336.387C441.3,336.007 441.012,335.709 440.644,335.493C440.276,335.277 439.86,335.169 439.396,335.169C438.932,335.169 438.516,335.277 438.148,335.493C437.78,335.709 437.49,336.007 437.278,336.387C437.066,336.767 436.96,337.197 436.96,337.677C436.96,338.157 437.066,338.585 437.278,338.961C437.49,339.337 437.78,339.633 438.148,339.849C438.516,340.065 438.932,340.173 439.396,340.173Z" style="fill:rgb(100,100,100);fill-rule:nonzero;"/>
                    <path d="M447.1,340.953C446.676,340.953 446.298,340.853 445.966,340.653C445.634,340.453 445.372,340.179 445.18,339.831C444.988,339.483 444.892,339.085 444.892,338.637L444.892,332.769C444.892,332.633 444.934,332.521 445.018,332.433C445.102,332.345 445.212,332.301 445.348,332.301C445.484,332.301 445.596,332.345 445.684,332.433C445.772,332.521 445.816,332.633 445.816,332.769L445.816,338.637C445.816,339.045 445.936,339.379 446.176,339.639C446.416,339.899 446.724,340.029 447.1,340.029L447.424,340.029C447.552,340.029 447.656,340.073 447.736,340.161C447.816,340.249 447.856,340.361 447.856,340.497C447.856,340.633 447.808,340.743 447.712,340.827C447.616,340.911 447.496,340.953 447.352,340.953L447.1,340.953ZM444.112,335.433C443.992,335.433 443.892,335.395 443.812,335.319C443.732,335.243 443.692,335.149 443.692,335.037C443.692,334.917 443.732,334.819 443.812,334.743C443.892,334.667 443.992,334.629 444.112,334.629L447.172,334.629C447.292,334.629 447.392,334.667 447.472,334.743C447.552,334.819 447.592,334.917 447.592,335.037C447.592,335.149 447.552,335.243 447.472,335.319C447.392,335.395 447.292,335.433 447.172,335.433L444.112,335.433Z" style="fill:rgb(100,100,100);fill-rule:nonzero;"/>
                </g>
                <g transform="matrix(0.814002,0,0,0.814002,422.086,123.295)">
                    <rect x="272.613" y="250.903" width="49.078" height="49.078" style="fill:rgb(100,100,100);"/>
                </g>
                <g transform="matrix(0.710664,0,0,0.659253,409.834,311.765)">
                    <path d="M911.155,37.264L900.918,37.264L900.918,30.271L929.298,30.271L929.298,37.264L919.061,37.264L919.061,66.151L911.155,66.151L911.155,37.264Z" style="fill:rgb(100,100,100);fill-rule:nonzero;"/>
                    <path d="M933.302,30.271L945.262,30.271L953.522,53.684L953.624,53.684L961.935,30.271L973.844,30.271L973.844,66.151L965.938,66.151L965.938,38.633L965.837,38.633L956.411,66.151L950.38,66.151L941.309,38.633L941.207,38.633L941.207,66.151L933.302,66.151L933.302,30.271Z" style="fill:rgb(100,100,100);fill-rule:nonzero;"/>
                </g>
            </g>
        </g>
    </g>
</svg>
