<?xml version="1.0" encoding="UTF-8" standalone="no"?>
<!DOCTYPE svg PUBLIC "-//W3C//DTD SVG 1.1//EN" "http://www.w3.org/Graphics/SVG/1.1/DTD/svg11.dtd">
<svg width="210px" height="248px" version="1.1" xmlns="http://www.w3.org/2000/svg" xmlns:xlink="http://www.w3.org/1999/xlink" xml:space="preserve" xmlns:serif="http://www.serif.com/" style="fill-rule:evenodd;clip-rule:evenodd;stroke-linejoin:round;stroke-miterlimit:2;">
    <g id="Back">
        <path id="Cut" d="M43.201,91.868l-0,-82.868c-0,-4.937 -4.063,-9 -9,-9l-25.121,0c-4.937,0 -9,4.063 -9,9l-0.08,198.31c-0.003,6.757 3.606,13.025 9.451,16.416l40.582,21.131c2.761,1.437 5.823,2.204 8.936,2.239l141.45,-0c4.937,-0 9,-4.063 9,-9l0,-229.096c0,-4.937 -4.063,-9 -9,-9l-25.113,0c-4.938,-0 -9,4.063 -9,9l-0,82.868c-0,2.332 -1.92,4.252 -4.252,4.252l-114.601,-0c-2.333,-0 -4.252,-1.92 -4.252,-4.252Zm163.126,146.452c-0,2.995 -2.465,5.459 -5.459,5.459c-2.995,0 -5.459,-2.464 -5.459,-5.459c-0,-2.994 2.464,-5.458 5.459,-5.458c2.994,-0 5.459,2.464 5.459,5.458Zm-143.64,0c0,2.995 -2.464,5.459 -5.459,5.459c-2.994,0 -5.459,-2.464 -5.459,-5.459c0,-2.994 2.465,-5.458 5.459,-5.458c2.995,-0 5.459,2.464 5.459,5.458Zm-48.6,-229.678c0,2.994 -2.464,5.459 -5.458,5.459c-2.995,-0 -5.459,-2.465 -5.459,-5.459c-0,-2.995 2.464,-5.459 5.459,-5.459c2.994,-0 5.458,2.464 5.458,5.459Zm192.24,-0c-0,2.994 -2.465,5.459 -5.459,5.459c-2.995,-0 -5.459,-2.465 -5.459,-5.459c-0,-2.995 2.464,-5.459 5.459,-5.459c2.994,-0 5.459,2.464 5.459,5.459Z" style="fill:#dadada;"/>
        <g id="Engrave">
            <g>
                <path d="M204.111,142.559l0,4.32l2.16,-2.16l-2.16,-2.16Z" style="fill:#646464;fill-rule:nonzero;"/>
                <path d="M200.666,139.121l0,-0.204l-0.92,0c-0.121,0 -0.21,-0.026 -0.267,-0.08c-0.058,-0.053 -0.086,-0.123 -0.086,-0.209c-0,-0.092 0.03,-0.164 0.089,-0.214c0.06,-0.051 0.148,-0.077 0.264,-0.077l2.203,0c0.125,0 0.216,0.028 0.272,0.084c0.056,0.056 0.084,0.147 0.084,0.272l-0,0.943c-0,0.13 -0.006,0.242 -0.017,0.334c-0.011,0.093 -0.033,0.176 -0.067,0.25c-0.038,0.09 -0.092,0.169 -0.162,0.238c-0.071,0.069 -0.152,0.122 -0.245,0.158c-0.094,0.035 -0.192,0.053 -0.296,0.053c-0.214,0 -0.384,-0.06 -0.512,-0.18c-0.128,-0.121 -0.218,-0.303 -0.272,-0.548c-0.054,0.103 -0.135,0.201 -0.242,0.295c-0.107,0.094 -0.22,0.177 -0.341,0.251c-0.12,0.073 -0.229,0.131 -0.326,0.172c-0.097,0.041 -0.163,0.061 -0.2,0.061c-0.038,0 -0.075,-0.012 -0.112,-0.036c-0.037,-0.024 -0.067,-0.057 -0.088,-0.099c-0.022,-0.041 -0.032,-0.089 -0.032,-0.144c-0,-0.065 0.015,-0.12 0.046,-0.164c0.03,-0.044 0.069,-0.083 0.116,-0.114c0.047,-0.032 0.116,-0.076 0.207,-0.13l0.387,-0.233c0.141,-0.083 0.25,-0.158 0.324,-0.223c0.074,-0.066 0.125,-0.133 0.152,-0.201c0.027,-0.067 0.041,-0.153 0.041,-0.255Zm1.203,0.332l0,-0.536l-0.787,0l0,0.52c0,0.139 0.012,0.256 0.036,0.352c0.024,0.095 0.065,0.167 0.123,0.217c0.058,0.05 0.138,0.076 0.24,0.076c0.079,-0 0.149,-0.021 0.209,-0.061c0.061,-0.04 0.106,-0.096 0.136,-0.168c0.029,-0.068 0.043,-0.201 0.043,-0.4Z" style="fill:#646464;fill-rule:nonzero;"/>
                <path d="M201.857,143.105l0,-1.307l-0.703,0l0,1.203c0,0.089 -0.019,0.155 -0.059,0.199c-0.04,0.043 -0.092,0.065 -0.157,0.065c-0.066,0 -0.119,-0.021 -0.16,-0.064c-0.041,-0.043 -0.061,-0.11 -0.061,-0.2l-0,-1.203l-0.815,0l0,1.352c0,0.091 -0.021,0.16 -0.063,0.206c-0.042,0.046 -0.099,0.069 -0.169,0.069c-0.068,0 -0.123,-0.023 -0.165,-0.069c-0.042,-0.046 -0.064,-0.115 -0.064,-0.206l0,-1.576c0,-0.127 0.028,-0.217 0.084,-0.273c0.056,-0.055 0.147,-0.083 0.272,-0.083l2.152,0c0.084,0 0.152,0.013 0.204,0.037c0.053,0.025 0.092,0.064 0.116,0.117c0.024,0.052 0.036,0.12 0.036,0.202l-0,1.531c-0,0.092 -0.021,0.161 -0.062,0.206c-0.041,0.045 -0.094,0.067 -0.161,0.067c-0.068,0 -0.122,-0.022 -0.163,-0.067c-0.041,-0.045 -0.062,-0.114 -0.062,-0.206Z" style="fill:#646464;fill-rule:nonzero;"/>
                <path d="M200.301,146.062c-0.173,-0 -0.329,-0.045 -0.467,-0.134c-0.138,-0.089 -0.246,-0.22 -0.324,-0.391c-0.078,-0.172 -0.117,-0.376 -0.117,-0.612c-0,-0.282 0.053,-0.515 0.16,-0.699c0.077,-0.13 0.179,-0.236 0.307,-0.317c0.129,-0.082 0.253,-0.122 0.374,-0.122c0.071,-0 0.131,0.024 0.181,0.073c0.05,0.049 0.075,0.111 0.075,0.186c0,0.062 -0.019,0.113 -0.058,0.156c-0.039,0.042 -0.097,0.078 -0.174,0.108c-0.091,0.036 -0.167,0.076 -0.229,0.118c-0.061,0.043 -0.111,0.102 -0.151,0.179c-0.04,0.077 -0.06,0.178 -0.06,0.303c0,0.172 0.04,0.311 0.121,0.419c0.08,0.107 0.18,0.161 0.299,0.161c0.095,-0 0.173,-0.029 0.232,-0.087c0.059,-0.058 0.104,-0.133 0.136,-0.225c0.031,-0.092 0.064,-0.214 0.099,-0.368c0.048,-0.206 0.105,-0.378 0.169,-0.517c0.065,-0.138 0.152,-0.248 0.264,-0.33c0.111,-0.081 0.249,-0.122 0.415,-0.122c0.157,0 0.297,0.043 0.42,0.129c0.122,0.086 0.216,0.21 0.282,0.373c0.066,0.163 0.099,0.354 0.099,0.574c-0,0.176 -0.022,0.328 -0.066,0.456c-0.043,0.129 -0.101,0.235 -0.174,0.32c-0.072,0.084 -0.148,0.146 -0.227,0.185c-0.08,0.039 -0.157,0.059 -0.233,0.059c-0.069,-0 -0.131,-0.024 -0.186,-0.073c-0.056,-0.049 -0.083,-0.11 -0.083,-0.183c-0,-0.066 0.016,-0.117 0.05,-0.151c0.033,-0.035 0.087,-0.072 0.163,-0.113c0.108,-0.052 0.192,-0.114 0.253,-0.187c0.06,-0.073 0.09,-0.19 0.09,-0.352c0,-0.149 -0.032,-0.27 -0.098,-0.362c-0.066,-0.092 -0.145,-0.138 -0.237,-0.138c-0.058,0 -0.107,0.016 -0.149,0.047c-0.042,0.032 -0.077,0.074 -0.107,0.129c-0.03,0.055 -0.054,0.11 -0.071,0.166c-0.017,0.056 -0.041,0.149 -0.074,0.278c-0.038,0.161 -0.079,0.307 -0.125,0.438c-0.045,0.131 -0.101,0.242 -0.166,0.334c-0.065,0.092 -0.147,0.163 -0.247,0.215c-0.1,0.051 -0.222,0.077 -0.366,0.077Z" style="fill:#646464;fill-rule:nonzero;"/>
                <path d="M201.857,148.441l0,-1.307l-0.703,0l0,1.203c0,0.089 -0.019,0.155 -0.059,0.199c-0.04,0.043 -0.092,0.065 -0.157,0.065c-0.066,0 -0.119,-0.021 -0.16,-0.064c-0.041,-0.043 -0.061,-0.11 -0.061,-0.2l-0,-1.203l-0.815,0l0,1.352c0,0.091 -0.021,0.16 -0.063,0.206c-0.042,0.046 -0.099,0.069 -0.169,0.069c-0.068,0 -0.123,-0.023 -0.165,-0.069c-0.042,-0.046 -0.064,-0.115 -0.064,-0.206l0,-1.576c0,-0.127 0.028,-0.217 0.084,-0.273c0.056,-0.055 0.147,-0.083 0.272,-0.083l2.152,0c0.084,0 0.152,0.013 0.204,0.037c0.053,0.025 0.092,0.064 0.116,0.116c0.024,0.053 0.036,0.121 0.036,0.203l-0,1.531c-0,0.092 -0.021,0.161 -0.062,0.206c-0.041,0.045 -0.094,0.067 -0.161,0.067c-0.068,0 -0.122,-0.022 -0.163,-0.067c-0.041,-0.045 -0.062,-0.114 -0.062,-0.206Z" style="fill:#646464;fill-rule:nonzero;"/>
                <path d="M201.826,151.082l0,-0.633l-2.08,-0c-0.12,-0 -0.209,-0.027 -0.266,-0.08c-0.058,-0.054 -0.087,-0.123 -0.087,-0.207c-0,-0.086 0.029,-0.156 0.088,-0.21c0.058,-0.054 0.147,-0.081 0.265,-0.081l2.08,-0l0,-0.633c0,-0.099 0.022,-0.173 0.066,-0.221c0.043,-0.048 0.101,-0.072 0.173,-0.072c0.074,-0 0.132,0.025 0.175,0.075c0.043,0.05 0.065,0.123 0.065,0.218l-0,1.844c-0,0.1 -0.022,0.174 -0.067,0.223c-0.044,0.049 -0.102,0.073 -0.173,0.073c-0.072,0 -0.13,-0.024 -0.173,-0.074c-0.044,-0.049 -0.066,-0.124 -0.066,-0.222Z" style="fill:#646464;fill-rule:nonzero;"/>
            </g>
            <path d="M199.251,203.039l2.604,-0.473l-1.884,6.593l6.12,-8.28l-2.604,0.473l1.884,-6.593l-6.12,8.28Z" style="fill:#646464;fill-rule:nonzero;"/>
        </g>
    </g>
</svg>
