<?xml version="1.0" encoding="UTF-8" standalone="no"?>
<!DOCTYPE svg PUBLIC "-//W3C//DTD SVG 1.1//EN" "http://www.w3.org/Graphics/SVG/1.1/DTD/svg11.dtd">
<svg width="344px" height="159px" version="1.1" xmlns="http://www.w3.org/2000/svg" xmlns:xlink="http://www.w3.org/1999/xlink" xml:space="preserve" xmlns:serif="http://www.serif.com/" style="fill-rule:evenodd;clip-rule:evenodd;">
    <g id="Front">
        <path id="Cut" d="M277.494,158.418c3.12,0 6.192,-0.769 8.943,-2.239l47.484,-24.717c6.05,-3.15 9.723,-9.568 9.374,-16.38l-4.586,-79.063c-0.404,-6.952 -4.534,-13.169 -10.786,-16.236l-38.887,-18.338c-2.249,-1.061 -4.724,-1.551 -7.207,-1.426l-220.319,-0c-2.475,-0 -4.926,0.484 -7.215,1.426l-38.887,18.338c-6.323,2.982 -10.485,9.251 -10.778,16.236l-4.601,79.063c-0.397,6.822 3.291,13.266 9.375,16.38l47.483,24.717c2.764,1.439 5.828,2.206 8.943,2.239l211.664,0Zm-218.851,-8.637c-0,2.995 2.464,5.459 5.459,5.459c2.994,0 5.459,-2.464 5.459,-5.459c-0,-2.994 -2.465,-5.459 -5.459,-5.459c-2.995,0 -5.459,2.465 -5.459,5.459Zm215.135,0c-0,2.995 2.464,5.459 5.459,5.459c2.995,0 5.459,-2.464 5.459,-5.459c-0,-2.994 -2.464,-5.459 -5.459,-5.459c-2.995,0 -5.459,2.465 -5.459,5.459Zm-185.578,-31.445l22.781,11.866c1.493,0.771 3.15,1.173 4.831,1.173l111.707,0c1.682,0.006 3.34,-0.397 4.832,-1.173l22.78,-11.866c1.604,-0.648 2.637,-2.239 2.578,-3.967l-2.88,-84.434c-0,-1.304 -1.073,-2.376 -2.376,-2.376l-161.575,-0c-1.299,-0 -2.368,1.069 -2.368,2.369c-0,0.002 -0,0.004 -0,0.007l-2.88,84.434c0.099,1.68 1.077,3.189 2.57,3.967Zm233.877,7.826l12.772,-6.645c0.877,-0.456 1.224,-1.553 0.768,-2.43c-0.456,-0.877 -1.552,-1.223 -2.43,-0.768l-12.774,6.654c-0.874,0.456 -1.219,1.551 -0.763,2.426c0.456,0.875 1.551,1.22 2.426,0.764l0.001,-0.001Zm7.783,-16.228l-12.774,6.653c-0.875,0.456 -1.22,1.551 -0.764,2.426c0.455,0.875 1.551,1.22 2.426,0.764l12.775,-6.646c0.877,-0.457 1.223,-1.553 0.767,-2.43c-0.456,-0.877 -1.552,-1.223 -2.429,-0.768l-0.001,0.001Zm-14.436,3.456l12.773,-6.646c0.876,-0.456 1.222,-1.552 0.767,-2.429c-0.456,-0.877 -1.553,-1.224 -2.43,-0.768l-12.774,6.654c-0.875,0.455 -1.22,1.551 -0.765,2.426c0.456,0.875 1.551,1.22 2.426,0.764c0.001,-0 0.002,-0.001 0.003,-0.001Zm-285.457,-20.304c-0.001,-0.66 0.152,-1.311 0.446,-1.901l3.427,-6.178c1.624,-2.932 5.373,-4.01 8.306,-2.386c1.003,0.556 1.831,1.383 2.386,2.386l3.42,6.178c0.321,0.58 0.476,1.238 0.447,1.901l-0,5.328c-0,1.165 -0.959,2.124 -2.124,2.124l-14.177,-0c-1.165,-0 -2.124,-0.959 -2.124,-2.124l-0.007,-5.328Zm246.867,-14.078c-0,5.054 4.159,9.213 9.213,9.213c5.053,-0 9.212,-4.159 9.212,-9.213c0,-5.053 -4.159,-9.212 -9.212,-9.212c-5.054,-0 -9.213,4.159 -9.213,9.212Zm-216.577,2.227l5.328,-0.008c1.165,0 2.124,-0.958 2.124,-2.124l-0,-14.169c0.005,-1.164 -0.948,-2.126 -2.111,-2.131l-5.341,0.007c-0.662,-0.035 -1.321,0.117 -1.901,0.439l-6.177,3.427c-2.931,1.626 -4.005,5.376 -2.379,8.307c0.555,0.999 1.379,1.823 2.379,2.378l6.177,3.434c0.592,0.29 1.242,0.441 1.901,0.44Zm-47.469,-0.008c-1.166,0 -2.124,-0.958 -2.124,-2.124l-0,-14.169c-0,-1.167 0.957,-2.127 2.124,-2.131l5.327,-0c0.662,-0 1.314,0.15 1.908,0.439l6.171,3.434c2.931,1.626 4.004,5.376 2.378,8.307c-0.554,0.999 -1.378,1.823 -2.378,2.378l-6.178,3.427c-0.58,0.322 -1.238,0.474 -1.901,0.439l-5.327,0Zm291.766,-16.258c-0,5.054 4.159,9.212 9.212,9.212c5.054,0 9.213,-4.158 9.213,-9.212c0,-5.054 -4.159,-9.213 -9.213,-9.213c-5.053,0 -9.212,4.159 -9.212,9.213Zm-258.279,-21.477l-14.177,0c-1.165,0 -2.124,0.959 -2.124,2.124l-0,5.336c-0,0.659 0.153,1.31 0.446,1.9l3.42,6.171c1.626,2.932 5.377,4.008 8.309,2.383c1.002,-0.556 1.828,-1.381 2.383,-2.383l3.435,-6.171c0.322,-0.579 0.474,-1.238 0.439,-1.9l-0.007,-5.328c-0.002,-1.166 -0.959,-2.126 -2.124,-2.132Zm-10.024,-26.55c-0,2.994 2.464,5.459 5.459,5.459c2.994,-0 5.459,-2.465 5.459,-5.459c-0,-2.995 -2.465,-5.459 -5.459,-5.459c-2.995,-0 -5.459,2.464 -5.459,5.459Zm259.919,-0c-0,2.994 2.464,5.459 5.459,5.459c2.994,-0 5.459,-2.465 5.459,-5.459c-0,-2.995 -2.465,-5.459 -5.459,-5.459c-2.995,-0 -5.459,2.464 -5.459,5.459Z" style="fill:#9b99e2;"/>
        <g id="Engrave">
            <g>
                <path d="M291.513,89.515l27.72,-14.04c-0,-0 -0,-0 -0,-0c5.731,-3.064 7.927,-10.301 4.864,-16.032c-3.017,-5.646 -10.091,-7.877 -15.801,-4.985l-27.72,14.04c-5.798,2.936 -8.152,10.124 -5.216,15.921c2.937,5.798 10.124,8.152 15.922,5.216c0.077,-0.039 0.154,-0.079 0.231,-0.12Z" style="fill:none;fill-rule:nonzero;stroke:#646464;stroke-width:1px;"/>
                <path d="M306.801,52.285l-1.941,1.01c-0.28,0.146 -0.512,0.188 -0.697,0.124c-0.186,-0.063 -0.35,-0.232 -0.492,-0.506l-2.485,-4.773c-0.146,-0.28 -0.189,-0.513 -0.13,-0.7c0.058,-0.186 0.225,-0.351 0.499,-0.494l2.057,-1.071c0.304,-0.158 0.576,-0.276 0.818,-0.354c0.242,-0.078 0.479,-0.11 0.71,-0.095c0.197,0.012 0.389,0.056 0.576,0.133c0.187,0.077 0.354,0.183 0.501,0.317c0.147,0.135 0.269,0.294 0.365,0.479c0.33,0.635 0.255,1.266 -0.227,1.891c0.973,-0.169 1.659,0.131 2.059,0.899c0.185,0.355 0.26,0.722 0.226,1.101c-0.034,0.379 -0.17,0.717 -0.408,1.014c-0.151,0.181 -0.344,0.354 -0.578,0.518c-0.234,0.164 -0.518,0.333 -0.853,0.507Zm-1.563,-2.77l-1.339,0.697l0.965,1.854l1.382,-0.719c0.869,-0.453 1.141,-0.992 0.814,-1.619c-0.166,-0.32 -0.4,-0.494 -0.7,-0.521c-0.301,-0.028 -0.675,0.075 -1.122,0.308Zm-2.673,-1.867l0.854,1.642l1.178,-0.614c0.321,-0.167 0.553,-0.326 0.696,-0.477c0.143,-0.152 0.216,-0.337 0.22,-0.555c0.009,-0.159 -0.026,-0.314 -0.104,-0.464c-0.167,-0.32 -0.391,-0.474 -0.674,-0.461c-0.283,0.014 -0.659,0.142 -1.126,0.386l-1.044,0.543Z" style="fill:#646464;fill-rule:nonzero;"/>
                <path d="M280.332,64.635l-0.718,-0.639l-2.582,1.344l0.121,0.972c0.047,0.379 0.058,0.646 0.032,0.801c-0.026,0.155 -0.134,0.282 -0.325,0.381c-0.162,0.084 -0.335,0.099 -0.521,0.046c-0.186,-0.054 -0.318,-0.156 -0.396,-0.306c-0.045,-0.087 -0.077,-0.184 -0.097,-0.291c-0.019,-0.108 -0.038,-0.261 -0.057,-0.46l-0.522,-4.969c-0.016,-0.142 -0.034,-0.313 -0.056,-0.513c-0.021,-0.2 -0.024,-0.374 -0.007,-0.522c0.016,-0.148 0.067,-0.287 0.151,-0.417c0.085,-0.131 0.215,-0.242 0.391,-0.333c0.179,-0.094 0.346,-0.137 0.501,-0.132c0.156,0.006 0.298,0.043 0.427,0.111c0.129,0.069 0.251,0.151 0.366,0.247c0.114,0.097 0.264,0.227 0.448,0.392l3.792,3.233c0.292,0.245 0.475,0.437 0.549,0.579c0.076,0.147 0.085,0.314 0.027,0.501c-0.059,0.186 -0.175,0.325 -0.349,0.415c-0.101,0.052 -0.197,0.079 -0.288,0.081c-0.091,0.001 -0.177,-0.016 -0.258,-0.053c-0.082,-0.036 -0.184,-0.104 -0.307,-0.203c-0.123,-0.099 -0.231,-0.187 -0.322,-0.265Zm-3.465,-0.437l1.898,-0.987l-2.322,-2.122l0.424,3.109Z" style="fill:#646464;fill-rule:nonzero;"/>
            </g>
            <g>
                <path d="M47.507,53.678c4.419,2.027 8,5.609 10.027,10.027" style="fill:none;fill-rule:nonzero;stroke:#646464;stroke-width:1px;"/>
                <path d="M57.533,80.338c-2.026,4.421 -5.611,8.004 -10.033,10.03" style="fill:none;fill-rule:nonzero;stroke:#646464;stroke-width:1px;"/>
                <path d="M30.869,90.363c-4.419,-2.028 -8.001,-5.612 -10.027,-10.033" style="fill:none;fill-rule:nonzero;stroke:#646464;stroke-width:1px;"/>
                <path d="M20.848,63.701c2.027,-4.418 5.61,-7.999 10.029,-10.025" style="fill:none;fill-rule:nonzero;stroke:#646464;stroke-width:1px;"/>
            </g>
            <g>
                <path d="M310.626,136.561l-9.22,8.794l10.856,-5.651l-1.636,-3.143Z" style="fill:#646464;fill-rule:nonzero;"/>
                <path id="VOL" d="M290.999,147.342l1.814,1.743l-0.392,-2.502c-0.021,-0.132 -0.033,-0.224 -0.037,-0.277c-0.004,-0.054 0.006,-0.109 0.031,-0.167c0.024,-0.057 0.074,-0.106 0.148,-0.144c0.055,-0.029 0.113,-0.041 0.173,-0.038c0.061,0.003 0.117,0.02 0.167,0.051c0.05,0.031 0.087,0.07 0.111,0.116c0.016,0.032 0.029,0.068 0.04,0.109c0.01,0.041 0.018,0.082 0.024,0.124c0.005,0.042 0.011,0.085 0.017,0.129l0.309,2.458c0.014,0.093 0.026,0.182 0.036,0.267c0.009,0.085 0.01,0.164 0.002,0.237c-0.007,0.072 -0.032,0.141 -0.074,0.206c-0.041,0.066 -0.105,0.121 -0.191,0.166c-0.086,0.044 -0.168,0.066 -0.245,0.063c-0.077,-0.003 -0.148,-0.022 -0.213,-0.059c-0.066,-0.036 -0.13,-0.082 -0.194,-0.138c-0.064,-0.056 -0.13,-0.116 -0.198,-0.181l-1.814,-1.653c-0.033,-0.03 -0.065,-0.06 -0.097,-0.089c-0.033,-0.028 -0.064,-0.061 -0.095,-0.098c-0.031,-0.037 -0.054,-0.069 -0.069,-0.098c-0.038,-0.073 -0.043,-0.155 -0.016,-0.246c0.027,-0.091 0.086,-0.159 0.174,-0.206c0.109,-0.056 0.204,-0.063 0.284,-0.02c0.08,0.043 0.181,0.126 0.305,0.247Z" style="fill:#646464;fill-rule:nonzero;"/>
                <path d="M294.674,144.896c0.326,-0.17 0.642,-0.25 0.945,-0.239c0.304,0.01 0.579,0.107 0.827,0.288c0.248,0.182 0.457,0.438 0.629,0.768c0.127,0.244 0.209,0.482 0.247,0.716c0.038,0.234 0.029,0.458 -0.027,0.673c-0.056,0.215 -0.159,0.411 -0.311,0.588c-0.152,0.178 -0.352,0.331 -0.6,0.46c-0.247,0.129 -0.488,0.204 -0.725,0.226c-0.236,0.022 -0.457,-0.006 -0.663,-0.083c-0.206,-0.077 -0.395,-0.199 -0.568,-0.368c-0.173,-0.169 -0.321,-0.372 -0.444,-0.609c-0.126,-0.242 -0.207,-0.482 -0.243,-0.721c-0.035,-0.238 -0.024,-0.463 0.034,-0.673c0.058,-0.211 0.162,-0.403 0.312,-0.577c0.15,-0.174 0.346,-0.323 0.587,-0.449Zm1.751,1.15c-0.12,-0.231 -0.261,-0.412 -0.424,-0.542c-0.162,-0.131 -0.336,-0.203 -0.519,-0.218c-0.184,-0.015 -0.365,0.025 -0.544,0.118c-0.128,0.066 -0.233,0.152 -0.317,0.256c-0.083,0.104 -0.14,0.223 -0.17,0.355c-0.03,0.133 -0.031,0.282 -0.002,0.448c0.029,0.167 0.09,0.339 0.183,0.516c0.093,0.18 0.2,0.33 0.32,0.451c0.121,0.121 0.247,0.208 0.379,0.261c0.132,0.052 0.264,0.074 0.396,0.066c0.131,-0.008 0.261,-0.046 0.388,-0.112c0.164,-0.085 0.293,-0.204 0.387,-0.357c0.094,-0.153 0.138,-0.336 0.13,-0.549c-0.008,-0.213 -0.077,-0.444 -0.207,-0.693Z" style="fill:#646464;fill-rule:nonzero;"/>
                <path d="M297.602,143.864l1.195,2.295l1.295,-0.674c0.103,-0.054 0.195,-0.07 0.277,-0.049c0.081,0.022 0.142,0.07 0.181,0.146c0.04,0.078 0.046,0.155 0.016,0.231c-0.029,0.076 -0.096,0.142 -0.201,0.196l-1.542,0.803c-0.139,0.073 -0.255,0.094 -0.348,0.064c-0.093,-0.03 -0.176,-0.114 -0.247,-0.251l-1.264,-2.429c-0.068,-0.129 -0.089,-0.241 -0.064,-0.336c0.024,-0.094 0.084,-0.166 0.178,-0.216c0.096,-0.05 0.191,-0.058 0.283,-0.025c0.093,0.033 0.173,0.114 0.241,0.245Z" style="fill:#646464;fill-rule:nonzero;"/>
            </g>
            <g>
                <path d="M96.096,151.924c0.859,0.805 0.903,2.174 0.098,3.032c-0.805,0.858 -2.173,0.902 -3.031,0.097c-0.859,-0.805 -0.903,-2.173 -0.098,-3.031c0.016,-0.017 0.032,-0.033 0.048,-0.05" style="fill:none;fill-rule:nonzero;stroke:#646464;stroke-width:1.36px;"/>
                <path d="M94.63,151.138l-0,1.858" style="fill:none;fill-rule:nonzero;stroke:#646464;stroke-width:1.36px;"/>
            </g>
            <g id="logo">
                <path d="M156.161,136.154l-1.758,8.789l-1.544,0l1.142,-5.763l-3.754,4.759l-0.729,-0l-2.009,-4.872l-1.167,5.876l-1.558,0l1.758,-8.789l1.331,-0l2.324,5.851l4.558,-5.851l1.406,-0Z" style="fill:#646464;fill-rule:nonzero;"/>
                <path d="M163.683,140.448l1.544,0l-0.716,3.541c-0.443,0.343 -0.948,0.609 -1.513,0.797c-0.565,0.189 -1.153,0.283 -1.764,0.283c-0.862,-0 -1.616,-0.157 -2.26,-0.471c-0.645,-0.314 -1.141,-0.753 -1.488,-1.318c-0.348,-0.565 -0.521,-1.221 -0.521,-1.966c-0,-0.987 0.226,-1.883 0.678,-2.687c0.452,-0.803 1.092,-1.438 1.921,-1.902c0.829,-0.465 1.783,-0.697 2.863,-0.697c0.795,-0 1.49,0.123 2.084,0.37c0.595,0.247 1.076,0.605 1.444,1.074l-1.18,0.979c-0.284,-0.343 -0.624,-0.594 -1.017,-0.753c-0.393,-0.159 -0.862,-0.239 -1.406,-0.239c-0.745,0 -1.4,0.166 -1.966,0.496c-0.565,0.331 -1.002,0.781 -1.312,1.35c-0.309,0.57 -0.464,1.206 -0.464,1.909c-0,0.745 0.242,1.335 0.728,1.771c0.486,0.435 1.18,0.652 2.084,0.652c0.612,0 1.181,-0.138 1.708,-0.414l0.553,-2.775Z" style="fill:#646464;fill-rule:nonzero;"/>
                <path d="M128.559,144.994c-0.535,0 -1.017,-0.123 -1.444,-0.371c-0.427,-0.247 -0.764,-0.585 -1.012,-1.012c-0.247,-0.427 -0.371,-0.912 -0.371,-1.454c0,-0.535 0.121,-1.017 0.361,-1.444c0.241,-0.427 0.568,-0.764 0.981,-1.012c0.414,-0.247 0.882,-0.371 1.404,-0.371c0.454,0 0.864,0.097 1.23,0.29c0.366,0.193 0.661,0.449 0.885,0.768l-0,-2.99c-0,-0.122 0.037,-0.219 0.112,-0.29c0.074,-0.071 0.169,-0.107 0.284,-0.107c0.116,0 0.211,0.036 0.285,0.107c0.075,0.071 0.112,0.168 0.112,0.29l0,4.8c-0.013,0.529 -0.144,1.005 -0.391,1.429c-0.248,0.423 -0.583,0.757 -1.007,1.001c-0.424,0.244 -0.9,0.366 -1.429,0.366Zm0,-0.712c0.393,0 0.744,-0.093 1.053,-0.279c0.308,-0.187 0.552,-0.439 0.732,-0.758c0.179,-0.318 0.269,-0.681 0.269,-1.088c0,-0.4 -0.09,-0.761 -0.269,-1.083c-0.18,-0.322 -0.424,-0.574 -0.732,-0.757c-0.309,-0.183 -0.66,-0.275 -1.053,-0.275c-0.386,-0 -0.735,0.092 -1.047,0.275c-0.312,0.183 -0.56,0.435 -0.743,0.757c-0.183,0.322 -0.274,0.683 -0.274,1.083c-0,0.407 0.091,0.77 0.274,1.088c0.183,0.319 0.431,0.571 0.743,0.758c0.312,0.186 0.661,0.279 1.047,0.279Z" style="fill:#646464;fill-rule:nonzero;"/>
                <path d="M135.749,144.994c-0.543,0 -1.028,-0.122 -1.455,-0.366c-0.427,-0.244 -0.762,-0.579 -1.006,-1.007c-0.244,-0.427 -0.366,-0.911 -0.366,-1.454c-0,-0.549 0.122,-1.037 0.366,-1.464c0.244,-0.427 0.579,-0.763 1.006,-1.007c0.427,-0.244 0.912,-0.366 1.455,-0.366c0.542,0 1.025,0.122 1.449,0.366c0.423,0.244 0.757,0.58 1.001,1.007c0.244,0.427 0.37,0.915 0.376,1.464c0,0.543 -0.123,1.027 -0.371,1.454c-0.247,0.428 -0.583,0.763 -1.006,1.007c-0.424,0.244 -0.907,0.366 -1.449,0.366Zm-0,-0.712c0.393,0 0.745,-0.091 1.057,-0.274c0.312,-0.183 0.556,-0.434 0.732,-0.753c0.177,-0.318 0.265,-0.681 0.265,-1.088c-0,-0.406 -0.088,-0.771 -0.265,-1.093c-0.176,-0.322 -0.42,-0.574 -0.732,-0.757c-0.312,-0.183 -0.664,-0.275 -1.057,-0.275c-0.394,-0 -0.746,0.092 -1.058,0.275c-0.312,0.183 -0.558,0.435 -0.737,0.757c-0.18,0.322 -0.27,0.687 -0.27,1.093c0,0.407 0.09,0.77 0.27,1.088c0.179,0.319 0.425,0.57 0.737,0.753c0.312,0.183 0.664,0.274 1.058,0.274Z" style="fill:#646464;fill-rule:nonzero;"/>
                <path d="M142.277,144.943c-0.359,0 -0.68,-0.084 -0.961,-0.254c-0.281,-0.169 -0.503,-0.401 -0.666,-0.696c-0.163,-0.295 -0.244,-0.633 -0.244,-1.012l-0,-4.973c-0,-0.115 0.035,-0.21 0.107,-0.285c0.071,-0.074 0.164,-0.111 0.279,-0.111c0.116,-0 0.21,0.037 0.285,0.111c0.075,0.075 0.112,0.17 0.112,0.285l-0,4.973c-0,0.346 0.102,0.629 0.305,0.849c0.203,0.22 0.464,0.33 0.783,0.33l0.275,0c0.108,0 0.196,0.038 0.264,0.112c0.068,0.075 0.102,0.17 0.102,0.285c-0,0.115 -0.041,0.208 -0.122,0.28c-0.082,0.071 -0.183,0.106 -0.305,0.106l-0.214,0Zm-2.532,-4.677c-0.102,-0 -0.187,-0.032 -0.254,-0.097c-0.068,-0.064 -0.102,-0.144 -0.102,-0.239c0,-0.102 0.034,-0.185 0.102,-0.249c0.067,-0.064 0.152,-0.097 0.254,-0.097l2.593,0c0.102,0 0.186,0.033 0.254,0.097c0.068,0.064 0.102,0.147 0.102,0.249c-0,0.095 -0.034,0.175 -0.102,0.239c-0.068,0.065 -0.152,0.097 -0.254,0.097l-2.593,-0Z" style="fill:#646464;fill-rule:nonzero;"/>
                <rect x="142.172" y="136.21" width="2.391" height="2.391" style="fill:#646464;"/>
                <path d="M166.917,136.737l-0.435,0l-0,-0.276l1.207,0l0,0.276l-0.435,0l-0,1.14l-0.337,0l0,-1.14Z" style="fill:#646464;fill-rule:nonzero;"/>
                <path d="M167.859,136.461l0.509,0l0.352,0.924l0.004,0l0.353,-0.924l0.507,0l0,1.416l-0.336,0l-0,-1.086l-0.005,0l-0.401,1.086l-0.256,0l-0.386,-1.086l-0.004,0l-0,1.086l-0.337,0l0,-1.416Z" style="fill:#646464;fill-rule:nonzero;"/>
                <path d="M171.866,142.787l2.482,-4.385l0.986,-0l2.515,4.385l-1.147,0l-0.527,-0.96l-2.779,-0l-0.51,0.96l-1.02,0Zm1.963,-1.751l1.921,0l-0.943,-1.785l-0.978,1.785Z" style="fill:#646464;fill-rule:nonzero;"/>
                <path d="M179.26,142.787l0,-4.385l2.822,-0c0.81,-0 1.431,0.189 1.861,0.569c0.431,0.38 0.646,0.912 0.646,1.598c0,0.436 -0.099,0.833 -0.297,1.19c-0.216,0.374 -0.516,0.643 -0.901,0.807c-0.351,0.148 -0.876,0.221 -1.573,0.221l-2.558,0Zm1.02,-0.824l1.317,-0c0.675,-0 1.159,-0.099 1.454,-0.298c0.323,-0.215 0.484,-0.586 0.484,-1.113c0,-0.912 -0.481,-1.369 -1.445,-1.369l-1.81,0l0,2.78Z" style="fill:#646464;fill-rule:nonzero;"/>
                <path d="M187.938,142.787l-2.533,-4.385l1.165,-0l1.776,3.17l1.691,-3.17l1.02,-0l-2.414,4.385l-0.705,0Z" style="fill:#646464;fill-rule:nonzero;"/>
                <path d="M191.406,142.787l2.481,-4.385l0.986,-0l2.516,4.385l-1.147,0l-0.527,-0.96l-2.78,-0l-0.509,0.96l-1.02,0Zm1.963,-1.751l1.921,0l-0.944,-1.785l-0.977,1.785Z" style="fill:#646464;fill-rule:nonzero;"/>
                <path d="M198.791,142.787l0,-4.385l0.697,-0l3.086,2.583c0.221,0.187 0.388,0.346 0.501,0.476c-0.028,-0.408 -0.042,-0.66 -0.042,-0.756l-0,-2.303l0.918,-0l-0,4.385l-0.697,0l-3.222,-2.711c-0.136,-0.113 -0.257,-0.232 -0.365,-0.357c0.028,0.283 0.042,0.516 0.042,0.697l0,2.371l-0.918,0Z" style="fill:#646464;fill-rule:nonzero;"/>
                <path d="M209.866,139.183l-2.754,0l0,2.78l2.754,-0l0,-0.944l1.02,0.213l-0,0.518c-0,0.408 -0.077,0.683 -0.23,0.825c-0.153,0.141 -0.439,0.212 -0.858,0.212l-2.618,0c-0.419,0 -0.705,-0.071 -0.858,-0.212c-0.153,-0.142 -0.23,-0.417 -0.23,-0.825l0,-2.312c0,-0.408 0.077,-0.682 0.23,-0.824c0.153,-0.142 0.439,-0.212 0.858,-0.212l2.618,-0c0.419,-0 0.705,0.07 0.858,0.212c0.153,0.142 0.23,0.416 0.23,0.824l-0,0.417l-1.02,0.161l0,-0.833Z" style="fill:#646464;fill-rule:nonzero;"/>
                <path d="M212.994,142.787l-0,-4.385l4.487,-0l0,0.747l-3.467,0l-0,0.978l2.022,-0l0,0.748l-2.022,-0l-0,1.088l3.51,-0l-0,0.824l-4.53,0Z" style="fill:#646464;fill-rule:nonzero;"/>
            </g>
        </g>
    </g>
</svg>
