<?xml version="1.0" encoding="UTF-8" standalone="no"?>
<!DOCTYPE svg PUBLIC "-//W3C//DTD SVG 1.1//EN" "http://www.w3.org/Graphics/SVG/1.1/DTD/svg11.dtd">
<svg width="100%" height="100%" viewBox="0 0 344 159" version="1.1" xmlns="http://www.w3.org/2000/svg" xmlns:xlink="http://www.w3.org/1999/xlink" xml:space="preserve" xmlns:serif="http://www.serif.com/" style="fill-rule:evenodd;clip-rule:evenodd;">
    <g id="Front">
        <path id="Cut" d="M277.494,158.418C280.614,158.418 283.686,157.649 286.437,156.179L333.921,131.462C339.971,128.312 343.644,121.894 343.295,115.082L338.709,36.019C338.305,29.067 334.175,22.85 327.923,19.783L289.036,1.445C286.787,0.384 284.312,-0.106 281.829,0.019L61.51,0.019C59.035,0.019 56.584,0.503 54.295,1.445L15.408,19.783C9.085,22.765 4.923,29.034 4.63,36.019L0.029,115.082C-0.368,121.904 3.32,128.348 9.404,131.462L56.887,156.179C59.651,157.618 62.715,158.385 65.83,158.418L277.494,158.418ZM58.643,149.781C58.643,152.776 61.107,155.24 64.102,155.24C67.096,155.24 69.561,152.776 69.561,149.781C69.561,146.787 67.096,144.322 64.102,144.322C61.107,144.322 58.643,146.787 58.643,149.781ZM273.778,149.781C273.778,152.776 276.242,155.24 279.237,155.24C282.232,155.24 284.696,152.776 284.696,149.781C284.696,146.787 282.232,144.322 279.237,144.322C276.242,144.322 273.778,146.787 273.778,149.781ZM88.2,118.336L110.981,130.202C112.474,130.973 114.131,131.375 115.812,131.375L227.519,131.375C229.201,131.381 230.859,130.978 232.351,130.202L255.131,118.336C256.735,117.688 257.768,116.097 257.709,114.369L254.829,29.935C254.829,28.631 253.756,27.559 252.453,27.559L90.878,27.559C89.579,27.559 88.51,28.628 88.51,29.928C88.51,29.93 88.51,29.932 88.51,29.935L85.63,114.369C85.729,116.049 86.707,117.558 88.2,118.336ZM322.077,126.162L334.849,119.517C335.726,119.061 336.073,117.964 335.617,117.087C335.161,116.21 334.065,115.864 333.187,116.319L320.413,122.973C319.539,123.429 319.194,124.524 319.65,125.399C320.106,126.274 321.201,126.619 322.076,126.163L322.077,126.162ZM329.86,109.934L317.086,116.587C316.211,117.043 315.866,118.138 316.322,119.013C316.777,119.888 317.873,120.233 318.748,119.777L331.523,113.131C332.4,112.674 332.746,111.578 332.29,110.701C331.834,109.824 330.738,109.478 329.861,109.933L329.86,109.934ZM315.424,113.39L328.197,106.744C329.073,106.288 329.419,105.192 328.964,104.315C328.508,103.438 327.411,103.091 326.534,103.547L313.76,110.201C312.885,110.656 312.54,111.752 312.995,112.627C313.451,113.502 314.546,113.847 315.421,113.391C315.422,113.391 315.423,113.39 315.424,113.39ZM29.967,93.086C29.966,92.426 30.119,91.775 30.413,91.185L33.84,85.007C35.464,82.075 39.213,80.997 42.146,82.621C43.149,83.177 43.977,84.004 44.532,85.007L47.952,91.185C48.273,91.765 48.428,92.423 48.399,93.086L48.399,98.414C48.399,99.579 47.44,100.538 46.275,100.538L32.098,100.538C30.933,100.538 29.974,99.579 29.974,98.414L29.967,93.086ZM276.834,79.008C276.834,84.062 280.993,88.221 286.047,88.221C291.1,88.221 295.259,84.062 295.259,79.008C295.259,73.955 291.1,69.796 286.047,69.796C280.993,69.796 276.834,73.955 276.834,79.008ZM60.257,81.235L65.585,81.227C66.75,81.227 67.709,80.269 67.709,79.103L67.709,64.934C67.714,63.77 66.761,62.808 65.598,62.803L60.257,62.81C59.595,62.775 58.936,62.927 58.356,63.249L52.179,66.676C49.248,68.302 48.174,72.052 49.8,74.983C50.355,75.982 51.179,76.806 52.179,77.361L58.356,80.795C58.948,81.085 59.598,81.236 60.257,81.235ZM12.788,81.227C11.622,81.227 10.664,80.269 10.664,79.103L10.664,64.934C10.664,63.767 11.621,62.807 12.788,62.803L18.115,62.803C18.777,62.803 19.429,62.953 20.023,63.242L26.194,66.676C29.125,68.302 30.198,72.052 28.572,74.983C28.018,75.982 27.194,76.806 26.194,77.361L20.016,80.788C19.436,81.11 18.778,81.262 18.115,81.227L12.788,81.227ZM304.554,64.969C304.554,70.023 308.713,74.181 313.766,74.181C318.82,74.181 322.979,70.023 322.979,64.969C322.979,59.915 318.82,55.756 313.766,55.756C308.713,55.756 304.554,59.915 304.554,64.969ZM46.275,43.492L32.098,43.492C30.933,43.492 29.974,44.451 29.974,45.616L29.974,50.952C29.974,51.611 30.127,52.262 30.42,52.852L33.84,59.023C35.466,61.955 39.217,63.031 42.149,61.406C43.151,60.85 43.977,60.025 44.532,59.023L47.967,52.852C48.289,52.273 48.441,51.614 48.406,50.952L48.399,45.624C48.397,44.458 47.44,43.498 46.275,43.492ZM36.251,16.942C36.251,19.936 38.715,22.401 41.71,22.401C44.704,22.401 47.169,19.936 47.169,16.942C47.169,13.947 44.704,11.483 41.71,11.483C38.715,11.483 36.251,13.947 36.251,16.942ZM296.17,16.942C296.17,19.936 298.634,22.401 301.629,22.401C304.623,22.401 307.088,19.936 307.088,16.942C307.088,13.947 304.623,11.483 301.629,11.483C298.634,11.483 296.17,13.947 296.17,16.942Z" style="fill:rgb(155,153,226);"/>
        <g id="Engrave">
            <g>
                <g transform="matrix(1,0,0,-1,-32.0899,-0.261831)">
                    <path d="M323.603,-89.776L351.323,-75.736C351.323,-75.736 351.323,-75.736 351.323,-75.736C357.054,-72.673 359.25,-65.436 356.187,-59.704C353.17,-54.059 346.096,-51.828 340.386,-54.72L312.666,-68.76C306.868,-71.696 304.514,-78.883 307.45,-84.681C310.387,-90.479 317.574,-92.833 323.372,-89.897C323.449,-89.857 323.526,-89.817 323.603,-89.776Z" style="fill:none;fill-rule:nonzero;stroke:rgb(100,100,100);stroke-width:1px;"/>
                </g>
                <g transform="matrix(0.470601,-0.24498,0.261662,0.502649,218.913,25.6277)">
                    <path d="M123.737,113.341L119.613,113.341C119.018,113.341 118.593,113.216 118.339,112.966C118.084,112.716 117.957,112.318 117.957,111.773L117.957,102.277C117.957,101.72 118.087,101.319 118.348,101.075C118.609,100.831 119.031,100.709 119.613,100.709L123.985,100.709C124.629,100.709 125.188,100.746 125.66,100.821C126.132,100.896 126.556,101.039 126.93,101.252C127.249,101.43 127.531,101.655 127.777,101.928C128.022,102.201 128.209,102.503 128.338,102.833C128.467,103.163 128.531,103.512 128.531,103.88C128.531,105.144 127.857,106.068 126.507,106.654C128.28,107.183 129.167,108.211 129.167,109.739C129.167,110.446 128.973,111.082 128.587,111.648C128.2,112.213 127.679,112.631 127.022,112.901C126.611,113.062 126.139,113.176 125.605,113.242C125.071,113.308 124.448,113.341 123.737,113.341ZM123.534,107.731L120.69,107.731L120.69,111.419L123.626,111.419C125.473,111.419 126.396,110.796 126.396,109.55C126.396,108.912 126.157,108.449 125.678,108.162C125.2,107.875 124.485,107.731 123.534,107.731ZM120.69,102.63L120.69,105.896L123.194,105.896C123.875,105.896 124.401,105.836 124.772,105.715C125.143,105.595 125.427,105.365 125.623,105.026C125.777,104.785 125.853,104.515 125.853,104.216C125.853,103.578 125.611,103.155 125.126,102.945C124.642,102.735 123.902,102.63 122.908,102.63L120.69,102.63Z" style="fill:rgb(100,100,100);fill-rule:nonzero;"/>
                </g>
                <g transform="matrix(0.470601,-0.24498,0.262697,0.504635,191.363,39.2005)">
                    <path d="M126.608,111.866L125.964,110.286L120.479,110.286L119.834,111.9C119.583,112.529 119.368,112.954 119.19,113.174C119.012,113.395 118.721,113.505 118.316,113.505C117.972,113.505 117.668,113.388 117.405,113.153C117.141,112.918 117.009,112.652 117.009,112.355C117.009,112.183 117.04,112.006 117.101,111.823C117.162,111.64 117.264,111.385 117.405,111.059L120.856,102.888C120.954,102.653 121.072,102.372 121.21,102.043C121.348,101.714 121.496,101.44 121.652,101.223C121.808,101.006 122.014,100.83 122.269,100.695C122.523,100.561 122.838,100.494 123.212,100.494C123.592,100.494 123.91,100.561 124.165,100.695C124.419,100.83 124.625,101.003 124.781,101.214C124.938,101.426 125.069,101.654 125.177,101.897C125.284,102.14 125.421,102.465 125.586,102.871L129.111,110.99C129.387,111.608 129.525,112.057 129.525,112.338C129.525,112.629 129.395,112.897 129.134,113.14C128.874,113.383 128.559,113.505 128.191,113.505C127.976,113.505 127.792,113.469 127.639,113.398C127.485,113.326 127.357,113.229 127.252,113.106C127.148,112.983 127.036,112.794 126.916,112.539C126.797,112.285 126.694,112.06 126.608,111.866ZM121.196,108.372L125.227,108.372L123.194,103.18L121.196,108.372Z" style="fill:rgb(100,100,100);fill-rule:nonzero;"/>
                </g>
            </g>
            <g>
                <path d="M47.507,53.678C51.926,55.705 55.507,59.287 57.534,63.705" style="fill:none;fill-rule:nonzero;stroke:rgb(100,100,100);stroke-width:1px;"/>
                <path d="M57.533,80.338C55.507,84.759 51.922,88.342 47.5,90.368" style="fill:none;fill-rule:nonzero;stroke:rgb(100,100,100);stroke-width:1px;"/>
                <path d="M30.869,90.363C26.45,88.335 22.868,84.751 20.842,80.33" style="fill:none;fill-rule:nonzero;stroke:rgb(100,100,100);stroke-width:1px;"/>
                <path d="M20.848,63.701C22.875,59.283 26.458,55.702 30.877,53.676" style="fill:none;fill-rule:nonzero;stroke:rgb(100,100,100);stroke-width:1px;"/>
            </g>
            <g>
                <g transform="matrix(1,0,0,-1,-32.0899,-0.261831)">
                    <path d="M342.716,-136.822L333.495,-145.617L344.352,-139.966L342.716,-136.822Z" style="fill:rgb(100,100,100);fill-rule:nonzero;"/>
                </g>
                <g>
                    <g transform="matrix(0.340244,-0.17712,0.127429,0.244789,239.779,142.206)">
                        <path d="M112.259,102.207L114.358,110.844L116.463,102.145C116.573,101.689 116.655,101.371 116.71,101.192C116.764,101.013 116.855,100.852 116.982,100.709C117.108,100.565 117.281,100.494 117.5,100.494C117.66,100.494 117.809,100.549 117.946,100.66C118.083,100.772 118.19,100.92 118.268,101.104C118.346,101.289 118.385,101.475 118.385,101.662C118.385,101.791 118.372,101.93 118.347,102.08C118.322,102.229 118.29,102.375 118.252,102.519C118.214,102.662 118.176,102.81 118.138,102.963L115.894,111.38C115.814,111.702 115.734,112.008 115.654,112.298C115.574,112.588 115.481,112.843 115.376,113.063C115.27,113.283 115.13,113.463 114.955,113.603C114.781,113.744 114.567,113.814 114.314,113.814C114.061,113.814 113.847,113.745 113.672,113.608C113.497,113.47 113.356,113.288 113.249,113.063C113.141,112.837 113.047,112.581 112.967,112.294C112.887,112.007 112.807,111.702 112.727,111.38L110.521,103.033C110.483,102.881 110.444,102.731 110.404,102.585C110.364,102.438 110.33,102.28 110.303,102.11C110.275,101.94 110.262,101.797 110.262,101.68C110.262,101.381 110.348,101.109 110.521,100.863C110.694,100.617 110.911,100.494 111.172,100.494C111.492,100.494 111.719,100.63 111.852,100.902C111.984,101.174 112.12,101.609 112.259,102.207Z" style="fill:rgb(100,100,100);fill-rule:nonzero;"/>
                        <path d="M123.701,100.494C124.662,100.494 125.487,100.764 126.176,101.306C126.865,101.848 127.387,102.618 127.741,103.617C128.095,104.616 128.272,105.789 128.272,107.136C128.272,108.132 128.175,109.037 127.981,109.851C127.787,110.666 127.496,111.371 127.109,111.969C126.721,112.566 126.245,113.023 125.68,113.34C125.115,113.656 124.468,113.814 123.739,113.814C123.014,113.814 122.365,113.652 121.792,113.326C121.219,113.001 120.741,112.543 120.357,111.951C119.974,111.36 119.684,110.648 119.488,109.816C119.292,108.984 119.194,108.085 119.194,107.119C119.194,106.129 119.296,105.221 119.501,104.395C119.705,103.569 120.001,102.866 120.389,102.286C120.777,101.706 121.249,101.262 121.805,100.955C122.361,100.647 122.993,100.494 123.701,100.494ZM126.369,107.119C126.369,106.176 126.26,105.358 126.04,104.667C125.821,103.976 125.508,103.453 125.102,103.099C124.695,102.744 124.228,102.567 123.701,102.567C123.326,102.567 122.98,102.665 122.661,102.862C122.343,103.058 122.069,103.343 121.84,103.718C121.61,104.093 121.429,104.572 121.296,105.155C121.163,105.738 121.097,106.392 121.097,107.119C121.097,107.851 121.163,108.513 121.296,109.104C121.429,109.696 121.616,110.187 121.859,110.576C122.101,110.966 122.379,111.257 122.693,111.45C123.007,111.644 123.352,111.74 123.727,111.74C124.207,111.74 124.649,111.574 125.051,111.24C125.453,110.906 125.774,110.39 126.012,109.693C126.25,108.996 126.369,108.138 126.369,107.119Z" style="fill:rgb(100,100,100);fill-rule:nonzero;"/>
                        <path d="M131.717,102.075L131.717,111.45L135.523,111.45C135.826,111.45 136.059,111.553 136.221,111.758C136.384,111.963 136.465,112.221 136.465,112.531C136.465,112.848 136.385,113.104 136.224,113.3C136.064,113.496 135.83,113.594 135.523,113.594L130.99,113.594C130.581,113.594 130.287,113.468 130.108,113.217C129.929,112.965 129.84,112.558 129.84,111.995L129.84,102.075C129.84,101.548 129.925,101.153 130.096,100.889C130.266,100.625 130.491,100.494 130.769,100.494C131.051,100.494 131.28,100.624 131.455,100.885C131.63,101.145 131.717,101.542 131.717,102.075Z" style="fill:rgb(100,100,100);fill-rule:nonzero;"/>
                    </g>
                    <g transform="matrix(0.734167,-0.382183,0.382183,0.734167,171.57,115.208)">
                        <text id="VOL" x="108.957px" y="104.862px" style="font-family:'ArialRoundedMTBold', 'Arial Rounded MT Bold', sans-serif;font-size:6px;fill:rgb(100,100,100);">VOL</text>
                    </g>
                </g>
            </g>
            <g>
                <g transform="matrix(1.35811,0,0,-1.35811,-77.469,-56.6415)">
                    <path d="M127.799,-153.571C128.431,-154.164 128.464,-155.171 127.871,-155.803C127.279,-156.435 126.271,-156.467 125.639,-155.875C125.007,-155.282 124.975,-154.275 125.567,-153.643C125.579,-153.63 125.591,-153.618 125.603,-153.606" style="fill:none;fill-rule:nonzero;stroke:rgb(100,100,100);stroke-width:1px;"/>
                </g>
                <g transform="matrix(1.35811,0,0,-1.35811,-77.469,-56.6415)">
                    <path d="M126.719,-152.992L126.719,-154.36" style="fill:none;fill-rule:nonzero;stroke:rgb(100,100,100);stroke-width:1px;"/>
                </g>
            </g>
            <g id="logo" transform="matrix(0.0598628,0,0,0.0598628,103.621,116.603)">
                <g transform="matrix(17.4802,0,0,17.4802,-6782.28,-5486.5)">
                    <path d="M438.208,332.553L436.528,340.953L435.052,340.953L436.144,335.445L432.556,339.993L431.86,339.993L429.94,335.337L428.824,340.953L427.336,340.953L429.016,332.553L430.288,332.553L432.508,338.145L436.864,332.553L438.208,332.553Z" style="fill:rgb(100,100,100);fill-rule:nonzero;"/>
                    <path d="M445.396,336.657L446.872,336.657L446.188,340.041C445.764,340.369 445.282,340.623 444.742,340.803C444.202,340.983 443.64,341.073 443.056,341.073C442.232,341.073 441.512,340.923 440.896,340.623C440.28,340.323 439.806,339.903 439.474,339.363C439.142,338.823 438.976,338.197 438.976,337.485C438.976,336.541 439.192,335.685 439.624,334.917C440.056,334.149 440.668,333.543 441.46,333.099C442.252,332.655 443.164,332.433 444.196,332.433C444.956,332.433 445.62,332.551 446.188,332.787C446.756,333.023 447.216,333.365 447.568,333.813L446.44,334.749C446.168,334.421 445.844,334.181 445.468,334.029C445.092,333.877 444.644,333.801 444.124,333.801C443.412,333.801 442.786,333.959 442.246,334.275C441.706,334.591 441.288,335.021 440.992,335.565C440.696,336.109 440.548,336.717 440.548,337.389C440.548,338.101 440.78,338.665 441.244,339.081C441.708,339.497 442.372,339.705 443.236,339.705C443.82,339.705 444.364,339.573 444.868,339.309L445.396,336.657Z" style="fill:rgb(100,100,100);fill-rule:nonzero;"/>
                </g>
                <g transform="matrix(14.1558,0,0,14.1558,-5683.33,-4353.06)">
                    <path d="M430.912,341.013C430.28,341.013 429.712,340.867 429.208,340.575C428.704,340.283 428.306,339.885 428.014,339.381C427.722,338.877 427.576,338.305 427.576,337.665C427.576,337.033 427.718,336.465 428.002,335.961C428.286,335.457 428.672,335.059 429.16,334.767C429.648,334.475 430.2,334.329 430.816,334.329C431.352,334.329 431.836,334.443 432.268,334.671C432.7,334.899 433.048,335.201 433.312,335.577L433.312,332.049C433.312,331.905 433.356,331.791 433.444,331.707C433.532,331.623 433.644,331.581 433.78,331.581C433.916,331.581 434.028,331.623 434.116,331.707C434.204,331.791 434.248,331.905 434.248,332.049L434.248,337.713C434.232,338.337 434.078,338.899 433.786,339.399C433.494,339.899 433.098,340.293 432.598,340.581C432.098,340.869 431.536,341.013 430.912,341.013ZM430.912,340.173C431.376,340.173 431.79,340.063 432.154,339.843C432.518,339.623 432.806,339.325 433.018,338.949C433.23,338.573 433.336,338.145 433.336,337.665C433.336,337.193 433.23,336.767 433.018,336.387C432.806,336.007 432.518,335.709 432.154,335.493C431.79,335.277 431.376,335.169 430.912,335.169C430.456,335.169 430.044,335.277 429.676,335.493C429.308,335.709 429.016,336.007 428.8,336.387C428.584,336.767 428.476,337.193 428.476,337.665C428.476,338.145 428.584,338.573 428.8,338.949C429.016,339.325 429.308,339.623 429.676,339.843C430.044,340.063 430.456,340.173 430.912,340.173Z" style="fill:rgb(100,100,100);fill-rule:nonzero;"/>
                    <path d="M439.396,341.013C438.756,341.013 438.184,340.869 437.68,340.581C437.176,340.293 436.78,339.897 436.492,339.393C436.204,338.889 436.06,338.317 436.06,337.677C436.06,337.029 436.204,336.453 436.492,335.949C436.78,335.445 437.176,335.049 437.68,334.761C438.184,334.473 438.756,334.329 439.396,334.329C440.036,334.329 440.606,334.473 441.106,334.761C441.606,335.049 442,335.445 442.288,335.949C442.576,336.453 442.724,337.029 442.732,337.677C442.732,338.317 442.586,338.889 442.294,339.393C442.002,339.897 441.606,340.293 441.106,340.581C440.606,340.869 440.036,341.013 439.396,341.013ZM439.396,340.173C439.86,340.173 440.276,340.065 440.644,339.849C441.012,339.633 441.3,339.337 441.508,338.961C441.716,338.585 441.82,338.157 441.82,337.677C441.82,337.197 441.716,336.767 441.508,336.387C441.3,336.007 441.012,335.709 440.644,335.493C440.276,335.277 439.86,335.169 439.396,335.169C438.932,335.169 438.516,335.277 438.148,335.493C437.78,335.709 437.49,336.007 437.278,336.387C437.066,336.767 436.96,337.197 436.96,337.677C436.96,338.157 437.066,338.585 437.278,338.961C437.49,339.337 437.78,339.633 438.148,339.849C438.516,340.065 438.932,340.173 439.396,340.173Z" style="fill:rgb(100,100,100);fill-rule:nonzero;"/>
                    <path d="M447.1,340.953C446.676,340.953 446.298,340.853 445.966,340.653C445.634,340.453 445.372,340.179 445.18,339.831C444.988,339.483 444.892,339.085 444.892,338.637L444.892,332.769C444.892,332.633 444.934,332.521 445.018,332.433C445.102,332.345 445.212,332.301 445.348,332.301C445.484,332.301 445.596,332.345 445.684,332.433C445.772,332.521 445.816,332.633 445.816,332.769L445.816,338.637C445.816,339.045 445.936,339.379 446.176,339.639C446.416,339.899 446.724,340.029 447.1,340.029L447.424,340.029C447.552,340.029 447.656,340.073 447.736,340.161C447.816,340.249 447.856,340.361 447.856,340.497C447.856,340.633 447.808,340.743 447.712,340.827C447.616,340.911 447.496,340.953 447.352,340.953L447.1,340.953ZM444.112,335.433C443.992,335.433 443.892,335.395 443.812,335.319C443.732,335.243 443.692,335.149 443.692,335.037C443.692,334.917 443.732,334.819 443.812,334.743C443.892,334.667 443.992,334.629 444.112,334.629L447.172,334.629C447.292,334.629 447.392,334.667 447.472,334.743C447.552,334.819 447.592,334.917 447.592,335.037C447.592,335.149 447.552,335.243 447.472,335.319C447.392,335.395 447.292,335.433 447.172,335.433L444.112,335.433Z" style="fill:rgb(100,100,100);fill-rule:nonzero;"/>
                </g>
                <g transform="matrix(0.814002,0,0,0.814002,422.086,123.295)">
                    <rect x="272.613" y="250.903" width="49.078" height="49.078" style="fill:rgb(100,100,100);"/>
                </g>
                <g transform="matrix(0.710664,0,0,0.659253,409.834,311.765)">
                    <path d="M911.155,37.264L900.918,37.264L900.918,30.271L929.298,30.271L929.298,37.264L919.061,37.264L919.061,66.151L911.155,66.151L911.155,37.264Z" style="fill:rgb(100,100,100);fill-rule:nonzero;"/>
                    <path d="M933.302,30.271L945.262,30.271L953.522,53.684L953.624,53.684L961.935,30.271L973.844,30.271L973.844,66.151L965.938,66.151L965.938,38.633L965.837,38.633L956.411,66.151L950.38,66.151L941.309,38.633L941.207,38.633L941.207,66.151L933.302,66.151L933.302,30.271Z" style="fill:rgb(100,100,100);fill-rule:nonzero;"/>
                </g>
                <g transform="matrix(26.5469,0,1.44498e-14,5.90543,-1747.29,-229.322)">
                    <path d="M108.763,112.899L110.325,100.494L110.945,100.494L112.528,112.899L111.806,112.899L111.475,110.182L109.726,110.182L109.405,112.899L108.763,112.899ZM109.999,107.947L111.207,107.947L110.614,102.898L109.999,107.947Z" style="fill:rgb(100,100,100);fill-rule:nonzero;"/>
                    <path d="M113.416,112.899L113.416,100.494L115.192,100.494C115.702,100.494 116.092,101.03 116.363,102.104C116.634,103.178 116.769,104.685 116.769,106.624C116.769,107.858 116.707,108.98 116.582,109.99C116.447,111.048 116.258,111.809 116.015,112.274C115.794,112.691 115.465,112.899 115.026,112.899L113.416,112.899ZM114.058,110.567L114.887,110.567C115.311,110.567 115.616,110.287 115.801,109.726C116.005,109.117 116.106,108.067 116.106,106.576C116.106,103.996 115.803,102.705 115.197,102.705L114.058,102.705L114.058,110.567Z" style="fill:rgb(100,100,100);fill-rule:nonzero;"/>
                    <path d="M118.877,112.899L117.283,100.494L118.016,100.494L119.133,109.461L120.198,100.494L120.84,100.494L119.321,112.899L118.877,112.899Z" style="fill:rgb(100,100,100);fill-rule:nonzero;"/>
                    <path d="M121.059,112.899L122.62,100.494L123.241,100.494L124.824,112.899L124.102,112.899L123.77,110.182L122.021,110.182L121.701,112.899L121.059,112.899ZM122.294,107.947L123.503,107.947L122.909,102.898L122.294,107.947Z" style="fill:rgb(100,100,100);fill-rule:nonzero;"/>
                    <path d="M125.706,112.899L125.706,100.494L126.145,100.494L128.086,107.802C128.225,108.331 128.331,108.78 128.402,109.149C128.384,107.995 128.375,107.281 128.375,107.009L128.375,100.494L128.953,100.494L128.953,112.899L128.514,112.899L126.487,105.23C126.402,104.909 126.325,104.573 126.257,104.22C126.275,105.021 126.284,105.679 126.284,106.191L126.284,112.899L125.706,112.899Z" style="fill:rgb(100,100,100);fill-rule:nonzero;"/>
                    <path d="M132.675,102.705L130.942,102.705L130.942,110.567L132.675,110.567L132.675,107.898L133.317,108.5L133.317,109.966C133.317,111.12 133.269,111.897 133.173,112.298C133.076,112.699 132.896,112.899 132.632,112.899L130.985,112.899C130.721,112.899 130.541,112.699 130.445,112.298C130.349,111.897 130.301,111.12 130.301,109.966L130.301,103.427C130.301,102.273 130.349,101.495 130.445,101.095C130.541,100.694 130.721,100.494 130.985,100.494L132.632,100.494C132.896,100.494 133.076,100.694 133.173,101.095C133.269,101.495 133.317,102.273 133.317,103.427L133.317,104.605L132.675,105.062L132.675,102.705Z" style="fill:rgb(100,100,100);fill-rule:nonzero;"/>
                    <path d="M134.643,112.899L134.643,100.494L137.467,100.494L137.467,102.609L135.285,102.609L135.285,105.374L136.558,105.374L136.558,107.49L135.285,107.49L135.285,110.567L137.494,110.567L137.494,112.899L134.643,112.899Z" style="fill:rgb(100,100,100);fill-rule:nonzero;"/>
                </g>
            </g>
        </g>
    </g>
</svg>
