<?xml version="1.0" encoding="UTF-8" standalone="no"?>
<!DOCTYPE svg PUBLIC "-//W3C//DTD SVG 1.1//EN" "http://www.w3.org/Graphics/SVG/1.1/DTD/svg11.dtd">
<svg width="344px" height="159px" version="1.1" xmlns="http://www.w3.org/2000/svg" xmlns:xlink="http://www.w3.org/1999/xlink" xml:space="preserve" xmlns:serif="http://www.serif.com/" style="fill-rule:evenodd;clip-rule:evenodd;stroke-linejoin:round;stroke-miterlimit:2;">
    <g id="Back">
        <path id="Cut" d="M206.607,96.141c0.684,0 1.358,-0.165 1.965,-0.481l22.349,-11.647c1.404,-0.731 2.287,-2.188 2.287,-3.771l0,-71.22c0.001,-4.938 4.063,-9 9,-9l39.6,-0.003c2.475,-0 4.926,0.484 7.215,1.426l38.887,18.338c6.323,2.982 10.485,9.251 10.778,16.236l4.601,79.063c0.397,6.822 -3.291,13.266 -9.375,16.38l-47.483,24.717c-2.764,1.439 -5.828,2.206 -8.943,2.239l-211.665,0c-3.119,0 -6.191,-0.769 -8.942,-2.239l-47.484,-24.717c-6.05,-3.15 -9.723,-9.568 -9.374,-16.38l4.586,-79.063c0.404,-6.952 4.534,-13.169 10.786,-16.236l38.887,-18.338c2.248,-1.061 4.724,-1.551 7.207,-1.426l39.598,0c4.938,0 9.002,4.064 9.002,9.003l-0,71.22c-0,1.583 0.883,3.04 2.287,3.771l22.349,11.647c0.607,0.316 1.281,0.481 1.965,0.481l69.917,0Zm78.068,53.643c0,2.995 -2.464,5.459 -5.459,5.459c-2.995,-0 -5.459,-2.464 -5.459,-5.459c0,-2.995 2.464,-5.459 5.459,-5.459c2.995,-0 5.459,2.464 5.459,5.459Zm-215.135,-0c-0,2.995 -2.464,5.459 -5.459,5.459c-2.995,-0 -5.459,-2.464 -5.459,-5.459c0,-2.995 2.464,-5.459 5.459,-5.459c2.995,-0 5.459,2.464 5.459,5.459Zm64.669,-8.283l74.879,0l0,10.08l-74.879,0l-0,-10.08Zm172.858,-124.557c0,2.995 -2.464,5.459 -5.459,5.459c-2.995,0 -5.459,-2.464 -5.459,-5.459c0,-2.994 2.464,-5.458 5.459,-5.458c2.995,-0 5.459,2.464 5.459,5.458Zm-259.919,0c0,2.995 -2.464,5.459 -5.459,5.459c-2.995,0 -5.459,-2.464 -5.459,-5.459c0,-2.994 2.464,-5.458 5.459,-5.458c2.995,-0 5.459,2.464 5.459,5.458Z" style="fill:#9b99e2;"/>
        <g id="Engrave">
            <g>
                <path d="M90.289,154.104l2.16,2.16l2.16,-2.16l-4.32,-0Z" style="fill:#646464;fill-rule:nonzero;"/>
                <path d="M86.712,151.237l-0.203,0l-0,0.92c-0,0.121 -0.027,0.211 -0.081,0.268c-0.053,0.057 -0.123,0.086 -0.209,0.086c-0.092,-0 -0.164,-0.03 -0.214,-0.09c-0.051,-0.06 -0.077,-0.148 -0.077,-0.264l0,-2.203c0,-0.125 0.028,-0.215 0.084,-0.271c0.056,-0.056 0.147,-0.084 0.272,-0.084l0.943,-0c0.13,-0 0.242,0.005 0.334,0.016c0.093,0.011 0.176,0.034 0.25,0.068c0.09,0.038 0.17,0.092 0.239,0.162c0.069,0.07 0.121,0.152 0.157,0.245c0.036,0.093 0.053,0.192 0.053,0.296c0,0.213 -0.06,0.384 -0.18,0.512c-0.121,0.127 -0.303,0.218 -0.548,0.271c0.103,0.055 0.201,0.136 0.295,0.242c0.094,0.107 0.177,0.221 0.251,0.341c0.073,0.121 0.131,0.229 0.172,0.326c0.041,0.097 0.061,0.164 0.061,0.2c0,0.038 -0.012,0.076 -0.036,0.113c-0.024,0.037 -0.057,0.066 -0.099,0.088c-0.041,0.021 -0.089,0.032 -0.144,0.032c-0.065,-0 -0.12,-0.015 -0.164,-0.046c-0.044,-0.031 -0.082,-0.069 -0.114,-0.116c-0.032,-0.047 -0.076,-0.116 -0.13,-0.207l-0.233,-0.387c-0.083,-0.142 -0.158,-0.25 -0.223,-0.324c-0.066,-0.074 -0.133,-0.125 -0.201,-0.153c-0.067,-0.027 -0.153,-0.041 -0.255,-0.041Zm0.332,-1.203l-0.535,0l-0,0.787l0.519,0c0.139,0 0.257,-0.012 0.352,-0.036c0.095,-0.024 0.167,-0.065 0.217,-0.123c0.051,-0.058 0.076,-0.137 0.076,-0.239c-0,-0.079 -0.021,-0.149 -0.061,-0.21c-0.04,-0.06 -0.096,-0.106 -0.168,-0.136c-0.068,-0.028 -0.201,-0.043 -0.4,-0.043Z" style="fill:#646464;fill-rule:nonzero;"/>
                <path d="M90.696,150.046l-1.307,0l0,0.703l1.203,0c0.089,0 0.155,0.02 0.199,0.06c0.043,0.039 0.065,0.092 0.065,0.157c0,0.065 -0.021,0.118 -0.064,0.159c-0.043,0.041 -0.11,0.062 -0.2,0.062l-1.203,-0l0,0.814l1.352,0c0.091,0 0.16,0.021 0.206,0.064c0.046,0.042 0.069,0.098 0.069,0.169c0,0.067 -0.023,0.122 -0.069,0.165c-0.046,0.042 -0.115,0.063 -0.206,0.063l-1.576,0c-0.127,0 -0.217,-0.028 -0.273,-0.084c-0.055,-0.056 -0.083,-0.146 -0.083,-0.271l0,-2.153c0,-0.083 0.013,-0.151 0.037,-0.204c0.025,-0.053 0.064,-0.091 0.117,-0.115c0.052,-0.024 0.12,-0.036 0.202,-0.036l1.531,-0c0.092,-0 0.161,0.02 0.206,0.061c0.045,0.041 0.067,0.095 0.067,0.161c0,0.068 -0.022,0.123 -0.067,0.164c-0.045,0.041 -0.114,0.061 -0.206,0.061Z" style="fill:#646464;fill-rule:nonzero;"/>
                <path d="M93.653,151.603c0,0.173 -0.045,0.328 -0.134,0.466c-0.089,0.139 -0.219,0.247 -0.391,0.325c-0.172,0.078 -0.376,0.117 -0.612,0.117c-0.282,-0 -0.515,-0.053 -0.699,-0.16c-0.13,-0.077 -0.236,-0.18 -0.317,-0.308c-0.082,-0.128 -0.122,-0.253 -0.122,-0.374c-0,-0.07 0.024,-0.13 0.073,-0.181c0.049,-0.05 0.111,-0.075 0.186,-0.075c0.062,0 0.113,0.02 0.156,0.059c0.042,0.039 0.078,0.097 0.108,0.174c0.037,0.091 0.076,0.167 0.118,0.228c0.043,0.061 0.102,0.112 0.179,0.152c0.077,0.039 0.178,0.059 0.303,0.059c0.172,0 0.311,-0.04 0.419,-0.12c0.107,-0.08 0.161,-0.18 0.161,-0.3c-0,-0.095 -0.029,-0.172 -0.087,-0.231c-0.058,-0.059 -0.133,-0.105 -0.225,-0.136c-0.092,-0.031 -0.214,-0.064 -0.368,-0.1c-0.206,-0.048 -0.378,-0.104 -0.517,-0.169c-0.138,-0.064 -0.248,-0.152 -0.33,-0.263c-0.081,-0.112 -0.122,-0.25 -0.122,-0.415c0,-0.158 0.043,-0.298 0.129,-0.42c0.086,-0.123 0.211,-0.217 0.373,-0.282c0.163,-0.066 0.354,-0.099 0.575,-0.099c0.175,-0 0.327,0.022 0.456,0.065c0.128,0.044 0.234,0.102 0.319,0.174c0.085,0.072 0.146,0.148 0.185,0.228c0.04,0.079 0.059,0.157 0.059,0.232c0,0.069 -0.024,0.131 -0.073,0.187c-0.049,0.055 -0.11,0.083 -0.183,0.083c-0.066,-0 -0.117,-0.017 -0.151,-0.05c-0.035,-0.033 -0.072,-0.088 -0.112,-0.163c-0.053,-0.108 -0.115,-0.193 -0.188,-0.253c-0.073,-0.061 -0.19,-0.091 -0.352,-0.091c-0.149,0 -0.27,0.033 -0.362,0.099c-0.092,0.065 -0.138,0.145 -0.138,0.237c0,0.057 0.016,0.107 0.047,0.148c0.032,0.042 0.075,0.078 0.129,0.108c0.055,0.03 0.11,0.053 0.166,0.07c0.056,0.017 0.149,0.042 0.278,0.074c0.161,0.038 0.307,0.08 0.438,0.125c0.131,0.046 0.242,0.101 0.334,0.166c0.092,0.066 0.163,0.148 0.215,0.247c0.051,0.1 0.077,0.222 0.077,0.367Z" style="fill:#646464;fill-rule:nonzero;"/>
                <path d="M96.032,150.046l-1.307,0l0,0.703l1.203,0c0.089,0 0.155,0.02 0.199,0.06c0.043,0.039 0.065,0.092 0.065,0.157c0,0.065 -0.021,0.118 -0.064,0.159c-0.043,0.041 -0.11,0.062 -0.2,0.062l-1.203,-0l0,0.814l1.352,0c0.091,0 0.16,0.021 0.206,0.064c0.046,0.042 0.069,0.098 0.069,0.169c0,0.067 -0.023,0.122 -0.069,0.165c-0.046,0.042 -0.115,0.063 -0.206,0.063l-1.576,0c-0.127,0 -0.217,-0.028 -0.273,-0.084c-0.055,-0.056 -0.083,-0.146 -0.083,-0.271l0,-2.153c0,-0.083 0.013,-0.151 0.037,-0.204c0.025,-0.053 0.064,-0.091 0.117,-0.115c0.052,-0.024 0.12,-0.036 0.202,-0.036l1.531,-0c0.092,-0 0.161,0.02 0.206,0.061c0.045,0.041 0.067,0.095 0.067,0.161c0,0.068 -0.022,0.123 -0.067,0.164c-0.045,0.041 -0.114,0.061 -0.206,0.061Z" style="fill:#646464;fill-rule:nonzero;"/>
                <path d="M98.673,150.077l-0.633,0l-0,2.08c-0,0.12 -0.027,0.209 -0.08,0.267c-0.054,0.058 -0.123,0.087 -0.207,0.087c-0.086,-0 -0.156,-0.029 -0.21,-0.088c-0.054,-0.059 -0.081,-0.147 -0.081,-0.266l-0,-2.08l-0.633,0c-0.099,0 -0.173,-0.022 -0.221,-0.065c-0.048,-0.044 -0.072,-0.101 -0.072,-0.173c-0,-0.074 0.025,-0.133 0.075,-0.176c0.05,-0.043 0.123,-0.064 0.218,-0.064l1.844,-0c0.1,-0 0.174,0.022 0.223,0.066c0.049,0.044 0.073,0.102 0.073,0.174c0,0.072 -0.024,0.129 -0.074,0.173c-0.049,0.043 -0.123,0.065 -0.222,0.065Z" style="fill:#646464;fill-rule:nonzero;"/>
            </g>
            <path d="M263.808,3.984l-6.12,8.28l2.604,-0.473l-1.884,6.593l6.12,-8.28l-2.604,0.474l1.884,-6.594Z" style="fill:#646464;fill-rule:nonzero;"/>
        </g>
    </g>
</svg>
