<?xml version="1.0" encoding="UTF-8" standalone="no"?>
<!DOCTYPE svg PUBLIC "-//W3C//DTD SVG 1.1//EN" "http://www.w3.org/Graphics/SVG/1.1/DTD/svg11.dtd">
<svg width="100%" height="100%" viewBox="0 0 344 159" version="1.1" xmlns="http://www.w3.org/2000/svg" xmlns:xlink="http://www.w3.org/1999/xlink" xml:space="preserve" xmlns:serif="http://www.serif.com/" style="fill-rule:evenodd;clip-rule:evenodd;stroke-linejoin:round;stroke-miterlimit:2;">
    <g id="Back">
        <g id="Cut" transform="matrix(-1,0,0,1,343.318,0)">
            <path d="M136.711,96.141C136.027,96.141 135.353,95.976 134.746,95.66L112.396,84.013C110.993,83.282 110.11,81.825 110.11,80.242L110.11,9.022C110.109,4.084 106.047,0.022 101.11,0.022L61.51,0.019C59.035,0.019 56.584,0.503 54.295,1.445L15.408,19.783C9.085,22.765 4.923,29.034 4.63,36.019L0.029,115.082C-0.368,121.904 3.32,128.348 9.404,131.462L56.887,156.179C59.651,157.618 62.715,158.385 65.83,158.418L277.494,158.418C280.614,158.418 283.686,157.649 286.437,156.179L333.921,131.462C339.971,128.312 343.644,121.894 343.295,115.082L338.709,36.019C338.305,29.067 334.175,22.85 327.923,19.783L289.036,1.445C286.787,0.384 284.312,-0.106 281.829,0.019L242.231,0.019C237.293,0.019 233.229,4.083 233.229,9.022L233.229,80.242C233.229,81.825 232.345,83.282 230.942,84.013L208.593,95.66C207.986,95.976 207.312,96.141 206.628,96.141L136.711,96.141ZM58.643,149.784C58.643,152.779 61.107,155.243 64.102,155.243C67.096,155.243 69.561,152.779 69.561,149.784C69.561,146.789 67.096,144.325 64.102,144.325C61.107,144.325 58.643,146.789 58.643,149.784ZM273.778,149.784C273.778,152.779 276.242,155.243 279.237,155.243C282.232,155.243 284.696,152.779 284.696,149.784C284.696,146.789 282.232,144.325 279.237,144.325C276.242,144.325 273.778,146.789 273.778,149.784ZM209.109,141.501L134.229,141.501L134.229,151.581L209.109,151.581L209.109,141.501ZM36.251,16.944C36.251,19.939 38.715,22.403 41.71,22.403C44.704,22.403 47.169,19.939 47.169,16.944C47.169,13.95 44.704,11.486 41.71,11.486C38.715,11.486 36.251,13.95 36.251,16.944ZM296.17,16.944C296.17,19.939 298.634,22.403 301.629,22.403C304.623,22.403 307.088,19.939 307.088,16.944C307.088,13.95 304.623,11.486 301.629,11.486C298.634,11.486 296.17,13.95 296.17,16.944Z" style="fill:rgb(155,153,226);"/>
        </g>
        <g id="Engrave">
            <g>
                <g transform="matrix(-1,0,0,-1,375.408,-0.261831)">
                    <path d="M285.119,-154.366L282.959,-156.526L280.799,-154.366L285.119,-154.366Z" style="fill:rgb(100,100,100);fill-rule:nonzero;"/>
                </g>
                <g transform="matrix(0.476282,4.39348e-17,2.15503e-16,0.2298,33.5938,126.457)">
                    <g>
                        <path d="M111.526,107.837L111.1,107.837L111.1,111.84C111.1,112.367 111.044,112.755 110.931,113.004C110.819,113.254 110.673,113.378 110.493,113.378C110.299,113.378 110.148,113.248 110.042,112.987C109.935,112.727 109.882,112.344 109.882,111.84L109.882,102.253C109.882,101.709 109.94,101.315 110.058,101.071C110.176,100.828 110.366,100.706 110.628,100.706L112.609,100.706C112.882,100.706 113.116,100.73 113.31,100.778C113.504,100.826 113.679,100.924 113.835,101.071C114.023,101.236 114.19,101.471 114.335,101.777C114.48,102.083 114.59,102.438 114.665,102.844C114.74,103.249 114.778,103.678 114.778,104.131C114.778,105.06 114.652,105.803 114.399,106.358C114.146,106.913 113.762,107.307 113.248,107.539C113.464,107.777 113.671,108.129 113.868,108.593C114.064,109.058 114.24,109.552 114.395,110.076C114.549,110.601 114.669,111.074 114.755,111.496C114.842,111.918 114.885,112.208 114.885,112.367C114.885,112.531 114.859,112.694 114.809,112.856C114.758,113.017 114.689,113.145 114.602,113.238C114.514,113.332 114.413,113.378 114.298,113.378C114.162,113.378 114.047,113.312 113.954,113.179C113.861,113.045 113.781,112.877 113.714,112.673C113.647,112.469 113.556,112.169 113.441,111.772L112.953,110.089C112.778,109.472 112.622,109.001 112.484,108.678C112.346,108.355 112.205,108.134 112.063,108.015C111.921,107.896 111.742,107.837 111.526,107.837ZM112.223,102.601L111.1,102.601L111.1,106.027L112.19,106.027C112.483,106.027 112.729,105.974 112.929,105.869C113.128,105.764 113.281,105.586 113.386,105.334C113.491,105.082 113.544,104.735 113.544,104.293C113.544,103.947 113.501,103.642 113.417,103.379C113.332,103.116 113.214,102.919 113.064,102.788C112.922,102.664 112.642,102.601 112.223,102.601Z" style="fill:rgb(100,100,100);fill-rule:nonzero;"/>
                        <path d="M119.892,102.652L117.148,102.652L117.148,105.712L119.674,105.712C119.86,105.712 119.999,105.798 120.091,105.971C120.182,106.144 120.228,106.372 120.228,106.655C120.228,106.939 120.183,107.17 120.093,107.348C120.002,107.527 119.863,107.616 119.674,107.616L117.148,107.616L117.148,111.16L119.986,111.16C120.177,111.16 120.322,111.252 120.419,111.436C120.516,111.62 120.564,111.865 120.564,112.171C120.564,112.466 120.516,112.705 120.419,112.89C120.322,113.074 120.177,113.166 119.986,113.166L116.677,113.166C116.411,113.166 116.221,113.044 116.105,112.8C115.988,112.557 115.93,112.163 115.93,111.619L115.93,102.253C115.93,101.89 115.956,101.594 116.008,101.365C116.06,101.135 116.142,100.968 116.252,100.863C116.363,100.758 116.504,100.706 116.677,100.706L119.892,100.706C120.086,100.706 120.23,100.795 120.324,100.974C120.419,101.152 120.466,101.386 120.466,101.675C120.466,101.97 120.419,102.206 120.324,102.385C120.23,102.563 120.086,102.652 119.892,102.652Z" style="fill:rgb(100,100,100);fill-rule:nonzero;"/>
                        <path d="M126.1,109.426C126.1,110.18 126.007,110.857 125.819,111.458C125.632,112.058 125.358,112.528 124.997,112.868C124.636,113.208 124.208,113.378 123.714,113.378C123.12,113.378 122.631,113.146 122.246,112.681C121.972,112.347 121.75,111.901 121.579,111.343C121.408,110.785 121.323,110.242 121.323,109.715C121.323,109.409 121.374,109.147 121.477,108.929C121.579,108.711 121.71,108.602 121.868,108.602C121.997,108.602 122.105,108.687 122.194,108.857C122.283,109.027 122.359,109.279 122.422,109.613C122.498,110.01 122.581,110.341 122.67,110.608C122.759,110.874 122.884,111.093 123.045,111.266C123.206,111.439 123.418,111.526 123.681,111.526C124.042,111.526 124.335,111.351 124.56,111.003C124.786,110.654 124.899,110.219 124.899,109.698C124.899,109.285 124.838,108.949 124.716,108.691C124.595,108.433 124.437,108.236 124.245,108.1C124.052,107.964 123.794,107.82 123.472,107.667C123.04,107.457 122.678,107.212 122.387,106.932C122.096,106.651 121.865,106.269 121.694,105.784C121.523,105.3 121.438,104.698 121.438,103.978C121.438,103.293 121.528,102.683 121.708,102.151C121.889,101.618 122.15,101.209 122.492,100.923C122.833,100.637 123.235,100.494 123.697,100.494C124.066,100.494 124.385,100.588 124.655,100.778C124.924,100.968 125.148,101.22 125.325,101.535C125.503,101.849 125.633,102.179 125.715,102.525C125.797,102.87 125.838,103.208 125.838,103.536C125.838,103.837 125.787,104.107 125.684,104.348C125.582,104.589 125.454,104.709 125.301,104.709C125.161,104.709 125.055,104.637 124.983,104.492C124.91,104.348 124.832,104.111 124.747,103.783C124.638,103.312 124.506,102.946 124.353,102.682C124.2,102.419 123.954,102.287 123.615,102.287C123.301,102.287 123.047,102.43 122.854,102.716C122.662,103.002 122.565,103.346 122.565,103.749C122.565,103.998 122.598,104.213 122.664,104.395C122.729,104.576 122.82,104.732 122.934,104.862C123.049,104.992 123.165,105.094 123.283,105.168C123.401,105.242 123.595,105.349 123.865,105.491C124.204,105.655 124.511,105.837 124.786,106.035C125.061,106.233 125.294,106.474 125.487,106.757C125.68,107.041 125.83,107.399 125.938,107.833C126.046,108.266 126.1,108.797 126.1,109.426Z" style="fill:rgb(100,100,100);fill-rule:nonzero;"/>
                        <path d="M131.095,102.652L128.352,102.652L128.352,105.712L130.878,105.712C131.064,105.712 131.202,105.798 131.294,105.971C131.385,106.144 131.431,106.372 131.431,106.655C131.431,106.939 131.386,107.17 131.296,107.348C131.206,107.527 131.066,107.616 130.878,107.616L128.352,107.616L128.352,111.16L131.189,111.16C131.381,111.16 131.525,111.252 131.622,111.436C131.719,111.62 131.768,111.865 131.768,112.171C131.768,112.466 131.719,112.705 131.622,112.89C131.525,113.074 131.381,113.166 131.189,113.166L127.88,113.166C127.615,113.166 127.424,113.044 127.308,112.8C127.192,112.557 127.134,112.163 127.134,111.619L127.134,102.253C127.134,101.89 127.16,101.594 127.212,101.365C127.264,101.135 127.345,100.968 127.456,100.863C127.566,100.758 127.708,100.706 127.88,100.706L131.095,100.706C131.289,100.706 131.433,100.795 131.528,100.974C131.622,101.152 131.669,101.386 131.669,101.675C131.669,101.97 131.622,102.206 131.528,102.385C131.433,102.563 131.289,102.652 131.095,102.652Z" style="fill:rgb(100,100,100);fill-rule:nonzero;"/>
                        <path d="M136.639,102.788L135.311,102.788L135.311,111.84C135.311,112.361 135.255,112.748 135.142,113C135.03,113.252 134.885,113.378 134.708,113.378C134.527,113.378 134.38,113.251 134.267,112.996C134.154,112.741 134.097,112.356 134.097,111.84L134.097,102.788L132.768,102.788C132.56,102.788 132.406,102.693 132.305,102.504C132.204,102.314 132.153,102.063 132.153,101.751C132.153,101.428 132.206,101.173 132.311,100.986C132.416,100.799 132.569,100.706 132.768,100.706L136.639,100.706C136.85,100.706 137.006,100.802 137.109,100.995C137.211,101.188 137.263,101.44 137.263,101.751C137.263,102.063 137.211,102.314 137.107,102.504C137.003,102.693 136.847,102.788 136.639,102.788Z" style="fill:rgb(100,100,100);fill-rule:nonzero;"/>
                    </g>
                </g>
            </g>
            <g transform="matrix(-1,0,0,-1,375.408,-0.261831)">
                <path d="M111.6,-4.246L117.72,-12.526L115.116,-12.053L117,-18.646L110.88,-10.366L113.483,-10.84L111.6,-4.246Z" style="fill:rgb(100,100,100);fill-rule:nonzero;"/>
            </g>
        </g>
    </g>
</svg>
