<?xml version="1.0" encoding="UTF-8" standalone="no"?>
<!DOCTYPE svg PUBLIC "-//W3C//DTD SVG 1.1//EN" "http://www.w3.org/Graphics/SVG/1.1/DTD/svg11.dtd">
<svg width="210px" height="248px" version="1.1" xmlns="http://www.w3.org/2000/svg" xmlns:xlink="http://www.w3.org/1999/xlink" xml:space="preserve" xmlns:serif="http://www.serif.com/" style="fill-rule:evenodd;clip-rule:evenodd;">
    <g id="Front">
        <path id="Cut" d="M9,247.096c-4.937,-0 -9,-4.063 -9,-9l0,-229.096c0,-4.937 4.063,-9 9,-9l191.339,0c4.937,0 9,4.063 9,9l0.08,198.31c0.003,6.757 -3.605,13.025 -9.451,16.416l-40.582,21.131c-2.761,1.437 -5.823,2.204 -8.935,2.239l-141.451,-0Zm137.732,-8.776c-0,2.995 2.464,5.459 5.459,5.459c2.995,0 5.459,-2.464 5.459,-5.459c-0,-2.994 -2.464,-5.458 -5.459,-5.458c-2.995,-0 -5.459,2.464 -5.459,5.458Zm-143.64,0c0,2.995 2.465,5.459 5.459,5.459c2.995,0 5.459,-2.464 5.459,-5.459c0,-2.994 -2.464,-5.458 -5.459,-5.458c-2.994,-0 -5.459,2.464 -5.459,5.458Zm185.792,-22.083c0.456,0.876 0.11,1.973 -0.766,2.429c-0.877,0.457 -1.974,0.111 -2.43,-0.765l-6.646,-12.774c-0.455,-0.875 -0.11,-1.97 0.765,-2.425c0.874,-0.455 1.968,-0.111 2.424,0.762l6.653,12.773Zm-122.968,-9.871l-3.427,-6.178c-1.63,-2.931 -5.382,-4.002 -8.313,-2.372c-0.996,0.554 -1.818,1.376 -2.372,2.372l-3.435,6.178c-0.322,0.579 -0.474,1.238 -0.439,1.9l0.007,5.328c0.002,1.165 0.96,2.123 2.124,2.124l14.17,0c1.166,0 2.127,-0.957 2.131,-2.124l-0.007,-5.328c-0.001,-0.658 -0.151,-1.308 -0.439,-1.9Zm129.354,6.544c0.456,0.877 0.111,1.973 -0.766,2.43c-0.876,0.457 -1.973,0.111 -2.43,-0.766l-6.647,-12.775c-0.455,-0.875 -0.11,-1.97 0.766,-2.425c0.874,-0.455 1.969,-0.111 2.425,0.764l6.652,12.772Zm-0.267,-16.093l6.654,12.775c0.456,0.876 0.111,1.972 -0.765,2.428c-0.876,0.456 -1.972,0.111 -2.428,-0.765l-6.65,-12.781c-0.454,-0.874 -0.108,-1.967 0.766,-2.422c0.874,-0.455 1.968,-0.109 2.423,0.765Zm-65.807,-4.069c0,5.054 4.159,9.213 9.213,9.213c5.054,-0 9.212,-4.159 9.212,-9.213c0,-5.054 -4.158,-9.212 -9.212,-9.212c-5.054,-0 -9.213,4.158 -9.213,9.212Zm-52.884,-14.318l-6.17,3.427c-2.931,1.631 -4,5.385 -2.369,8.316c0.554,0.994 1.374,1.815 2.369,2.369l6.17,3.434c0.58,0.323 1.239,0.475 1.901,0.439l5.328,-0.007c1.166,-0.002 2.126,-0.958 2.131,-2.124l0,-14.177c0,-1.165 -0.958,-2.124 -2.124,-2.124l-5.335,0.007c-0.658,0.001 -1.308,0.152 -1.901,0.44Zm-40.233,-0.447l-5.328,0c-1.165,0 -2.124,0.959 -2.124,2.124l0,14.177c0,1.165 0.959,2.124 2.124,2.124l5.328,-0c0.659,-0 1.309,-0.15 1.901,-0.439l6.177,-3.427c2.931,-1.626 4.005,-5.376 2.379,-8.307c-0.555,-0.999 -1.379,-1.824 -2.379,-2.378l-6.177,-3.435c-0.58,-0.322 -1.239,-0.474 -1.901,-0.439Zm120.837,0.725c-0,5.054 4.159,9.213 9.213,9.213c5.053,-0 9.212,-4.159 9.212,-9.213c0,-5.054 -4.159,-9.212 -9.212,-9.212c-5.054,-0 -9.213,4.158 -9.213,9.212Zm-108.539,-10.682l3.427,6.177c1.626,2.931 5.375,4.005 8.306,2.379c1,-0.555 1.824,-1.379 2.379,-2.379l3.434,-6.17c0.322,-0.58 0.475,-1.239 0.439,-1.901l0,-5.328c0,-1.169 -0.962,-2.131 -2.131,-2.131l-14.17,-0c-1.165,-0 -2.124,0.959 -2.124,2.124l0,5.335c0,0.657 0.151,1.304 0.44,1.894Zm-28.75,-138.153l0,97.228c0,2.334 1.921,4.255 4.255,4.255l135.633,0c1.684,0 3.344,-0.405 4.839,-1.181l22.78,-11.858c1.494,-0.777 2.472,-2.287 2.571,-3.967l-0,-84.477c-0,-2.331 -1.918,-4.248 -4.248,-4.248l-161.575,-0c-2.331,-0 -4.251,1.916 -4.255,4.248Zm-16.535,-21.231c0,2.994 2.465,5.459 5.459,5.459c2.995,-0 5.459,-2.465 5.459,-5.459c0,-2.995 -2.464,-5.459 -5.459,-5.459c-2.994,-0 -5.459,2.464 -5.459,5.459Zm192.24,-0c-0,2.994 2.464,5.459 5.459,5.459c2.994,-0 5.459,-2.465 5.459,-5.459c-0,-2.995 -2.465,-5.459 -5.459,-5.459c-2.995,-0 -5.459,2.464 -5.459,5.459Z" style="fill:#dadada;"/>
        <g id="Engrave">
            <g>
                <path d="M48.837,168.856c-4.419,2.026 -8.002,5.608 -10.029,10.027" style="fill:none;fill-rule:nonzero;stroke:#646464;stroke-width:1px;"/>
                <path d="M38.805,195.511c2.024,4.419 5.605,8.002 10.023,10.03" style="fill:none;fill-rule:nonzero;stroke:#646464;stroke-width:1px;"/>
                <path d="M65.462,205.547c4.42,-2.026 8.003,-5.607 10.031,-10.027" style="fill:none;fill-rule:nonzero;stroke:#646464;stroke-width:1px;"/>
                <path d="M75.495,178.884c-2.027,-4.42 -5.61,-8.002 -10.03,-10.028" style="fill:none;fill-rule:nonzero;stroke:#646464;stroke-width:1px;"/>
            </g>
            <g>
                <path d="M143.877,203.255l27.72,-14.04c-0,0 -0,0 -0,0c5.731,-3.067 7.923,-10.306 4.856,-16.037c-3.019,-5.642 -10.091,-7.871 -15.8,-4.979l-27.72,14.039c0,0 0,0 0,0c-5.731,3.067 -7.923,10.307 -4.856,16.038c3.019,5.642 10.091,7.871 15.8,4.979Z" style="fill:none;fill-rule:nonzero;stroke:#646464;stroke-width:1px;"/>
                <path d="M155.971,166.165l-2.621,-5.035l4.312,-2.245c0.755,-0.393 1.302,-0.264 1.64,0.386l0.32,0.615c0.258,0.494 0.115,0.928 -0.426,1.301c0.645,-0.237 1.115,-0.072 1.41,0.494l0.335,0.644c0.342,0.656 0.019,1.242 -0.97,1.757l-4,2.083Zm2.687,-4.177l-2.674,1.392l0.666,1.278l2.673,-1.392c0.195,-0.102 0.32,-0.195 0.374,-0.282c0.071,-0.119 0.057,-0.273 -0.042,-0.461l-0.198,-0.381c-0.098,-0.189 -0.216,-0.288 -0.354,-0.299c-0.102,-0.005 -0.25,0.043 -0.445,0.145Zm-1.057,-2.03l-2.673,1.392l0.625,1.2l2.673,-1.392c0.358,-0.186 0.474,-0.399 0.349,-0.64l-0.249,-0.478c-0.125,-0.241 -0.367,-0.268 -0.725,-0.082Z" style="fill:#646464;fill-rule:nonzero;"/>
                <path d="M127.671,180.381l0.228,-6.517l1.132,-0.59l5.509,3.532l-1.317,0.685l-1.179,-0.787l-3.191,1.661l-0.011,1.407l-1.171,0.609Zm1.207,-3.183l2.206,-1.148l-2.15,-1.485l-0.056,2.633Z" style="fill:#646464;fill-rule:nonzero;"/>
            </g>
            <g>
                <path d="M207.034,144.721l-3.543,-0l3.543,12.24l-0,-12.24Z" style="fill:#646464;fill-rule:nonzero;"/>
                <path d="M203.963,167.316l2.384,-0.805l-2.401,-0.808c-0.126,-0.042 -0.213,-0.073 -0.263,-0.094c-0.049,-0.021 -0.093,-0.056 -0.133,-0.105c-0.04,-0.048 -0.059,-0.114 -0.059,-0.198c-0,-0.062 0.015,-0.119 0.046,-0.171c0.03,-0.053 0.071,-0.094 0.122,-0.124c0.051,-0.03 0.102,-0.045 0.154,-0.045c0.036,0 0.074,0.005 0.115,0.015c0.042,0.009 0.082,0.021 0.122,0.036c0.039,0.015 0.08,0.029 0.122,0.044l2.323,0.86c0.089,0.031 0.173,0.062 0.253,0.093c0.08,0.03 0.151,0.066 0.211,0.106c0.061,0.041 0.111,0.094 0.149,0.162c0.039,0.067 0.059,0.149 0.059,0.246c-0,0.097 -0.019,0.179 -0.057,0.246c-0.038,0.067 -0.088,0.121 -0.151,0.162c-0.062,0.042 -0.133,0.077 -0.212,0.108c-0.079,0.031 -0.163,0.062 -0.252,0.092l-2.304,0.847c-0.042,0.014 -0.083,0.029 -0.123,0.044c-0.041,0.016 -0.084,0.029 -0.131,0.039c-0.047,0.011 -0.087,0.016 -0.119,0.016c-0.082,0 -0.158,-0.033 -0.226,-0.099c-0.067,-0.067 -0.101,-0.15 -0.101,-0.25c-0,-0.123 0.037,-0.21 0.112,-0.261c0.076,-0.051 0.196,-0.103 0.36,-0.156Z" style="fill:#646464;fill-rule:nonzero;"/>
                <path d="M203.491,162.927c-0,-0.369 0.074,-0.685 0.224,-0.95c0.149,-0.264 0.362,-0.464 0.638,-0.6c0.275,-0.135 0.599,-0.203 0.971,-0.203c0.275,-0 0.524,0.037 0.749,0.111c0.225,0.075 0.42,0.186 0.584,0.335c0.165,0.149 0.291,0.331 0.379,0.548c0.087,0.216 0.131,0.465 0.131,0.744c-0,0.278 -0.045,0.527 -0.135,0.747c-0.09,0.22 -0.216,0.403 -0.379,0.551c-0.164,0.147 -0.36,0.258 -0.59,0.333c-0.229,0.075 -0.477,0.113 -0.744,0.113c-0.273,-0 -0.524,-0.039 -0.752,-0.118c-0.228,-0.078 -0.422,-0.192 -0.582,-0.341c-0.16,-0.148 -0.282,-0.329 -0.367,-0.543c-0.085,-0.213 -0.127,-0.456 -0.127,-0.727Zm1.828,-1.024c-0.26,0 -0.486,0.043 -0.677,0.127c-0.19,0.084 -0.335,0.204 -0.432,0.36c-0.098,0.156 -0.147,0.335 -0.147,0.537c-0,0.144 0.027,0.277 0.081,0.399c0.054,0.122 0.133,0.227 0.237,0.315c0.103,0.088 0.235,0.158 0.396,0.208c0.161,0.051 0.341,0.077 0.542,0.077c0.202,-0 0.385,-0.026 0.548,-0.077c0.163,-0.05 0.299,-0.122 0.406,-0.215c0.108,-0.093 0.188,-0.2 0.241,-0.32c0.054,-0.121 0.08,-0.253 0.08,-0.397c0,-0.184 -0.046,-0.354 -0.138,-0.508c-0.092,-0.154 -0.234,-0.277 -0.427,-0.369c-0.192,-0.091 -0.429,-0.137 -0.71,-0.137Z" style="fill:#646464;fill-rule:nonzero;"/>
                <path d="M203.927,159.852l2.587,0l0,-1.46c0,-0.116 0.029,-0.205 0.085,-0.268c0.057,-0.062 0.128,-0.093 0.214,-0.093c0.087,-0 0.158,0.031 0.212,0.092c0.054,0.062 0.081,0.151 0.081,0.269l0,1.739c0,0.157 -0.035,0.269 -0.104,0.338c-0.07,0.069 -0.182,0.103 -0.337,0.103l-2.738,0c-0.145,0 -0.255,-0.032 -0.327,-0.098c-0.073,-0.065 -0.109,-0.152 -0.109,-0.258c-0,-0.109 0.036,-0.196 0.108,-0.263c0.071,-0.067 0.181,-0.101 0.328,-0.101Z" style="fill:#646464;fill-rule:nonzero;"/>
            </g>
            <g>
                <path d="M18.648,0l-0,18.72" style="fill:none;fill-rule:nonzero;stroke:#646464;stroke-width:1px;"/>
                <path d="M0,18.72l209.343,-0" style="fill:none;fill-rule:nonzero;stroke:#646464;stroke-width:1px;"/>
                <path d="M190.684,0l0,18.72" style="fill:none;fill-rule:nonzero;stroke:#646464;stroke-width:1px;"/>
            </g>
            <g>
                <path d="M40.046,1.8c1.383,-0 2.52,1.138 2.52,2.52c0,1.382 -1.137,2.52 -2.52,2.52l-14.04,-0c-1.382,-0 -2.52,-1.138 -2.52,-2.52c0,-1.382 1.138,-2.52 2.52,-2.52l14.04,-0Z" style="fill:none;fill-rule:nonzero;stroke:#646464;stroke-width:1px;"/>
                <path d="M28.375,0l0,1.8" style="fill:none;fill-rule:nonzero;stroke:#646464;stroke-width:1px;"/>
                <path d="M29.793,0l0,1.8" style="fill:none;fill-rule:nonzero;stroke:#646464;stroke-width:1px;"/>
                <path d="M31.212,0l-0,1.8" style="fill:none;fill-rule:nonzero;stroke:#646464;stroke-width:1px;"/>
                <path d="M26.859,4.605l-0.531,0l0,0.811c0,0.116 -0.027,0.204 -0.082,0.264c-0.055,0.06 -0.124,0.09 -0.207,0.09c-0.087,-0 -0.158,-0.03 -0.211,-0.089c-0.053,-0.06 -0.08,-0.147 -0.08,-0.261l-0,-2.207c-0,-0.128 0.029,-0.219 0.088,-0.274c0.058,-0.054 0.152,-0.082 0.279,-0.082l0.744,0c0.22,0 0.39,0.017 0.508,0.051c0.117,0.033 0.219,0.087 0.304,0.162c0.085,0.076 0.15,0.168 0.194,0.278c0.044,0.109 0.067,0.232 0.067,0.369c-0,0.291 -0.09,0.512 -0.27,0.663c-0.18,0.15 -0.447,0.225 -0.803,0.225Zm-0.14,-1.312l-0.391,-0l0,0.875l0.391,-0c0.136,-0 0.251,-0.014 0.342,-0.043c0.092,-0.029 0.162,-0.076 0.21,-0.141c0.049,-0.065 0.073,-0.15 0.073,-0.255c-0,-0.127 -0.037,-0.23 -0.112,-0.309c-0.083,-0.085 -0.254,-0.127 -0.513,-0.127Z" style="fill:#646464;fill-rule:nonzero;"/>
                <path d="M29.676,2.809c0.297,-0 0.551,0.06 0.764,0.18c0.213,0.121 0.374,0.292 0.484,0.514c0.109,0.222 0.164,0.483 0.164,0.782c-0,0.221 -0.03,0.423 -0.09,0.604c-0.06,0.181 -0.15,0.338 -0.27,0.47c-0.119,0.133 -0.267,0.235 -0.441,0.305c-0.174,0.07 -0.374,0.106 -0.6,0.106c-0.224,-0 -0.424,-0.037 -0.601,-0.109c-0.177,-0.072 -0.325,-0.174 -0.444,-0.306c-0.118,-0.131 -0.208,-0.289 -0.268,-0.474c-0.061,-0.185 -0.091,-0.385 -0.091,-0.6c0,-0.22 0.032,-0.422 0.095,-0.605c0.063,-0.184 0.154,-0.34 0.274,-0.469c0.12,-0.129 0.266,-0.228 0.438,-0.296c0.172,-0.068 0.367,-0.102 0.586,-0.102Zm0.824,1.472c-0,-0.209 -0.034,-0.391 -0.102,-0.545c-0.067,-0.153 -0.164,-0.27 -0.29,-0.348c-0.125,-0.079 -0.27,-0.118 -0.432,-0.118c-0.116,-0 -0.223,0.021 -0.322,0.065c-0.098,0.044 -0.183,0.107 -0.254,0.19c-0.07,0.084 -0.126,0.19 -0.167,0.32c-0.042,0.129 -0.062,0.275 -0.062,0.436c-0,0.163 0.02,0.31 0.062,0.442c0.041,0.131 0.098,0.24 0.173,0.327c0.075,0.086 0.161,0.151 0.258,0.194c0.097,0.043 0.204,0.065 0.319,0.065c0.149,-0 0.285,-0.038 0.41,-0.112c0.124,-0.074 0.223,-0.189 0.297,-0.343c0.073,-0.155 0.11,-0.346 0.11,-0.573Z" style="fill:#646464;fill-rule:nonzero;"/>
                <path d="M33.66,5.27l-0.463,-1.717l-0.469,1.717c-0.036,0.13 -0.065,0.223 -0.087,0.28c-0.021,0.056 -0.058,0.107 -0.112,0.152c-0.053,0.045 -0.124,0.068 -0.213,0.068c-0.071,-0 -0.13,-0.014 -0.176,-0.041c-0.047,-0.026 -0.084,-0.064 -0.113,-0.113c-0.028,-0.049 -0.052,-0.107 -0.07,-0.174c-0.018,-0.067 -0.035,-0.129 -0.049,-0.186l-0.476,-1.928c-0.029,-0.112 -0.043,-0.197 -0.043,-0.256c-0,-0.074 0.026,-0.136 0.078,-0.187c0.052,-0.051 0.116,-0.076 0.193,-0.076c0.106,-0 0.176,0.033 0.213,0.101c0.036,0.068 0.068,0.166 0.096,0.295l0.375,1.672l0.42,-1.565c0.031,-0.119 0.059,-0.21 0.084,-0.273c0.024,-0.062 0.065,-0.116 0.121,-0.162c0.056,-0.046 0.132,-0.068 0.228,-0.068c0.098,-0 0.174,0.023 0.228,0.071c0.054,0.047 0.091,0.099 0.112,0.155c0.021,0.056 0.049,0.149 0.084,0.277l0.424,1.565l0.375,-1.672c0.018,-0.087 0.035,-0.156 0.052,-0.205c0.016,-0.049 0.044,-0.094 0.084,-0.133c0.039,-0.039 0.097,-0.058 0.172,-0.058c0.076,-0 0.14,0.025 0.193,0.075c0.053,0.05 0.079,0.113 0.079,0.188c-0,0.054 -0.014,0.139 -0.043,0.256l-0.477,1.928c-0.032,0.13 -0.059,0.225 -0.081,0.286c-0.021,0.061 -0.058,0.114 -0.109,0.159c-0.051,0.046 -0.124,0.069 -0.218,0.069c-0.088,-0 -0.159,-0.023 -0.213,-0.067c-0.053,-0.044 -0.09,-0.094 -0.111,-0.149c-0.021,-0.056 -0.05,-0.15 -0.088,-0.284Z" style="fill:#646464;fill-rule:nonzero;"/>
                <path d="M37.271,3.305l-1.306,-0l-0,0.703l1.203,-0c0.088,-0 0.154,0.02 0.198,0.059c0.044,0.04 0.066,0.092 0.066,0.158c-0,0.065 -0.022,0.118 -0.065,0.159c-0.043,0.041 -0.109,0.061 -0.199,0.061l-1.203,0l-0,0.815l1.351,-0c0.091,-0 0.16,0.021 0.206,0.063c0.047,0.043 0.07,0.099 0.07,0.169c-0,0.068 -0.023,0.123 -0.07,0.165c-0.046,0.043 -0.115,0.064 -0.206,0.064l-1.576,-0c-0.126,-0 -0.217,-0.028 -0.272,-0.084c-0.056,-0.056 -0.083,-0.147 -0.083,-0.272l-0,-2.152c-0,-0.083 0.012,-0.151 0.037,-0.204c0.025,-0.053 0.063,-0.091 0.116,-0.115c0.053,-0.025 0.12,-0.037 0.202,-0.037l1.531,0c0.093,0 0.162,0.021 0.206,0.062c0.045,0.041 0.068,0.095 0.068,0.161c-0,0.068 -0.023,0.122 -0.068,0.163c-0.044,0.041 -0.113,0.062 -0.206,0.062Z" style="fill:#646464;fill-rule:nonzero;"/>
                <path d="M38.832,4.496l-0.203,0l-0,0.92c-0,0.121 -0.027,0.21 -0.08,0.268c-0.054,0.057 -0.123,0.086 -0.209,0.086c-0.093,-0 -0.164,-0.03 -0.215,-0.09c-0.051,-0.06 -0.076,-0.148 -0.076,-0.264l-0,-2.203c-0,-0.125 0.028,-0.216 0.084,-0.272c0.056,-0.056 0.146,-0.084 0.271,-0.084l0.944,0c0.13,0 0.241,0.006 0.334,0.017c0.092,0.011 0.175,0.034 0.25,0.067c0.089,0.038 0.169,0.092 0.238,0.163c0.069,0.07 0.121,0.152 0.157,0.245c0.036,0.093 0.054,0.191 0.054,0.296c-0,0.213 -0.06,0.384 -0.181,0.511c-0.12,0.128 -0.303,0.218 -0.548,0.272c0.103,0.054 0.201,0.135 0.295,0.242c0.094,0.107 0.178,0.22 0.251,0.341c0.074,0.12 0.131,0.229 0.172,0.326c0.041,0.097 0.062,0.164 0.062,0.2c-0,0.038 -0.013,0.075 -0.037,0.112c-0.024,0.038 -0.057,0.067 -0.098,0.088c-0.042,0.022 -0.09,0.033 -0.145,0.033c-0.065,-0 -0.12,-0.016 -0.164,-0.046c-0.044,-0.031 -0.082,-0.07 -0.114,-0.117c-0.032,-0.046 -0.075,-0.115 -0.13,-0.207l-0.232,-0.386c-0.084,-0.142 -0.158,-0.25 -0.224,-0.325c-0.066,-0.074 -0.133,-0.125 -0.2,-0.152c-0.068,-0.027 -0.153,-0.041 -0.256,-0.041Zm0.332,-1.203l-0.535,-0l-0,0.787l0.519,0c0.14,0 0.257,-0.012 0.352,-0.036c0.095,-0.024 0.168,-0.065 0.218,-0.123c0.05,-0.058 0.075,-0.138 0.075,-0.239c-0,-0.08 -0.02,-0.15 -0.061,-0.21c-0.04,-0.061 -0.096,-0.106 -0.168,-0.136c-0.067,-0.029 -0.201,-0.043 -0.4,-0.043Z" style="fill:#646464;fill-rule:nonzero;"/>
            </g>
            <g id="logo">
                <path d="M51.744,136.822l-1.758,8.79l-1.545,0l1.143,-5.763l-3.755,4.759l-0.728,-0l-2.009,-4.872l-1.168,5.876l-1.557,0l1.758,-8.79l1.331,0l2.323,5.852l4.558,-5.852l1.407,0Z" style="fill:#646464;fill-rule:nonzero;"/>
                <path d="M59.265,141.117l1.545,-0l-0.716,3.541c-0.444,0.343 -0.948,0.609 -1.513,0.797c-0.565,0.189 -1.153,0.283 -1.764,0.283c-0.863,-0 -1.616,-0.157 -2.261,-0.471c-0.644,-0.314 -1.14,-0.753 -1.488,-1.319c-0.347,-0.565 -0.521,-1.22 -0.521,-1.965c0,-0.987 0.226,-1.883 0.678,-2.687c0.452,-0.804 1.093,-1.438 1.922,-1.902c0.828,-0.465 1.783,-0.697 2.863,-0.697c0.795,-0 1.49,0.123 2.084,0.37c0.594,0.247 1.076,0.605 1.444,1.074l-1.18,0.979c-0.285,-0.343 -0.624,-0.594 -1.017,-0.753c-0.394,-0.159 -0.863,-0.239 -1.407,-0.239c-0.745,0 -1.4,0.166 -1.965,0.496c-0.565,0.331 -1.002,0.781 -1.312,1.35c-0.31,0.569 -0.465,1.206 -0.465,1.909c0,0.745 0.243,1.335 0.729,1.77c0.485,0.436 1.18,0.653 2.084,0.653c0.611,0 1.18,-0.138 1.708,-0.414l0.552,-2.775Z" style="fill:#646464;fill-rule:nonzero;"/>
                <path d="M24.142,145.663c-0.536,0 -1.017,-0.124 -1.444,-0.371c-0.427,-0.247 -0.765,-0.585 -1.012,-1.012c-0.247,-0.427 -0.371,-0.912 -0.371,-1.454c-0,-0.536 0.12,-1.017 0.361,-1.444c0.24,-0.427 0.568,-0.764 0.981,-1.012c0.414,-0.247 0.881,-0.371 1.403,-0.371c0.455,0 0.865,0.097 1.231,0.29c0.366,0.193 0.661,0.449 0.885,0.768l-0,-2.99c-0,-0.122 0.037,-0.219 0.111,-0.29c0.075,-0.071 0.17,-0.107 0.285,-0.107c0.115,0 0.21,0.036 0.285,0.107c0.074,0.071 0.112,0.168 0.112,0.29l-0,4.8c-0.014,0.528 -0.144,1.005 -0.392,1.428c-0.247,0.424 -0.583,0.758 -1.006,1.002c-0.424,0.244 -0.9,0.366 -1.429,0.366Zm-0,-0.712c0.393,0 0.744,-0.093 1.052,-0.279c0.309,-0.187 0.553,-0.439 0.732,-0.758c0.18,-0.319 0.27,-0.681 0.27,-1.088c-0,-0.4 -0.09,-0.761 -0.27,-1.083c-0.179,-0.322 -0.423,-0.575 -0.732,-0.758c-0.308,-0.183 -0.659,-0.274 -1.052,-0.274c-0.387,-0 -0.736,0.091 -1.048,0.274c-0.311,0.183 -0.559,0.436 -0.742,0.758c-0.183,0.322 -0.275,0.683 -0.275,1.083c0,0.407 0.092,0.769 0.275,1.088c0.183,0.319 0.431,0.571 0.742,0.758c0.312,0.186 0.661,0.279 1.048,0.279Z" style="fill:#646464;fill-rule:nonzero;"/>
                <path d="M31.331,145.663c-0.542,0 -1.027,-0.122 -1.454,-0.366c-0.427,-0.244 -0.763,-0.58 -1.007,-1.007c-0.244,-0.427 -0.366,-0.911 -0.366,-1.454c0,-0.549 0.122,-1.037 0.366,-1.464c0.244,-0.427 0.58,-0.763 1.007,-1.007c0.427,-0.244 0.912,-0.366 1.454,-0.366c0.543,0 1.026,0.122 1.449,0.366c0.424,0.244 0.758,0.58 1.002,1.007c0.244,0.427 0.369,0.915 0.376,1.464c0,0.543 -0.124,1.027 -0.371,1.454c-0.247,0.427 -0.583,0.763 -1.007,1.007c-0.423,0.244 -0.906,0.366 -1.449,0.366Zm0,-0.712c0.393,0 0.746,-0.091 1.058,-0.274c0.312,-0.183 0.556,-0.434 0.732,-0.753c0.176,-0.318 0.264,-0.681 0.264,-1.088c0,-0.407 -0.088,-0.771 -0.264,-1.093c-0.176,-0.322 -0.42,-0.575 -0.732,-0.758c-0.312,-0.183 -0.665,-0.274 -1.058,-0.274c-0.393,-0 -0.746,0.091 -1.057,0.274c-0.312,0.183 -0.558,0.436 -0.738,0.758c-0.179,0.322 -0.269,0.686 -0.269,1.093c-0,0.407 0.09,0.77 0.269,1.088c0.18,0.319 0.426,0.57 0.738,0.753c0.311,0.183 0.664,0.274 1.057,0.274Z" style="fill:#646464;fill-rule:nonzero;"/>
                <path d="M37.86,145.612c-0.36,0 -0.68,-0.084 -0.961,-0.254c-0.282,-0.169 -0.504,-0.402 -0.666,-0.697c-0.163,-0.294 -0.244,-0.632 -0.244,-1.011l-0,-4.973c-0,-0.115 0.035,-0.21 0.106,-0.285c0.072,-0.074 0.165,-0.111 0.28,-0.111c0.115,-0 0.21,0.037 0.285,0.111c0.074,0.075 0.112,0.17 0.112,0.285l-0,4.973c-0,0.345 0.101,0.628 0.305,0.849c0.203,0.22 0.464,0.33 0.783,0.33l0.274,0c0.109,0 0.197,0.038 0.265,0.112c0.067,0.075 0.101,0.17 0.101,0.285c0,0.115 -0.04,0.208 -0.122,0.28c-0.081,0.071 -0.183,0.106 -0.305,0.106l-0.213,0Zm-2.532,-4.677c-0.102,-0 -0.187,-0.033 -0.255,-0.097c-0.067,-0.064 -0.101,-0.144 -0.101,-0.239c-0,-0.102 0.034,-0.185 0.101,-0.249c0.068,-0.065 0.153,-0.097 0.255,-0.097l2.593,0c0.101,0 0.186,0.032 0.254,0.097c0.068,0.064 0.102,0.147 0.102,0.249c-0,0.095 -0.034,0.175 -0.102,0.239c-0.068,0.064 -0.153,0.097 -0.254,0.097l-2.593,-0Z" style="fill:#646464;fill-rule:nonzero;"/>
                <rect x="37.755" y="136.879" width="2.391" height="2.391" style="fill:#646464;"/>
                <path d="M62.5,137.406l-0.436,-0l0,-0.276l1.208,-0l-0,0.276l-0.436,-0l0,1.14l-0.336,-0l-0,-1.14Z" style="fill:#646464;fill-rule:nonzero;"/>
                <path d="M63.442,137.13l0.509,-0l0.351,0.924l0.005,-0l0.353,-0.924l0.507,-0l-0,1.416l-0.337,-0l0,-1.086l-0.004,-0l-0.401,1.086l-0.256,-0l-0.386,-1.086l-0.005,-0l0,1.086l-0.336,-0l-0,-1.416Z" style="fill:#646464;fill-rule:nonzero;"/>
            </g>
        </g>
    </g>
</svg>
