G04 #@! TF.GenerationSoftware,KiCad,Pcbnew,(6.0.4)*
G04 #@! TF.CreationDate,2022-05-01T01:23:01+08:00*
G04 #@! TF.ProjectId,system,73797374-656d-42e6-9b69-6361645f7063,1.0-dev7*
G04 #@! TF.SameCoordinates,Original*
G04 #@! TF.FileFunction,Legend,Bot*
G04 #@! TF.FilePolarity,Positive*
%FSLAX46Y46*%
G04 Gerber Fmt 4.6, Leading zero omitted, Abs format (unit mm)*
G04 Created by KiCad (PCBNEW (6.0.4)) date 2022-05-01 01:23:01*
%MOMM*%
%LPD*%
G01*
G04 APERTURE LIST*
G04 Aperture macros list*
%AMRoundRect*
0 Rectangle with rounded corners*
0 $1 Rounding radius*
0 $2 $3 $4 $5 $6 $7 $8 $9 X,Y pos of 4 corners*
0 Add a 4 corners polygon primitive as box body*
4,1,4,$2,$3,$4,$5,$6,$7,$8,$9,$2,$3,0*
0 Add four circle primitives for the rounded corners*
1,1,$1+$1,$2,$3*
1,1,$1+$1,$4,$5*
1,1,$1+$1,$6,$7*
1,1,$1+$1,$8,$9*
0 Add four rect primitives between the rounded corners*
20,1,$1+$1,$2,$3,$4,$5,0*
20,1,$1+$1,$4,$5,$6,$7,0*
20,1,$1+$1,$6,$7,$8,$9,0*
20,1,$1+$1,$8,$9,$2,$3,0*%
%AMHorizOval*
0 Thick line with rounded ends*
0 $1 width*
0 $2 $3 position (X,Y) of the first rounded end (center of the circle)*
0 $4 $5 position (X,Y) of the second rounded end (center of the circle)*
0 Add line between two ends*
20,1,$1,$2,$3,$4,$5,0*
0 Add two circle primitives to create the rounded ends*
1,1,$1,$2,$3*
1,1,$1,$4,$5*%
G04 Aperture macros list end*
%ADD10C,0.100000*%
%ADD11C,0.200000*%
%ADD12C,0.196850*%
%ADD13C,0.150000*%
%ADD14C,0.127000*%
%ADD15C,0.120000*%
%ADD16C,1.851600*%
%ADD17C,5.501599*%
%ADD18C,5.501600*%
%ADD19RoundRect,0.050800X0.467788X1.483635X-1.483635X0.467788X-0.467788X-1.483635X1.483635X-0.467788X0*%
%ADD20HorizOval,2.301600X0.000000X0.000000X0.000000X0.000000X0*%
%ADD21C,1.625600*%
%ADD22C,1.801600*%
%ADD23C,2.101600*%
%ADD24C,1.401600*%
%ADD25C,1.701600*%
%ADD26O,1.701600X1.701600*%
%ADD27C,2.201600*%
%ADD28O,1.801600X1.801600*%
G04 APERTURE END LIST*
D10*
G36*
X181038500Y-118872000D02*
G01*
X180276500Y-118110000D01*
X181038500Y-117348000D01*
X181038500Y-118872000D01*
G37*
X181038500Y-118872000D02*
X180276500Y-118110000D01*
X181038500Y-117348000D01*
X181038500Y-118872000D01*
D11*
X151107238Y-151715476D02*
X151107238Y-152608333D01*
X151166761Y-152786904D01*
X151285809Y-152905952D01*
X151464380Y-152965476D01*
X151583428Y-152965476D01*
X149916761Y-152965476D02*
X150512000Y-152965476D01*
X150512000Y-151715476D01*
X148785809Y-152846428D02*
X148845333Y-152905952D01*
X149023904Y-152965476D01*
X149142952Y-152965476D01*
X149321523Y-152905952D01*
X149440571Y-152786904D01*
X149500095Y-152667857D01*
X149559619Y-152429761D01*
X149559619Y-152251190D01*
X149500095Y-152013095D01*
X149440571Y-151894047D01*
X149321523Y-151775000D01*
X149142952Y-151715476D01*
X149023904Y-151715476D01*
X148845333Y-151775000D01*
X148785809Y-151834523D01*
X147892952Y-151715476D02*
X147892952Y-152608333D01*
X147952476Y-152786904D01*
X148071523Y-152905952D01*
X148250095Y-152965476D01*
X148369142Y-152965476D01*
X146702476Y-152965476D02*
X147297714Y-152965476D01*
X147297714Y-151715476D01*
X145571523Y-152846428D02*
X145631047Y-152905952D01*
X145809619Y-152965476D01*
X145928666Y-152965476D01*
X146107238Y-152905952D01*
X146226285Y-152786904D01*
X146285809Y-152667857D01*
X146345333Y-152429761D01*
X146345333Y-152251190D01*
X146285809Y-152013095D01*
X146226285Y-151894047D01*
X146107238Y-151775000D01*
X145928666Y-151715476D01*
X145809619Y-151715476D01*
X145631047Y-151775000D01*
X145571523Y-151834523D01*
X144678666Y-151715476D02*
X144678666Y-152608333D01*
X144738190Y-152786904D01*
X144857238Y-152905952D01*
X145035809Y-152965476D01*
X145154857Y-152965476D01*
X143488190Y-152965476D02*
X144083428Y-152965476D01*
X144083428Y-151715476D01*
X142357238Y-152846428D02*
X142416761Y-152905952D01*
X142595333Y-152965476D01*
X142714380Y-152965476D01*
X142892952Y-152905952D01*
X143012000Y-152786904D01*
X143071523Y-152667857D01*
X143131047Y-152429761D01*
X143131047Y-152251190D01*
X143071523Y-152013095D01*
X143012000Y-151894047D01*
X142892952Y-151775000D01*
X142714380Y-151715476D01*
X142595333Y-151715476D01*
X142416761Y-151775000D01*
X142357238Y-151834523D01*
X141464380Y-151715476D02*
X141464380Y-152608333D01*
X141523904Y-152786904D01*
X141642952Y-152905952D01*
X141821523Y-152965476D01*
X141940571Y-152965476D01*
X140273904Y-152965476D02*
X140869142Y-152965476D01*
X140869142Y-151715476D01*
X139142952Y-152846428D02*
X139202476Y-152905952D01*
X139381047Y-152965476D01*
X139500095Y-152965476D01*
X139678666Y-152905952D01*
X139797714Y-152786904D01*
X139857238Y-152667857D01*
X139916761Y-152429761D01*
X139916761Y-152251190D01*
X139857238Y-152013095D01*
X139797714Y-151894047D01*
X139678666Y-151775000D01*
X139500095Y-151715476D01*
X139381047Y-151715476D01*
X139202476Y-151775000D01*
X139142952Y-151834523D01*
D12*
X158870952Y-118726857D02*
X158870952Y-119754952D01*
X158931428Y-119875904D01*
X158991904Y-119936380D01*
X159112857Y-119996857D01*
X159294285Y-119996857D01*
X159415238Y-119936380D01*
X158870952Y-119513047D02*
X158991904Y-119573523D01*
X159233809Y-119573523D01*
X159354761Y-119513047D01*
X159415238Y-119452571D01*
X159475714Y-119331619D01*
X159475714Y-118968761D01*
X159415238Y-118847809D01*
X159354761Y-118787333D01*
X159233809Y-118726857D01*
X158991904Y-118726857D01*
X158870952Y-118787333D01*
X158266190Y-119573523D02*
X158266190Y-118726857D01*
X158266190Y-118303523D02*
X158326666Y-118364000D01*
X158266190Y-118424476D01*
X158205714Y-118364000D01*
X158266190Y-118303523D01*
X158266190Y-118424476D01*
X157842857Y-118726857D02*
X157359047Y-118726857D01*
X157661428Y-118303523D02*
X157661428Y-119392095D01*
X157600952Y-119513047D01*
X157480000Y-119573523D01*
X157359047Y-119573523D01*
X156935714Y-119573523D02*
X156935714Y-118303523D01*
X156391428Y-119573523D02*
X156391428Y-118908285D01*
X156451904Y-118787333D01*
X156572857Y-118726857D01*
X156754285Y-118726857D01*
X156875238Y-118787333D01*
X156935714Y-118847809D01*
X155242380Y-118726857D02*
X155242380Y-119573523D01*
X155786666Y-118726857D02*
X155786666Y-119392095D01*
X155726190Y-119513047D01*
X155605238Y-119573523D01*
X155423809Y-119573523D01*
X155302857Y-119513047D01*
X155242380Y-119452571D01*
X154637619Y-119573523D02*
X154637619Y-118303523D01*
X154637619Y-118787333D02*
X154516666Y-118726857D01*
X154274761Y-118726857D01*
X154153809Y-118787333D01*
X154093333Y-118847809D01*
X154032857Y-118968761D01*
X154032857Y-119331619D01*
X154093333Y-119452571D01*
X154153809Y-119513047D01*
X154274761Y-119573523D01*
X154516666Y-119573523D01*
X154637619Y-119513047D01*
X153488571Y-119452571D02*
X153428095Y-119513047D01*
X153488571Y-119573523D01*
X153549047Y-119513047D01*
X153488571Y-119452571D01*
X153488571Y-119573523D01*
X152339523Y-119513047D02*
X152460476Y-119573523D01*
X152702380Y-119573523D01*
X152823333Y-119513047D01*
X152883809Y-119452571D01*
X152944285Y-119331619D01*
X152944285Y-118968761D01*
X152883809Y-118847809D01*
X152823333Y-118787333D01*
X152702380Y-118726857D01*
X152460476Y-118726857D01*
X152339523Y-118787333D01*
X151613809Y-119573523D02*
X151734761Y-119513047D01*
X151795238Y-119452571D01*
X151855714Y-119331619D01*
X151855714Y-118968761D01*
X151795238Y-118847809D01*
X151734761Y-118787333D01*
X151613809Y-118726857D01*
X151432380Y-118726857D01*
X151311428Y-118787333D01*
X151250952Y-118847809D01*
X151190476Y-118968761D01*
X151190476Y-119331619D01*
X151250952Y-119452571D01*
X151311428Y-119513047D01*
X151432380Y-119573523D01*
X151613809Y-119573523D01*
X150646190Y-119573523D02*
X150646190Y-118726857D01*
X150646190Y-118847809D02*
X150585714Y-118787333D01*
X150464761Y-118726857D01*
X150283333Y-118726857D01*
X150162380Y-118787333D01*
X150101904Y-118908285D01*
X150101904Y-119573523D01*
X150101904Y-118908285D02*
X150041428Y-118787333D01*
X149920476Y-118726857D01*
X149739047Y-118726857D01*
X149618095Y-118787333D01*
X149557619Y-118908285D01*
X149557619Y-119573523D01*
X148045714Y-118243047D02*
X149134285Y-119875904D01*
X147622380Y-119573523D02*
X147622380Y-118726857D01*
X147622380Y-118847809D02*
X147561904Y-118787333D01*
X147440952Y-118726857D01*
X147259523Y-118726857D01*
X147138571Y-118787333D01*
X147078095Y-118908285D01*
X147078095Y-119573523D01*
X147078095Y-118908285D02*
X147017619Y-118787333D01*
X146896666Y-118726857D01*
X146715238Y-118726857D01*
X146594285Y-118787333D01*
X146533809Y-118908285D01*
X146533809Y-119573523D01*
X145445238Y-119513047D02*
X145566190Y-119573523D01*
X145808095Y-119573523D01*
X145929047Y-119513047D01*
X145989523Y-119392095D01*
X145989523Y-118908285D01*
X145929047Y-118787333D01*
X145808095Y-118726857D01*
X145566190Y-118726857D01*
X145445238Y-118787333D01*
X145384761Y-118908285D01*
X145384761Y-119029238D01*
X145989523Y-119150190D01*
X144840476Y-118726857D02*
X144840476Y-119573523D01*
X144840476Y-118847809D02*
X144780000Y-118787333D01*
X144659047Y-118726857D01*
X144477619Y-118726857D01*
X144356666Y-118787333D01*
X144296190Y-118908285D01*
X144296190Y-119573523D01*
X143207619Y-119513047D02*
X143328571Y-119573523D01*
X143570476Y-119573523D01*
X143691428Y-119513047D01*
X143751904Y-119392095D01*
X143751904Y-118908285D01*
X143691428Y-118787333D01*
X143570476Y-118726857D01*
X143328571Y-118726857D01*
X143207619Y-118787333D01*
X143147142Y-118908285D01*
X143147142Y-119029238D01*
X143751904Y-119150190D01*
X142602857Y-119573523D02*
X142602857Y-118303523D01*
X142058571Y-119573523D02*
X142058571Y-118908285D01*
X142119047Y-118787333D01*
X142240000Y-118726857D01*
X142421428Y-118726857D01*
X142542380Y-118787333D01*
X142602857Y-118847809D01*
X140909523Y-118726857D02*
X140909523Y-119573523D01*
X141453809Y-118726857D02*
X141453809Y-119392095D01*
X141393333Y-119513047D01*
X141272380Y-119573523D01*
X141090952Y-119573523D01*
X140970000Y-119513047D01*
X140909523Y-119452571D01*
X140304761Y-118726857D02*
X140304761Y-119573523D01*
X140304761Y-118847809D02*
X140244285Y-118787333D01*
X140123333Y-118726857D01*
X139941904Y-118726857D01*
X139820952Y-118787333D01*
X139760476Y-118908285D01*
X139760476Y-119573523D01*
X138671904Y-119513047D02*
X138792857Y-119573523D01*
X139034761Y-119573523D01*
X139155714Y-119513047D01*
X139216190Y-119392095D01*
X139216190Y-118908285D01*
X139155714Y-118787333D01*
X139034761Y-118726857D01*
X138792857Y-118726857D01*
X138671904Y-118787333D01*
X138611428Y-118908285D01*
X138611428Y-119029238D01*
X139216190Y-119150190D01*
X138127619Y-118424476D02*
X138067142Y-118364000D01*
X137946190Y-118303523D01*
X137643809Y-118303523D01*
X137522857Y-118364000D01*
X137462380Y-118424476D01*
X137401904Y-118545428D01*
X137401904Y-118666380D01*
X137462380Y-118847809D01*
X138188095Y-119573523D01*
X137401904Y-119573523D01*
X136978571Y-118303523D02*
X136192380Y-118303523D01*
X136615714Y-118787333D01*
X136434285Y-118787333D01*
X136313333Y-118847809D01*
X136252857Y-118908285D01*
X136192380Y-119029238D01*
X136192380Y-119331619D01*
X136252857Y-119452571D01*
X136313333Y-119513047D01*
X136434285Y-119573523D01*
X136797142Y-119573523D01*
X136918095Y-119513047D01*
X136978571Y-119452571D01*
X134740952Y-118243047D02*
X135829523Y-119875904D01*
X133773333Y-119573523D02*
X133773333Y-118908285D01*
X133833809Y-118787333D01*
X133954761Y-118726857D01*
X134196666Y-118726857D01*
X134317619Y-118787333D01*
X133773333Y-119513047D02*
X133894285Y-119573523D01*
X134196666Y-119573523D01*
X134317619Y-119513047D01*
X134378095Y-119392095D01*
X134378095Y-119271142D01*
X134317619Y-119150190D01*
X134196666Y-119089714D01*
X133894285Y-119089714D01*
X133773333Y-119029238D01*
X133168571Y-119573523D02*
X133168571Y-118726857D01*
X133168571Y-118968761D02*
X133108095Y-118847809D01*
X133047619Y-118787333D01*
X132926666Y-118726857D01*
X132805714Y-118726857D01*
X131838095Y-119573523D02*
X131838095Y-118303523D01*
X131838095Y-119513047D02*
X131959047Y-119573523D01*
X132200952Y-119573523D01*
X132321904Y-119513047D01*
X132382380Y-119452571D01*
X132442857Y-119331619D01*
X132442857Y-118968761D01*
X132382380Y-118847809D01*
X132321904Y-118787333D01*
X132200952Y-118726857D01*
X131959047Y-118726857D01*
X131838095Y-118787333D01*
X130689047Y-118726857D02*
X130689047Y-119573523D01*
X131233333Y-118726857D02*
X131233333Y-119392095D01*
X131172857Y-119513047D01*
X131051904Y-119573523D01*
X130870476Y-119573523D01*
X130749523Y-119513047D01*
X130689047Y-119452571D01*
X130084285Y-119573523D02*
X130084285Y-118303523D01*
X130084285Y-118787333D02*
X129963333Y-118726857D01*
X129721428Y-118726857D01*
X129600476Y-118787333D01*
X129540000Y-118847809D01*
X129479523Y-118968761D01*
X129479523Y-119331619D01*
X129540000Y-119452571D01*
X129600476Y-119513047D01*
X129721428Y-119573523D01*
X129963333Y-119573523D01*
X130084285Y-119513047D01*
X128753809Y-119573523D02*
X128874761Y-119513047D01*
X128935238Y-119452571D01*
X128995714Y-119331619D01*
X128995714Y-118968761D01*
X128935238Y-118847809D01*
X128874761Y-118787333D01*
X128753809Y-118726857D01*
X128572380Y-118726857D01*
X128451428Y-118787333D01*
X128390952Y-118847809D01*
X128330476Y-118968761D01*
X128330476Y-119331619D01*
X128390952Y-119452571D01*
X128451428Y-119513047D01*
X128572380Y-119573523D01*
X128753809Y-119573523D01*
X127907142Y-118726857D02*
X127604761Y-119573523D01*
X127302380Y-118726857D02*
X127604761Y-119573523D01*
X127725714Y-119875904D01*
X127786190Y-119936380D01*
X127907142Y-119996857D01*
X126818571Y-119089714D02*
X125850952Y-119089714D01*
X124701904Y-119573523D02*
X124701904Y-118303523D01*
X124701904Y-119513047D02*
X124822857Y-119573523D01*
X125064761Y-119573523D01*
X125185714Y-119513047D01*
X125246190Y-119452571D01*
X125306666Y-119331619D01*
X125306666Y-118968761D01*
X125246190Y-118847809D01*
X125185714Y-118787333D01*
X125064761Y-118726857D01*
X124822857Y-118726857D01*
X124701904Y-118787333D01*
X123915714Y-119573523D02*
X124036666Y-119513047D01*
X124097142Y-119452571D01*
X124157619Y-119331619D01*
X124157619Y-118968761D01*
X124097142Y-118847809D01*
X124036666Y-118787333D01*
X123915714Y-118726857D01*
X123734285Y-118726857D01*
X123613333Y-118787333D01*
X123552857Y-118847809D01*
X123492380Y-118968761D01*
X123492380Y-119331619D01*
X123552857Y-119452571D01*
X123613333Y-119513047D01*
X123734285Y-119573523D01*
X123915714Y-119573523D01*
X123129523Y-118726857D02*
X122645714Y-118726857D01*
X122948095Y-118303523D02*
X122948095Y-119392095D01*
X122887619Y-119513047D01*
X122766666Y-119573523D01*
X122645714Y-119573523D01*
X122222380Y-119573523D02*
X122222380Y-118726857D01*
X122222380Y-118847809D02*
X122161904Y-118787333D01*
X122040952Y-118726857D01*
X121859523Y-118726857D01*
X121738571Y-118787333D01*
X121678095Y-118908285D01*
X121678095Y-119573523D01*
X121678095Y-118908285D02*
X121617619Y-118787333D01*
X121496666Y-118726857D01*
X121315238Y-118726857D01*
X121194285Y-118787333D01*
X121133809Y-118908285D01*
X121133809Y-119573523D01*
X119984761Y-118726857D02*
X119984761Y-119754952D01*
X120045238Y-119875904D01*
X120105714Y-119936380D01*
X120226666Y-119996857D01*
X120408095Y-119996857D01*
X120529047Y-119936380D01*
X119984761Y-119513047D02*
X120105714Y-119573523D01*
X120347619Y-119573523D01*
X120468571Y-119513047D01*
X120529047Y-119452571D01*
X120589523Y-119331619D01*
X120589523Y-118968761D01*
X120529047Y-118847809D01*
X120468571Y-118787333D01*
X120347619Y-118726857D01*
X120105714Y-118726857D01*
X119984761Y-118787333D01*
D13*
X182733904Y-116948095D02*
X182352952Y-116681428D01*
X182733904Y-116490952D02*
X181933904Y-116490952D01*
X181933904Y-116795714D01*
X181972000Y-116871904D01*
X182010095Y-116910000D01*
X182086285Y-116948095D01*
X182200571Y-116948095D01*
X182276761Y-116910000D01*
X182314857Y-116871904D01*
X182352952Y-116795714D01*
X182352952Y-116490952D01*
X182314857Y-117290952D02*
X182314857Y-117557619D01*
X182733904Y-117671904D02*
X182733904Y-117290952D01*
X181933904Y-117290952D01*
X181933904Y-117671904D01*
X182695809Y-117976666D02*
X182733904Y-118090952D01*
X182733904Y-118281428D01*
X182695809Y-118357619D01*
X182657714Y-118395714D01*
X182581523Y-118433809D01*
X182505333Y-118433809D01*
X182429142Y-118395714D01*
X182391047Y-118357619D01*
X182352952Y-118281428D01*
X182314857Y-118129047D01*
X182276761Y-118052857D01*
X182238666Y-118014761D01*
X182162476Y-117976666D01*
X182086285Y-117976666D01*
X182010095Y-118014761D01*
X181972000Y-118052857D01*
X181933904Y-118129047D01*
X181933904Y-118319523D01*
X181972000Y-118433809D01*
X182314857Y-118776666D02*
X182314857Y-119043333D01*
X182733904Y-119157619D02*
X182733904Y-118776666D01*
X181933904Y-118776666D01*
X181933904Y-119157619D01*
X181933904Y-119386190D02*
X181933904Y-119843333D01*
X182733904Y-119614761D02*
X181933904Y-119614761D01*
X113228380Y-117419523D02*
X113228380Y-116848095D01*
X113228380Y-117133809D02*
X112228380Y-117133809D01*
X112371238Y-117038571D01*
X112466476Y-116943333D01*
X112514095Y-116848095D01*
X112228380Y-118038571D02*
X112228380Y-118133809D01*
X112276000Y-118229047D01*
X112323619Y-118276666D01*
X112418857Y-118324285D01*
X112609333Y-118371904D01*
X112847428Y-118371904D01*
X113037904Y-118324285D01*
X113133142Y-118276666D01*
X113180761Y-118229047D01*
X113228380Y-118133809D01*
X113228380Y-118038571D01*
X113180761Y-117943333D01*
X113133142Y-117895714D01*
X113037904Y-117848095D01*
X112847428Y-117800476D01*
X112609333Y-117800476D01*
X112418857Y-117848095D01*
X112323619Y-117895714D01*
X112276000Y-117943333D01*
X112228380Y-118038571D01*
X113228380Y-118800476D02*
X112228380Y-118800476D01*
X113228380Y-119371904D02*
X112656952Y-118943333D01*
X112228380Y-119371904D02*
X112799809Y-118800476D01*
D14*
X175497973Y-88298261D02*
X175286307Y-88933261D01*
X175074640Y-88298261D01*
X174500116Y-88872785D02*
X174530354Y-88903023D01*
X174621069Y-88933261D01*
X174681545Y-88933261D01*
X174772259Y-88903023D01*
X174832735Y-88842547D01*
X174862973Y-88782071D01*
X174893211Y-88661119D01*
X174893211Y-88570404D01*
X174862973Y-88449452D01*
X174832735Y-88388976D01*
X174772259Y-88328500D01*
X174681545Y-88298261D01*
X174621069Y-88298261D01*
X174530354Y-88328500D01*
X174500116Y-88358738D01*
X173865116Y-88872785D02*
X173895354Y-88903023D01*
X173986069Y-88933261D01*
X174046545Y-88933261D01*
X174137259Y-88903023D01*
X174197735Y-88842547D01*
X174227973Y-88782071D01*
X174258211Y-88661119D01*
X174258211Y-88570404D01*
X174227973Y-88449452D01*
X174197735Y-88388976D01*
X174137259Y-88328500D01*
X174046545Y-88298261D01*
X173986069Y-88298261D01*
X173895354Y-88328500D01*
X173865116Y-88358738D01*
X175437497Y-91443023D02*
X175346783Y-91473261D01*
X175195592Y-91473261D01*
X175135116Y-91443023D01*
X175104878Y-91412785D01*
X175074640Y-91352309D01*
X175074640Y-91291833D01*
X175104878Y-91231357D01*
X175135116Y-91201119D01*
X175195592Y-91170880D01*
X175316545Y-91140642D01*
X175377021Y-91110404D01*
X175407259Y-91080166D01*
X175437497Y-91019690D01*
X175437497Y-90959214D01*
X175407259Y-90898738D01*
X175377021Y-90868500D01*
X175316545Y-90838261D01*
X175165354Y-90838261D01*
X175074640Y-90868500D01*
X174802497Y-91473261D02*
X174802497Y-90838261D01*
X174651307Y-90838261D01*
X174560592Y-90868500D01*
X174500116Y-90928976D01*
X174469878Y-90989452D01*
X174439640Y-91110404D01*
X174439640Y-91201119D01*
X174469878Y-91322071D01*
X174500116Y-91382547D01*
X174560592Y-91443023D01*
X174651307Y-91473261D01*
X174802497Y-91473261D01*
X174197735Y-91291833D02*
X173895354Y-91291833D01*
X174258211Y-91473261D02*
X174046545Y-90838261D01*
X173834878Y-91473261D01*
X175407259Y-99093261D02*
X175407259Y-98458261D01*
X175195592Y-98911833D01*
X174983926Y-98458261D01*
X174983926Y-99093261D01*
X174560592Y-98458261D02*
X174439640Y-98458261D01*
X174379164Y-98488500D01*
X174318688Y-98548976D01*
X174288450Y-98669928D01*
X174288450Y-98881595D01*
X174318688Y-99002547D01*
X174379164Y-99063023D01*
X174439640Y-99093261D01*
X174560592Y-99093261D01*
X174621069Y-99063023D01*
X174681545Y-99002547D01*
X174711783Y-98881595D01*
X174711783Y-98669928D01*
X174681545Y-98548976D01*
X174621069Y-98488500D01*
X174560592Y-98458261D01*
X174046545Y-99063023D02*
X173955830Y-99093261D01*
X173804640Y-99093261D01*
X173744164Y-99063023D01*
X173713926Y-99032785D01*
X173683688Y-98972309D01*
X173683688Y-98911833D01*
X173713926Y-98851357D01*
X173744164Y-98821119D01*
X173804640Y-98790880D01*
X173925592Y-98760642D01*
X173986069Y-98730404D01*
X174016307Y-98700166D01*
X174046545Y-98639690D01*
X174046545Y-98579214D01*
X174016307Y-98518738D01*
X173986069Y-98488500D01*
X173925592Y-98458261D01*
X173774402Y-98458261D01*
X173683688Y-98488500D01*
X173411545Y-99093261D02*
X173411545Y-98458261D01*
X175074640Y-83248500D02*
X175135116Y-83218261D01*
X175225830Y-83218261D01*
X175316545Y-83248500D01*
X175377021Y-83308976D01*
X175407259Y-83369452D01*
X175437497Y-83490404D01*
X175437497Y-83581119D01*
X175407259Y-83702071D01*
X175377021Y-83762547D01*
X175316545Y-83823023D01*
X175225830Y-83853261D01*
X175165354Y-83853261D01*
X175074640Y-83823023D01*
X175044402Y-83792785D01*
X175044402Y-83581119D01*
X175165354Y-83581119D01*
X174772259Y-83853261D02*
X174772259Y-83218261D01*
X174409402Y-83853261D01*
X174409402Y-83218261D01*
X174107021Y-83853261D02*
X174107021Y-83218261D01*
X173955830Y-83218261D01*
X173865116Y-83248500D01*
X173804640Y-83308976D01*
X173774402Y-83369452D01*
X173744164Y-83490404D01*
X173744164Y-83581119D01*
X173774402Y-83702071D01*
X173804640Y-83762547D01*
X173865116Y-83823023D01*
X173955830Y-83853261D01*
X174107021Y-83853261D01*
X175407259Y-96553261D02*
X175407259Y-95918261D01*
X175195592Y-96371833D01*
X174983926Y-95918261D01*
X174983926Y-96553261D01*
X174681545Y-96553261D02*
X174681545Y-95918261D01*
X174409402Y-96523023D02*
X174318688Y-96553261D01*
X174167497Y-96553261D01*
X174107021Y-96523023D01*
X174076783Y-96492785D01*
X174046545Y-96432309D01*
X174046545Y-96371833D01*
X174076783Y-96311357D01*
X174107021Y-96281119D01*
X174167497Y-96250880D01*
X174288450Y-96220642D01*
X174348926Y-96190404D01*
X174379164Y-96160166D01*
X174409402Y-96099690D01*
X174409402Y-96039214D01*
X174379164Y-95978738D01*
X174348926Y-95948500D01*
X174288450Y-95918261D01*
X174137259Y-95918261D01*
X174046545Y-95948500D01*
X173653450Y-95918261D02*
X173532497Y-95918261D01*
X173472021Y-95948500D01*
X173411545Y-96008976D01*
X173381307Y-96129928D01*
X173381307Y-96341595D01*
X173411545Y-96462547D01*
X173472021Y-96523023D01*
X173532497Y-96553261D01*
X173653450Y-96553261D01*
X173713926Y-96523023D01*
X173774402Y-96462547D01*
X173804640Y-96341595D01*
X173804640Y-96129928D01*
X173774402Y-96008976D01*
X173713926Y-95948500D01*
X173653450Y-95918261D01*
X175437497Y-101603023D02*
X175346783Y-101633261D01*
X175195592Y-101633261D01*
X175135116Y-101603023D01*
X175104878Y-101572785D01*
X175074640Y-101512309D01*
X175074640Y-101451833D01*
X175104878Y-101391357D01*
X175135116Y-101361119D01*
X175195592Y-101330880D01*
X175316545Y-101300642D01*
X175377021Y-101270404D01*
X175407259Y-101240166D01*
X175437497Y-101179690D01*
X175437497Y-101119214D01*
X175407259Y-101058738D01*
X175377021Y-101028500D01*
X175316545Y-100998261D01*
X175165354Y-100998261D01*
X175074640Y-101028500D01*
X174439640Y-101572785D02*
X174469878Y-101603023D01*
X174560592Y-101633261D01*
X174621069Y-101633261D01*
X174711783Y-101603023D01*
X174772259Y-101542547D01*
X174802497Y-101482071D01*
X174832735Y-101361119D01*
X174832735Y-101270404D01*
X174802497Y-101149452D01*
X174772259Y-101088976D01*
X174711783Y-101028500D01*
X174621069Y-100998261D01*
X174560592Y-100998261D01*
X174469878Y-101028500D01*
X174439640Y-101058738D01*
X174167497Y-101633261D02*
X174167497Y-100998261D01*
X173804640Y-101633261D02*
X174076783Y-101270404D01*
X173804640Y-100998261D02*
X174167497Y-101361119D01*
X175407259Y-104173261D02*
X175407259Y-103538261D01*
X175256069Y-103538261D01*
X175165354Y-103568500D01*
X175104878Y-103628976D01*
X175074640Y-103689452D01*
X175044402Y-103810404D01*
X175044402Y-103901119D01*
X175074640Y-104022071D01*
X175104878Y-104082547D01*
X175165354Y-104143023D01*
X175256069Y-104173261D01*
X175407259Y-104173261D01*
X174742021Y-104173261D02*
X174621069Y-104173261D01*
X174560592Y-104143023D01*
X174530354Y-104112785D01*
X174469878Y-104022071D01*
X174439640Y-103901119D01*
X174439640Y-103659214D01*
X174469878Y-103598738D01*
X174500116Y-103568500D01*
X174560592Y-103538261D01*
X174681545Y-103538261D01*
X174742021Y-103568500D01*
X174772259Y-103598738D01*
X174802497Y-103659214D01*
X174802497Y-103810404D01*
X174772259Y-103870880D01*
X174742021Y-103901119D01*
X174681545Y-103931357D01*
X174560592Y-103931357D01*
X174500116Y-103901119D01*
X174469878Y-103870880D01*
X174439640Y-103810404D01*
X175437497Y-106531833D02*
X175135116Y-106531833D01*
X175497973Y-106713261D02*
X175286307Y-106078261D01*
X175074640Y-106713261D01*
X174530354Y-106713261D02*
X174893211Y-106713261D01*
X174711783Y-106713261D02*
X174711783Y-106078261D01*
X174772259Y-106168976D01*
X174832735Y-106229452D01*
X174893211Y-106259690D01*
X174137259Y-106078261D02*
X174076783Y-106078261D01*
X174016307Y-106108500D01*
X173986069Y-106138738D01*
X173955830Y-106199214D01*
X173925592Y-106320166D01*
X173925592Y-106471357D01*
X173955830Y-106592309D01*
X173986069Y-106652785D01*
X174016307Y-106683023D01*
X174076783Y-106713261D01*
X174137259Y-106713261D01*
X174197735Y-106683023D01*
X174227973Y-106652785D01*
X174258211Y-106592309D01*
X174288450Y-106471357D01*
X174288450Y-106320166D01*
X174258211Y-106199214D01*
X174227973Y-106138738D01*
X174197735Y-106108500D01*
X174137259Y-106078261D01*
X175437497Y-93983023D02*
X175346783Y-94013261D01*
X175195592Y-94013261D01*
X175135116Y-93983023D01*
X175104878Y-93952785D01*
X175074640Y-93892309D01*
X175074640Y-93831833D01*
X175104878Y-93771357D01*
X175135116Y-93741119D01*
X175195592Y-93710880D01*
X175316545Y-93680642D01*
X175377021Y-93650404D01*
X175407259Y-93620166D01*
X175437497Y-93559690D01*
X175437497Y-93499214D01*
X175407259Y-93438738D01*
X175377021Y-93408500D01*
X175316545Y-93378261D01*
X175165354Y-93378261D01*
X175074640Y-93408500D01*
X174439640Y-93952785D02*
X174469878Y-93983023D01*
X174560592Y-94013261D01*
X174621069Y-94013261D01*
X174711783Y-93983023D01*
X174772259Y-93922547D01*
X174802497Y-93862071D01*
X174832735Y-93741119D01*
X174832735Y-93650404D01*
X174802497Y-93529452D01*
X174772259Y-93468976D01*
X174711783Y-93408500D01*
X174621069Y-93378261D01*
X174560592Y-93378261D01*
X174469878Y-93408500D01*
X174439640Y-93438738D01*
X173865116Y-94013261D02*
X174167497Y-94013261D01*
X174167497Y-93378261D01*
X175044402Y-86393261D02*
X175256069Y-86090880D01*
X175407259Y-86393261D02*
X175407259Y-85758261D01*
X175165354Y-85758261D01*
X175104878Y-85788500D01*
X175074640Y-85818738D01*
X175044402Y-85879214D01*
X175044402Y-85969928D01*
X175074640Y-86030404D01*
X175104878Y-86060642D01*
X175165354Y-86090880D01*
X175407259Y-86090880D01*
X174802497Y-86211833D02*
X174500116Y-86211833D01*
X174862973Y-86393261D02*
X174651307Y-85758261D01*
X174439640Y-86393261D01*
X174288450Y-85758261D02*
X174137259Y-86393261D01*
X174016307Y-85939690D01*
X173895354Y-86393261D01*
X173744164Y-85758261D01*
D13*
X116752285Y-133373761D02*
X116609428Y-133421380D01*
X116371333Y-133421380D01*
X116276095Y-133373761D01*
X116228476Y-133326142D01*
X116180857Y-133230904D01*
X116180857Y-133135666D01*
X116228476Y-133040428D01*
X116276095Y-132992809D01*
X116371333Y-132945190D01*
X116561809Y-132897571D01*
X116657047Y-132849952D01*
X116704666Y-132802333D01*
X116752285Y-132707095D01*
X116752285Y-132611857D01*
X116704666Y-132516619D01*
X116657047Y-132469000D01*
X116561809Y-132421380D01*
X116323714Y-132421380D01*
X116180857Y-132469000D01*
X115752285Y-132421380D02*
X115752285Y-133230904D01*
X115704666Y-133326142D01*
X115657047Y-133373761D01*
X115561809Y-133421380D01*
X115371333Y-133421380D01*
X115276095Y-133373761D01*
X115228476Y-133326142D01*
X115180857Y-133230904D01*
X115180857Y-132421380D01*
X114704666Y-133421380D02*
X114704666Y-132421380D01*
X114323714Y-132421380D01*
X114228476Y-132469000D01*
X114180857Y-132516619D01*
X114133238Y-132611857D01*
X114133238Y-132754714D01*
X114180857Y-132849952D01*
X114228476Y-132897571D01*
X114323714Y-132945190D01*
X114704666Y-132945190D01*
X113704666Y-133421380D02*
X113704666Y-132421380D01*
X113323714Y-132421380D01*
X113228476Y-132469000D01*
X113180857Y-132516619D01*
X113133238Y-132611857D01*
X113133238Y-132754714D01*
X113180857Y-132849952D01*
X113228476Y-132897571D01*
X113323714Y-132945190D01*
X113704666Y-132945190D01*
X112514190Y-132421380D02*
X112323714Y-132421380D01*
X112228476Y-132469000D01*
X112133238Y-132564238D01*
X112085619Y-132754714D01*
X112085619Y-133088047D01*
X112133238Y-133278523D01*
X112228476Y-133373761D01*
X112323714Y-133421380D01*
X112514190Y-133421380D01*
X112609428Y-133373761D01*
X112704666Y-133278523D01*
X112752285Y-133088047D01*
X112752285Y-132754714D01*
X112704666Y-132564238D01*
X112609428Y-132469000D01*
X112514190Y-132421380D01*
X111085619Y-133421380D02*
X111418952Y-132945190D01*
X111657047Y-133421380D02*
X111657047Y-132421380D01*
X111276095Y-132421380D01*
X111180857Y-132469000D01*
X111133238Y-132516619D01*
X111085619Y-132611857D01*
X111085619Y-132754714D01*
X111133238Y-132849952D01*
X111180857Y-132897571D01*
X111276095Y-132945190D01*
X111657047Y-132945190D01*
X110799904Y-132421380D02*
X110228476Y-132421380D01*
X110514190Y-133421380D02*
X110514190Y-132421380D01*
D15*
X111736000Y-114840000D02*
X111406000Y-114840000D01*
X111406000Y-114840000D02*
X111406000Y-121380000D01*
X114146000Y-121380000D02*
X113816000Y-121380000D01*
X111406000Y-121380000D02*
X111736000Y-121380000D01*
X113816000Y-114840000D02*
X114146000Y-114840000D01*
X114146000Y-114840000D02*
X114146000Y-121380000D01*
X110480000Y-121934000D02*
X110990000Y-121934000D01*
X107650000Y-121414000D02*
X107880000Y-121414000D01*
X110480000Y-121414000D02*
X110990000Y-121414000D01*
X107650000Y-120874000D02*
X107650000Y-121414000D01*
X110480000Y-114214000D02*
X110990000Y-114214000D01*
X110990000Y-121414000D02*
X110990000Y-121934000D01*
X107650000Y-116374000D02*
X107650000Y-119774000D01*
X103980000Y-114214000D02*
X103980000Y-121934000D01*
X103980000Y-114214000D02*
X107880000Y-114214000D01*
X103980000Y-121934000D02*
X107880000Y-121934000D01*
X110480000Y-114734000D02*
X110990000Y-114734000D01*
X107650000Y-114734000D02*
X107650000Y-115274000D01*
X110990000Y-114214000D02*
X110990000Y-114734000D01*
X107650000Y-114734000D02*
X107880000Y-114734000D01*
X138430000Y-115000000D02*
X138430000Y-109920000D01*
X143510000Y-115000000D02*
X143510000Y-109920000D01*
X135890000Y-115000000D02*
X135890000Y-109920000D01*
X153670000Y-115000000D02*
X153670000Y-109920000D01*
X146050000Y-115000000D02*
X146050000Y-109920000D01*
X156210000Y-115000000D02*
X156210000Y-109920000D01*
X151130000Y-115000000D02*
X151130000Y-109920000D01*
X160780000Y-109920000D02*
X118620000Y-109920000D01*
X160780000Y-109920000D02*
X160780000Y-95920000D01*
X140970000Y-115000000D02*
X140970000Y-109920000D01*
X160780000Y-95920000D02*
X118620000Y-95920000D01*
X118620000Y-109920000D02*
X118620000Y-95920000D01*
X125730000Y-115000000D02*
X125730000Y-109920000D01*
X130810000Y-115000000D02*
X130810000Y-109920000D01*
X133350000Y-115000000D02*
X133350000Y-109920000D01*
X128270000Y-115000000D02*
X128270000Y-109920000D01*
X123190000Y-115000000D02*
X123190000Y-109920000D01*
X148590000Y-115000000D02*
X148590000Y-109920000D01*
D13*
X120904000Y-147701000D02*
X105664000Y-147701000D01*
X123444000Y-145161000D02*
X123444000Y-131191000D01*
X107569000Y-134366000D02*
X103124000Y-134366000D01*
X120904000Y-128651000D02*
X105664000Y-128651000D01*
X103124000Y-141986000D02*
X107569000Y-141986000D01*
X103124000Y-145161000D02*
X103124000Y-131191000D01*
X107569000Y-141986000D02*
X107569000Y-134366000D01*
X103124000Y-145161000D02*
G75*
G03*
X105664000Y-147701000I2540001J1D01*
G01*
X120904000Y-147701000D02*
G75*
G03*
X123444000Y-145161000I-1J2540001D01*
G01*
X123444000Y-131191000D02*
G75*
G03*
X120904000Y-128651000I-2540000J0D01*
G01*
X105664000Y-128651000D02*
G75*
G03*
X103124000Y-131191000I0J-2540000D01*
G01*
X173101000Y-89916000D02*
X171831000Y-88646000D01*
D10*
X171831000Y-100076000D02*
X177673000Y-100076000D01*
D13*
X173101000Y-82296000D02*
X177546000Y-82296000D01*
X171831000Y-88646000D02*
X171831000Y-83566000D01*
X173101000Y-107696000D02*
X171831000Y-106426000D01*
X171831000Y-93726000D02*
X171831000Y-91186000D01*
D10*
X171831000Y-92456000D02*
X177673000Y-92456000D01*
D13*
X173101000Y-94996000D02*
X171831000Y-93726000D01*
X173101000Y-102616000D02*
X177546000Y-102616000D01*
X173101000Y-102616000D02*
X171831000Y-103886000D01*
D10*
X171831000Y-105156000D02*
X177927000Y-105156000D01*
D13*
X173101000Y-89916000D02*
X177546000Y-89916000D01*
D10*
X171831000Y-87376000D02*
X177673000Y-87376000D01*
D13*
X173101000Y-89916000D02*
X171831000Y-91186000D01*
D10*
X171831000Y-97536000D02*
X177673000Y-97536000D01*
D13*
X171831000Y-106426000D02*
X171831000Y-103886000D01*
X173101000Y-94996000D02*
X171831000Y-96266000D01*
X173101000Y-82296000D02*
X171831000Y-83566000D01*
X173101000Y-107696000D02*
X177546000Y-107696000D01*
D10*
X171831000Y-84836000D02*
X177673000Y-84836000D01*
D13*
X171831000Y-101346000D02*
X171831000Y-96266000D01*
X173101000Y-94996000D02*
X177546000Y-94996000D01*
X173101000Y-102616000D02*
X171831000Y-101346000D01*
D15*
X117786000Y-131699000D02*
X109156000Y-131699000D01*
X117786000Y-134239000D02*
X109156000Y-134239000D01*
X109156000Y-134239000D02*
X109150000Y-131699000D01*
X117786000Y-134239000D02*
X117786000Y-131699000D01*
X109156000Y-132609000D02*
X108806000Y-132609000D01*
X109156000Y-133329000D02*
X108806000Y-133329000D01*
%LPC*%
D10*
G36*
X181737000Y-138176000D02*
G01*
X182499000Y-140843000D01*
X180340000Y-137922000D01*
X181737000Y-138176000D01*
G37*
X181737000Y-138176000D02*
X182499000Y-140843000D01*
X180340000Y-137922000D01*
X181737000Y-138176000D01*
G36*
X182753000Y-138684000D02*
G01*
X181356000Y-138430000D01*
X180594000Y-135763000D01*
X182753000Y-138684000D01*
G37*
X182753000Y-138684000D02*
X181356000Y-138430000D01*
X180594000Y-135763000D01*
X182753000Y-138684000D01*
D16*
X167426000Y-140208000D03*
X172426000Y-140208000D03*
D17*
X105791000Y-70104000D03*
D18*
X173609000Y-70104000D03*
D17*
X105791000Y-151130000D03*
X156464000Y-151130000D03*
D19*
X137569023Y-146341476D03*
D20*
X130810000Y-149860000D03*
D21*
X110794800Y-70866000D03*
X113284000Y-70866000D03*
X115773200Y-70866000D03*
D22*
X106200000Y-102616000D03*
X106200000Y-100076000D03*
X106200000Y-97536000D03*
X106200000Y-94996000D03*
X106200000Y-92456000D03*
X106200000Y-89916000D03*
X106200000Y-87376000D03*
D23*
X159131000Y-126850000D03*
X159131000Y-133350000D03*
X163631000Y-126850000D03*
X163631000Y-133350000D03*
X120686000Y-122734000D03*
X120686000Y-129234000D03*
X125186000Y-129234000D03*
X125186000Y-122734000D03*
X125186000Y-136958000D03*
X125186000Y-143458000D03*
X120686000Y-143458000D03*
X120686000Y-136958000D03*
X113574000Y-129846000D03*
X113574000Y-136346000D03*
X118074000Y-129846000D03*
X118074000Y-136346000D03*
X132298000Y-136346000D03*
X132298000Y-129846000D03*
X127798000Y-136346000D03*
X127798000Y-129846000D03*
X149352000Y-131803000D03*
X149352000Y-138303000D03*
X153852000Y-138303000D03*
X153852000Y-131803000D03*
D19*
X148590000Y-146341476D03*
D20*
X141830977Y-149860000D03*
D24*
X170434000Y-124460000D03*
X170434000Y-121920000D03*
X170434000Y-119380000D03*
D25*
X112776000Y-114300000D03*
D26*
X112776000Y-121920000D03*
D27*
X109170000Y-121584000D03*
X109170000Y-114574000D03*
D16*
X106680000Y-115824000D03*
X106680000Y-120324000D03*
X156210000Y-115000000D03*
X153670000Y-115000000D03*
X151130000Y-115000000D03*
X148590000Y-115000000D03*
X146050000Y-115000000D03*
X143510000Y-115000000D03*
X140970000Y-115000000D03*
X138430000Y-115000000D03*
X135890000Y-115000000D03*
X133350000Y-115000000D03*
X130810000Y-115000000D03*
X128270000Y-115000000D03*
X125730000Y-115000000D03*
X123190000Y-115000000D03*
X123190000Y-109920000D03*
X125730000Y-109920000D03*
X128270000Y-109920000D03*
X130810000Y-109920000D03*
X133350000Y-109920000D03*
X135890000Y-109920000D03*
X138430000Y-109920000D03*
X140970000Y-109920000D03*
X143510000Y-109920000D03*
X146050000Y-109920000D03*
X148590000Y-109920000D03*
X151130000Y-109920000D03*
X153670000Y-109920000D03*
X156210000Y-109920000D03*
D22*
X112014000Y-145161000D03*
X114554000Y-145161000D03*
X117094000Y-145161000D03*
X109474000Y-145161000D03*
D28*
X166116000Y-83566000D03*
X166116000Y-86106000D03*
X166116000Y-88646000D03*
X166116000Y-91186000D03*
X166116000Y-93726000D03*
D22*
X166116000Y-96266000D03*
X166116000Y-98806000D03*
D28*
X166116000Y-101346000D03*
X166116000Y-103886000D03*
X166116000Y-106426000D03*
X107696000Y-132969000D03*
M02*
