G04 #@! TF.GenerationSoftware,KiCad,Pcbnew,(6.0.4)*
G04 #@! TF.CreationDate,2022-05-01T01:23:01+08:00*
G04 #@! TF.ProjectId,system,73797374-656d-42e6-9b69-6361645f7063,1.0-dev7*
G04 #@! TF.SameCoordinates,Original*
G04 #@! TF.FileFunction,AssemblyDrawing,Top*
%FSLAX46Y46*%
G04 Gerber Fmt 4.6, Leading zero omitted, Abs format (unit mm)*
G04 Created by KiCad (PCBNEW (6.0.4)) date 2022-05-01 01:23:01*
%MOMM*%
%LPD*%
G01*
G04 APERTURE LIST*
%ADD10C,0.150000*%
%ADD11C,0.120000*%
%ADD12C,0.100000*%
G04 APERTURE END LIST*
D10*
X169045047Y-137342571D02*
X169187904Y-137390190D01*
X169235523Y-137437809D01*
X169283142Y-137533047D01*
X169283142Y-137675904D01*
X169235523Y-137771142D01*
X169187904Y-137818761D01*
X169092666Y-137866380D01*
X168711714Y-137866380D01*
X168711714Y-136866380D01*
X169045047Y-136866380D01*
X169140285Y-136914000D01*
X169187904Y-136961619D01*
X169235523Y-137056857D01*
X169235523Y-137152095D01*
X169187904Y-137247333D01*
X169140285Y-137294952D01*
X169045047Y-137342571D01*
X168711714Y-137342571D01*
X169616476Y-136866380D02*
X170283142Y-136866380D01*
X169616476Y-137866380D01*
X170283142Y-137866380D01*
X171187904Y-137866380D02*
X170616476Y-137866380D01*
X170902190Y-137866380D02*
X170902190Y-136866380D01*
X170806952Y-137009238D01*
X170711714Y-137104476D01*
X170616476Y-137152095D01*
X104424333Y-70556380D02*
X104424333Y-69556380D01*
X104424333Y-70032571D02*
X104995761Y-70032571D01*
X104995761Y-70556380D02*
X104995761Y-69556380D01*
X105662428Y-69556380D02*
X105852904Y-69556380D01*
X105948142Y-69604000D01*
X106043380Y-69699238D01*
X106091000Y-69889714D01*
X106091000Y-70223047D01*
X106043380Y-70413523D01*
X105948142Y-70508761D01*
X105852904Y-70556380D01*
X105662428Y-70556380D01*
X105567190Y-70508761D01*
X105471952Y-70413523D01*
X105424333Y-70223047D01*
X105424333Y-69889714D01*
X105471952Y-69699238D01*
X105567190Y-69604000D01*
X105662428Y-69556380D01*
X106995761Y-70556380D02*
X106519571Y-70556380D01*
X106519571Y-69556380D01*
X107329095Y-70032571D02*
X107662428Y-70032571D01*
X107805285Y-70556380D02*
X107329095Y-70556380D01*
X107329095Y-69556380D01*
X107805285Y-69556380D01*
X172242333Y-70556380D02*
X172242333Y-69556380D01*
X172242333Y-70032571D02*
X172813761Y-70032571D01*
X172813761Y-70556380D02*
X172813761Y-69556380D01*
X173480428Y-69556380D02*
X173670904Y-69556380D01*
X173766142Y-69604000D01*
X173861380Y-69699238D01*
X173909000Y-69889714D01*
X173909000Y-70223047D01*
X173861380Y-70413523D01*
X173766142Y-70508761D01*
X173670904Y-70556380D01*
X173480428Y-70556380D01*
X173385190Y-70508761D01*
X173289952Y-70413523D01*
X173242333Y-70223047D01*
X173242333Y-69889714D01*
X173289952Y-69699238D01*
X173385190Y-69604000D01*
X173480428Y-69556380D01*
X174813761Y-70556380D02*
X174337571Y-70556380D01*
X174337571Y-69556380D01*
X175147095Y-70032571D02*
X175480428Y-70032571D01*
X175623285Y-70556380D02*
X175147095Y-70556380D01*
X175147095Y-69556380D01*
X175623285Y-69556380D01*
X104424333Y-151582380D02*
X104424333Y-150582380D01*
X104424333Y-151058571D02*
X104995761Y-151058571D01*
X104995761Y-151582380D02*
X104995761Y-150582380D01*
X105662428Y-150582380D02*
X105852904Y-150582380D01*
X105948142Y-150630000D01*
X106043380Y-150725238D01*
X106091000Y-150915714D01*
X106091000Y-151249047D01*
X106043380Y-151439523D01*
X105948142Y-151534761D01*
X105852904Y-151582380D01*
X105662428Y-151582380D01*
X105567190Y-151534761D01*
X105471952Y-151439523D01*
X105424333Y-151249047D01*
X105424333Y-150915714D01*
X105471952Y-150725238D01*
X105567190Y-150630000D01*
X105662428Y-150582380D01*
X106995761Y-151582380D02*
X106519571Y-151582380D01*
X106519571Y-150582380D01*
X107329095Y-151058571D02*
X107662428Y-151058571D01*
X107805285Y-151582380D02*
X107329095Y-151582380D01*
X107329095Y-150582380D01*
X107805285Y-150582380D01*
X155097333Y-151582380D02*
X155097333Y-150582380D01*
X155097333Y-151058571D02*
X155668761Y-151058571D01*
X155668761Y-151582380D02*
X155668761Y-150582380D01*
X156335428Y-150582380D02*
X156525904Y-150582380D01*
X156621142Y-150630000D01*
X156716380Y-150725238D01*
X156764000Y-150915714D01*
X156764000Y-151249047D01*
X156716380Y-151439523D01*
X156621142Y-151534761D01*
X156525904Y-151582380D01*
X156335428Y-151582380D01*
X156240190Y-151534761D01*
X156144952Y-151439523D01*
X156097333Y-151249047D01*
X156097333Y-150915714D01*
X156144952Y-150725238D01*
X156240190Y-150630000D01*
X156335428Y-150582380D01*
X157668761Y-151582380D02*
X157192571Y-151582380D01*
X157192571Y-150582380D01*
X158002095Y-151058571D02*
X158335428Y-151058571D01*
X158478285Y-151582380D02*
X158002095Y-151582380D01*
X158002095Y-150582380D01*
X158478285Y-150582380D01*
X131433407Y-147601746D02*
X131582111Y-147578021D01*
X131793304Y-147468080D01*
X131855793Y-147381866D01*
X131876044Y-147317639D01*
X131874307Y-147211174D01*
X131830331Y-147126697D01*
X131744116Y-147064207D01*
X131679889Y-147043957D01*
X131573424Y-147045694D01*
X131382481Y-147091408D01*
X131276016Y-147093145D01*
X131211790Y-147072895D01*
X131125575Y-147010405D01*
X131081599Y-146925928D01*
X131079861Y-146819463D01*
X131100112Y-146755236D01*
X131162601Y-146669022D01*
X131373794Y-146559082D01*
X131522498Y-146535356D01*
X132396208Y-146563695D02*
X132544912Y-146539970D01*
X132609139Y-146560220D01*
X132695353Y-146622709D01*
X132761317Y-146749425D01*
X132763055Y-146855891D01*
X132742804Y-146920117D01*
X132680315Y-147006332D01*
X132342406Y-147182236D01*
X131880658Y-146295225D01*
X132176328Y-146141309D01*
X132282793Y-146139572D01*
X132347020Y-146159822D01*
X132433234Y-146222311D01*
X132477210Y-146306789D01*
X132478948Y-146413254D01*
X132458697Y-146477480D01*
X132396208Y-146563695D01*
X132100538Y-146717611D01*
X133694042Y-146478619D02*
X133187178Y-146742475D01*
X133440610Y-146610547D02*
X132978861Y-145723536D01*
X132960348Y-145894228D01*
X132919847Y-146022682D01*
X132857358Y-146108896D01*
X133614178Y-145500181D02*
X133634429Y-145435955D01*
X133696918Y-145349740D01*
X133908111Y-145239800D01*
X134014576Y-145238062D01*
X134078803Y-145258313D01*
X134165017Y-145320802D01*
X134208994Y-145405279D01*
X134232719Y-145553983D01*
X133989712Y-146324703D01*
X134538814Y-146038859D01*
X134626167Y-144866003D02*
X134710645Y-144822027D01*
X134817110Y-144820290D01*
X134881336Y-144840540D01*
X134967551Y-144903030D01*
X135097742Y-145049996D01*
X135207682Y-145261189D01*
X135253395Y-145452132D01*
X135255133Y-145558597D01*
X135234882Y-145622823D01*
X135172393Y-145709038D01*
X135087916Y-145753014D01*
X134981451Y-145754752D01*
X134917224Y-145734501D01*
X134831009Y-145672012D01*
X134700819Y-145525045D01*
X134590878Y-145313852D01*
X134545165Y-145122910D01*
X134543428Y-145016445D01*
X134563678Y-144952218D01*
X134626167Y-144866003D01*
X138376744Y-148460295D02*
X137914996Y-147573285D01*
X138883608Y-148196439D02*
X138239604Y-147887468D01*
X138421859Y-147309428D02*
X138178852Y-148080148D01*
D11*
X133566758Y-148832928D02*
X133197359Y-148123319D01*
X133366313Y-148035367D01*
X133485276Y-148016386D01*
X133588039Y-148048787D01*
X133657011Y-148098779D01*
X133761163Y-148216352D01*
X133813935Y-148317724D01*
X133850505Y-148470478D01*
X133851895Y-148555651D01*
X133819494Y-148658413D01*
X133735712Y-148744975D01*
X133566758Y-148832928D01*
X133908357Y-147839092D02*
X133924558Y-147787711D01*
X133974549Y-147718739D01*
X134143504Y-147630787D01*
X134228676Y-147629397D01*
X134280057Y-147645597D01*
X134349029Y-147695589D01*
X134384210Y-147763171D01*
X134403190Y-147882134D01*
X134208785Y-148498709D01*
X134648066Y-148270034D01*
D10*
X111950666Y-65936761D02*
X112093523Y-65984380D01*
X112331619Y-65984380D01*
X112426857Y-65936761D01*
X112474476Y-65889142D01*
X112522095Y-65793904D01*
X112522095Y-65698666D01*
X112474476Y-65603428D01*
X112426857Y-65555809D01*
X112331619Y-65508190D01*
X112141142Y-65460571D01*
X112045904Y-65412952D01*
X111998285Y-65365333D01*
X111950666Y-65270095D01*
X111950666Y-65174857D01*
X111998285Y-65079619D01*
X112045904Y-65032000D01*
X112141142Y-64984380D01*
X112379238Y-64984380D01*
X112522095Y-65032000D01*
X112855428Y-64984380D02*
X113093523Y-65984380D01*
X113284000Y-65270095D01*
X113474476Y-65984380D01*
X113712571Y-64984380D01*
X114617333Y-65984380D02*
X114045904Y-65984380D01*
X114331619Y-65984380D02*
X114331619Y-64984380D01*
X114236380Y-65127238D01*
X114141142Y-65222476D01*
X114045904Y-65270095D01*
X138938095Y-91908380D02*
X138938095Y-92717904D01*
X138985714Y-92813142D01*
X139033333Y-92860761D01*
X139128571Y-92908380D01*
X139319047Y-92908380D01*
X139414285Y-92860761D01*
X139461904Y-92813142D01*
X139509523Y-92717904D01*
X139509523Y-91908380D01*
X139938095Y-92003619D02*
X139985714Y-91956000D01*
X140080952Y-91908380D01*
X140319047Y-91908380D01*
X140414285Y-91956000D01*
X140461904Y-92003619D01*
X140509523Y-92098857D01*
X140509523Y-92194095D01*
X140461904Y-92336952D01*
X139890476Y-92908380D01*
X140509523Y-92908380D01*
X135319047Y-94900761D02*
X135461904Y-94948380D01*
X135700000Y-94948380D01*
X135795238Y-94900761D01*
X135842857Y-94853142D01*
X135890476Y-94757904D01*
X135890476Y-94662666D01*
X135842857Y-94567428D01*
X135795238Y-94519809D01*
X135700000Y-94472190D01*
X135509523Y-94424571D01*
X135414285Y-94376952D01*
X135366666Y-94329333D01*
X135319047Y-94234095D01*
X135319047Y-94138857D01*
X135366666Y-94043619D01*
X135414285Y-93996000D01*
X135509523Y-93948380D01*
X135747619Y-93948380D01*
X135890476Y-93996000D01*
X136319047Y-94948380D02*
X136319047Y-93948380D01*
X136700000Y-93948380D01*
X136795238Y-93996000D01*
X136842857Y-94043619D01*
X136890476Y-94138857D01*
X136890476Y-94281714D01*
X136842857Y-94376952D01*
X136795238Y-94424571D01*
X136700000Y-94472190D01*
X136319047Y-94472190D01*
X137319047Y-94948380D02*
X137319047Y-93948380D01*
X137557142Y-95043619D02*
X138319047Y-95043619D01*
X138557142Y-94948380D02*
X138557142Y-93948380D01*
X138795238Y-93948380D01*
X138938095Y-93996000D01*
X139033333Y-94091238D01*
X139080952Y-94186476D01*
X139128571Y-94376952D01*
X139128571Y-94519809D01*
X139080952Y-94710285D01*
X139033333Y-94805523D01*
X138938095Y-94900761D01*
X138795238Y-94948380D01*
X138557142Y-94948380D01*
X139557142Y-94948380D02*
X139557142Y-93948380D01*
X139985714Y-94900761D02*
X140128571Y-94948380D01*
X140366666Y-94948380D01*
X140461904Y-94900761D01*
X140509523Y-94853142D01*
X140557142Y-94757904D01*
X140557142Y-94662666D01*
X140509523Y-94567428D01*
X140461904Y-94519809D01*
X140366666Y-94472190D01*
X140176190Y-94424571D01*
X140080952Y-94376952D01*
X140033333Y-94329333D01*
X139985714Y-94234095D01*
X139985714Y-94138857D01*
X140033333Y-94043619D01*
X140080952Y-93996000D01*
X140176190Y-93948380D01*
X140414285Y-93948380D01*
X140557142Y-93996000D01*
X140985714Y-94948380D02*
X140985714Y-93948380D01*
X141366666Y-93948380D01*
X141461904Y-93996000D01*
X141509523Y-94043619D01*
X141557142Y-94138857D01*
X141557142Y-94281714D01*
X141509523Y-94376952D01*
X141461904Y-94424571D01*
X141366666Y-94472190D01*
X140985714Y-94472190D01*
X142461904Y-94948380D02*
X141985714Y-94948380D01*
X141985714Y-93948380D01*
X142747619Y-94662666D02*
X143223809Y-94662666D01*
X142652380Y-94948380D02*
X142985714Y-93948380D01*
X143319047Y-94948380D01*
X143842857Y-94472190D02*
X143842857Y-94948380D01*
X143509523Y-93948380D02*
X143842857Y-94472190D01*
X144176190Y-93948380D01*
X160047666Y-130504761D02*
X160190523Y-130552380D01*
X160428619Y-130552380D01*
X160523857Y-130504761D01*
X160571476Y-130457142D01*
X160619095Y-130361904D01*
X160619095Y-130266666D01*
X160571476Y-130171428D01*
X160523857Y-130123809D01*
X160428619Y-130076190D01*
X160238142Y-130028571D01*
X160142904Y-129980952D01*
X160095285Y-129933333D01*
X160047666Y-129838095D01*
X160047666Y-129742857D01*
X160095285Y-129647619D01*
X160142904Y-129600000D01*
X160238142Y-129552380D01*
X160476238Y-129552380D01*
X160619095Y-129600000D01*
X160952428Y-129552380D02*
X161190523Y-130552380D01*
X161381000Y-129838095D01*
X161571476Y-130552380D01*
X161809571Y-129552380D01*
X162619095Y-129885714D02*
X162619095Y-130552380D01*
X162381000Y-129504761D02*
X162142904Y-130219047D01*
X162761952Y-130219047D01*
X122150285Y-119848380D02*
X122150285Y-120657904D01*
X122197904Y-120753142D01*
X122245523Y-120800761D01*
X122340761Y-120848380D01*
X122531238Y-120848380D01*
X122626476Y-120800761D01*
X122674095Y-120753142D01*
X122721714Y-120657904D01*
X122721714Y-119848380D01*
X123197904Y-120848380D02*
X123197904Y-119848380D01*
X123578857Y-119848380D01*
X123674095Y-119896000D01*
X123721714Y-119943619D01*
X123769333Y-120038857D01*
X123769333Y-120181714D01*
X123721714Y-120276952D01*
X123674095Y-120324571D01*
X123578857Y-120372190D01*
X123197904Y-120372190D01*
X121602666Y-126388761D02*
X121745523Y-126436380D01*
X121983619Y-126436380D01*
X122078857Y-126388761D01*
X122126476Y-126341142D01*
X122174095Y-126245904D01*
X122174095Y-126150666D01*
X122126476Y-126055428D01*
X122078857Y-126007809D01*
X121983619Y-125960190D01*
X121793142Y-125912571D01*
X121697904Y-125864952D01*
X121650285Y-125817333D01*
X121602666Y-125722095D01*
X121602666Y-125626857D01*
X121650285Y-125531619D01*
X121697904Y-125484000D01*
X121793142Y-125436380D01*
X122031238Y-125436380D01*
X122174095Y-125484000D01*
X122507428Y-125436380D02*
X122745523Y-126436380D01*
X122936000Y-125722095D01*
X123126476Y-126436380D01*
X123364571Y-125436380D01*
X124221714Y-125436380D02*
X123745523Y-125436380D01*
X123697904Y-125912571D01*
X123745523Y-125864952D01*
X123840761Y-125817333D01*
X124078857Y-125817333D01*
X124174095Y-125864952D01*
X124221714Y-125912571D01*
X124269333Y-126007809D01*
X124269333Y-126245904D01*
X124221714Y-126341142D01*
X124174095Y-126388761D01*
X124078857Y-126436380D01*
X123840761Y-126436380D01*
X123745523Y-126388761D01*
X123697904Y-126341142D01*
X122150285Y-146248380D02*
X122150285Y-145248380D01*
X122388380Y-145248380D01*
X122531238Y-145296000D01*
X122626476Y-145391238D01*
X122674095Y-145486476D01*
X122721714Y-145676952D01*
X122721714Y-145819809D01*
X122674095Y-146010285D01*
X122626476Y-146105523D01*
X122531238Y-146200761D01*
X122388380Y-146248380D01*
X122150285Y-146248380D01*
X123150285Y-146248380D02*
X123150285Y-145248380D01*
X123721714Y-146248380D01*
X123721714Y-145248380D01*
X121602666Y-140612761D02*
X121745523Y-140660380D01*
X121983619Y-140660380D01*
X122078857Y-140612761D01*
X122126476Y-140565142D01*
X122174095Y-140469904D01*
X122174095Y-140374666D01*
X122126476Y-140279428D01*
X122078857Y-140231809D01*
X121983619Y-140184190D01*
X121793142Y-140136571D01*
X121697904Y-140088952D01*
X121650285Y-140041333D01*
X121602666Y-139946095D01*
X121602666Y-139850857D01*
X121650285Y-139755619D01*
X121697904Y-139708000D01*
X121793142Y-139660380D01*
X122031238Y-139660380D01*
X122174095Y-139708000D01*
X122507428Y-139660380D02*
X122745523Y-140660380D01*
X122936000Y-139946095D01*
X123126476Y-140660380D01*
X123364571Y-139660380D01*
X124174095Y-139660380D02*
X123983619Y-139660380D01*
X123888380Y-139708000D01*
X123840761Y-139755619D01*
X123745523Y-139898476D01*
X123697904Y-140088952D01*
X123697904Y-140469904D01*
X123745523Y-140565142D01*
X123793142Y-140612761D01*
X123888380Y-140660380D01*
X124078857Y-140660380D01*
X124174095Y-140612761D01*
X124221714Y-140565142D01*
X124269333Y-140469904D01*
X124269333Y-140231809D01*
X124221714Y-140136571D01*
X124174095Y-140088952D01*
X124078857Y-140041333D01*
X123888380Y-140041333D01*
X123793142Y-140088952D01*
X123745523Y-140136571D01*
X123697904Y-140231809D01*
X111132952Y-133548380D02*
X110656761Y-133548380D01*
X110656761Y-132548380D01*
X111799619Y-133024571D02*
X111466285Y-133024571D01*
X111466285Y-133548380D02*
X111466285Y-132548380D01*
X111942476Y-132548380D01*
X114490666Y-133500761D02*
X114633523Y-133548380D01*
X114871619Y-133548380D01*
X114966857Y-133500761D01*
X115014476Y-133453142D01*
X115062095Y-133357904D01*
X115062095Y-133262666D01*
X115014476Y-133167428D01*
X114966857Y-133119809D01*
X114871619Y-133072190D01*
X114681142Y-133024571D01*
X114585904Y-132976952D01*
X114538285Y-132929333D01*
X114490666Y-132834095D01*
X114490666Y-132738857D01*
X114538285Y-132643619D01*
X114585904Y-132596000D01*
X114681142Y-132548380D01*
X114919238Y-132548380D01*
X115062095Y-132596000D01*
X115395428Y-132548380D02*
X115633523Y-133548380D01*
X115824000Y-132834095D01*
X116014476Y-133548380D01*
X116252571Y-132548380D01*
X116538285Y-132548380D02*
X117204952Y-132548380D01*
X116776380Y-133548380D01*
X134548571Y-133548380D02*
X134215238Y-133072190D01*
X133977142Y-133548380D02*
X133977142Y-132548380D01*
X134358095Y-132548380D01*
X134453333Y-132596000D01*
X134500952Y-132643619D01*
X134548571Y-132738857D01*
X134548571Y-132881714D01*
X134500952Y-132976952D01*
X134453333Y-133024571D01*
X134358095Y-133072190D01*
X133977142Y-133072190D01*
X134834285Y-132548380D02*
X135405714Y-132548380D01*
X135120000Y-133548380D02*
X135120000Y-132548380D01*
X128714666Y-133500761D02*
X128857523Y-133548380D01*
X129095619Y-133548380D01*
X129190857Y-133500761D01*
X129238476Y-133453142D01*
X129286095Y-133357904D01*
X129286095Y-133262666D01*
X129238476Y-133167428D01*
X129190857Y-133119809D01*
X129095619Y-133072190D01*
X128905142Y-133024571D01*
X128809904Y-132976952D01*
X128762285Y-132929333D01*
X128714666Y-132834095D01*
X128714666Y-132738857D01*
X128762285Y-132643619D01*
X128809904Y-132596000D01*
X128905142Y-132548380D01*
X129143238Y-132548380D01*
X129286095Y-132596000D01*
X129619428Y-132548380D02*
X129857523Y-133548380D01*
X130048000Y-132834095D01*
X130238476Y-133548380D01*
X130476571Y-132548380D01*
X131000380Y-132976952D02*
X130905142Y-132929333D01*
X130857523Y-132881714D01*
X130809904Y-132786476D01*
X130809904Y-132738857D01*
X130857523Y-132643619D01*
X130905142Y-132596000D01*
X131000380Y-132548380D01*
X131190857Y-132548380D01*
X131286095Y-132596000D01*
X131333714Y-132643619D01*
X131381333Y-132738857D01*
X131381333Y-132786476D01*
X131333714Y-132881714D01*
X131286095Y-132929333D01*
X131190857Y-132976952D01*
X131000380Y-132976952D01*
X130905142Y-133024571D01*
X130857523Y-133072190D01*
X130809904Y-133167428D01*
X130809904Y-133357904D01*
X130857523Y-133453142D01*
X130905142Y-133500761D01*
X131000380Y-133548380D01*
X131190857Y-133548380D01*
X131286095Y-133500761D01*
X131333714Y-133453142D01*
X131381333Y-133357904D01*
X131381333Y-133167428D01*
X131333714Y-133072190D01*
X131286095Y-133024571D01*
X131190857Y-132976952D01*
X150268666Y-135457761D02*
X150411523Y-135505380D01*
X150649619Y-135505380D01*
X150744857Y-135457761D01*
X150792476Y-135410142D01*
X150840095Y-135314904D01*
X150840095Y-135219666D01*
X150792476Y-135124428D01*
X150744857Y-135076809D01*
X150649619Y-135029190D01*
X150459142Y-134981571D01*
X150363904Y-134933952D01*
X150316285Y-134886333D01*
X150268666Y-134791095D01*
X150268666Y-134695857D01*
X150316285Y-134600619D01*
X150363904Y-134553000D01*
X150459142Y-134505380D01*
X150697238Y-134505380D01*
X150840095Y-134553000D01*
X151173428Y-134505380D02*
X151411523Y-135505380D01*
X151602000Y-134791095D01*
X151792476Y-135505380D01*
X152030571Y-134505380D01*
X152316285Y-134505380D02*
X152935333Y-134505380D01*
X152602000Y-134886333D01*
X152744857Y-134886333D01*
X152840095Y-134933952D01*
X152887714Y-134981571D01*
X152935333Y-135076809D01*
X152935333Y-135314904D01*
X152887714Y-135410142D01*
X152840095Y-135457761D01*
X152744857Y-135505380D01*
X152459142Y-135505380D01*
X152363904Y-135457761D01*
X152316285Y-135410142D01*
X142454384Y-147601746D02*
X142603088Y-147578021D01*
X142814281Y-147468080D01*
X142876770Y-147381866D01*
X142897021Y-147317639D01*
X142895284Y-147211174D01*
X142851308Y-147126697D01*
X142765093Y-147064207D01*
X142700866Y-147043957D01*
X142594401Y-147045694D01*
X142403458Y-147091408D01*
X142296993Y-147093145D01*
X142232767Y-147072895D01*
X142146552Y-147010405D01*
X142102576Y-146925928D01*
X142100838Y-146819463D01*
X142121089Y-146755236D01*
X142183578Y-146669022D01*
X142394771Y-146559082D01*
X142543475Y-146535356D01*
X143417185Y-146563695D02*
X143565889Y-146539970D01*
X143630116Y-146560220D01*
X143716330Y-146622709D01*
X143782294Y-146749425D01*
X143784032Y-146855891D01*
X143763781Y-146920117D01*
X143701292Y-147006332D01*
X143363383Y-147182236D01*
X142901635Y-146295225D01*
X143197305Y-146141309D01*
X143303770Y-146139572D01*
X143367997Y-146159822D01*
X143454211Y-146222311D01*
X143498187Y-146306789D01*
X143499925Y-146413254D01*
X143479674Y-146477480D01*
X143417185Y-146563695D01*
X143121515Y-146717611D01*
X144715019Y-146478619D02*
X144208155Y-146742475D01*
X144461587Y-146610547D02*
X143999838Y-145723536D01*
X143981325Y-145894228D01*
X143940824Y-146022682D01*
X143878335Y-146108896D01*
X144635155Y-145500181D02*
X144655406Y-145435955D01*
X144717895Y-145349740D01*
X144929088Y-145239800D01*
X145035553Y-145238062D01*
X145099780Y-145258313D01*
X145185994Y-145320802D01*
X145229971Y-145405279D01*
X145253696Y-145553983D01*
X145010689Y-146324703D01*
X145559791Y-146038859D01*
X145647144Y-144866003D02*
X145731622Y-144822027D01*
X145838087Y-144820290D01*
X145902313Y-144840540D01*
X145988528Y-144903030D01*
X146118719Y-145049996D01*
X146228659Y-145261189D01*
X146274372Y-145452132D01*
X146276110Y-145558597D01*
X146255859Y-145622823D01*
X146193370Y-145709038D01*
X146108893Y-145753014D01*
X146002428Y-145754752D01*
X145938201Y-145734501D01*
X145851986Y-145672012D01*
X145721796Y-145525045D01*
X145611855Y-145313852D01*
X145566142Y-145122910D01*
X145564405Y-145016445D01*
X145584655Y-144952218D01*
X145647144Y-144866003D01*
D11*
X144587735Y-148832928D02*
X144218336Y-148123319D01*
X144387290Y-148035367D01*
X144506253Y-148016386D01*
X144609016Y-148048787D01*
X144677988Y-148098779D01*
X144782140Y-148216352D01*
X144834912Y-148317724D01*
X144871482Y-148470478D01*
X144872872Y-148555651D01*
X144840471Y-148658413D01*
X144756689Y-148744975D01*
X144587735Y-148832928D01*
X145669043Y-148270034D02*
X145263553Y-148481119D01*
X145466298Y-148375576D02*
X145096899Y-147665968D01*
X145082088Y-147802521D01*
X145049688Y-147905284D01*
X144999696Y-147974256D01*
D10*
X149397721Y-148460295D02*
X148935973Y-147573285D01*
X149904585Y-148196439D02*
X149260581Y-147887468D01*
X149442836Y-147309428D02*
X149199829Y-148080148D01*
X172886761Y-120848380D02*
X172553428Y-120372190D01*
X172315333Y-120848380D02*
X172315333Y-119848380D01*
X172696285Y-119848380D01*
X172791523Y-119896000D01*
X172839142Y-119943619D01*
X172886761Y-120038857D01*
X172886761Y-120181714D01*
X172839142Y-120276952D01*
X172791523Y-120324571D01*
X172696285Y-120372190D01*
X172315333Y-120372190D01*
X173172476Y-119848380D02*
X173505809Y-120848380D01*
X173839142Y-119848380D01*
X174696285Y-120848380D02*
X174124857Y-120848380D01*
X174410571Y-120848380D02*
X174410571Y-119848380D01*
X174315333Y-119991238D01*
X174220095Y-120086476D01*
X174124857Y-120134095D01*
D12*
X137569023Y-146341476D02*
X136495740Y-146900192D01*
X130810000Y-149860000D02*
X131883284Y-149301285D01*
X136427232Y-148457820D02*
X135180511Y-146062891D01*
X137119101Y-148097656D02*
X135872379Y-145702727D01*
X131259923Y-148103820D02*
X132506644Y-150498749D01*
X136515933Y-148411646D02*
X135269212Y-146016716D01*
X135872379Y-145702727D02*
X131259923Y-148103820D01*
X136338531Y-148503995D02*
X135091810Y-146109066D01*
X132506644Y-150498749D02*
X137119101Y-148097656D01*
X164381000Y-133100000D02*
X158381000Y-133100000D01*
X158381000Y-133100000D02*
X158381000Y-130100000D01*
X158381000Y-130100000D02*
X158381000Y-127100000D01*
X158381000Y-127100000D02*
X164381000Y-127100000D01*
X164381000Y-127100000D02*
X164381000Y-133100000D01*
X163396564Y-130100000D02*
G75*
G03*
X163396564Y-130100000I-2015564J0D01*
G01*
X125936000Y-128984000D02*
X119936000Y-128984000D01*
X125936000Y-122984000D02*
X125936000Y-128984000D01*
X119936000Y-128984000D02*
X119936000Y-125984000D01*
X119936000Y-122984000D02*
X125936000Y-122984000D01*
X119936000Y-125984000D02*
X119936000Y-122984000D01*
X124951564Y-125984000D02*
G75*
G03*
X124951564Y-125984000I-2015564J0D01*
G01*
X125936000Y-140208000D02*
X125936000Y-143208000D01*
X125936000Y-137208000D02*
X125936000Y-140208000D01*
X119936000Y-137208000D02*
X125936000Y-137208000D01*
X125936000Y-143208000D02*
X119936000Y-143208000D01*
X119936000Y-143208000D02*
X119936000Y-137208000D01*
X124951564Y-140208000D02*
G75*
G03*
X124951564Y-140208000I-2015564J0D01*
G01*
X112824000Y-133096000D02*
X112824000Y-130096000D01*
X112824000Y-130096000D02*
X118824000Y-130096000D01*
X118824000Y-130096000D02*
X118824000Y-136096000D01*
X118824000Y-136096000D02*
X112824000Y-136096000D01*
X112824000Y-136096000D02*
X112824000Y-133096000D01*
X117839564Y-133096000D02*
G75*
G03*
X117839564Y-133096000I-2015564J0D01*
G01*
X127048000Y-136096000D02*
X127048000Y-130096000D01*
X133048000Y-136096000D02*
X127048000Y-136096000D01*
X133048000Y-130096000D02*
X133048000Y-133096000D01*
X127048000Y-130096000D02*
X133048000Y-130096000D01*
X133048000Y-133096000D02*
X133048000Y-136096000D01*
X132063564Y-133096000D02*
G75*
G03*
X132063564Y-133096000I-2015564J0D01*
G01*
X154602000Y-132053000D02*
X154602000Y-138053000D01*
X154602000Y-138053000D02*
X148602000Y-138053000D01*
X148602000Y-138053000D02*
X148602000Y-135053000D01*
X148602000Y-132053000D02*
X154602000Y-132053000D01*
X148602000Y-135053000D02*
X148602000Y-132053000D01*
X153617564Y-135053000D02*
G75*
G03*
X153617564Y-135053000I-2015564J0D01*
G01*
X147536910Y-148411646D02*
X146290189Y-146016716D01*
X141830977Y-149860000D02*
X142904261Y-149301285D01*
X148140078Y-148097656D02*
X146893356Y-145702727D01*
X147359508Y-148503995D02*
X146112787Y-146109066D01*
X142280900Y-148103820D02*
X143527621Y-150498749D01*
X148590000Y-146341476D02*
X147516717Y-146900192D01*
X147448209Y-148457820D02*
X146201488Y-146062891D01*
X143527621Y-150498749D02*
X148140078Y-148097656D01*
X146893356Y-145702727D02*
X142280900Y-148103820D01*
X176146000Y-100076000D02*
X176146000Y-107696000D01*
X167636000Y-88346000D02*
X166116000Y-88346000D01*
X166116000Y-95966000D02*
X166116000Y-96566000D01*
X166116000Y-90886000D02*
X166116000Y-91486000D01*
X176146000Y-82296000D02*
X167640000Y-82296000D01*
X166116000Y-94026000D02*
X167636000Y-94026000D01*
X167636000Y-90886000D02*
X166116000Y-90886000D01*
X166116000Y-83866000D02*
X167636000Y-83866000D01*
X166116000Y-83266000D02*
X166116000Y-83866000D01*
X167636000Y-103586000D02*
X166116000Y-103586000D01*
X166116000Y-86406000D02*
X167636000Y-86406000D01*
X166116000Y-88346000D02*
X166116000Y-88946000D01*
X166116000Y-101046000D02*
X166116000Y-101646000D01*
X167636000Y-101046000D02*
X166116000Y-101046000D01*
X167636000Y-106126000D02*
X166116000Y-106126000D01*
X167636000Y-85806000D02*
X166116000Y-85806000D01*
X167636000Y-95966000D02*
X166116000Y-95966000D01*
X166116000Y-101646000D02*
X167636000Y-101646000D01*
X166116000Y-99106000D02*
X167636000Y-99106000D01*
X166116000Y-96566000D02*
X167636000Y-96566000D01*
X166116000Y-103586000D02*
X166116000Y-104186000D01*
X166116000Y-91486000D02*
X167636000Y-91486000D01*
X167640000Y-100076000D02*
X167636000Y-101046000D01*
X166116000Y-85806000D02*
X166116000Y-86406000D01*
X166116000Y-106726000D02*
X167636000Y-106726000D01*
X166116000Y-104186000D02*
X167636000Y-104186000D01*
X166116000Y-98506000D02*
X166116000Y-99106000D01*
X166116000Y-93426000D02*
X166116000Y-94026000D01*
X167636000Y-83266000D02*
X166116000Y-83266000D01*
X166116000Y-106126000D02*
X166116000Y-106726000D01*
X167636000Y-93426000D02*
X166116000Y-93426000D01*
X167636000Y-98506000D02*
X166116000Y-98506000D01*
X167636000Y-107696000D02*
X167636000Y-101046000D01*
X167636000Y-100076000D02*
X167640000Y-82296000D01*
X176146000Y-82296000D02*
X176146000Y-100076000D01*
X166116000Y-88946000D02*
X167636000Y-88946000D01*
X107696000Y-132669000D02*
X107696000Y-133269000D01*
M02*
