G04 #@! TF.GenerationSoftware,KiCad,Pcbnew,(6.0.4)*
G04 #@! TF.CreationDate,2022-05-01T01:23:01+08:00*
G04 #@! TF.ProjectId,system,73797374-656d-42e6-9b69-6361645f7063,1.0-dev7*
G04 #@! TF.SameCoordinates,Original*
G04 #@! TF.FileFunction,Legend,Top*
G04 #@! TF.FilePolarity,Positive*
%FSLAX46Y46*%
G04 Gerber Fmt 4.6, Leading zero omitted, Abs format (unit mm)*
G04 Created by KiCad (PCBNEW (6.0.4)) date 2022-05-01 01:23:01*
%MOMM*%
%LPD*%
G01*
G04 APERTURE LIST*
G04 Aperture macros list*
%AMRoundRect*
0 Rectangle with rounded corners*
0 $1 Rounding radius*
0 $2 $3 $4 $5 $6 $7 $8 $9 X,Y pos of 4 corners*
0 Add a 4 corners polygon primitive as box body*
4,1,4,$2,$3,$4,$5,$6,$7,$8,$9,$2,$3,0*
0 Add four circle primitives for the rounded corners*
1,1,$1+$1,$2,$3*
1,1,$1+$1,$4,$5*
1,1,$1+$1,$6,$7*
1,1,$1+$1,$8,$9*
0 Add four rect primitives between the rounded corners*
20,1,$1+$1,$2,$3,$4,$5,0*
20,1,$1+$1,$4,$5,$6,$7,0*
20,1,$1+$1,$6,$7,$8,$9,0*
20,1,$1+$1,$8,$9,$2,$3,0*%
%AMHorizOval*
0 Thick line with rounded ends*
0 $1 width*
0 $2 $3 position (X,Y) of the first rounded end (center of the circle)*
0 $4 $5 position (X,Y) of the second rounded end (center of the circle)*
0 Add line between two ends*
20,1,$1,$2,$3,$4,$5,0*
0 Add two circle primitives to create the rounded ends*
1,1,$1,$2,$3*
1,1,$1,$4,$5*%
%AMFreePoly0*
4,1,25,0.438533,0.496437,0.442069,0.494973,0.469572,0.467470,0.471036,0.463934,0.474900,0.444501,0.474900,-0.406399,0.471036,-0.425832,0.469572,-0.429368,0.442069,-0.456871,0.438533,-0.458335,0.419100,-0.462199,-0.419099,-0.462199,-0.438532,-0.458335,-0.442068,-0.456871,-0.469571,-0.429368,-0.471035,-0.425832,-0.474899,-0.406399,-0.474899,0.444501,-0.471035,0.463934,-0.469571,0.467470,
-0.442068,0.494973,-0.438532,0.496437,-0.419099,0.500301,0.419100,0.500301,0.438533,0.496437,0.438533,0.496437,$1*%
G04 Aperture macros list end*
%ADD10C,0.100000*%
%ADD11C,0.254000*%
%ADD12C,0.177800*%
%ADD13C,0.381000*%
%ADD14C,0.114300*%
%ADD15C,0.150000*%
%ADD16C,0.120000*%
%ADD17C,0.250000*%
%ADD18C,0.010000*%
%ADD19C,1.851600*%
%ADD20C,5.501599*%
%ADD21C,5.501600*%
%ADD22RoundRect,0.050800X0.467788X1.483635X-1.483635X0.467788X-0.467788X-1.483635X1.483635X-0.467788X0*%
%ADD23HorizOval,2.301600X0.000000X0.000000X0.000000X0.000000X0*%
%ADD24C,1.625600*%
%ADD25C,1.801600*%
%ADD26C,2.101600*%
%ADD27C,1.401600*%
%ADD28FreePoly0,0.000000*%
%ADD29C,1.701600*%
%ADD30O,1.701600X1.701600*%
%ADD31C,2.201600*%
%ADD32O,1.801600X1.801600*%
G04 APERTURE END LIST*
D10*
G36*
X105664000Y-118872000D02*
G01*
X104902000Y-118110000D01*
X105664000Y-117348000D01*
X105664000Y-118872000D01*
G37*
X105664000Y-118872000D02*
X104902000Y-118110000D01*
X105664000Y-117348000D01*
X105664000Y-118872000D01*
G36*
X104267000Y-140716000D02*
G01*
X105029000Y-138049000D01*
X106426000Y-137795000D01*
X104267000Y-140716000D01*
G37*
X104267000Y-140716000D02*
X105029000Y-138049000D01*
X106426000Y-137795000D01*
X104267000Y-140716000D01*
D11*
X112890096Y-72250096D02*
G75*
G03*
X113665000Y-72237600I393904J-393904D01*
G01*
X113284000Y-72034400D02*
X113284000Y-72517000D01*
D10*
G36*
X105410000Y-138430000D02*
G01*
X104013000Y-138684000D01*
X106172000Y-135763000D01*
X105410000Y-138430000D01*
G37*
X105410000Y-138430000D02*
X104013000Y-138684000D01*
X106172000Y-135763000D01*
X105410000Y-138430000D01*
D12*
X115352285Y-72226714D02*
X115497428Y-72226714D01*
X115570000Y-72263000D01*
X115642571Y-72335571D01*
X115678857Y-72480714D01*
X115678857Y-72734714D01*
X115642571Y-72879857D01*
X115570000Y-72952428D01*
X115497428Y-72988714D01*
X115352285Y-72988714D01*
X115279714Y-72952428D01*
X115207142Y-72879857D01*
X115170857Y-72734714D01*
X115170857Y-72480714D01*
X115207142Y-72335571D01*
X115279714Y-72263000D01*
X115352285Y-72226714D01*
X116005428Y-72988714D02*
X116005428Y-72226714D01*
X116440857Y-72988714D01*
X116440857Y-72226714D01*
X110018285Y-72226714D02*
X110163428Y-72226714D01*
X110236000Y-72263000D01*
X110308571Y-72335571D01*
X110344857Y-72480714D01*
X110344857Y-72734714D01*
X110308571Y-72879857D01*
X110236000Y-72952428D01*
X110163428Y-72988714D01*
X110018285Y-72988714D01*
X109945714Y-72952428D01*
X109873142Y-72879857D01*
X109836857Y-72734714D01*
X109836857Y-72480714D01*
X109873142Y-72335571D01*
X109945714Y-72263000D01*
X110018285Y-72226714D01*
X110925428Y-72589571D02*
X110671428Y-72589571D01*
X110671428Y-72988714D02*
X110671428Y-72226714D01*
X111034285Y-72226714D01*
X111578571Y-72589571D02*
X111324571Y-72589571D01*
X111324571Y-72988714D02*
X111324571Y-72226714D01*
X111687428Y-72226714D01*
D13*
X161562428Y-123307928D02*
X161925285Y-123398642D01*
X162046238Y-123489357D01*
X162167190Y-123670785D01*
X162167190Y-123942928D01*
X162046238Y-124124357D01*
X161925285Y-124215071D01*
X161683380Y-124305785D01*
X160715761Y-124305785D01*
X160715761Y-122400785D01*
X161562428Y-122400785D01*
X161804333Y-122491500D01*
X161925285Y-122582214D01*
X162046238Y-122763642D01*
X162046238Y-122945071D01*
X161925285Y-123126500D01*
X161804333Y-123217214D01*
X161562428Y-123307928D01*
X160715761Y-123307928D01*
X150997238Y-128841500D02*
X152206761Y-128841500D01*
X150755333Y-129385785D02*
X151602000Y-127480785D01*
X152448666Y-129385785D01*
D12*
X166575619Y-125488095D02*
X167591619Y-125149428D01*
X166575619Y-124810761D01*
X166575619Y-124278571D02*
X166575619Y-124085047D01*
X166624000Y-123988285D01*
X166720761Y-123891523D01*
X166914285Y-123843142D01*
X167252952Y-123843142D01*
X167446476Y-123891523D01*
X167543238Y-123988285D01*
X167591619Y-124085047D01*
X167591619Y-124278571D01*
X167543238Y-124375333D01*
X167446476Y-124472095D01*
X167252952Y-124520476D01*
X166914285Y-124520476D01*
X166720761Y-124472095D01*
X166624000Y-124375333D01*
X166575619Y-124278571D01*
X167591619Y-122923904D02*
X167591619Y-123407714D01*
X166575619Y-123407714D01*
D14*
X125114866Y-148974628D02*
X125550295Y-148974628D01*
X125332580Y-149431828D02*
X125332580Y-148974628D01*
X125804295Y-149431828D02*
X125804295Y-148974628D01*
X126058295Y-149301200D01*
X126312295Y-148974628D01*
X126312295Y-149431828D01*
D15*
X107042095Y-118471904D02*
X106775428Y-118090952D01*
X106584952Y-118471904D02*
X106584952Y-117671904D01*
X106889714Y-117671904D01*
X106965904Y-117710000D01*
X107004000Y-117748095D01*
X107042095Y-117824285D01*
X107042095Y-117938571D01*
X107004000Y-118014761D01*
X106965904Y-118052857D01*
X106889714Y-118090952D01*
X106584952Y-118090952D01*
X107384952Y-118052857D02*
X107651619Y-118052857D01*
X107765904Y-118471904D02*
X107384952Y-118471904D01*
X107384952Y-117671904D01*
X107765904Y-117671904D01*
X108070666Y-118433809D02*
X108184952Y-118471904D01*
X108375428Y-118471904D01*
X108451619Y-118433809D01*
X108489714Y-118395714D01*
X108527809Y-118319523D01*
X108527809Y-118243333D01*
X108489714Y-118167142D01*
X108451619Y-118129047D01*
X108375428Y-118090952D01*
X108223047Y-118052857D01*
X108146857Y-118014761D01*
X108108761Y-117976666D01*
X108070666Y-117900476D01*
X108070666Y-117824285D01*
X108108761Y-117748095D01*
X108146857Y-117710000D01*
X108223047Y-117671904D01*
X108413523Y-117671904D01*
X108527809Y-117710000D01*
X108870666Y-118052857D02*
X109137333Y-118052857D01*
X109251619Y-118471904D02*
X108870666Y-118471904D01*
X108870666Y-117671904D01*
X109251619Y-117671904D01*
X109480190Y-117671904D02*
X109937333Y-117671904D01*
X109708761Y-118471904D02*
X109708761Y-117671904D01*
D16*
X176026000Y-140208000D02*
G75*
G03*
X176026000Y-140208000I-6100000J0D01*
G01*
X135923411Y-145540876D02*
X131098072Y-148052789D01*
X136589083Y-148508852D02*
X135231542Y-145901040D01*
X132455613Y-150660600D02*
X132395585Y-150545289D01*
X135983438Y-145656187D02*
X135923411Y-145540876D01*
X131098072Y-148052789D02*
X131158099Y-148168100D01*
X137220924Y-148033377D02*
X137280952Y-148148688D01*
X137280952Y-148148688D02*
X132455613Y-150660600D01*
X136482642Y-148564262D02*
X135125101Y-145956450D01*
X136376201Y-148619671D02*
X135018660Y-146011860D01*
X109029500Y-71780400D02*
X109029500Y-68275200D01*
X109029500Y-71780400D02*
X117538500Y-71780400D01*
X117538500Y-71780400D02*
X117538500Y-68275200D01*
X109029500Y-68275200D02*
X117538500Y-68275200D01*
D17*
X108700000Y-75596000D02*
X108700000Y-114396000D01*
D15*
X175700000Y-73496000D02*
X175700000Y-116496000D01*
X103700000Y-116496000D02*
X175700000Y-116496000D01*
D17*
X168200000Y-77596000D02*
X168200000Y-107096000D01*
D15*
X103700000Y-73496000D02*
X103700000Y-116496000D01*
D17*
X108700000Y-114396000D02*
X170700000Y-114396000D01*
X170700000Y-75596000D02*
X170700000Y-114396000D01*
X111200000Y-77596000D02*
X168200000Y-77596000D01*
X111200000Y-77596000D02*
X111200000Y-107096000D01*
D15*
X103700000Y-73496000D02*
X175700000Y-73496000D01*
D17*
X111200000Y-107096000D02*
X168200000Y-107096000D01*
X108700000Y-75596000D02*
X170700000Y-75596000D01*
D16*
X160631000Y-133600000D02*
X162131000Y-133600000D01*
X162131000Y-126600000D02*
X160631000Y-126600000D01*
X158131000Y-127850000D02*
X158131000Y-132350000D01*
X164631000Y-132350000D02*
X164631000Y-127850000D01*
X123686000Y-122484000D02*
X122186000Y-122484000D01*
X126186000Y-128234000D02*
X126186000Y-123734000D01*
X122186000Y-129484000D02*
X123686000Y-129484000D01*
X119686000Y-123734000D02*
X119686000Y-128234000D01*
X123686000Y-136708000D02*
X122186000Y-136708000D01*
X126186000Y-142458000D02*
X126186000Y-137958000D01*
X119686000Y-137958000D02*
X119686000Y-142458000D01*
X122186000Y-143708000D02*
X123686000Y-143708000D01*
X115074000Y-136596000D02*
X116574000Y-136596000D01*
X119074000Y-135346000D02*
X119074000Y-130846000D01*
X116574000Y-129596000D02*
X115074000Y-129596000D01*
X112574000Y-130846000D02*
X112574000Y-135346000D01*
X129298000Y-136596000D02*
X130798000Y-136596000D01*
X133298000Y-135346000D02*
X133298000Y-130846000D01*
X126798000Y-130846000D02*
X126798000Y-135346000D01*
X130798000Y-129596000D02*
X129298000Y-129596000D01*
X154852000Y-137303000D02*
X154852000Y-132803000D01*
X148352000Y-132803000D02*
X148352000Y-137303000D01*
X152352000Y-131553000D02*
X150852000Y-131553000D01*
X150852000Y-138553000D02*
X152352000Y-138553000D01*
X142119049Y-148052789D02*
X142179076Y-148168100D01*
X147004415Y-145656187D02*
X146944388Y-145540876D01*
X148301929Y-148148688D02*
X143476590Y-150660600D01*
X143476590Y-150660600D02*
X143416562Y-150545289D01*
X147503619Y-148564262D02*
X146146078Y-145956450D01*
X146944388Y-145540876D02*
X142119049Y-148052789D01*
X147397178Y-148619671D02*
X146039637Y-146011860D01*
X148241901Y-148033377D02*
X148301929Y-148148688D01*
X147610060Y-148508852D02*
X146252519Y-145901040D01*
X168224000Y-125730000D02*
X170434000Y-125730000D01*
X168224000Y-118110000D02*
X170434000Y-118110000D01*
X168224000Y-125730000D02*
X168224000Y-118110000D01*
X177749000Y-121920000D02*
G75*
G03*
X177749000Y-121920000I-4445000J0D01*
G01*
X173804000Y-121920000D02*
G75*
G03*
X173804000Y-121920000I-500000J0D01*
G01*
G36*
X167620000Y-122428000D02*
G01*
X166370000Y-118110000D01*
X167620000Y-118110000D01*
X167620000Y-122428000D01*
G37*
D15*
X167620000Y-122428000D02*
X166370000Y-118110000D01*
X167620000Y-118110000D01*
X167620000Y-122428000D01*
G36*
X123703197Y-148737658D02*
G01*
X123893983Y-148761530D01*
X124069748Y-148802130D01*
X124233084Y-148860124D01*
X124386581Y-148936179D01*
X124452352Y-148975971D01*
X124484313Y-148998861D01*
X124525208Y-149031618D01*
X124570902Y-149070492D01*
X124617259Y-149111732D01*
X124660147Y-149151588D01*
X124695428Y-149186309D01*
X124718968Y-149212144D01*
X124726700Y-149224817D01*
X124717463Y-149234928D01*
X124692005Y-149258308D01*
X124653706Y-149292076D01*
X124605947Y-149333346D01*
X124552108Y-149379236D01*
X124495569Y-149426861D01*
X124439711Y-149473338D01*
X124387916Y-149515783D01*
X124348955Y-149547054D01*
X124319138Y-149570658D01*
X124246694Y-149501933D01*
X124165347Y-149430737D01*
X124086831Y-149375963D01*
X124002012Y-149331630D01*
X123958238Y-149313046D01*
X123811581Y-149266586D01*
X123651529Y-149238392D01*
X123482931Y-149229057D01*
X123333941Y-149236650D01*
X123152104Y-149264584D01*
X122986679Y-149310752D01*
X122835378Y-149376204D01*
X122695910Y-149461986D01*
X122565986Y-149569146D01*
X122529243Y-149604899D01*
X122416423Y-149736336D01*
X122324435Y-149881892D01*
X122253630Y-150040660D01*
X122204362Y-150211734D01*
X122176983Y-150394206D01*
X122171034Y-150526750D01*
X122173161Y-150630535D01*
X122181594Y-150716945D01*
X122197932Y-150793567D01*
X122223774Y-150867986D01*
X122259188Y-150944750D01*
X122327106Y-151051975D01*
X122414994Y-151145674D01*
X122520791Y-151224961D01*
X122642434Y-151288952D01*
X122777863Y-151336761D01*
X122925017Y-151367505D01*
X123081834Y-151380296D01*
X123246253Y-151374251D01*
X123256988Y-151373202D01*
X123415868Y-151349791D01*
X123556926Y-151313142D01*
X123663370Y-151272015D01*
X123742038Y-151236597D01*
X123932953Y-150272750D01*
X124202827Y-150269322D01*
X124282532Y-150268747D01*
X124352917Y-150269079D01*
X124410294Y-150270227D01*
X124450971Y-150272108D01*
X124471258Y-150274633D01*
X124472860Y-150275672D01*
X124470453Y-150289700D01*
X124463489Y-150326194D01*
X124452450Y-150382726D01*
X124437817Y-150456868D01*
X124420070Y-150546190D01*
X124399691Y-150648265D01*
X124377162Y-150760663D01*
X124352964Y-150880956D01*
X124349740Y-150896951D01*
X124226461Y-151508453D01*
X124130505Y-151572760D01*
X123957433Y-151674458D01*
X123768865Y-151757718D01*
X123563310Y-151823172D01*
X123507500Y-151837208D01*
X123456516Y-151848633D01*
X123409001Y-151857206D01*
X123359508Y-151863431D01*
X123302590Y-151867812D01*
X123232803Y-151870854D01*
X123144702Y-151873059D01*
X123113801Y-151873635D01*
X122997410Y-151874730D01*
X122903121Y-151873404D01*
X122827736Y-151869543D01*
X122768060Y-151863031D01*
X122753336Y-151860649D01*
X122565702Y-151819299D01*
X122396620Y-151763818D01*
X122242620Y-151692729D01*
X122100229Y-151604553D01*
X122032819Y-151554006D01*
X121909126Y-151439789D01*
X121804853Y-151309373D01*
X121720289Y-151163269D01*
X121655723Y-151001987D01*
X121611443Y-150826035D01*
X121607419Y-150803445D01*
X121596564Y-150710082D01*
X121591925Y-150599967D01*
X121593255Y-150480914D01*
X121600311Y-150360737D01*
X121612846Y-150247248D01*
X121627543Y-150162272D01*
X121684067Y-149953622D01*
X121762450Y-149757124D01*
X121861716Y-149573943D01*
X121980886Y-149405241D01*
X122118983Y-149252183D01*
X122275028Y-149115932D01*
X122448046Y-148997652D01*
X122637057Y-148898506D01*
X122718327Y-148863905D01*
X122877798Y-148808582D01*
X123042232Y-148768575D01*
X123216645Y-148743016D01*
X123406052Y-148731039D01*
X123494800Y-148729849D01*
X123703197Y-148737658D01*
G37*
D18*
X123703197Y-148737658D02*
X123893983Y-148761530D01*
X124069748Y-148802130D01*
X124233084Y-148860124D01*
X124386581Y-148936179D01*
X124452352Y-148975971D01*
X124484313Y-148998861D01*
X124525208Y-149031618D01*
X124570902Y-149070492D01*
X124617259Y-149111732D01*
X124660147Y-149151588D01*
X124695428Y-149186309D01*
X124718968Y-149212144D01*
X124726700Y-149224817D01*
X124717463Y-149234928D01*
X124692005Y-149258308D01*
X124653706Y-149292076D01*
X124605947Y-149333346D01*
X124552108Y-149379236D01*
X124495569Y-149426861D01*
X124439711Y-149473338D01*
X124387916Y-149515783D01*
X124348955Y-149547054D01*
X124319138Y-149570658D01*
X124246694Y-149501933D01*
X124165347Y-149430737D01*
X124086831Y-149375963D01*
X124002012Y-149331630D01*
X123958238Y-149313046D01*
X123811581Y-149266586D01*
X123651529Y-149238392D01*
X123482931Y-149229057D01*
X123333941Y-149236650D01*
X123152104Y-149264584D01*
X122986679Y-149310752D01*
X122835378Y-149376204D01*
X122695910Y-149461986D01*
X122565986Y-149569146D01*
X122529243Y-149604899D01*
X122416423Y-149736336D01*
X122324435Y-149881892D01*
X122253630Y-150040660D01*
X122204362Y-150211734D01*
X122176983Y-150394206D01*
X122171034Y-150526750D01*
X122173161Y-150630535D01*
X122181594Y-150716945D01*
X122197932Y-150793567D01*
X122223774Y-150867986D01*
X122259188Y-150944750D01*
X122327106Y-151051975D01*
X122414994Y-151145674D01*
X122520791Y-151224961D01*
X122642434Y-151288952D01*
X122777863Y-151336761D01*
X122925017Y-151367505D01*
X123081834Y-151380296D01*
X123246253Y-151374251D01*
X123256988Y-151373202D01*
X123415868Y-151349791D01*
X123556926Y-151313142D01*
X123663370Y-151272015D01*
X123742038Y-151236597D01*
X123932953Y-150272750D01*
X124202827Y-150269322D01*
X124282532Y-150268747D01*
X124352917Y-150269079D01*
X124410294Y-150270227D01*
X124450971Y-150272108D01*
X124471258Y-150274633D01*
X124472860Y-150275672D01*
X124470453Y-150289700D01*
X124463489Y-150326194D01*
X124452450Y-150382726D01*
X124437817Y-150456868D01*
X124420070Y-150546190D01*
X124399691Y-150648265D01*
X124377162Y-150760663D01*
X124352964Y-150880956D01*
X124349740Y-150896951D01*
X124226461Y-151508453D01*
X124130505Y-151572760D01*
X123957433Y-151674458D01*
X123768865Y-151757718D01*
X123563310Y-151823172D01*
X123507500Y-151837208D01*
X123456516Y-151848633D01*
X123409001Y-151857206D01*
X123359508Y-151863431D01*
X123302590Y-151867812D01*
X123232803Y-151870854D01*
X123144702Y-151873059D01*
X123113801Y-151873635D01*
X122997410Y-151874730D01*
X122903121Y-151873404D01*
X122827736Y-151869543D01*
X122768060Y-151863031D01*
X122753336Y-151860649D01*
X122565702Y-151819299D01*
X122396620Y-151763818D01*
X122242620Y-151692729D01*
X122100229Y-151604553D01*
X122032819Y-151554006D01*
X121909126Y-151439789D01*
X121804853Y-151309373D01*
X121720289Y-151163269D01*
X121655723Y-151001987D01*
X121611443Y-150826035D01*
X121607419Y-150803445D01*
X121596564Y-150710082D01*
X121591925Y-150599967D01*
X121593255Y-150480914D01*
X121600311Y-150360737D01*
X121612846Y-150247248D01*
X121627543Y-150162272D01*
X121684067Y-149953622D01*
X121762450Y-149757124D01*
X121861716Y-149573943D01*
X121980886Y-149405241D01*
X122118983Y-149252183D01*
X122275028Y-149115932D01*
X122448046Y-148997652D01*
X122637057Y-148898506D01*
X122718327Y-148863905D01*
X122877798Y-148808582D01*
X123042232Y-148768575D01*
X123216645Y-148743016D01*
X123406052Y-148731039D01*
X123494800Y-148729849D01*
X123703197Y-148737658D01*
G36*
X113224653Y-150586220D02*
G01*
X113265907Y-150463422D01*
X113326019Y-150346873D01*
X113346503Y-150314567D01*
X113443198Y-150189096D01*
X113553620Y-150084970D01*
X113677584Y-150002287D01*
X113814904Y-149941144D01*
X113965395Y-149901636D01*
X114128871Y-149883859D01*
X114179957Y-149882779D01*
X114342433Y-149893929D01*
X114494497Y-149927603D01*
X114634888Y-149983027D01*
X114762345Y-150059425D01*
X114875608Y-150156026D01*
X114973414Y-150272055D01*
X115054504Y-150406737D01*
X115063548Y-150425150D01*
X115099859Y-150506236D01*
X115125731Y-150579101D01*
X115142751Y-150651292D01*
X115152504Y-150730359D01*
X115156579Y-150823847D01*
X115156980Y-150869650D01*
X115155151Y-150970328D01*
X115148361Y-151053539D01*
X115135162Y-151126970D01*
X115114104Y-151198309D01*
X115083742Y-151275244D01*
X115078222Y-151287908D01*
X115005373Y-151422720D01*
X114913022Y-151542482D01*
X114803274Y-151645497D01*
X114678235Y-151730071D01*
X114540009Y-151794507D01*
X114398616Y-151835477D01*
X114339890Y-151844055D01*
X114264913Y-151849610D01*
X114182023Y-151852050D01*
X114099557Y-151851287D01*
X114025853Y-151847230D01*
X113970755Y-151840091D01*
X113823044Y-151798763D01*
X113685110Y-151735647D01*
X113559447Y-151652722D01*
X113448549Y-151551965D01*
X113354912Y-151435356D01*
X113281029Y-151304871D01*
X113272931Y-151286820D01*
X113230382Y-151167933D01*
X113204439Y-151042337D01*
X113193849Y-150903475D01*
X113193454Y-150869650D01*
X113194089Y-150856945D01*
X113462686Y-150856945D01*
X113465942Y-150956348D01*
X113477907Y-151045947D01*
X113482306Y-151065689D01*
X113524369Y-151186423D01*
X113587765Y-151299255D01*
X113669151Y-151399433D01*
X113765189Y-151482202D01*
X113784313Y-151495239D01*
X113895486Y-151553126D01*
X114017785Y-151589497D01*
X114148152Y-151603906D01*
X114283530Y-151595908D01*
X114366354Y-151580057D01*
X114485025Y-151538670D01*
X114593275Y-151475624D01*
X114688579Y-151393403D01*
X114768408Y-151294489D01*
X114830235Y-151181366D01*
X114862075Y-151092903D01*
X114877696Y-151015516D01*
X114885994Y-150923540D01*
X114886862Y-150826737D01*
X114880189Y-150734871D01*
X114866924Y-150661679D01*
X114822391Y-150538446D01*
X114757277Y-150426667D01*
X114674123Y-150329036D01*
X114575471Y-150248248D01*
X114463861Y-150186998D01*
X114395777Y-150161970D01*
X114297018Y-150141000D01*
X114187712Y-150133208D01*
X114078047Y-150138604D01*
X113978212Y-150157198D01*
X113963450Y-150161516D01*
X113839565Y-150212793D01*
X113729827Y-150284301D01*
X113636133Y-150374021D01*
X113560380Y-150479932D01*
X113504469Y-150600014D01*
X113482306Y-150673611D01*
X113468142Y-150758959D01*
X113462686Y-150856945D01*
X113194089Y-150856945D01*
X113200941Y-150720039D01*
X113224653Y-150586220D01*
G37*
X113224653Y-150586220D02*
X113265907Y-150463422D01*
X113326019Y-150346873D01*
X113346503Y-150314567D01*
X113443198Y-150189096D01*
X113553620Y-150084970D01*
X113677584Y-150002287D01*
X113814904Y-149941144D01*
X113965395Y-149901636D01*
X114128871Y-149883859D01*
X114179957Y-149882779D01*
X114342433Y-149893929D01*
X114494497Y-149927603D01*
X114634888Y-149983027D01*
X114762345Y-150059425D01*
X114875608Y-150156026D01*
X114973414Y-150272055D01*
X115054504Y-150406737D01*
X115063548Y-150425150D01*
X115099859Y-150506236D01*
X115125731Y-150579101D01*
X115142751Y-150651292D01*
X115152504Y-150730359D01*
X115156579Y-150823847D01*
X115156980Y-150869650D01*
X115155151Y-150970328D01*
X115148361Y-151053539D01*
X115135162Y-151126970D01*
X115114104Y-151198309D01*
X115083742Y-151275244D01*
X115078222Y-151287908D01*
X115005373Y-151422720D01*
X114913022Y-151542482D01*
X114803274Y-151645497D01*
X114678235Y-151730071D01*
X114540009Y-151794507D01*
X114398616Y-151835477D01*
X114339890Y-151844055D01*
X114264913Y-151849610D01*
X114182023Y-151852050D01*
X114099557Y-151851287D01*
X114025853Y-151847230D01*
X113970755Y-151840091D01*
X113823044Y-151798763D01*
X113685110Y-151735647D01*
X113559447Y-151652722D01*
X113448549Y-151551965D01*
X113354912Y-151435356D01*
X113281029Y-151304871D01*
X113272931Y-151286820D01*
X113230382Y-151167933D01*
X113204439Y-151042337D01*
X113193849Y-150903475D01*
X113193454Y-150869650D01*
X113194089Y-150856945D01*
X113462686Y-150856945D01*
X113465942Y-150956348D01*
X113477907Y-151045947D01*
X113482306Y-151065689D01*
X113524369Y-151186423D01*
X113587765Y-151299255D01*
X113669151Y-151399433D01*
X113765189Y-151482202D01*
X113784313Y-151495239D01*
X113895486Y-151553126D01*
X114017785Y-151589497D01*
X114148152Y-151603906D01*
X114283530Y-151595908D01*
X114366354Y-151580057D01*
X114485025Y-151538670D01*
X114593275Y-151475624D01*
X114688579Y-151393403D01*
X114768408Y-151294489D01*
X114830235Y-151181366D01*
X114862075Y-151092903D01*
X114877696Y-151015516D01*
X114885994Y-150923540D01*
X114886862Y-150826737D01*
X114880189Y-150734871D01*
X114866924Y-150661679D01*
X114822391Y-150538446D01*
X114757277Y-150426667D01*
X114674123Y-150329036D01*
X114575471Y-150248248D01*
X114463861Y-150186998D01*
X114395777Y-150161970D01*
X114297018Y-150141000D01*
X114187712Y-150133208D01*
X114078047Y-150138604D01*
X113978212Y-150157198D01*
X113963450Y-150161516D01*
X113839565Y-150212793D01*
X113729827Y-150284301D01*
X113636133Y-150374021D01*
X113560380Y-150479932D01*
X113504469Y-150600014D01*
X113482306Y-150673611D01*
X113468142Y-150758959D01*
X113462686Y-150856945D01*
X113194089Y-150856945D01*
X113200941Y-150720039D01*
X113224653Y-150586220D01*
G36*
X118105988Y-148769786D02*
G01*
X118180163Y-148770686D01*
X118180709Y-148770695D01*
X118416518Y-148774150D01*
X118818469Y-149787113D01*
X118879035Y-149939458D01*
X118937032Y-150084779D01*
X118991768Y-150221376D01*
X119042551Y-150347547D01*
X119088689Y-150461590D01*
X119129489Y-150561808D01*
X119164262Y-150646498D01*
X119192316Y-150713961D01*
X119212956Y-150762494D01*
X119225494Y-150790400D01*
X119229180Y-150796763D01*
X119238040Y-150786493D01*
X119261438Y-150757514D01*
X119298319Y-150711171D01*
X119347628Y-150648808D01*
X119408311Y-150571766D01*
X119479312Y-150481391D01*
X119559578Y-150379025D01*
X119648053Y-150266011D01*
X119743684Y-150143693D01*
X119845415Y-150013414D01*
X119952191Y-149876517D01*
X120024443Y-149783799D01*
X120810946Y-148774150D01*
X121062136Y-148770701D01*
X121150841Y-148769800D01*
X121216841Y-148769960D01*
X121262814Y-148771320D01*
X121291437Y-148774019D01*
X121305390Y-148778194D01*
X121307591Y-148783401D01*
X121304423Y-148797679D01*
X121296598Y-148835336D01*
X121284425Y-148894843D01*
X121268212Y-148974669D01*
X121248267Y-149073283D01*
X121224898Y-149189154D01*
X121198413Y-149320753D01*
X121169121Y-149466549D01*
X121137329Y-149625011D01*
X121103345Y-149794609D01*
X121067478Y-149973813D01*
X121030035Y-150161091D01*
X120998220Y-150320375D01*
X120694585Y-151841200D01*
X120424643Y-151841200D01*
X120344946Y-151840773D01*
X120274596Y-151839581D01*
X120217275Y-151837753D01*
X120176668Y-151835419D01*
X120156460Y-151832709D01*
X120154889Y-151831675D01*
X120157335Y-151818013D01*
X120164365Y-151781339D01*
X120175606Y-151723555D01*
X120190680Y-151646559D01*
X120209217Y-151552253D01*
X120230840Y-151442538D01*
X120255177Y-151319312D01*
X120281852Y-151184475D01*
X120310491Y-151039929D01*
X120340721Y-150887574D01*
X120350586Y-150837900D01*
X120381174Y-150683646D01*
X120410207Y-150536724D01*
X120437317Y-150399022D01*
X120462139Y-150272421D01*
X120484306Y-150158808D01*
X120503452Y-150060068D01*
X120519210Y-149978085D01*
X120531214Y-149914743D01*
X120539099Y-149871928D01*
X120542497Y-149851526D01*
X120542575Y-149850035D01*
X120534367Y-149859207D01*
X120511623Y-149886877D01*
X120475511Y-149931580D01*
X120427198Y-149991850D01*
X120367851Y-150066221D01*
X120298636Y-150153226D01*
X120220722Y-150251400D01*
X120135275Y-150359275D01*
X120043461Y-150475387D01*
X119946448Y-150598269D01*
X119892852Y-150666237D01*
X119246650Y-151486054D01*
X119113978Y-151482652D01*
X118981305Y-151479249D01*
X118637728Y-150645079D01*
X118580971Y-150507652D01*
X118526930Y-150377524D01*
X118476389Y-150256536D01*
X118430131Y-150146533D01*
X118388941Y-150049356D01*
X118353602Y-149966848D01*
X118324898Y-149900850D01*
X118303614Y-149853207D01*
X118290534Y-149825759D01*
X118286503Y-149819578D01*
X118283029Y-149832949D01*
X118275016Y-149869361D01*
X118262841Y-149926941D01*
X118246884Y-150003810D01*
X118227522Y-150098093D01*
X118205133Y-150207912D01*
X118180096Y-150331391D01*
X118152787Y-150466654D01*
X118123586Y-150611824D01*
X118092869Y-150765025D01*
X118061017Y-150924380D01*
X118028405Y-151088011D01*
X117995412Y-151254044D01*
X117962417Y-151420601D01*
X117929797Y-151585806D01*
X117897931Y-151747782D01*
X117892682Y-151774525D01*
X117879599Y-151841200D01*
X117607450Y-151841200D01*
X117527398Y-151840770D01*
X117456663Y-151839568D01*
X117398918Y-151837724D01*
X117357835Y-151835369D01*
X117337089Y-151832633D01*
X117335300Y-151831525D01*
X117337745Y-151818082D01*
X117344875Y-151781255D01*
X117356391Y-151722562D01*
X117371990Y-151643524D01*
X117391370Y-151545660D01*
X117414227Y-151430491D01*
X117440261Y-151299536D01*
X117469168Y-151154316D01*
X117500649Y-150996351D01*
X117534398Y-150827159D01*
X117570116Y-150648261D01*
X117607499Y-150461179D01*
X117640101Y-150298150D01*
X117678637Y-150105473D01*
X117715765Y-149919788D01*
X117751181Y-149742605D01*
X117784585Y-149575437D01*
X117815673Y-149419795D01*
X117844146Y-149277193D01*
X117869699Y-149149140D01*
X117892033Y-149037150D01*
X117910846Y-148942735D01*
X117925835Y-148867407D01*
X117936698Y-148812676D01*
X117943135Y-148780056D01*
X117944901Y-148770844D01*
X117956941Y-148769886D01*
X117990433Y-148769388D01*
X118041430Y-148769354D01*
X118105988Y-148769786D01*
G37*
X118105988Y-148769786D02*
X118180163Y-148770686D01*
X118180709Y-148770695D01*
X118416518Y-148774150D01*
X118818469Y-149787113D01*
X118879035Y-149939458D01*
X118937032Y-150084779D01*
X118991768Y-150221376D01*
X119042551Y-150347547D01*
X119088689Y-150461590D01*
X119129489Y-150561808D01*
X119164262Y-150646498D01*
X119192316Y-150713961D01*
X119212956Y-150762494D01*
X119225494Y-150790400D01*
X119229180Y-150796763D01*
X119238040Y-150786493D01*
X119261438Y-150757514D01*
X119298319Y-150711171D01*
X119347628Y-150648808D01*
X119408311Y-150571766D01*
X119479312Y-150481391D01*
X119559578Y-150379025D01*
X119648053Y-150266011D01*
X119743684Y-150143693D01*
X119845415Y-150013414D01*
X119952191Y-149876517D01*
X120024443Y-149783799D01*
X120810946Y-148774150D01*
X121062136Y-148770701D01*
X121150841Y-148769800D01*
X121216841Y-148769960D01*
X121262814Y-148771320D01*
X121291437Y-148774019D01*
X121305390Y-148778194D01*
X121307591Y-148783401D01*
X121304423Y-148797679D01*
X121296598Y-148835336D01*
X121284425Y-148894843D01*
X121268212Y-148974669D01*
X121248267Y-149073283D01*
X121224898Y-149189154D01*
X121198413Y-149320753D01*
X121169121Y-149466549D01*
X121137329Y-149625011D01*
X121103345Y-149794609D01*
X121067478Y-149973813D01*
X121030035Y-150161091D01*
X120998220Y-150320375D01*
X120694585Y-151841200D01*
X120424643Y-151841200D01*
X120344946Y-151840773D01*
X120274596Y-151839581D01*
X120217275Y-151837753D01*
X120176668Y-151835419D01*
X120156460Y-151832709D01*
X120154889Y-151831675D01*
X120157335Y-151818013D01*
X120164365Y-151781339D01*
X120175606Y-151723555D01*
X120190680Y-151646559D01*
X120209217Y-151552253D01*
X120230840Y-151442538D01*
X120255177Y-151319312D01*
X120281852Y-151184475D01*
X120310491Y-151039929D01*
X120340721Y-150887574D01*
X120350586Y-150837900D01*
X120381174Y-150683646D01*
X120410207Y-150536724D01*
X120437317Y-150399022D01*
X120462139Y-150272421D01*
X120484306Y-150158808D01*
X120503452Y-150060068D01*
X120519210Y-149978085D01*
X120531214Y-149914743D01*
X120539099Y-149871928D01*
X120542497Y-149851526D01*
X120542575Y-149850035D01*
X120534367Y-149859207D01*
X120511623Y-149886877D01*
X120475511Y-149931580D01*
X120427198Y-149991850D01*
X120367851Y-150066221D01*
X120298636Y-150153226D01*
X120220722Y-150251400D01*
X120135275Y-150359275D01*
X120043461Y-150475387D01*
X119946448Y-150598269D01*
X119892852Y-150666237D01*
X119246650Y-151486054D01*
X119113978Y-151482652D01*
X118981305Y-151479249D01*
X118637728Y-150645079D01*
X118580971Y-150507652D01*
X118526930Y-150377524D01*
X118476389Y-150256536D01*
X118430131Y-150146533D01*
X118388941Y-150049356D01*
X118353602Y-149966848D01*
X118324898Y-149900850D01*
X118303614Y-149853207D01*
X118290534Y-149825759D01*
X118286503Y-149819578D01*
X118283029Y-149832949D01*
X118275016Y-149869361D01*
X118262841Y-149926941D01*
X118246884Y-150003810D01*
X118227522Y-150098093D01*
X118205133Y-150207912D01*
X118180096Y-150331391D01*
X118152787Y-150466654D01*
X118123586Y-150611824D01*
X118092869Y-150765025D01*
X118061017Y-150924380D01*
X118028405Y-151088011D01*
X117995412Y-151254044D01*
X117962417Y-151420601D01*
X117929797Y-151585806D01*
X117897931Y-151747782D01*
X117892682Y-151774525D01*
X117879599Y-151841200D01*
X117607450Y-151841200D01*
X117527398Y-151840770D01*
X117456663Y-151839568D01*
X117398918Y-151837724D01*
X117357835Y-151835369D01*
X117337089Y-151832633D01*
X117335300Y-151831525D01*
X117337745Y-151818082D01*
X117344875Y-151781255D01*
X117356391Y-151722562D01*
X117371990Y-151643524D01*
X117391370Y-151545660D01*
X117414227Y-151430491D01*
X117440261Y-151299536D01*
X117469168Y-151154316D01*
X117500649Y-150996351D01*
X117534398Y-150827159D01*
X117570116Y-150648261D01*
X117607499Y-150461179D01*
X117640101Y-150298150D01*
X117678637Y-150105473D01*
X117715765Y-149919788D01*
X117751181Y-149742605D01*
X117784585Y-149575437D01*
X117815673Y-149419795D01*
X117844146Y-149277193D01*
X117869699Y-149149140D01*
X117892033Y-149037150D01*
X117910846Y-148942735D01*
X117925835Y-148867407D01*
X117936698Y-148812676D01*
X117943135Y-148780056D01*
X117944901Y-148770844D01*
X117956941Y-148769886D01*
X117990433Y-148769388D01*
X118041430Y-148769354D01*
X118105988Y-148769786D01*
G36*
X110694139Y-150686229D02*
G01*
X110705541Y-150614764D01*
X110724196Y-150547382D01*
X110751646Y-150477022D01*
X110789435Y-150396624D01*
X110791034Y-150393400D01*
X110821827Y-150334794D01*
X110852080Y-150286527D01*
X110887379Y-150241070D01*
X110933312Y-150190898D01*
X110965755Y-150157940D01*
X111079670Y-150057628D01*
X111197999Y-149981341D01*
X111323844Y-149927794D01*
X111460310Y-149895696D01*
X111610499Y-149883762D01*
X111626651Y-149883627D01*
X111727174Y-149885912D01*
X111810678Y-149894152D01*
X111885112Y-149909652D01*
X111958425Y-149933713D01*
X111977088Y-149941049D01*
X112101191Y-150001098D01*
X112210285Y-150076359D01*
X112282818Y-150141620D01*
X112368567Y-150226391D01*
X112372259Y-149690770D01*
X112373221Y-149555543D01*
X112374256Y-149443394D01*
X112375633Y-149352000D01*
X112377628Y-149279043D01*
X112380512Y-149222198D01*
X112384554Y-149179147D01*
X112390030Y-149147567D01*
X112397211Y-149125136D01*
X112406367Y-149109534D01*
X112417772Y-149098439D01*
X112431699Y-149089530D01*
X112443475Y-149083145D01*
X112476393Y-149072722D01*
X112518171Y-149068089D01*
X112525932Y-149068115D01*
X112567126Y-149074253D01*
X112598821Y-149094323D01*
X112613383Y-149109337D01*
X112649000Y-149149200D01*
X112649000Y-150068920D01*
X112648930Y-150249463D01*
X112648698Y-150406428D01*
X112648269Y-150541635D01*
X112647609Y-150656903D01*
X112646681Y-150754056D01*
X112645454Y-150834911D01*
X112643890Y-150901292D01*
X112641956Y-150955017D01*
X112639618Y-150997909D01*
X112636840Y-151031787D01*
X112633588Y-151058473D01*
X112629827Y-151079787D01*
X112629766Y-151080075D01*
X112587087Y-151228430D01*
X112523550Y-151363887D01*
X112437578Y-151489461D01*
X112382437Y-151552976D01*
X112267332Y-151658353D01*
X112139576Y-151742115D01*
X112000597Y-151803451D01*
X111887415Y-151834763D01*
X111815737Y-151845218D01*
X111728664Y-151850936D01*
X111635193Y-151851932D01*
X111544320Y-151848221D01*
X111465041Y-151839816D01*
X111433360Y-151834034D01*
X111291464Y-151790345D01*
X111157843Y-151724509D01*
X111035533Y-151639009D01*
X110927567Y-151536328D01*
X110836983Y-151418947D01*
X110766815Y-151289347D01*
X110766553Y-151288750D01*
X110736308Y-151215844D01*
X110714689Y-151152871D01*
X110700319Y-151092585D01*
X110691820Y-151027738D01*
X110687815Y-150951082D01*
X110686915Y-150869650D01*
X110686958Y-150866821D01*
X110947087Y-150866821D01*
X110959565Y-151000379D01*
X110972288Y-151058930D01*
X111017600Y-151189016D01*
X111081867Y-151303622D01*
X111163029Y-151401531D01*
X111259024Y-151481525D01*
X111367790Y-151542386D01*
X111487265Y-151582897D01*
X111615389Y-151601840D01*
X111750100Y-151597999D01*
X111853817Y-151579529D01*
X111970545Y-151538762D01*
X112075872Y-151477274D01*
X112168209Y-151397767D01*
X112245968Y-151302947D01*
X112307562Y-151195517D01*
X112351405Y-151078182D01*
X112375909Y-150953647D01*
X112379486Y-150824617D01*
X112364169Y-150709997D01*
X112324077Y-150576477D01*
X112264691Y-150457874D01*
X112187968Y-150355519D01*
X112095864Y-150270743D01*
X111990338Y-150204877D01*
X111873347Y-150159251D01*
X111746848Y-150135197D01*
X111612800Y-150134046D01*
X111532328Y-150144403D01*
X111406037Y-150179071D01*
X111292041Y-150234346D01*
X111191785Y-150307874D01*
X111106710Y-150397296D01*
X111038260Y-150500259D01*
X110987877Y-150614405D01*
X110957005Y-150737378D01*
X110947087Y-150866821D01*
X110686958Y-150866821D01*
X110688445Y-150768837D01*
X110694139Y-150686229D01*
G37*
X110694139Y-150686229D02*
X110705541Y-150614764D01*
X110724196Y-150547382D01*
X110751646Y-150477022D01*
X110789435Y-150396624D01*
X110791034Y-150393400D01*
X110821827Y-150334794D01*
X110852080Y-150286527D01*
X110887379Y-150241070D01*
X110933312Y-150190898D01*
X110965755Y-150157940D01*
X111079670Y-150057628D01*
X111197999Y-149981341D01*
X111323844Y-149927794D01*
X111460310Y-149895696D01*
X111610499Y-149883762D01*
X111626651Y-149883627D01*
X111727174Y-149885912D01*
X111810678Y-149894152D01*
X111885112Y-149909652D01*
X111958425Y-149933713D01*
X111977088Y-149941049D01*
X112101191Y-150001098D01*
X112210285Y-150076359D01*
X112282818Y-150141620D01*
X112368567Y-150226391D01*
X112372259Y-149690770D01*
X112373221Y-149555543D01*
X112374256Y-149443394D01*
X112375633Y-149352000D01*
X112377628Y-149279043D01*
X112380512Y-149222198D01*
X112384554Y-149179147D01*
X112390030Y-149147567D01*
X112397211Y-149125136D01*
X112406367Y-149109534D01*
X112417772Y-149098439D01*
X112431699Y-149089530D01*
X112443475Y-149083145D01*
X112476393Y-149072722D01*
X112518171Y-149068089D01*
X112525932Y-149068115D01*
X112567126Y-149074253D01*
X112598821Y-149094323D01*
X112613383Y-149109337D01*
X112649000Y-149149200D01*
X112649000Y-150068920D01*
X112648930Y-150249463D01*
X112648698Y-150406428D01*
X112648269Y-150541635D01*
X112647609Y-150656903D01*
X112646681Y-150754056D01*
X112645454Y-150834911D01*
X112643890Y-150901292D01*
X112641956Y-150955017D01*
X112639618Y-150997909D01*
X112636840Y-151031787D01*
X112633588Y-151058473D01*
X112629827Y-151079787D01*
X112629766Y-151080075D01*
X112587087Y-151228430D01*
X112523550Y-151363887D01*
X112437578Y-151489461D01*
X112382437Y-151552976D01*
X112267332Y-151658353D01*
X112139576Y-151742115D01*
X112000597Y-151803451D01*
X111887415Y-151834763D01*
X111815737Y-151845218D01*
X111728664Y-151850936D01*
X111635193Y-151851932D01*
X111544320Y-151848221D01*
X111465041Y-151839816D01*
X111433360Y-151834034D01*
X111291464Y-151790345D01*
X111157843Y-151724509D01*
X111035533Y-151639009D01*
X110927567Y-151536328D01*
X110836983Y-151418947D01*
X110766815Y-151289347D01*
X110766553Y-151288750D01*
X110736308Y-151215844D01*
X110714689Y-151152871D01*
X110700319Y-151092585D01*
X110691820Y-151027738D01*
X110687815Y-150951082D01*
X110686915Y-150869650D01*
X110686958Y-150866821D01*
X110947087Y-150866821D01*
X110959565Y-151000379D01*
X110972288Y-151058930D01*
X111017600Y-151189016D01*
X111081867Y-151303622D01*
X111163029Y-151401531D01*
X111259024Y-151481525D01*
X111367790Y-151542386D01*
X111487265Y-151582897D01*
X111615389Y-151601840D01*
X111750100Y-151597999D01*
X111853817Y-151579529D01*
X111970545Y-151538762D01*
X112075872Y-151477274D01*
X112168209Y-151397767D01*
X112245968Y-151302947D01*
X112307562Y-151195517D01*
X112351405Y-151078182D01*
X112375909Y-150953647D01*
X112379486Y-150824617D01*
X112364169Y-150709997D01*
X112324077Y-150576477D01*
X112264691Y-150457874D01*
X112187968Y-150355519D01*
X112095864Y-150270743D01*
X111990338Y-150204877D01*
X111873347Y-150159251D01*
X111746848Y-150135197D01*
X111612800Y-150134046D01*
X111532328Y-150144403D01*
X111406037Y-150179071D01*
X111292041Y-150234346D01*
X111191785Y-150307874D01*
X111106710Y-150397296D01*
X111038260Y-150500259D01*
X110987877Y-150614405D01*
X110957005Y-150737378D01*
X110947087Y-150866821D01*
X110686958Y-150866821D01*
X110688445Y-150768837D01*
X110694139Y-150686229D01*
G36*
X115980223Y-149287518D02*
G01*
X116024859Y-149310825D01*
X116053160Y-149343166D01*
X116061194Y-149358203D01*
X116067286Y-149375838D01*
X116071702Y-149399604D01*
X116074708Y-149433029D01*
X116076568Y-149479644D01*
X116077549Y-149542977D01*
X116077917Y-149626560D01*
X116077953Y-149672675D01*
X116078001Y-149961600D01*
X116281609Y-149961600D01*
X116380868Y-149962908D01*
X116457566Y-149967585D01*
X116514442Y-149976761D01*
X116554236Y-149991567D01*
X116579687Y-150013131D01*
X116593535Y-150042584D01*
X116598518Y-150081057D01*
X116598700Y-150092383D01*
X116588021Y-150139053D01*
X116565219Y-150169418D01*
X116531736Y-150202900D01*
X116078001Y-150202900D01*
X116078001Y-150697575D01*
X116078197Y-150836568D01*
X116078934Y-150952740D01*
X116080431Y-151048667D01*
X116082909Y-151126926D01*
X116086588Y-151190094D01*
X116091689Y-151240746D01*
X116098431Y-151281460D01*
X116107035Y-151314813D01*
X116117721Y-151343379D01*
X116130709Y-151369738D01*
X116136322Y-151379759D01*
X116193447Y-151455124D01*
X116266366Y-151511086D01*
X116353537Y-151546811D01*
X116453426Y-151561464D01*
X116472067Y-151561800D01*
X116522736Y-151563870D01*
X116568881Y-151569251D01*
X116595968Y-151575450D01*
X116640008Y-151602420D01*
X116667701Y-151642916D01*
X116678836Y-151690847D01*
X116673202Y-151740126D01*
X116650589Y-151784663D01*
X116610788Y-151818367D01*
X116604468Y-151821575D01*
X116562744Y-151833264D01*
X116504004Y-151839264D01*
X116435979Y-151839591D01*
X116366403Y-151834259D01*
X116303009Y-151823282D01*
X116293900Y-151820988D01*
X116173331Y-151776421D01*
X116066545Y-151711111D01*
X115975032Y-151626534D01*
X115900277Y-151524173D01*
X115843769Y-151405506D01*
X115827536Y-151356937D01*
X115822375Y-151336017D01*
X115818031Y-151309174D01*
X115814404Y-151273985D01*
X115811390Y-151228030D01*
X115808890Y-151168885D01*
X115806801Y-151094128D01*
X115805022Y-151001337D01*
X115803452Y-150888090D01*
X115801989Y-150751966D01*
X115801929Y-150745825D01*
X115796684Y-150202900D01*
X115663457Y-150202900D01*
X115605270Y-150201630D01*
X115554553Y-150198205D01*
X115517989Y-150193201D01*
X115504590Y-150189177D01*
X115476472Y-150161815D01*
X115457249Y-150120316D01*
X115451054Y-150075496D01*
X115453812Y-150056387D01*
X115468961Y-150020750D01*
X115494804Y-149995239D01*
X115535015Y-149978248D01*
X115593273Y-149968170D01*
X115666140Y-149963619D01*
X115798600Y-149959288D01*
X115799317Y-149684218D01*
X115800395Y-149574496D01*
X115802961Y-149485735D01*
X115806952Y-149419211D01*
X115812305Y-149376196D01*
X115815192Y-149364700D01*
X115841823Y-149320982D01*
X115882404Y-149293166D01*
X115930638Y-149281821D01*
X115980223Y-149287518D01*
G37*
X115980223Y-149287518D02*
X116024859Y-149310825D01*
X116053160Y-149343166D01*
X116061194Y-149358203D01*
X116067286Y-149375838D01*
X116071702Y-149399604D01*
X116074708Y-149433029D01*
X116076568Y-149479644D01*
X116077549Y-149542977D01*
X116077917Y-149626560D01*
X116077953Y-149672675D01*
X116078001Y-149961600D01*
X116281609Y-149961600D01*
X116380868Y-149962908D01*
X116457566Y-149967585D01*
X116514442Y-149976761D01*
X116554236Y-149991567D01*
X116579687Y-150013131D01*
X116593535Y-150042584D01*
X116598518Y-150081057D01*
X116598700Y-150092383D01*
X116588021Y-150139053D01*
X116565219Y-150169418D01*
X116531736Y-150202900D01*
X116078001Y-150202900D01*
X116078001Y-150697575D01*
X116078197Y-150836568D01*
X116078934Y-150952740D01*
X116080431Y-151048667D01*
X116082909Y-151126926D01*
X116086588Y-151190094D01*
X116091689Y-151240746D01*
X116098431Y-151281460D01*
X116107035Y-151314813D01*
X116117721Y-151343379D01*
X116130709Y-151369738D01*
X116136322Y-151379759D01*
X116193447Y-151455124D01*
X116266366Y-151511086D01*
X116353537Y-151546811D01*
X116453426Y-151561464D01*
X116472067Y-151561800D01*
X116522736Y-151563870D01*
X116568881Y-151569251D01*
X116595968Y-151575450D01*
X116640008Y-151602420D01*
X116667701Y-151642916D01*
X116678836Y-151690847D01*
X116673202Y-151740126D01*
X116650589Y-151784663D01*
X116610788Y-151818367D01*
X116604468Y-151821575D01*
X116562744Y-151833264D01*
X116504004Y-151839264D01*
X116435979Y-151839591D01*
X116366403Y-151834259D01*
X116303009Y-151823282D01*
X116293900Y-151820988D01*
X116173331Y-151776421D01*
X116066545Y-151711111D01*
X115975032Y-151626534D01*
X115900277Y-151524173D01*
X115843769Y-151405506D01*
X115827536Y-151356937D01*
X115822375Y-151336017D01*
X115818031Y-151309174D01*
X115814404Y-151273985D01*
X115811390Y-151228030D01*
X115808890Y-151168885D01*
X115806801Y-151094128D01*
X115805022Y-151001337D01*
X115803452Y-150888090D01*
X115801989Y-150751966D01*
X115801929Y-150745825D01*
X115796684Y-150202900D01*
X115663457Y-150202900D01*
X115605270Y-150201630D01*
X115554553Y-150198205D01*
X115517989Y-150193201D01*
X115504590Y-150189177D01*
X115476472Y-150161815D01*
X115457249Y-150120316D01*
X115451054Y-150075496D01*
X115453812Y-150056387D01*
X115468961Y-150020750D01*
X115494804Y-149995239D01*
X115535015Y-149978248D01*
X115593273Y-149968170D01*
X115666140Y-149963619D01*
X115798600Y-149959288D01*
X115799317Y-149684218D01*
X115800395Y-149574496D01*
X115802961Y-149485735D01*
X115806952Y-149419211D01*
X115812305Y-149376196D01*
X115815192Y-149364700D01*
X115841823Y-149320982D01*
X115882404Y-149293166D01*
X115930638Y-149281821D01*
X115980223Y-149287518D01*
D16*
X167576000Y-106786000D02*
X167166000Y-106786000D01*
X167576000Y-95906000D02*
X167226000Y-95906000D01*
X176206000Y-107696000D02*
X167576000Y-107696000D01*
X167576000Y-103526000D02*
X167166000Y-103526000D01*
X167576000Y-100986000D02*
X167226000Y-100986000D01*
X167576000Y-93366000D02*
X167166000Y-93366000D01*
X176206000Y-94996000D02*
X167576000Y-94996000D01*
X167576000Y-86466000D02*
X167226000Y-86466000D01*
X167576000Y-101706000D02*
X167226000Y-101706000D01*
X176206000Y-84836000D02*
X167576000Y-84836000D01*
X167576000Y-90826000D02*
X167166000Y-90826000D01*
X176206000Y-105156000D02*
X167576000Y-105156000D01*
X167576000Y-98446000D02*
X167226000Y-98446000D01*
X176206000Y-97536000D02*
X167576000Y-97536000D01*
X176206000Y-107696000D02*
X176206000Y-100076000D01*
X176206000Y-89916000D02*
X167576000Y-89916000D01*
X176206000Y-100076000D02*
X176206000Y-82296000D01*
X167576000Y-85746000D02*
X167226000Y-85746000D01*
X167576000Y-100076000D02*
X167576000Y-82296000D01*
X167576000Y-99166000D02*
X167226000Y-99166000D01*
X167576000Y-83926000D02*
X167226000Y-83926000D01*
X176206000Y-87376000D02*
X167576000Y-87376000D01*
X176206000Y-82296000D02*
X167576000Y-82296000D01*
X167576000Y-91546000D02*
X167166000Y-91546000D01*
X176206000Y-100076000D02*
X167576000Y-100076000D01*
X167576000Y-107696000D02*
X167576000Y-100076000D01*
X167576000Y-88286000D02*
X167166000Y-88286000D01*
X167576000Y-94086000D02*
X167166000Y-94086000D01*
X167576000Y-89006000D02*
X167166000Y-89006000D01*
X176206000Y-102616000D02*
X167576000Y-102616000D01*
X167576000Y-106066000D02*
X167166000Y-106066000D01*
X167576000Y-83206000D02*
X167226000Y-83206000D01*
X167576000Y-96626000D02*
X167226000Y-96626000D01*
X176206000Y-92456000D02*
X167576000Y-92456000D01*
X167576000Y-104246000D02*
X167166000Y-104246000D01*
%LPC*%
D19*
X167426000Y-140208000D03*
X172426000Y-140208000D03*
D20*
X105791000Y-70104000D03*
D21*
X173609000Y-70104000D03*
D20*
X105791000Y-151130000D03*
X156464000Y-151130000D03*
D22*
X137569023Y-146341476D03*
D23*
X130810000Y-149860000D03*
D24*
X110794800Y-70866000D03*
X113284000Y-70866000D03*
X115773200Y-70866000D03*
D25*
X106200000Y-102616000D03*
X106200000Y-100076000D03*
X106200000Y-97536000D03*
X106200000Y-94996000D03*
X106200000Y-92456000D03*
X106200000Y-89916000D03*
X106200000Y-87376000D03*
D26*
X159131000Y-126850000D03*
X159131000Y-133350000D03*
X163631000Y-126850000D03*
X163631000Y-133350000D03*
X120686000Y-122734000D03*
X120686000Y-129234000D03*
X125186000Y-129234000D03*
X125186000Y-122734000D03*
X125186000Y-136958000D03*
X125186000Y-143458000D03*
X120686000Y-143458000D03*
X120686000Y-136958000D03*
X113574000Y-129846000D03*
X113574000Y-136346000D03*
X118074000Y-129846000D03*
X118074000Y-136346000D03*
X132298000Y-136346000D03*
X132298000Y-129846000D03*
X127798000Y-136346000D03*
X127798000Y-129846000D03*
X149352000Y-131803000D03*
X149352000Y-138303000D03*
X153852000Y-138303000D03*
X153852000Y-131803000D03*
D22*
X148590000Y-146341476D03*
D23*
X141830977Y-149860000D03*
D27*
X170434000Y-124460000D03*
X170434000Y-121920000D03*
X170434000Y-119380000D03*
D28*
X116840000Y-149225000D03*
D29*
X112776000Y-114300000D03*
D30*
X112776000Y-121920000D03*
D31*
X109170000Y-121584000D03*
X109170000Y-114574000D03*
D19*
X106680000Y-115824000D03*
X106680000Y-120324000D03*
X156210000Y-115000000D03*
X153670000Y-115000000D03*
X151130000Y-115000000D03*
X148590000Y-115000000D03*
X146050000Y-115000000D03*
X143510000Y-115000000D03*
X140970000Y-115000000D03*
X138430000Y-115000000D03*
X135890000Y-115000000D03*
X133350000Y-115000000D03*
X130810000Y-115000000D03*
X128270000Y-115000000D03*
X125730000Y-115000000D03*
X123190000Y-115000000D03*
X123190000Y-109920000D03*
X125730000Y-109920000D03*
X128270000Y-109920000D03*
X130810000Y-109920000D03*
X133350000Y-109920000D03*
X135890000Y-109920000D03*
X138430000Y-109920000D03*
X140970000Y-109920000D03*
X143510000Y-109920000D03*
X146050000Y-109920000D03*
X148590000Y-109920000D03*
X151130000Y-109920000D03*
X153670000Y-109920000D03*
X156210000Y-109920000D03*
D25*
X112014000Y-145161000D03*
X114554000Y-145161000D03*
X117094000Y-145161000D03*
X109474000Y-145161000D03*
D32*
X166116000Y-83566000D03*
X166116000Y-86106000D03*
X166116000Y-88646000D03*
X166116000Y-91186000D03*
X166116000Y-93726000D03*
D25*
X166116000Y-96266000D03*
X166116000Y-98806000D03*
D32*
X166116000Y-101346000D03*
X166116000Y-103886000D03*
X166116000Y-106426000D03*
X107696000Y-132969000D03*
M02*
