G04 #@! TF.GenerationSoftware,KiCad,Pcbnew,(6.0.4)*
G04 #@! TF.CreationDate,2022-05-01T01:23:01+08:00*
G04 #@! TF.ProjectId,system,73797374-656d-42e6-9b69-6361645f7063,1.0-dev7*
G04 #@! TF.SameCoordinates,Original*
G04 #@! TF.FileFunction,Soldermask,Bot*
G04 #@! TF.FilePolarity,Negative*
%FSLAX46Y46*%
G04 Gerber Fmt 4.6, Leading zero omitted, Abs format (unit mm)*
G04 Created by KiCad (PCBNEW (6.0.4)) date 2022-05-01 01:23:01*
%MOMM*%
%LPD*%
G01*
G04 APERTURE LIST*
G04 Aperture macros list*
%AMRoundRect*
0 Rectangle with rounded corners*
0 $1 Rounding radius*
0 $2 $3 $4 $5 $6 $7 $8 $9 X,Y pos of 4 corners*
0 Add a 4 corners polygon primitive as box body*
4,1,4,$2,$3,$4,$5,$6,$7,$8,$9,$2,$3,0*
0 Add four circle primitives for the rounded corners*
1,1,$1+$1,$2,$3*
1,1,$1+$1,$4,$5*
1,1,$1+$1,$6,$7*
1,1,$1+$1,$8,$9*
0 Add four rect primitives between the rounded corners*
20,1,$1+$1,$2,$3,$4,$5,0*
20,1,$1+$1,$4,$5,$6,$7,0*
20,1,$1+$1,$6,$7,$8,$9,0*
20,1,$1+$1,$8,$9,$2,$3,0*%
%AMHorizOval*
0 Thick line with rounded ends*
0 $1 width*
0 $2 $3 position (X,Y) of the first rounded end (center of the circle)*
0 $4 $5 position (X,Y) of the second rounded end (center of the circle)*
0 Add line between two ends*
20,1,$1,$2,$3,$4,$5,0*
0 Add two circle primitives to create the rounded ends*
1,1,$1,$2,$3*
1,1,$1,$4,$5*%
G04 Aperture macros list end*
%ADD10C,0.100000*%
%ADD11C,1.851600*%
%ADD12C,5.501599*%
%ADD13C,5.501600*%
%ADD14RoundRect,0.050800X0.467788X1.483635X-1.483635X0.467788X-0.467788X-1.483635X1.483635X-0.467788X0*%
%ADD15HorizOval,2.301600X0.000000X0.000000X0.000000X0.000000X0*%
%ADD16C,1.625600*%
%ADD17C,1.801600*%
%ADD18C,2.101600*%
%ADD19C,1.401600*%
%ADD20C,1.701600*%
%ADD21O,1.701600X1.701600*%
%ADD22C,2.201600*%
%ADD23O,1.801600X1.801600*%
G04 APERTURE END LIST*
D10*
G36*
X181737000Y-138176000D02*
G01*
X182499000Y-140843000D01*
X180340000Y-137922000D01*
X181737000Y-138176000D01*
G37*
X181737000Y-138176000D02*
X182499000Y-140843000D01*
X180340000Y-137922000D01*
X181737000Y-138176000D01*
G36*
X182753000Y-138684000D02*
G01*
X181356000Y-138430000D01*
X180594000Y-135763000D01*
X182753000Y-138684000D01*
G37*
X182753000Y-138684000D02*
X181356000Y-138430000D01*
X180594000Y-135763000D01*
X182753000Y-138684000D01*
G36*
X181737000Y-138176000D02*
G01*
X182499000Y-140843000D01*
X180340000Y-137922000D01*
X181737000Y-138176000D01*
G37*
X181737000Y-138176000D02*
X182499000Y-140843000D01*
X180340000Y-137922000D01*
X181737000Y-138176000D01*
G36*
X182753000Y-138684000D02*
G01*
X181356000Y-138430000D01*
X180594000Y-135763000D01*
X182753000Y-138684000D01*
G37*
X182753000Y-138684000D02*
X181356000Y-138430000D01*
X180594000Y-135763000D01*
X182753000Y-138684000D01*
D11*
X167426000Y-140208000D03*
X172426000Y-140208000D03*
D12*
X105791000Y-70104000D03*
D13*
X173609000Y-70104000D03*
D12*
X105791000Y-151130000D03*
X156464000Y-151130000D03*
D14*
X137569023Y-146341476D03*
D15*
X130810000Y-149860000D03*
D16*
X110794800Y-70866000D03*
X113284000Y-70866000D03*
X115773200Y-70866000D03*
D17*
X106200000Y-102616000D03*
X106200000Y-100076000D03*
X106200000Y-97536000D03*
X106200000Y-94996000D03*
X106200000Y-92456000D03*
X106200000Y-89916000D03*
X106200000Y-87376000D03*
D18*
X159131000Y-126850000D03*
X159131000Y-133350000D03*
X163631000Y-126850000D03*
X163631000Y-133350000D03*
X120686000Y-122734000D03*
X120686000Y-129234000D03*
X125186000Y-129234000D03*
X125186000Y-122734000D03*
X125186000Y-136958000D03*
X125186000Y-143458000D03*
X120686000Y-143458000D03*
X120686000Y-136958000D03*
X113574000Y-129846000D03*
X113574000Y-136346000D03*
X118074000Y-129846000D03*
X118074000Y-136346000D03*
X132298000Y-136346000D03*
X132298000Y-129846000D03*
X127798000Y-136346000D03*
X127798000Y-129846000D03*
X149352000Y-131803000D03*
X149352000Y-138303000D03*
X153852000Y-138303000D03*
X153852000Y-131803000D03*
D14*
X148590000Y-146341476D03*
D15*
X141830977Y-149860000D03*
D19*
X170434000Y-124460000D03*
X170434000Y-121920000D03*
X170434000Y-119380000D03*
D20*
X112776000Y-114300000D03*
D21*
X112776000Y-121920000D03*
D22*
X109170000Y-121584000D03*
X109170000Y-114574000D03*
D11*
X106680000Y-115824000D03*
X106680000Y-120324000D03*
X156210000Y-115000000D03*
X153670000Y-115000000D03*
X151130000Y-115000000D03*
X148590000Y-115000000D03*
X146050000Y-115000000D03*
X143510000Y-115000000D03*
X140970000Y-115000000D03*
X138430000Y-115000000D03*
X135890000Y-115000000D03*
X133350000Y-115000000D03*
X130810000Y-115000000D03*
X128270000Y-115000000D03*
X125730000Y-115000000D03*
X123190000Y-115000000D03*
X123190000Y-109920000D03*
X125730000Y-109920000D03*
X128270000Y-109920000D03*
X130810000Y-109920000D03*
X133350000Y-109920000D03*
X135890000Y-109920000D03*
X138430000Y-109920000D03*
X140970000Y-109920000D03*
X143510000Y-109920000D03*
X146050000Y-109920000D03*
X148590000Y-109920000D03*
X151130000Y-109920000D03*
X153670000Y-109920000D03*
X156210000Y-109920000D03*
D17*
X112014000Y-145161000D03*
X114554000Y-145161000D03*
X117094000Y-145161000D03*
X109474000Y-145161000D03*
D23*
X166116000Y-83566000D03*
X166116000Y-86106000D03*
X166116000Y-88646000D03*
X166116000Y-91186000D03*
X166116000Y-93726000D03*
D17*
X166116000Y-96266000D03*
X166116000Y-98806000D03*
D23*
X166116000Y-101346000D03*
X166116000Y-103886000D03*
X166116000Y-106426000D03*
X107696000Y-132969000D03*
M02*
