G04 #@! TF.GenerationSoftware,KiCad,Pcbnew,(5.1.9-0-10_14)*
G04 #@! TF.CreationDate,2021-07-12T01:18:58-07:00*
G04 #@! TF.ProjectId,system,73797374-656d-42e6-9b69-6361645f7063,1.0-dev6*
G04 #@! TF.SameCoordinates,Original*
G04 #@! TF.FileFunction,Soldermask,Top*
G04 #@! TF.FilePolarity,Negative*
%FSLAX46Y46*%
G04 Gerber Fmt 4.6, Leading zero omitted, Abs format (unit mm)*
G04 Created by KiCad (PCBNEW (5.1.9-0-10_14)) date 2021-07-12 01:18:58*
%MOMM*%
%LPD*%
G01*
G04 APERTURE LIST*
%ADD10C,0.300000*%
%ADD11C,0.150000*%
%ADD12O,1.801600X1.801600*%
%ADD13C,0.100000*%
%ADD14C,1.801600*%
%ADD15C,1.851600*%
%ADD16C,2.101600*%
%ADD17C,3.851600*%
%ADD18C,1.401600*%
%ADD19C,0.609600*%
%ADD20C,5.501599*%
%ADD21C,5.501600*%
%ADD22C,1.701600*%
%ADD23O,1.701600X1.701600*%
%ADD24C,1.625600*%
%ADD25C,2.201600*%
G04 APERTURE END LIST*
D10*
X77141378Y-138760262D02*
G75*
G02*
X73281622Y-131345738I-1929878J3707262D01*
G01*
X83060622Y-126392738D02*
G75*
G02*
X86920378Y-133807262I1929878J-3707262D01*
G01*
X86920378Y-133807262D02*
X77141378Y-138760262D01*
X83060622Y-126392738D02*
X73281622Y-131345738D01*
D11*
X37395000Y-66865500D02*
X37395000Y-67691000D01*
X36895000Y-66865500D02*
X36895000Y-67691000D01*
X36395000Y-66865500D02*
X36395000Y-67691000D01*
X40513000Y-67691000D02*
G75*
G02*
X40513000Y-69469000I0J-889000D01*
G01*
X35560000Y-69469000D02*
G75*
G02*
X35560000Y-67691000I0J889000D01*
G01*
X35560000Y-67691000D02*
X40513000Y-67691000D01*
X40513000Y-69469000D02*
X35560000Y-69469000D01*
D10*
X93654500Y-66675000D02*
X93654500Y-73660000D01*
X32964500Y-66675000D02*
X32964500Y-73660000D01*
X25400000Y-73660000D02*
X100965000Y-73660000D01*
X53657500Y-133096000D02*
G75*
G03*
X53657500Y-133096000I-7112000J0D01*
G01*
X77141378Y-138760262D02*
G75*
G02*
X73281622Y-131345738I-1929878J3707262D01*
G01*
X83060622Y-126392738D02*
G75*
G02*
X86920378Y-133807262I1929878J-3707262D01*
G01*
X86920378Y-133807262D02*
X77141378Y-138760262D01*
X83060622Y-126392738D02*
X73281622Y-131345738D01*
D11*
X37395000Y-66865500D02*
X37395000Y-67691000D01*
X36895000Y-66865500D02*
X36895000Y-67691000D01*
X36395000Y-66865500D02*
X36395000Y-67691000D01*
X40513000Y-67691000D02*
G75*
G02*
X40513000Y-69469000I0J-889000D01*
G01*
X35560000Y-69469000D02*
G75*
G02*
X35560000Y-67691000I0J889000D01*
G01*
X35560000Y-67691000D02*
X40513000Y-67691000D01*
X40513000Y-69469000D02*
X35560000Y-69469000D01*
D10*
X93654500Y-66675000D02*
X93654500Y-73660000D01*
X32964500Y-66675000D02*
X32964500Y-73660000D01*
X25400000Y-73660000D02*
X100965000Y-73660000D01*
X53657500Y-133096000D02*
G75*
G03*
X53657500Y-133096000I-7112000J0D01*
G01*
D12*
X107696000Y-132969000D03*
D13*
G36*
X40556078Y-115323943D02*
G01*
X40557053Y-115324039D01*
X40566843Y-115325989D01*
X40567781Y-115326274D01*
X40576946Y-115330071D01*
X40577811Y-115330533D01*
X40586072Y-115336046D01*
X40586830Y-115336667D01*
X40593932Y-115343769D01*
X40594553Y-115344527D01*
X40600066Y-115352788D01*
X40600528Y-115353653D01*
X40604325Y-115362818D01*
X40604610Y-115363756D01*
X40606560Y-115373546D01*
X40606656Y-115374521D01*
X40606900Y-115379499D01*
X40606900Y-116230399D01*
X40606656Y-116235377D01*
X40606560Y-116236352D01*
X40604610Y-116246142D01*
X40604325Y-116247080D01*
X40600528Y-116256245D01*
X40600066Y-116257110D01*
X40594553Y-116265371D01*
X40593932Y-116266129D01*
X40586830Y-116273231D01*
X40586072Y-116273852D01*
X40577811Y-116279365D01*
X40576946Y-116279827D01*
X40567781Y-116283624D01*
X40566843Y-116283909D01*
X40557053Y-116285859D01*
X40556078Y-116285955D01*
X40551100Y-116286199D01*
X39712901Y-116286199D01*
X39707923Y-116285955D01*
X39706948Y-116285859D01*
X39697158Y-116283909D01*
X39696220Y-116283624D01*
X39687055Y-116279827D01*
X39686190Y-116279365D01*
X39677929Y-116273852D01*
X39677171Y-116273231D01*
X39670069Y-116266129D01*
X39669448Y-116265371D01*
X39663935Y-116257110D01*
X39663473Y-116256245D01*
X39659676Y-116247080D01*
X39659391Y-116246142D01*
X39657441Y-116236352D01*
X39657345Y-116235377D01*
X39657101Y-116230399D01*
X39657101Y-115379499D01*
X39657345Y-115374521D01*
X39657441Y-115373546D01*
X39659391Y-115363756D01*
X39659676Y-115362818D01*
X39663473Y-115353653D01*
X39663935Y-115352788D01*
X39669448Y-115344527D01*
X39670069Y-115343769D01*
X39677171Y-115336667D01*
X39677929Y-115336046D01*
X39686190Y-115330533D01*
X39687055Y-115330071D01*
X39696220Y-115326274D01*
X39697158Y-115325989D01*
X39706948Y-115324039D01*
X39707923Y-115323943D01*
X39712901Y-115323699D01*
X40551100Y-115323699D01*
X40556078Y-115323943D01*
G37*
D12*
X166116000Y-86106000D03*
X166116000Y-101346000D03*
X166116000Y-103886000D03*
X166116000Y-106426000D03*
X166116000Y-83566000D03*
D14*
X166116000Y-98806000D03*
D12*
X166116000Y-88646000D03*
X166116000Y-91186000D03*
X166116000Y-93726000D03*
D14*
X166116000Y-96266000D03*
G36*
G01*
X142851749Y-149328620D02*
X142851749Y-149328620D01*
G75*
G02*
X142362357Y-150880772I-1020772J-531380D01*
G01*
X142362357Y-150880772D01*
G75*
G02*
X140810205Y-150391380I-531380J1020772D01*
G01*
X140810205Y-150391380D01*
G75*
G02*
X141299597Y-148839228I1020772J531380D01*
G01*
X141299597Y-148839228D01*
G75*
G02*
X142851749Y-149328620I531380J-1020772D01*
G01*
G37*
G36*
G01*
X149102848Y-144834384D02*
X150118695Y-146785807D01*
G75*
G02*
X150097092Y-146854324I-45060J-23457D01*
G01*
X148145669Y-147870171D01*
G75*
G02*
X148077152Y-147848568I-23457J45060D01*
G01*
X147061305Y-145897145D01*
G75*
G02*
X147082908Y-145828628I45060J23457D01*
G01*
X149034331Y-144812781D01*
G75*
G02*
X149102848Y-144834384I23457J-45060D01*
G01*
G37*
G36*
G01*
X131830772Y-149328620D02*
X131830772Y-149328620D01*
G75*
G02*
X131341380Y-150880772I-1020772J-531380D01*
G01*
X131341380Y-150880772D01*
G75*
G02*
X129789228Y-150391380I-531380J1020772D01*
G01*
X129789228Y-150391380D01*
G75*
G02*
X130278620Y-148839228I1020772J531380D01*
G01*
X130278620Y-148839228D01*
G75*
G02*
X131830772Y-149328620I531380J-1020772D01*
G01*
G37*
G36*
G01*
X138081871Y-144834384D02*
X139097718Y-146785807D01*
G75*
G02*
X139076115Y-146854324I-45060J-23457D01*
G01*
X137124692Y-147870171D01*
G75*
G02*
X137056175Y-147848568I-23457J45060D01*
G01*
X136040328Y-145897145D01*
G75*
G02*
X136061931Y-145828628I45060J23457D01*
G01*
X138013354Y-144812781D01*
G75*
G02*
X138081871Y-144834384I23457J-45060D01*
G01*
G37*
D15*
X156210000Y-109920000D03*
X153670000Y-109920000D03*
X151130000Y-109920000D03*
X148590000Y-109920000D03*
X146050000Y-109920000D03*
X143510000Y-109920000D03*
X140970000Y-109920000D03*
X138430000Y-109920000D03*
X135890000Y-109920000D03*
X133350000Y-109920000D03*
X130810000Y-109920000D03*
X128270000Y-109920000D03*
X125730000Y-109920000D03*
X123190000Y-109920000D03*
X123190000Y-115000000D03*
X125730000Y-115000000D03*
X128270000Y-115000000D03*
X130810000Y-115000000D03*
X133350000Y-115000000D03*
X135890000Y-115000000D03*
X156210000Y-115000000D03*
X153670000Y-115000000D03*
X151130000Y-115000000D03*
X148590000Y-115000000D03*
X146050000Y-115000000D03*
X143510000Y-115000000D03*
X138430000Y-115000000D03*
X140970000Y-115000000D03*
D14*
X106200000Y-102616000D03*
X106200000Y-100076000D03*
X106200000Y-97536000D03*
X106200000Y-94996000D03*
X106200000Y-92456000D03*
X106200000Y-89916000D03*
X106200000Y-87376000D03*
D16*
X153852000Y-138303000D03*
X149352000Y-138303000D03*
X153852000Y-131803000D03*
X149352000Y-131803000D03*
X163631000Y-133350000D03*
X159131000Y-133350000D03*
X163631000Y-126850000D03*
X159131000Y-126850000D03*
X125186000Y-129234000D03*
X120686000Y-129234000D03*
X125186000Y-122734000D03*
X120686000Y-122734000D03*
X120686000Y-136958000D03*
X125186000Y-136958000D03*
X120686000Y-143458000D03*
X125186000Y-143458000D03*
X118074000Y-136346000D03*
X113574000Y-136346000D03*
X118074000Y-129846000D03*
X113574000Y-129846000D03*
X127798000Y-129846000D03*
X132298000Y-129846000D03*
X127798000Y-136346000D03*
X132298000Y-136346000D03*
D17*
X249999500Y-70104000D03*
X232854500Y-151130000D03*
X182181500Y-70104000D03*
X182181500Y-151130000D03*
D18*
X170434000Y-121920000D03*
X170434000Y-124460000D03*
X170434000Y-119380000D03*
D17*
X97218500Y-70104000D03*
X80073500Y-151130000D03*
X29400500Y-70104000D03*
X29400500Y-151130000D03*
D19*
X178911000Y-131318000D03*
X178911000Y-130429000D03*
X178911000Y-132207000D03*
X176879000Y-130429000D03*
X176879000Y-131318000D03*
X176879000Y-132207000D03*
X176879000Y-97028000D03*
X176879000Y-96139000D03*
X176879000Y-95250000D03*
X178911000Y-97028000D03*
X178911000Y-95250000D03*
X178911000Y-96139000D03*
X100489000Y-96139000D03*
X100489000Y-97028000D03*
X100489000Y-95250000D03*
X102521000Y-97028000D03*
X102521000Y-96139000D03*
X102521000Y-95250000D03*
X102521000Y-130429000D03*
X102521000Y-131318000D03*
X102521000Y-132207000D03*
X100489000Y-130429000D03*
X100489000Y-132207000D03*
X100489000Y-131318000D03*
D20*
X105791000Y-151130000D03*
X105791000Y-70104000D03*
X156464000Y-151130000D03*
D21*
X173609000Y-70104000D03*
D15*
X172426000Y-140208000D03*
X167426000Y-140208000D03*
D22*
X112776000Y-114300000D03*
D23*
X112776000Y-121920000D03*
D24*
X110794800Y-70866000D03*
X113284000Y-70866000D03*
X115773200Y-70866000D03*
D25*
X109170000Y-121584000D03*
D15*
X106680000Y-120324000D03*
X106680000Y-115824000D03*
D25*
X109170000Y-114574000D03*
D14*
X114554000Y-145161000D03*
X112014000Y-145161000D03*
X117094000Y-145161000D03*
X109474000Y-145161000D03*
D13*
G36*
X138059490Y-144787636D02*
G01*
X138060189Y-144788400D01*
X138613427Y-145851161D01*
X139122950Y-146829945D01*
X139122099Y-146832642D01*
X137080554Y-147895403D01*
X137078556Y-147895316D01*
X137077857Y-147894552D01*
X136524619Y-146831791D01*
X136015096Y-145853007D01*
X136015119Y-145852934D01*
X136019568Y-145852934D01*
X136528167Y-146829945D01*
X137080481Y-147890931D01*
X139118478Y-146830018D01*
X138609879Y-145853007D01*
X138057565Y-144792021D01*
X136019568Y-145852934D01*
X136015119Y-145852934D01*
X136015947Y-145850310D01*
X138057492Y-144787549D01*
X138059490Y-144787636D01*
G37*
G36*
X149080467Y-144787636D02*
G01*
X149081166Y-144788400D01*
X149634404Y-145851161D01*
X150143927Y-146829945D01*
X150143076Y-146832642D01*
X148101531Y-147895403D01*
X148099533Y-147895316D01*
X148098834Y-147894552D01*
X147545596Y-146831791D01*
X147036073Y-145853007D01*
X147036096Y-145852934D01*
X147040545Y-145852934D01*
X147549144Y-146829945D01*
X148101458Y-147890931D01*
X150139455Y-146830018D01*
X149630856Y-145853007D01*
X149078542Y-144792021D01*
X147040545Y-145852934D01*
X147036096Y-145852934D01*
X147036924Y-145850310D01*
X149078469Y-144787549D01*
X149080467Y-144787636D01*
G37*
M02*
