G04 #@! TF.GenerationSoftware,KiCad,Pcbnew,(5.1.9-0-10_14)*
G04 #@! TF.CreationDate,2021-04-12T21:42:41-07:00*
G04 #@! TF.ProjectId,cart,63617274-2e6b-4696-9361-645f70636258,1.0-dev3*
G04 #@! TF.SameCoordinates,Original*
G04 #@! TF.FileFunction,Legend,Bot*
G04 #@! TF.FilePolarity,Positive*
%FSLAX46Y46*%
G04 Gerber Fmt 4.6, Leading zero omitted, Abs format (unit mm)*
G04 Created by KiCad (PCBNEW (5.1.9-0-10_14)) date 2021-04-12 21:42:41*
%MOMM*%
%LPD*%
G01*
G04 APERTURE LIST*
%ADD10C,0.127000*%
%ADD11C,0.158750*%
%ADD12C,0.254000*%
G04 APERTURE END LIST*
D10*
X120994714Y-104684285D02*
X121539000Y-104684285D01*
X121647857Y-104648000D01*
X121720428Y-104575428D01*
X121756714Y-104466571D01*
X121756714Y-104394000D01*
X121756714Y-105410000D02*
X121756714Y-105047142D01*
X120994714Y-105047142D01*
X121684142Y-106099428D02*
X121720428Y-106063142D01*
X121756714Y-105954285D01*
X121756714Y-105881714D01*
X121720428Y-105772857D01*
X121647857Y-105700285D01*
X121575285Y-105664000D01*
X121430142Y-105627714D01*
X121321285Y-105627714D01*
X121176142Y-105664000D01*
X121103571Y-105700285D01*
X121031000Y-105772857D01*
X120994714Y-105881714D01*
X120994714Y-105954285D01*
X121031000Y-106063142D01*
X121067285Y-106099428D01*
X120994714Y-106643714D02*
X121539000Y-106643714D01*
X121647857Y-106607428D01*
X121720428Y-106534857D01*
X121756714Y-106426000D01*
X121756714Y-106353428D01*
X121756714Y-107369428D02*
X121756714Y-107006571D01*
X120994714Y-107006571D01*
X121684142Y-108058857D02*
X121720428Y-108022571D01*
X121756714Y-107913714D01*
X121756714Y-107841142D01*
X121720428Y-107732285D01*
X121647857Y-107659714D01*
X121575285Y-107623428D01*
X121430142Y-107587142D01*
X121321285Y-107587142D01*
X121176142Y-107623428D01*
X121103571Y-107659714D01*
X121031000Y-107732285D01*
X120994714Y-107841142D01*
X120994714Y-107913714D01*
X121031000Y-108022571D01*
X121067285Y-108058857D01*
X120994714Y-108603142D02*
X121539000Y-108603142D01*
X121647857Y-108566857D01*
X121720428Y-108494285D01*
X121756714Y-108385428D01*
X121756714Y-108312857D01*
X121756714Y-109328857D02*
X121756714Y-108966000D01*
X120994714Y-108966000D01*
X121684142Y-110018285D02*
X121720428Y-109982000D01*
X121756714Y-109873142D01*
X121756714Y-109800571D01*
X121720428Y-109691714D01*
X121647857Y-109619142D01*
X121575285Y-109582857D01*
X121430142Y-109546571D01*
X121321285Y-109546571D01*
X121176142Y-109582857D01*
X121103571Y-109619142D01*
X121031000Y-109691714D01*
X120994714Y-109800571D01*
X120994714Y-109873142D01*
X121031000Y-109982000D01*
X121067285Y-110018285D01*
X120994714Y-110562571D02*
X121539000Y-110562571D01*
X121647857Y-110526285D01*
X121720428Y-110453714D01*
X121756714Y-110344857D01*
X121756714Y-110272285D01*
X121756714Y-111288285D02*
X121756714Y-110925428D01*
X120994714Y-110925428D01*
X121684142Y-111977714D02*
X121720428Y-111941428D01*
X121756714Y-111832571D01*
X121756714Y-111760000D01*
X121720428Y-111651142D01*
X121647857Y-111578571D01*
X121575285Y-111542285D01*
X121430142Y-111506000D01*
X121321285Y-111506000D01*
X121176142Y-111542285D01*
X121103571Y-111578571D01*
X121031000Y-111651142D01*
X120994714Y-111760000D01*
X120994714Y-111832571D01*
X121031000Y-111941428D01*
X121067285Y-111977714D01*
D11*
X152694821Y-122096892D02*
X152694821Y-122867964D01*
X152740178Y-122958678D01*
X152785535Y-123004035D01*
X152876250Y-123049392D01*
X153012321Y-123049392D01*
X153103035Y-123004035D01*
X152694821Y-122686535D02*
X152785535Y-122731892D01*
X152966964Y-122731892D01*
X153057678Y-122686535D01*
X153103035Y-122641178D01*
X153148392Y-122550464D01*
X153148392Y-122278321D01*
X153103035Y-122187607D01*
X153057678Y-122142250D01*
X152966964Y-122096892D01*
X152785535Y-122096892D01*
X152694821Y-122142250D01*
X152241250Y-122731892D02*
X152241250Y-122096892D01*
X152241250Y-121779392D02*
X152286607Y-121824750D01*
X152241250Y-121870107D01*
X152195892Y-121824750D01*
X152241250Y-121779392D01*
X152241250Y-121870107D01*
X151923750Y-122096892D02*
X151560892Y-122096892D01*
X151787678Y-121779392D02*
X151787678Y-122595821D01*
X151742321Y-122686535D01*
X151651607Y-122731892D01*
X151560892Y-122731892D01*
X151243392Y-122731892D02*
X151243392Y-121779392D01*
X150835178Y-122731892D02*
X150835178Y-122232964D01*
X150880535Y-122142250D01*
X150971250Y-122096892D01*
X151107321Y-122096892D01*
X151198035Y-122142250D01*
X151243392Y-122187607D01*
X149973392Y-122096892D02*
X149973392Y-122731892D01*
X150381607Y-122096892D02*
X150381607Y-122595821D01*
X150336250Y-122686535D01*
X150245535Y-122731892D01*
X150109464Y-122731892D01*
X150018750Y-122686535D01*
X149973392Y-122641178D01*
X149519821Y-122731892D02*
X149519821Y-121779392D01*
X149519821Y-122142250D02*
X149429107Y-122096892D01*
X149247678Y-122096892D01*
X149156964Y-122142250D01*
X149111607Y-122187607D01*
X149066250Y-122278321D01*
X149066250Y-122550464D01*
X149111607Y-122641178D01*
X149156964Y-122686535D01*
X149247678Y-122731892D01*
X149429107Y-122731892D01*
X149519821Y-122686535D01*
X148658035Y-122641178D02*
X148612678Y-122686535D01*
X148658035Y-122731892D01*
X148703392Y-122686535D01*
X148658035Y-122641178D01*
X148658035Y-122731892D01*
X147796250Y-122686535D02*
X147886964Y-122731892D01*
X148068392Y-122731892D01*
X148159107Y-122686535D01*
X148204464Y-122641178D01*
X148249821Y-122550464D01*
X148249821Y-122278321D01*
X148204464Y-122187607D01*
X148159107Y-122142250D01*
X148068392Y-122096892D01*
X147886964Y-122096892D01*
X147796250Y-122142250D01*
X147251964Y-122731892D02*
X147342678Y-122686535D01*
X147388035Y-122641178D01*
X147433392Y-122550464D01*
X147433392Y-122278321D01*
X147388035Y-122187607D01*
X147342678Y-122142250D01*
X147251964Y-122096892D01*
X147115892Y-122096892D01*
X147025178Y-122142250D01*
X146979821Y-122187607D01*
X146934464Y-122278321D01*
X146934464Y-122550464D01*
X146979821Y-122641178D01*
X147025178Y-122686535D01*
X147115892Y-122731892D01*
X147251964Y-122731892D01*
X146526250Y-122731892D02*
X146526250Y-122096892D01*
X146526250Y-122187607D02*
X146480892Y-122142250D01*
X146390178Y-122096892D01*
X146254107Y-122096892D01*
X146163392Y-122142250D01*
X146118035Y-122232964D01*
X146118035Y-122731892D01*
X146118035Y-122232964D02*
X146072678Y-122142250D01*
X145981964Y-122096892D01*
X145845892Y-122096892D01*
X145755178Y-122142250D01*
X145709821Y-122232964D01*
X145709821Y-122731892D01*
X144575892Y-121734035D02*
X145392321Y-122958678D01*
X144258392Y-122731892D02*
X144258392Y-122096892D01*
X144258392Y-122187607D02*
X144213035Y-122142250D01*
X144122321Y-122096892D01*
X143986250Y-122096892D01*
X143895535Y-122142250D01*
X143850178Y-122232964D01*
X143850178Y-122731892D01*
X143850178Y-122232964D02*
X143804821Y-122142250D01*
X143714107Y-122096892D01*
X143578035Y-122096892D01*
X143487321Y-122142250D01*
X143441964Y-122232964D01*
X143441964Y-122731892D01*
X142625535Y-122686535D02*
X142716250Y-122731892D01*
X142897678Y-122731892D01*
X142988392Y-122686535D01*
X143033750Y-122595821D01*
X143033750Y-122232964D01*
X142988392Y-122142250D01*
X142897678Y-122096892D01*
X142716250Y-122096892D01*
X142625535Y-122142250D01*
X142580178Y-122232964D01*
X142580178Y-122323678D01*
X143033750Y-122414392D01*
X142171964Y-122096892D02*
X142171964Y-122731892D01*
X142171964Y-122187607D02*
X142126607Y-122142250D01*
X142035892Y-122096892D01*
X141899821Y-122096892D01*
X141809107Y-122142250D01*
X141763750Y-122232964D01*
X141763750Y-122731892D01*
X140947321Y-122686535D02*
X141038035Y-122731892D01*
X141219464Y-122731892D01*
X141310178Y-122686535D01*
X141355535Y-122595821D01*
X141355535Y-122232964D01*
X141310178Y-122142250D01*
X141219464Y-122096892D01*
X141038035Y-122096892D01*
X140947321Y-122142250D01*
X140901964Y-122232964D01*
X140901964Y-122323678D01*
X141355535Y-122414392D01*
X140493750Y-122731892D02*
X140493750Y-121779392D01*
X140085535Y-122731892D02*
X140085535Y-122232964D01*
X140130892Y-122142250D01*
X140221607Y-122096892D01*
X140357678Y-122096892D01*
X140448392Y-122142250D01*
X140493750Y-122187607D01*
X139223750Y-122096892D02*
X139223750Y-122731892D01*
X139631964Y-122096892D02*
X139631964Y-122595821D01*
X139586607Y-122686535D01*
X139495892Y-122731892D01*
X139359821Y-122731892D01*
X139269107Y-122686535D01*
X139223750Y-122641178D01*
X138770178Y-122096892D02*
X138770178Y-122731892D01*
X138770178Y-122187607D02*
X138724821Y-122142250D01*
X138634107Y-122096892D01*
X138498035Y-122096892D01*
X138407321Y-122142250D01*
X138361964Y-122232964D01*
X138361964Y-122731892D01*
X137545535Y-122686535D02*
X137636250Y-122731892D01*
X137817678Y-122731892D01*
X137908392Y-122686535D01*
X137953750Y-122595821D01*
X137953750Y-122232964D01*
X137908392Y-122142250D01*
X137817678Y-122096892D01*
X137636250Y-122096892D01*
X137545535Y-122142250D01*
X137500178Y-122232964D01*
X137500178Y-122323678D01*
X137953750Y-122414392D01*
X137137321Y-121870107D02*
X137091964Y-121824750D01*
X137001250Y-121779392D01*
X136774464Y-121779392D01*
X136683750Y-121824750D01*
X136638392Y-121870107D01*
X136593035Y-121960821D01*
X136593035Y-122051535D01*
X136638392Y-122187607D01*
X137182678Y-122731892D01*
X136593035Y-122731892D01*
X136275535Y-121779392D02*
X135685892Y-121779392D01*
X136003392Y-122142250D01*
X135867321Y-122142250D01*
X135776607Y-122187607D01*
X135731250Y-122232964D01*
X135685892Y-122323678D01*
X135685892Y-122550464D01*
X135731250Y-122641178D01*
X135776607Y-122686535D01*
X135867321Y-122731892D01*
X136139464Y-122731892D01*
X136230178Y-122686535D01*
X136275535Y-122641178D01*
X134597321Y-121734035D02*
X135413750Y-122958678D01*
X133871607Y-122731892D02*
X133871607Y-122232964D01*
X133916964Y-122142250D01*
X134007678Y-122096892D01*
X134189107Y-122096892D01*
X134279821Y-122142250D01*
X133871607Y-122686535D02*
X133962321Y-122731892D01*
X134189107Y-122731892D01*
X134279821Y-122686535D01*
X134325178Y-122595821D01*
X134325178Y-122505107D01*
X134279821Y-122414392D01*
X134189107Y-122369035D01*
X133962321Y-122369035D01*
X133871607Y-122323678D01*
X133418035Y-122731892D02*
X133418035Y-122096892D01*
X133418035Y-122278321D02*
X133372678Y-122187607D01*
X133327321Y-122142250D01*
X133236607Y-122096892D01*
X133145892Y-122096892D01*
X132420178Y-122731892D02*
X132420178Y-121779392D01*
X132420178Y-122686535D02*
X132510892Y-122731892D01*
X132692321Y-122731892D01*
X132783035Y-122686535D01*
X132828392Y-122641178D01*
X132873750Y-122550464D01*
X132873750Y-122278321D01*
X132828392Y-122187607D01*
X132783035Y-122142250D01*
X132692321Y-122096892D01*
X132510892Y-122096892D01*
X132420178Y-122142250D01*
X131558392Y-122096892D02*
X131558392Y-122731892D01*
X131966607Y-122096892D02*
X131966607Y-122595821D01*
X131921250Y-122686535D01*
X131830535Y-122731892D01*
X131694464Y-122731892D01*
X131603750Y-122686535D01*
X131558392Y-122641178D01*
X131104821Y-122731892D02*
X131104821Y-121779392D01*
X131104821Y-122142250D02*
X131014107Y-122096892D01*
X130832678Y-122096892D01*
X130741964Y-122142250D01*
X130696607Y-122187607D01*
X130651250Y-122278321D01*
X130651250Y-122550464D01*
X130696607Y-122641178D01*
X130741964Y-122686535D01*
X130832678Y-122731892D01*
X131014107Y-122731892D01*
X131104821Y-122686535D01*
X130106964Y-122731892D02*
X130197678Y-122686535D01*
X130243035Y-122641178D01*
X130288392Y-122550464D01*
X130288392Y-122278321D01*
X130243035Y-122187607D01*
X130197678Y-122142250D01*
X130106964Y-122096892D01*
X129970892Y-122096892D01*
X129880178Y-122142250D01*
X129834821Y-122187607D01*
X129789464Y-122278321D01*
X129789464Y-122550464D01*
X129834821Y-122641178D01*
X129880178Y-122686535D01*
X129970892Y-122731892D01*
X130106964Y-122731892D01*
X129471964Y-122096892D02*
X129245178Y-122731892D01*
X129018392Y-122096892D02*
X129245178Y-122731892D01*
X129335892Y-122958678D01*
X129381250Y-123004035D01*
X129471964Y-123049392D01*
X128655535Y-122369035D02*
X127929821Y-122369035D01*
X127068035Y-122686535D02*
X127158750Y-122731892D01*
X127340178Y-122731892D01*
X127430892Y-122686535D01*
X127476250Y-122641178D01*
X127521607Y-122550464D01*
X127521607Y-122278321D01*
X127476250Y-122187607D01*
X127430892Y-122142250D01*
X127340178Y-122096892D01*
X127158750Y-122096892D01*
X127068035Y-122142250D01*
X126296964Y-122686535D02*
X126387678Y-122731892D01*
X126569107Y-122731892D01*
X126659821Y-122686535D01*
X126705178Y-122595821D01*
X126705178Y-122232964D01*
X126659821Y-122142250D01*
X126569107Y-122096892D01*
X126387678Y-122096892D01*
X126296964Y-122142250D01*
X126251607Y-122232964D01*
X126251607Y-122323678D01*
X126705178Y-122414392D01*
X149156964Y-115080142D02*
X149156964Y-114127642D01*
X148930178Y-114127642D01*
X148794107Y-114173000D01*
X148703392Y-114263714D01*
X148658035Y-114354428D01*
X148612678Y-114535857D01*
X148612678Y-114671928D01*
X148658035Y-114853357D01*
X148703392Y-114944071D01*
X148794107Y-115034785D01*
X148930178Y-115080142D01*
X149156964Y-115080142D01*
X147841607Y-115034785D02*
X147932321Y-115080142D01*
X148113750Y-115080142D01*
X148204464Y-115034785D01*
X148249821Y-114944071D01*
X148249821Y-114581214D01*
X148204464Y-114490500D01*
X148113750Y-114445142D01*
X147932321Y-114445142D01*
X147841607Y-114490500D01*
X147796250Y-114581214D01*
X147796250Y-114671928D01*
X148249821Y-114762642D01*
X147433392Y-115034785D02*
X147342678Y-115080142D01*
X147161250Y-115080142D01*
X147070535Y-115034785D01*
X147025178Y-114944071D01*
X147025178Y-114898714D01*
X147070535Y-114808000D01*
X147161250Y-114762642D01*
X147297321Y-114762642D01*
X147388035Y-114717285D01*
X147433392Y-114626571D01*
X147433392Y-114581214D01*
X147388035Y-114490500D01*
X147297321Y-114445142D01*
X147161250Y-114445142D01*
X147070535Y-114490500D01*
X146616964Y-115080142D02*
X146616964Y-114445142D01*
X146616964Y-114127642D02*
X146662321Y-114173000D01*
X146616964Y-114218357D01*
X146571607Y-114173000D01*
X146616964Y-114127642D01*
X146616964Y-114218357D01*
X145755178Y-114445142D02*
X145755178Y-115216214D01*
X145800535Y-115306928D01*
X145845892Y-115352285D01*
X145936607Y-115397642D01*
X146072678Y-115397642D01*
X146163392Y-115352285D01*
X145755178Y-115034785D02*
X145845892Y-115080142D01*
X146027321Y-115080142D01*
X146118035Y-115034785D01*
X146163392Y-114989428D01*
X146208750Y-114898714D01*
X146208750Y-114626571D01*
X146163392Y-114535857D01*
X146118035Y-114490500D01*
X146027321Y-114445142D01*
X145845892Y-114445142D01*
X145755178Y-114490500D01*
X145301607Y-114445142D02*
X145301607Y-115080142D01*
X145301607Y-114535857D02*
X145256250Y-114490500D01*
X145165535Y-114445142D01*
X145029464Y-114445142D01*
X144938750Y-114490500D01*
X144893392Y-114581214D01*
X144893392Y-115080142D01*
X144076964Y-115034785D02*
X144167678Y-115080142D01*
X144349107Y-115080142D01*
X144439821Y-115034785D01*
X144485178Y-114944071D01*
X144485178Y-114581214D01*
X144439821Y-114490500D01*
X144349107Y-114445142D01*
X144167678Y-114445142D01*
X144076964Y-114490500D01*
X144031607Y-114581214D01*
X144031607Y-114671928D01*
X144485178Y-114762642D01*
X143215178Y-115080142D02*
X143215178Y-114127642D01*
X143215178Y-115034785D02*
X143305892Y-115080142D01*
X143487321Y-115080142D01*
X143578035Y-115034785D01*
X143623392Y-114989428D01*
X143668750Y-114898714D01*
X143668750Y-114626571D01*
X143623392Y-114535857D01*
X143578035Y-114490500D01*
X143487321Y-114445142D01*
X143305892Y-114445142D01*
X143215178Y-114490500D01*
X142035892Y-115080142D02*
X142035892Y-114127642D01*
X142035892Y-114490500D02*
X141945178Y-114445142D01*
X141763750Y-114445142D01*
X141673035Y-114490500D01*
X141627678Y-114535857D01*
X141582321Y-114626571D01*
X141582321Y-114898714D01*
X141627678Y-114989428D01*
X141673035Y-115034785D01*
X141763750Y-115080142D01*
X141945178Y-115080142D01*
X142035892Y-115034785D01*
X141264821Y-114445142D02*
X141038035Y-115080142D01*
X140811250Y-114445142D02*
X141038035Y-115080142D01*
X141128750Y-115306928D01*
X141174107Y-115352285D01*
X141264821Y-115397642D01*
X139450535Y-114127642D02*
X139450535Y-114808000D01*
X139495892Y-114944071D01*
X139586607Y-115034785D01*
X139722678Y-115080142D01*
X139813392Y-115080142D01*
X138860892Y-115080142D02*
X138951607Y-115034785D01*
X138996964Y-114989428D01*
X139042321Y-114898714D01*
X139042321Y-114626571D01*
X138996964Y-114535857D01*
X138951607Y-114490500D01*
X138860892Y-114445142D01*
X138724821Y-114445142D01*
X138634107Y-114490500D01*
X138588750Y-114535857D01*
X138543392Y-114626571D01*
X138543392Y-114898714D01*
X138588750Y-114989428D01*
X138634107Y-115034785D01*
X138724821Y-115080142D01*
X138860892Y-115080142D01*
X138135178Y-115080142D02*
X138135178Y-114127642D01*
X137726964Y-115080142D02*
X137726964Y-114581214D01*
X137772321Y-114490500D01*
X137863035Y-114445142D01*
X137999107Y-114445142D01*
X138089821Y-114490500D01*
X138135178Y-114535857D01*
X137273392Y-114445142D02*
X137273392Y-115080142D01*
X137273392Y-114535857D02*
X137228035Y-114490500D01*
X137137321Y-114445142D01*
X137001250Y-114445142D01*
X136910535Y-114490500D01*
X136865178Y-114581214D01*
X136865178Y-115080142D01*
X136366250Y-115034785D02*
X136366250Y-115080142D01*
X136411607Y-115170857D01*
X136456964Y-115216214D01*
X135232321Y-115080142D02*
X135232321Y-114127642D01*
X134688035Y-115080142D01*
X134688035Y-114127642D01*
X133826250Y-115080142D02*
X133826250Y-114581214D01*
X133871607Y-114490500D01*
X133962321Y-114445142D01*
X134143750Y-114445142D01*
X134234464Y-114490500D01*
X133826250Y-115034785D02*
X133916964Y-115080142D01*
X134143750Y-115080142D01*
X134234464Y-115034785D01*
X134279821Y-114944071D01*
X134279821Y-114853357D01*
X134234464Y-114762642D01*
X134143750Y-114717285D01*
X133916964Y-114717285D01*
X133826250Y-114671928D01*
X133508750Y-114445142D02*
X133145892Y-114445142D01*
X133372678Y-114127642D02*
X133372678Y-114944071D01*
X133327321Y-115034785D01*
X133236607Y-115080142D01*
X133145892Y-115080142D01*
X132828392Y-115080142D02*
X132828392Y-114127642D01*
X132420178Y-115080142D02*
X132420178Y-114581214D01*
X132465535Y-114490500D01*
X132556250Y-114445142D01*
X132692321Y-114445142D01*
X132783035Y-114490500D01*
X132828392Y-114535857D01*
X131558392Y-115080142D02*
X131558392Y-114581214D01*
X131603750Y-114490500D01*
X131694464Y-114445142D01*
X131875892Y-114445142D01*
X131966607Y-114490500D01*
X131558392Y-115034785D02*
X131649107Y-115080142D01*
X131875892Y-115080142D01*
X131966607Y-115034785D01*
X132011964Y-114944071D01*
X132011964Y-114853357D01*
X131966607Y-114762642D01*
X131875892Y-114717285D01*
X131649107Y-114717285D01*
X131558392Y-114671928D01*
X131104821Y-114445142D02*
X131104821Y-115080142D01*
X131104821Y-114535857D02*
X131059464Y-114490500D01*
X130968750Y-114445142D01*
X130832678Y-114445142D01*
X130741964Y-114490500D01*
X130696607Y-114581214D01*
X130696607Y-115080142D01*
X130197678Y-115034785D02*
X130197678Y-115080142D01*
X130243035Y-115170857D01*
X130288392Y-115216214D01*
X145573750Y-116667642D02*
X145573750Y-116168714D01*
X145619107Y-116078000D01*
X145709821Y-116032642D01*
X145891250Y-116032642D01*
X145981964Y-116078000D01*
X145573750Y-116622285D02*
X145664464Y-116667642D01*
X145891250Y-116667642D01*
X145981964Y-116622285D01*
X146027321Y-116531571D01*
X146027321Y-116440857D01*
X145981964Y-116350142D01*
X145891250Y-116304785D01*
X145664464Y-116304785D01*
X145573750Y-116259428D01*
X145120178Y-116032642D02*
X145120178Y-116667642D01*
X145120178Y-116123357D02*
X145074821Y-116078000D01*
X144984107Y-116032642D01*
X144848035Y-116032642D01*
X144757321Y-116078000D01*
X144711964Y-116168714D01*
X144711964Y-116667642D01*
X143850178Y-116667642D02*
X143850178Y-115715142D01*
X143850178Y-116622285D02*
X143940892Y-116667642D01*
X144122321Y-116667642D01*
X144213035Y-116622285D01*
X144258392Y-116576928D01*
X144303750Y-116486214D01*
X144303750Y-116214071D01*
X144258392Y-116123357D01*
X144213035Y-116078000D01*
X144122321Y-116032642D01*
X143940892Y-116032642D01*
X143850178Y-116078000D01*
X142716250Y-116395500D02*
X142262678Y-116395500D01*
X142806964Y-116667642D02*
X142489464Y-115715142D01*
X142171964Y-116667642D01*
X141854464Y-116032642D02*
X141854464Y-116667642D01*
X141854464Y-116123357D02*
X141809107Y-116078000D01*
X141718392Y-116032642D01*
X141582321Y-116032642D01*
X141491607Y-116078000D01*
X141446250Y-116168714D01*
X141446250Y-116667642D01*
X140584464Y-116667642D02*
X140584464Y-115715142D01*
X140584464Y-116622285D02*
X140675178Y-116667642D01*
X140856607Y-116667642D01*
X140947321Y-116622285D01*
X140992678Y-116576928D01*
X141038035Y-116486214D01*
X141038035Y-116214071D01*
X140992678Y-116123357D01*
X140947321Y-116078000D01*
X140856607Y-116032642D01*
X140675178Y-116032642D01*
X140584464Y-116078000D01*
X140130892Y-116667642D02*
X140130892Y-116032642D01*
X140130892Y-116214071D02*
X140085535Y-116123357D01*
X140040178Y-116078000D01*
X139949464Y-116032642D01*
X139858750Y-116032642D01*
X139178392Y-116622285D02*
X139269107Y-116667642D01*
X139450535Y-116667642D01*
X139541250Y-116622285D01*
X139586607Y-116531571D01*
X139586607Y-116168714D01*
X139541250Y-116078000D01*
X139450535Y-116032642D01*
X139269107Y-116032642D01*
X139178392Y-116078000D01*
X139133035Y-116168714D01*
X139133035Y-116259428D01*
X139586607Y-116350142D01*
X138815535Y-116032642D02*
X138634107Y-116667642D01*
X138452678Y-116214071D01*
X138271250Y-116667642D01*
X138089821Y-116032642D01*
X137001250Y-116667642D02*
X137001250Y-115715142D01*
X136683750Y-116395500D01*
X136366250Y-115715142D01*
X136366250Y-116667642D01*
X135549821Y-116622285D02*
X135640535Y-116667642D01*
X135821964Y-116667642D01*
X135912678Y-116622285D01*
X135958035Y-116531571D01*
X135958035Y-116168714D01*
X135912678Y-116078000D01*
X135821964Y-116032642D01*
X135640535Y-116032642D01*
X135549821Y-116078000D01*
X135504464Y-116168714D01*
X135504464Y-116259428D01*
X135958035Y-116350142D01*
X135186964Y-116032642D02*
X134960178Y-116667642D01*
X134733392Y-116032642D02*
X134960178Y-116667642D01*
X135050892Y-116894428D01*
X135096250Y-116939785D01*
X135186964Y-116985142D01*
X134007678Y-116622285D02*
X134098392Y-116667642D01*
X134279821Y-116667642D01*
X134370535Y-116622285D01*
X134415892Y-116531571D01*
X134415892Y-116168714D01*
X134370535Y-116078000D01*
X134279821Y-116032642D01*
X134098392Y-116032642D01*
X134007678Y-116078000D01*
X133962321Y-116168714D01*
X133962321Y-116259428D01*
X134415892Y-116350142D01*
X133554107Y-116667642D02*
X133554107Y-116032642D01*
X133554107Y-116214071D02*
X133508750Y-116123357D01*
X133463392Y-116078000D01*
X133372678Y-116032642D01*
X133281964Y-116032642D01*
D12*
X144870714Y-109368166D02*
X144265952Y-109368166D01*
X144991666Y-109731023D02*
X144568333Y-108461023D01*
X144145000Y-109731023D01*
X143721666Y-109731023D02*
X143721666Y-108884357D01*
X143721666Y-109126261D02*
X143661190Y-109005309D01*
X143600714Y-108944833D01*
X143479761Y-108884357D01*
X143358809Y-108884357D01*
X142391190Y-109731023D02*
X142391190Y-108461023D01*
X142391190Y-109670547D02*
X142512142Y-109731023D01*
X142754047Y-109731023D01*
X142875000Y-109670547D01*
X142935476Y-109610071D01*
X142995952Y-109489119D01*
X142995952Y-109126261D01*
X142935476Y-109005309D01*
X142875000Y-108944833D01*
X142754047Y-108884357D01*
X142512142Y-108884357D01*
X142391190Y-108944833D01*
X141242142Y-108884357D02*
X141242142Y-109731023D01*
X141786428Y-108884357D02*
X141786428Y-109549595D01*
X141725952Y-109670547D01*
X141605000Y-109731023D01*
X141423571Y-109731023D01*
X141302619Y-109670547D01*
X141242142Y-109610071D01*
X140637380Y-109731023D02*
X140637380Y-108461023D01*
X140637380Y-108944833D02*
X140516428Y-108884357D01*
X140274523Y-108884357D01*
X140153571Y-108944833D01*
X140093095Y-109005309D01*
X140032619Y-109126261D01*
X140032619Y-109489119D01*
X140093095Y-109610071D01*
X140153571Y-109670547D01*
X140274523Y-109731023D01*
X140516428Y-109731023D01*
X140637380Y-109670547D01*
X139306904Y-109731023D02*
X139427857Y-109670547D01*
X139488333Y-109610071D01*
X139548809Y-109489119D01*
X139548809Y-109126261D01*
X139488333Y-109005309D01*
X139427857Y-108944833D01*
X139306904Y-108884357D01*
X139125476Y-108884357D01*
X139004523Y-108944833D01*
X138944047Y-109005309D01*
X138883571Y-109126261D01*
X138883571Y-109489119D01*
X138944047Y-109610071D01*
X139004523Y-109670547D01*
X139125476Y-109731023D01*
X139306904Y-109731023D01*
X138460238Y-108884357D02*
X138157857Y-109731023D01*
X137855476Y-108884357D02*
X138157857Y-109731023D01*
X138278809Y-110033404D01*
X138339285Y-110093880D01*
X138460238Y-110154357D01*
X135678333Y-109610071D02*
X135738809Y-109670547D01*
X135920238Y-109731023D01*
X136041190Y-109731023D01*
X136222619Y-109670547D01*
X136343571Y-109549595D01*
X136404047Y-109428642D01*
X136464523Y-109186738D01*
X136464523Y-109005309D01*
X136404047Y-108763404D01*
X136343571Y-108642452D01*
X136222619Y-108521500D01*
X136041190Y-108461023D01*
X135920238Y-108461023D01*
X135738809Y-108521500D01*
X135678333Y-108581976D01*
X135134047Y-109065785D02*
X134710714Y-109065785D01*
X134529285Y-109731023D02*
X135134047Y-109731023D01*
X135134047Y-108461023D01*
X134529285Y-108461023D01*
X140637380Y-111769071D02*
X140697857Y-111829547D01*
X140879285Y-111890023D01*
X141000238Y-111890023D01*
X141181666Y-111829547D01*
X141302619Y-111708595D01*
X141363095Y-111587642D01*
X141423571Y-111345738D01*
X141423571Y-111164309D01*
X141363095Y-110922404D01*
X141302619Y-110801452D01*
X141181666Y-110680500D01*
X141000238Y-110620023D01*
X140879285Y-110620023D01*
X140697857Y-110680500D01*
X140637380Y-110740976D01*
X139548809Y-111890023D02*
X139548809Y-111224785D01*
X139609285Y-111103833D01*
X139730238Y-111043357D01*
X139972142Y-111043357D01*
X140093095Y-111103833D01*
X139548809Y-111829547D02*
X139669761Y-111890023D01*
X139972142Y-111890023D01*
X140093095Y-111829547D01*
X140153571Y-111708595D01*
X140153571Y-111587642D01*
X140093095Y-111466690D01*
X139972142Y-111406214D01*
X139669761Y-111406214D01*
X139548809Y-111345738D01*
X138944047Y-111890023D02*
X138944047Y-111043357D01*
X138944047Y-111285261D02*
X138883571Y-111164309D01*
X138823095Y-111103833D01*
X138702142Y-111043357D01*
X138581190Y-111043357D01*
X138339285Y-111043357D02*
X137855476Y-111043357D01*
X138157857Y-110620023D02*
X138157857Y-111708595D01*
X138097380Y-111829547D01*
X137976428Y-111890023D01*
X137855476Y-111890023D01*
M02*
