G04 #@! TF.GenerationSoftware,KiCad,Pcbnew,(5.1.9-0-10_14)*
G04 #@! TF.CreationDate,2021-04-12T21:42:41-07:00*
G04 #@! TF.ProjectId,cart,63617274-2e6b-4696-9361-645f70636258,1.0-dev3*
G04 #@! TF.SameCoordinates,Original*
G04 #@! TF.FileFunction,Copper,L1,Top*
G04 #@! TF.FilePolarity,Positive*
%FSLAX46Y46*%
G04 Gerber Fmt 4.6, Leading zero omitted, Abs format (unit mm)*
G04 Created by KiCad (PCBNEW (5.1.9-0-10_14)) date 2021-04-12 21:42:41*
%MOMM*%
%LPD*%
G01*
G04 APERTURE LIST*
G04 #@! TA.AperFunction,NonConductor*
%ADD10C,0.200000*%
G04 #@! TD*
G04 #@! TA.AperFunction,ConnectorPad*
%ADD11R,1.600000X4.000000*%
G04 #@! TD*
G04 #@! TA.AperFunction,ComponentPad*
%ADD12C,1.600000*%
G04 #@! TD*
G04 #@! TA.AperFunction,ViaPad*
%ADD13C,0.600000*%
G04 #@! TD*
G04 #@! TA.AperFunction,Conductor*
%ADD14C,0.508000*%
G04 #@! TD*
G04 #@! TA.AperFunction,Conductor*
%ADD15C,0.254000*%
G04 #@! TD*
G04 #@! TA.AperFunction,Conductor*
%ADD16C,0.100000*%
G04 #@! TD*
G04 APERTURE END LIST*
D10*
G36*
X124968000Y-99532500D02*
G01*
X119316500Y-99532500D01*
X119316500Y-99024500D01*
X124968000Y-99024500D01*
X124968000Y-99532500D01*
G37*
X124968000Y-99532500D02*
X119316500Y-99532500D01*
X119316500Y-99024500D01*
X124968000Y-99024500D01*
X124968000Y-99532500D01*
G36*
X124968000Y-98389500D02*
G01*
X119316500Y-98389500D01*
X119316500Y-97881500D01*
X124968000Y-97881500D01*
X124968000Y-98389500D01*
G37*
X124968000Y-98389500D02*
X119316500Y-98389500D01*
X119316500Y-97881500D01*
X124968000Y-97881500D01*
X124968000Y-98389500D01*
G36*
X124968000Y-100675500D02*
G01*
X119316500Y-100675500D01*
X119316500Y-100167500D01*
X124968000Y-100167500D01*
X124968000Y-100675500D01*
G37*
X124968000Y-100675500D02*
X119316500Y-100675500D01*
X119316500Y-100167500D01*
X124968000Y-100167500D01*
X124968000Y-100675500D01*
G36*
X124968000Y-101818500D02*
G01*
X119316500Y-101818500D01*
X119316500Y-101310500D01*
X124968000Y-101310500D01*
X124968000Y-101818500D01*
G37*
X124968000Y-101818500D02*
X119316500Y-101818500D01*
X119316500Y-101310500D01*
X124968000Y-101310500D01*
X124968000Y-101818500D01*
G36*
X160147000Y-101818500D02*
G01*
X154495500Y-101818500D01*
X154495500Y-101310500D01*
X160147000Y-101310500D01*
X160147000Y-101818500D01*
G37*
X160147000Y-101818500D02*
X154495500Y-101818500D01*
X154495500Y-101310500D01*
X160147000Y-101310500D01*
X160147000Y-101818500D01*
G36*
X160147000Y-100675500D02*
G01*
X154495500Y-100675500D01*
X154495500Y-100167500D01*
X160147000Y-100167500D01*
X160147000Y-100675500D01*
G37*
X160147000Y-100675500D02*
X154495500Y-100675500D01*
X154495500Y-100167500D01*
X160147000Y-100167500D01*
X160147000Y-100675500D01*
G36*
X160147000Y-98389500D02*
G01*
X154495500Y-98389500D01*
X154495500Y-97881500D01*
X160147000Y-97881500D01*
X160147000Y-98389500D01*
G37*
X160147000Y-98389500D02*
X154495500Y-98389500D01*
X154495500Y-97881500D01*
X160147000Y-97881500D01*
X160147000Y-98389500D01*
G36*
X160147000Y-99532500D02*
G01*
X154495500Y-99532500D01*
X154495500Y-99024500D01*
X160147000Y-99024500D01*
X160147000Y-99532500D01*
G37*
X160147000Y-99532500D02*
X154495500Y-99532500D01*
X154495500Y-99024500D01*
X160147000Y-99024500D01*
X160147000Y-99532500D01*
D11*
X125730000Y-126619000D03*
X123190000Y-126619000D03*
X128270000Y-126619000D03*
X133350000Y-126619000D03*
X135890000Y-126619000D03*
X138430000Y-126619000D03*
X140970000Y-126619000D03*
X143510000Y-126619000D03*
X146050000Y-126619000D03*
X148590000Y-126619000D03*
X151130000Y-126619000D03*
X153670000Y-126619000D03*
X156210000Y-126619000D03*
D12*
X127000000Y-104140000D03*
X129540000Y-104140000D03*
X132080000Y-104140000D03*
X134620000Y-104140000D03*
X137160000Y-104140000D03*
X139700000Y-104140000D03*
X142240000Y-104140000D03*
X144780000Y-104140000D03*
X147320000Y-104140000D03*
X149860000Y-104140000D03*
X152400000Y-104140000D03*
X154940000Y-104140000D03*
X154940000Y-119380000D03*
X152400000Y-119380000D03*
X149860000Y-119380000D03*
X147320000Y-119380000D03*
X144780000Y-119380000D03*
X142240000Y-119380000D03*
X139700000Y-119380000D03*
X137160000Y-119380000D03*
X134620000Y-119380000D03*
X132080000Y-119380000D03*
X129540000Y-119380000D03*
X127000000Y-119380000D03*
D13*
X134620000Y-111760000D03*
X137160000Y-111760000D03*
X139700000Y-111760000D03*
X142240000Y-111760000D03*
X144780000Y-111760000D03*
X147320000Y-111760000D03*
X149860000Y-111760000D03*
X152400000Y-111760000D03*
X154940000Y-111760000D03*
X158115000Y-117475000D03*
X125095000Y-111760000D03*
D14*
X128270000Y-126619000D02*
X128270000Y-123190000D01*
D15*
X125730000Y-123190000D02*
X125730000Y-126619000D01*
X129540000Y-119380000D02*
X125730000Y-123190000D01*
X123190000Y-123190000D02*
X123190000Y-126619000D01*
X127000000Y-119380000D02*
X123190000Y-123190000D01*
X133350000Y-123190000D02*
X133350000Y-126619000D01*
X137160000Y-119380000D02*
X133350000Y-123190000D01*
X135890000Y-123190000D02*
X135890000Y-126619000D01*
X139700000Y-119380000D02*
X135890000Y-123190000D01*
X138430000Y-123190000D02*
X138430000Y-126619000D01*
X142240000Y-119380000D02*
X138430000Y-123190000D01*
X140970000Y-123190000D02*
X140970000Y-126619000D01*
X144780000Y-119380000D02*
X140970000Y-123190000D01*
X143510000Y-123190000D02*
X143510000Y-126619000D01*
X147320000Y-119380000D02*
X143510000Y-123190000D01*
X146050000Y-123190000D02*
X146050000Y-126619000D01*
X149860000Y-119380000D02*
X146050000Y-123190000D01*
X148590000Y-123190000D02*
X148590000Y-126619000D01*
X152400000Y-119380000D02*
X148590000Y-123190000D01*
X151130000Y-123190000D02*
X151130000Y-126619000D01*
X154940000Y-119380000D02*
X151130000Y-123190000D01*
X123940111Y-102436786D02*
X123985996Y-102467272D01*
X124031479Y-102498415D01*
X124038946Y-102502452D01*
X124476642Y-102735179D01*
X124527574Y-102756172D01*
X124578240Y-102777887D01*
X124586346Y-102780396D01*
X124586352Y-102780398D01*
X125060914Y-102923676D01*
X125114973Y-102934380D01*
X125168872Y-102945837D01*
X125177305Y-102946723D01*
X125177315Y-102946725D01*
X125177324Y-102946725D01*
X125670670Y-102995098D01*
X125670674Y-102995098D01*
X125700139Y-102998000D01*
X126354786Y-102998000D01*
X126166199Y-103124010D01*
X125984010Y-103306199D01*
X125840865Y-103520430D01*
X125742266Y-103758470D01*
X125692000Y-104011173D01*
X125692000Y-104268827D01*
X125742266Y-104521530D01*
X125840865Y-104759570D01*
X125984010Y-104973801D01*
X126166199Y-105155990D01*
X126380430Y-105299135D01*
X126618470Y-105397734D01*
X126871173Y-105448000D01*
X127128827Y-105448000D01*
X127381530Y-105397734D01*
X127619570Y-105299135D01*
X127833801Y-105155990D01*
X127857089Y-105132702D01*
X128726903Y-105132702D01*
X128798486Y-105376671D01*
X129053996Y-105497571D01*
X129328184Y-105566300D01*
X129610512Y-105580217D01*
X129890130Y-105538787D01*
X130156292Y-105443603D01*
X130281514Y-105376671D01*
X130353097Y-105132702D01*
X129540000Y-104319605D01*
X128726903Y-105132702D01*
X127857089Y-105132702D01*
X128015990Y-104973801D01*
X128159135Y-104759570D01*
X128201228Y-104657949D01*
X128236397Y-104756292D01*
X128303329Y-104881514D01*
X128547298Y-104953097D01*
X129360395Y-104140000D01*
X128547298Y-103326903D01*
X128303329Y-103398486D01*
X128199508Y-103617900D01*
X128159135Y-103520430D01*
X128015990Y-103306199D01*
X127833801Y-103124010D01*
X127645214Y-102998000D01*
X128770709Y-102998000D01*
X128726903Y-103147298D01*
X129540000Y-103960395D01*
X130353097Y-103147298D01*
X130309291Y-102998000D01*
X131434786Y-102998000D01*
X131246199Y-103124010D01*
X131064010Y-103306199D01*
X130920865Y-103520430D01*
X130878772Y-103622051D01*
X130843603Y-103523708D01*
X130776671Y-103398486D01*
X130532702Y-103326903D01*
X129719605Y-104140000D01*
X130532702Y-104953097D01*
X130776671Y-104881514D01*
X130880492Y-104662100D01*
X130920865Y-104759570D01*
X131064010Y-104973801D01*
X131246199Y-105155990D01*
X131460430Y-105299135D01*
X131698470Y-105397734D01*
X131951173Y-105448000D01*
X132208827Y-105448000D01*
X132461530Y-105397734D01*
X132699570Y-105299135D01*
X132913801Y-105155990D01*
X133095990Y-104973801D01*
X133239135Y-104759570D01*
X133337734Y-104521530D01*
X133350000Y-104459865D01*
X133362266Y-104521530D01*
X133460865Y-104759570D01*
X133604010Y-104973801D01*
X133786199Y-105155990D01*
X134000430Y-105299135D01*
X134238470Y-105397734D01*
X134491173Y-105448000D01*
X134748827Y-105448000D01*
X135001530Y-105397734D01*
X135239570Y-105299135D01*
X135453801Y-105155990D01*
X135635990Y-104973801D01*
X135779135Y-104759570D01*
X135877734Y-104521530D01*
X135890000Y-104459865D01*
X135902266Y-104521530D01*
X136000865Y-104759570D01*
X136144010Y-104973801D01*
X136326199Y-105155990D01*
X136540430Y-105299135D01*
X136778470Y-105397734D01*
X137031173Y-105448000D01*
X137288827Y-105448000D01*
X137541530Y-105397734D01*
X137779570Y-105299135D01*
X137993801Y-105155990D01*
X138175990Y-104973801D01*
X138319135Y-104759570D01*
X138417734Y-104521530D01*
X138430000Y-104459865D01*
X138442266Y-104521530D01*
X138540865Y-104759570D01*
X138684010Y-104973801D01*
X138866199Y-105155990D01*
X139080430Y-105299135D01*
X139318470Y-105397734D01*
X139571173Y-105448000D01*
X139828827Y-105448000D01*
X140081530Y-105397734D01*
X140319570Y-105299135D01*
X140533801Y-105155990D01*
X140715990Y-104973801D01*
X140859135Y-104759570D01*
X140957734Y-104521530D01*
X140970000Y-104459865D01*
X140982266Y-104521530D01*
X141080865Y-104759570D01*
X141224010Y-104973801D01*
X141406199Y-105155990D01*
X141620430Y-105299135D01*
X141858470Y-105397734D01*
X142111173Y-105448000D01*
X142368827Y-105448000D01*
X142621530Y-105397734D01*
X142859570Y-105299135D01*
X143073801Y-105155990D01*
X143255990Y-104973801D01*
X143399135Y-104759570D01*
X143497734Y-104521530D01*
X143510000Y-104459865D01*
X143522266Y-104521530D01*
X143620865Y-104759570D01*
X143764010Y-104973801D01*
X143946199Y-105155990D01*
X144160430Y-105299135D01*
X144398470Y-105397734D01*
X144651173Y-105448000D01*
X144908827Y-105448000D01*
X145161530Y-105397734D01*
X145399570Y-105299135D01*
X145613801Y-105155990D01*
X145795990Y-104973801D01*
X145939135Y-104759570D01*
X146037734Y-104521530D01*
X146050000Y-104459865D01*
X146062266Y-104521530D01*
X146160865Y-104759570D01*
X146304010Y-104973801D01*
X146486199Y-105155990D01*
X146700430Y-105299135D01*
X146938470Y-105397734D01*
X147191173Y-105448000D01*
X147448827Y-105448000D01*
X147701530Y-105397734D01*
X147939570Y-105299135D01*
X148153801Y-105155990D01*
X148335990Y-104973801D01*
X148479135Y-104759570D01*
X148577734Y-104521530D01*
X148590000Y-104459865D01*
X148602266Y-104521530D01*
X148700865Y-104759570D01*
X148844010Y-104973801D01*
X149026199Y-105155990D01*
X149240430Y-105299135D01*
X149478470Y-105397734D01*
X149731173Y-105448000D01*
X149988827Y-105448000D01*
X150241530Y-105397734D01*
X150479570Y-105299135D01*
X150693801Y-105155990D01*
X150875990Y-104973801D01*
X151019135Y-104759570D01*
X151117734Y-104521530D01*
X151130000Y-104459865D01*
X151142266Y-104521530D01*
X151240865Y-104759570D01*
X151384010Y-104973801D01*
X151566199Y-105155990D01*
X151780430Y-105299135D01*
X152018470Y-105397734D01*
X152271173Y-105448000D01*
X152528827Y-105448000D01*
X152781530Y-105397734D01*
X153019570Y-105299135D01*
X153233801Y-105155990D01*
X153415990Y-104973801D01*
X153559135Y-104759570D01*
X153657734Y-104521530D01*
X153670000Y-104459865D01*
X153682266Y-104521530D01*
X153780865Y-104759570D01*
X153924010Y-104973801D01*
X154106199Y-105155990D01*
X154320430Y-105299135D01*
X154558470Y-105397734D01*
X154811173Y-105448000D01*
X155068827Y-105448000D01*
X155321530Y-105397734D01*
X155559570Y-105299135D01*
X155773801Y-105155990D01*
X155955990Y-104973801D01*
X156099135Y-104759570D01*
X156197734Y-104521530D01*
X156248000Y-104268827D01*
X156248000Y-104011173D01*
X156197734Y-103758470D01*
X156099135Y-103520430D01*
X155955990Y-103306199D01*
X155773801Y-103124010D01*
X155559570Y-102980865D01*
X155321530Y-102882266D01*
X155068827Y-102832000D01*
X154811173Y-102832000D01*
X154558470Y-102882266D01*
X154320430Y-102980865D01*
X154106199Y-103124010D01*
X153924010Y-103306199D01*
X153780865Y-103520430D01*
X153682266Y-103758470D01*
X153670000Y-103820135D01*
X153657734Y-103758470D01*
X153559135Y-103520430D01*
X153415990Y-103306199D01*
X153233801Y-103124010D01*
X153045214Y-102998000D01*
X153699861Y-102998000D01*
X153701982Y-102997791D01*
X153709716Y-102997737D01*
X153737175Y-102994851D01*
X153764794Y-102994851D01*
X153773236Y-102993963D01*
X154265868Y-102938706D01*
X154319771Y-102927248D01*
X154373828Y-102916545D01*
X154381937Y-102914035D01*
X154854453Y-102764144D01*
X154905119Y-102742429D01*
X154956051Y-102721436D01*
X154963514Y-102717401D01*
X154963518Y-102717399D01*
X154963521Y-102717397D01*
X155397923Y-102478582D01*
X155443380Y-102447457D01*
X155474923Y-102426500D01*
X159142000Y-102426500D01*
X159142001Y-119840896D01*
X158420334Y-120390807D01*
X158410579Y-120396021D01*
X158372756Y-120427062D01*
X158357746Y-120438499D01*
X158349713Y-120445972D01*
X158317999Y-120471999D01*
X158305935Y-120486699D01*
X158292027Y-120499638D01*
X158268040Y-120532875D01*
X158242021Y-120564580D01*
X158233060Y-120581344D01*
X158221940Y-120596753D01*
X158204895Y-120634038D01*
X158185564Y-120670204D01*
X158180046Y-120688393D01*
X158172145Y-120705677D01*
X158162701Y-120745575D01*
X158150798Y-120784812D01*
X158148935Y-120803726D01*
X158144557Y-120822221D01*
X158143078Y-120863199D01*
X158142000Y-120874140D01*
X158142000Y-120893046D01*
X158140236Y-120941907D01*
X158142000Y-120952819D01*
X158142000Y-123888500D01*
X151765000Y-123888500D01*
X151765000Y-123453024D01*
X154576671Y-120641354D01*
X154811173Y-120688000D01*
X155068827Y-120688000D01*
X155321530Y-120637734D01*
X155559570Y-120539135D01*
X155773801Y-120395990D01*
X155955990Y-120213801D01*
X156099135Y-119999570D01*
X156197734Y-119761530D01*
X156248000Y-119508827D01*
X156248000Y-119251173D01*
X156197734Y-118998470D01*
X156099135Y-118760430D01*
X155955990Y-118546199D01*
X155773801Y-118364010D01*
X155559570Y-118220865D01*
X155321530Y-118122266D01*
X155068827Y-118072000D01*
X154811173Y-118072000D01*
X154558470Y-118122266D01*
X154320430Y-118220865D01*
X154106199Y-118364010D01*
X153924010Y-118546199D01*
X153780865Y-118760430D01*
X153682266Y-118998470D01*
X153670000Y-119060135D01*
X153657734Y-118998470D01*
X153559135Y-118760430D01*
X153415990Y-118546199D01*
X153233801Y-118364010D01*
X153019570Y-118220865D01*
X152781530Y-118122266D01*
X152528827Y-118072000D01*
X152271173Y-118072000D01*
X152018470Y-118122266D01*
X151780430Y-118220865D01*
X151566199Y-118364010D01*
X151384010Y-118546199D01*
X151240865Y-118760430D01*
X151142266Y-118998470D01*
X151130000Y-119060135D01*
X151117734Y-118998470D01*
X151019135Y-118760430D01*
X150875990Y-118546199D01*
X150693801Y-118364010D01*
X150479570Y-118220865D01*
X150241530Y-118122266D01*
X149988827Y-118072000D01*
X149731173Y-118072000D01*
X149478470Y-118122266D01*
X149240430Y-118220865D01*
X149026199Y-118364010D01*
X148844010Y-118546199D01*
X148700865Y-118760430D01*
X148602266Y-118998470D01*
X148590000Y-119060135D01*
X148577734Y-118998470D01*
X148479135Y-118760430D01*
X148335990Y-118546199D01*
X148153801Y-118364010D01*
X147939570Y-118220865D01*
X147701530Y-118122266D01*
X147448827Y-118072000D01*
X147191173Y-118072000D01*
X146938470Y-118122266D01*
X146700430Y-118220865D01*
X146486199Y-118364010D01*
X146304010Y-118546199D01*
X146160865Y-118760430D01*
X146062266Y-118998470D01*
X146050000Y-119060135D01*
X146037734Y-118998470D01*
X145939135Y-118760430D01*
X145795990Y-118546199D01*
X145613801Y-118364010D01*
X145399570Y-118220865D01*
X145161530Y-118122266D01*
X144908827Y-118072000D01*
X144651173Y-118072000D01*
X144398470Y-118122266D01*
X144160430Y-118220865D01*
X143946199Y-118364010D01*
X143764010Y-118546199D01*
X143620865Y-118760430D01*
X143522266Y-118998470D01*
X143510000Y-119060135D01*
X143497734Y-118998470D01*
X143399135Y-118760430D01*
X143255990Y-118546199D01*
X143073801Y-118364010D01*
X142859570Y-118220865D01*
X142621530Y-118122266D01*
X142368827Y-118072000D01*
X142111173Y-118072000D01*
X141858470Y-118122266D01*
X141620430Y-118220865D01*
X141406199Y-118364010D01*
X141224010Y-118546199D01*
X141080865Y-118760430D01*
X140982266Y-118998470D01*
X140970000Y-119060135D01*
X140957734Y-118998470D01*
X140859135Y-118760430D01*
X140715990Y-118546199D01*
X140533801Y-118364010D01*
X140319570Y-118220865D01*
X140081530Y-118122266D01*
X139828827Y-118072000D01*
X139571173Y-118072000D01*
X139318470Y-118122266D01*
X139080430Y-118220865D01*
X138866199Y-118364010D01*
X138684010Y-118546199D01*
X138540865Y-118760430D01*
X138442266Y-118998470D01*
X138430000Y-119060135D01*
X138417734Y-118998470D01*
X138319135Y-118760430D01*
X138175990Y-118546199D01*
X137993801Y-118364010D01*
X137779570Y-118220865D01*
X137541530Y-118122266D01*
X137288827Y-118072000D01*
X137031173Y-118072000D01*
X136778470Y-118122266D01*
X136540430Y-118220865D01*
X136326199Y-118364010D01*
X136144010Y-118546199D01*
X136000865Y-118760430D01*
X135958772Y-118862051D01*
X135923603Y-118763708D01*
X135856671Y-118638486D01*
X135612702Y-118566903D01*
X134799605Y-119380000D01*
X134813748Y-119394143D01*
X134634143Y-119573748D01*
X134620000Y-119559605D01*
X133806903Y-120372702D01*
X133878486Y-120616671D01*
X134133996Y-120737571D01*
X134408184Y-120806300D01*
X134690512Y-120820217D01*
X134844587Y-120797388D01*
X132923050Y-122718926D01*
X132898815Y-122738815D01*
X132819463Y-122835507D01*
X132760498Y-122945821D01*
X132724188Y-123065519D01*
X132715000Y-123158809D01*
X132715000Y-123158819D01*
X132711929Y-123190000D01*
X132715000Y-123221181D01*
X132715000Y-123888500D01*
X126365000Y-123888500D01*
X126365000Y-123453024D01*
X129176671Y-120641354D01*
X129411173Y-120688000D01*
X129668827Y-120688000D01*
X129921530Y-120637734D01*
X130159570Y-120539135D01*
X130373801Y-120395990D01*
X130397089Y-120372702D01*
X131266903Y-120372702D01*
X131338486Y-120616671D01*
X131593996Y-120737571D01*
X131868184Y-120806300D01*
X132150512Y-120820217D01*
X132430130Y-120778787D01*
X132696292Y-120683603D01*
X132821514Y-120616671D01*
X132893097Y-120372702D01*
X132080000Y-119559605D01*
X131266903Y-120372702D01*
X130397089Y-120372702D01*
X130555990Y-120213801D01*
X130699135Y-119999570D01*
X130741228Y-119897949D01*
X130776397Y-119996292D01*
X130843329Y-120121514D01*
X131087298Y-120193097D01*
X131900395Y-119380000D01*
X132259605Y-119380000D01*
X133072702Y-120193097D01*
X133316671Y-120121514D01*
X133347971Y-120055364D01*
X133383329Y-120121514D01*
X133627298Y-120193097D01*
X134440395Y-119380000D01*
X133627298Y-118566903D01*
X133383329Y-118638486D01*
X133352029Y-118704636D01*
X133316671Y-118638486D01*
X133072702Y-118566903D01*
X132259605Y-119380000D01*
X131900395Y-119380000D01*
X131087298Y-118566903D01*
X130843329Y-118638486D01*
X130739508Y-118857900D01*
X130699135Y-118760430D01*
X130555990Y-118546199D01*
X130397089Y-118387298D01*
X131266903Y-118387298D01*
X132080000Y-119200395D01*
X132893097Y-118387298D01*
X133806903Y-118387298D01*
X134620000Y-119200395D01*
X135433097Y-118387298D01*
X135361514Y-118143329D01*
X135106004Y-118022429D01*
X134831816Y-117953700D01*
X134549488Y-117939783D01*
X134269870Y-117981213D01*
X134003708Y-118076397D01*
X133878486Y-118143329D01*
X133806903Y-118387298D01*
X132893097Y-118387298D01*
X132821514Y-118143329D01*
X132566004Y-118022429D01*
X132291816Y-117953700D01*
X132009488Y-117939783D01*
X131729870Y-117981213D01*
X131463708Y-118076397D01*
X131338486Y-118143329D01*
X131266903Y-118387298D01*
X130397089Y-118387298D01*
X130373801Y-118364010D01*
X130159570Y-118220865D01*
X129921530Y-118122266D01*
X129668827Y-118072000D01*
X129411173Y-118072000D01*
X129158470Y-118122266D01*
X128920430Y-118220865D01*
X128706199Y-118364010D01*
X128524010Y-118546199D01*
X128380865Y-118760430D01*
X128282266Y-118998470D01*
X128270000Y-119060135D01*
X128257734Y-118998470D01*
X128159135Y-118760430D01*
X128015990Y-118546199D01*
X127833801Y-118364010D01*
X127619570Y-118220865D01*
X127381530Y-118122266D01*
X127128827Y-118072000D01*
X126871173Y-118072000D01*
X126618470Y-118122266D01*
X126380430Y-118220865D01*
X126166199Y-118364010D01*
X125984010Y-118546199D01*
X125840865Y-118760430D01*
X125742266Y-118998470D01*
X125692000Y-119251173D01*
X125692000Y-119508827D01*
X125738646Y-119743329D01*
X122763050Y-122718926D01*
X122738815Y-122738815D01*
X122659463Y-122835507D01*
X122600498Y-122945821D01*
X122564188Y-123065519D01*
X122555000Y-123158809D01*
X122555000Y-123158819D01*
X122551929Y-123190000D01*
X122555000Y-123221181D01*
X122555000Y-123888500D01*
X121258000Y-123888500D01*
X121258000Y-120949819D01*
X121259764Y-120938907D01*
X121258000Y-120890046D01*
X121258000Y-120871139D01*
X121256922Y-120860198D01*
X121255443Y-120819220D01*
X121251065Y-120800725D01*
X121249202Y-120781811D01*
X121237299Y-120742574D01*
X121227855Y-120702676D01*
X121219954Y-120685392D01*
X121214436Y-120667203D01*
X121195105Y-120631037D01*
X121178060Y-120593752D01*
X121166940Y-120578343D01*
X121157979Y-120561579D01*
X121131962Y-120529877D01*
X121107973Y-120496637D01*
X121094062Y-120483695D01*
X121082001Y-120468999D01*
X121050298Y-120442982D01*
X121042254Y-120435498D01*
X121027219Y-120424042D01*
X120989420Y-120393021D01*
X120979672Y-120387811D01*
X120258000Y-119837897D01*
X120258000Y-102426500D01*
X123927499Y-102426500D01*
X123940111Y-102436786D01*
G04 #@! TA.AperFunction,Conductor*
D16*
G36*
X123940111Y-102436786D02*
G01*
X123985996Y-102467272D01*
X124031479Y-102498415D01*
X124038946Y-102502452D01*
X124476642Y-102735179D01*
X124527574Y-102756172D01*
X124578240Y-102777887D01*
X124586346Y-102780396D01*
X124586352Y-102780398D01*
X125060914Y-102923676D01*
X125114973Y-102934380D01*
X125168872Y-102945837D01*
X125177305Y-102946723D01*
X125177315Y-102946725D01*
X125177324Y-102946725D01*
X125670670Y-102995098D01*
X125670674Y-102995098D01*
X125700139Y-102998000D01*
X126354786Y-102998000D01*
X126166199Y-103124010D01*
X125984010Y-103306199D01*
X125840865Y-103520430D01*
X125742266Y-103758470D01*
X125692000Y-104011173D01*
X125692000Y-104268827D01*
X125742266Y-104521530D01*
X125840865Y-104759570D01*
X125984010Y-104973801D01*
X126166199Y-105155990D01*
X126380430Y-105299135D01*
X126618470Y-105397734D01*
X126871173Y-105448000D01*
X127128827Y-105448000D01*
X127381530Y-105397734D01*
X127619570Y-105299135D01*
X127833801Y-105155990D01*
X127857089Y-105132702D01*
X128726903Y-105132702D01*
X128798486Y-105376671D01*
X129053996Y-105497571D01*
X129328184Y-105566300D01*
X129610512Y-105580217D01*
X129890130Y-105538787D01*
X130156292Y-105443603D01*
X130281514Y-105376671D01*
X130353097Y-105132702D01*
X129540000Y-104319605D01*
X128726903Y-105132702D01*
X127857089Y-105132702D01*
X128015990Y-104973801D01*
X128159135Y-104759570D01*
X128201228Y-104657949D01*
X128236397Y-104756292D01*
X128303329Y-104881514D01*
X128547298Y-104953097D01*
X129360395Y-104140000D01*
X128547298Y-103326903D01*
X128303329Y-103398486D01*
X128199508Y-103617900D01*
X128159135Y-103520430D01*
X128015990Y-103306199D01*
X127833801Y-103124010D01*
X127645214Y-102998000D01*
X128770709Y-102998000D01*
X128726903Y-103147298D01*
X129540000Y-103960395D01*
X130353097Y-103147298D01*
X130309291Y-102998000D01*
X131434786Y-102998000D01*
X131246199Y-103124010D01*
X131064010Y-103306199D01*
X130920865Y-103520430D01*
X130878772Y-103622051D01*
X130843603Y-103523708D01*
X130776671Y-103398486D01*
X130532702Y-103326903D01*
X129719605Y-104140000D01*
X130532702Y-104953097D01*
X130776671Y-104881514D01*
X130880492Y-104662100D01*
X130920865Y-104759570D01*
X131064010Y-104973801D01*
X131246199Y-105155990D01*
X131460430Y-105299135D01*
X131698470Y-105397734D01*
X131951173Y-105448000D01*
X132208827Y-105448000D01*
X132461530Y-105397734D01*
X132699570Y-105299135D01*
X132913801Y-105155990D01*
X133095990Y-104973801D01*
X133239135Y-104759570D01*
X133337734Y-104521530D01*
X133350000Y-104459865D01*
X133362266Y-104521530D01*
X133460865Y-104759570D01*
X133604010Y-104973801D01*
X133786199Y-105155990D01*
X134000430Y-105299135D01*
X134238470Y-105397734D01*
X134491173Y-105448000D01*
X134748827Y-105448000D01*
X135001530Y-105397734D01*
X135239570Y-105299135D01*
X135453801Y-105155990D01*
X135635990Y-104973801D01*
X135779135Y-104759570D01*
X135877734Y-104521530D01*
X135890000Y-104459865D01*
X135902266Y-104521530D01*
X136000865Y-104759570D01*
X136144010Y-104973801D01*
X136326199Y-105155990D01*
X136540430Y-105299135D01*
X136778470Y-105397734D01*
X137031173Y-105448000D01*
X137288827Y-105448000D01*
X137541530Y-105397734D01*
X137779570Y-105299135D01*
X137993801Y-105155990D01*
X138175990Y-104973801D01*
X138319135Y-104759570D01*
X138417734Y-104521530D01*
X138430000Y-104459865D01*
X138442266Y-104521530D01*
X138540865Y-104759570D01*
X138684010Y-104973801D01*
X138866199Y-105155990D01*
X139080430Y-105299135D01*
X139318470Y-105397734D01*
X139571173Y-105448000D01*
X139828827Y-105448000D01*
X140081530Y-105397734D01*
X140319570Y-105299135D01*
X140533801Y-105155990D01*
X140715990Y-104973801D01*
X140859135Y-104759570D01*
X140957734Y-104521530D01*
X140970000Y-104459865D01*
X140982266Y-104521530D01*
X141080865Y-104759570D01*
X141224010Y-104973801D01*
X141406199Y-105155990D01*
X141620430Y-105299135D01*
X141858470Y-105397734D01*
X142111173Y-105448000D01*
X142368827Y-105448000D01*
X142621530Y-105397734D01*
X142859570Y-105299135D01*
X143073801Y-105155990D01*
X143255990Y-104973801D01*
X143399135Y-104759570D01*
X143497734Y-104521530D01*
X143510000Y-104459865D01*
X143522266Y-104521530D01*
X143620865Y-104759570D01*
X143764010Y-104973801D01*
X143946199Y-105155990D01*
X144160430Y-105299135D01*
X144398470Y-105397734D01*
X144651173Y-105448000D01*
X144908827Y-105448000D01*
X145161530Y-105397734D01*
X145399570Y-105299135D01*
X145613801Y-105155990D01*
X145795990Y-104973801D01*
X145939135Y-104759570D01*
X146037734Y-104521530D01*
X146050000Y-104459865D01*
X146062266Y-104521530D01*
X146160865Y-104759570D01*
X146304010Y-104973801D01*
X146486199Y-105155990D01*
X146700430Y-105299135D01*
X146938470Y-105397734D01*
X147191173Y-105448000D01*
X147448827Y-105448000D01*
X147701530Y-105397734D01*
X147939570Y-105299135D01*
X148153801Y-105155990D01*
X148335990Y-104973801D01*
X148479135Y-104759570D01*
X148577734Y-104521530D01*
X148590000Y-104459865D01*
X148602266Y-104521530D01*
X148700865Y-104759570D01*
X148844010Y-104973801D01*
X149026199Y-105155990D01*
X149240430Y-105299135D01*
X149478470Y-105397734D01*
X149731173Y-105448000D01*
X149988827Y-105448000D01*
X150241530Y-105397734D01*
X150479570Y-105299135D01*
X150693801Y-105155990D01*
X150875990Y-104973801D01*
X151019135Y-104759570D01*
X151117734Y-104521530D01*
X151130000Y-104459865D01*
X151142266Y-104521530D01*
X151240865Y-104759570D01*
X151384010Y-104973801D01*
X151566199Y-105155990D01*
X151780430Y-105299135D01*
X152018470Y-105397734D01*
X152271173Y-105448000D01*
X152528827Y-105448000D01*
X152781530Y-105397734D01*
X153019570Y-105299135D01*
X153233801Y-105155990D01*
X153415990Y-104973801D01*
X153559135Y-104759570D01*
X153657734Y-104521530D01*
X153670000Y-104459865D01*
X153682266Y-104521530D01*
X153780865Y-104759570D01*
X153924010Y-104973801D01*
X154106199Y-105155990D01*
X154320430Y-105299135D01*
X154558470Y-105397734D01*
X154811173Y-105448000D01*
X155068827Y-105448000D01*
X155321530Y-105397734D01*
X155559570Y-105299135D01*
X155773801Y-105155990D01*
X155955990Y-104973801D01*
X156099135Y-104759570D01*
X156197734Y-104521530D01*
X156248000Y-104268827D01*
X156248000Y-104011173D01*
X156197734Y-103758470D01*
X156099135Y-103520430D01*
X155955990Y-103306199D01*
X155773801Y-103124010D01*
X155559570Y-102980865D01*
X155321530Y-102882266D01*
X155068827Y-102832000D01*
X154811173Y-102832000D01*
X154558470Y-102882266D01*
X154320430Y-102980865D01*
X154106199Y-103124010D01*
X153924010Y-103306199D01*
X153780865Y-103520430D01*
X153682266Y-103758470D01*
X153670000Y-103820135D01*
X153657734Y-103758470D01*
X153559135Y-103520430D01*
X153415990Y-103306199D01*
X153233801Y-103124010D01*
X153045214Y-102998000D01*
X153699861Y-102998000D01*
X153701982Y-102997791D01*
X153709716Y-102997737D01*
X153737175Y-102994851D01*
X153764794Y-102994851D01*
X153773236Y-102993963D01*
X154265868Y-102938706D01*
X154319771Y-102927248D01*
X154373828Y-102916545D01*
X154381937Y-102914035D01*
X154854453Y-102764144D01*
X154905119Y-102742429D01*
X154956051Y-102721436D01*
X154963514Y-102717401D01*
X154963518Y-102717399D01*
X154963521Y-102717397D01*
X155397923Y-102478582D01*
X155443380Y-102447457D01*
X155474923Y-102426500D01*
X159142000Y-102426500D01*
X159142001Y-119840896D01*
X158420334Y-120390807D01*
X158410579Y-120396021D01*
X158372756Y-120427062D01*
X158357746Y-120438499D01*
X158349713Y-120445972D01*
X158317999Y-120471999D01*
X158305935Y-120486699D01*
X158292027Y-120499638D01*
X158268040Y-120532875D01*
X158242021Y-120564580D01*
X158233060Y-120581344D01*
X158221940Y-120596753D01*
X158204895Y-120634038D01*
X158185564Y-120670204D01*
X158180046Y-120688393D01*
X158172145Y-120705677D01*
X158162701Y-120745575D01*
X158150798Y-120784812D01*
X158148935Y-120803726D01*
X158144557Y-120822221D01*
X158143078Y-120863199D01*
X158142000Y-120874140D01*
X158142000Y-120893046D01*
X158140236Y-120941907D01*
X158142000Y-120952819D01*
X158142000Y-123888500D01*
X151765000Y-123888500D01*
X151765000Y-123453024D01*
X154576671Y-120641354D01*
X154811173Y-120688000D01*
X155068827Y-120688000D01*
X155321530Y-120637734D01*
X155559570Y-120539135D01*
X155773801Y-120395990D01*
X155955990Y-120213801D01*
X156099135Y-119999570D01*
X156197734Y-119761530D01*
X156248000Y-119508827D01*
X156248000Y-119251173D01*
X156197734Y-118998470D01*
X156099135Y-118760430D01*
X155955990Y-118546199D01*
X155773801Y-118364010D01*
X155559570Y-118220865D01*
X155321530Y-118122266D01*
X155068827Y-118072000D01*
X154811173Y-118072000D01*
X154558470Y-118122266D01*
X154320430Y-118220865D01*
X154106199Y-118364010D01*
X153924010Y-118546199D01*
X153780865Y-118760430D01*
X153682266Y-118998470D01*
X153670000Y-119060135D01*
X153657734Y-118998470D01*
X153559135Y-118760430D01*
X153415990Y-118546199D01*
X153233801Y-118364010D01*
X153019570Y-118220865D01*
X152781530Y-118122266D01*
X152528827Y-118072000D01*
X152271173Y-118072000D01*
X152018470Y-118122266D01*
X151780430Y-118220865D01*
X151566199Y-118364010D01*
X151384010Y-118546199D01*
X151240865Y-118760430D01*
X151142266Y-118998470D01*
X151130000Y-119060135D01*
X151117734Y-118998470D01*
X151019135Y-118760430D01*
X150875990Y-118546199D01*
X150693801Y-118364010D01*
X150479570Y-118220865D01*
X150241530Y-118122266D01*
X149988827Y-118072000D01*
X149731173Y-118072000D01*
X149478470Y-118122266D01*
X149240430Y-118220865D01*
X149026199Y-118364010D01*
X148844010Y-118546199D01*
X148700865Y-118760430D01*
X148602266Y-118998470D01*
X148590000Y-119060135D01*
X148577734Y-118998470D01*
X148479135Y-118760430D01*
X148335990Y-118546199D01*
X148153801Y-118364010D01*
X147939570Y-118220865D01*
X147701530Y-118122266D01*
X147448827Y-118072000D01*
X147191173Y-118072000D01*
X146938470Y-118122266D01*
X146700430Y-118220865D01*
X146486199Y-118364010D01*
X146304010Y-118546199D01*
X146160865Y-118760430D01*
X146062266Y-118998470D01*
X146050000Y-119060135D01*
X146037734Y-118998470D01*
X145939135Y-118760430D01*
X145795990Y-118546199D01*
X145613801Y-118364010D01*
X145399570Y-118220865D01*
X145161530Y-118122266D01*
X144908827Y-118072000D01*
X144651173Y-118072000D01*
X144398470Y-118122266D01*
X144160430Y-118220865D01*
X143946199Y-118364010D01*
X143764010Y-118546199D01*
X143620865Y-118760430D01*
X143522266Y-118998470D01*
X143510000Y-119060135D01*
X143497734Y-118998470D01*
X143399135Y-118760430D01*
X143255990Y-118546199D01*
X143073801Y-118364010D01*
X142859570Y-118220865D01*
X142621530Y-118122266D01*
X142368827Y-118072000D01*
X142111173Y-118072000D01*
X141858470Y-118122266D01*
X141620430Y-118220865D01*
X141406199Y-118364010D01*
X141224010Y-118546199D01*
X141080865Y-118760430D01*
X140982266Y-118998470D01*
X140970000Y-119060135D01*
X140957734Y-118998470D01*
X140859135Y-118760430D01*
X140715990Y-118546199D01*
X140533801Y-118364010D01*
X140319570Y-118220865D01*
X140081530Y-118122266D01*
X139828827Y-118072000D01*
X139571173Y-118072000D01*
X139318470Y-118122266D01*
X139080430Y-118220865D01*
X138866199Y-118364010D01*
X138684010Y-118546199D01*
X138540865Y-118760430D01*
X138442266Y-118998470D01*
X138430000Y-119060135D01*
X138417734Y-118998470D01*
X138319135Y-118760430D01*
X138175990Y-118546199D01*
X137993801Y-118364010D01*
X137779570Y-118220865D01*
X137541530Y-118122266D01*
X137288827Y-118072000D01*
X137031173Y-118072000D01*
X136778470Y-118122266D01*
X136540430Y-118220865D01*
X136326199Y-118364010D01*
X136144010Y-118546199D01*
X136000865Y-118760430D01*
X135958772Y-118862051D01*
X135923603Y-118763708D01*
X135856671Y-118638486D01*
X135612702Y-118566903D01*
X134799605Y-119380000D01*
X134813748Y-119394143D01*
X134634143Y-119573748D01*
X134620000Y-119559605D01*
X133806903Y-120372702D01*
X133878486Y-120616671D01*
X134133996Y-120737571D01*
X134408184Y-120806300D01*
X134690512Y-120820217D01*
X134844587Y-120797388D01*
X132923050Y-122718926D01*
X132898815Y-122738815D01*
X132819463Y-122835507D01*
X132760498Y-122945821D01*
X132724188Y-123065519D01*
X132715000Y-123158809D01*
X132715000Y-123158819D01*
X132711929Y-123190000D01*
X132715000Y-123221181D01*
X132715000Y-123888500D01*
X126365000Y-123888500D01*
X126365000Y-123453024D01*
X129176671Y-120641354D01*
X129411173Y-120688000D01*
X129668827Y-120688000D01*
X129921530Y-120637734D01*
X130159570Y-120539135D01*
X130373801Y-120395990D01*
X130397089Y-120372702D01*
X131266903Y-120372702D01*
X131338486Y-120616671D01*
X131593996Y-120737571D01*
X131868184Y-120806300D01*
X132150512Y-120820217D01*
X132430130Y-120778787D01*
X132696292Y-120683603D01*
X132821514Y-120616671D01*
X132893097Y-120372702D01*
X132080000Y-119559605D01*
X131266903Y-120372702D01*
X130397089Y-120372702D01*
X130555990Y-120213801D01*
X130699135Y-119999570D01*
X130741228Y-119897949D01*
X130776397Y-119996292D01*
X130843329Y-120121514D01*
X131087298Y-120193097D01*
X131900395Y-119380000D01*
X132259605Y-119380000D01*
X133072702Y-120193097D01*
X133316671Y-120121514D01*
X133347971Y-120055364D01*
X133383329Y-120121514D01*
X133627298Y-120193097D01*
X134440395Y-119380000D01*
X133627298Y-118566903D01*
X133383329Y-118638486D01*
X133352029Y-118704636D01*
X133316671Y-118638486D01*
X133072702Y-118566903D01*
X132259605Y-119380000D01*
X131900395Y-119380000D01*
X131087298Y-118566903D01*
X130843329Y-118638486D01*
X130739508Y-118857900D01*
X130699135Y-118760430D01*
X130555990Y-118546199D01*
X130397089Y-118387298D01*
X131266903Y-118387298D01*
X132080000Y-119200395D01*
X132893097Y-118387298D01*
X133806903Y-118387298D01*
X134620000Y-119200395D01*
X135433097Y-118387298D01*
X135361514Y-118143329D01*
X135106004Y-118022429D01*
X134831816Y-117953700D01*
X134549488Y-117939783D01*
X134269870Y-117981213D01*
X134003708Y-118076397D01*
X133878486Y-118143329D01*
X133806903Y-118387298D01*
X132893097Y-118387298D01*
X132821514Y-118143329D01*
X132566004Y-118022429D01*
X132291816Y-117953700D01*
X132009488Y-117939783D01*
X131729870Y-117981213D01*
X131463708Y-118076397D01*
X131338486Y-118143329D01*
X131266903Y-118387298D01*
X130397089Y-118387298D01*
X130373801Y-118364010D01*
X130159570Y-118220865D01*
X129921530Y-118122266D01*
X129668827Y-118072000D01*
X129411173Y-118072000D01*
X129158470Y-118122266D01*
X128920430Y-118220865D01*
X128706199Y-118364010D01*
X128524010Y-118546199D01*
X128380865Y-118760430D01*
X128282266Y-118998470D01*
X128270000Y-119060135D01*
X128257734Y-118998470D01*
X128159135Y-118760430D01*
X128015990Y-118546199D01*
X127833801Y-118364010D01*
X127619570Y-118220865D01*
X127381530Y-118122266D01*
X127128827Y-118072000D01*
X126871173Y-118072000D01*
X126618470Y-118122266D01*
X126380430Y-118220865D01*
X126166199Y-118364010D01*
X125984010Y-118546199D01*
X125840865Y-118760430D01*
X125742266Y-118998470D01*
X125692000Y-119251173D01*
X125692000Y-119508827D01*
X125738646Y-119743329D01*
X122763050Y-122718926D01*
X122738815Y-122738815D01*
X122659463Y-122835507D01*
X122600498Y-122945821D01*
X122564188Y-123065519D01*
X122555000Y-123158809D01*
X122555000Y-123158819D01*
X122551929Y-123190000D01*
X122555000Y-123221181D01*
X122555000Y-123888500D01*
X121258000Y-123888500D01*
X121258000Y-120949819D01*
X121259764Y-120938907D01*
X121258000Y-120890046D01*
X121258000Y-120871139D01*
X121256922Y-120860198D01*
X121255443Y-120819220D01*
X121251065Y-120800725D01*
X121249202Y-120781811D01*
X121237299Y-120742574D01*
X121227855Y-120702676D01*
X121219954Y-120685392D01*
X121214436Y-120667203D01*
X121195105Y-120631037D01*
X121178060Y-120593752D01*
X121166940Y-120578343D01*
X121157979Y-120561579D01*
X121131962Y-120529877D01*
X121107973Y-120496637D01*
X121094062Y-120483695D01*
X121082001Y-120468999D01*
X121050298Y-120442982D01*
X121042254Y-120435498D01*
X121027219Y-120424042D01*
X120989420Y-120393021D01*
X120979672Y-120387811D01*
X120258000Y-119837897D01*
X120258000Y-102426500D01*
X123927499Y-102426500D01*
X123940111Y-102436786D01*
G37*
G04 #@! TD.AperFunction*
M02*
