G04 #@! TF.GenerationSoftware,KiCad,Pcbnew,(5.1.9-0-10_14)*
G04 #@! TF.CreationDate,2021-03-08T07:24:15-08:00*
G04 #@! TF.ProjectId,cart,63617274-2e6b-4696-9361-645f70636258,1.0-dev0*
G04 #@! TF.SameCoordinates,Original*
G04 #@! TF.FileFunction,Profile,NP*
%FSLAX46Y46*%
G04 Gerber Fmt 4.6, Leading zero omitted, Abs format (unit mm)*
G04 Created by KiCad (PCBNEW (5.1.9-0-10_14)) date 2021-03-08 07:24:15*
%MOMM*%
%LPD*%
G01*
G04 APERTURE LIST*
G04 #@! TA.AperFunction,Profile*
%ADD10C,0.200000*%
G04 #@! TD*
G04 APERTURE END LIST*
D10*
X129433000Y-128397000D02*
X129794000Y-128397000D01*
X129794000Y-128397000D02*
X129794000Y-128651000D01*
X159750000Y-94611000D02*
X159750000Y-120142000D01*
X157972000Y-92833000D02*
G75*
G02*
X159750000Y-94611000I0J-1778000D01*
G01*
X159750000Y-120142000D02*
X158750000Y-120904000D01*
X153670000Y-101390000D02*
X125730000Y-101390000D01*
X125730000Y-96310000D02*
X153670000Y-96310000D01*
X153670000Y-96310000D02*
G75*
G02*
X153670000Y-101390000I0J-2540000D01*
G01*
X125730000Y-101390000D02*
G75*
G02*
X125730000Y-96310000I0J2540000D01*
G01*
X131826000Y-128397000D02*
X132187000Y-128397000D01*
X129794000Y-128651000D02*
X131826000Y-128651000D01*
X131826000Y-128397000D02*
X131826000Y-128651000D01*
X132441000Y-128651000D02*
X132187000Y-128397000D01*
X129433000Y-128397000D02*
X129179000Y-128651000D01*
X157988000Y-128651000D02*
X132441000Y-128651000D01*
X119650000Y-94611000D02*
X119650000Y-120139000D01*
X120650000Y-120901000D02*
X119650000Y-120139000D01*
X121428000Y-92833000D02*
G75*
G03*
X119650000Y-94611000I0J-1778000D01*
G01*
X120650000Y-120901000D02*
X120650000Y-127127000D01*
X158750000Y-120904000D02*
X158750000Y-127127000D01*
X121428000Y-92833000D02*
X157972000Y-92833000D01*
X121412000Y-128651000D02*
X120650000Y-127127000D01*
X157988000Y-128651000D02*
X158750000Y-127127000D01*
X121412000Y-128651000D02*
X129179000Y-128651000D01*
M02*
