G04 #@! TF.GenerationSoftware,KiCad,Pcbnew,(5.1.9-0-10_14)*
G04 #@! TF.CreationDate,2021-03-08T07:24:15-08:00*
G04 #@! TF.ProjectId,cart,63617274-2e6b-4696-9361-645f70636258,1.0-dev0*
G04 #@! TF.SameCoordinates,Original*
G04 #@! TF.FileFunction,Soldermask,Bot*
G04 #@! TF.FilePolarity,Negative*
%FSLAX46Y46*%
G04 Gerber Fmt 4.6, Leading zero omitted, Abs format (unit mm)*
G04 Created by KiCad (PCBNEW (5.1.9-0-10_14)) date 2021-03-08 07:24:15*
%MOMM*%
%LPD*%
G01*
G04 APERTURE LIST*
%ADD10C,0.100000*%
%ADD11O,0.609600X4.351600*%
%ADD12C,0.609600*%
%ADD13C,1.701600*%
G04 APERTURE END LIST*
D10*
G36*
X160401000Y-129667000D02*
G01*
X118618000Y-129667000D01*
X118681500Y-124650500D01*
X160464500Y-124650500D01*
X160401000Y-129667000D01*
G37*
X160401000Y-129667000D02*
X118618000Y-129667000D01*
X118681500Y-124650500D01*
X160464500Y-124650500D01*
X160401000Y-129667000D01*
G36*
X160401000Y-129667000D02*
G01*
X118618000Y-129667000D01*
X118681500Y-124650500D01*
X160464500Y-124650500D01*
X160401000Y-129667000D01*
G37*
X160401000Y-129667000D02*
X118618000Y-129667000D01*
X118681500Y-124650500D01*
X160464500Y-124650500D01*
X160401000Y-129667000D01*
D11*
X129667000Y-126839000D03*
X131953000Y-126839000D03*
D12*
X131699000Y-124968000D03*
X129921000Y-124968000D03*
X130810000Y-124968000D03*
G36*
G01*
X124040800Y-124619000D02*
X124040800Y-128619000D01*
G75*
G02*
X123990000Y-128669800I-50800J0D01*
G01*
X122390000Y-128669800D01*
G75*
G02*
X122339200Y-128619000I0J50800D01*
G01*
X122339200Y-124619000D01*
G75*
G02*
X122390000Y-124568200I50800J0D01*
G01*
X123990000Y-124568200D01*
G75*
G02*
X124040800Y-124619000I0J-50800D01*
G01*
G37*
G36*
G01*
X126580800Y-124619000D02*
X126580800Y-128619000D01*
G75*
G02*
X126530000Y-128669800I-50800J0D01*
G01*
X124930000Y-128669800D01*
G75*
G02*
X124879200Y-128619000I0J50800D01*
G01*
X124879200Y-124619000D01*
G75*
G02*
X124930000Y-124568200I50800J0D01*
G01*
X126530000Y-124568200D01*
G75*
G02*
X126580800Y-124619000I0J-50800D01*
G01*
G37*
G36*
G01*
X129120800Y-124619000D02*
X129120800Y-128619000D01*
G75*
G02*
X129070000Y-128669800I-50800J0D01*
G01*
X127470000Y-128669800D01*
G75*
G02*
X127419200Y-128619000I0J50800D01*
G01*
X127419200Y-124619000D01*
G75*
G02*
X127470000Y-124568200I50800J0D01*
G01*
X129070000Y-124568200D01*
G75*
G02*
X129120800Y-124619000I0J-50800D01*
G01*
G37*
G36*
G01*
X134200800Y-124619000D02*
X134200800Y-128619000D01*
G75*
G02*
X134150000Y-128669800I-50800J0D01*
G01*
X132550000Y-128669800D01*
G75*
G02*
X132499200Y-128619000I0J50800D01*
G01*
X132499200Y-124619000D01*
G75*
G02*
X132550000Y-124568200I50800J0D01*
G01*
X134150000Y-124568200D01*
G75*
G02*
X134200800Y-124619000I0J-50800D01*
G01*
G37*
G36*
G01*
X136740800Y-124619000D02*
X136740800Y-128619000D01*
G75*
G02*
X136690000Y-128669800I-50800J0D01*
G01*
X135090000Y-128669800D01*
G75*
G02*
X135039200Y-128619000I0J50800D01*
G01*
X135039200Y-124619000D01*
G75*
G02*
X135090000Y-124568200I50800J0D01*
G01*
X136690000Y-124568200D01*
G75*
G02*
X136740800Y-124619000I0J-50800D01*
G01*
G37*
G36*
G01*
X139280800Y-124619000D02*
X139280800Y-128619000D01*
G75*
G02*
X139230000Y-128669800I-50800J0D01*
G01*
X137630000Y-128669800D01*
G75*
G02*
X137579200Y-128619000I0J50800D01*
G01*
X137579200Y-124619000D01*
G75*
G02*
X137630000Y-124568200I50800J0D01*
G01*
X139230000Y-124568200D01*
G75*
G02*
X139280800Y-124619000I0J-50800D01*
G01*
G37*
G36*
G01*
X141820800Y-124619000D02*
X141820800Y-128619000D01*
G75*
G02*
X141770000Y-128669800I-50800J0D01*
G01*
X140170000Y-128669800D01*
G75*
G02*
X140119200Y-128619000I0J50800D01*
G01*
X140119200Y-124619000D01*
G75*
G02*
X140170000Y-124568200I50800J0D01*
G01*
X141770000Y-124568200D01*
G75*
G02*
X141820800Y-124619000I0J-50800D01*
G01*
G37*
G36*
G01*
X144360800Y-124619000D02*
X144360800Y-128619000D01*
G75*
G02*
X144310000Y-128669800I-50800J0D01*
G01*
X142710000Y-128669800D01*
G75*
G02*
X142659200Y-128619000I0J50800D01*
G01*
X142659200Y-124619000D01*
G75*
G02*
X142710000Y-124568200I50800J0D01*
G01*
X144310000Y-124568200D01*
G75*
G02*
X144360800Y-124619000I0J-50800D01*
G01*
G37*
G36*
G01*
X146900800Y-124619000D02*
X146900800Y-128619000D01*
G75*
G02*
X146850000Y-128669800I-50800J0D01*
G01*
X145250000Y-128669800D01*
G75*
G02*
X145199200Y-128619000I0J50800D01*
G01*
X145199200Y-124619000D01*
G75*
G02*
X145250000Y-124568200I50800J0D01*
G01*
X146850000Y-124568200D01*
G75*
G02*
X146900800Y-124619000I0J-50800D01*
G01*
G37*
G36*
G01*
X149440800Y-124619000D02*
X149440800Y-128619000D01*
G75*
G02*
X149390000Y-128669800I-50800J0D01*
G01*
X147790000Y-128669800D01*
G75*
G02*
X147739200Y-128619000I0J50800D01*
G01*
X147739200Y-124619000D01*
G75*
G02*
X147790000Y-124568200I50800J0D01*
G01*
X149390000Y-124568200D01*
G75*
G02*
X149440800Y-124619000I0J-50800D01*
G01*
G37*
G36*
G01*
X151980800Y-124619000D02*
X151980800Y-128619000D01*
G75*
G02*
X151930000Y-128669800I-50800J0D01*
G01*
X150330000Y-128669800D01*
G75*
G02*
X150279200Y-128619000I0J50800D01*
G01*
X150279200Y-124619000D01*
G75*
G02*
X150330000Y-124568200I50800J0D01*
G01*
X151930000Y-124568200D01*
G75*
G02*
X151980800Y-124619000I0J-50800D01*
G01*
G37*
G36*
G01*
X157060800Y-124619000D02*
X157060800Y-128619000D01*
G75*
G02*
X157010000Y-128669800I-50800J0D01*
G01*
X155410000Y-128669800D01*
G75*
G02*
X155359200Y-128619000I0J50800D01*
G01*
X155359200Y-124619000D01*
G75*
G02*
X155410000Y-124568200I50800J0D01*
G01*
X157010000Y-124568200D01*
G75*
G02*
X157060800Y-124619000I0J-50800D01*
G01*
G37*
G36*
G01*
X154520800Y-124619000D02*
X154520800Y-128619000D01*
G75*
G02*
X154470000Y-128669800I-50800J0D01*
G01*
X152870000Y-128669800D01*
G75*
G02*
X152819200Y-128619000I0J50800D01*
G01*
X152819200Y-124619000D01*
G75*
G02*
X152870000Y-124568200I50800J0D01*
G01*
X154470000Y-124568200D01*
G75*
G02*
X154520800Y-124619000I0J-50800D01*
G01*
G37*
D13*
X127000000Y-104140000D03*
X129540000Y-104140000D03*
X132080000Y-104140000D03*
X134620000Y-104140000D03*
X137160000Y-104140000D03*
X139700000Y-104140000D03*
X142240000Y-104140000D03*
X144780000Y-104140000D03*
X147320000Y-104140000D03*
X149860000Y-104140000D03*
X152400000Y-104140000D03*
X154940000Y-104140000D03*
X154940000Y-119380000D03*
X152400000Y-119380000D03*
X149860000Y-119380000D03*
X147320000Y-119380000D03*
X144780000Y-119380000D03*
X142240000Y-119380000D03*
X139700000Y-119380000D03*
X137160000Y-119380000D03*
X134620000Y-119380000D03*
X132080000Y-119380000D03*
X129540000Y-119380000D03*
X127000000Y-119380000D03*
D10*
G36*
X132500443Y-124881463D02*
G01*
X132501200Y-124883030D01*
X132501200Y-128669800D01*
X132500200Y-128671532D01*
X132499200Y-128671800D01*
X132374347Y-128671800D01*
X132350262Y-128674172D01*
X132327187Y-128681172D01*
X132305923Y-128692537D01*
X132287286Y-128707832D01*
X132272022Y-128726432D01*
X132256509Y-128759232D01*
X132254159Y-128766978D01*
X132252699Y-128768345D01*
X132250785Y-128767764D01*
X132250255Y-128766201D01*
X132255800Y-128709906D01*
X132255800Y-124968094D01*
X132250255Y-124911799D01*
X132251080Y-124909977D01*
X132253070Y-124909781D01*
X132254159Y-124911022D01*
X132256471Y-124918643D01*
X132265735Y-124941008D01*
X132279130Y-124961055D01*
X132296178Y-124978102D01*
X132316225Y-124991496D01*
X132338499Y-125000722D01*
X132362150Y-125005426D01*
X132386256Y-125005426D01*
X132409906Y-125000721D01*
X132432180Y-124991495D01*
X132452227Y-124978100D01*
X132469274Y-124961052D01*
X132482668Y-124941005D01*
X132491877Y-124918774D01*
X132497222Y-124882737D01*
X132498465Y-124881170D01*
X132500443Y-124881463D01*
G37*
G36*
X129122790Y-124882834D02*
G01*
X129125172Y-124907021D01*
X129132172Y-124930096D01*
X129143537Y-124951360D01*
X129158832Y-124969997D01*
X129177469Y-124985292D01*
X129198733Y-124996657D01*
X129221808Y-125003657D01*
X129245799Y-125006020D01*
X129269790Y-125003657D01*
X129292865Y-124996657D01*
X129314129Y-124985292D01*
X129332766Y-124969997D01*
X129348030Y-124951397D01*
X129363543Y-124918597D01*
X129365841Y-124911022D01*
X129367301Y-124909655D01*
X129369215Y-124910236D01*
X129369745Y-124911799D01*
X129364200Y-124968094D01*
X129364201Y-128709906D01*
X129369746Y-128766201D01*
X129368921Y-128768023D01*
X129366931Y-128768219D01*
X129365842Y-128766978D01*
X129363478Y-128759185D01*
X129354214Y-128736821D01*
X129340819Y-128716773D01*
X129323771Y-128699727D01*
X129303724Y-128686332D01*
X129281493Y-128677123D01*
X129245603Y-128671800D01*
X129120800Y-128671800D01*
X129119068Y-128670800D01*
X129118800Y-128669800D01*
X129118800Y-124883030D01*
X129119800Y-124881298D01*
X129121800Y-124881298D01*
X129122790Y-124882834D01*
G37*
M02*
