G04 #@! TF.GenerationSoftware,KiCad,Pcbnew,(5.1.9-0-10_14)*
G04 #@! TF.CreationDate,2021-07-26T20:55:04-07:00*
G04 #@! TF.ProjectId,system_advance,73797374-656d-45f6-9164-76616e63652e,1.0-dev0*
G04 #@! TF.SameCoordinates,Original*
G04 #@! TF.FileFunction,Profile,NP*
%FSLAX46Y46*%
G04 Gerber Fmt 4.6, Leading zero omitted, Abs format (unit mm)*
G04 Created by KiCad (PCBNEW (5.1.9-0-10_14)) date 2021-07-26 20:55:04*
%MOMM*%
%LPD*%
G01*
G04 APERTURE LIST*
G04 #@! TA.AperFunction,Profile*
%ADD10C,0.200000*%
G04 #@! TD*
G04 APERTURE END LIST*
D10*
X47399313Y-210772100D02*
X47399313Y-210772100D01*
X50707275Y-216549423D02*
G75*
G02*
X47399313Y-210772100I3391038J5777323D01*
G01*
X49022000Y-182880000D02*
X47399313Y-210772100D01*
X95252000Y-204089000D02*
X86235000Y-199390000D01*
X129667000Y-199390000D02*
X120650000Y-204089000D01*
X86235000Y-173355000D02*
X86235000Y-199390000D01*
X129667000Y-173355000D02*
X129667000Y-199390000D01*
X129667000Y-173355000D02*
G75*
G02*
X132842000Y-170180000I3175000J0D01*
G01*
X83060000Y-170180000D02*
G75*
G02*
X86235000Y-173355000I0J-3175000D01*
G01*
X145284313Y-226060000D02*
X70612000Y-226060000D01*
X165189038Y-216549423D02*
X148437600Y-225271447D01*
X165189038Y-216549423D02*
G75*
G03*
X168497000Y-210772100I-3391038J5777323D01*
G01*
X166878000Y-182880000D02*
X168497000Y-210772100D01*
X148437600Y-225271447D02*
G75*
G02*
X145284313Y-226060000I-3153287J5910447D01*
G01*
X66543126Y-170682209D02*
G75*
G02*
X69088000Y-170180000I2544874J-6196791D01*
G01*
X149356874Y-170682209D02*
G75*
G03*
X146812000Y-170180000I-2544874J-6196791D01*
G01*
X163073776Y-177152928D02*
G75*
G02*
X166878000Y-182880000I-2894776J-6049882D01*
G01*
X52826224Y-177152928D02*
X66543126Y-170682209D01*
X52826224Y-177152928D02*
G75*
G03*
X49022000Y-182880000I2894776J-6049882D01*
G01*
X132842000Y-170180000D02*
X140589000Y-170180000D01*
X83060000Y-170180000D02*
X75311000Y-170180000D01*
X50707275Y-216549423D02*
X67458713Y-225271447D01*
X163073776Y-177152928D02*
X149356874Y-170682209D01*
X67458713Y-225271447D02*
G75*
G03*
X70612000Y-226060000I3153287J5910447D01*
G01*
X146812000Y-170180000D02*
X142875000Y-170180000D01*
X73025000Y-170180000D02*
X69088000Y-170180000D01*
X145284313Y-167640000D02*
X142875000Y-167640000D01*
X73025000Y-167640000D02*
X70612000Y-167640000D01*
X75311000Y-167640000D02*
X75311000Y-170180000D01*
X73025000Y-167640000D02*
X73025000Y-170180000D01*
X140589000Y-167640000D02*
X140589000Y-170180000D01*
X142875000Y-167640000D02*
X142875000Y-170180000D01*
X145284313Y-109220000D02*
X142875000Y-109220000D01*
X146812000Y-111760000D02*
X142875000Y-111760000D01*
X142875000Y-109220000D02*
X142875000Y-111760000D01*
X140589000Y-109220000D02*
X140589000Y-111760000D01*
X73025000Y-111760000D02*
X69088000Y-111760000D01*
X73025000Y-109220000D02*
X70612000Y-109220000D01*
X140589000Y-109220000D02*
X75311000Y-109220000D01*
X165189038Y-99709423D02*
X148437600Y-108431447D01*
X165189038Y-99709423D02*
G75*
G03*
X168497000Y-93932100I-3391038J5777323D01*
G01*
X166878000Y-66040000D02*
X168497000Y-93932100D01*
X148437600Y-108431447D02*
G75*
G02*
X145284313Y-109220000I-3153287J5910447D01*
G01*
X149356874Y-53842209D02*
G75*
G03*
X146812000Y-53340000I-2544874J-6196791D01*
G01*
X163073776Y-60312928D02*
G75*
G02*
X166878000Y-66040000I-2894776J-6049882D01*
G01*
X163073776Y-60312928D02*
X149356874Y-53842209D01*
X67458713Y-108431447D02*
G75*
G03*
X70612000Y-109220000I3153287J5910447D01*
G01*
X146812000Y-53340000D02*
X69088000Y-53340000D01*
X66543126Y-53842209D02*
G75*
G02*
X69088000Y-53340000I2544874J-6196791D01*
G01*
X52826224Y-60312928D02*
X66543126Y-53842209D01*
X52826224Y-60312928D02*
G75*
G03*
X49022000Y-66040000I2894776J-6049882D01*
G01*
X49022000Y-66040000D02*
X47399313Y-93932100D01*
X50707275Y-99709423D02*
G75*
G02*
X47399313Y-93932100I3391038J5777323D01*
G01*
X50707275Y-99709423D02*
X67458713Y-108431447D01*
X50707275Y-158129423D02*
X67458713Y-166851447D01*
X50707275Y-158129423D02*
G75*
G02*
X47399313Y-152352100I3391038J5777323D01*
G01*
X49022000Y-124460000D02*
X47399313Y-152352100D01*
X52826224Y-118732928D02*
G75*
G03*
X49022000Y-124460000I2894776J-6049882D01*
G01*
X52826224Y-118732928D02*
X66543126Y-112262209D01*
X66543126Y-112262209D02*
G75*
G02*
X69088000Y-111760000I2544874J-6196791D01*
G01*
X86360000Y-111760000D02*
X75311000Y-111760000D01*
X129540000Y-111760000D02*
X140589000Y-111760000D01*
X67458713Y-166851447D02*
G75*
G03*
X70612000Y-167640000I3153287J5910447D01*
G01*
X163073776Y-118732928D02*
X149356874Y-112262209D01*
X163073776Y-118732928D02*
G75*
G02*
X166878000Y-124460000I-2894776J-6049882D01*
G01*
X149356874Y-112262209D02*
G75*
G03*
X146812000Y-111760000I-2544874J-6196791D01*
G01*
X125222000Y-120395999D02*
X128346590Y-112595634D01*
X128346590Y-112595634D02*
G75*
G02*
X129540000Y-111760000I1193410J-434366D01*
G01*
X87553410Y-112595635D02*
G75*
G03*
X86360000Y-111760000I-1193410J-434365D01*
G01*
X90678000Y-120396000D02*
X87553410Y-112595635D01*
X90678000Y-120396000D02*
X125222000Y-120395999D01*
X95252000Y-204089000D02*
X120650000Y-204089000D01*
X75311000Y-109220000D02*
X75311000Y-111760000D01*
X73025000Y-109220000D02*
X73025000Y-111760000D01*
X148437600Y-166851447D02*
G75*
G02*
X145284313Y-167640000I-3153287J5910447D01*
G01*
X166878000Y-124460000D02*
X168497000Y-152352100D01*
X165189038Y-158129423D02*
G75*
G03*
X168497000Y-152352100I-3391038J5777323D01*
G01*
X165189038Y-158129423D02*
X148437600Y-166851447D01*
X140589000Y-167640000D02*
X75311000Y-167640000D01*
X94742000Y-220091000D02*
X94742000Y-223647000D01*
X121158000Y-220091000D02*
X94742000Y-220091000D01*
X121158000Y-223647000D02*
X121158000Y-220091000D01*
X94742000Y-223647000D02*
X121158000Y-223647000D01*
X129358108Y-99265070D02*
X137395674Y-95080000D01*
X79450000Y-63055500D02*
X136450000Y-63055500D01*
X137287000Y-63893501D02*
X138303000Y-93680000D01*
X86541892Y-99265070D02*
X78504326Y-95080000D01*
X78613000Y-63893501D02*
X77597000Y-93680000D01*
X88247000Y-99680000D02*
X127653000Y-99680000D01*
X77597000Y-93680000D02*
G75*
G03*
X78504326Y-95080000I1533760J0D01*
G01*
X79450000Y-63055500D02*
G75*
G03*
X78613000Y-63893501I0J-837001D01*
G01*
X86541892Y-99265070D02*
G75*
G03*
X88247000Y-99680000I1605108J2885070D01*
G01*
X129358108Y-99265070D02*
G75*
G02*
X127653000Y-99680000I-1605108J2885070D01*
G01*
X138303000Y-93680000D02*
G75*
G02*
X137395674Y-95080000I-1533760J0D01*
G01*
X136450000Y-63055500D02*
G75*
G02*
X137287000Y-63893501I0J-837001D01*
G01*
X67976118Y-75646396D02*
X65797271Y-76855133D01*
X70526000Y-75490000D02*
X68646046Y-75491318D01*
X67975480Y-81836260D02*
X65797271Y-80624867D01*
X70526000Y-81990000D02*
X68646046Y-81991318D01*
X71276000Y-81240000D02*
X71276000Y-76240000D01*
X67976118Y-75646397D02*
G75*
G02*
X68646046Y-75491318I605375J-1090618D01*
G01*
X68646912Y-81991273D02*
G75*
G02*
X67975480Y-81836260I-65419J1248288D01*
G01*
X71276000Y-76240000D02*
G75*
G03*
X70526000Y-75490000I-750000J0D01*
G01*
X70526000Y-81990000D02*
G75*
G03*
X71276000Y-81240000I0J750000D01*
G01*
X65797271Y-76855133D02*
G75*
G03*
X64776000Y-78740000I1228729J-1884867D01*
G01*
X65797271Y-80624867D02*
G75*
G02*
X64776000Y-78740000I1228729J1884867D01*
G01*
X164344218Y-93243410D02*
X159838203Y-95589093D01*
X163757797Y-92116907D02*
X159251782Y-94462590D01*
X165517059Y-95496418D02*
X161011044Y-97842101D01*
X164930639Y-94369914D02*
X160424624Y-96715597D01*
X163171376Y-90990403D02*
X158665361Y-93336086D01*
X162584956Y-89863899D02*
X158078941Y-92209582D01*
X162584956Y-89863899D02*
G75*
G02*
X163171376Y-90990403I293210J-563252D01*
G01*
X158665361Y-93336086D02*
G75*
G02*
X158078941Y-92209582I-293210J563252D01*
G01*
X164930639Y-94369914D02*
G75*
G02*
X165517059Y-95496418I293210J-563252D01*
G01*
X161011044Y-97842101D02*
G75*
G02*
X160424624Y-96715597I-293210J563252D01*
G01*
X159838202Y-95589092D02*
G75*
G02*
X159251782Y-94462590I-293210J563251D01*
G01*
X163757798Y-92116908D02*
G75*
G02*
X164344218Y-93243410I293210J-563251D01*
G01*
X151550000Y-81205000D02*
G75*
G03*
X151550000Y-81205000I-3250000J0D01*
G01*
X161329000Y-76252000D02*
G75*
G03*
X161329000Y-76252000I-3250000J0D01*
G01*
X51152000Y-76240000D02*
X51152000Y-81240000D01*
X51902000Y-75490000D02*
X53781954Y-75488682D01*
X54452520Y-75643740D02*
X56630729Y-76855133D01*
X51902000Y-81990000D02*
X53781954Y-81988682D01*
X54451882Y-81833604D02*
X56630729Y-80624867D01*
X54451882Y-81833603D02*
G75*
G02*
X53781954Y-81988682I-605375J1090618D01*
G01*
X53781088Y-75488727D02*
G75*
G02*
X54452520Y-75643740I65419J-1248288D01*
G01*
X51152000Y-81240000D02*
G75*
G03*
X51902000Y-81990000I750000J0D01*
G01*
X51902000Y-75490000D02*
G75*
G03*
X51152000Y-76240000I0J-750000D01*
G01*
X56630729Y-80624867D02*
G75*
G03*
X57652000Y-78740000I-1228729J1884867D01*
G01*
X56630729Y-76855133D02*
G75*
G02*
X57652000Y-78740000I-1228729J-1884867D01*
G01*
X58714000Y-88802000D02*
X63714000Y-88802000D01*
X57964000Y-88052000D02*
X57962682Y-86172046D01*
X58117740Y-85501480D02*
X59329133Y-83323271D01*
X64464000Y-88052000D02*
X64462682Y-86172046D01*
X64307604Y-85502118D02*
X63098867Y-83323271D01*
X64307603Y-85502118D02*
G75*
G02*
X64462682Y-86172046I-1090618J-605375D01*
G01*
X57962727Y-86172912D02*
G75*
G02*
X58117740Y-85501480I1248288J65419D01*
G01*
X63714000Y-88802000D02*
G75*
G03*
X64464000Y-88052000I0J750000D01*
G01*
X57964000Y-88052000D02*
G75*
G03*
X58714000Y-88802000I750000J0D01*
G01*
X63098867Y-83323271D02*
G75*
G03*
X61214000Y-82302000I-1884867J-1228729D01*
G01*
X59329133Y-83323271D02*
G75*
G02*
X61214000Y-82302000I1884867J-1228729D01*
G01*
X63714000Y-68678000D02*
X58714000Y-68678000D01*
X64464000Y-69428000D02*
X64465318Y-71307954D01*
X64310260Y-71978520D02*
X63098867Y-74156729D01*
X57964000Y-69428000D02*
X57965318Y-71307954D01*
X58120396Y-71977882D02*
X59329133Y-74156729D01*
X58120397Y-71977882D02*
G75*
G02*
X57965318Y-71307954I1090618J605375D01*
G01*
X64465273Y-71307088D02*
G75*
G02*
X64310260Y-71978520I-1248288J-65419D01*
G01*
X58714000Y-68678000D02*
G75*
G03*
X57964000Y-69428000I0J-750000D01*
G01*
X64464000Y-69428000D02*
G75*
G03*
X63714000Y-68678000I-750000J0D01*
G01*
X59329133Y-74156729D02*
G75*
G03*
X61214000Y-75178000I1884867J1228729D01*
G01*
X63098867Y-74156729D02*
G75*
G02*
X61214000Y-75178000I-1884867J1228729D01*
G01*
M02*
