G04 #@! TF.GenerationSoftware,KiCad,Pcbnew,(5.1.9-0-10_14)*
G04 #@! TF.CreationDate,2021-07-18T00:17:51-07:00*
G04 #@! TF.ProjectId,system_advance,73797374-656d-45f6-9164-76616e63652e,1.0-dev0*
G04 #@! TF.SameCoordinates,Original*
G04 #@! TF.FileFunction,Other,Fab,Top*
%FSLAX46Y46*%
G04 Gerber Fmt 4.6, Leading zero omitted, Abs format (unit mm)*
G04 Created by KiCad (PCBNEW (5.1.9-0-10_14)) date 2021-07-18 00:17:51*
%MOMM*%
%LPD*%
G01*
G04 APERTURE LIST*
%ADD10C,0.100000*%
%ADD11C,0.150000*%
%ADD12C,0.250000*%
%ADD13C,0.200000*%
%ADD14C,0.120000*%
G04 APERTURE END LIST*
D10*
X73025000Y-167640000D02*
X73025000Y-170180000D01*
X75311000Y-167640000D02*
X75311000Y-170180000D01*
X142875000Y-167640000D02*
X142875000Y-170180000D01*
X140589000Y-167640000D02*
X140589000Y-170180000D01*
X140589000Y-109220000D02*
X140589000Y-111760000D01*
X142875000Y-109220000D02*
X142875000Y-111760000D01*
D11*
X71950000Y-59780000D02*
X143950000Y-59780000D01*
X71950000Y-102780000D02*
X143950000Y-102780000D01*
X143950000Y-59780000D02*
X143950000Y-102780000D01*
X71950000Y-59780000D02*
X71950000Y-102780000D01*
D12*
X79450000Y-63880000D02*
X136450000Y-63880000D01*
X79450000Y-93380000D02*
X136450000Y-93380000D01*
D13*
X76950000Y-61880000D02*
X138950000Y-61880000D01*
X76950000Y-61880000D02*
X76950000Y-100680000D01*
X138950000Y-61880000D02*
X138950000Y-100680000D01*
X76950000Y-100680000D02*
X138950000Y-100680000D01*
D12*
X79450000Y-63880000D02*
X79450000Y-93380000D01*
X136450000Y-63880000D02*
X136450000Y-93380000D01*
D10*
X82088000Y-116459000D02*
X81488000Y-116459000D01*
X63740189Y-156534760D02*
X64986910Y-154139830D01*
X63562787Y-156442410D02*
X64809508Y-154047481D01*
X63651488Y-156488585D02*
X64898209Y-154093656D01*
X59280977Y-152691476D02*
X60354261Y-153250191D01*
X66040000Y-156210000D02*
X64966717Y-155651284D01*
X59730900Y-154447656D02*
X64343356Y-156848749D01*
X60977621Y-152052727D02*
X59730900Y-154447656D01*
X65590078Y-154453820D02*
X60977621Y-152052727D01*
X64343356Y-156848749D02*
X65590078Y-154453820D01*
X63740189Y-161868760D02*
X64986910Y-159473830D01*
X63562787Y-161776410D02*
X64809508Y-159381481D01*
X63651488Y-161822585D02*
X64898209Y-159427656D01*
X59280977Y-158025476D02*
X60354261Y-158584191D01*
X66040000Y-161544000D02*
X64966717Y-160985284D01*
X59730900Y-159781656D02*
X64343356Y-162182749D01*
X60977621Y-157386727D02*
X59730900Y-159781656D01*
X65590078Y-159787820D02*
X60977621Y-157386727D01*
X64343356Y-162182749D02*
X65590078Y-159787820D01*
D14*
X167898000Y-93853000D02*
G75*
G03*
X167898000Y-93853000I-6100000J0D01*
G01*
D10*
X150315564Y-139625000D02*
G75*
G03*
X150315564Y-139625000I-2015564J0D01*
G01*
X145300000Y-142625000D02*
X145300000Y-139625000D01*
X151300000Y-142625000D02*
X145300000Y-142625000D01*
X151300000Y-136625000D02*
X151300000Y-142625000D01*
X145300000Y-136625000D02*
X151300000Y-136625000D01*
X145300000Y-139625000D02*
X145300000Y-136625000D01*
X160094564Y-134672000D02*
G75*
G03*
X160094564Y-134672000I-2015564J0D01*
G01*
X155079000Y-137672000D02*
X155079000Y-134672000D01*
X161079000Y-137672000D02*
X155079000Y-137672000D01*
X161079000Y-131672000D02*
X161079000Y-137672000D01*
X155079000Y-131672000D02*
X161079000Y-131672000D01*
X155079000Y-134672000D02*
X155079000Y-131672000D01*
X63229564Y-130048000D02*
G75*
G03*
X63229564Y-130048000I-2015564J0D01*
G01*
X58214000Y-133048000D02*
X58214000Y-130048000D01*
X64214000Y-133048000D02*
X58214000Y-133048000D01*
X64214000Y-127048000D02*
X64214000Y-133048000D01*
X58214000Y-127048000D02*
X64214000Y-127048000D01*
X58214000Y-130048000D02*
X58214000Y-127048000D01*
X63229564Y-144272000D02*
G75*
G03*
X63229564Y-144272000I-2015564J0D01*
G01*
X64214000Y-141272000D02*
X64214000Y-144272000D01*
X58214000Y-141272000D02*
X64214000Y-141272000D01*
X58214000Y-147272000D02*
X58214000Y-141272000D01*
X64214000Y-147272000D02*
X58214000Y-147272000D01*
X64214000Y-144272000D02*
X64214000Y-147272000D01*
X56117564Y-137160000D02*
G75*
G03*
X56117564Y-137160000I-2015564J0D01*
G01*
X51102000Y-140160000D02*
X51102000Y-137160000D01*
X57102000Y-140160000D02*
X51102000Y-140160000D01*
X57102000Y-134160000D02*
X57102000Y-140160000D01*
X51102000Y-134160000D02*
X57102000Y-134160000D01*
X51102000Y-137160000D02*
X51102000Y-134160000D01*
X70341564Y-137160000D02*
G75*
G03*
X70341564Y-137160000I-2015564J0D01*
G01*
X71326000Y-134160000D02*
X71326000Y-137160000D01*
X65326000Y-134160000D02*
X71326000Y-134160000D01*
X65326000Y-140160000D02*
X65326000Y-134160000D01*
X71326000Y-140160000D02*
X65326000Y-140160000D01*
X71326000Y-137160000D02*
X71326000Y-140160000D01*
X75311000Y-109220000D02*
X75311000Y-111760000D01*
X73025000Y-109220000D02*
X73025000Y-111760000D01*
D11*
X102021428Y-169092571D02*
X102354761Y-169092571D01*
X102497619Y-169616380D02*
X102021428Y-169616380D01*
X102021428Y-168616380D01*
X102497619Y-168616380D01*
X102830952Y-168616380D02*
X103497619Y-169616380D01*
X103497619Y-168616380D02*
X102830952Y-169616380D01*
X103735714Y-168616380D02*
X104307142Y-168616380D01*
X104021428Y-169616380D02*
X104021428Y-168616380D01*
X104640476Y-169092571D02*
X104973809Y-169092571D01*
X105116666Y-169616380D02*
X104640476Y-169616380D01*
X104640476Y-168616380D01*
X105116666Y-168616380D01*
X105545238Y-169616380D02*
X105545238Y-168616380D01*
X106116666Y-169616380D01*
X106116666Y-168616380D01*
X106545238Y-169568761D02*
X106688095Y-169616380D01*
X106926190Y-169616380D01*
X107021428Y-169568761D01*
X107069047Y-169521142D01*
X107116666Y-169425904D01*
X107116666Y-169330666D01*
X107069047Y-169235428D01*
X107021428Y-169187809D01*
X106926190Y-169140190D01*
X106735714Y-169092571D01*
X106640476Y-169044952D01*
X106592857Y-168997333D01*
X106545238Y-168902095D01*
X106545238Y-168806857D01*
X106592857Y-168711619D01*
X106640476Y-168664000D01*
X106735714Y-168616380D01*
X106973809Y-168616380D01*
X107116666Y-168664000D01*
X107545238Y-169616380D02*
X107545238Y-168616380D01*
X108211904Y-168616380D02*
X108402380Y-168616380D01*
X108497619Y-168664000D01*
X108592857Y-168759238D01*
X108640476Y-168949714D01*
X108640476Y-169283047D01*
X108592857Y-169473523D01*
X108497619Y-169568761D01*
X108402380Y-169616380D01*
X108211904Y-169616380D01*
X108116666Y-169568761D01*
X108021428Y-169473523D01*
X107973809Y-169283047D01*
X107973809Y-168949714D01*
X108021428Y-168759238D01*
X108116666Y-168664000D01*
X108211904Y-168616380D01*
X109069047Y-169616380D02*
X109069047Y-168616380D01*
X109640476Y-169616380D01*
X109640476Y-168616380D01*
X110878571Y-169616380D02*
X110878571Y-168616380D01*
X111259523Y-168616380D01*
X111354761Y-168664000D01*
X111402380Y-168711619D01*
X111450000Y-168806857D01*
X111450000Y-168949714D01*
X111402380Y-169044952D01*
X111354761Y-169092571D01*
X111259523Y-169140190D01*
X110878571Y-169140190D01*
X111878571Y-169616380D02*
X111878571Y-168616380D01*
X112354761Y-169616380D02*
X112354761Y-168616380D01*
X112926190Y-169616380D01*
X112926190Y-168616380D01*
X113354761Y-169568761D02*
X113497619Y-169616380D01*
X113735714Y-169616380D01*
X113830952Y-169568761D01*
X113878571Y-169521142D01*
X113926190Y-169425904D01*
X113926190Y-169330666D01*
X113878571Y-169235428D01*
X113830952Y-169187809D01*
X113735714Y-169140190D01*
X113545238Y-169092571D01*
X113450000Y-169044952D01*
X113402380Y-168997333D01*
X113354761Y-168902095D01*
X113354761Y-168806857D01*
X113402380Y-168711619D01*
X113450000Y-168664000D01*
X113545238Y-168616380D01*
X113783333Y-168616380D01*
X113926190Y-168664000D01*
X60436333Y-59761380D02*
X60436333Y-58761380D01*
X60436333Y-59237571D02*
X61007761Y-59237571D01*
X61007761Y-59761380D02*
X61007761Y-58761380D01*
X61674428Y-58761380D02*
X61864904Y-58761380D01*
X61960142Y-58809000D01*
X62055380Y-58904238D01*
X62103000Y-59094714D01*
X62103000Y-59428047D01*
X62055380Y-59618523D01*
X61960142Y-59713761D01*
X61864904Y-59761380D01*
X61674428Y-59761380D01*
X61579190Y-59713761D01*
X61483952Y-59618523D01*
X61436333Y-59428047D01*
X61436333Y-59094714D01*
X61483952Y-58904238D01*
X61579190Y-58809000D01*
X61674428Y-58761380D01*
X63007761Y-59761380D02*
X62531571Y-59761380D01*
X62531571Y-58761380D01*
X63341095Y-59237571D02*
X63674428Y-59237571D01*
X63817285Y-59761380D02*
X63341095Y-59761380D01*
X63341095Y-58761380D01*
X63817285Y-58761380D01*
X152130333Y-59761380D02*
X152130333Y-58761380D01*
X152130333Y-59237571D02*
X152701761Y-59237571D01*
X152701761Y-59761380D02*
X152701761Y-58761380D01*
X153368428Y-58761380D02*
X153558904Y-58761380D01*
X153654142Y-58809000D01*
X153749380Y-58904238D01*
X153797000Y-59094714D01*
X153797000Y-59428047D01*
X153749380Y-59618523D01*
X153654142Y-59713761D01*
X153558904Y-59761380D01*
X153368428Y-59761380D01*
X153273190Y-59713761D01*
X153177952Y-59618523D01*
X153130333Y-59428047D01*
X153130333Y-59094714D01*
X153177952Y-58904238D01*
X153273190Y-58809000D01*
X153368428Y-58761380D01*
X154701761Y-59761380D02*
X154225571Y-59761380D01*
X154225571Y-58761380D01*
X155035095Y-59237571D02*
X155368428Y-59237571D01*
X155511285Y-59761380D02*
X155035095Y-59761380D01*
X155035095Y-58761380D01*
X155511285Y-58761380D01*
X68335733Y-106624380D02*
X68335733Y-105624380D01*
X68335733Y-106100571D02*
X68907161Y-106100571D01*
X68907161Y-106624380D02*
X68907161Y-105624380D01*
X69573828Y-105624380D02*
X69764304Y-105624380D01*
X69859542Y-105672000D01*
X69954780Y-105767238D01*
X70002400Y-105957714D01*
X70002400Y-106291047D01*
X69954780Y-106481523D01*
X69859542Y-106576761D01*
X69764304Y-106624380D01*
X69573828Y-106624380D01*
X69478590Y-106576761D01*
X69383352Y-106481523D01*
X69335733Y-106291047D01*
X69335733Y-105957714D01*
X69383352Y-105767238D01*
X69478590Y-105672000D01*
X69573828Y-105624380D01*
X70907161Y-106624380D02*
X70430971Y-106624380D01*
X70430971Y-105624380D01*
X71240495Y-106100571D02*
X71573828Y-106100571D01*
X71716685Y-106624380D02*
X71240495Y-106624380D01*
X71240495Y-105624380D01*
X71716685Y-105624380D01*
X144230933Y-106624380D02*
X144230933Y-105624380D01*
X144230933Y-106100571D02*
X144802361Y-106100571D01*
X144802361Y-106624380D02*
X144802361Y-105624380D01*
X145469028Y-105624380D02*
X145659504Y-105624380D01*
X145754742Y-105672000D01*
X145849980Y-105767238D01*
X145897600Y-105957714D01*
X145897600Y-106291047D01*
X145849980Y-106481523D01*
X145754742Y-106576761D01*
X145659504Y-106624380D01*
X145469028Y-106624380D01*
X145373790Y-106576761D01*
X145278552Y-106481523D01*
X145230933Y-106291047D01*
X145230933Y-105957714D01*
X145278552Y-105767238D01*
X145373790Y-105672000D01*
X145469028Y-105624380D01*
X146802361Y-106624380D02*
X146326171Y-106624380D01*
X146326171Y-105624380D01*
X147135695Y-106100571D02*
X147469028Y-106100571D01*
X147611885Y-106624380D02*
X147135695Y-106624380D01*
X147135695Y-105624380D01*
X147611885Y-105624380D01*
X144230933Y-223464380D02*
X144230933Y-222464380D01*
X144230933Y-222940571D02*
X144802361Y-222940571D01*
X144802361Y-223464380D02*
X144802361Y-222464380D01*
X145469028Y-222464380D02*
X145659504Y-222464380D01*
X145754742Y-222512000D01*
X145849980Y-222607238D01*
X145897600Y-222797714D01*
X145897600Y-223131047D01*
X145849980Y-223321523D01*
X145754742Y-223416761D01*
X145659504Y-223464380D01*
X145469028Y-223464380D01*
X145373790Y-223416761D01*
X145278552Y-223321523D01*
X145230933Y-223131047D01*
X145230933Y-222797714D01*
X145278552Y-222607238D01*
X145373790Y-222512000D01*
X145469028Y-222464380D01*
X146802361Y-223464380D02*
X146326171Y-223464380D01*
X146326171Y-222464380D01*
X147135695Y-222940571D02*
X147469028Y-222940571D01*
X147611885Y-223464380D02*
X147135695Y-223464380D01*
X147135695Y-222464380D01*
X147611885Y-222464380D01*
X68335733Y-223464380D02*
X68335733Y-222464380D01*
X68335733Y-222940571D02*
X68907161Y-222940571D01*
X68907161Y-223464380D02*
X68907161Y-222464380D01*
X69573828Y-222464380D02*
X69764304Y-222464380D01*
X69859542Y-222512000D01*
X69954780Y-222607238D01*
X70002400Y-222797714D01*
X70002400Y-223131047D01*
X69954780Y-223321523D01*
X69859542Y-223416761D01*
X69764304Y-223464380D01*
X69573828Y-223464380D01*
X69478590Y-223416761D01*
X69383352Y-223321523D01*
X69335733Y-223131047D01*
X69335733Y-222797714D01*
X69383352Y-222607238D01*
X69478590Y-222512000D01*
X69573828Y-222464380D01*
X70907161Y-223464380D02*
X70430971Y-223464380D01*
X70430971Y-222464380D01*
X71240495Y-222940571D02*
X71573828Y-222940571D01*
X71716685Y-223464380D02*
X71240495Y-223464380D01*
X71240495Y-222464380D01*
X71716685Y-222464380D01*
X152130333Y-176601380D02*
X152130333Y-175601380D01*
X152130333Y-176077571D02*
X152701761Y-176077571D01*
X152701761Y-176601380D02*
X152701761Y-175601380D01*
X153368428Y-175601380D02*
X153558904Y-175601380D01*
X153654142Y-175649000D01*
X153749380Y-175744238D01*
X153797000Y-175934714D01*
X153797000Y-176268047D01*
X153749380Y-176458523D01*
X153654142Y-176553761D01*
X153558904Y-176601380D01*
X153368428Y-176601380D01*
X153273190Y-176553761D01*
X153177952Y-176458523D01*
X153130333Y-176268047D01*
X153130333Y-175934714D01*
X153177952Y-175744238D01*
X153273190Y-175649000D01*
X153368428Y-175601380D01*
X154701761Y-176601380D02*
X154225571Y-176601380D01*
X154225571Y-175601380D01*
X155035095Y-176077571D02*
X155368428Y-176077571D01*
X155511285Y-176601380D02*
X155035095Y-176601380D01*
X155035095Y-175601380D01*
X155511285Y-175601380D01*
X79438666Y-169441761D02*
X79581523Y-169489380D01*
X79819619Y-169489380D01*
X79914857Y-169441761D01*
X79962476Y-169394142D01*
X80010095Y-169298904D01*
X80010095Y-169203666D01*
X79962476Y-169108428D01*
X79914857Y-169060809D01*
X79819619Y-169013190D01*
X79629142Y-168965571D01*
X79533904Y-168917952D01*
X79486285Y-168870333D01*
X79438666Y-168775095D01*
X79438666Y-168679857D01*
X79486285Y-168584619D01*
X79533904Y-168537000D01*
X79629142Y-168489380D01*
X79867238Y-168489380D01*
X80010095Y-168537000D01*
X80343428Y-168489380D02*
X80581523Y-169489380D01*
X80772000Y-168775095D01*
X80962476Y-169489380D01*
X81200571Y-168489380D01*
X82105333Y-169489380D02*
X81533904Y-169489380D01*
X81819619Y-169489380D02*
X81819619Y-168489380D01*
X81724380Y-168632238D01*
X81629142Y-168727476D01*
X81533904Y-168775095D01*
X61488402Y-151906859D02*
X61593130Y-152015062D01*
X61804323Y-152125002D01*
X61910788Y-152126740D01*
X61975015Y-152106489D01*
X62061229Y-152044000D01*
X62105205Y-151959523D01*
X62106943Y-151853057D01*
X62086692Y-151788831D01*
X62024203Y-151702616D01*
X61877237Y-151572425D01*
X61814747Y-151486211D01*
X61794497Y-151421984D01*
X61796234Y-151315519D01*
X61840210Y-151231042D01*
X61926425Y-151168552D01*
X61990652Y-151148302D01*
X62097117Y-151150039D01*
X62308310Y-151259979D01*
X62413038Y-151368182D01*
X62890963Y-152100138D02*
X62995691Y-152208341D01*
X63015942Y-152272567D01*
X63014204Y-152379033D01*
X62948240Y-152505748D01*
X62862025Y-152568238D01*
X62797799Y-152588488D01*
X62691334Y-152586751D01*
X62353425Y-152410847D01*
X62815173Y-151523836D01*
X63110844Y-151677752D01*
X63173333Y-151763967D01*
X63193583Y-151828193D01*
X63191846Y-151934658D01*
X63147870Y-152019136D01*
X63061655Y-152081625D01*
X62997428Y-152101875D01*
X62890963Y-152100138D01*
X62595293Y-151946222D01*
X63705060Y-153114463D02*
X63198197Y-152850607D01*
X63451629Y-152982535D02*
X63913377Y-152095524D01*
X63762936Y-152178264D01*
X63634483Y-152218765D01*
X63528017Y-152217028D01*
X64460742Y-152487834D02*
X64524968Y-152467584D01*
X64631434Y-152469321D01*
X64842627Y-152579261D01*
X64905116Y-152665476D01*
X64925366Y-152729702D01*
X64923629Y-152836168D01*
X64879653Y-152920645D01*
X64771450Y-153025373D01*
X64000730Y-153268380D01*
X64549832Y-153554224D01*
X65560683Y-152953058D02*
X65645160Y-152997034D01*
X65707649Y-153083248D01*
X65727900Y-153147475D01*
X65726163Y-153253940D01*
X65680449Y-153444883D01*
X65570509Y-153656076D01*
X65440318Y-153803042D01*
X65354103Y-153865531D01*
X65289877Y-153885782D01*
X65183412Y-153884045D01*
X65098934Y-153840068D01*
X65036445Y-153753854D01*
X65016195Y-153689627D01*
X65017932Y-153583162D01*
X65063646Y-153392219D01*
X65173586Y-153181026D01*
X65303776Y-153034060D01*
X65389991Y-152971571D01*
X65454218Y-152951320D01*
X65560683Y-152953058D01*
X64767654Y-158086952D02*
X65229402Y-157199941D01*
X65274517Y-158350808D02*
X65158226Y-157646053D01*
X65736266Y-157463798D02*
X64965546Y-157706805D01*
D14*
X61703517Y-154360574D02*
X62072916Y-153650966D01*
X62241870Y-153738918D01*
X62325652Y-153825480D01*
X62358053Y-153928243D01*
X62356663Y-154013415D01*
X62320092Y-154166169D01*
X62267321Y-154267541D01*
X62163169Y-154385115D01*
X62094197Y-154435106D01*
X61991434Y-154467507D01*
X61872471Y-154448526D01*
X61703517Y-154360574D01*
X62784825Y-154923468D02*
X62379334Y-154712383D01*
X62582080Y-154817925D02*
X62951479Y-154108317D01*
X62831126Y-154174509D01*
X62728363Y-154206909D01*
X62643191Y-154205520D01*
D11*
X61488402Y-157240859D02*
X61593130Y-157349062D01*
X61804323Y-157459002D01*
X61910788Y-157460740D01*
X61975015Y-157440489D01*
X62061229Y-157378000D01*
X62105205Y-157293523D01*
X62106943Y-157187057D01*
X62086692Y-157122831D01*
X62024203Y-157036616D01*
X61877237Y-156906425D01*
X61814747Y-156820211D01*
X61794497Y-156755984D01*
X61796234Y-156649519D01*
X61840210Y-156565042D01*
X61926425Y-156502552D01*
X61990652Y-156482302D01*
X62097117Y-156484039D01*
X62308310Y-156593979D01*
X62413038Y-156702182D01*
X62890963Y-157434138D02*
X62995691Y-157542341D01*
X63015942Y-157606567D01*
X63014204Y-157713033D01*
X62948240Y-157839748D01*
X62862025Y-157902238D01*
X62797799Y-157922488D01*
X62691334Y-157920751D01*
X62353425Y-157744847D01*
X62815173Y-156857836D01*
X63110844Y-157011752D01*
X63173333Y-157097967D01*
X63193583Y-157162193D01*
X63191846Y-157268658D01*
X63147870Y-157353136D01*
X63061655Y-157415625D01*
X62997428Y-157435875D01*
X62890963Y-157434138D01*
X62595293Y-157280222D01*
X63705060Y-158448463D02*
X63198197Y-158184607D01*
X63451629Y-158316535D02*
X63913377Y-157429524D01*
X63762936Y-157512264D01*
X63634483Y-157552765D01*
X63528017Y-157551028D01*
X64460742Y-157821834D02*
X64524968Y-157801584D01*
X64631434Y-157803321D01*
X64842627Y-157913261D01*
X64905116Y-157999476D01*
X64925366Y-158063702D01*
X64923629Y-158170168D01*
X64879653Y-158254645D01*
X64771450Y-158359373D01*
X64000730Y-158602380D01*
X64549832Y-158888224D01*
X65560683Y-158287058D02*
X65645160Y-158331034D01*
X65707649Y-158417248D01*
X65727900Y-158481475D01*
X65726163Y-158587940D01*
X65680449Y-158778883D01*
X65570509Y-158990076D01*
X65440318Y-159137042D01*
X65354103Y-159199531D01*
X65289877Y-159219782D01*
X65183412Y-159218045D01*
X65098934Y-159174068D01*
X65036445Y-159087854D01*
X65016195Y-159023627D01*
X65017932Y-158917162D01*
X65063646Y-158726219D01*
X65173586Y-158515026D01*
X65303776Y-158368060D01*
X65389991Y-158305571D01*
X65454218Y-158285320D01*
X65560683Y-158287058D01*
X64767654Y-163420952D02*
X65229402Y-162533941D01*
X65274517Y-163684808D02*
X65158226Y-162980053D01*
X65736266Y-162797798D02*
X64965546Y-163040805D01*
D14*
X61703517Y-159694574D02*
X62072916Y-158984966D01*
X62241870Y-159072918D01*
X62325652Y-159159480D01*
X62358053Y-159262243D01*
X62356663Y-159347415D01*
X62320092Y-159500169D01*
X62267321Y-159601541D01*
X62163169Y-159719115D01*
X62094197Y-159769106D01*
X61991434Y-159801507D01*
X61872471Y-159782526D01*
X61703517Y-159694574D01*
X62713553Y-159404356D02*
X62764934Y-159388155D01*
X62850106Y-159389545D01*
X63019060Y-159477498D01*
X63069052Y-159546469D01*
X63085252Y-159597851D01*
X63083862Y-159683023D01*
X63048681Y-159750605D01*
X62962119Y-159834387D01*
X62345544Y-160028792D01*
X62784825Y-160257468D01*
D11*
X107188095Y-136612380D02*
X107188095Y-137421904D01*
X107235714Y-137517142D01*
X107283333Y-137564761D01*
X107378571Y-137612380D01*
X107569047Y-137612380D01*
X107664285Y-137564761D01*
X107711904Y-137517142D01*
X107759523Y-137421904D01*
X107759523Y-136612380D01*
X108188095Y-136707619D02*
X108235714Y-136660000D01*
X108330952Y-136612380D01*
X108569047Y-136612380D01*
X108664285Y-136660000D01*
X108711904Y-136707619D01*
X108759523Y-136802857D01*
X108759523Y-136898095D01*
X108711904Y-137040952D01*
X108140476Y-137612380D01*
X108759523Y-137612380D01*
X103569047Y-139604761D02*
X103711904Y-139652380D01*
X103950000Y-139652380D01*
X104045238Y-139604761D01*
X104092857Y-139557142D01*
X104140476Y-139461904D01*
X104140476Y-139366666D01*
X104092857Y-139271428D01*
X104045238Y-139223809D01*
X103950000Y-139176190D01*
X103759523Y-139128571D01*
X103664285Y-139080952D01*
X103616666Y-139033333D01*
X103569047Y-138938095D01*
X103569047Y-138842857D01*
X103616666Y-138747619D01*
X103664285Y-138700000D01*
X103759523Y-138652380D01*
X103997619Y-138652380D01*
X104140476Y-138700000D01*
X104569047Y-139652380D02*
X104569047Y-138652380D01*
X104950000Y-138652380D01*
X105045238Y-138700000D01*
X105092857Y-138747619D01*
X105140476Y-138842857D01*
X105140476Y-138985714D01*
X105092857Y-139080952D01*
X105045238Y-139128571D01*
X104950000Y-139176190D01*
X104569047Y-139176190D01*
X105569047Y-139652380D02*
X105569047Y-138652380D01*
X105807142Y-139747619D02*
X106569047Y-139747619D01*
X106807142Y-139652380D02*
X106807142Y-138652380D01*
X107045238Y-138652380D01*
X107188095Y-138700000D01*
X107283333Y-138795238D01*
X107330952Y-138890476D01*
X107378571Y-139080952D01*
X107378571Y-139223809D01*
X107330952Y-139414285D01*
X107283333Y-139509523D01*
X107188095Y-139604761D01*
X107045238Y-139652380D01*
X106807142Y-139652380D01*
X107807142Y-139652380D02*
X107807142Y-138652380D01*
X108235714Y-139604761D02*
X108378571Y-139652380D01*
X108616666Y-139652380D01*
X108711904Y-139604761D01*
X108759523Y-139557142D01*
X108807142Y-139461904D01*
X108807142Y-139366666D01*
X108759523Y-139271428D01*
X108711904Y-139223809D01*
X108616666Y-139176190D01*
X108426190Y-139128571D01*
X108330952Y-139080952D01*
X108283333Y-139033333D01*
X108235714Y-138938095D01*
X108235714Y-138842857D01*
X108283333Y-138747619D01*
X108330952Y-138700000D01*
X108426190Y-138652380D01*
X108664285Y-138652380D01*
X108807142Y-138700000D01*
X109235714Y-139652380D02*
X109235714Y-138652380D01*
X109616666Y-138652380D01*
X109711904Y-138700000D01*
X109759523Y-138747619D01*
X109807142Y-138842857D01*
X109807142Y-138985714D01*
X109759523Y-139080952D01*
X109711904Y-139128571D01*
X109616666Y-139176190D01*
X109235714Y-139176190D01*
X110711904Y-139652380D02*
X110235714Y-139652380D01*
X110235714Y-138652380D01*
X110997619Y-139366666D02*
X111473809Y-139366666D01*
X110902380Y-139652380D02*
X111235714Y-138652380D01*
X111569047Y-139652380D01*
X112092857Y-139176190D02*
X112092857Y-139652380D01*
X111759523Y-138652380D02*
X112092857Y-139176190D01*
X112426190Y-138652380D01*
X146966666Y-140029761D02*
X147109523Y-140077380D01*
X147347619Y-140077380D01*
X147442857Y-140029761D01*
X147490476Y-139982142D01*
X147538095Y-139886904D01*
X147538095Y-139791666D01*
X147490476Y-139696428D01*
X147442857Y-139648809D01*
X147347619Y-139601190D01*
X147157142Y-139553571D01*
X147061904Y-139505952D01*
X147014285Y-139458333D01*
X146966666Y-139363095D01*
X146966666Y-139267857D01*
X147014285Y-139172619D01*
X147061904Y-139125000D01*
X147157142Y-139077380D01*
X147395238Y-139077380D01*
X147538095Y-139125000D01*
X147871428Y-139077380D02*
X148109523Y-140077380D01*
X148300000Y-139363095D01*
X148490476Y-140077380D01*
X148728571Y-139077380D01*
X149014285Y-139077380D02*
X149633333Y-139077380D01*
X149300000Y-139458333D01*
X149442857Y-139458333D01*
X149538095Y-139505952D01*
X149585714Y-139553571D01*
X149633333Y-139648809D01*
X149633333Y-139886904D01*
X149585714Y-139982142D01*
X149538095Y-140029761D01*
X149442857Y-140077380D01*
X149157142Y-140077380D01*
X149061904Y-140029761D01*
X149014285Y-139982142D01*
X156745666Y-135076761D02*
X156888523Y-135124380D01*
X157126619Y-135124380D01*
X157221857Y-135076761D01*
X157269476Y-135029142D01*
X157317095Y-134933904D01*
X157317095Y-134838666D01*
X157269476Y-134743428D01*
X157221857Y-134695809D01*
X157126619Y-134648190D01*
X156936142Y-134600571D01*
X156840904Y-134552952D01*
X156793285Y-134505333D01*
X156745666Y-134410095D01*
X156745666Y-134314857D01*
X156793285Y-134219619D01*
X156840904Y-134172000D01*
X156936142Y-134124380D01*
X157174238Y-134124380D01*
X157317095Y-134172000D01*
X157650428Y-134124380D02*
X157888523Y-135124380D01*
X158079000Y-134410095D01*
X158269476Y-135124380D01*
X158507571Y-134124380D01*
X159317095Y-134457714D02*
X159317095Y-135124380D01*
X159079000Y-134076761D02*
X158840904Y-134791047D01*
X159459952Y-134791047D01*
X60428285Y-123912380D02*
X60428285Y-124721904D01*
X60475904Y-124817142D01*
X60523523Y-124864761D01*
X60618761Y-124912380D01*
X60809238Y-124912380D01*
X60904476Y-124864761D01*
X60952095Y-124817142D01*
X60999714Y-124721904D01*
X60999714Y-123912380D01*
X61475904Y-124912380D02*
X61475904Y-123912380D01*
X61856857Y-123912380D01*
X61952095Y-123960000D01*
X61999714Y-124007619D01*
X62047333Y-124102857D01*
X62047333Y-124245714D01*
X61999714Y-124340952D01*
X61952095Y-124388571D01*
X61856857Y-124436190D01*
X61475904Y-124436190D01*
X59880666Y-130452761D02*
X60023523Y-130500380D01*
X60261619Y-130500380D01*
X60356857Y-130452761D01*
X60404476Y-130405142D01*
X60452095Y-130309904D01*
X60452095Y-130214666D01*
X60404476Y-130119428D01*
X60356857Y-130071809D01*
X60261619Y-130024190D01*
X60071142Y-129976571D01*
X59975904Y-129928952D01*
X59928285Y-129881333D01*
X59880666Y-129786095D01*
X59880666Y-129690857D01*
X59928285Y-129595619D01*
X59975904Y-129548000D01*
X60071142Y-129500380D01*
X60309238Y-129500380D01*
X60452095Y-129548000D01*
X60785428Y-129500380D02*
X61023523Y-130500380D01*
X61214000Y-129786095D01*
X61404476Y-130500380D01*
X61642571Y-129500380D01*
X62499714Y-129500380D02*
X62023523Y-129500380D01*
X61975904Y-129976571D01*
X62023523Y-129928952D01*
X62118761Y-129881333D01*
X62356857Y-129881333D01*
X62452095Y-129928952D01*
X62499714Y-129976571D01*
X62547333Y-130071809D01*
X62547333Y-130309904D01*
X62499714Y-130405142D01*
X62452095Y-130452761D01*
X62356857Y-130500380D01*
X62118761Y-130500380D01*
X62023523Y-130452761D01*
X61975904Y-130405142D01*
X60428285Y-150312380D02*
X60428285Y-149312380D01*
X60666380Y-149312380D01*
X60809238Y-149360000D01*
X60904476Y-149455238D01*
X60952095Y-149550476D01*
X60999714Y-149740952D01*
X60999714Y-149883809D01*
X60952095Y-150074285D01*
X60904476Y-150169523D01*
X60809238Y-150264761D01*
X60666380Y-150312380D01*
X60428285Y-150312380D01*
X61428285Y-150312380D02*
X61428285Y-149312380D01*
X61999714Y-150312380D01*
X61999714Y-149312380D01*
X59880666Y-144676761D02*
X60023523Y-144724380D01*
X60261619Y-144724380D01*
X60356857Y-144676761D01*
X60404476Y-144629142D01*
X60452095Y-144533904D01*
X60452095Y-144438666D01*
X60404476Y-144343428D01*
X60356857Y-144295809D01*
X60261619Y-144248190D01*
X60071142Y-144200571D01*
X59975904Y-144152952D01*
X59928285Y-144105333D01*
X59880666Y-144010095D01*
X59880666Y-143914857D01*
X59928285Y-143819619D01*
X59975904Y-143772000D01*
X60071142Y-143724380D01*
X60309238Y-143724380D01*
X60452095Y-143772000D01*
X60785428Y-143724380D02*
X61023523Y-144724380D01*
X61214000Y-144010095D01*
X61404476Y-144724380D01*
X61642571Y-143724380D01*
X62452095Y-143724380D02*
X62261619Y-143724380D01*
X62166380Y-143772000D01*
X62118761Y-143819619D01*
X62023523Y-143962476D01*
X61975904Y-144152952D01*
X61975904Y-144533904D01*
X62023523Y-144629142D01*
X62071142Y-144676761D01*
X62166380Y-144724380D01*
X62356857Y-144724380D01*
X62452095Y-144676761D01*
X62499714Y-144629142D01*
X62547333Y-144533904D01*
X62547333Y-144295809D01*
X62499714Y-144200571D01*
X62452095Y-144152952D01*
X62356857Y-144105333D01*
X62166380Y-144105333D01*
X62071142Y-144152952D01*
X62023523Y-144200571D01*
X61975904Y-144295809D01*
X49410952Y-137612380D02*
X48934761Y-137612380D01*
X48934761Y-136612380D01*
X50077619Y-137088571D02*
X49744285Y-137088571D01*
X49744285Y-137612380D02*
X49744285Y-136612380D01*
X50220476Y-136612380D01*
X52768666Y-137564761D02*
X52911523Y-137612380D01*
X53149619Y-137612380D01*
X53244857Y-137564761D01*
X53292476Y-137517142D01*
X53340095Y-137421904D01*
X53340095Y-137326666D01*
X53292476Y-137231428D01*
X53244857Y-137183809D01*
X53149619Y-137136190D01*
X52959142Y-137088571D01*
X52863904Y-137040952D01*
X52816285Y-136993333D01*
X52768666Y-136898095D01*
X52768666Y-136802857D01*
X52816285Y-136707619D01*
X52863904Y-136660000D01*
X52959142Y-136612380D01*
X53197238Y-136612380D01*
X53340095Y-136660000D01*
X53673428Y-136612380D02*
X53911523Y-137612380D01*
X54102000Y-136898095D01*
X54292476Y-137612380D01*
X54530571Y-136612380D01*
X54816285Y-136612380D02*
X55482952Y-136612380D01*
X55054380Y-137612380D01*
X72826571Y-137612380D02*
X72493238Y-137136190D01*
X72255142Y-137612380D02*
X72255142Y-136612380D01*
X72636095Y-136612380D01*
X72731333Y-136660000D01*
X72778952Y-136707619D01*
X72826571Y-136802857D01*
X72826571Y-136945714D01*
X72778952Y-137040952D01*
X72731333Y-137088571D01*
X72636095Y-137136190D01*
X72255142Y-137136190D01*
X73112285Y-136612380D02*
X73683714Y-136612380D01*
X73398000Y-137612380D02*
X73398000Y-136612380D01*
X66992666Y-137564761D02*
X67135523Y-137612380D01*
X67373619Y-137612380D01*
X67468857Y-137564761D01*
X67516476Y-137517142D01*
X67564095Y-137421904D01*
X67564095Y-137326666D01*
X67516476Y-137231428D01*
X67468857Y-137183809D01*
X67373619Y-137136190D01*
X67183142Y-137088571D01*
X67087904Y-137040952D01*
X67040285Y-136993333D01*
X66992666Y-136898095D01*
X66992666Y-136802857D01*
X67040285Y-136707619D01*
X67087904Y-136660000D01*
X67183142Y-136612380D01*
X67421238Y-136612380D01*
X67564095Y-136660000D01*
X67897428Y-136612380D02*
X68135523Y-137612380D01*
X68326000Y-136898095D01*
X68516476Y-137612380D01*
X68754571Y-136612380D01*
X69278380Y-137040952D02*
X69183142Y-136993333D01*
X69135523Y-136945714D01*
X69087904Y-136850476D01*
X69087904Y-136802857D01*
X69135523Y-136707619D01*
X69183142Y-136660000D01*
X69278380Y-136612380D01*
X69468857Y-136612380D01*
X69564095Y-136660000D01*
X69611714Y-136707619D01*
X69659333Y-136802857D01*
X69659333Y-136850476D01*
X69611714Y-136945714D01*
X69564095Y-136993333D01*
X69468857Y-137040952D01*
X69278380Y-137040952D01*
X69183142Y-137088571D01*
X69135523Y-137136190D01*
X69087904Y-137231428D01*
X69087904Y-137421904D01*
X69135523Y-137517142D01*
X69183142Y-137564761D01*
X69278380Y-137612380D01*
X69468857Y-137612380D01*
X69564095Y-137564761D01*
X69611714Y-137517142D01*
X69659333Y-137421904D01*
X69659333Y-137231428D01*
X69611714Y-137136190D01*
X69564095Y-137088571D01*
X69468857Y-137040952D01*
X153975096Y-159795807D02*
X154243566Y-159280257D01*
X153711240Y-159288944D02*
X154598251Y-158827195D01*
X154774155Y-159165104D01*
X154775892Y-159271569D01*
X154755642Y-159335796D01*
X154693153Y-159422011D01*
X154566437Y-159487975D01*
X154459972Y-159489712D01*
X154395745Y-159469462D01*
X154309530Y-159406972D01*
X154133626Y-159069064D01*
X154994035Y-159587490D02*
X154260941Y-160344909D01*
X155301868Y-160178831D01*
X154810641Y-161400874D02*
X154546785Y-160894011D01*
X154678713Y-161147443D02*
X155565724Y-160685694D01*
X155395032Y-160667181D01*
X155266579Y-160626680D01*
X155180364Y-160564191D01*
X60436333Y-176601380D02*
X60436333Y-175601380D01*
X60436333Y-176077571D02*
X61007761Y-176077571D01*
X61007761Y-176601380D02*
X61007761Y-175601380D01*
X61674428Y-175601380D02*
X61864904Y-175601380D01*
X61960142Y-175649000D01*
X62055380Y-175744238D01*
X62103000Y-175934714D01*
X62103000Y-176268047D01*
X62055380Y-176458523D01*
X61960142Y-176553761D01*
X61864904Y-176601380D01*
X61674428Y-176601380D01*
X61579190Y-176553761D01*
X61483952Y-176458523D01*
X61436333Y-176268047D01*
X61436333Y-175934714D01*
X61483952Y-175744238D01*
X61579190Y-175649000D01*
X61674428Y-175601380D01*
X63007761Y-176601380D02*
X62531571Y-176601380D01*
X62531571Y-175601380D01*
X63341095Y-176077571D02*
X63674428Y-176077571D01*
X63817285Y-176601380D02*
X63341095Y-176601380D01*
X63341095Y-175601380D01*
X63817285Y-175601380D01*
X144530933Y-165044380D02*
X144530933Y-164044380D01*
X144530933Y-164520571D02*
X145102361Y-164520571D01*
X145102361Y-165044380D02*
X145102361Y-164044380D01*
X145769028Y-164044380D02*
X145959504Y-164044380D01*
X146054742Y-164092000D01*
X146149980Y-164187238D01*
X146197600Y-164377714D01*
X146197600Y-164711047D01*
X146149980Y-164901523D01*
X146054742Y-164996761D01*
X145959504Y-165044380D01*
X145769028Y-165044380D01*
X145673790Y-164996761D01*
X145578552Y-164901523D01*
X145530933Y-164711047D01*
X145530933Y-164377714D01*
X145578552Y-164187238D01*
X145673790Y-164092000D01*
X145769028Y-164044380D01*
X147102361Y-165044380D02*
X146626171Y-165044380D01*
X146626171Y-164044380D01*
X147435695Y-164520571D02*
X147769028Y-164520571D01*
X147911885Y-165044380D02*
X147435695Y-165044380D01*
X147435695Y-164044380D01*
X147911885Y-164044380D01*
X160917047Y-149407571D02*
X161059904Y-149455190D01*
X161107523Y-149502809D01*
X161155142Y-149598047D01*
X161155142Y-149740904D01*
X161107523Y-149836142D01*
X161059904Y-149883761D01*
X160964666Y-149931380D01*
X160583714Y-149931380D01*
X160583714Y-148931380D01*
X160917047Y-148931380D01*
X161012285Y-148979000D01*
X161059904Y-149026619D01*
X161107523Y-149121857D01*
X161107523Y-149217095D01*
X161059904Y-149312333D01*
X161012285Y-149359952D01*
X160917047Y-149407571D01*
X160583714Y-149407571D01*
X161488476Y-148931380D02*
X162155142Y-148931380D01*
X161488476Y-149931380D01*
X162155142Y-149931380D01*
X163059904Y-149931380D02*
X162488476Y-149931380D01*
X162774190Y-149931380D02*
X162774190Y-148931380D01*
X162678952Y-149074238D01*
X162583714Y-149169476D01*
X162488476Y-149217095D01*
M02*
