M48
; DRILL file {KiCad (5.1.9-0-10_14)} date Saturday, July 17, 2021 at 10:46:43 PM
; FORMAT={-:-/ absolute / inch / decimal}
; #@! TF.CreationDate,2021-07-17T22:46:43-07:00
; #@! TF.GenerationSoftware,Kicad,Pcbnew,(5.1.9-0-10_14)
; #@! TF.FileFunction,NonPlated,1,2,NPTH
FMAT,2
INCH
T1C0.0200
T2C0.1476
%
G90
G05
T1
X2.885Y-4.31
X2.885Y-4.39
X2.885Y-6.61
X2.885Y-6.69
X2.92Y-4.31
X2.92Y-4.39
X2.92Y-6.61
X2.92Y-6.69
X2.955Y-4.31
X2.955Y-4.39
X2.955Y-6.61
X2.955Y-6.69
X5.545Y-4.31
X5.545Y-4.39
X5.545Y-6.61
X5.545Y-6.69
X5.58Y-4.31
X5.58Y-4.39
X5.58Y-6.61
X5.58Y-6.69
X5.615Y-4.31
X5.615Y-4.39
X5.615Y-6.61
X5.615Y-6.69
T2
X2.445Y-2.335
X2.445Y-6.935
X2.756Y-4.18
X2.756Y-8.78
X5.744Y-4.18
X5.744Y-8.78
X6.055Y-2.335
X6.055Y-6.935
T0
M30
