G04 #@! TF.GenerationSoftware,KiCad,Pcbnew,(5.1.9-0-10_14)*
G04 #@! TF.CreationDate,2021-07-17T22:46:38-07:00*
G04 #@! TF.ProjectId,system_advance,73797374-656d-45f6-9164-76616e63652e,1.0-dev0*
G04 #@! TF.SameCoordinates,Original*
G04 #@! TF.FileFunction,Other,Fab,Bot*
%FSLAX46Y46*%
G04 Gerber Fmt 4.6, Leading zero omitted, Abs format (unit mm)*
G04 Created by KiCad (PCBNEW (5.1.9-0-10_14)) date 2021-07-17 22:46:38*
%MOMM*%
%LPD*%
G01*
G04 APERTURE LIST*
%ADD10C,0.100000*%
%ADD11C,0.150000*%
G04 APERTURE END LIST*
D10*
X80518000Y-126489000D02*
X83058000Y-126489000D01*
X80518000Y-117983000D02*
X83058000Y-117983000D01*
X81488000Y-116459000D02*
X81488000Y-117979000D01*
X82088000Y-117979000D02*
X82088000Y-116459000D01*
X83058000Y-126489000D02*
X83058000Y-117983000D01*
X80518000Y-126489000D02*
X80518000Y-117983000D01*
X135026000Y-115550000D02*
X135026000Y-113050000D01*
X135026000Y-113050000D02*
X141326000Y-113050000D01*
X141326000Y-113050000D02*
X141326000Y-115550000D01*
X141326000Y-115550000D02*
X135026000Y-115550000D01*
X134366000Y-114300000D02*
X135026000Y-114300000D01*
X141986000Y-114300000D02*
X141326000Y-114300000D01*
X134104000Y-167553000D02*
X134104000Y-166293000D01*
X137604000Y-167553000D02*
X137604000Y-166293000D01*
X134104000Y-167553000D02*
X137604000Y-167553000D01*
X139304000Y-159503000D02*
X139304000Y-162843000D01*
X132104000Y-159503000D02*
X132404000Y-159503000D01*
X132404000Y-162843000D02*
X139304000Y-162843000D01*
X139604000Y-159503000D02*
X139604000Y-166293000D01*
X132104000Y-166293000D02*
X139604000Y-166293000D01*
X132104000Y-159503000D02*
X132104000Y-166293000D01*
X139304000Y-159503000D02*
X139604000Y-159503000D01*
X132404000Y-159503000D02*
X132404000Y-162843000D01*
D11*
X108283333Y-156568480D02*
X108283333Y-157282766D01*
X108330952Y-157425623D01*
X108426190Y-157520861D01*
X108569047Y-157568480D01*
X108664285Y-157568480D01*
X107283333Y-157568480D02*
X107854761Y-157568480D01*
X107569047Y-157568480D02*
X107569047Y-156568480D01*
X107664285Y-156711338D01*
X107759523Y-156806576D01*
X107854761Y-156854195D01*
X122507333Y-163028380D02*
X122507333Y-163742666D01*
X122554952Y-163885523D01*
X122650190Y-163980761D01*
X122793047Y-164028380D01*
X122888285Y-164028380D01*
X122078761Y-163123619D02*
X122031142Y-163076000D01*
X121935904Y-163028380D01*
X121697809Y-163028380D01*
X121602571Y-163076000D01*
X121554952Y-163123619D01*
X121507333Y-163218857D01*
X121507333Y-163314095D01*
X121554952Y-163456952D01*
X122126380Y-164028380D01*
X121507333Y-164028380D01*
X64069666Y-118181380D02*
X64069666Y-117181380D01*
X64069666Y-117657571D02*
X63498238Y-117657571D01*
X63498238Y-118181380D02*
X63498238Y-117181380D01*
X62831571Y-117181380D02*
X62641095Y-117181380D01*
X62545857Y-117229000D01*
X62450619Y-117324238D01*
X62403000Y-117514714D01*
X62403000Y-117848047D01*
X62450619Y-118038523D01*
X62545857Y-118133761D01*
X62641095Y-118181380D01*
X62831571Y-118181380D01*
X62926809Y-118133761D01*
X63022047Y-118038523D01*
X63069666Y-117848047D01*
X63069666Y-117514714D01*
X63022047Y-117324238D01*
X62926809Y-117229000D01*
X62831571Y-117181380D01*
X61498238Y-118181380D02*
X61974428Y-118181380D01*
X61974428Y-117181380D01*
X61164904Y-117657571D02*
X60831571Y-117657571D01*
X60688714Y-118181380D02*
X61164904Y-118181380D01*
X61164904Y-117181380D01*
X60688714Y-117181380D01*
X71369066Y-165044380D02*
X71369066Y-164044380D01*
X71369066Y-164520571D02*
X70797638Y-164520571D01*
X70797638Y-165044380D02*
X70797638Y-164044380D01*
X70130971Y-164044380D02*
X69940495Y-164044380D01*
X69845257Y-164092000D01*
X69750019Y-164187238D01*
X69702400Y-164377714D01*
X69702400Y-164711047D01*
X69750019Y-164901523D01*
X69845257Y-164996761D01*
X69940495Y-165044380D01*
X70130971Y-165044380D01*
X70226209Y-164996761D01*
X70321447Y-164901523D01*
X70369066Y-164711047D01*
X70369066Y-164377714D01*
X70321447Y-164187238D01*
X70226209Y-164092000D01*
X70130971Y-164044380D01*
X68797638Y-165044380D02*
X69273828Y-165044380D01*
X69273828Y-164044380D01*
X68464304Y-164520571D02*
X68130971Y-164520571D01*
X67988114Y-165044380D02*
X68464304Y-165044380D01*
X68464304Y-164044380D01*
X67988114Y-164044380D01*
X155763666Y-118181380D02*
X155763666Y-117181380D01*
X155763666Y-117657571D02*
X155192238Y-117657571D01*
X155192238Y-118181380D02*
X155192238Y-117181380D01*
X154525571Y-117181380D02*
X154335095Y-117181380D01*
X154239857Y-117229000D01*
X154144619Y-117324238D01*
X154097000Y-117514714D01*
X154097000Y-117848047D01*
X154144619Y-118038523D01*
X154239857Y-118133761D01*
X154335095Y-118181380D01*
X154525571Y-118181380D01*
X154620809Y-118133761D01*
X154716047Y-118038523D01*
X154763666Y-117848047D01*
X154763666Y-117514714D01*
X154716047Y-117324238D01*
X154620809Y-117229000D01*
X154525571Y-117181380D01*
X153192238Y-118181380D02*
X153668428Y-118181380D01*
X153668428Y-117181380D01*
X152858904Y-117657571D02*
X152525571Y-117657571D01*
X152382714Y-118181380D02*
X152858904Y-118181380D01*
X152858904Y-117181380D01*
X152382714Y-117181380D01*
X138342666Y-116784380D02*
X138676000Y-116308190D01*
X138914095Y-116784380D02*
X138914095Y-115784380D01*
X138533142Y-115784380D01*
X138437904Y-115832000D01*
X138390285Y-115879619D01*
X138342666Y-115974857D01*
X138342666Y-116117714D01*
X138390285Y-116212952D01*
X138437904Y-116260571D01*
X138533142Y-116308190D01*
X138914095Y-116308190D01*
X137390285Y-116784380D02*
X137961714Y-116784380D01*
X137676000Y-116784380D02*
X137676000Y-115784380D01*
X137771238Y-115927238D01*
X137866476Y-116022476D01*
X137961714Y-116070095D01*
X137187333Y-162427761D02*
X137044476Y-162475380D01*
X136806380Y-162475380D01*
X136711142Y-162427761D01*
X136663523Y-162380142D01*
X136615904Y-162284904D01*
X136615904Y-162189666D01*
X136663523Y-162094428D01*
X136711142Y-162046809D01*
X136806380Y-161999190D01*
X136996857Y-161951571D01*
X137092095Y-161903952D01*
X137139714Y-161856333D01*
X137187333Y-161761095D01*
X137187333Y-161665857D01*
X137139714Y-161570619D01*
X137092095Y-161523000D01*
X136996857Y-161475380D01*
X136758761Y-161475380D01*
X136615904Y-161523000D01*
X136282571Y-161475380D02*
X136044476Y-162475380D01*
X135854000Y-161761095D01*
X135663523Y-162475380D01*
X135425428Y-161475380D01*
X135092095Y-161570619D02*
X135044476Y-161523000D01*
X134949238Y-161475380D01*
X134711142Y-161475380D01*
X134615904Y-161523000D01*
X134568285Y-161570619D01*
X134520666Y-161665857D01*
X134520666Y-161761095D01*
X134568285Y-161903952D01*
X135139714Y-162475380D01*
X134520666Y-162475380D01*
X65111380Y-129413095D02*
X65920904Y-129413095D01*
X66016142Y-129460714D01*
X66063761Y-129508333D01*
X66111380Y-129603571D01*
X66111380Y-129794047D01*
X66063761Y-129889285D01*
X66016142Y-129936904D01*
X65920904Y-129984523D01*
X65111380Y-129984523D01*
X66111380Y-130984523D02*
X66111380Y-130413095D01*
X66111380Y-130698809D02*
X65111380Y-130698809D01*
X65254238Y-130603571D01*
X65349476Y-130508333D01*
X65397095Y-130413095D01*
X66111380Y-118324904D02*
X66111380Y-117848714D01*
X65111380Y-117848714D01*
X66111380Y-118658238D02*
X65111380Y-118658238D01*
X66111380Y-119134428D02*
X65111380Y-119134428D01*
X65111380Y-119515380D01*
X65159000Y-119610619D01*
X65206619Y-119658238D01*
X65301857Y-119705857D01*
X65444714Y-119705857D01*
X65539952Y-119658238D01*
X65587571Y-119610619D01*
X65635190Y-119515380D01*
X65635190Y-119134428D01*
X65111380Y-120324904D02*
X65111380Y-120515380D01*
X65159000Y-120610619D01*
X65254238Y-120705857D01*
X65444714Y-120753476D01*
X65778047Y-120753476D01*
X65968523Y-120705857D01*
X66063761Y-120610619D01*
X66111380Y-120515380D01*
X66111380Y-120324904D01*
X66063761Y-120229666D01*
X65968523Y-120134428D01*
X65778047Y-120086809D01*
X65444714Y-120086809D01*
X65254238Y-120134428D01*
X65159000Y-120229666D01*
X65111380Y-120324904D01*
X66206619Y-120943952D02*
X66206619Y-121705857D01*
X66016142Y-122515380D02*
X66063761Y-122467761D01*
X66111380Y-122324904D01*
X66111380Y-122229666D01*
X66063761Y-122086809D01*
X65968523Y-121991571D01*
X65873285Y-121943952D01*
X65682809Y-121896333D01*
X65539952Y-121896333D01*
X65349476Y-121943952D01*
X65254238Y-121991571D01*
X65159000Y-122086809D01*
X65111380Y-122229666D01*
X65111380Y-122324904D01*
X65159000Y-122467761D01*
X65206619Y-122515380D01*
X66111380Y-122943952D02*
X65111380Y-122943952D01*
X65587571Y-122943952D02*
X65587571Y-123515380D01*
X66111380Y-123515380D02*
X65111380Y-123515380D01*
X65825666Y-123943952D02*
X65825666Y-124420142D01*
X66111380Y-123848714D02*
X65111380Y-124182047D01*
X66111380Y-124515380D01*
X66111380Y-125420142D02*
X65635190Y-125086809D01*
X66111380Y-124848714D02*
X65111380Y-124848714D01*
X65111380Y-125229666D01*
X65159000Y-125324904D01*
X65206619Y-125372523D01*
X65301857Y-125420142D01*
X65444714Y-125420142D01*
X65539952Y-125372523D01*
X65587571Y-125324904D01*
X65635190Y-125229666D01*
X65635190Y-124848714D01*
X65159000Y-126372523D02*
X65111380Y-126277285D01*
X65111380Y-126134428D01*
X65159000Y-125991571D01*
X65254238Y-125896333D01*
X65349476Y-125848714D01*
X65539952Y-125801095D01*
X65682809Y-125801095D01*
X65873285Y-125848714D01*
X65968523Y-125896333D01*
X66063761Y-125991571D01*
X66111380Y-126134428D01*
X66111380Y-126229666D01*
X66063761Y-126372523D01*
X66016142Y-126420142D01*
X65682809Y-126420142D01*
X65682809Y-126229666D01*
X65587571Y-126848714D02*
X65587571Y-127182047D01*
X66111380Y-127324904D02*
X66111380Y-126848714D01*
X65111380Y-126848714D01*
X65111380Y-127324904D01*
X66111380Y-128324904D02*
X65635190Y-127991571D01*
X66111380Y-127753476D02*
X65111380Y-127753476D01*
X65111380Y-128134428D01*
X65159000Y-128229666D01*
X65206619Y-128277285D01*
X65301857Y-128324904D01*
X65444714Y-128324904D01*
X65539952Y-128277285D01*
X65587571Y-128229666D01*
X65635190Y-128134428D01*
X65635190Y-127753476D01*
M02*
