G04 #@! TF.GenerationSoftware,KiCad,Pcbnew,(5.1.9-0-10_14)*
G04 #@! TF.CreationDate,2021-07-18T00:17:51-07:00*
G04 #@! TF.ProjectId,system_advance,73797374-656d-45f6-9164-76616e63652e,1.0-dev0*
G04 #@! TF.SameCoordinates,Original*
G04 #@! TF.FileFunction,Legend,Top*
G04 #@! TF.FilePolarity,Positive*
%FSLAX46Y46*%
G04 Gerber Fmt 4.6, Leading zero omitted, Abs format (unit mm)*
G04 Created by KiCad (PCBNEW (5.1.9-0-10_14)) date 2021-07-18 00:17:51*
%MOMM*%
%LPD*%
G01*
G04 APERTURE LIST*
%ADD10C,0.330200*%
%ADD11C,0.203200*%
%ADD12C,0.100000*%
%ADD13C,0.177800*%
%ADD14C,0.254000*%
%ADD15C,0.196850*%
%ADD16C,0.381000*%
%ADD17C,0.010000*%
%ADD18C,0.120000*%
%ADD19C,0.150000*%
%ADD20C,0.250000*%
%ADD21C,0.114300*%
%ADD22C,0.127000*%
%ADD23C,0.300000*%
%ADD24C,1.801600*%
%ADD25O,1.801600X1.801600*%
%ADD26C,3.851600*%
%ADD27C,1.851600*%
%ADD28C,0.609600*%
%ADD29C,1.625600*%
%ADD30C,5.501599*%
%ADD31C,2.101600*%
%ADD32C,1.401600*%
%ADD33C,1.701600*%
%ADD34O,1.701600X1.701600*%
%ADD35C,2.201600*%
G04 APERTURE END LIST*
D10*
X108394439Y-103483833D02*
X109603963Y-103483833D01*
X108152534Y-103882976D02*
X108999201Y-102485976D01*
X109845868Y-103882976D01*
X110692534Y-103882976D02*
X110692534Y-102485976D01*
X111297296Y-102485976D01*
X111660153Y-102552500D01*
X111902058Y-102685547D01*
X112023010Y-102818595D01*
X112143963Y-103084690D01*
X112143963Y-103284261D01*
X112023010Y-103550357D01*
X111902058Y-103683404D01*
X111660153Y-103816452D01*
X111297296Y-103882976D01*
X110692534Y-103882976D01*
X112869677Y-102485976D02*
X113716344Y-103882976D01*
X114563010Y-102485976D01*
X115288725Y-103483833D02*
X116498249Y-103483833D01*
X115046820Y-103882976D02*
X115893487Y-102485976D01*
X116740153Y-103882976D01*
X117586820Y-103882976D02*
X117586820Y-102485976D01*
X119038249Y-103882976D01*
X119038249Y-102485976D01*
X121699201Y-103749928D02*
X121578249Y-103816452D01*
X121215391Y-103882976D01*
X120973487Y-103882976D01*
X120610630Y-103816452D01*
X120368725Y-103683404D01*
X120247772Y-103550357D01*
X120126820Y-103284261D01*
X120126820Y-103084690D01*
X120247772Y-102818595D01*
X120368725Y-102685547D01*
X120610630Y-102552500D01*
X120973487Y-102485976D01*
X121215391Y-102485976D01*
X121578249Y-102552500D01*
X121699201Y-102619023D01*
X122787772Y-103151214D02*
X123634439Y-103151214D01*
X123997296Y-103882976D02*
X122787772Y-103882976D01*
X122787772Y-102485976D01*
X123997296Y-102485976D01*
D11*
X92818857Y-211788828D02*
X92818857Y-210264828D01*
X93181714Y-210264828D01*
X93399428Y-210337400D01*
X93544571Y-210482542D01*
X93617142Y-210627685D01*
X93689714Y-210917971D01*
X93689714Y-211135685D01*
X93617142Y-211425971D01*
X93544571Y-211571114D01*
X93399428Y-211716257D01*
X93181714Y-211788828D01*
X92818857Y-211788828D01*
X94923428Y-211716257D02*
X94778285Y-211788828D01*
X94488000Y-211788828D01*
X94342857Y-211716257D01*
X94270285Y-211571114D01*
X94270285Y-210990542D01*
X94342857Y-210845400D01*
X94488000Y-210772828D01*
X94778285Y-210772828D01*
X94923428Y-210845400D01*
X94996000Y-210990542D01*
X94996000Y-211135685D01*
X94270285Y-211280828D01*
X95576571Y-211716257D02*
X95721714Y-211788828D01*
X96012000Y-211788828D01*
X96157142Y-211716257D01*
X96229714Y-211571114D01*
X96229714Y-211498542D01*
X96157142Y-211353400D01*
X96012000Y-211280828D01*
X95794285Y-211280828D01*
X95649142Y-211208257D01*
X95576571Y-211063114D01*
X95576571Y-210990542D01*
X95649142Y-210845400D01*
X95794285Y-210772828D01*
X96012000Y-210772828D01*
X96157142Y-210845400D01*
X96882857Y-211788828D02*
X96882857Y-210772828D01*
X96882857Y-210264828D02*
X96810285Y-210337400D01*
X96882857Y-210409971D01*
X96955428Y-210337400D01*
X96882857Y-210264828D01*
X96882857Y-210409971D01*
X98261714Y-210772828D02*
X98261714Y-212006542D01*
X98189142Y-212151685D01*
X98116571Y-212224257D01*
X97971428Y-212296828D01*
X97753714Y-212296828D01*
X97608571Y-212224257D01*
X98261714Y-211716257D02*
X98116571Y-211788828D01*
X97826285Y-211788828D01*
X97681142Y-211716257D01*
X97608571Y-211643685D01*
X97536000Y-211498542D01*
X97536000Y-211063114D01*
X97608571Y-210917971D01*
X97681142Y-210845400D01*
X97826285Y-210772828D01*
X98116571Y-210772828D01*
X98261714Y-210845400D01*
X98987428Y-210772828D02*
X98987428Y-211788828D01*
X98987428Y-210917971D02*
X99060000Y-210845400D01*
X99205142Y-210772828D01*
X99422857Y-210772828D01*
X99568000Y-210845400D01*
X99640571Y-210990542D01*
X99640571Y-211788828D01*
X100946857Y-211716257D02*
X100801714Y-211788828D01*
X100511428Y-211788828D01*
X100366285Y-211716257D01*
X100293714Y-211571114D01*
X100293714Y-210990542D01*
X100366285Y-210845400D01*
X100511428Y-210772828D01*
X100801714Y-210772828D01*
X100946857Y-210845400D01*
X101019428Y-210990542D01*
X101019428Y-211135685D01*
X100293714Y-211280828D01*
X102325714Y-211788828D02*
X102325714Y-210264828D01*
X102325714Y-211716257D02*
X102180571Y-211788828D01*
X101890285Y-211788828D01*
X101745142Y-211716257D01*
X101672571Y-211643685D01*
X101600000Y-211498542D01*
X101600000Y-211063114D01*
X101672571Y-210917971D01*
X101745142Y-210845400D01*
X101890285Y-210772828D01*
X102180571Y-210772828D01*
X102325714Y-210845400D01*
X104212571Y-211788828D02*
X104212571Y-210264828D01*
X104212571Y-210845400D02*
X104357714Y-210772828D01*
X104648000Y-210772828D01*
X104793142Y-210845400D01*
X104865714Y-210917971D01*
X104938285Y-211063114D01*
X104938285Y-211498542D01*
X104865714Y-211643685D01*
X104793142Y-211716257D01*
X104648000Y-211788828D01*
X104357714Y-211788828D01*
X104212571Y-211716257D01*
X105446285Y-210772828D02*
X105809142Y-211788828D01*
X106172000Y-210772828D02*
X105809142Y-211788828D01*
X105664000Y-212151685D01*
X105591428Y-212224257D01*
X105446285Y-212296828D01*
X108349142Y-210264828D02*
X108349142Y-211353400D01*
X108276571Y-211571114D01*
X108131428Y-211716257D01*
X107913714Y-211788828D01*
X107768571Y-211788828D01*
X109292571Y-211788828D02*
X109147428Y-211716257D01*
X109074857Y-211643685D01*
X109002285Y-211498542D01*
X109002285Y-211063114D01*
X109074857Y-210917971D01*
X109147428Y-210845400D01*
X109292571Y-210772828D01*
X109510285Y-210772828D01*
X109655428Y-210845400D01*
X109728000Y-210917971D01*
X109800571Y-211063114D01*
X109800571Y-211498542D01*
X109728000Y-211643685D01*
X109655428Y-211716257D01*
X109510285Y-211788828D01*
X109292571Y-211788828D01*
X110453714Y-211788828D02*
X110453714Y-210264828D01*
X111106857Y-211788828D02*
X111106857Y-210990542D01*
X111034285Y-210845400D01*
X110889142Y-210772828D01*
X110671428Y-210772828D01*
X110526285Y-210845400D01*
X110453714Y-210917971D01*
X111832571Y-210772828D02*
X111832571Y-211788828D01*
X111832571Y-210917971D02*
X111905142Y-210845400D01*
X112050285Y-210772828D01*
X112268000Y-210772828D01*
X112413142Y-210845400D01*
X112485714Y-210990542D01*
X112485714Y-211788828D01*
X113284000Y-211716257D02*
X113284000Y-211788828D01*
X113211428Y-211933971D01*
X113138857Y-212006542D01*
X115098285Y-211788828D02*
X115098285Y-210264828D01*
X115969142Y-211788828D01*
X115969142Y-210264828D01*
X117348000Y-211788828D02*
X117348000Y-210990542D01*
X117275428Y-210845400D01*
X117130285Y-210772828D01*
X116840000Y-210772828D01*
X116694857Y-210845400D01*
X117348000Y-211716257D02*
X117202857Y-211788828D01*
X116840000Y-211788828D01*
X116694857Y-211716257D01*
X116622285Y-211571114D01*
X116622285Y-211425971D01*
X116694857Y-211280828D01*
X116840000Y-211208257D01*
X117202857Y-211208257D01*
X117348000Y-211135685D01*
X117856000Y-210772828D02*
X118436571Y-210772828D01*
X118073714Y-210264828D02*
X118073714Y-211571114D01*
X118146285Y-211716257D01*
X118291428Y-211788828D01*
X118436571Y-211788828D01*
X118944571Y-211788828D02*
X118944571Y-210264828D01*
X119597714Y-211788828D02*
X119597714Y-210990542D01*
X119525142Y-210845400D01*
X119380000Y-210772828D01*
X119162285Y-210772828D01*
X119017142Y-210845400D01*
X118944571Y-210917971D01*
X120976571Y-211788828D02*
X120976571Y-210990542D01*
X120904000Y-210845400D01*
X120758857Y-210772828D01*
X120468571Y-210772828D01*
X120323428Y-210845400D01*
X120976571Y-211716257D02*
X120831428Y-211788828D01*
X120468571Y-211788828D01*
X120323428Y-211716257D01*
X120250857Y-211571114D01*
X120250857Y-211425971D01*
X120323428Y-211280828D01*
X120468571Y-211208257D01*
X120831428Y-211208257D01*
X120976571Y-211135685D01*
X121702285Y-210772828D02*
X121702285Y-211788828D01*
X121702285Y-210917971D02*
X121774857Y-210845400D01*
X121920000Y-210772828D01*
X122137714Y-210772828D01*
X122282857Y-210845400D01*
X122355428Y-210990542D01*
X122355428Y-211788828D01*
X123153714Y-211716257D02*
X123153714Y-211788828D01*
X123081142Y-211933971D01*
X123008571Y-212006542D01*
X98552000Y-214278028D02*
X98552000Y-213479742D01*
X98479428Y-213334600D01*
X98334285Y-213262028D01*
X98044000Y-213262028D01*
X97898857Y-213334600D01*
X98552000Y-214205457D02*
X98406857Y-214278028D01*
X98044000Y-214278028D01*
X97898857Y-214205457D01*
X97826285Y-214060314D01*
X97826285Y-213915171D01*
X97898857Y-213770028D01*
X98044000Y-213697457D01*
X98406857Y-213697457D01*
X98552000Y-213624885D01*
X99277714Y-213262028D02*
X99277714Y-214278028D01*
X99277714Y-213407171D02*
X99350285Y-213334600D01*
X99495428Y-213262028D01*
X99713142Y-213262028D01*
X99858285Y-213334600D01*
X99930857Y-213479742D01*
X99930857Y-214278028D01*
X101309714Y-214278028D02*
X101309714Y-212754028D01*
X101309714Y-214205457D02*
X101164571Y-214278028D01*
X100874285Y-214278028D01*
X100729142Y-214205457D01*
X100656571Y-214132885D01*
X100584000Y-213987742D01*
X100584000Y-213552314D01*
X100656571Y-213407171D01*
X100729142Y-213334600D01*
X100874285Y-213262028D01*
X101164571Y-213262028D01*
X101309714Y-213334600D01*
X103124000Y-213842600D02*
X103849714Y-213842600D01*
X102978857Y-214278028D02*
X103486857Y-212754028D01*
X103994857Y-214278028D01*
X104502857Y-213262028D02*
X104502857Y-214278028D01*
X104502857Y-213407171D02*
X104575428Y-213334600D01*
X104720571Y-213262028D01*
X104938285Y-213262028D01*
X105083428Y-213334600D01*
X105156000Y-213479742D01*
X105156000Y-214278028D01*
X106534857Y-214278028D02*
X106534857Y-212754028D01*
X106534857Y-214205457D02*
X106389714Y-214278028D01*
X106099428Y-214278028D01*
X105954285Y-214205457D01*
X105881714Y-214132885D01*
X105809142Y-213987742D01*
X105809142Y-213552314D01*
X105881714Y-213407171D01*
X105954285Y-213334600D01*
X106099428Y-213262028D01*
X106389714Y-213262028D01*
X106534857Y-213334600D01*
X107260571Y-214278028D02*
X107260571Y-213262028D01*
X107260571Y-213552314D02*
X107333142Y-213407171D01*
X107405714Y-213334600D01*
X107550857Y-213262028D01*
X107696000Y-213262028D01*
X108784571Y-214205457D02*
X108639428Y-214278028D01*
X108349142Y-214278028D01*
X108204000Y-214205457D01*
X108131428Y-214060314D01*
X108131428Y-213479742D01*
X108204000Y-213334600D01*
X108349142Y-213262028D01*
X108639428Y-213262028D01*
X108784571Y-213334600D01*
X108857142Y-213479742D01*
X108857142Y-213624885D01*
X108131428Y-213770028D01*
X109365142Y-213262028D02*
X109655428Y-214278028D01*
X109945714Y-213552314D01*
X110236000Y-214278028D01*
X110526285Y-213262028D01*
X112268000Y-214278028D02*
X112268000Y-212754028D01*
X112776000Y-213842600D01*
X113284000Y-212754028D01*
X113284000Y-214278028D01*
X114590285Y-214205457D02*
X114445142Y-214278028D01*
X114154857Y-214278028D01*
X114009714Y-214205457D01*
X113937142Y-214060314D01*
X113937142Y-213479742D01*
X114009714Y-213334600D01*
X114154857Y-213262028D01*
X114445142Y-213262028D01*
X114590285Y-213334600D01*
X114662857Y-213479742D01*
X114662857Y-213624885D01*
X113937142Y-213770028D01*
X115170857Y-213262028D02*
X115533714Y-214278028D01*
X115896571Y-213262028D02*
X115533714Y-214278028D01*
X115388571Y-214640885D01*
X115316000Y-214713457D01*
X115170857Y-214786028D01*
X117057714Y-214205457D02*
X116912571Y-214278028D01*
X116622285Y-214278028D01*
X116477142Y-214205457D01*
X116404571Y-214060314D01*
X116404571Y-213479742D01*
X116477142Y-213334600D01*
X116622285Y-213262028D01*
X116912571Y-213262028D01*
X117057714Y-213334600D01*
X117130285Y-213479742D01*
X117130285Y-213624885D01*
X116404571Y-213770028D01*
X117783428Y-214278028D02*
X117783428Y-213262028D01*
X117783428Y-213552314D02*
X117856000Y-213407171D01*
X117928571Y-213334600D01*
X118073714Y-213262028D01*
X118218857Y-213262028D01*
D12*
G36*
X76581000Y-115316000D02*
G01*
X75184000Y-115570000D01*
X77343000Y-112649000D01*
X76581000Y-115316000D01*
G37*
X76581000Y-115316000D02*
X75184000Y-115570000D01*
X77343000Y-112649000D01*
X76581000Y-115316000D01*
G36*
X75438000Y-117602000D02*
G01*
X76200000Y-114935000D01*
X77597000Y-114681000D01*
X75438000Y-117602000D01*
G37*
X75438000Y-117602000D02*
X76200000Y-114935000D01*
X77597000Y-114681000D01*
X75438000Y-117602000D01*
D13*
X77633285Y-107398094D02*
X77778428Y-107398094D01*
X77851000Y-107434380D01*
X77923571Y-107506951D01*
X77959857Y-107652094D01*
X77959857Y-107906094D01*
X77923571Y-108051237D01*
X77851000Y-108123808D01*
X77778428Y-108160094D01*
X77633285Y-108160094D01*
X77560714Y-108123808D01*
X77488142Y-108051237D01*
X77451857Y-107906094D01*
X77451857Y-107652094D01*
X77488142Y-107506951D01*
X77560714Y-107434380D01*
X77633285Y-107398094D01*
X78540428Y-107760951D02*
X78286428Y-107760951D01*
X78286428Y-108160094D02*
X78286428Y-107398094D01*
X78649285Y-107398094D01*
X79193571Y-107760951D02*
X78939571Y-107760951D01*
X78939571Y-108160094D02*
X78939571Y-107398094D01*
X79302428Y-107398094D01*
X82840285Y-107405714D02*
X82985428Y-107405714D01*
X83058000Y-107442000D01*
X83130571Y-107514571D01*
X83166857Y-107659714D01*
X83166857Y-107913714D01*
X83130571Y-108058857D01*
X83058000Y-108131428D01*
X82985428Y-108167714D01*
X82840285Y-108167714D01*
X82767714Y-108131428D01*
X82695142Y-108058857D01*
X82658857Y-107913714D01*
X82658857Y-107659714D01*
X82695142Y-107514571D01*
X82767714Y-107442000D01*
X82840285Y-107405714D01*
X83493428Y-108167714D02*
X83493428Y-107405714D01*
X83928857Y-108167714D01*
X83928857Y-107405714D01*
D14*
X80772000Y-107213400D02*
X80772000Y-107696000D01*
X80378096Y-107429096D02*
G75*
G03*
X81153000Y-107416600I393904J-393904D01*
G01*
D15*
X88779047Y-165335857D02*
X88779047Y-166363952D01*
X88718571Y-166484904D01*
X88658095Y-166545380D01*
X88537142Y-166605857D01*
X88355714Y-166605857D01*
X88234761Y-166545380D01*
X88779047Y-166122047D02*
X88658095Y-166182523D01*
X88416190Y-166182523D01*
X88295238Y-166122047D01*
X88234761Y-166061571D01*
X88174285Y-165940619D01*
X88174285Y-165577761D01*
X88234761Y-165456809D01*
X88295238Y-165396333D01*
X88416190Y-165335857D01*
X88658095Y-165335857D01*
X88779047Y-165396333D01*
X89383809Y-166182523D02*
X89383809Y-165335857D01*
X89383809Y-164912523D02*
X89323333Y-164973000D01*
X89383809Y-165033476D01*
X89444285Y-164973000D01*
X89383809Y-164912523D01*
X89383809Y-165033476D01*
X89807142Y-165335857D02*
X90290952Y-165335857D01*
X89988571Y-164912523D02*
X89988571Y-166001095D01*
X90049047Y-166122047D01*
X90170000Y-166182523D01*
X90290952Y-166182523D01*
X90714285Y-166182523D02*
X90714285Y-164912523D01*
X91258571Y-166182523D02*
X91258571Y-165517285D01*
X91198095Y-165396333D01*
X91077142Y-165335857D01*
X90895714Y-165335857D01*
X90774761Y-165396333D01*
X90714285Y-165456809D01*
X92407619Y-165335857D02*
X92407619Y-166182523D01*
X91863333Y-165335857D02*
X91863333Y-166001095D01*
X91923809Y-166122047D01*
X92044761Y-166182523D01*
X92226190Y-166182523D01*
X92347142Y-166122047D01*
X92407619Y-166061571D01*
X93012380Y-166182523D02*
X93012380Y-164912523D01*
X93012380Y-165396333D02*
X93133333Y-165335857D01*
X93375238Y-165335857D01*
X93496190Y-165396333D01*
X93556666Y-165456809D01*
X93617142Y-165577761D01*
X93617142Y-165940619D01*
X93556666Y-166061571D01*
X93496190Y-166122047D01*
X93375238Y-166182523D01*
X93133333Y-166182523D01*
X93012380Y-166122047D01*
X94161428Y-166061571D02*
X94221904Y-166122047D01*
X94161428Y-166182523D01*
X94100952Y-166122047D01*
X94161428Y-166061571D01*
X94161428Y-166182523D01*
X95310476Y-166122047D02*
X95189523Y-166182523D01*
X94947619Y-166182523D01*
X94826666Y-166122047D01*
X94766190Y-166061571D01*
X94705714Y-165940619D01*
X94705714Y-165577761D01*
X94766190Y-165456809D01*
X94826666Y-165396333D01*
X94947619Y-165335857D01*
X95189523Y-165335857D01*
X95310476Y-165396333D01*
X96036190Y-166182523D02*
X95915238Y-166122047D01*
X95854761Y-166061571D01*
X95794285Y-165940619D01*
X95794285Y-165577761D01*
X95854761Y-165456809D01*
X95915238Y-165396333D01*
X96036190Y-165335857D01*
X96217619Y-165335857D01*
X96338571Y-165396333D01*
X96399047Y-165456809D01*
X96459523Y-165577761D01*
X96459523Y-165940619D01*
X96399047Y-166061571D01*
X96338571Y-166122047D01*
X96217619Y-166182523D01*
X96036190Y-166182523D01*
X97003809Y-166182523D02*
X97003809Y-165335857D01*
X97003809Y-165456809D02*
X97064285Y-165396333D01*
X97185238Y-165335857D01*
X97366666Y-165335857D01*
X97487619Y-165396333D01*
X97548095Y-165517285D01*
X97548095Y-166182523D01*
X97548095Y-165517285D02*
X97608571Y-165396333D01*
X97729523Y-165335857D01*
X97910952Y-165335857D01*
X98031904Y-165396333D01*
X98092380Y-165517285D01*
X98092380Y-166182523D01*
X99604285Y-164852047D02*
X98515714Y-166484904D01*
X100027619Y-166182523D02*
X100027619Y-165335857D01*
X100027619Y-165456809D02*
X100088095Y-165396333D01*
X100209047Y-165335857D01*
X100390476Y-165335857D01*
X100511428Y-165396333D01*
X100571904Y-165517285D01*
X100571904Y-166182523D01*
X100571904Y-165517285D02*
X100632380Y-165396333D01*
X100753333Y-165335857D01*
X100934761Y-165335857D01*
X101055714Y-165396333D01*
X101116190Y-165517285D01*
X101116190Y-166182523D01*
X102204761Y-166122047D02*
X102083809Y-166182523D01*
X101841904Y-166182523D01*
X101720952Y-166122047D01*
X101660476Y-166001095D01*
X101660476Y-165517285D01*
X101720952Y-165396333D01*
X101841904Y-165335857D01*
X102083809Y-165335857D01*
X102204761Y-165396333D01*
X102265238Y-165517285D01*
X102265238Y-165638238D01*
X101660476Y-165759190D01*
X102809523Y-165335857D02*
X102809523Y-166182523D01*
X102809523Y-165456809D02*
X102870000Y-165396333D01*
X102990952Y-165335857D01*
X103172380Y-165335857D01*
X103293333Y-165396333D01*
X103353809Y-165517285D01*
X103353809Y-166182523D01*
X104442380Y-166122047D02*
X104321428Y-166182523D01*
X104079523Y-166182523D01*
X103958571Y-166122047D01*
X103898095Y-166001095D01*
X103898095Y-165517285D01*
X103958571Y-165396333D01*
X104079523Y-165335857D01*
X104321428Y-165335857D01*
X104442380Y-165396333D01*
X104502857Y-165517285D01*
X104502857Y-165638238D01*
X103898095Y-165759190D01*
X105047142Y-166182523D02*
X105047142Y-164912523D01*
X105591428Y-166182523D02*
X105591428Y-165517285D01*
X105530952Y-165396333D01*
X105410000Y-165335857D01*
X105228571Y-165335857D01*
X105107619Y-165396333D01*
X105047142Y-165456809D01*
X106740476Y-165335857D02*
X106740476Y-166182523D01*
X106196190Y-165335857D02*
X106196190Y-166001095D01*
X106256666Y-166122047D01*
X106377619Y-166182523D01*
X106559047Y-166182523D01*
X106680000Y-166122047D01*
X106740476Y-166061571D01*
X107345238Y-165335857D02*
X107345238Y-166182523D01*
X107345238Y-165456809D02*
X107405714Y-165396333D01*
X107526666Y-165335857D01*
X107708095Y-165335857D01*
X107829047Y-165396333D01*
X107889523Y-165517285D01*
X107889523Y-166182523D01*
X108978095Y-166122047D02*
X108857142Y-166182523D01*
X108615238Y-166182523D01*
X108494285Y-166122047D01*
X108433809Y-166001095D01*
X108433809Y-165517285D01*
X108494285Y-165396333D01*
X108615238Y-165335857D01*
X108857142Y-165335857D01*
X108978095Y-165396333D01*
X109038571Y-165517285D01*
X109038571Y-165638238D01*
X108433809Y-165759190D01*
X109522380Y-165033476D02*
X109582857Y-164973000D01*
X109703809Y-164912523D01*
X110006190Y-164912523D01*
X110127142Y-164973000D01*
X110187619Y-165033476D01*
X110248095Y-165154428D01*
X110248095Y-165275380D01*
X110187619Y-165456809D01*
X109461904Y-166182523D01*
X110248095Y-166182523D01*
X110671428Y-164912523D02*
X111457619Y-164912523D01*
X111034285Y-165396333D01*
X111215714Y-165396333D01*
X111336666Y-165456809D01*
X111397142Y-165517285D01*
X111457619Y-165638238D01*
X111457619Y-165940619D01*
X111397142Y-166061571D01*
X111336666Y-166122047D01*
X111215714Y-166182523D01*
X110852857Y-166182523D01*
X110731904Y-166122047D01*
X110671428Y-166061571D01*
X112909047Y-164852047D02*
X111820476Y-166484904D01*
X113876666Y-166182523D02*
X113876666Y-165517285D01*
X113816190Y-165396333D01*
X113695238Y-165335857D01*
X113453333Y-165335857D01*
X113332380Y-165396333D01*
X113876666Y-166122047D02*
X113755714Y-166182523D01*
X113453333Y-166182523D01*
X113332380Y-166122047D01*
X113271904Y-166001095D01*
X113271904Y-165880142D01*
X113332380Y-165759190D01*
X113453333Y-165698714D01*
X113755714Y-165698714D01*
X113876666Y-165638238D01*
X114481428Y-166182523D02*
X114481428Y-165335857D01*
X114481428Y-165577761D02*
X114541904Y-165456809D01*
X114602380Y-165396333D01*
X114723333Y-165335857D01*
X114844285Y-165335857D01*
X115811904Y-166182523D02*
X115811904Y-164912523D01*
X115811904Y-166122047D02*
X115690952Y-166182523D01*
X115449047Y-166182523D01*
X115328095Y-166122047D01*
X115267619Y-166061571D01*
X115207142Y-165940619D01*
X115207142Y-165577761D01*
X115267619Y-165456809D01*
X115328095Y-165396333D01*
X115449047Y-165335857D01*
X115690952Y-165335857D01*
X115811904Y-165396333D01*
X116960952Y-165335857D02*
X116960952Y-166182523D01*
X116416666Y-165335857D02*
X116416666Y-166001095D01*
X116477142Y-166122047D01*
X116598095Y-166182523D01*
X116779523Y-166182523D01*
X116900476Y-166122047D01*
X116960952Y-166061571D01*
X117565714Y-166182523D02*
X117565714Y-164912523D01*
X117565714Y-165396333D02*
X117686666Y-165335857D01*
X117928571Y-165335857D01*
X118049523Y-165396333D01*
X118110000Y-165456809D01*
X118170476Y-165577761D01*
X118170476Y-165940619D01*
X118110000Y-166061571D01*
X118049523Y-166122047D01*
X117928571Y-166182523D01*
X117686666Y-166182523D01*
X117565714Y-166122047D01*
X118896190Y-166182523D02*
X118775238Y-166122047D01*
X118714761Y-166061571D01*
X118654285Y-165940619D01*
X118654285Y-165577761D01*
X118714761Y-165456809D01*
X118775238Y-165396333D01*
X118896190Y-165335857D01*
X119077619Y-165335857D01*
X119198571Y-165396333D01*
X119259047Y-165456809D01*
X119319523Y-165577761D01*
X119319523Y-165940619D01*
X119259047Y-166061571D01*
X119198571Y-166122047D01*
X119077619Y-166182523D01*
X118896190Y-166182523D01*
X119742857Y-165335857D02*
X120045238Y-166182523D01*
X120347619Y-165335857D02*
X120045238Y-166182523D01*
X119924285Y-166484904D01*
X119863809Y-166545380D01*
X119742857Y-166605857D01*
X120831428Y-165698714D02*
X121799047Y-165698714D01*
X122948095Y-166182523D02*
X122948095Y-164912523D01*
X122948095Y-166122047D02*
X122827142Y-166182523D01*
X122585238Y-166182523D01*
X122464285Y-166122047D01*
X122403809Y-166061571D01*
X122343333Y-165940619D01*
X122343333Y-165577761D01*
X122403809Y-165456809D01*
X122464285Y-165396333D01*
X122585238Y-165335857D01*
X122827142Y-165335857D01*
X122948095Y-165396333D01*
X123734285Y-166182523D02*
X123613333Y-166122047D01*
X123552857Y-166061571D01*
X123492380Y-165940619D01*
X123492380Y-165577761D01*
X123552857Y-165456809D01*
X123613333Y-165396333D01*
X123734285Y-165335857D01*
X123915714Y-165335857D01*
X124036666Y-165396333D01*
X124097142Y-165456809D01*
X124157619Y-165577761D01*
X124157619Y-165940619D01*
X124097142Y-166061571D01*
X124036666Y-166122047D01*
X123915714Y-166182523D01*
X123734285Y-166182523D01*
X124520476Y-165335857D02*
X125004285Y-165335857D01*
X124701904Y-164912523D02*
X124701904Y-166001095D01*
X124762380Y-166122047D01*
X124883333Y-166182523D01*
X125004285Y-166182523D01*
X125427619Y-166182523D02*
X125427619Y-165335857D01*
X125427619Y-165456809D02*
X125488095Y-165396333D01*
X125609047Y-165335857D01*
X125790476Y-165335857D01*
X125911428Y-165396333D01*
X125971904Y-165517285D01*
X125971904Y-166182523D01*
X125971904Y-165517285D02*
X126032380Y-165396333D01*
X126153333Y-165335857D01*
X126334761Y-165335857D01*
X126455714Y-165396333D01*
X126516190Y-165517285D01*
X126516190Y-166182523D01*
X127665238Y-165335857D02*
X127665238Y-166363952D01*
X127604761Y-166484904D01*
X127544285Y-166545380D01*
X127423333Y-166605857D01*
X127241904Y-166605857D01*
X127120952Y-166545380D01*
X127665238Y-166122047D02*
X127544285Y-166182523D01*
X127302380Y-166182523D01*
X127181428Y-166122047D01*
X127120952Y-166061571D01*
X127060476Y-165940619D01*
X127060476Y-165577761D01*
X127120952Y-165456809D01*
X127181428Y-165396333D01*
X127302380Y-165335857D01*
X127544285Y-165335857D01*
X127665238Y-165396333D01*
D14*
X80378096Y-161658096D02*
G75*
G03*
X81153000Y-161645600I393904J-393904D01*
G01*
X80772000Y-161442400D02*
X80772000Y-161925000D01*
D16*
X158260428Y-127879928D02*
X158623285Y-127970642D01*
X158744238Y-128061357D01*
X158865190Y-128242785D01*
X158865190Y-128514928D01*
X158744238Y-128696357D01*
X158623285Y-128787071D01*
X158381380Y-128877785D01*
X157413761Y-128877785D01*
X157413761Y-126972785D01*
X158260428Y-126972785D01*
X158502333Y-127063500D01*
X158623285Y-127154214D01*
X158744238Y-127335642D01*
X158744238Y-127517071D01*
X158623285Y-127698500D01*
X158502333Y-127789214D01*
X158260428Y-127879928D01*
X157413761Y-127879928D01*
X147695238Y-133413500D02*
X148904761Y-133413500D01*
X147453333Y-133957785D02*
X148300000Y-132052785D01*
X149146666Y-133957785D01*
D13*
X82840285Y-161634714D02*
X82985428Y-161634714D01*
X83058000Y-161671000D01*
X83130571Y-161743571D01*
X83166857Y-161888714D01*
X83166857Y-162142714D01*
X83130571Y-162287857D01*
X83058000Y-162360428D01*
X82985428Y-162396714D01*
X82840285Y-162396714D01*
X82767714Y-162360428D01*
X82695142Y-162287857D01*
X82658857Y-162142714D01*
X82658857Y-161888714D01*
X82695142Y-161743571D01*
X82767714Y-161671000D01*
X82840285Y-161634714D01*
X83493428Y-162396714D02*
X83493428Y-161634714D01*
X83928857Y-162396714D01*
X83928857Y-161634714D01*
D12*
G36*
X135890000Y-166878000D02*
G01*
X135128000Y-166116000D01*
X136652000Y-166116000D01*
X135890000Y-166878000D01*
G37*
X135890000Y-166878000D02*
X135128000Y-166116000D01*
X136652000Y-166116000D01*
X135890000Y-166878000D01*
D13*
X77633285Y-161627094D02*
X77778428Y-161627094D01*
X77851000Y-161663380D01*
X77923571Y-161735951D01*
X77959857Y-161881094D01*
X77959857Y-162135094D01*
X77923571Y-162280237D01*
X77851000Y-162352808D01*
X77778428Y-162389094D01*
X77633285Y-162389094D01*
X77560714Y-162352808D01*
X77488142Y-162280237D01*
X77451857Y-162135094D01*
X77451857Y-161881094D01*
X77488142Y-161735951D01*
X77560714Y-161663380D01*
X77633285Y-161627094D01*
X78540428Y-161989951D02*
X78286428Y-161989951D01*
X78286428Y-162389094D02*
X78286428Y-161627094D01*
X78649285Y-161627094D01*
X79193571Y-161989951D02*
X78939571Y-161989951D01*
X78939571Y-162389094D02*
X78939571Y-161627094D01*
X79302428Y-161627094D01*
D17*
G36*
X104907197Y-101366658D02*
G01*
X105097983Y-101390530D01*
X105273748Y-101431130D01*
X105437084Y-101489124D01*
X105590581Y-101565179D01*
X105656352Y-101604971D01*
X105688313Y-101627861D01*
X105729208Y-101660618D01*
X105774902Y-101699492D01*
X105821259Y-101740732D01*
X105864147Y-101780588D01*
X105899428Y-101815309D01*
X105922968Y-101841144D01*
X105930700Y-101853817D01*
X105921463Y-101863928D01*
X105896005Y-101887308D01*
X105857706Y-101921076D01*
X105809947Y-101962346D01*
X105756108Y-102008236D01*
X105699569Y-102055861D01*
X105643711Y-102102338D01*
X105591916Y-102144783D01*
X105552955Y-102176054D01*
X105523138Y-102199658D01*
X105450694Y-102130933D01*
X105369347Y-102059737D01*
X105290831Y-102004963D01*
X105206012Y-101960630D01*
X105162238Y-101942046D01*
X105015581Y-101895586D01*
X104855529Y-101867392D01*
X104686931Y-101858057D01*
X104537941Y-101865650D01*
X104356104Y-101893584D01*
X104190679Y-101939752D01*
X104039378Y-102005204D01*
X103899910Y-102090986D01*
X103769986Y-102198146D01*
X103733243Y-102233899D01*
X103620423Y-102365336D01*
X103528435Y-102510892D01*
X103457630Y-102669660D01*
X103408362Y-102840734D01*
X103380983Y-103023206D01*
X103375034Y-103155750D01*
X103377161Y-103259535D01*
X103385594Y-103345945D01*
X103401932Y-103422567D01*
X103427774Y-103496986D01*
X103463188Y-103573750D01*
X103531106Y-103680975D01*
X103618994Y-103774674D01*
X103724791Y-103853961D01*
X103846434Y-103917952D01*
X103981863Y-103965761D01*
X104129017Y-103996505D01*
X104285834Y-104009296D01*
X104450253Y-104003251D01*
X104460988Y-104002202D01*
X104619868Y-103978791D01*
X104760926Y-103942142D01*
X104867370Y-103901015D01*
X104946038Y-103865597D01*
X105136953Y-102901750D01*
X105406827Y-102898322D01*
X105486532Y-102897747D01*
X105556917Y-102898079D01*
X105614294Y-102899227D01*
X105654971Y-102901108D01*
X105675258Y-102903633D01*
X105676860Y-102904672D01*
X105674453Y-102918700D01*
X105667489Y-102955194D01*
X105656450Y-103011726D01*
X105641817Y-103085868D01*
X105624070Y-103175190D01*
X105603691Y-103277265D01*
X105581162Y-103389663D01*
X105556964Y-103509956D01*
X105553740Y-103525951D01*
X105430461Y-104137453D01*
X105334505Y-104201760D01*
X105161433Y-104303458D01*
X104972865Y-104386718D01*
X104767310Y-104452172D01*
X104711500Y-104466208D01*
X104660516Y-104477633D01*
X104613001Y-104486206D01*
X104563508Y-104492431D01*
X104506590Y-104496812D01*
X104436803Y-104499854D01*
X104348702Y-104502059D01*
X104317801Y-104502635D01*
X104201410Y-104503730D01*
X104107121Y-104502404D01*
X104031736Y-104498543D01*
X103972060Y-104492031D01*
X103957336Y-104489649D01*
X103769702Y-104448299D01*
X103600620Y-104392818D01*
X103446620Y-104321729D01*
X103304229Y-104233553D01*
X103236819Y-104183006D01*
X103113126Y-104068789D01*
X103008853Y-103938373D01*
X102924289Y-103792269D01*
X102859723Y-103630987D01*
X102815443Y-103455035D01*
X102811419Y-103432445D01*
X102800564Y-103339082D01*
X102795925Y-103228967D01*
X102797255Y-103109914D01*
X102804311Y-102989737D01*
X102816846Y-102876248D01*
X102831543Y-102791272D01*
X102888067Y-102582622D01*
X102966450Y-102386124D01*
X103065716Y-102202943D01*
X103184886Y-102034241D01*
X103322983Y-101881183D01*
X103479028Y-101744932D01*
X103652046Y-101626652D01*
X103841057Y-101527506D01*
X103922327Y-101492905D01*
X104081798Y-101437582D01*
X104246232Y-101397575D01*
X104420645Y-101372016D01*
X104610052Y-101360039D01*
X104698800Y-101358849D01*
X104907197Y-101366658D01*
G37*
X104907197Y-101366658D02*
X105097983Y-101390530D01*
X105273748Y-101431130D01*
X105437084Y-101489124D01*
X105590581Y-101565179D01*
X105656352Y-101604971D01*
X105688313Y-101627861D01*
X105729208Y-101660618D01*
X105774902Y-101699492D01*
X105821259Y-101740732D01*
X105864147Y-101780588D01*
X105899428Y-101815309D01*
X105922968Y-101841144D01*
X105930700Y-101853817D01*
X105921463Y-101863928D01*
X105896005Y-101887308D01*
X105857706Y-101921076D01*
X105809947Y-101962346D01*
X105756108Y-102008236D01*
X105699569Y-102055861D01*
X105643711Y-102102338D01*
X105591916Y-102144783D01*
X105552955Y-102176054D01*
X105523138Y-102199658D01*
X105450694Y-102130933D01*
X105369347Y-102059737D01*
X105290831Y-102004963D01*
X105206012Y-101960630D01*
X105162238Y-101942046D01*
X105015581Y-101895586D01*
X104855529Y-101867392D01*
X104686931Y-101858057D01*
X104537941Y-101865650D01*
X104356104Y-101893584D01*
X104190679Y-101939752D01*
X104039378Y-102005204D01*
X103899910Y-102090986D01*
X103769986Y-102198146D01*
X103733243Y-102233899D01*
X103620423Y-102365336D01*
X103528435Y-102510892D01*
X103457630Y-102669660D01*
X103408362Y-102840734D01*
X103380983Y-103023206D01*
X103375034Y-103155750D01*
X103377161Y-103259535D01*
X103385594Y-103345945D01*
X103401932Y-103422567D01*
X103427774Y-103496986D01*
X103463188Y-103573750D01*
X103531106Y-103680975D01*
X103618994Y-103774674D01*
X103724791Y-103853961D01*
X103846434Y-103917952D01*
X103981863Y-103965761D01*
X104129017Y-103996505D01*
X104285834Y-104009296D01*
X104450253Y-104003251D01*
X104460988Y-104002202D01*
X104619868Y-103978791D01*
X104760926Y-103942142D01*
X104867370Y-103901015D01*
X104946038Y-103865597D01*
X105136953Y-102901750D01*
X105406827Y-102898322D01*
X105486532Y-102897747D01*
X105556917Y-102898079D01*
X105614294Y-102899227D01*
X105654971Y-102901108D01*
X105675258Y-102903633D01*
X105676860Y-102904672D01*
X105674453Y-102918700D01*
X105667489Y-102955194D01*
X105656450Y-103011726D01*
X105641817Y-103085868D01*
X105624070Y-103175190D01*
X105603691Y-103277265D01*
X105581162Y-103389663D01*
X105556964Y-103509956D01*
X105553740Y-103525951D01*
X105430461Y-104137453D01*
X105334505Y-104201760D01*
X105161433Y-104303458D01*
X104972865Y-104386718D01*
X104767310Y-104452172D01*
X104711500Y-104466208D01*
X104660516Y-104477633D01*
X104613001Y-104486206D01*
X104563508Y-104492431D01*
X104506590Y-104496812D01*
X104436803Y-104499854D01*
X104348702Y-104502059D01*
X104317801Y-104502635D01*
X104201410Y-104503730D01*
X104107121Y-104502404D01*
X104031736Y-104498543D01*
X103972060Y-104492031D01*
X103957336Y-104489649D01*
X103769702Y-104448299D01*
X103600620Y-104392818D01*
X103446620Y-104321729D01*
X103304229Y-104233553D01*
X103236819Y-104183006D01*
X103113126Y-104068789D01*
X103008853Y-103938373D01*
X102924289Y-103792269D01*
X102859723Y-103630987D01*
X102815443Y-103455035D01*
X102811419Y-103432445D01*
X102800564Y-103339082D01*
X102795925Y-103228967D01*
X102797255Y-103109914D01*
X102804311Y-102989737D01*
X102816846Y-102876248D01*
X102831543Y-102791272D01*
X102888067Y-102582622D01*
X102966450Y-102386124D01*
X103065716Y-102202943D01*
X103184886Y-102034241D01*
X103322983Y-101881183D01*
X103479028Y-101744932D01*
X103652046Y-101626652D01*
X103841057Y-101527506D01*
X103922327Y-101492905D01*
X104081798Y-101437582D01*
X104246232Y-101397575D01*
X104420645Y-101372016D01*
X104610052Y-101360039D01*
X104698800Y-101358849D01*
X104907197Y-101366658D01*
G36*
X93729932Y-101697115D02*
G01*
X93771126Y-101703253D01*
X93802821Y-101723323D01*
X93817383Y-101738337D01*
X93853000Y-101778200D01*
X93853000Y-102697920D01*
X93852930Y-102878463D01*
X93852698Y-103035428D01*
X93852269Y-103170635D01*
X93851609Y-103285903D01*
X93850681Y-103383056D01*
X93849454Y-103463911D01*
X93847890Y-103530292D01*
X93845956Y-103584017D01*
X93843618Y-103626909D01*
X93840840Y-103660787D01*
X93837588Y-103687473D01*
X93833827Y-103708787D01*
X93833766Y-103709075D01*
X93791087Y-103857430D01*
X93727550Y-103992887D01*
X93641578Y-104118461D01*
X93586437Y-104181976D01*
X93471332Y-104287353D01*
X93343576Y-104371115D01*
X93204597Y-104432451D01*
X93091415Y-104463763D01*
X93019737Y-104474218D01*
X92932664Y-104479936D01*
X92839193Y-104480932D01*
X92748320Y-104477221D01*
X92669041Y-104468816D01*
X92637360Y-104463034D01*
X92495464Y-104419345D01*
X92361843Y-104353509D01*
X92239533Y-104268009D01*
X92131567Y-104165328D01*
X92040983Y-104047947D01*
X91970815Y-103918347D01*
X91970553Y-103917750D01*
X91940308Y-103844844D01*
X91918689Y-103781871D01*
X91904319Y-103721585D01*
X91895820Y-103656738D01*
X91891815Y-103580082D01*
X91890915Y-103498650D01*
X91890958Y-103495821D01*
X92151087Y-103495821D01*
X92163565Y-103629379D01*
X92176288Y-103687930D01*
X92221600Y-103818016D01*
X92285867Y-103932622D01*
X92367029Y-104030531D01*
X92463024Y-104110525D01*
X92571790Y-104171386D01*
X92691265Y-104211897D01*
X92819389Y-104230840D01*
X92954100Y-104226999D01*
X93057817Y-104208529D01*
X93174545Y-104167762D01*
X93279872Y-104106274D01*
X93372209Y-104026767D01*
X93449968Y-103931947D01*
X93511562Y-103824517D01*
X93555405Y-103707182D01*
X93579909Y-103582647D01*
X93583486Y-103453617D01*
X93568169Y-103338997D01*
X93528077Y-103205477D01*
X93468691Y-103086874D01*
X93391968Y-102984519D01*
X93299864Y-102899743D01*
X93194338Y-102833877D01*
X93077347Y-102788251D01*
X92950848Y-102764197D01*
X92816800Y-102763046D01*
X92736328Y-102773403D01*
X92610037Y-102808071D01*
X92496041Y-102863346D01*
X92395785Y-102936874D01*
X92310710Y-103026296D01*
X92242260Y-103129259D01*
X92191877Y-103243405D01*
X92161005Y-103366378D01*
X92151087Y-103495821D01*
X91890958Y-103495821D01*
X91892445Y-103397837D01*
X91898139Y-103315229D01*
X91909541Y-103243764D01*
X91928196Y-103176382D01*
X91955646Y-103106022D01*
X91993435Y-103025624D01*
X91995034Y-103022400D01*
X92025827Y-102963794D01*
X92056080Y-102915527D01*
X92091379Y-102870070D01*
X92137312Y-102819898D01*
X92169755Y-102786940D01*
X92283670Y-102686628D01*
X92401999Y-102610341D01*
X92527844Y-102556794D01*
X92664310Y-102524696D01*
X92814499Y-102512762D01*
X92830651Y-102512627D01*
X92931174Y-102514912D01*
X93014678Y-102523152D01*
X93089112Y-102538652D01*
X93162425Y-102562713D01*
X93181088Y-102570049D01*
X93305191Y-102630098D01*
X93414285Y-102705359D01*
X93486818Y-102770620D01*
X93572567Y-102855391D01*
X93576259Y-102319770D01*
X93577221Y-102184543D01*
X93578256Y-102072394D01*
X93579633Y-101981000D01*
X93581628Y-101908043D01*
X93584512Y-101851198D01*
X93588554Y-101808147D01*
X93594030Y-101776567D01*
X93601211Y-101754136D01*
X93610367Y-101738534D01*
X93621772Y-101727439D01*
X93635699Y-101718530D01*
X93647475Y-101712145D01*
X93680393Y-101701722D01*
X93722171Y-101697089D01*
X93729932Y-101697115D01*
G37*
X93729932Y-101697115D02*
X93771126Y-101703253D01*
X93802821Y-101723323D01*
X93817383Y-101738337D01*
X93853000Y-101778200D01*
X93853000Y-102697920D01*
X93852930Y-102878463D01*
X93852698Y-103035428D01*
X93852269Y-103170635D01*
X93851609Y-103285903D01*
X93850681Y-103383056D01*
X93849454Y-103463911D01*
X93847890Y-103530292D01*
X93845956Y-103584017D01*
X93843618Y-103626909D01*
X93840840Y-103660787D01*
X93837588Y-103687473D01*
X93833827Y-103708787D01*
X93833766Y-103709075D01*
X93791087Y-103857430D01*
X93727550Y-103992887D01*
X93641578Y-104118461D01*
X93586437Y-104181976D01*
X93471332Y-104287353D01*
X93343576Y-104371115D01*
X93204597Y-104432451D01*
X93091415Y-104463763D01*
X93019737Y-104474218D01*
X92932664Y-104479936D01*
X92839193Y-104480932D01*
X92748320Y-104477221D01*
X92669041Y-104468816D01*
X92637360Y-104463034D01*
X92495464Y-104419345D01*
X92361843Y-104353509D01*
X92239533Y-104268009D01*
X92131567Y-104165328D01*
X92040983Y-104047947D01*
X91970815Y-103918347D01*
X91970553Y-103917750D01*
X91940308Y-103844844D01*
X91918689Y-103781871D01*
X91904319Y-103721585D01*
X91895820Y-103656738D01*
X91891815Y-103580082D01*
X91890915Y-103498650D01*
X91890958Y-103495821D01*
X92151087Y-103495821D01*
X92163565Y-103629379D01*
X92176288Y-103687930D01*
X92221600Y-103818016D01*
X92285867Y-103932622D01*
X92367029Y-104030531D01*
X92463024Y-104110525D01*
X92571790Y-104171386D01*
X92691265Y-104211897D01*
X92819389Y-104230840D01*
X92954100Y-104226999D01*
X93057817Y-104208529D01*
X93174545Y-104167762D01*
X93279872Y-104106274D01*
X93372209Y-104026767D01*
X93449968Y-103931947D01*
X93511562Y-103824517D01*
X93555405Y-103707182D01*
X93579909Y-103582647D01*
X93583486Y-103453617D01*
X93568169Y-103338997D01*
X93528077Y-103205477D01*
X93468691Y-103086874D01*
X93391968Y-102984519D01*
X93299864Y-102899743D01*
X93194338Y-102833877D01*
X93077347Y-102788251D01*
X92950848Y-102764197D01*
X92816800Y-102763046D01*
X92736328Y-102773403D01*
X92610037Y-102808071D01*
X92496041Y-102863346D01*
X92395785Y-102936874D01*
X92310710Y-103026296D01*
X92242260Y-103129259D01*
X92191877Y-103243405D01*
X92161005Y-103366378D01*
X92151087Y-103495821D01*
X91890958Y-103495821D01*
X91892445Y-103397837D01*
X91898139Y-103315229D01*
X91909541Y-103243764D01*
X91928196Y-103176382D01*
X91955646Y-103106022D01*
X91993435Y-103025624D01*
X91995034Y-103022400D01*
X92025827Y-102963794D01*
X92056080Y-102915527D01*
X92091379Y-102870070D01*
X92137312Y-102819898D01*
X92169755Y-102786940D01*
X92283670Y-102686628D01*
X92401999Y-102610341D01*
X92527844Y-102556794D01*
X92664310Y-102524696D01*
X92814499Y-102512762D01*
X92830651Y-102512627D01*
X92931174Y-102514912D01*
X93014678Y-102523152D01*
X93089112Y-102538652D01*
X93162425Y-102562713D01*
X93181088Y-102570049D01*
X93305191Y-102630098D01*
X93414285Y-102705359D01*
X93486818Y-102770620D01*
X93572567Y-102855391D01*
X93576259Y-102319770D01*
X93577221Y-102184543D01*
X93578256Y-102072394D01*
X93579633Y-101981000D01*
X93581628Y-101908043D01*
X93584512Y-101851198D01*
X93588554Y-101808147D01*
X93594030Y-101776567D01*
X93601211Y-101754136D01*
X93610367Y-101738534D01*
X93621772Y-101727439D01*
X93635699Y-101718530D01*
X93647475Y-101712145D01*
X93680393Y-101701722D01*
X93722171Y-101697089D01*
X93729932Y-101697115D01*
G36*
X95546433Y-102522929D02*
G01*
X95698497Y-102556603D01*
X95838888Y-102612027D01*
X95966345Y-102688425D01*
X96079608Y-102785026D01*
X96177414Y-102901055D01*
X96258504Y-103035737D01*
X96267548Y-103054150D01*
X96303859Y-103135236D01*
X96329731Y-103208101D01*
X96346751Y-103280292D01*
X96356504Y-103359359D01*
X96360579Y-103452847D01*
X96360980Y-103498650D01*
X96359151Y-103599328D01*
X96352361Y-103682539D01*
X96339162Y-103755970D01*
X96318104Y-103827309D01*
X96287742Y-103904244D01*
X96282222Y-103916908D01*
X96209373Y-104051720D01*
X96117022Y-104171482D01*
X96007274Y-104274497D01*
X95882235Y-104359071D01*
X95744009Y-104423507D01*
X95602616Y-104464477D01*
X95543890Y-104473055D01*
X95468913Y-104478610D01*
X95386023Y-104481050D01*
X95303557Y-104480287D01*
X95229853Y-104476230D01*
X95174755Y-104469091D01*
X95027044Y-104427763D01*
X94889110Y-104364647D01*
X94763447Y-104281722D01*
X94652549Y-104180965D01*
X94558912Y-104064356D01*
X94485029Y-103933871D01*
X94476931Y-103915820D01*
X94434382Y-103796933D01*
X94408439Y-103671337D01*
X94397849Y-103532475D01*
X94397454Y-103498650D01*
X94398089Y-103485945D01*
X94666686Y-103485945D01*
X94669942Y-103585348D01*
X94681907Y-103674947D01*
X94686306Y-103694689D01*
X94728369Y-103815423D01*
X94791765Y-103928255D01*
X94873151Y-104028433D01*
X94969189Y-104111202D01*
X94988313Y-104124239D01*
X95099486Y-104182126D01*
X95221785Y-104218497D01*
X95352152Y-104232906D01*
X95487530Y-104224908D01*
X95570354Y-104209057D01*
X95689025Y-104167670D01*
X95797275Y-104104624D01*
X95892579Y-104022403D01*
X95972408Y-103923489D01*
X96034235Y-103810366D01*
X96066075Y-103721903D01*
X96081696Y-103644516D01*
X96089994Y-103552540D01*
X96090862Y-103455737D01*
X96084189Y-103363871D01*
X96070924Y-103290679D01*
X96026391Y-103167446D01*
X95961277Y-103055667D01*
X95878123Y-102958036D01*
X95779471Y-102877248D01*
X95667861Y-102815998D01*
X95599777Y-102790970D01*
X95501018Y-102770000D01*
X95391712Y-102762208D01*
X95282047Y-102767604D01*
X95182212Y-102786198D01*
X95167450Y-102790516D01*
X95043565Y-102841793D01*
X94933827Y-102913301D01*
X94840133Y-103003021D01*
X94764380Y-103108932D01*
X94708469Y-103229014D01*
X94686306Y-103302611D01*
X94672142Y-103387959D01*
X94666686Y-103485945D01*
X94398089Y-103485945D01*
X94404941Y-103349039D01*
X94428653Y-103215220D01*
X94469907Y-103092422D01*
X94530019Y-102975873D01*
X94550503Y-102943567D01*
X94647198Y-102818096D01*
X94757620Y-102713970D01*
X94881584Y-102631287D01*
X95018904Y-102570144D01*
X95169395Y-102530636D01*
X95332871Y-102512859D01*
X95383957Y-102511779D01*
X95546433Y-102522929D01*
G37*
X95546433Y-102522929D02*
X95698497Y-102556603D01*
X95838888Y-102612027D01*
X95966345Y-102688425D01*
X96079608Y-102785026D01*
X96177414Y-102901055D01*
X96258504Y-103035737D01*
X96267548Y-103054150D01*
X96303859Y-103135236D01*
X96329731Y-103208101D01*
X96346751Y-103280292D01*
X96356504Y-103359359D01*
X96360579Y-103452847D01*
X96360980Y-103498650D01*
X96359151Y-103599328D01*
X96352361Y-103682539D01*
X96339162Y-103755970D01*
X96318104Y-103827309D01*
X96287742Y-103904244D01*
X96282222Y-103916908D01*
X96209373Y-104051720D01*
X96117022Y-104171482D01*
X96007274Y-104274497D01*
X95882235Y-104359071D01*
X95744009Y-104423507D01*
X95602616Y-104464477D01*
X95543890Y-104473055D01*
X95468913Y-104478610D01*
X95386023Y-104481050D01*
X95303557Y-104480287D01*
X95229853Y-104476230D01*
X95174755Y-104469091D01*
X95027044Y-104427763D01*
X94889110Y-104364647D01*
X94763447Y-104281722D01*
X94652549Y-104180965D01*
X94558912Y-104064356D01*
X94485029Y-103933871D01*
X94476931Y-103915820D01*
X94434382Y-103796933D01*
X94408439Y-103671337D01*
X94397849Y-103532475D01*
X94397454Y-103498650D01*
X94398089Y-103485945D01*
X94666686Y-103485945D01*
X94669942Y-103585348D01*
X94681907Y-103674947D01*
X94686306Y-103694689D01*
X94728369Y-103815423D01*
X94791765Y-103928255D01*
X94873151Y-104028433D01*
X94969189Y-104111202D01*
X94988313Y-104124239D01*
X95099486Y-104182126D01*
X95221785Y-104218497D01*
X95352152Y-104232906D01*
X95487530Y-104224908D01*
X95570354Y-104209057D01*
X95689025Y-104167670D01*
X95797275Y-104104624D01*
X95892579Y-104022403D01*
X95972408Y-103923489D01*
X96034235Y-103810366D01*
X96066075Y-103721903D01*
X96081696Y-103644516D01*
X96089994Y-103552540D01*
X96090862Y-103455737D01*
X96084189Y-103363871D01*
X96070924Y-103290679D01*
X96026391Y-103167446D01*
X95961277Y-103055667D01*
X95878123Y-102958036D01*
X95779471Y-102877248D01*
X95667861Y-102815998D01*
X95599777Y-102790970D01*
X95501018Y-102770000D01*
X95391712Y-102762208D01*
X95282047Y-102767604D01*
X95182212Y-102786198D01*
X95167450Y-102790516D01*
X95043565Y-102841793D01*
X94933827Y-102913301D01*
X94840133Y-103003021D01*
X94764380Y-103108932D01*
X94708469Y-103229014D01*
X94686306Y-103302611D01*
X94672142Y-103387959D01*
X94666686Y-103485945D01*
X94398089Y-103485945D01*
X94404941Y-103349039D01*
X94428653Y-103215220D01*
X94469907Y-103092422D01*
X94530019Y-102975873D01*
X94550503Y-102943567D01*
X94647198Y-102818096D01*
X94757620Y-102713970D01*
X94881584Y-102631287D01*
X95018904Y-102570144D01*
X95169395Y-102530636D01*
X95332871Y-102512859D01*
X95383957Y-102511779D01*
X95546433Y-102522929D01*
G36*
X97184223Y-101916518D02*
G01*
X97228859Y-101939825D01*
X97257160Y-101972166D01*
X97265194Y-101987203D01*
X97271286Y-102004838D01*
X97275702Y-102028604D01*
X97278708Y-102062029D01*
X97280568Y-102108644D01*
X97281549Y-102171977D01*
X97281917Y-102255560D01*
X97281953Y-102301675D01*
X97282001Y-102590600D01*
X97485609Y-102590600D01*
X97584868Y-102591908D01*
X97661566Y-102596585D01*
X97718442Y-102605761D01*
X97758236Y-102620567D01*
X97783687Y-102642131D01*
X97797535Y-102671584D01*
X97802518Y-102710057D01*
X97802700Y-102721383D01*
X97792021Y-102768053D01*
X97769219Y-102798418D01*
X97735736Y-102831900D01*
X97282001Y-102831900D01*
X97282001Y-103326575D01*
X97282197Y-103465568D01*
X97282934Y-103581740D01*
X97284431Y-103677667D01*
X97286909Y-103755926D01*
X97290588Y-103819094D01*
X97295689Y-103869746D01*
X97302431Y-103910460D01*
X97311035Y-103943813D01*
X97321721Y-103972379D01*
X97334709Y-103998738D01*
X97340322Y-104008759D01*
X97397447Y-104084124D01*
X97470366Y-104140086D01*
X97557537Y-104175811D01*
X97657426Y-104190464D01*
X97676067Y-104190800D01*
X97726736Y-104192870D01*
X97772881Y-104198251D01*
X97799968Y-104204450D01*
X97844008Y-104231420D01*
X97871701Y-104271916D01*
X97882836Y-104319847D01*
X97877202Y-104369126D01*
X97854589Y-104413663D01*
X97814788Y-104447367D01*
X97808468Y-104450575D01*
X97766744Y-104462264D01*
X97708004Y-104468264D01*
X97639979Y-104468591D01*
X97570403Y-104463259D01*
X97507009Y-104452282D01*
X97497900Y-104449988D01*
X97377331Y-104405421D01*
X97270545Y-104340111D01*
X97179032Y-104255534D01*
X97104277Y-104153173D01*
X97047769Y-104034506D01*
X97031536Y-103985937D01*
X97026375Y-103965017D01*
X97022031Y-103938174D01*
X97018404Y-103902985D01*
X97015390Y-103857030D01*
X97012890Y-103797885D01*
X97010801Y-103723128D01*
X97009022Y-103630337D01*
X97007452Y-103517090D01*
X97005989Y-103380966D01*
X97005929Y-103374825D01*
X97000684Y-102831900D01*
X96867457Y-102831900D01*
X96809270Y-102830630D01*
X96758553Y-102827205D01*
X96721989Y-102822201D01*
X96708590Y-102818177D01*
X96680472Y-102790815D01*
X96661249Y-102749316D01*
X96655054Y-102704496D01*
X96657812Y-102685387D01*
X96672961Y-102649750D01*
X96698804Y-102624239D01*
X96739015Y-102607248D01*
X96797273Y-102597170D01*
X96870140Y-102592619D01*
X97002600Y-102588288D01*
X97003317Y-102313218D01*
X97004395Y-102203496D01*
X97006961Y-102114735D01*
X97010952Y-102048211D01*
X97016305Y-102005196D01*
X97019192Y-101993700D01*
X97045823Y-101949982D01*
X97086404Y-101922166D01*
X97134638Y-101910821D01*
X97184223Y-101916518D01*
G37*
X97184223Y-101916518D02*
X97228859Y-101939825D01*
X97257160Y-101972166D01*
X97265194Y-101987203D01*
X97271286Y-102004838D01*
X97275702Y-102028604D01*
X97278708Y-102062029D01*
X97280568Y-102108644D01*
X97281549Y-102171977D01*
X97281917Y-102255560D01*
X97281953Y-102301675D01*
X97282001Y-102590600D01*
X97485609Y-102590600D01*
X97584868Y-102591908D01*
X97661566Y-102596585D01*
X97718442Y-102605761D01*
X97758236Y-102620567D01*
X97783687Y-102642131D01*
X97797535Y-102671584D01*
X97802518Y-102710057D01*
X97802700Y-102721383D01*
X97792021Y-102768053D01*
X97769219Y-102798418D01*
X97735736Y-102831900D01*
X97282001Y-102831900D01*
X97282001Y-103326575D01*
X97282197Y-103465568D01*
X97282934Y-103581740D01*
X97284431Y-103677667D01*
X97286909Y-103755926D01*
X97290588Y-103819094D01*
X97295689Y-103869746D01*
X97302431Y-103910460D01*
X97311035Y-103943813D01*
X97321721Y-103972379D01*
X97334709Y-103998738D01*
X97340322Y-104008759D01*
X97397447Y-104084124D01*
X97470366Y-104140086D01*
X97557537Y-104175811D01*
X97657426Y-104190464D01*
X97676067Y-104190800D01*
X97726736Y-104192870D01*
X97772881Y-104198251D01*
X97799968Y-104204450D01*
X97844008Y-104231420D01*
X97871701Y-104271916D01*
X97882836Y-104319847D01*
X97877202Y-104369126D01*
X97854589Y-104413663D01*
X97814788Y-104447367D01*
X97808468Y-104450575D01*
X97766744Y-104462264D01*
X97708004Y-104468264D01*
X97639979Y-104468591D01*
X97570403Y-104463259D01*
X97507009Y-104452282D01*
X97497900Y-104449988D01*
X97377331Y-104405421D01*
X97270545Y-104340111D01*
X97179032Y-104255534D01*
X97104277Y-104153173D01*
X97047769Y-104034506D01*
X97031536Y-103985937D01*
X97026375Y-103965017D01*
X97022031Y-103938174D01*
X97018404Y-103902985D01*
X97015390Y-103857030D01*
X97012890Y-103797885D01*
X97010801Y-103723128D01*
X97009022Y-103630337D01*
X97007452Y-103517090D01*
X97005989Y-103380966D01*
X97005929Y-103374825D01*
X97000684Y-102831900D01*
X96867457Y-102831900D01*
X96809270Y-102830630D01*
X96758553Y-102827205D01*
X96721989Y-102822201D01*
X96708590Y-102818177D01*
X96680472Y-102790815D01*
X96661249Y-102749316D01*
X96655054Y-102704496D01*
X96657812Y-102685387D01*
X96672961Y-102649750D01*
X96698804Y-102624239D01*
X96739015Y-102607248D01*
X96797273Y-102597170D01*
X96870140Y-102592619D01*
X97002600Y-102588288D01*
X97003317Y-102313218D01*
X97004395Y-102203496D01*
X97006961Y-102114735D01*
X97010952Y-102048211D01*
X97016305Y-102005196D01*
X97019192Y-101993700D01*
X97045823Y-101949982D01*
X97086404Y-101922166D01*
X97134638Y-101910821D01*
X97184223Y-101916518D01*
G36*
X99309988Y-101398786D02*
G01*
X99384163Y-101399686D01*
X99384709Y-101399695D01*
X99620518Y-101403150D01*
X100022469Y-102416113D01*
X100083035Y-102568458D01*
X100141032Y-102713779D01*
X100195768Y-102850376D01*
X100246551Y-102976547D01*
X100292689Y-103090590D01*
X100333489Y-103190808D01*
X100368262Y-103275498D01*
X100396316Y-103342961D01*
X100416956Y-103391494D01*
X100429494Y-103419400D01*
X100433180Y-103425763D01*
X100442040Y-103415493D01*
X100465438Y-103386514D01*
X100502319Y-103340171D01*
X100551628Y-103277808D01*
X100612311Y-103200766D01*
X100683312Y-103110391D01*
X100763578Y-103008025D01*
X100852053Y-102895011D01*
X100947684Y-102772693D01*
X101049415Y-102642414D01*
X101156191Y-102505517D01*
X101228443Y-102412799D01*
X102014946Y-101403150D01*
X102266136Y-101399701D01*
X102354841Y-101398800D01*
X102420841Y-101398960D01*
X102466814Y-101400320D01*
X102495437Y-101403019D01*
X102509390Y-101407194D01*
X102511591Y-101412401D01*
X102508423Y-101426679D01*
X102500598Y-101464336D01*
X102488425Y-101523843D01*
X102472212Y-101603669D01*
X102452267Y-101702283D01*
X102428898Y-101818154D01*
X102402413Y-101949753D01*
X102373121Y-102095549D01*
X102341329Y-102254011D01*
X102307345Y-102423609D01*
X102271478Y-102602813D01*
X102234035Y-102790091D01*
X102202220Y-102949375D01*
X101898585Y-104470200D01*
X101628643Y-104470200D01*
X101548946Y-104469773D01*
X101478596Y-104468581D01*
X101421275Y-104466753D01*
X101380668Y-104464419D01*
X101360460Y-104461709D01*
X101358889Y-104460675D01*
X101361335Y-104447013D01*
X101368365Y-104410339D01*
X101379606Y-104352555D01*
X101394680Y-104275559D01*
X101413217Y-104181253D01*
X101434840Y-104071538D01*
X101459177Y-103948312D01*
X101485852Y-103813475D01*
X101514491Y-103668929D01*
X101544721Y-103516574D01*
X101554586Y-103466900D01*
X101585174Y-103312646D01*
X101614207Y-103165724D01*
X101641317Y-103028022D01*
X101666139Y-102901421D01*
X101688306Y-102787808D01*
X101707452Y-102689068D01*
X101723210Y-102607085D01*
X101735214Y-102543743D01*
X101743099Y-102500928D01*
X101746497Y-102480526D01*
X101746575Y-102479035D01*
X101738367Y-102488207D01*
X101715623Y-102515877D01*
X101679511Y-102560580D01*
X101631198Y-102620850D01*
X101571851Y-102695221D01*
X101502636Y-102782226D01*
X101424722Y-102880400D01*
X101339275Y-102988275D01*
X101247461Y-103104387D01*
X101150448Y-103227269D01*
X101096852Y-103295237D01*
X100450650Y-104115054D01*
X100317978Y-104111652D01*
X100185305Y-104108249D01*
X99841728Y-103274079D01*
X99784971Y-103136652D01*
X99730930Y-103006524D01*
X99680389Y-102885536D01*
X99634131Y-102775533D01*
X99592941Y-102678356D01*
X99557602Y-102595848D01*
X99528898Y-102529850D01*
X99507614Y-102482207D01*
X99494534Y-102454759D01*
X99490503Y-102448578D01*
X99487029Y-102461949D01*
X99479016Y-102498361D01*
X99466841Y-102555941D01*
X99450884Y-102632810D01*
X99431522Y-102727093D01*
X99409133Y-102836912D01*
X99384096Y-102960391D01*
X99356787Y-103095654D01*
X99327586Y-103240824D01*
X99296869Y-103394025D01*
X99265017Y-103553380D01*
X99232405Y-103717011D01*
X99199412Y-103883044D01*
X99166417Y-104049601D01*
X99133797Y-104214806D01*
X99101931Y-104376782D01*
X99096682Y-104403525D01*
X99083599Y-104470200D01*
X98811450Y-104470200D01*
X98731398Y-104469770D01*
X98660663Y-104468568D01*
X98602918Y-104466724D01*
X98561835Y-104464369D01*
X98541089Y-104461633D01*
X98539300Y-104460525D01*
X98541745Y-104447082D01*
X98548875Y-104410255D01*
X98560391Y-104351562D01*
X98575990Y-104272524D01*
X98595370Y-104174660D01*
X98618227Y-104059491D01*
X98644261Y-103928536D01*
X98673168Y-103783316D01*
X98704649Y-103625351D01*
X98738398Y-103456159D01*
X98774116Y-103277261D01*
X98811499Y-103090179D01*
X98844101Y-102927150D01*
X98882637Y-102734473D01*
X98919765Y-102548788D01*
X98955181Y-102371605D01*
X98988585Y-102204437D01*
X99019673Y-102048795D01*
X99048146Y-101906193D01*
X99073699Y-101778140D01*
X99096033Y-101666150D01*
X99114846Y-101571735D01*
X99129835Y-101496407D01*
X99140698Y-101441676D01*
X99147135Y-101409056D01*
X99148901Y-101399844D01*
X99160941Y-101398886D01*
X99194433Y-101398388D01*
X99245430Y-101398354D01*
X99309988Y-101398786D01*
G37*
X99309988Y-101398786D02*
X99384163Y-101399686D01*
X99384709Y-101399695D01*
X99620518Y-101403150D01*
X100022469Y-102416113D01*
X100083035Y-102568458D01*
X100141032Y-102713779D01*
X100195768Y-102850376D01*
X100246551Y-102976547D01*
X100292689Y-103090590D01*
X100333489Y-103190808D01*
X100368262Y-103275498D01*
X100396316Y-103342961D01*
X100416956Y-103391494D01*
X100429494Y-103419400D01*
X100433180Y-103425763D01*
X100442040Y-103415493D01*
X100465438Y-103386514D01*
X100502319Y-103340171D01*
X100551628Y-103277808D01*
X100612311Y-103200766D01*
X100683312Y-103110391D01*
X100763578Y-103008025D01*
X100852053Y-102895011D01*
X100947684Y-102772693D01*
X101049415Y-102642414D01*
X101156191Y-102505517D01*
X101228443Y-102412799D01*
X102014946Y-101403150D01*
X102266136Y-101399701D01*
X102354841Y-101398800D01*
X102420841Y-101398960D01*
X102466814Y-101400320D01*
X102495437Y-101403019D01*
X102509390Y-101407194D01*
X102511591Y-101412401D01*
X102508423Y-101426679D01*
X102500598Y-101464336D01*
X102488425Y-101523843D01*
X102472212Y-101603669D01*
X102452267Y-101702283D01*
X102428898Y-101818154D01*
X102402413Y-101949753D01*
X102373121Y-102095549D01*
X102341329Y-102254011D01*
X102307345Y-102423609D01*
X102271478Y-102602813D01*
X102234035Y-102790091D01*
X102202220Y-102949375D01*
X101898585Y-104470200D01*
X101628643Y-104470200D01*
X101548946Y-104469773D01*
X101478596Y-104468581D01*
X101421275Y-104466753D01*
X101380668Y-104464419D01*
X101360460Y-104461709D01*
X101358889Y-104460675D01*
X101361335Y-104447013D01*
X101368365Y-104410339D01*
X101379606Y-104352555D01*
X101394680Y-104275559D01*
X101413217Y-104181253D01*
X101434840Y-104071538D01*
X101459177Y-103948312D01*
X101485852Y-103813475D01*
X101514491Y-103668929D01*
X101544721Y-103516574D01*
X101554586Y-103466900D01*
X101585174Y-103312646D01*
X101614207Y-103165724D01*
X101641317Y-103028022D01*
X101666139Y-102901421D01*
X101688306Y-102787808D01*
X101707452Y-102689068D01*
X101723210Y-102607085D01*
X101735214Y-102543743D01*
X101743099Y-102500928D01*
X101746497Y-102480526D01*
X101746575Y-102479035D01*
X101738367Y-102488207D01*
X101715623Y-102515877D01*
X101679511Y-102560580D01*
X101631198Y-102620850D01*
X101571851Y-102695221D01*
X101502636Y-102782226D01*
X101424722Y-102880400D01*
X101339275Y-102988275D01*
X101247461Y-103104387D01*
X101150448Y-103227269D01*
X101096852Y-103295237D01*
X100450650Y-104115054D01*
X100317978Y-104111652D01*
X100185305Y-104108249D01*
X99841728Y-103274079D01*
X99784971Y-103136652D01*
X99730930Y-103006524D01*
X99680389Y-102885536D01*
X99634131Y-102775533D01*
X99592941Y-102678356D01*
X99557602Y-102595848D01*
X99528898Y-102529850D01*
X99507614Y-102482207D01*
X99494534Y-102454759D01*
X99490503Y-102448578D01*
X99487029Y-102461949D01*
X99479016Y-102498361D01*
X99466841Y-102555941D01*
X99450884Y-102632810D01*
X99431522Y-102727093D01*
X99409133Y-102836912D01*
X99384096Y-102960391D01*
X99356787Y-103095654D01*
X99327586Y-103240824D01*
X99296869Y-103394025D01*
X99265017Y-103553380D01*
X99232405Y-103717011D01*
X99199412Y-103883044D01*
X99166417Y-104049601D01*
X99133797Y-104214806D01*
X99101931Y-104376782D01*
X99096682Y-104403525D01*
X99083599Y-104470200D01*
X98811450Y-104470200D01*
X98731398Y-104469770D01*
X98660663Y-104468568D01*
X98602918Y-104466724D01*
X98561835Y-104464369D01*
X98541089Y-104461633D01*
X98539300Y-104460525D01*
X98541745Y-104447082D01*
X98548875Y-104410255D01*
X98560391Y-104351562D01*
X98575990Y-104272524D01*
X98595370Y-104174660D01*
X98618227Y-104059491D01*
X98644261Y-103928536D01*
X98673168Y-103783316D01*
X98704649Y-103625351D01*
X98738398Y-103456159D01*
X98774116Y-103277261D01*
X98811499Y-103090179D01*
X98844101Y-102927150D01*
X98882637Y-102734473D01*
X98919765Y-102548788D01*
X98955181Y-102371605D01*
X98988585Y-102204437D01*
X99019673Y-102048795D01*
X99048146Y-101906193D01*
X99073699Y-101778140D01*
X99096033Y-101666150D01*
X99114846Y-101571735D01*
X99129835Y-101496407D01*
X99140698Y-101441676D01*
X99147135Y-101409056D01*
X99148901Y-101399844D01*
X99160941Y-101398886D01*
X99194433Y-101398388D01*
X99245430Y-101398354D01*
X99309988Y-101398786D01*
D18*
X85026500Y-162788600D02*
X76517500Y-162788600D01*
X76517500Y-162788600D02*
X76517500Y-166293800D01*
X85026500Y-162788600D02*
X85026500Y-166293800D01*
X85026500Y-166293800D02*
X76517500Y-166293800D01*
X63702519Y-156650436D02*
X65060060Y-154042624D01*
X63489637Y-156539616D02*
X64847178Y-153931805D01*
X63596078Y-156595026D02*
X64953619Y-153987214D01*
X60926590Y-151890876D02*
X60866562Y-152006187D01*
X65751929Y-154402788D02*
X60926590Y-151890876D01*
X65691901Y-154518099D02*
X65751929Y-154402788D01*
X59569049Y-154498687D02*
X59629076Y-154383376D01*
X64394388Y-157010600D02*
X59569049Y-154498687D01*
X64454415Y-156895289D02*
X64394388Y-157010600D01*
X63702519Y-161984436D02*
X65060060Y-159376624D01*
X63489637Y-161873616D02*
X64847178Y-159265805D01*
X63596078Y-161929026D02*
X64953619Y-159321214D01*
X60926590Y-157224876D02*
X60866562Y-157340187D01*
X65751929Y-159736788D02*
X60926590Y-157224876D01*
X65691901Y-159852099D02*
X65751929Y-159736788D01*
X59569049Y-159832687D02*
X59629076Y-159717376D01*
X64394388Y-162344600D02*
X59569049Y-159832687D01*
X64454415Y-162229289D02*
X64394388Y-162344600D01*
D19*
G36*
X156971091Y-101508234D02*
G01*
X153718164Y-104610828D01*
X157548276Y-102616998D01*
X156971091Y-101508234D01*
G37*
X156971091Y-101508234D02*
X153718164Y-104610828D01*
X157548276Y-102616998D01*
X156971091Y-101508234D01*
D20*
X136450000Y-122300000D02*
X136450000Y-151800000D01*
X79450000Y-122300000D02*
X79450000Y-151800000D01*
X76950000Y-159100000D02*
X138950000Y-159100000D01*
X138950000Y-120300000D02*
X138950000Y-159100000D01*
X76950000Y-120300000D02*
X76950000Y-159100000D01*
X76950000Y-120300000D02*
X138950000Y-120300000D01*
X79450000Y-151800000D02*
X136450000Y-151800000D01*
X79450000Y-122300000D02*
X136450000Y-122300000D01*
D19*
X71950000Y-118200000D02*
X71950000Y-161200000D01*
X143950000Y-118200000D02*
X143950000Y-161200000D01*
X71950000Y-161200000D02*
X143950000Y-161200000D01*
X71950000Y-118200000D02*
X143950000Y-118200000D01*
D18*
X149050000Y-136125000D02*
X147550000Y-136125000D01*
X145050000Y-137375000D02*
X145050000Y-141875000D01*
X147550000Y-143125000D02*
X149050000Y-143125000D01*
X151550000Y-141875000D02*
X151550000Y-137375000D01*
X158829000Y-131172000D02*
X157329000Y-131172000D01*
X154829000Y-132422000D02*
X154829000Y-136922000D01*
X157329000Y-138172000D02*
X158829000Y-138172000D01*
X161329000Y-136922000D02*
X161329000Y-132422000D01*
X61964000Y-126548000D02*
X60464000Y-126548000D01*
X57964000Y-127798000D02*
X57964000Y-132298000D01*
X60464000Y-133548000D02*
X61964000Y-133548000D01*
X64464000Y-132298000D02*
X64464000Y-127798000D01*
X60464000Y-147772000D02*
X61964000Y-147772000D01*
X64464000Y-146522000D02*
X64464000Y-142022000D01*
X61964000Y-140772000D02*
X60464000Y-140772000D01*
X57964000Y-142022000D02*
X57964000Y-146522000D01*
X54852000Y-133660000D02*
X53352000Y-133660000D01*
X50852000Y-134910000D02*
X50852000Y-139410000D01*
X53352000Y-140660000D02*
X54852000Y-140660000D01*
X57352000Y-139410000D02*
X57352000Y-134910000D01*
X67576000Y-140660000D02*
X69076000Y-140660000D01*
X71576000Y-139410000D02*
X71576000Y-134910000D01*
X69076000Y-133660000D02*
X67576000Y-133660000D01*
X65076000Y-134910000D02*
X65076000Y-139410000D01*
D19*
G36*
X153394965Y-152750926D02*
G01*
X150142038Y-155853520D01*
X153972151Y-153859689D01*
X153394965Y-152750926D01*
G37*
X153394965Y-152750926D02*
X150142038Y-155853520D01*
X153972151Y-153859689D01*
X153394965Y-152750926D01*
D18*
X153717219Y-160660721D02*
G75*
G03*
X153717219Y-160660721I-500000J0D01*
G01*
X154251047Y-154395444D02*
X155271511Y-156355738D01*
X157662219Y-160660721D02*
G75*
G03*
X157662219Y-160660721I-4445000J0D01*
G01*
X147492024Y-157913968D02*
X148512489Y-159874262D01*
X147492024Y-157913968D02*
X154251047Y-154395444D01*
X167898000Y-152273000D02*
G75*
G03*
X167898000Y-152273000I-6100000J0D01*
G01*
D21*
X106318866Y-101603628D02*
X106754295Y-101603628D01*
X106536580Y-102060828D02*
X106536580Y-101603628D01*
X107008295Y-102060828D02*
X107008295Y-101603628D01*
X107262295Y-101930200D01*
X107516295Y-101603628D01*
X107516295Y-102060828D01*
D13*
X150521584Y-105097445D02*
X151291122Y-105842269D01*
X151122386Y-104784688D01*
X151594445Y-104538949D02*
X151766102Y-104449590D01*
X151874271Y-104447825D01*
X152004780Y-104488974D01*
X152137053Y-104638292D01*
X152293432Y-104938693D01*
X152339877Y-105132690D01*
X152298728Y-105263199D01*
X152235239Y-105350793D01*
X152063581Y-105440152D01*
X151955413Y-105441918D01*
X151824904Y-105400768D01*
X151692630Y-105251451D01*
X151536251Y-104951050D01*
X151489807Y-104757052D01*
X151530956Y-104626543D01*
X151594445Y-104538949D01*
X153265185Y-104814637D02*
X152836041Y-105038035D01*
X152366904Y-104136832D01*
D16*
X145155844Y-76474853D02*
X146228705Y-75916357D01*
X145192595Y-77069340D02*
X145063967Y-74988637D01*
X146694600Y-76287446D01*
X155422768Y-70756508D02*
X155786513Y-70669424D01*
X155935686Y-70694039D01*
X156126747Y-70799119D01*
X156252409Y-71040512D01*
X156228897Y-71257291D01*
X156163498Y-71393605D01*
X155990813Y-71585769D01*
X155132524Y-72032566D01*
X154252893Y-70342810D01*
X155003896Y-69951863D01*
X155260355Y-69920628D01*
X155409528Y-69945243D01*
X155600589Y-70050323D01*
X155684363Y-70211252D01*
X155660852Y-70428030D01*
X155595453Y-70564345D01*
X155422768Y-70756508D01*
X154671765Y-71147455D01*
D13*
X146945458Y-156340137D02*
X147714996Y-157084961D01*
X147546260Y-156027380D01*
X148018319Y-155781641D02*
X148189976Y-155692282D01*
X148298145Y-155690517D01*
X148428654Y-155731666D01*
X148560927Y-155880984D01*
X148717306Y-156181385D01*
X148763751Y-156375382D01*
X148722602Y-156505891D01*
X148659113Y-156593485D01*
X148487455Y-156682844D01*
X148379287Y-156684610D01*
X148248778Y-156643460D01*
X148116504Y-156494143D01*
X147960125Y-156193742D01*
X147913681Y-155999744D01*
X147954830Y-155869235D01*
X148018319Y-155781641D01*
X149689059Y-156057329D02*
X149259915Y-156280727D01*
X148790778Y-155379524D01*
D22*
X134967738Y-165641261D02*
X134756071Y-165338880D01*
X134604880Y-165641261D02*
X134604880Y-165006261D01*
X134846785Y-165006261D01*
X134907261Y-165036500D01*
X134937500Y-165066738D01*
X134967738Y-165127214D01*
X134967738Y-165217928D01*
X134937500Y-165278404D01*
X134907261Y-165308642D01*
X134846785Y-165338880D01*
X134604880Y-165338880D01*
X135239880Y-165308642D02*
X135451547Y-165308642D01*
X135542261Y-165641261D02*
X135239880Y-165641261D01*
X135239880Y-165006261D01*
X135542261Y-165006261D01*
X135784166Y-165611023D02*
X135874880Y-165641261D01*
X136026071Y-165641261D01*
X136086547Y-165611023D01*
X136116785Y-165580785D01*
X136147023Y-165520309D01*
X136147023Y-165459833D01*
X136116785Y-165399357D01*
X136086547Y-165369119D01*
X136026071Y-165338880D01*
X135905119Y-165308642D01*
X135844642Y-165278404D01*
X135814404Y-165248166D01*
X135784166Y-165187690D01*
X135784166Y-165127214D01*
X135814404Y-165066738D01*
X135844642Y-165036500D01*
X135905119Y-165006261D01*
X136056309Y-165006261D01*
X136147023Y-165036500D01*
X136419166Y-165308642D02*
X136630833Y-165308642D01*
X136721547Y-165641261D02*
X136419166Y-165641261D01*
X136419166Y-165006261D01*
X136721547Y-165006261D01*
X136902976Y-165006261D02*
X137265833Y-165006261D01*
X137084404Y-165641261D02*
X137084404Y-165006261D01*
%LPC*%
D23*
X160008878Y-79959262D02*
X150229878Y-84912262D01*
X150229878Y-84912262D02*
G75*
G02*
X146370122Y-77497738I-1929878J3707262D01*
G01*
X156149122Y-72544738D02*
X146370122Y-77497738D01*
X156149122Y-72544738D02*
G75*
G02*
X160008878Y-79959262I1929878J-3707262D01*
G01*
X68326000Y-78740000D02*
G75*
G03*
X68326000Y-78740000I-7112000J0D01*
G01*
D24*
X106680000Y-163449000D03*
D25*
X109220000Y-163449000D03*
X111760000Y-163449000D03*
X114300000Y-163449000D03*
D24*
X104140000Y-163449000D03*
D25*
X119380000Y-163449000D03*
X96520000Y-163449000D03*
X99060000Y-163449000D03*
X101600000Y-163449000D03*
X116840000Y-163449000D03*
D12*
G36*
X98468078Y-101353943D02*
G01*
X98469053Y-101354039D01*
X98478843Y-101355989D01*
X98479781Y-101356274D01*
X98488946Y-101360071D01*
X98489811Y-101360533D01*
X98498072Y-101366046D01*
X98498830Y-101366667D01*
X98505932Y-101373769D01*
X98506553Y-101374527D01*
X98512066Y-101382788D01*
X98512528Y-101383653D01*
X98516325Y-101392818D01*
X98516610Y-101393756D01*
X98518560Y-101403546D01*
X98518656Y-101404521D01*
X98518900Y-101409499D01*
X98518900Y-102260399D01*
X98518656Y-102265377D01*
X98518560Y-102266352D01*
X98516610Y-102276142D01*
X98516325Y-102277080D01*
X98512528Y-102286245D01*
X98512066Y-102287110D01*
X98506553Y-102295371D01*
X98505932Y-102296129D01*
X98498830Y-102303231D01*
X98498072Y-102303852D01*
X98489811Y-102309365D01*
X98488946Y-102309827D01*
X98479781Y-102313624D01*
X98478843Y-102313909D01*
X98469053Y-102315859D01*
X98468078Y-102315955D01*
X98463100Y-102316199D01*
X97624901Y-102316199D01*
X97619923Y-102315955D01*
X97618948Y-102315859D01*
X97609158Y-102313909D01*
X97608220Y-102313624D01*
X97599055Y-102309827D01*
X97598190Y-102309365D01*
X97589929Y-102303852D01*
X97589171Y-102303231D01*
X97582069Y-102296129D01*
X97581448Y-102295371D01*
X97575935Y-102287110D01*
X97575473Y-102286245D01*
X97571676Y-102277080D01*
X97571391Y-102276142D01*
X97569441Y-102266352D01*
X97569345Y-102265377D01*
X97569101Y-102260399D01*
X97569101Y-101409499D01*
X97569345Y-101404521D01*
X97569441Y-101403546D01*
X97571391Y-101393756D01*
X97571676Y-101392818D01*
X97575473Y-101383653D01*
X97575935Y-101382788D01*
X97581448Y-101374527D01*
X97582069Y-101373769D01*
X97589171Y-101366667D01*
X97589929Y-101366046D01*
X97598190Y-101360533D01*
X97599055Y-101360071D01*
X97608220Y-101356274D01*
X97609158Y-101355989D01*
X97618948Y-101354039D01*
X97619923Y-101353943D01*
X97624901Y-101353699D01*
X98463100Y-101353699D01*
X98468078Y-101353943D01*
G37*
D26*
X62103000Y-59309000D03*
X153797000Y-59309000D03*
X70002400Y-106172000D03*
X145897600Y-106172000D03*
D27*
X124460000Y-154624000D03*
X121920000Y-154624000D03*
X119380000Y-154624000D03*
X116840000Y-154624000D03*
X114300000Y-154624000D03*
X111760000Y-154624000D03*
X109220000Y-154624000D03*
X106680000Y-154624000D03*
X104140000Y-154624000D03*
X101600000Y-154624000D03*
X99060000Y-154624000D03*
X96520000Y-154624000D03*
X93980000Y-154624000D03*
X91440000Y-154624000D03*
X91440000Y-159704000D03*
X93980000Y-159704000D03*
X96520000Y-159704000D03*
X99060000Y-159704000D03*
X101600000Y-159704000D03*
X104140000Y-159704000D03*
X124460000Y-159704000D03*
X121920000Y-159704000D03*
X119380000Y-159704000D03*
X116840000Y-159704000D03*
X114300000Y-159704000D03*
X111760000Y-159704000D03*
X106680000Y-159704000D03*
X109220000Y-159704000D03*
D26*
X145897600Y-223012000D03*
X70002400Y-223012000D03*
X153797000Y-176149000D03*
D28*
X75057000Y-169926000D03*
X74168000Y-169926000D03*
X73279000Y-169926000D03*
X75057000Y-167894000D03*
X73279000Y-167894000D03*
X74168000Y-167894000D03*
X141732000Y-167894000D03*
X140843000Y-167894000D03*
X142621000Y-167894000D03*
X140843000Y-169926000D03*
X141732000Y-169926000D03*
X142621000Y-169926000D03*
X142621000Y-111506000D03*
X141732000Y-111506000D03*
X140843000Y-111506000D03*
X142621000Y-109474000D03*
X140843000Y-109474000D03*
X141732000Y-109474000D03*
D29*
X78282800Y-163703000D03*
X80772000Y-163703000D03*
X83261200Y-163703000D03*
D30*
X62103000Y-117729000D03*
D25*
X81788000Y-116459000D03*
D30*
X70002400Y-164592000D03*
X153797000Y-117729000D03*
G36*
G01*
X60301749Y-153222856D02*
X60301749Y-153222856D01*
G75*
G02*
X58749597Y-153712248I-1020772J531380D01*
G01*
X58749597Y-153712248D01*
G75*
G02*
X58260205Y-152160096I531380J1020772D01*
G01*
X58260205Y-152160096D01*
G75*
G02*
X59812357Y-151670704I1020772J-531380D01*
G01*
X59812357Y-151670704D01*
G75*
G02*
X60301749Y-153222856I-531380J-1020772D01*
G01*
G37*
G36*
G01*
X67568695Y-155765669D02*
X66552848Y-157717092D01*
G75*
G02*
X66484331Y-157738695I-45060J23457D01*
G01*
X64532908Y-156722848D01*
G75*
G02*
X64511305Y-156654331I23457J45060D01*
G01*
X65527152Y-154702908D01*
G75*
G02*
X65595669Y-154681305I45060J-23457D01*
G01*
X67547092Y-155697152D01*
G75*
G02*
X67568695Y-155765669I-23457J-45060D01*
G01*
G37*
G36*
G01*
X60301749Y-158556856D02*
X60301749Y-158556856D01*
G75*
G02*
X58749597Y-159046248I-1020772J531380D01*
G01*
X58749597Y-159046248D01*
G75*
G02*
X58260205Y-157494096I531380J1020772D01*
G01*
X58260205Y-157494096D01*
G75*
G02*
X59812357Y-157004704I1020772J-531380D01*
G01*
X59812357Y-157004704D01*
G75*
G02*
X60301749Y-158556856I-531380J-1020772D01*
G01*
G37*
G36*
G01*
X67568695Y-161099669D02*
X66552848Y-163051092D01*
G75*
G02*
X66484331Y-163072695I-45060J23457D01*
G01*
X64532908Y-162056848D01*
G75*
G02*
X64511305Y-161988331I23457J45060D01*
G01*
X65527152Y-160036908D01*
G75*
G02*
X65595669Y-160015305I45060J-23457D01*
G01*
X67547092Y-161031152D01*
G75*
G02*
X67568695Y-161099669I-23457J-45060D01*
G01*
G37*
D24*
X74450000Y-147320000D03*
X74450000Y-144780000D03*
X74450000Y-142240000D03*
X74450000Y-139700000D03*
X74450000Y-137160000D03*
X74450000Y-134620000D03*
X74450000Y-132080000D03*
D31*
X150550000Y-142875000D03*
X146050000Y-142875000D03*
X150550000Y-136375000D03*
X146050000Y-136375000D03*
X160329000Y-137922000D03*
X155829000Y-137922000D03*
X160329000Y-131422000D03*
X155829000Y-131422000D03*
X63464000Y-133298000D03*
X58964000Y-133298000D03*
X63464000Y-126798000D03*
X58964000Y-126798000D03*
X58964000Y-141022000D03*
X63464000Y-141022000D03*
X58964000Y-147522000D03*
X63464000Y-147522000D03*
X56352000Y-140410000D03*
X51852000Y-140410000D03*
X56352000Y-133910000D03*
X51852000Y-133910000D03*
X66076000Y-133910000D03*
X70576000Y-133910000D03*
X66076000Y-140410000D03*
X70576000Y-140410000D03*
D32*
X151892000Y-158115000D03*
X149638992Y-159287841D03*
X154145008Y-156942159D03*
D26*
X62103000Y-176149000D03*
D28*
X74168000Y-109474000D03*
X73279000Y-109474000D03*
X75057000Y-109474000D03*
X73279000Y-111506000D03*
X74168000Y-111506000D03*
X75057000Y-111506000D03*
D30*
X145897600Y-164592000D03*
D27*
X164298000Y-152273000D03*
X159298000Y-152273000D03*
D33*
X134366000Y-114300000D03*
D34*
X141986000Y-114300000D03*
D35*
X139364000Y-161213000D03*
D27*
X138104000Y-163703000D03*
X133604000Y-163703000D03*
D35*
X132354000Y-161213000D03*
D24*
X69596000Y-123317000D03*
X69596000Y-120777000D03*
X69596000Y-125857000D03*
X69596000Y-118237000D03*
M02*
