G04 #@! TF.GenerationSoftware,KiCad,Pcbnew,(5.1.9-0-10_14)*
G04 #@! TF.CreationDate,2021-07-17T22:46:38-07:00*
G04 #@! TF.ProjectId,system_advance,73797374-656d-45f6-9164-76616e63652e,1.0-dev0*
G04 #@! TF.SameCoordinates,Original*
G04 #@! TF.FileFunction,Copper,L2,Bot*
G04 #@! TF.FilePolarity,Positive*
%FSLAX46Y46*%
G04 Gerber Fmt 4.6, Leading zero omitted, Abs format (unit mm)*
G04 Created by KiCad (PCBNEW (5.1.9-0-10_14)) date 2021-07-17 22:46:38*
%MOMM*%
%LPD*%
G01*
G04 APERTURE LIST*
G04 #@! TA.AperFunction,NonConductor*
%ADD10C,0.100000*%
G04 #@! TD*
G04 #@! TA.AperFunction,NonConductor*
%ADD11C,0.250000*%
G04 #@! TD*
G04 #@! TA.AperFunction,ComponentPad*
%ADD12C,1.750000*%
G04 #@! TD*
G04 #@! TA.AperFunction,ComponentPad*
%ADD13O,1.700000X1.700000*%
G04 #@! TD*
G04 #@! TA.AperFunction,ComponentPad*
%ADD14C,1.700000*%
G04 #@! TD*
G04 #@! TA.AperFunction,ComponentPad*
%ADD15C,1.524000*%
G04 #@! TD*
G04 #@! TA.AperFunction,ComponentPad*
%ADD16C,5.399999*%
G04 #@! TD*
G04 #@! TA.AperFunction,ComponentPad*
%ADD17C,0.100000*%
G04 #@! TD*
G04 #@! TA.AperFunction,ComponentPad*
%ADD18C,2.000000*%
G04 #@! TD*
G04 #@! TA.AperFunction,ComponentPad*
%ADD19C,1.300000*%
G04 #@! TD*
G04 #@! TA.AperFunction,ComponentPad*
%ADD20C,1.600000*%
G04 #@! TD*
G04 #@! TA.AperFunction,ComponentPad*
%ADD21O,1.600000X1.600000*%
G04 #@! TD*
G04 #@! TA.AperFunction,ComponentPad*
%ADD22C,2.100000*%
G04 #@! TD*
G04 #@! TA.AperFunction,ViaPad*
%ADD23C,0.600000*%
G04 #@! TD*
G04 #@! TA.AperFunction,Conductor*
%ADD24C,0.254000*%
G04 #@! TD*
G04 #@! TA.AperFunction,Conductor*
%ADD25C,0.100000*%
G04 #@! TD*
G04 APERTURE END LIST*
D10*
G36*
X76581000Y-173228000D02*
G01*
X77343000Y-175895000D01*
X75184000Y-172974000D01*
X76581000Y-173228000D01*
G37*
X76581000Y-173228000D02*
X77343000Y-175895000D01*
X75184000Y-172974000D01*
X76581000Y-173228000D01*
G36*
X77597000Y-173736000D02*
G01*
X76200000Y-173482000D01*
X75438000Y-170815000D01*
X77597000Y-173736000D01*
G37*
X77597000Y-173736000D02*
X76200000Y-173482000D01*
X75438000Y-170815000D01*
X77597000Y-173736000D01*
D11*
X112607142Y-121770857D02*
X112207142Y-122970857D01*
X111807142Y-121770857D01*
X110778571Y-122970857D02*
X111464285Y-122970857D01*
X111121428Y-122970857D02*
X111121428Y-121770857D01*
X111235714Y-121942285D01*
X111350000Y-122056571D01*
X111464285Y-122113714D01*
X110264285Y-122856571D02*
X110207142Y-122913714D01*
X110264285Y-122970857D01*
X110321428Y-122913714D01*
X110264285Y-122856571D01*
X110264285Y-122970857D01*
X109464285Y-121770857D02*
X109350000Y-121770857D01*
X109235714Y-121828000D01*
X109178571Y-121885142D01*
X109121428Y-121999428D01*
X109064285Y-122228000D01*
X109064285Y-122513714D01*
X109121428Y-122742285D01*
X109178571Y-122856571D01*
X109235714Y-122913714D01*
X109350000Y-122970857D01*
X109464285Y-122970857D01*
X109578571Y-122913714D01*
X109635714Y-122856571D01*
X109692857Y-122742285D01*
X109750000Y-122513714D01*
X109750000Y-122228000D01*
X109692857Y-121999428D01*
X109635714Y-121885142D01*
X109578571Y-121828000D01*
X109464285Y-121770857D01*
X108550000Y-122513714D02*
X107635714Y-122513714D01*
X106550000Y-122970857D02*
X106550000Y-121770857D01*
X106550000Y-122913714D02*
X106664285Y-122970857D01*
X106892857Y-122970857D01*
X107007142Y-122913714D01*
X107064285Y-122856571D01*
X107121428Y-122742285D01*
X107121428Y-122399428D01*
X107064285Y-122285142D01*
X107007142Y-122228000D01*
X106892857Y-122170857D01*
X106664285Y-122170857D01*
X106550000Y-122228000D01*
X105521428Y-122913714D02*
X105635714Y-122970857D01*
X105864285Y-122970857D01*
X105978571Y-122913714D01*
X106035714Y-122799428D01*
X106035714Y-122342285D01*
X105978571Y-122228000D01*
X105864285Y-122170857D01*
X105635714Y-122170857D01*
X105521428Y-122228000D01*
X105464285Y-122342285D01*
X105464285Y-122456571D01*
X106035714Y-122570857D01*
X105064285Y-122170857D02*
X104778571Y-122970857D01*
X104492857Y-122170857D01*
X103807142Y-121770857D02*
X103692857Y-121770857D01*
X103578571Y-121828000D01*
X103521428Y-121885142D01*
X103464285Y-121999428D01*
X103407142Y-122228000D01*
X103407142Y-122513714D01*
X103464285Y-122742285D01*
X103521428Y-122856571D01*
X103578571Y-122913714D01*
X103692857Y-122970857D01*
X103807142Y-122970857D01*
X103921428Y-122913714D01*
X103978571Y-122856571D01*
X104035714Y-122742285D01*
X104092857Y-122513714D01*
X104092857Y-122228000D01*
X104035714Y-121999428D01*
X103978571Y-121885142D01*
X103921428Y-121828000D01*
X103807142Y-121770857D01*
D12*
X124460000Y-154624000D03*
X121920000Y-154624000D03*
X119380000Y-154624000D03*
X116840000Y-154624000D03*
X114300000Y-154624000D03*
X111760000Y-154624000D03*
X109220000Y-154624000D03*
X106680000Y-154624000D03*
X104140000Y-154624000D03*
X101600000Y-154624000D03*
X99060000Y-154624000D03*
X96520000Y-154624000D03*
X93980000Y-154624000D03*
X91440000Y-154624000D03*
X91440000Y-159704000D03*
X93980000Y-159704000D03*
X96520000Y-159704000D03*
X99060000Y-159704000D03*
X101600000Y-159704000D03*
X104140000Y-159704000D03*
X124460000Y-159704000D03*
X121920000Y-159704000D03*
X119380000Y-159704000D03*
X116840000Y-159704000D03*
X114300000Y-159704000D03*
X111760000Y-159704000D03*
X106680000Y-159704000D03*
X109220000Y-159704000D03*
D13*
X116840000Y-163449000D03*
X101600000Y-163449000D03*
X99060000Y-163449000D03*
X96520000Y-163449000D03*
X119380000Y-163449000D03*
D14*
X104140000Y-163449000D03*
D13*
X114300000Y-163449000D03*
X111760000Y-163449000D03*
X109220000Y-163449000D03*
D14*
X106680000Y-163449000D03*
D15*
X78282800Y-163703000D03*
X80772000Y-163703000D03*
X83261200Y-163703000D03*
D16*
X62103000Y-117729000D03*
D13*
X81788000Y-116459000D03*
D16*
X70002400Y-164592000D03*
X153797000Y-117729000D03*
G04 #@! TA.AperFunction,ComponentPad*
G36*
G01*
X60256689Y-153199399D02*
X60256689Y-153199399D01*
G75*
G02*
X58773054Y-153667188I-975712J507923D01*
G01*
X58773054Y-153667188D01*
G75*
G02*
X58305265Y-152183553I507923J975712D01*
G01*
X58305265Y-152183553D01*
G75*
G02*
X59788900Y-151715764I975712J-507923D01*
G01*
X59788900Y-151715764D01*
G75*
G02*
X60256689Y-153199399I-507923J-975712D01*
G01*
G37*
G04 #@! TD.AperFunction*
G04 #@! TA.AperFunction,ComponentPad*
D17*
G36*
X67523635Y-155742212D02*
G01*
X66507788Y-157693635D01*
X64556365Y-156677788D01*
X65572212Y-154726365D01*
X67523635Y-155742212D01*
G37*
G04 #@! TD.AperFunction*
G04 #@! TA.AperFunction,ComponentPad*
G36*
G01*
X60256689Y-158533399D02*
X60256689Y-158533399D01*
G75*
G02*
X58773054Y-159001188I-975712J507923D01*
G01*
X58773054Y-159001188D01*
G75*
G02*
X58305265Y-157517553I507923J975712D01*
G01*
X58305265Y-157517553D01*
G75*
G02*
X59788900Y-157049764I975712J-507923D01*
G01*
X59788900Y-157049764D01*
G75*
G02*
X60256689Y-158533399I-507923J-975712D01*
G01*
G37*
G04 #@! TD.AperFunction*
G04 #@! TA.AperFunction,ComponentPad*
G36*
X67523635Y-161076212D02*
G01*
X66507788Y-163027635D01*
X64556365Y-162011788D01*
X65572212Y-160060365D01*
X67523635Y-161076212D01*
G37*
G04 #@! TD.AperFunction*
D14*
X74450000Y-147320000D03*
X74450000Y-144780000D03*
X74450000Y-142240000D03*
X74450000Y-139700000D03*
X74450000Y-137160000D03*
X74450000Y-134620000D03*
X74450000Y-132080000D03*
D18*
X150550000Y-142875000D03*
X146050000Y-142875000D03*
X150550000Y-136375000D03*
X146050000Y-136375000D03*
X160329000Y-137922000D03*
X155829000Y-137922000D03*
X160329000Y-131422000D03*
X155829000Y-131422000D03*
X63464000Y-133298000D03*
X58964000Y-133298000D03*
X63464000Y-126798000D03*
X58964000Y-126798000D03*
X58964000Y-141022000D03*
X63464000Y-141022000D03*
X58964000Y-147522000D03*
X63464000Y-147522000D03*
X56352000Y-140410000D03*
X51852000Y-140410000D03*
X56352000Y-133910000D03*
X51852000Y-133910000D03*
X66076000Y-133910000D03*
X70576000Y-133910000D03*
X66076000Y-140410000D03*
X70576000Y-140410000D03*
D19*
X151892000Y-158115000D03*
X149638992Y-159287841D03*
X154145008Y-156942159D03*
D16*
X145897600Y-164592000D03*
D12*
X164298000Y-152273000D03*
X159298000Y-152273000D03*
D20*
X134366000Y-114300000D03*
D21*
X141986000Y-114300000D03*
D22*
X139364000Y-161213000D03*
D12*
X138104000Y-163703000D03*
X133604000Y-163703000D03*
D22*
X132354000Y-161213000D03*
D14*
X69596000Y-123317000D03*
X69596000Y-120777000D03*
X69596000Y-125857000D03*
X69596000Y-118237000D03*
D23*
X86360000Y-141732000D03*
X97028000Y-149098000D03*
X91948000Y-149098000D03*
X86360000Y-157480000D03*
X76073000Y-163195000D03*
X85979000Y-148971000D03*
X85979000Y-148971000D03*
X115570000Y-165608000D03*
X91313000Y-130937000D03*
X102870000Y-151892000D03*
X92710000Y-157734000D03*
X91948000Y-163703000D03*
X129540000Y-159004000D03*
X76454000Y-141224000D03*
X66040000Y-127000000D03*
X127254000Y-151511006D03*
X133731000Y-151511000D03*
X101346008Y-157353000D03*
X123063002Y-156337000D03*
X94996000Y-130937000D03*
X98044006Y-133985000D03*
X93980000Y-137667996D03*
X84835996Y-128523996D03*
X80391000Y-130556000D03*
X89915998Y-140081000D03*
X93980000Y-142113000D03*
X79311499Y-127444501D03*
X133731000Y-153289000D03*
X128016000Y-153289000D03*
X110490010Y-157226000D03*
X118110000Y-160782000D03*
X140779500Y-156527500D03*
X123444000Y-161798000D03*
X113030000Y-158114998D03*
X128016000Y-155448000D03*
X130428998Y-155448000D03*
X78994000Y-139700008D03*
X78613000Y-146431000D03*
D24*
X101346008Y-157417992D02*
X101346008Y-157353000D01*
X99060000Y-159704000D02*
X101346008Y-157417992D01*
X124968000Y-156337000D02*
X123063002Y-156337000D01*
X127254000Y-154051000D02*
X124968000Y-156337000D01*
X127254000Y-151511006D02*
X127254000Y-154051000D01*
X145669000Y-139573000D02*
X133731000Y-151511000D01*
X154178000Y-139573000D02*
X145669000Y-139573000D01*
X155829000Y-137922000D02*
X154178000Y-139573000D01*
X109220000Y-154624000D02*
X109220000Y-145160994D01*
X109220000Y-145160994D02*
X98044006Y-133985000D01*
X72009000Y-129540000D02*
X93599000Y-129540000D01*
X67945000Y-133604000D02*
X72009000Y-129540000D01*
X67945000Y-136541000D02*
X67945000Y-133604000D01*
X93599000Y-129540000D02*
X94996000Y-130937000D01*
X63464000Y-141022000D02*
X67945000Y-136541000D01*
X106680000Y-154624000D02*
X106680000Y-150367996D01*
X106680000Y-150367996D02*
X93980000Y-137667996D01*
X51852000Y-133910000D02*
X57238004Y-128523996D01*
X57238004Y-128523996D02*
X84835996Y-128523996D01*
X104140000Y-154624000D02*
X104140000Y-150114000D01*
X104140000Y-150114000D02*
X94107000Y-140081000D01*
X94107000Y-140081000D02*
X89915998Y-140081000D01*
X73660000Y-130556000D02*
X80391000Y-130556000D01*
X70576000Y-133640000D02*
X73660000Y-130556000D01*
X70576000Y-133910000D02*
X70576000Y-133640000D01*
X101600000Y-149733000D02*
X101600000Y-154624000D01*
X93980000Y-142113000D02*
X101600000Y-149733000D01*
X58964000Y-126798000D02*
X60667000Y-125095000D01*
X60667000Y-125095000D02*
X66421000Y-125095000D01*
X68770501Y-127444501D02*
X79311499Y-127444501D01*
X66421000Y-125095000D02*
X68770501Y-127444501D01*
X125063514Y-157226000D02*
X110490010Y-157226000D01*
X128016000Y-154273514D02*
X125063514Y-157226000D01*
X128016000Y-153289000D02*
X128016000Y-154273514D01*
X135636000Y-153289000D02*
X133731000Y-153289000D01*
X146050000Y-142875000D02*
X135636000Y-153289000D01*
X108266000Y-161290000D02*
X117602000Y-161290000D01*
X117602000Y-161290000D02*
X118110000Y-160782000D01*
X106680000Y-159704000D02*
X108266000Y-161290000D01*
X128778000Y-161798000D02*
X123444000Y-161798000D01*
X140779500Y-156527500D02*
X134048500Y-156527500D01*
X134048500Y-156527500D02*
X128778000Y-161798000D01*
X105853000Y-156337000D02*
X109220000Y-159704000D01*
X77724000Y-143256000D02*
X90805000Y-156337000D01*
X90805000Y-156337000D02*
X105853000Y-156337000D01*
X77724000Y-137894000D02*
X77724000Y-143256000D01*
X74450000Y-134620000D02*
X77724000Y-137894000D01*
X113030000Y-158114998D02*
X125349002Y-158114998D01*
X125349002Y-158114998D02*
X128016000Y-155448000D01*
X145799151Y-155448000D02*
X130428998Y-155448000D01*
X149638992Y-159287841D02*
X145799151Y-155448000D01*
X125919000Y-159704000D02*
X124460000Y-159704000D01*
X129159000Y-156464000D02*
X125919000Y-159704000D01*
X129159000Y-144780000D02*
X129159000Y-156464000D01*
X116459000Y-132080000D02*
X129159000Y-144780000D01*
X74450000Y-132080000D02*
X116459000Y-132080000D01*
X79056008Y-139700008D02*
X78994000Y-139700008D01*
X93980000Y-154624000D02*
X79056008Y-139700008D01*
X78613000Y-146403000D02*
X78613000Y-146431000D01*
X74450000Y-142240000D02*
X78613000Y-146403000D01*
X119699000Y-161925000D02*
X121920000Y-159704000D01*
X86487000Y-161925000D02*
X119699000Y-161925000D01*
X72771000Y-148209000D02*
X86487000Y-161925000D01*
X72771000Y-138839000D02*
X72771000Y-148209000D01*
X74450000Y-137160000D02*
X72771000Y-138839000D01*
X142199901Y-112293821D02*
X142361688Y-112360836D01*
X142486240Y-112385611D01*
X142592367Y-112442337D01*
X142730915Y-112484365D01*
X142838895Y-112495000D01*
X142875000Y-112498556D01*
X142911105Y-112495000D01*
X146784082Y-112495000D01*
X147713803Y-112565722D01*
X148606680Y-112772680D01*
X149074598Y-112941726D01*
X152611583Y-114610239D01*
X152217285Y-114773562D01*
X151671062Y-115138537D01*
X151206537Y-115603062D01*
X150841562Y-116149285D01*
X150590163Y-116756217D01*
X150462001Y-117400531D01*
X150462001Y-118057469D01*
X150590163Y-118701783D01*
X150841562Y-119308715D01*
X151206537Y-119854938D01*
X151671062Y-120319463D01*
X152217285Y-120684438D01*
X152824217Y-120935837D01*
X153468531Y-121063999D01*
X154125469Y-121063999D01*
X154769783Y-120935837D01*
X155376715Y-120684438D01*
X155922938Y-120319463D01*
X156387463Y-119854938D01*
X156752438Y-119308715D01*
X157003837Y-118701783D01*
X157131999Y-118057469D01*
X157131999Y-117400531D01*
X157003837Y-116756217D01*
X156965739Y-116664239D01*
X162733113Y-119384902D01*
X163540504Y-119849556D01*
X164248034Y-120414782D01*
X164861928Y-121080527D01*
X165368055Y-121831468D01*
X165754772Y-122650330D01*
X166013178Y-123518264D01*
X166140825Y-124440575D01*
X166142189Y-124465403D01*
X166142143Y-124466547D01*
X167760379Y-152345492D01*
X167691278Y-153253901D01*
X167487064Y-154134943D01*
X167151930Y-154974961D01*
X166693590Y-155754624D01*
X166122591Y-156455986D01*
X165448942Y-157065743D01*
X164812002Y-157497074D01*
X149045923Y-165706049D01*
X149104437Y-165564783D01*
X149232599Y-164920469D01*
X149232599Y-164263531D01*
X149104437Y-163619217D01*
X148853038Y-163012285D01*
X148488063Y-162466062D01*
X148023538Y-162001537D01*
X147477315Y-161636562D01*
X146870383Y-161385163D01*
X146226069Y-161257001D01*
X145569131Y-161257001D01*
X144924817Y-161385163D01*
X144317885Y-161636562D01*
X143771662Y-162001537D01*
X143307137Y-162466062D01*
X142942162Y-163012285D01*
X142690763Y-163619217D01*
X142562601Y-164263531D01*
X142562601Y-164920469D01*
X142690763Y-165564783D01*
X142942162Y-166171715D01*
X143307137Y-166717938D01*
X143494199Y-166905000D01*
X142911105Y-166905000D01*
X142875000Y-166901444D01*
X142838895Y-166905000D01*
X142730915Y-166915635D01*
X142592367Y-166957663D01*
X142486240Y-167014389D01*
X142361688Y-167039164D01*
X142199901Y-167106179D01*
X142176500Y-167121815D01*
X142153099Y-167106179D01*
X141991312Y-167039164D01*
X141819559Y-167005000D01*
X141644441Y-167005000D01*
X141472688Y-167039164D01*
X141310901Y-167106179D01*
X141287500Y-167121815D01*
X141264099Y-167106179D01*
X141102312Y-167039164D01*
X140977760Y-167014389D01*
X140871633Y-166957663D01*
X140733085Y-166915635D01*
X140625105Y-166905000D01*
X140589000Y-166901444D01*
X140552895Y-166905000D01*
X75347105Y-166905000D01*
X75311000Y-166901444D01*
X75274895Y-166905000D01*
X75166915Y-166915635D01*
X75028367Y-166957663D01*
X74922240Y-167014389D01*
X74797688Y-167039164D01*
X74635901Y-167106179D01*
X74612500Y-167121815D01*
X74589099Y-167106179D01*
X74427312Y-167039164D01*
X74255559Y-167005000D01*
X74080441Y-167005000D01*
X73908688Y-167039164D01*
X73746901Y-167106179D01*
X73723500Y-167121815D01*
X73700099Y-167106179D01*
X73538312Y-167039164D01*
X73413760Y-167014389D01*
X73307633Y-166957663D01*
X73169085Y-166915635D01*
X73061105Y-166905000D01*
X73025000Y-166901444D01*
X72988895Y-166905000D01*
X72405801Y-166905000D01*
X72592863Y-166717938D01*
X72957838Y-166171715D01*
X73209237Y-165564783D01*
X73337399Y-164920469D01*
X73337399Y-164263531D01*
X73209237Y-163619217D01*
X73186949Y-163565408D01*
X76885800Y-163565408D01*
X76885800Y-163840592D01*
X76939486Y-164110490D01*
X77044795Y-164364727D01*
X77197680Y-164593535D01*
X77392265Y-164788120D01*
X77621073Y-164941005D01*
X77875310Y-165046314D01*
X78145208Y-165100000D01*
X78420392Y-165100000D01*
X78690290Y-165046314D01*
X78944527Y-164941005D01*
X79173335Y-164788120D01*
X79367920Y-164593535D01*
X79520805Y-164364727D01*
X79527400Y-164348805D01*
X79533995Y-164364727D01*
X79686880Y-164593535D01*
X79881465Y-164788120D01*
X80110273Y-164941005D01*
X80364510Y-165046314D01*
X80634408Y-165100000D01*
X80909592Y-165100000D01*
X81179490Y-165046314D01*
X81433727Y-164941005D01*
X81662535Y-164788120D01*
X81857120Y-164593535D01*
X82010005Y-164364727D01*
X82016600Y-164348805D01*
X82023195Y-164364727D01*
X82176080Y-164593535D01*
X82370665Y-164788120D01*
X82599473Y-164941005D01*
X82853710Y-165046314D01*
X83123608Y-165100000D01*
X83398792Y-165100000D01*
X83668690Y-165046314D01*
X83922927Y-164941005D01*
X84151735Y-164788120D01*
X84346320Y-164593535D01*
X84499205Y-164364727D01*
X84604514Y-164110490D01*
X84658200Y-163840592D01*
X84658200Y-163565408D01*
X84604514Y-163295510D01*
X84499205Y-163041273D01*
X84346320Y-162812465D01*
X84151735Y-162617880D01*
X83922927Y-162464995D01*
X83668690Y-162359686D01*
X83398792Y-162306000D01*
X83123608Y-162306000D01*
X82853710Y-162359686D01*
X82599473Y-162464995D01*
X82370665Y-162617880D01*
X82176080Y-162812465D01*
X82023195Y-163041273D01*
X82016600Y-163057195D01*
X82010005Y-163041273D01*
X81857120Y-162812465D01*
X81662535Y-162617880D01*
X81433727Y-162464995D01*
X81179490Y-162359686D01*
X80909592Y-162306000D01*
X80634408Y-162306000D01*
X80364510Y-162359686D01*
X80110273Y-162464995D01*
X79881465Y-162617880D01*
X79686880Y-162812465D01*
X79533995Y-163041273D01*
X79527400Y-163057195D01*
X79520805Y-163041273D01*
X79367920Y-162812465D01*
X79173335Y-162617880D01*
X78944527Y-162464995D01*
X78690290Y-162359686D01*
X78420392Y-162306000D01*
X78145208Y-162306000D01*
X77875310Y-162359686D01*
X77621073Y-162464995D01*
X77392265Y-162617880D01*
X77197680Y-162812465D01*
X77044795Y-163041273D01*
X76939486Y-163295510D01*
X76885800Y-163565408D01*
X73186949Y-163565408D01*
X72957838Y-163012285D01*
X72592863Y-162466062D01*
X72128338Y-162001537D01*
X71582115Y-161636562D01*
X70975183Y-161385163D01*
X70330869Y-161257001D01*
X69673931Y-161257001D01*
X69029617Y-161385163D01*
X68422685Y-161636562D01*
X67876462Y-162001537D01*
X67636241Y-162241758D01*
X68089612Y-161370841D01*
X68136216Y-161254763D01*
X68159279Y-161131824D01*
X68157915Y-161006747D01*
X68132175Y-160884340D01*
X68083050Y-160769307D01*
X68012427Y-160666067D01*
X67923019Y-160578590D01*
X67818264Y-160510235D01*
X65866841Y-159494388D01*
X65750763Y-159447784D01*
X65627824Y-159424721D01*
X65502747Y-159426085D01*
X65380340Y-159451825D01*
X65265307Y-159500950D01*
X65162067Y-159571573D01*
X65074590Y-159660981D01*
X65006235Y-159765736D01*
X63990388Y-161717159D01*
X63943784Y-161833237D01*
X63920721Y-161956176D01*
X63922085Y-162081253D01*
X63947825Y-162203660D01*
X63996950Y-162318693D01*
X64067573Y-162421933D01*
X64156981Y-162509410D01*
X64261736Y-162577765D01*
X66213159Y-163593612D01*
X66329237Y-163640216D01*
X66452176Y-163663279D01*
X66577253Y-163661915D01*
X66699660Y-163636175D01*
X66807639Y-163590062D01*
X66795563Y-163619217D01*
X66667401Y-164263531D01*
X66667401Y-164920469D01*
X66795563Y-165564783D01*
X66855090Y-165708495D01*
X51770958Y-157854593D01*
X57545977Y-157854593D01*
X57545977Y-158196359D01*
X57612652Y-158531557D01*
X57743440Y-158847307D01*
X57933314Y-159131474D01*
X58174979Y-159373139D01*
X58459146Y-159563013D01*
X58774896Y-159693801D01*
X59110094Y-159760476D01*
X59451860Y-159760476D01*
X59787058Y-159693801D01*
X60102808Y-159563013D01*
X60386975Y-159373139D01*
X60628640Y-159131474D01*
X60818514Y-158847307D01*
X60949302Y-158531557D01*
X61015977Y-158196359D01*
X61015977Y-157854593D01*
X60949302Y-157519395D01*
X60818514Y-157203645D01*
X60628640Y-156919478D01*
X60386975Y-156677813D01*
X60303709Y-156622176D01*
X63920721Y-156622176D01*
X63922085Y-156747253D01*
X63947825Y-156869660D01*
X63996950Y-156984693D01*
X64067573Y-157087933D01*
X64156981Y-157175410D01*
X64261736Y-157243765D01*
X66213159Y-158259612D01*
X66329237Y-158306216D01*
X66452176Y-158329279D01*
X66577253Y-158327915D01*
X66699660Y-158302175D01*
X66814693Y-158253050D01*
X66917933Y-158182427D01*
X67005410Y-158093019D01*
X67073765Y-157988264D01*
X68089612Y-156036841D01*
X68136216Y-155920763D01*
X68159279Y-155797824D01*
X68157915Y-155672747D01*
X68132175Y-155550340D01*
X68083050Y-155435307D01*
X68012427Y-155332067D01*
X67923019Y-155244590D01*
X67818264Y-155176235D01*
X65866841Y-154160388D01*
X65750763Y-154113784D01*
X65627824Y-154090721D01*
X65502747Y-154092085D01*
X65380340Y-154117825D01*
X65265307Y-154166950D01*
X65162067Y-154237573D01*
X65074590Y-154326981D01*
X65006235Y-154431736D01*
X63990388Y-156383159D01*
X63943784Y-156499237D01*
X63920721Y-156622176D01*
X60303709Y-156622176D01*
X60102808Y-156487939D01*
X59787058Y-156357151D01*
X59451860Y-156290476D01*
X59110094Y-156290476D01*
X58774896Y-156357151D01*
X58459146Y-156487939D01*
X58174979Y-156677813D01*
X57933314Y-156919478D01*
X57743440Y-157203645D01*
X57612652Y-157519395D01*
X57545977Y-157854593D01*
X51770958Y-157854593D01*
X51088057Y-157499025D01*
X50337407Y-156978065D01*
X49680954Y-156355961D01*
X49126154Y-155641720D01*
X48685773Y-154851777D01*
X48369946Y-154004307D01*
X48185084Y-153114687D01*
X48146724Y-152520593D01*
X57545977Y-152520593D01*
X57545977Y-152862359D01*
X57612652Y-153197557D01*
X57743440Y-153513307D01*
X57933314Y-153797474D01*
X58174979Y-154039139D01*
X58459146Y-154229013D01*
X58774896Y-154359801D01*
X59110094Y-154426476D01*
X59451860Y-154426476D01*
X59787058Y-154359801D01*
X60102808Y-154229013D01*
X60386975Y-154039139D01*
X60628640Y-153797474D01*
X60818514Y-153513307D01*
X60949302Y-153197557D01*
X61015977Y-152862359D01*
X61015977Y-152520593D01*
X60949302Y-152185395D01*
X60818514Y-151869645D01*
X60628640Y-151585478D01*
X60386975Y-151343813D01*
X60102808Y-151153939D01*
X59787058Y-151023151D01*
X59451860Y-150956476D01*
X59110094Y-150956476D01*
X58774896Y-151023151D01*
X58459146Y-151153939D01*
X58174979Y-151343813D01*
X57933314Y-151585478D01*
X57743440Y-151869645D01*
X57612652Y-152185395D01*
X57545977Y-152520593D01*
X48146724Y-152520593D01*
X48135692Y-152349749D01*
X48350501Y-148657413D01*
X58008192Y-148657413D01*
X58103956Y-148921814D01*
X58393571Y-149062704D01*
X58705108Y-149144384D01*
X59026595Y-149163718D01*
X59345675Y-149119961D01*
X59650088Y-149014795D01*
X59824044Y-148921814D01*
X59919808Y-148657413D01*
X58964000Y-147701605D01*
X58008192Y-148657413D01*
X48350501Y-148657413D01*
X48412915Y-147584595D01*
X57322282Y-147584595D01*
X57366039Y-147903675D01*
X57471205Y-148208088D01*
X57564186Y-148382044D01*
X57828587Y-148477808D01*
X58784395Y-147522000D01*
X59143605Y-147522000D01*
X60099413Y-148477808D01*
X60363814Y-148382044D01*
X60504704Y-148092429D01*
X60586384Y-147780892D01*
X60605718Y-147459405D01*
X60592219Y-147360967D01*
X61829000Y-147360967D01*
X61829000Y-147683033D01*
X61891832Y-147998912D01*
X62015082Y-148296463D01*
X62194013Y-148564252D01*
X62421748Y-148791987D01*
X62689537Y-148970918D01*
X62987088Y-149094168D01*
X63302967Y-149157000D01*
X63625033Y-149157000D01*
X63940912Y-149094168D01*
X64238463Y-148970918D01*
X64506252Y-148791987D01*
X64733987Y-148564252D01*
X64912918Y-148296463D01*
X65036168Y-147998912D01*
X65099000Y-147683033D01*
X65099000Y-147360967D01*
X65036168Y-147045088D01*
X64912918Y-146747537D01*
X64733987Y-146479748D01*
X64506252Y-146252013D01*
X64238463Y-146073082D01*
X63940912Y-145949832D01*
X63625033Y-145887000D01*
X63302967Y-145887000D01*
X62987088Y-145949832D01*
X62689537Y-146073082D01*
X62421748Y-146252013D01*
X62194013Y-146479748D01*
X62015082Y-146747537D01*
X61891832Y-147045088D01*
X61829000Y-147360967D01*
X60592219Y-147360967D01*
X60561961Y-147140325D01*
X60456795Y-146835912D01*
X60363814Y-146661956D01*
X60099413Y-146566192D01*
X59143605Y-147522000D01*
X58784395Y-147522000D01*
X57828587Y-146566192D01*
X57564186Y-146661956D01*
X57423296Y-146951571D01*
X57341616Y-147263108D01*
X57322282Y-147584595D01*
X48412915Y-147584595D01*
X48482611Y-146386587D01*
X58008192Y-146386587D01*
X58964000Y-147342395D01*
X59919808Y-146386587D01*
X59824044Y-146122186D01*
X59534429Y-145981296D01*
X59222892Y-145899616D01*
X58901405Y-145880282D01*
X58582325Y-145924039D01*
X58277912Y-146029205D01*
X58103956Y-146122186D01*
X58008192Y-146386587D01*
X48482611Y-146386587D01*
X48728653Y-142157413D01*
X58008192Y-142157413D01*
X58103956Y-142421814D01*
X58393571Y-142562704D01*
X58705108Y-142644384D01*
X59026595Y-142663718D01*
X59345675Y-142619961D01*
X59650088Y-142514795D01*
X59824044Y-142421814D01*
X59919808Y-142157413D01*
X58964000Y-141201605D01*
X58008192Y-142157413D01*
X48728653Y-142157413D01*
X48839682Y-140248967D01*
X50217000Y-140248967D01*
X50217000Y-140571033D01*
X50279832Y-140886912D01*
X50403082Y-141184463D01*
X50582013Y-141452252D01*
X50809748Y-141679987D01*
X51077537Y-141858918D01*
X51375088Y-141982168D01*
X51690967Y-142045000D01*
X52013033Y-142045000D01*
X52328912Y-141982168D01*
X52626463Y-141858918D01*
X52894252Y-141679987D01*
X53028826Y-141545413D01*
X55396192Y-141545413D01*
X55491956Y-141809814D01*
X55781571Y-141950704D01*
X56093108Y-142032384D01*
X56414595Y-142051718D01*
X56733675Y-142007961D01*
X57038088Y-141902795D01*
X57212044Y-141809814D01*
X57307807Y-141545415D01*
X57423475Y-141661083D01*
X57446880Y-141637678D01*
X57471205Y-141708088D01*
X57564186Y-141882044D01*
X57828587Y-141977808D01*
X58784395Y-141022000D01*
X59143605Y-141022000D01*
X60099413Y-141977808D01*
X60363814Y-141882044D01*
X60504704Y-141592429D01*
X60586384Y-141280892D01*
X60605718Y-140959405D01*
X60561961Y-140640325D01*
X60456795Y-140335912D01*
X60363814Y-140161956D01*
X60099413Y-140066192D01*
X59143605Y-141022000D01*
X58784395Y-141022000D01*
X58770253Y-141007858D01*
X58949858Y-140828253D01*
X58964000Y-140842395D01*
X59919808Y-139886587D01*
X59824044Y-139622186D01*
X59534429Y-139481296D01*
X59222892Y-139399616D01*
X58901405Y-139380282D01*
X58582325Y-139424039D01*
X58277912Y-139529205D01*
X58103956Y-139622186D01*
X58008193Y-139886585D01*
X57892525Y-139770917D01*
X57869120Y-139794322D01*
X57844795Y-139723912D01*
X57751814Y-139549956D01*
X57487413Y-139454192D01*
X56531605Y-140410000D01*
X56545748Y-140424143D01*
X56366143Y-140603748D01*
X56352000Y-140589605D01*
X55396192Y-141545413D01*
X53028826Y-141545413D01*
X53121987Y-141452252D01*
X53300918Y-141184463D01*
X53424168Y-140886912D01*
X53487000Y-140571033D01*
X53487000Y-140472595D01*
X54710282Y-140472595D01*
X54754039Y-140791675D01*
X54859205Y-141096088D01*
X54952186Y-141270044D01*
X55216587Y-141365808D01*
X56172395Y-140410000D01*
X55216587Y-139454192D01*
X54952186Y-139549956D01*
X54811296Y-139839571D01*
X54729616Y-140151108D01*
X54710282Y-140472595D01*
X53487000Y-140472595D01*
X53487000Y-140248967D01*
X53424168Y-139933088D01*
X53300918Y-139635537D01*
X53121987Y-139367748D01*
X53028826Y-139274587D01*
X55396192Y-139274587D01*
X56352000Y-140230395D01*
X57307808Y-139274587D01*
X57212044Y-139010186D01*
X56922429Y-138869296D01*
X56610892Y-138787616D01*
X56289405Y-138768282D01*
X55970325Y-138812039D01*
X55665912Y-138917205D01*
X55491956Y-139010186D01*
X55396192Y-139274587D01*
X53028826Y-139274587D01*
X52894252Y-139140013D01*
X52626463Y-138961082D01*
X52328912Y-138837832D01*
X52013033Y-138775000D01*
X51690967Y-138775000D01*
X51375088Y-138837832D01*
X51077537Y-138961082D01*
X50809748Y-139140013D01*
X50582013Y-139367748D01*
X50403082Y-139635537D01*
X50279832Y-139933088D01*
X50217000Y-140248967D01*
X48839682Y-140248967D01*
X49217835Y-133748967D01*
X50217000Y-133748967D01*
X50217000Y-134071033D01*
X50279832Y-134386912D01*
X50403082Y-134684463D01*
X50582013Y-134952252D01*
X50809748Y-135179987D01*
X51077537Y-135358918D01*
X51375088Y-135482168D01*
X51690967Y-135545000D01*
X52013033Y-135545000D01*
X52328912Y-135482168D01*
X52626463Y-135358918D01*
X52894252Y-135179987D01*
X53028826Y-135045413D01*
X55396192Y-135045413D01*
X55491956Y-135309814D01*
X55781571Y-135450704D01*
X56093108Y-135532384D01*
X56414595Y-135551718D01*
X56733675Y-135507961D01*
X57038088Y-135402795D01*
X57212044Y-135309814D01*
X57307808Y-135045413D01*
X56352000Y-134089605D01*
X55396192Y-135045413D01*
X53028826Y-135045413D01*
X53121987Y-134952252D01*
X53300918Y-134684463D01*
X53424168Y-134386912D01*
X53487000Y-134071033D01*
X53487000Y-133972595D01*
X54710282Y-133972595D01*
X54754039Y-134291675D01*
X54859205Y-134596088D01*
X54952186Y-134770044D01*
X55216587Y-134865808D01*
X56172395Y-133910000D01*
X55216587Y-132954192D01*
X54952186Y-133049956D01*
X54811296Y-133339571D01*
X54729616Y-133651108D01*
X54710282Y-133972595D01*
X53487000Y-133972595D01*
X53487000Y-133748967D01*
X53424168Y-133433088D01*
X53419006Y-133420625D01*
X54065044Y-132774587D01*
X55396192Y-132774587D01*
X56352000Y-133730395D01*
X56366143Y-133716253D01*
X56545748Y-133895858D01*
X56531605Y-133910000D01*
X57487413Y-134865808D01*
X57751814Y-134770044D01*
X57873554Y-134519793D01*
X57921748Y-134567987D01*
X58189537Y-134746918D01*
X58487088Y-134870168D01*
X58802967Y-134933000D01*
X59125033Y-134933000D01*
X59440912Y-134870168D01*
X59738463Y-134746918D01*
X60006252Y-134567987D01*
X60140826Y-134433413D01*
X62508192Y-134433413D01*
X62603956Y-134697814D01*
X62893571Y-134838704D01*
X63205108Y-134920384D01*
X63526595Y-134939718D01*
X63845675Y-134895961D01*
X64150088Y-134790795D01*
X64324044Y-134697814D01*
X64419807Y-134433415D01*
X64535475Y-134549083D01*
X64558880Y-134525678D01*
X64583205Y-134596088D01*
X64676186Y-134770044D01*
X64940587Y-134865808D01*
X65896395Y-133910000D01*
X65882253Y-133895858D01*
X66061858Y-133716253D01*
X66076000Y-133730395D01*
X67031808Y-132774587D01*
X66936044Y-132510186D01*
X66646429Y-132369296D01*
X66334892Y-132287616D01*
X66013405Y-132268282D01*
X65694325Y-132312039D01*
X65389912Y-132417205D01*
X65215956Y-132510186D01*
X65120193Y-132774585D01*
X65004525Y-132658917D01*
X64981120Y-132682322D01*
X64956795Y-132611912D01*
X64863814Y-132437956D01*
X64599413Y-132342192D01*
X63643605Y-133298000D01*
X63657748Y-133312143D01*
X63478143Y-133491748D01*
X63464000Y-133477605D01*
X62508192Y-134433413D01*
X60140826Y-134433413D01*
X60233987Y-134340252D01*
X60412918Y-134072463D01*
X60536168Y-133774912D01*
X60599000Y-133459033D01*
X60599000Y-133360595D01*
X61822282Y-133360595D01*
X61866039Y-133679675D01*
X61971205Y-133984088D01*
X62064186Y-134158044D01*
X62328587Y-134253808D01*
X63284395Y-133298000D01*
X62328587Y-132342192D01*
X62064186Y-132437956D01*
X61923296Y-132727571D01*
X61841616Y-133039108D01*
X61822282Y-133360595D01*
X60599000Y-133360595D01*
X60599000Y-133136967D01*
X60536168Y-132821088D01*
X60412918Y-132523537D01*
X60233987Y-132255748D01*
X60140826Y-132162587D01*
X62508192Y-132162587D01*
X63464000Y-133118395D01*
X64419808Y-132162587D01*
X64324044Y-131898186D01*
X64034429Y-131757296D01*
X63722892Y-131675616D01*
X63401405Y-131656282D01*
X63082325Y-131700039D01*
X62777912Y-131805205D01*
X62603956Y-131898186D01*
X62508192Y-132162587D01*
X60140826Y-132162587D01*
X60006252Y-132028013D01*
X59738463Y-131849082D01*
X59440912Y-131725832D01*
X59125033Y-131663000D01*
X58802967Y-131663000D01*
X58487088Y-131725832D01*
X58189537Y-131849082D01*
X57921748Y-132028013D01*
X57694013Y-132255748D01*
X57515082Y-132523537D01*
X57448599Y-132684041D01*
X57423475Y-132658917D01*
X57307807Y-132774585D01*
X57212044Y-132510186D01*
X56922429Y-132369296D01*
X56610892Y-132287616D01*
X56289405Y-132268282D01*
X55970325Y-132312039D01*
X55665912Y-132417205D01*
X55491956Y-132510186D01*
X55396192Y-132774587D01*
X54065044Y-132774587D01*
X57553635Y-129285996D01*
X71185373Y-129285996D01*
X67435878Y-133035492D01*
X67211413Y-132954192D01*
X66255605Y-133910000D01*
X66269748Y-133924143D01*
X66090143Y-134103748D01*
X66076000Y-134089605D01*
X65120192Y-135045413D01*
X65215956Y-135309814D01*
X65505571Y-135450704D01*
X65817108Y-135532384D01*
X66138595Y-135551718D01*
X66457675Y-135507961D01*
X66762088Y-135402795D01*
X66936044Y-135309814D01*
X67031807Y-135045415D01*
X67147475Y-135161083D01*
X67183001Y-135125557D01*
X67183000Y-136225369D01*
X63953375Y-139454994D01*
X63940912Y-139449832D01*
X63625033Y-139387000D01*
X63302967Y-139387000D01*
X62987088Y-139449832D01*
X62689537Y-139573082D01*
X62421748Y-139752013D01*
X62194013Y-139979748D01*
X62015082Y-140247537D01*
X61891832Y-140545088D01*
X61829000Y-140860967D01*
X61829000Y-141183033D01*
X61891832Y-141498912D01*
X62015082Y-141796463D01*
X62194013Y-142064252D01*
X62421748Y-142291987D01*
X62689537Y-142470918D01*
X62987088Y-142594168D01*
X63302967Y-142657000D01*
X63625033Y-142657000D01*
X63940912Y-142594168D01*
X64238463Y-142470918D01*
X64506252Y-142291987D01*
X64733987Y-142064252D01*
X64912918Y-141796463D01*
X64979401Y-141635959D01*
X65004525Y-141661083D01*
X65120193Y-141545415D01*
X65215956Y-141809814D01*
X65505571Y-141950704D01*
X65817108Y-142032384D01*
X66138595Y-142051718D01*
X66457675Y-142007961D01*
X66762088Y-141902795D01*
X66936044Y-141809814D01*
X67031808Y-141545413D01*
X66076000Y-140589605D01*
X66061858Y-140603748D01*
X65882253Y-140424143D01*
X65896395Y-140410000D01*
X66255605Y-140410000D01*
X67211413Y-141365808D01*
X67475814Y-141270044D01*
X67616704Y-140980429D01*
X67698384Y-140668892D01*
X67717718Y-140347405D01*
X67673961Y-140028325D01*
X67568795Y-139723912D01*
X67475814Y-139549956D01*
X67211413Y-139454192D01*
X66255605Y-140410000D01*
X65896395Y-140410000D01*
X65882253Y-140395858D01*
X66061858Y-140216253D01*
X66076000Y-140230395D01*
X67031808Y-139274587D01*
X66936044Y-139010186D01*
X66678657Y-138884974D01*
X68457353Y-137106278D01*
X68486422Y-137082422D01*
X68545347Y-137010622D01*
X68581645Y-136966393D01*
X68627957Y-136879748D01*
X68652402Y-136834015D01*
X68695974Y-136690378D01*
X68707000Y-136578426D01*
X68707000Y-136578423D01*
X68710686Y-136541000D01*
X68707000Y-136503577D01*
X68707000Y-133919630D01*
X68956727Y-133669903D01*
X68941000Y-133748967D01*
X68941000Y-134071033D01*
X69003832Y-134386912D01*
X69127082Y-134684463D01*
X69306013Y-134952252D01*
X69533748Y-135179987D01*
X69801537Y-135358918D01*
X70099088Y-135482168D01*
X70414967Y-135545000D01*
X70737033Y-135545000D01*
X71052912Y-135482168D01*
X71350463Y-135358918D01*
X71618252Y-135179987D01*
X71845987Y-134952252D01*
X72024918Y-134684463D01*
X72148168Y-134386912D01*
X72211000Y-134071033D01*
X72211000Y-133748967D01*
X72148168Y-133433088D01*
X72063924Y-133229706D01*
X72981984Y-132311646D01*
X73022068Y-132513158D01*
X73134010Y-132783411D01*
X73296525Y-133026632D01*
X73503368Y-133233475D01*
X73677760Y-133350000D01*
X73503368Y-133466525D01*
X73296525Y-133673368D01*
X73134010Y-133916589D01*
X73022068Y-134186842D01*
X72965000Y-134473740D01*
X72965000Y-134766260D01*
X73022068Y-135053158D01*
X73134010Y-135323411D01*
X73296525Y-135566632D01*
X73503368Y-135773475D01*
X73677760Y-135890000D01*
X73503368Y-136006525D01*
X73296525Y-136213368D01*
X73134010Y-136456589D01*
X73022068Y-136726842D01*
X72965000Y-137013740D01*
X72965000Y-137306260D01*
X73008321Y-137524049D01*
X72258654Y-138273716D01*
X72229578Y-138297578D01*
X72173983Y-138365322D01*
X72134355Y-138413608D01*
X72123268Y-138434351D01*
X72063598Y-138545986D01*
X72020026Y-138689623D01*
X72010924Y-138782044D01*
X72005314Y-138839000D01*
X72009000Y-138876423D01*
X72009000Y-139611714D01*
X71845987Y-139367748D01*
X71618252Y-139140013D01*
X71350463Y-138961082D01*
X71052912Y-138837832D01*
X70737033Y-138775000D01*
X70414967Y-138775000D01*
X70099088Y-138837832D01*
X69801537Y-138961082D01*
X69533748Y-139140013D01*
X69306013Y-139367748D01*
X69127082Y-139635537D01*
X69003832Y-139933088D01*
X68941000Y-140248967D01*
X68941000Y-140571033D01*
X69003832Y-140886912D01*
X69127082Y-141184463D01*
X69306013Y-141452252D01*
X69533748Y-141679987D01*
X69801537Y-141858918D01*
X70099088Y-141982168D01*
X70414967Y-142045000D01*
X70737033Y-142045000D01*
X71052912Y-141982168D01*
X71350463Y-141858918D01*
X71618252Y-141679987D01*
X71845987Y-141452252D01*
X72009000Y-141208286D01*
X72009001Y-148171567D01*
X72005314Y-148209000D01*
X72020027Y-148358378D01*
X72063599Y-148502015D01*
X72134355Y-148634392D01*
X72205721Y-148721351D01*
X72229579Y-148750422D01*
X72258649Y-148774279D01*
X85921721Y-162437352D01*
X85945578Y-162466422D01*
X86061608Y-162561645D01*
X86193985Y-162632402D01*
X86337622Y-162675974D01*
X86449574Y-162687000D01*
X86449576Y-162687000D01*
X86486999Y-162690686D01*
X86524422Y-162687000D01*
X95243158Y-162687000D01*
X95204010Y-162745589D01*
X95092068Y-163015842D01*
X95035000Y-163302740D01*
X95035000Y-163595260D01*
X95092068Y-163882158D01*
X95204010Y-164152411D01*
X95366525Y-164395632D01*
X95573368Y-164602475D01*
X95816589Y-164764990D01*
X96086842Y-164876932D01*
X96373740Y-164934000D01*
X96666260Y-164934000D01*
X96953158Y-164876932D01*
X97223411Y-164764990D01*
X97466632Y-164602475D01*
X97673475Y-164395632D01*
X97790000Y-164221240D01*
X97906525Y-164395632D01*
X98113368Y-164602475D01*
X98356589Y-164764990D01*
X98626842Y-164876932D01*
X98913740Y-164934000D01*
X99206260Y-164934000D01*
X99493158Y-164876932D01*
X99763411Y-164764990D01*
X100006632Y-164602475D01*
X100213475Y-164395632D01*
X100330000Y-164221240D01*
X100446525Y-164395632D01*
X100653368Y-164602475D01*
X100896589Y-164764990D01*
X101166842Y-164876932D01*
X101453740Y-164934000D01*
X101746260Y-164934000D01*
X102033158Y-164876932D01*
X102303411Y-164764990D01*
X102546632Y-164602475D01*
X102753475Y-164395632D01*
X102870000Y-164221240D01*
X102986525Y-164395632D01*
X103193368Y-164602475D01*
X103436589Y-164764990D01*
X103706842Y-164876932D01*
X103993740Y-164934000D01*
X104286260Y-164934000D01*
X104573158Y-164876932D01*
X104843411Y-164764990D01*
X105086632Y-164602475D01*
X105293475Y-164395632D01*
X105410000Y-164221240D01*
X105526525Y-164395632D01*
X105733368Y-164602475D01*
X105976589Y-164764990D01*
X106246842Y-164876932D01*
X106533740Y-164934000D01*
X106826260Y-164934000D01*
X107113158Y-164876932D01*
X107383411Y-164764990D01*
X107626632Y-164602475D01*
X107833475Y-164395632D01*
X107950000Y-164221240D01*
X108066525Y-164395632D01*
X108273368Y-164602475D01*
X108516589Y-164764990D01*
X108786842Y-164876932D01*
X109073740Y-164934000D01*
X109366260Y-164934000D01*
X109653158Y-164876932D01*
X109923411Y-164764990D01*
X110166632Y-164602475D01*
X110373475Y-164395632D01*
X110490000Y-164221240D01*
X110606525Y-164395632D01*
X110813368Y-164602475D01*
X111056589Y-164764990D01*
X111326842Y-164876932D01*
X111613740Y-164934000D01*
X111906260Y-164934000D01*
X112193158Y-164876932D01*
X112463411Y-164764990D01*
X112706632Y-164602475D01*
X112913475Y-164395632D01*
X113030000Y-164221240D01*
X113146525Y-164395632D01*
X113353368Y-164602475D01*
X113596589Y-164764990D01*
X113866842Y-164876932D01*
X114153740Y-164934000D01*
X114446260Y-164934000D01*
X114733158Y-164876932D01*
X115003411Y-164764990D01*
X115246632Y-164602475D01*
X115453475Y-164395632D01*
X115570000Y-164221240D01*
X115686525Y-164395632D01*
X115893368Y-164602475D01*
X116136589Y-164764990D01*
X116406842Y-164876932D01*
X116693740Y-164934000D01*
X116986260Y-164934000D01*
X117273158Y-164876932D01*
X117543411Y-164764990D01*
X117786632Y-164602475D01*
X117993475Y-164395632D01*
X118115195Y-164213466D01*
X118184822Y-164330355D01*
X118379731Y-164546588D01*
X118613080Y-164720641D01*
X118875901Y-164845825D01*
X119023110Y-164890476D01*
X119253000Y-164769155D01*
X119253000Y-163576000D01*
X119507000Y-163576000D01*
X119507000Y-164769155D01*
X119736890Y-164890476D01*
X119884099Y-164845825D01*
X120086877Y-164749240D01*
X132737365Y-164749240D01*
X132818025Y-165000868D01*
X133086329Y-165129267D01*
X133374526Y-165202855D01*
X133671543Y-165218804D01*
X133965963Y-165176501D01*
X134246474Y-165077572D01*
X134389975Y-165000868D01*
X134470635Y-164749240D01*
X133604000Y-163882605D01*
X132737365Y-164749240D01*
X120086877Y-164749240D01*
X120146920Y-164720641D01*
X120380269Y-164546588D01*
X120575178Y-164330355D01*
X120724157Y-164080252D01*
X120821481Y-163805891D01*
X120700814Y-163576000D01*
X119507000Y-163576000D01*
X119253000Y-163576000D01*
X119233000Y-163576000D01*
X119233000Y-163322000D01*
X119253000Y-163322000D01*
X119253000Y-163302000D01*
X119507000Y-163302000D01*
X119507000Y-163322000D01*
X120700814Y-163322000D01*
X120821481Y-163092109D01*
X120724157Y-162817748D01*
X120575178Y-162567645D01*
X120380269Y-162351412D01*
X120363057Y-162338573D01*
X121534691Y-161166940D01*
X121771278Y-161214000D01*
X122068722Y-161214000D01*
X122360451Y-161155971D01*
X122635253Y-161042144D01*
X122882569Y-160876893D01*
X123092893Y-160666569D01*
X123190000Y-160521238D01*
X123287107Y-160666569D01*
X123483538Y-160863000D01*
X123351911Y-160863000D01*
X123171271Y-160898932D01*
X123001111Y-160969414D01*
X122847972Y-161071738D01*
X122717738Y-161201972D01*
X122615414Y-161355111D01*
X122544932Y-161525271D01*
X122509000Y-161705911D01*
X122509000Y-161890089D01*
X122544932Y-162070729D01*
X122615414Y-162240889D01*
X122717738Y-162394028D01*
X122847972Y-162524262D01*
X123001111Y-162626586D01*
X123171271Y-162697068D01*
X123351911Y-162733000D01*
X123536089Y-162733000D01*
X123716729Y-162697068D01*
X123886889Y-162626586D01*
X123986542Y-162560000D01*
X128740577Y-162560000D01*
X128778000Y-162563686D01*
X128815423Y-162560000D01*
X128815426Y-162560000D01*
X128927378Y-162548974D01*
X129071015Y-162505402D01*
X129203392Y-162434645D01*
X129319422Y-162339422D01*
X129343284Y-162310346D01*
X130684497Y-160969133D01*
X130669000Y-161047042D01*
X130669000Y-161378958D01*
X130733754Y-161704496D01*
X130860772Y-162011147D01*
X131045175Y-162287125D01*
X131279875Y-162521825D01*
X131555853Y-162706228D01*
X131862504Y-162833246D01*
X132188042Y-162898000D01*
X132365483Y-162898000D01*
X132306132Y-162917025D01*
X132177733Y-163185329D01*
X132104145Y-163473526D01*
X132088196Y-163770543D01*
X132130499Y-164064963D01*
X132229428Y-164345474D01*
X132306132Y-164488975D01*
X132557760Y-164569635D01*
X133424395Y-163703000D01*
X133783605Y-163703000D01*
X134650240Y-164569635D01*
X134901868Y-164488975D01*
X135030267Y-164220671D01*
X135103855Y-163932474D01*
X135119804Y-163635457D01*
X135108140Y-163554278D01*
X136594000Y-163554278D01*
X136594000Y-163851722D01*
X136652029Y-164143451D01*
X136765856Y-164418253D01*
X136931107Y-164665569D01*
X137141431Y-164875893D01*
X137388747Y-165041144D01*
X137663549Y-165154971D01*
X137955278Y-165213000D01*
X138252722Y-165213000D01*
X138544451Y-165154971D01*
X138819253Y-165041144D01*
X139066569Y-164875893D01*
X139276893Y-164665569D01*
X139442144Y-164418253D01*
X139555971Y-164143451D01*
X139614000Y-163851722D01*
X139614000Y-163554278D01*
X139555971Y-163262549D01*
X139442144Y-162987747D01*
X139382177Y-162898000D01*
X139529958Y-162898000D01*
X139855496Y-162833246D01*
X140162147Y-162706228D01*
X140438125Y-162521825D01*
X140672825Y-162287125D01*
X140857228Y-162011147D01*
X140984246Y-161704496D01*
X141049000Y-161378958D01*
X141049000Y-161047042D01*
X140984246Y-160721504D01*
X140857228Y-160414853D01*
X140672825Y-160138875D01*
X140438125Y-159904175D01*
X140162147Y-159719772D01*
X139855496Y-159592754D01*
X139529958Y-159528000D01*
X139198042Y-159528000D01*
X138872504Y-159592754D01*
X138565853Y-159719772D01*
X138289875Y-159904175D01*
X138055175Y-160138875D01*
X137870772Y-160414853D01*
X137743754Y-160721504D01*
X137679000Y-161047042D01*
X137679000Y-161378958D01*
X137743754Y-161704496D01*
X137870772Y-162011147D01*
X137992283Y-162193000D01*
X137955278Y-162193000D01*
X137663549Y-162251029D01*
X137388747Y-162364856D01*
X137141431Y-162530107D01*
X136931107Y-162740431D01*
X136765856Y-162987747D01*
X136652029Y-163262549D01*
X136594000Y-163554278D01*
X135108140Y-163554278D01*
X135077501Y-163341037D01*
X134978572Y-163060526D01*
X134901868Y-162917025D01*
X134650240Y-162836365D01*
X133783605Y-163703000D01*
X133424395Y-163703000D01*
X133410253Y-163688858D01*
X133589858Y-163509253D01*
X133604000Y-163523395D01*
X134470635Y-162656760D01*
X134389975Y-162405132D01*
X134121671Y-162276733D01*
X133833474Y-162203145D01*
X133722906Y-162197208D01*
X133847228Y-162011147D01*
X133974246Y-161704496D01*
X134039000Y-161378958D01*
X134039000Y-161047042D01*
X133974246Y-160721504D01*
X133847228Y-160414853D01*
X133662825Y-160138875D01*
X133428125Y-159904175D01*
X133152147Y-159719772D01*
X132845496Y-159592754D01*
X132519958Y-159528000D01*
X132188042Y-159528000D01*
X132110133Y-159543497D01*
X134364130Y-157289500D01*
X140236958Y-157289500D01*
X140336611Y-157356086D01*
X140506771Y-157426568D01*
X140687411Y-157462500D01*
X140871589Y-157462500D01*
X141052229Y-157426568D01*
X141222389Y-157356086D01*
X141375528Y-157253762D01*
X141505762Y-157123528D01*
X141608086Y-156970389D01*
X141678568Y-156800229D01*
X141714500Y-156619589D01*
X141714500Y-156435411D01*
X141678568Y-156254771D01*
X141660023Y-156210000D01*
X145483521Y-156210000D01*
X148367399Y-159093879D01*
X148353992Y-159161280D01*
X148353992Y-159414402D01*
X148403373Y-159662662D01*
X148500239Y-159896517D01*
X148640867Y-160106981D01*
X148819852Y-160285966D01*
X149030316Y-160426594D01*
X149264171Y-160523460D01*
X149512431Y-160572841D01*
X149765553Y-160572841D01*
X150013813Y-160523460D01*
X150247668Y-160426594D01*
X150458132Y-160285966D01*
X150637117Y-160106981D01*
X150777745Y-159896517D01*
X150874611Y-159662662D01*
X150923992Y-159414402D01*
X150923992Y-159161280D01*
X150874611Y-158913020D01*
X150866208Y-158892734D01*
X150893875Y-158934140D01*
X151072860Y-159113125D01*
X151283324Y-159253753D01*
X151517179Y-159350619D01*
X151765439Y-159400000D01*
X152018561Y-159400000D01*
X152266821Y-159350619D01*
X152500676Y-159253753D01*
X152711140Y-159113125D01*
X152890125Y-158934140D01*
X153030753Y-158723676D01*
X153127619Y-158489821D01*
X153177000Y-158241561D01*
X153177000Y-157988439D01*
X153127619Y-157740179D01*
X153119216Y-157719893D01*
X153146883Y-157761299D01*
X153325868Y-157940284D01*
X153536332Y-158080912D01*
X153770187Y-158177778D01*
X154018447Y-158227159D01*
X154271569Y-158227159D01*
X154519829Y-158177778D01*
X154753684Y-158080912D01*
X154964148Y-157940284D01*
X155143133Y-157761299D01*
X155283761Y-157550835D01*
X155380627Y-157316980D01*
X155430008Y-157068720D01*
X155430008Y-156815598D01*
X155380627Y-156567338D01*
X155283761Y-156333483D01*
X155143133Y-156123019D01*
X154964148Y-155944034D01*
X154753684Y-155803406D01*
X154519829Y-155706540D01*
X154271569Y-155657159D01*
X154018447Y-155657159D01*
X153770187Y-155706540D01*
X153536332Y-155803406D01*
X153325868Y-155944034D01*
X153146883Y-156123019D01*
X153006255Y-156333483D01*
X152909389Y-156567338D01*
X152860008Y-156815598D01*
X152860008Y-157068720D01*
X152909389Y-157316980D01*
X152917792Y-157337266D01*
X152890125Y-157295860D01*
X152711140Y-157116875D01*
X152500676Y-156976247D01*
X152266821Y-156879381D01*
X152018561Y-156830000D01*
X151765439Y-156830000D01*
X151517179Y-156879381D01*
X151283324Y-156976247D01*
X151072860Y-157116875D01*
X150893875Y-157295860D01*
X150753247Y-157506324D01*
X150656381Y-157740179D01*
X150607000Y-157988439D01*
X150607000Y-158241561D01*
X150656381Y-158489821D01*
X150664784Y-158510107D01*
X150637117Y-158468701D01*
X150458132Y-158289716D01*
X150247668Y-158149088D01*
X150013813Y-158052222D01*
X149765553Y-158002841D01*
X149512431Y-158002841D01*
X149445030Y-158016248D01*
X146364435Y-154935654D01*
X146340573Y-154906578D01*
X146224543Y-154811355D01*
X146092166Y-154740598D01*
X145948529Y-154697026D01*
X145836577Y-154686000D01*
X145836574Y-154686000D01*
X145799151Y-154682314D01*
X145761728Y-154686000D01*
X130971540Y-154686000D01*
X130871887Y-154619414D01*
X130701727Y-154548932D01*
X130521087Y-154513000D01*
X130336909Y-154513000D01*
X130156269Y-154548932D01*
X129986109Y-154619414D01*
X129921000Y-154662918D01*
X129921000Y-151418911D01*
X132796000Y-151418911D01*
X132796000Y-151603089D01*
X132831932Y-151783729D01*
X132902414Y-151953889D01*
X133004738Y-152107028D01*
X133134972Y-152237262D01*
X133288111Y-152339586D01*
X133433964Y-152400000D01*
X133288111Y-152460414D01*
X133134972Y-152562738D01*
X133004738Y-152692972D01*
X132902414Y-152846111D01*
X132831932Y-153016271D01*
X132796000Y-153196911D01*
X132796000Y-153381089D01*
X132831932Y-153561729D01*
X132902414Y-153731889D01*
X133004738Y-153885028D01*
X133134972Y-154015262D01*
X133288111Y-154117586D01*
X133458271Y-154188068D01*
X133638911Y-154224000D01*
X133823089Y-154224000D01*
X134003729Y-154188068D01*
X134173889Y-154117586D01*
X134273542Y-154051000D01*
X135598577Y-154051000D01*
X135636000Y-154054686D01*
X135673423Y-154051000D01*
X135673426Y-154051000D01*
X135785378Y-154039974D01*
X135929015Y-153996402D01*
X136061392Y-153925645D01*
X136177422Y-153830422D01*
X136201284Y-153801346D01*
X137878352Y-152124278D01*
X157788000Y-152124278D01*
X157788000Y-152421722D01*
X157846029Y-152713451D01*
X157959856Y-152988253D01*
X158125107Y-153235569D01*
X158335431Y-153445893D01*
X158582747Y-153611144D01*
X158857549Y-153724971D01*
X159149278Y-153783000D01*
X159446722Y-153783000D01*
X159738451Y-153724971D01*
X160013253Y-153611144D01*
X160260569Y-153445893D01*
X160470893Y-153235569D01*
X160636144Y-152988253D01*
X160749971Y-152713451D01*
X160808000Y-152421722D01*
X160808000Y-152124278D01*
X162788000Y-152124278D01*
X162788000Y-152421722D01*
X162846029Y-152713451D01*
X162959856Y-152988253D01*
X163125107Y-153235569D01*
X163335431Y-153445893D01*
X163582747Y-153611144D01*
X163857549Y-153724971D01*
X164149278Y-153783000D01*
X164446722Y-153783000D01*
X164738451Y-153724971D01*
X165013253Y-153611144D01*
X165260569Y-153445893D01*
X165470893Y-153235569D01*
X165636144Y-152988253D01*
X165749971Y-152713451D01*
X165808000Y-152421722D01*
X165808000Y-152124278D01*
X165749971Y-151832549D01*
X165636144Y-151557747D01*
X165470893Y-151310431D01*
X165260569Y-151100107D01*
X165013253Y-150934856D01*
X164738451Y-150821029D01*
X164446722Y-150763000D01*
X164149278Y-150763000D01*
X163857549Y-150821029D01*
X163582747Y-150934856D01*
X163335431Y-151100107D01*
X163125107Y-151310431D01*
X162959856Y-151557747D01*
X162846029Y-151832549D01*
X162788000Y-152124278D01*
X160808000Y-152124278D01*
X160749971Y-151832549D01*
X160636144Y-151557747D01*
X160470893Y-151310431D01*
X160260569Y-151100107D01*
X160013253Y-150934856D01*
X159738451Y-150821029D01*
X159446722Y-150763000D01*
X159149278Y-150763000D01*
X158857549Y-150821029D01*
X158582747Y-150934856D01*
X158335431Y-151100107D01*
X158125107Y-151310431D01*
X157959856Y-151557747D01*
X157846029Y-151832549D01*
X157788000Y-152124278D01*
X137878352Y-152124278D01*
X145560625Y-144442006D01*
X145573088Y-144447168D01*
X145888967Y-144510000D01*
X146211033Y-144510000D01*
X146526912Y-144447168D01*
X146824463Y-144323918D01*
X147092252Y-144144987D01*
X147226826Y-144010413D01*
X149594192Y-144010413D01*
X149689956Y-144274814D01*
X149979571Y-144415704D01*
X150291108Y-144497384D01*
X150612595Y-144516718D01*
X150931675Y-144472961D01*
X151236088Y-144367795D01*
X151410044Y-144274814D01*
X151505808Y-144010413D01*
X150550000Y-143054605D01*
X149594192Y-144010413D01*
X147226826Y-144010413D01*
X147319987Y-143917252D01*
X147498918Y-143649463D01*
X147622168Y-143351912D01*
X147685000Y-143036033D01*
X147685000Y-142937595D01*
X148908282Y-142937595D01*
X148952039Y-143256675D01*
X149057205Y-143561088D01*
X149150186Y-143735044D01*
X149414587Y-143830808D01*
X150370395Y-142875000D01*
X150729605Y-142875000D01*
X151685413Y-143830808D01*
X151949814Y-143735044D01*
X152090704Y-143445429D01*
X152172384Y-143133892D01*
X152191718Y-142812405D01*
X152147961Y-142493325D01*
X152042795Y-142188912D01*
X151949814Y-142014956D01*
X151685413Y-141919192D01*
X150729605Y-142875000D01*
X150370395Y-142875000D01*
X149414587Y-141919192D01*
X149150186Y-142014956D01*
X149009296Y-142304571D01*
X148927616Y-142616108D01*
X148908282Y-142937595D01*
X147685000Y-142937595D01*
X147685000Y-142713967D01*
X147622168Y-142398088D01*
X147498918Y-142100537D01*
X147319987Y-141832748D01*
X147226826Y-141739587D01*
X149594192Y-141739587D01*
X150550000Y-142695395D01*
X151505808Y-141739587D01*
X151410044Y-141475186D01*
X151120429Y-141334296D01*
X150808892Y-141252616D01*
X150487405Y-141233282D01*
X150168325Y-141277039D01*
X149863912Y-141382205D01*
X149689956Y-141475186D01*
X149594192Y-141739587D01*
X147226826Y-141739587D01*
X147092252Y-141605013D01*
X146824463Y-141426082D01*
X146526912Y-141302832D01*
X146211033Y-141240000D01*
X145888967Y-141240000D01*
X145573088Y-141302832D01*
X145275537Y-141426082D01*
X145007748Y-141605013D01*
X144780013Y-141832748D01*
X144601082Y-142100537D01*
X144477832Y-142398088D01*
X144415000Y-142713967D01*
X144415000Y-143036033D01*
X144477832Y-143351912D01*
X144482994Y-143364375D01*
X135320370Y-152527000D01*
X134273542Y-152527000D01*
X134173889Y-152460414D01*
X134028036Y-152400000D01*
X134173889Y-152339586D01*
X134327028Y-152237262D01*
X134457262Y-152107028D01*
X134559586Y-151953889D01*
X134630068Y-151783729D01*
X134653450Y-151666180D01*
X145984630Y-140335000D01*
X154140577Y-140335000D01*
X154178000Y-140338686D01*
X154215423Y-140335000D01*
X154215426Y-140335000D01*
X154327378Y-140323974D01*
X154471015Y-140280402D01*
X154603392Y-140209645D01*
X154719422Y-140114422D01*
X154743284Y-140085346D01*
X155339625Y-139489005D01*
X155352088Y-139494168D01*
X155667967Y-139557000D01*
X155990033Y-139557000D01*
X156305912Y-139494168D01*
X156603463Y-139370918D01*
X156871252Y-139191987D01*
X157005826Y-139057413D01*
X159373192Y-139057413D01*
X159468956Y-139321814D01*
X159758571Y-139462704D01*
X160070108Y-139544384D01*
X160391595Y-139563718D01*
X160710675Y-139519961D01*
X161015088Y-139414795D01*
X161189044Y-139321814D01*
X161284808Y-139057413D01*
X160329000Y-138101605D01*
X159373192Y-139057413D01*
X157005826Y-139057413D01*
X157098987Y-138964252D01*
X157277918Y-138696463D01*
X157401168Y-138398912D01*
X157464000Y-138083033D01*
X157464000Y-137984595D01*
X158687282Y-137984595D01*
X158731039Y-138303675D01*
X158836205Y-138608088D01*
X158929186Y-138782044D01*
X159193587Y-138877808D01*
X160149395Y-137922000D01*
X160508605Y-137922000D01*
X161464413Y-138877808D01*
X161728814Y-138782044D01*
X161869704Y-138492429D01*
X161951384Y-138180892D01*
X161970718Y-137859405D01*
X161926961Y-137540325D01*
X161821795Y-137235912D01*
X161728814Y-137061956D01*
X161464413Y-136966192D01*
X160508605Y-137922000D01*
X160149395Y-137922000D01*
X159193587Y-136966192D01*
X158929186Y-137061956D01*
X158788296Y-137351571D01*
X158706616Y-137663108D01*
X158687282Y-137984595D01*
X157464000Y-137984595D01*
X157464000Y-137760967D01*
X157401168Y-137445088D01*
X157277918Y-137147537D01*
X157098987Y-136879748D01*
X157005826Y-136786587D01*
X159373192Y-136786587D01*
X160329000Y-137742395D01*
X161284808Y-136786587D01*
X161189044Y-136522186D01*
X160899429Y-136381296D01*
X160587892Y-136299616D01*
X160266405Y-136280282D01*
X159947325Y-136324039D01*
X159642912Y-136429205D01*
X159468956Y-136522186D01*
X159373192Y-136786587D01*
X157005826Y-136786587D01*
X156871252Y-136652013D01*
X156603463Y-136473082D01*
X156305912Y-136349832D01*
X155990033Y-136287000D01*
X155667967Y-136287000D01*
X155352088Y-136349832D01*
X155054537Y-136473082D01*
X154786748Y-136652013D01*
X154559013Y-136879748D01*
X154380082Y-137147537D01*
X154256832Y-137445088D01*
X154194000Y-137760967D01*
X154194000Y-138083033D01*
X154256832Y-138398912D01*
X154261995Y-138411375D01*
X153862370Y-138811000D01*
X145706423Y-138811000D01*
X145669000Y-138807314D01*
X145631577Y-138811000D01*
X145631574Y-138811000D01*
X145519622Y-138822026D01*
X145375985Y-138865598D01*
X145353142Y-138877808D01*
X145243607Y-138936355D01*
X145228157Y-138949035D01*
X145127578Y-139031578D01*
X145103716Y-139060654D01*
X133575820Y-150588550D01*
X133458271Y-150611932D01*
X133288111Y-150682414D01*
X133134972Y-150784738D01*
X133004738Y-150914972D01*
X132902414Y-151068111D01*
X132831932Y-151238271D01*
X132796000Y-151418911D01*
X129921000Y-151418911D01*
X129921000Y-144817422D01*
X129924686Y-144779999D01*
X129920313Y-144735601D01*
X129909974Y-144630622D01*
X129866402Y-144486985D01*
X129795645Y-144354608D01*
X129700422Y-144238578D01*
X129671353Y-144214722D01*
X121670598Y-136213967D01*
X144415000Y-136213967D01*
X144415000Y-136536033D01*
X144477832Y-136851912D01*
X144601082Y-137149463D01*
X144780013Y-137417252D01*
X145007748Y-137644987D01*
X145275537Y-137823918D01*
X145573088Y-137947168D01*
X145888967Y-138010000D01*
X146211033Y-138010000D01*
X146526912Y-137947168D01*
X146824463Y-137823918D01*
X147092252Y-137644987D01*
X147226826Y-137510413D01*
X149594192Y-137510413D01*
X149689956Y-137774814D01*
X149979571Y-137915704D01*
X150291108Y-137997384D01*
X150612595Y-138016718D01*
X150931675Y-137972961D01*
X151236088Y-137867795D01*
X151410044Y-137774814D01*
X151505808Y-137510413D01*
X150550000Y-136554605D01*
X149594192Y-137510413D01*
X147226826Y-137510413D01*
X147319987Y-137417252D01*
X147498918Y-137149463D01*
X147622168Y-136851912D01*
X147685000Y-136536033D01*
X147685000Y-136437595D01*
X148908282Y-136437595D01*
X148952039Y-136756675D01*
X149057205Y-137061088D01*
X149150186Y-137235044D01*
X149414587Y-137330808D01*
X150370395Y-136375000D01*
X150729605Y-136375000D01*
X151685413Y-137330808D01*
X151949814Y-137235044D01*
X152090704Y-136945429D01*
X152172384Y-136633892D01*
X152191718Y-136312405D01*
X152147961Y-135993325D01*
X152042795Y-135688912D01*
X151949814Y-135514956D01*
X151685413Y-135419192D01*
X150729605Y-136375000D01*
X150370395Y-136375000D01*
X149414587Y-135419192D01*
X149150186Y-135514956D01*
X149009296Y-135804571D01*
X148927616Y-136116108D01*
X148908282Y-136437595D01*
X147685000Y-136437595D01*
X147685000Y-136213967D01*
X147622168Y-135898088D01*
X147498918Y-135600537D01*
X147319987Y-135332748D01*
X147226826Y-135239587D01*
X149594192Y-135239587D01*
X150550000Y-136195395D01*
X151505808Y-135239587D01*
X151410044Y-134975186D01*
X151120429Y-134834296D01*
X150808892Y-134752616D01*
X150487405Y-134733282D01*
X150168325Y-134777039D01*
X149863912Y-134882205D01*
X149689956Y-134975186D01*
X149594192Y-135239587D01*
X147226826Y-135239587D01*
X147092252Y-135105013D01*
X146824463Y-134926082D01*
X146526912Y-134802832D01*
X146211033Y-134740000D01*
X145888967Y-134740000D01*
X145573088Y-134802832D01*
X145275537Y-134926082D01*
X145007748Y-135105013D01*
X144780013Y-135332748D01*
X144601082Y-135600537D01*
X144477832Y-135898088D01*
X144415000Y-136213967D01*
X121670598Y-136213967D01*
X117024284Y-131567654D01*
X117000422Y-131538578D01*
X116884392Y-131443355D01*
X116752015Y-131372598D01*
X116608378Y-131329026D01*
X116496426Y-131318000D01*
X116496423Y-131318000D01*
X116459000Y-131314314D01*
X116421577Y-131318000D01*
X95850221Y-131318000D01*
X95873844Y-131260967D01*
X154194000Y-131260967D01*
X154194000Y-131583033D01*
X154256832Y-131898912D01*
X154380082Y-132196463D01*
X154559013Y-132464252D01*
X154786748Y-132691987D01*
X155054537Y-132870918D01*
X155352088Y-132994168D01*
X155667967Y-133057000D01*
X155990033Y-133057000D01*
X156305912Y-132994168D01*
X156603463Y-132870918D01*
X156871252Y-132691987D01*
X157005826Y-132557413D01*
X159373192Y-132557413D01*
X159468956Y-132821814D01*
X159758571Y-132962704D01*
X160070108Y-133044384D01*
X160391595Y-133063718D01*
X160710675Y-133019961D01*
X161015088Y-132914795D01*
X161189044Y-132821814D01*
X161284808Y-132557413D01*
X160329000Y-131601605D01*
X159373192Y-132557413D01*
X157005826Y-132557413D01*
X157098987Y-132464252D01*
X157277918Y-132196463D01*
X157401168Y-131898912D01*
X157464000Y-131583033D01*
X157464000Y-131484595D01*
X158687282Y-131484595D01*
X158731039Y-131803675D01*
X158836205Y-132108088D01*
X158929186Y-132282044D01*
X159193587Y-132377808D01*
X160149395Y-131422000D01*
X160508605Y-131422000D01*
X161464413Y-132377808D01*
X161728814Y-132282044D01*
X161869704Y-131992429D01*
X161951384Y-131680892D01*
X161970718Y-131359405D01*
X161926961Y-131040325D01*
X161821795Y-130735912D01*
X161728814Y-130561956D01*
X161464413Y-130466192D01*
X160508605Y-131422000D01*
X160149395Y-131422000D01*
X159193587Y-130466192D01*
X158929186Y-130561956D01*
X158788296Y-130851571D01*
X158706616Y-131163108D01*
X158687282Y-131484595D01*
X157464000Y-131484595D01*
X157464000Y-131260967D01*
X157401168Y-130945088D01*
X157277918Y-130647537D01*
X157098987Y-130379748D01*
X157005826Y-130286587D01*
X159373192Y-130286587D01*
X160329000Y-131242395D01*
X161284808Y-130286587D01*
X161189044Y-130022186D01*
X160899429Y-129881296D01*
X160587892Y-129799616D01*
X160266405Y-129780282D01*
X159947325Y-129824039D01*
X159642912Y-129929205D01*
X159468956Y-130022186D01*
X159373192Y-130286587D01*
X157005826Y-130286587D01*
X156871252Y-130152013D01*
X156603463Y-129973082D01*
X156305912Y-129849832D01*
X155990033Y-129787000D01*
X155667967Y-129787000D01*
X155352088Y-129849832D01*
X155054537Y-129973082D01*
X154786748Y-130152013D01*
X154559013Y-130379748D01*
X154380082Y-130647537D01*
X154256832Y-130945088D01*
X154194000Y-131260967D01*
X95873844Y-131260967D01*
X95895068Y-131209729D01*
X95931000Y-131029089D01*
X95931000Y-130844911D01*
X95895068Y-130664271D01*
X95824586Y-130494111D01*
X95722262Y-130340972D01*
X95592028Y-130210738D01*
X95438889Y-130108414D01*
X95268729Y-130037932D01*
X95151181Y-130014550D01*
X94164284Y-129027654D01*
X94140422Y-128998578D01*
X94024392Y-128903355D01*
X93892015Y-128832598D01*
X93748378Y-128789026D01*
X93636426Y-128778000D01*
X93636423Y-128778000D01*
X93599000Y-128774314D01*
X93561577Y-128778000D01*
X85738789Y-128778000D01*
X85770996Y-128616085D01*
X85770996Y-128431907D01*
X85735064Y-128251267D01*
X85664582Y-128081107D01*
X85562258Y-127927968D01*
X85432024Y-127797734D01*
X85278885Y-127695410D01*
X85108725Y-127624928D01*
X84928085Y-127588996D01*
X84743907Y-127588996D01*
X84563267Y-127624928D01*
X84393107Y-127695410D01*
X84293454Y-127761996D01*
X80192024Y-127761996D01*
X80210567Y-127717230D01*
X80246499Y-127536590D01*
X80246499Y-127352412D01*
X80210567Y-127171772D01*
X80140085Y-127001612D01*
X80037761Y-126848473D01*
X79907527Y-126718239D01*
X79754388Y-126615915D01*
X79584228Y-126545433D01*
X79403588Y-126509501D01*
X79219410Y-126509501D01*
X79038770Y-126545433D01*
X78868610Y-126615915D01*
X78768957Y-126682501D01*
X70830412Y-126682501D01*
X70911990Y-126560411D01*
X71023932Y-126290158D01*
X71081000Y-126003260D01*
X71081000Y-125710740D01*
X71023932Y-125423842D01*
X70911990Y-125153589D01*
X70749475Y-124910368D01*
X70542632Y-124703525D01*
X70369271Y-124587689D01*
X70444792Y-124345397D01*
X69596000Y-123496605D01*
X68747208Y-124345397D01*
X68822729Y-124587689D01*
X68649368Y-124703525D01*
X68442525Y-124910368D01*
X68280010Y-125153589D01*
X68168068Y-125423842D01*
X68111559Y-125707929D01*
X66986284Y-124582654D01*
X66962422Y-124553578D01*
X66846392Y-124458355D01*
X66714015Y-124387598D01*
X66570378Y-124344026D01*
X66458426Y-124333000D01*
X66458423Y-124333000D01*
X66421000Y-124329314D01*
X66383577Y-124333000D01*
X60704423Y-124333000D01*
X60667000Y-124329314D01*
X60629577Y-124333000D01*
X60629574Y-124333000D01*
X60517622Y-124344026D01*
X60373985Y-124387598D01*
X60331644Y-124410230D01*
X60241607Y-124458355D01*
X60199219Y-124493143D01*
X60125578Y-124553578D01*
X60101716Y-124582654D01*
X59453375Y-125230995D01*
X59440912Y-125225832D01*
X59125033Y-125163000D01*
X58802967Y-125163000D01*
X58487088Y-125225832D01*
X58189537Y-125349082D01*
X57921748Y-125528013D01*
X57694013Y-125755748D01*
X57515082Y-126023537D01*
X57391832Y-126321088D01*
X57329000Y-126636967D01*
X57329000Y-126959033D01*
X57391832Y-127274912D01*
X57515082Y-127572463D01*
X57641724Y-127761996D01*
X57275427Y-127761996D01*
X57238004Y-127758310D01*
X57200581Y-127761996D01*
X57200578Y-127761996D01*
X57088626Y-127773022D01*
X56944989Y-127816594D01*
X56900728Y-127840252D01*
X56812611Y-127887351D01*
X56756485Y-127933413D01*
X56696582Y-127982574D01*
X56672725Y-128011644D01*
X52341375Y-132342994D01*
X52328912Y-132337832D01*
X52013033Y-132275000D01*
X51690967Y-132275000D01*
X51375088Y-132337832D01*
X51077537Y-132461082D01*
X50809748Y-132640013D01*
X50582013Y-132867748D01*
X50403082Y-133135537D01*
X50279832Y-133433088D01*
X50217000Y-133748967D01*
X49217835Y-133748967D01*
X49754350Y-124526900D01*
X49870338Y-123596861D01*
X49930173Y-123385531D01*
X68105389Y-123385531D01*
X68147401Y-123675019D01*
X68245081Y-123950747D01*
X68318528Y-124088157D01*
X68567603Y-124165792D01*
X69416395Y-123317000D01*
X69775605Y-123317000D01*
X70624397Y-124165792D01*
X70873472Y-124088157D01*
X70999371Y-123824117D01*
X71071339Y-123540589D01*
X71086611Y-123248469D01*
X71044599Y-122958981D01*
X70946919Y-122683253D01*
X70873472Y-122545843D01*
X70624397Y-122468208D01*
X69775605Y-123317000D01*
X69416395Y-123317000D01*
X68567603Y-122468208D01*
X68318528Y-122545843D01*
X68192629Y-122809883D01*
X68120661Y-123093411D01*
X68105389Y-123385531D01*
X49930173Y-123385531D01*
X50117045Y-122725527D01*
X50492712Y-121901539D01*
X50555646Y-121805397D01*
X68747208Y-121805397D01*
X68822514Y-122047000D01*
X68747208Y-122288603D01*
X69596000Y-123137395D01*
X70444792Y-122288603D01*
X70369486Y-122047000D01*
X70444792Y-121805397D01*
X69596000Y-120956605D01*
X68747208Y-121805397D01*
X50555646Y-121805397D01*
X50988694Y-121143854D01*
X51593573Y-120469915D01*
X52293435Y-119895222D01*
X53094123Y-119419975D01*
X53143879Y-119395755D01*
X58934261Y-116664240D01*
X58896163Y-116756217D01*
X58768001Y-117400531D01*
X58768001Y-118057469D01*
X58896163Y-118701783D01*
X59147562Y-119308715D01*
X59512537Y-119854938D01*
X59977062Y-120319463D01*
X60523285Y-120684438D01*
X61130217Y-120935837D01*
X61774531Y-121063999D01*
X62431469Y-121063999D01*
X63075783Y-120935837D01*
X63293801Y-120845531D01*
X68105389Y-120845531D01*
X68147401Y-121135019D01*
X68245081Y-121410747D01*
X68318528Y-121548157D01*
X68567603Y-121625792D01*
X69416395Y-120777000D01*
X69775605Y-120777000D01*
X70624397Y-121625792D01*
X70873472Y-121548157D01*
X70999371Y-121284117D01*
X71071339Y-121000589D01*
X71086611Y-120708469D01*
X71044599Y-120418981D01*
X70946919Y-120143253D01*
X70873472Y-120005843D01*
X70624397Y-119928208D01*
X69775605Y-120777000D01*
X69416395Y-120777000D01*
X68567603Y-119928208D01*
X68318528Y-120005843D01*
X68192629Y-120269883D01*
X68120661Y-120553411D01*
X68105389Y-120845531D01*
X63293801Y-120845531D01*
X63682715Y-120684438D01*
X64228938Y-120319463D01*
X64693463Y-119854938D01*
X65058438Y-119308715D01*
X65309837Y-118701783D01*
X65431380Y-118090740D01*
X68111000Y-118090740D01*
X68111000Y-118383260D01*
X68168068Y-118670158D01*
X68280010Y-118940411D01*
X68442525Y-119183632D01*
X68649368Y-119390475D01*
X68822729Y-119506311D01*
X68747208Y-119748603D01*
X69596000Y-120597395D01*
X70444792Y-119748603D01*
X70369271Y-119506311D01*
X70542632Y-119390475D01*
X70749475Y-119183632D01*
X70911990Y-118940411D01*
X71023932Y-118670158D01*
X71081000Y-118383260D01*
X71081000Y-118090740D01*
X71023932Y-117803842D01*
X70911990Y-117533589D01*
X70749475Y-117290368D01*
X70542632Y-117083525D01*
X70299411Y-116921010D01*
X70029158Y-116809068D01*
X69742260Y-116752000D01*
X69449740Y-116752000D01*
X69162842Y-116809068D01*
X68892589Y-116921010D01*
X68649368Y-117083525D01*
X68442525Y-117290368D01*
X68280010Y-117533589D01*
X68168068Y-117803842D01*
X68111000Y-118090740D01*
X65431380Y-118090740D01*
X65437999Y-118057469D01*
X65437999Y-117400531D01*
X65309837Y-116756217D01*
X65126144Y-116312740D01*
X80303000Y-116312740D01*
X80303000Y-116605260D01*
X80360068Y-116892158D01*
X80472010Y-117162411D01*
X80634525Y-117405632D01*
X80841368Y-117612475D01*
X81084589Y-117774990D01*
X81354842Y-117886932D01*
X81641740Y-117944000D01*
X81934260Y-117944000D01*
X82221158Y-117886932D01*
X82491411Y-117774990D01*
X82734632Y-117612475D01*
X82941475Y-117405632D01*
X83103990Y-117162411D01*
X83215932Y-116892158D01*
X83273000Y-116605260D01*
X83273000Y-116312740D01*
X83215932Y-116025842D01*
X83103990Y-115755589D01*
X82941475Y-115512368D01*
X82734632Y-115305525D01*
X82491411Y-115143010D01*
X82221158Y-115031068D01*
X81934260Y-114974000D01*
X81641740Y-114974000D01*
X81354842Y-115031068D01*
X81084589Y-115143010D01*
X80841368Y-115305525D01*
X80634525Y-115512368D01*
X80472010Y-115755589D01*
X80360068Y-116025842D01*
X80303000Y-116312740D01*
X65126144Y-116312740D01*
X65058438Y-116149285D01*
X64693463Y-115603062D01*
X64228938Y-115138537D01*
X63682715Y-114773562D01*
X63288418Y-114610239D01*
X66814439Y-112946898D01*
X67683405Y-112664944D01*
X68587974Y-112517192D01*
X69103808Y-112495000D01*
X72988895Y-112495000D01*
X73025000Y-112498556D01*
X73061105Y-112495000D01*
X73110491Y-112490136D01*
X73169085Y-112484365D01*
X73307633Y-112442337D01*
X73413760Y-112385611D01*
X73538312Y-112360836D01*
X73700099Y-112293821D01*
X73723500Y-112278185D01*
X73746901Y-112293821D01*
X73908688Y-112360836D01*
X74080441Y-112395000D01*
X74255559Y-112395000D01*
X74427312Y-112360836D01*
X74589099Y-112293821D01*
X74612500Y-112278185D01*
X74635901Y-112293821D01*
X74797688Y-112360836D01*
X74922240Y-112385611D01*
X75028367Y-112442337D01*
X75166915Y-112484365D01*
X75274895Y-112495000D01*
X75311000Y-112498556D01*
X75347105Y-112495000D01*
X86324054Y-112495000D01*
X86463231Y-112508646D01*
X86562528Y-112538626D01*
X86654114Y-112587323D01*
X86734497Y-112652882D01*
X86800613Y-112732803D01*
X86862228Y-112846756D01*
X89983885Y-120639803D01*
X89995664Y-120678633D01*
X90027718Y-120738602D01*
X90059153Y-120799106D01*
X90061871Y-120802499D01*
X90063914Y-120806320D01*
X90107045Y-120858875D01*
X90149686Y-120912091D01*
X90153013Y-120914887D01*
X90155763Y-120918238D01*
X90208327Y-120961376D01*
X90260522Y-121005244D01*
X90264331Y-121007337D01*
X90267681Y-121010087D01*
X90327680Y-121042157D01*
X90387402Y-121074983D01*
X90391542Y-121076292D01*
X90395368Y-121078337D01*
X90460512Y-121098098D01*
X90525448Y-121118629D01*
X90529762Y-121119105D01*
X90533916Y-121120365D01*
X90601703Y-121127041D01*
X90669358Y-121134505D01*
X90709790Y-121131000D01*
X102418572Y-121130999D01*
X102418572Y-124186500D01*
X113481429Y-124186500D01*
X113481429Y-121130999D01*
X125190198Y-121130998D01*
X125230641Y-121134504D01*
X125298364Y-121127033D01*
X125366085Y-121120363D01*
X125370235Y-121119104D01*
X125374551Y-121118628D01*
X125439493Y-121098095D01*
X125504633Y-121078335D01*
X125508460Y-121076289D01*
X125512598Y-121074981D01*
X125572268Y-121042183D01*
X125632320Y-121010085D01*
X125635674Y-121007332D01*
X125639477Y-121005242D01*
X125691613Y-120961424D01*
X125744238Y-120918236D01*
X125746990Y-120914883D01*
X125750313Y-120912090D01*
X125792889Y-120858954D01*
X125836087Y-120806318D01*
X125838134Y-120802489D01*
X125840846Y-120799104D01*
X125872223Y-120738712D01*
X125904337Y-120678631D01*
X125916121Y-120639784D01*
X128512261Y-114158665D01*
X132931000Y-114158665D01*
X132931000Y-114441335D01*
X132986147Y-114718574D01*
X133094320Y-114979727D01*
X133251363Y-115214759D01*
X133451241Y-115414637D01*
X133686273Y-115571680D01*
X133947426Y-115679853D01*
X134224665Y-115735000D01*
X134507335Y-115735000D01*
X134784574Y-115679853D01*
X135045727Y-115571680D01*
X135280759Y-115414637D01*
X135480637Y-115214759D01*
X135637680Y-114979727D01*
X135745853Y-114718574D01*
X135801000Y-114441335D01*
X135801000Y-114158665D01*
X140551000Y-114158665D01*
X140551000Y-114441335D01*
X140606147Y-114718574D01*
X140714320Y-114979727D01*
X140871363Y-115214759D01*
X141071241Y-115414637D01*
X141306273Y-115571680D01*
X141567426Y-115679853D01*
X141844665Y-115735000D01*
X142127335Y-115735000D01*
X142404574Y-115679853D01*
X142665727Y-115571680D01*
X142900759Y-115414637D01*
X143100637Y-115214759D01*
X143257680Y-114979727D01*
X143365853Y-114718574D01*
X143421000Y-114441335D01*
X143421000Y-114158665D01*
X143365853Y-113881426D01*
X143257680Y-113620273D01*
X143100637Y-113385241D01*
X142900759Y-113185363D01*
X142665727Y-113028320D01*
X142404574Y-112920147D01*
X142127335Y-112865000D01*
X141844665Y-112865000D01*
X141567426Y-112920147D01*
X141306273Y-113028320D01*
X141071241Y-113185363D01*
X140871363Y-113385241D01*
X140714320Y-113620273D01*
X140606147Y-113881426D01*
X140551000Y-114158665D01*
X135801000Y-114158665D01*
X135745853Y-113881426D01*
X135637680Y-113620273D01*
X135480637Y-113385241D01*
X135280759Y-113185363D01*
X135045727Y-113028320D01*
X134784574Y-112920147D01*
X134507335Y-112865000D01*
X134224665Y-112865000D01*
X133947426Y-112920147D01*
X133686273Y-113028320D01*
X133451241Y-113185363D01*
X133251363Y-113385241D01*
X133094320Y-113620273D01*
X132986147Y-113881426D01*
X132931000Y-114158665D01*
X128512261Y-114158665D01*
X129019885Y-112891410D01*
X129085394Y-112754682D01*
X129147530Y-112671623D01*
X129224611Y-112602219D01*
X129313711Y-112549105D01*
X129411424Y-112514311D01*
X129540853Y-112495199D01*
X129548994Y-112495000D01*
X140552895Y-112495000D01*
X140589000Y-112498556D01*
X140625105Y-112495000D01*
X140674491Y-112490136D01*
X140733085Y-112484365D01*
X140871633Y-112442337D01*
X140977760Y-112385611D01*
X141102312Y-112360836D01*
X141264099Y-112293821D01*
X141287500Y-112278185D01*
X141310901Y-112293821D01*
X141472688Y-112360836D01*
X141644441Y-112395000D01*
X141819559Y-112395000D01*
X141991312Y-112360836D01*
X142153099Y-112293821D01*
X142176500Y-112278185D01*
X142199901Y-112293821D01*
G04 #@! TA.AperFunction,Conductor*
D25*
G36*
X142199901Y-112293821D02*
G01*
X142361688Y-112360836D01*
X142486240Y-112385611D01*
X142592367Y-112442337D01*
X142730915Y-112484365D01*
X142838895Y-112495000D01*
X142875000Y-112498556D01*
X142911105Y-112495000D01*
X146784082Y-112495000D01*
X147713803Y-112565722D01*
X148606680Y-112772680D01*
X149074598Y-112941726D01*
X152611583Y-114610239D01*
X152217285Y-114773562D01*
X151671062Y-115138537D01*
X151206537Y-115603062D01*
X150841562Y-116149285D01*
X150590163Y-116756217D01*
X150462001Y-117400531D01*
X150462001Y-118057469D01*
X150590163Y-118701783D01*
X150841562Y-119308715D01*
X151206537Y-119854938D01*
X151671062Y-120319463D01*
X152217285Y-120684438D01*
X152824217Y-120935837D01*
X153468531Y-121063999D01*
X154125469Y-121063999D01*
X154769783Y-120935837D01*
X155376715Y-120684438D01*
X155922938Y-120319463D01*
X156387463Y-119854938D01*
X156752438Y-119308715D01*
X157003837Y-118701783D01*
X157131999Y-118057469D01*
X157131999Y-117400531D01*
X157003837Y-116756217D01*
X156965739Y-116664239D01*
X162733113Y-119384902D01*
X163540504Y-119849556D01*
X164248034Y-120414782D01*
X164861928Y-121080527D01*
X165368055Y-121831468D01*
X165754772Y-122650330D01*
X166013178Y-123518264D01*
X166140825Y-124440575D01*
X166142189Y-124465403D01*
X166142143Y-124466547D01*
X167760379Y-152345492D01*
X167691278Y-153253901D01*
X167487064Y-154134943D01*
X167151930Y-154974961D01*
X166693590Y-155754624D01*
X166122591Y-156455986D01*
X165448942Y-157065743D01*
X164812002Y-157497074D01*
X149045923Y-165706049D01*
X149104437Y-165564783D01*
X149232599Y-164920469D01*
X149232599Y-164263531D01*
X149104437Y-163619217D01*
X148853038Y-163012285D01*
X148488063Y-162466062D01*
X148023538Y-162001537D01*
X147477315Y-161636562D01*
X146870383Y-161385163D01*
X146226069Y-161257001D01*
X145569131Y-161257001D01*
X144924817Y-161385163D01*
X144317885Y-161636562D01*
X143771662Y-162001537D01*
X143307137Y-162466062D01*
X142942162Y-163012285D01*
X142690763Y-163619217D01*
X142562601Y-164263531D01*
X142562601Y-164920469D01*
X142690763Y-165564783D01*
X142942162Y-166171715D01*
X143307137Y-166717938D01*
X143494199Y-166905000D01*
X142911105Y-166905000D01*
X142875000Y-166901444D01*
X142838895Y-166905000D01*
X142730915Y-166915635D01*
X142592367Y-166957663D01*
X142486240Y-167014389D01*
X142361688Y-167039164D01*
X142199901Y-167106179D01*
X142176500Y-167121815D01*
X142153099Y-167106179D01*
X141991312Y-167039164D01*
X141819559Y-167005000D01*
X141644441Y-167005000D01*
X141472688Y-167039164D01*
X141310901Y-167106179D01*
X141287500Y-167121815D01*
X141264099Y-167106179D01*
X141102312Y-167039164D01*
X140977760Y-167014389D01*
X140871633Y-166957663D01*
X140733085Y-166915635D01*
X140625105Y-166905000D01*
X140589000Y-166901444D01*
X140552895Y-166905000D01*
X75347105Y-166905000D01*
X75311000Y-166901444D01*
X75274895Y-166905000D01*
X75166915Y-166915635D01*
X75028367Y-166957663D01*
X74922240Y-167014389D01*
X74797688Y-167039164D01*
X74635901Y-167106179D01*
X74612500Y-167121815D01*
X74589099Y-167106179D01*
X74427312Y-167039164D01*
X74255559Y-167005000D01*
X74080441Y-167005000D01*
X73908688Y-167039164D01*
X73746901Y-167106179D01*
X73723500Y-167121815D01*
X73700099Y-167106179D01*
X73538312Y-167039164D01*
X73413760Y-167014389D01*
X73307633Y-166957663D01*
X73169085Y-166915635D01*
X73061105Y-166905000D01*
X73025000Y-166901444D01*
X72988895Y-166905000D01*
X72405801Y-166905000D01*
X72592863Y-166717938D01*
X72957838Y-166171715D01*
X73209237Y-165564783D01*
X73337399Y-164920469D01*
X73337399Y-164263531D01*
X73209237Y-163619217D01*
X73186949Y-163565408D01*
X76885800Y-163565408D01*
X76885800Y-163840592D01*
X76939486Y-164110490D01*
X77044795Y-164364727D01*
X77197680Y-164593535D01*
X77392265Y-164788120D01*
X77621073Y-164941005D01*
X77875310Y-165046314D01*
X78145208Y-165100000D01*
X78420392Y-165100000D01*
X78690290Y-165046314D01*
X78944527Y-164941005D01*
X79173335Y-164788120D01*
X79367920Y-164593535D01*
X79520805Y-164364727D01*
X79527400Y-164348805D01*
X79533995Y-164364727D01*
X79686880Y-164593535D01*
X79881465Y-164788120D01*
X80110273Y-164941005D01*
X80364510Y-165046314D01*
X80634408Y-165100000D01*
X80909592Y-165100000D01*
X81179490Y-165046314D01*
X81433727Y-164941005D01*
X81662535Y-164788120D01*
X81857120Y-164593535D01*
X82010005Y-164364727D01*
X82016600Y-164348805D01*
X82023195Y-164364727D01*
X82176080Y-164593535D01*
X82370665Y-164788120D01*
X82599473Y-164941005D01*
X82853710Y-165046314D01*
X83123608Y-165100000D01*
X83398792Y-165100000D01*
X83668690Y-165046314D01*
X83922927Y-164941005D01*
X84151735Y-164788120D01*
X84346320Y-164593535D01*
X84499205Y-164364727D01*
X84604514Y-164110490D01*
X84658200Y-163840592D01*
X84658200Y-163565408D01*
X84604514Y-163295510D01*
X84499205Y-163041273D01*
X84346320Y-162812465D01*
X84151735Y-162617880D01*
X83922927Y-162464995D01*
X83668690Y-162359686D01*
X83398792Y-162306000D01*
X83123608Y-162306000D01*
X82853710Y-162359686D01*
X82599473Y-162464995D01*
X82370665Y-162617880D01*
X82176080Y-162812465D01*
X82023195Y-163041273D01*
X82016600Y-163057195D01*
X82010005Y-163041273D01*
X81857120Y-162812465D01*
X81662535Y-162617880D01*
X81433727Y-162464995D01*
X81179490Y-162359686D01*
X80909592Y-162306000D01*
X80634408Y-162306000D01*
X80364510Y-162359686D01*
X80110273Y-162464995D01*
X79881465Y-162617880D01*
X79686880Y-162812465D01*
X79533995Y-163041273D01*
X79527400Y-163057195D01*
X79520805Y-163041273D01*
X79367920Y-162812465D01*
X79173335Y-162617880D01*
X78944527Y-162464995D01*
X78690290Y-162359686D01*
X78420392Y-162306000D01*
X78145208Y-162306000D01*
X77875310Y-162359686D01*
X77621073Y-162464995D01*
X77392265Y-162617880D01*
X77197680Y-162812465D01*
X77044795Y-163041273D01*
X76939486Y-163295510D01*
X76885800Y-163565408D01*
X73186949Y-163565408D01*
X72957838Y-163012285D01*
X72592863Y-162466062D01*
X72128338Y-162001537D01*
X71582115Y-161636562D01*
X70975183Y-161385163D01*
X70330869Y-161257001D01*
X69673931Y-161257001D01*
X69029617Y-161385163D01*
X68422685Y-161636562D01*
X67876462Y-162001537D01*
X67636241Y-162241758D01*
X68089612Y-161370841D01*
X68136216Y-161254763D01*
X68159279Y-161131824D01*
X68157915Y-161006747D01*
X68132175Y-160884340D01*
X68083050Y-160769307D01*
X68012427Y-160666067D01*
X67923019Y-160578590D01*
X67818264Y-160510235D01*
X65866841Y-159494388D01*
X65750763Y-159447784D01*
X65627824Y-159424721D01*
X65502747Y-159426085D01*
X65380340Y-159451825D01*
X65265307Y-159500950D01*
X65162067Y-159571573D01*
X65074590Y-159660981D01*
X65006235Y-159765736D01*
X63990388Y-161717159D01*
X63943784Y-161833237D01*
X63920721Y-161956176D01*
X63922085Y-162081253D01*
X63947825Y-162203660D01*
X63996950Y-162318693D01*
X64067573Y-162421933D01*
X64156981Y-162509410D01*
X64261736Y-162577765D01*
X66213159Y-163593612D01*
X66329237Y-163640216D01*
X66452176Y-163663279D01*
X66577253Y-163661915D01*
X66699660Y-163636175D01*
X66807639Y-163590062D01*
X66795563Y-163619217D01*
X66667401Y-164263531D01*
X66667401Y-164920469D01*
X66795563Y-165564783D01*
X66855090Y-165708495D01*
X51770958Y-157854593D01*
X57545977Y-157854593D01*
X57545977Y-158196359D01*
X57612652Y-158531557D01*
X57743440Y-158847307D01*
X57933314Y-159131474D01*
X58174979Y-159373139D01*
X58459146Y-159563013D01*
X58774896Y-159693801D01*
X59110094Y-159760476D01*
X59451860Y-159760476D01*
X59787058Y-159693801D01*
X60102808Y-159563013D01*
X60386975Y-159373139D01*
X60628640Y-159131474D01*
X60818514Y-158847307D01*
X60949302Y-158531557D01*
X61015977Y-158196359D01*
X61015977Y-157854593D01*
X60949302Y-157519395D01*
X60818514Y-157203645D01*
X60628640Y-156919478D01*
X60386975Y-156677813D01*
X60303709Y-156622176D01*
X63920721Y-156622176D01*
X63922085Y-156747253D01*
X63947825Y-156869660D01*
X63996950Y-156984693D01*
X64067573Y-157087933D01*
X64156981Y-157175410D01*
X64261736Y-157243765D01*
X66213159Y-158259612D01*
X66329237Y-158306216D01*
X66452176Y-158329279D01*
X66577253Y-158327915D01*
X66699660Y-158302175D01*
X66814693Y-158253050D01*
X66917933Y-158182427D01*
X67005410Y-158093019D01*
X67073765Y-157988264D01*
X68089612Y-156036841D01*
X68136216Y-155920763D01*
X68159279Y-155797824D01*
X68157915Y-155672747D01*
X68132175Y-155550340D01*
X68083050Y-155435307D01*
X68012427Y-155332067D01*
X67923019Y-155244590D01*
X67818264Y-155176235D01*
X65866841Y-154160388D01*
X65750763Y-154113784D01*
X65627824Y-154090721D01*
X65502747Y-154092085D01*
X65380340Y-154117825D01*
X65265307Y-154166950D01*
X65162067Y-154237573D01*
X65074590Y-154326981D01*
X65006235Y-154431736D01*
X63990388Y-156383159D01*
X63943784Y-156499237D01*
X63920721Y-156622176D01*
X60303709Y-156622176D01*
X60102808Y-156487939D01*
X59787058Y-156357151D01*
X59451860Y-156290476D01*
X59110094Y-156290476D01*
X58774896Y-156357151D01*
X58459146Y-156487939D01*
X58174979Y-156677813D01*
X57933314Y-156919478D01*
X57743440Y-157203645D01*
X57612652Y-157519395D01*
X57545977Y-157854593D01*
X51770958Y-157854593D01*
X51088057Y-157499025D01*
X50337407Y-156978065D01*
X49680954Y-156355961D01*
X49126154Y-155641720D01*
X48685773Y-154851777D01*
X48369946Y-154004307D01*
X48185084Y-153114687D01*
X48146724Y-152520593D01*
X57545977Y-152520593D01*
X57545977Y-152862359D01*
X57612652Y-153197557D01*
X57743440Y-153513307D01*
X57933314Y-153797474D01*
X58174979Y-154039139D01*
X58459146Y-154229013D01*
X58774896Y-154359801D01*
X59110094Y-154426476D01*
X59451860Y-154426476D01*
X59787058Y-154359801D01*
X60102808Y-154229013D01*
X60386975Y-154039139D01*
X60628640Y-153797474D01*
X60818514Y-153513307D01*
X60949302Y-153197557D01*
X61015977Y-152862359D01*
X61015977Y-152520593D01*
X60949302Y-152185395D01*
X60818514Y-151869645D01*
X60628640Y-151585478D01*
X60386975Y-151343813D01*
X60102808Y-151153939D01*
X59787058Y-151023151D01*
X59451860Y-150956476D01*
X59110094Y-150956476D01*
X58774896Y-151023151D01*
X58459146Y-151153939D01*
X58174979Y-151343813D01*
X57933314Y-151585478D01*
X57743440Y-151869645D01*
X57612652Y-152185395D01*
X57545977Y-152520593D01*
X48146724Y-152520593D01*
X48135692Y-152349749D01*
X48350501Y-148657413D01*
X58008192Y-148657413D01*
X58103956Y-148921814D01*
X58393571Y-149062704D01*
X58705108Y-149144384D01*
X59026595Y-149163718D01*
X59345675Y-149119961D01*
X59650088Y-149014795D01*
X59824044Y-148921814D01*
X59919808Y-148657413D01*
X58964000Y-147701605D01*
X58008192Y-148657413D01*
X48350501Y-148657413D01*
X48412915Y-147584595D01*
X57322282Y-147584595D01*
X57366039Y-147903675D01*
X57471205Y-148208088D01*
X57564186Y-148382044D01*
X57828587Y-148477808D01*
X58784395Y-147522000D01*
X59143605Y-147522000D01*
X60099413Y-148477808D01*
X60363814Y-148382044D01*
X60504704Y-148092429D01*
X60586384Y-147780892D01*
X60605718Y-147459405D01*
X60592219Y-147360967D01*
X61829000Y-147360967D01*
X61829000Y-147683033D01*
X61891832Y-147998912D01*
X62015082Y-148296463D01*
X62194013Y-148564252D01*
X62421748Y-148791987D01*
X62689537Y-148970918D01*
X62987088Y-149094168D01*
X63302967Y-149157000D01*
X63625033Y-149157000D01*
X63940912Y-149094168D01*
X64238463Y-148970918D01*
X64506252Y-148791987D01*
X64733987Y-148564252D01*
X64912918Y-148296463D01*
X65036168Y-147998912D01*
X65099000Y-147683033D01*
X65099000Y-147360967D01*
X65036168Y-147045088D01*
X64912918Y-146747537D01*
X64733987Y-146479748D01*
X64506252Y-146252013D01*
X64238463Y-146073082D01*
X63940912Y-145949832D01*
X63625033Y-145887000D01*
X63302967Y-145887000D01*
X62987088Y-145949832D01*
X62689537Y-146073082D01*
X62421748Y-146252013D01*
X62194013Y-146479748D01*
X62015082Y-146747537D01*
X61891832Y-147045088D01*
X61829000Y-147360967D01*
X60592219Y-147360967D01*
X60561961Y-147140325D01*
X60456795Y-146835912D01*
X60363814Y-146661956D01*
X60099413Y-146566192D01*
X59143605Y-147522000D01*
X58784395Y-147522000D01*
X57828587Y-146566192D01*
X57564186Y-146661956D01*
X57423296Y-146951571D01*
X57341616Y-147263108D01*
X57322282Y-147584595D01*
X48412915Y-147584595D01*
X48482611Y-146386587D01*
X58008192Y-146386587D01*
X58964000Y-147342395D01*
X59919808Y-146386587D01*
X59824044Y-146122186D01*
X59534429Y-145981296D01*
X59222892Y-145899616D01*
X58901405Y-145880282D01*
X58582325Y-145924039D01*
X58277912Y-146029205D01*
X58103956Y-146122186D01*
X58008192Y-146386587D01*
X48482611Y-146386587D01*
X48728653Y-142157413D01*
X58008192Y-142157413D01*
X58103956Y-142421814D01*
X58393571Y-142562704D01*
X58705108Y-142644384D01*
X59026595Y-142663718D01*
X59345675Y-142619961D01*
X59650088Y-142514795D01*
X59824044Y-142421814D01*
X59919808Y-142157413D01*
X58964000Y-141201605D01*
X58008192Y-142157413D01*
X48728653Y-142157413D01*
X48839682Y-140248967D01*
X50217000Y-140248967D01*
X50217000Y-140571033D01*
X50279832Y-140886912D01*
X50403082Y-141184463D01*
X50582013Y-141452252D01*
X50809748Y-141679987D01*
X51077537Y-141858918D01*
X51375088Y-141982168D01*
X51690967Y-142045000D01*
X52013033Y-142045000D01*
X52328912Y-141982168D01*
X52626463Y-141858918D01*
X52894252Y-141679987D01*
X53028826Y-141545413D01*
X55396192Y-141545413D01*
X55491956Y-141809814D01*
X55781571Y-141950704D01*
X56093108Y-142032384D01*
X56414595Y-142051718D01*
X56733675Y-142007961D01*
X57038088Y-141902795D01*
X57212044Y-141809814D01*
X57307807Y-141545415D01*
X57423475Y-141661083D01*
X57446880Y-141637678D01*
X57471205Y-141708088D01*
X57564186Y-141882044D01*
X57828587Y-141977808D01*
X58784395Y-141022000D01*
X59143605Y-141022000D01*
X60099413Y-141977808D01*
X60363814Y-141882044D01*
X60504704Y-141592429D01*
X60586384Y-141280892D01*
X60605718Y-140959405D01*
X60561961Y-140640325D01*
X60456795Y-140335912D01*
X60363814Y-140161956D01*
X60099413Y-140066192D01*
X59143605Y-141022000D01*
X58784395Y-141022000D01*
X58770253Y-141007858D01*
X58949858Y-140828253D01*
X58964000Y-140842395D01*
X59919808Y-139886587D01*
X59824044Y-139622186D01*
X59534429Y-139481296D01*
X59222892Y-139399616D01*
X58901405Y-139380282D01*
X58582325Y-139424039D01*
X58277912Y-139529205D01*
X58103956Y-139622186D01*
X58008193Y-139886585D01*
X57892525Y-139770917D01*
X57869120Y-139794322D01*
X57844795Y-139723912D01*
X57751814Y-139549956D01*
X57487413Y-139454192D01*
X56531605Y-140410000D01*
X56545748Y-140424143D01*
X56366143Y-140603748D01*
X56352000Y-140589605D01*
X55396192Y-141545413D01*
X53028826Y-141545413D01*
X53121987Y-141452252D01*
X53300918Y-141184463D01*
X53424168Y-140886912D01*
X53487000Y-140571033D01*
X53487000Y-140472595D01*
X54710282Y-140472595D01*
X54754039Y-140791675D01*
X54859205Y-141096088D01*
X54952186Y-141270044D01*
X55216587Y-141365808D01*
X56172395Y-140410000D01*
X55216587Y-139454192D01*
X54952186Y-139549956D01*
X54811296Y-139839571D01*
X54729616Y-140151108D01*
X54710282Y-140472595D01*
X53487000Y-140472595D01*
X53487000Y-140248967D01*
X53424168Y-139933088D01*
X53300918Y-139635537D01*
X53121987Y-139367748D01*
X53028826Y-139274587D01*
X55396192Y-139274587D01*
X56352000Y-140230395D01*
X57307808Y-139274587D01*
X57212044Y-139010186D01*
X56922429Y-138869296D01*
X56610892Y-138787616D01*
X56289405Y-138768282D01*
X55970325Y-138812039D01*
X55665912Y-138917205D01*
X55491956Y-139010186D01*
X55396192Y-139274587D01*
X53028826Y-139274587D01*
X52894252Y-139140013D01*
X52626463Y-138961082D01*
X52328912Y-138837832D01*
X52013033Y-138775000D01*
X51690967Y-138775000D01*
X51375088Y-138837832D01*
X51077537Y-138961082D01*
X50809748Y-139140013D01*
X50582013Y-139367748D01*
X50403082Y-139635537D01*
X50279832Y-139933088D01*
X50217000Y-140248967D01*
X48839682Y-140248967D01*
X49217835Y-133748967D01*
X50217000Y-133748967D01*
X50217000Y-134071033D01*
X50279832Y-134386912D01*
X50403082Y-134684463D01*
X50582013Y-134952252D01*
X50809748Y-135179987D01*
X51077537Y-135358918D01*
X51375088Y-135482168D01*
X51690967Y-135545000D01*
X52013033Y-135545000D01*
X52328912Y-135482168D01*
X52626463Y-135358918D01*
X52894252Y-135179987D01*
X53028826Y-135045413D01*
X55396192Y-135045413D01*
X55491956Y-135309814D01*
X55781571Y-135450704D01*
X56093108Y-135532384D01*
X56414595Y-135551718D01*
X56733675Y-135507961D01*
X57038088Y-135402795D01*
X57212044Y-135309814D01*
X57307808Y-135045413D01*
X56352000Y-134089605D01*
X55396192Y-135045413D01*
X53028826Y-135045413D01*
X53121987Y-134952252D01*
X53300918Y-134684463D01*
X53424168Y-134386912D01*
X53487000Y-134071033D01*
X53487000Y-133972595D01*
X54710282Y-133972595D01*
X54754039Y-134291675D01*
X54859205Y-134596088D01*
X54952186Y-134770044D01*
X55216587Y-134865808D01*
X56172395Y-133910000D01*
X55216587Y-132954192D01*
X54952186Y-133049956D01*
X54811296Y-133339571D01*
X54729616Y-133651108D01*
X54710282Y-133972595D01*
X53487000Y-133972595D01*
X53487000Y-133748967D01*
X53424168Y-133433088D01*
X53419006Y-133420625D01*
X54065044Y-132774587D01*
X55396192Y-132774587D01*
X56352000Y-133730395D01*
X56366143Y-133716253D01*
X56545748Y-133895858D01*
X56531605Y-133910000D01*
X57487413Y-134865808D01*
X57751814Y-134770044D01*
X57873554Y-134519793D01*
X57921748Y-134567987D01*
X58189537Y-134746918D01*
X58487088Y-134870168D01*
X58802967Y-134933000D01*
X59125033Y-134933000D01*
X59440912Y-134870168D01*
X59738463Y-134746918D01*
X60006252Y-134567987D01*
X60140826Y-134433413D01*
X62508192Y-134433413D01*
X62603956Y-134697814D01*
X62893571Y-134838704D01*
X63205108Y-134920384D01*
X63526595Y-134939718D01*
X63845675Y-134895961D01*
X64150088Y-134790795D01*
X64324044Y-134697814D01*
X64419807Y-134433415D01*
X64535475Y-134549083D01*
X64558880Y-134525678D01*
X64583205Y-134596088D01*
X64676186Y-134770044D01*
X64940587Y-134865808D01*
X65896395Y-133910000D01*
X65882253Y-133895858D01*
X66061858Y-133716253D01*
X66076000Y-133730395D01*
X67031808Y-132774587D01*
X66936044Y-132510186D01*
X66646429Y-132369296D01*
X66334892Y-132287616D01*
X66013405Y-132268282D01*
X65694325Y-132312039D01*
X65389912Y-132417205D01*
X65215956Y-132510186D01*
X65120193Y-132774585D01*
X65004525Y-132658917D01*
X64981120Y-132682322D01*
X64956795Y-132611912D01*
X64863814Y-132437956D01*
X64599413Y-132342192D01*
X63643605Y-133298000D01*
X63657748Y-133312143D01*
X63478143Y-133491748D01*
X63464000Y-133477605D01*
X62508192Y-134433413D01*
X60140826Y-134433413D01*
X60233987Y-134340252D01*
X60412918Y-134072463D01*
X60536168Y-133774912D01*
X60599000Y-133459033D01*
X60599000Y-133360595D01*
X61822282Y-133360595D01*
X61866039Y-133679675D01*
X61971205Y-133984088D01*
X62064186Y-134158044D01*
X62328587Y-134253808D01*
X63284395Y-133298000D01*
X62328587Y-132342192D01*
X62064186Y-132437956D01*
X61923296Y-132727571D01*
X61841616Y-133039108D01*
X61822282Y-133360595D01*
X60599000Y-133360595D01*
X60599000Y-133136967D01*
X60536168Y-132821088D01*
X60412918Y-132523537D01*
X60233987Y-132255748D01*
X60140826Y-132162587D01*
X62508192Y-132162587D01*
X63464000Y-133118395D01*
X64419808Y-132162587D01*
X64324044Y-131898186D01*
X64034429Y-131757296D01*
X63722892Y-131675616D01*
X63401405Y-131656282D01*
X63082325Y-131700039D01*
X62777912Y-131805205D01*
X62603956Y-131898186D01*
X62508192Y-132162587D01*
X60140826Y-132162587D01*
X60006252Y-132028013D01*
X59738463Y-131849082D01*
X59440912Y-131725832D01*
X59125033Y-131663000D01*
X58802967Y-131663000D01*
X58487088Y-131725832D01*
X58189537Y-131849082D01*
X57921748Y-132028013D01*
X57694013Y-132255748D01*
X57515082Y-132523537D01*
X57448599Y-132684041D01*
X57423475Y-132658917D01*
X57307807Y-132774585D01*
X57212044Y-132510186D01*
X56922429Y-132369296D01*
X56610892Y-132287616D01*
X56289405Y-132268282D01*
X55970325Y-132312039D01*
X55665912Y-132417205D01*
X55491956Y-132510186D01*
X55396192Y-132774587D01*
X54065044Y-132774587D01*
X57553635Y-129285996D01*
X71185373Y-129285996D01*
X67435878Y-133035492D01*
X67211413Y-132954192D01*
X66255605Y-133910000D01*
X66269748Y-133924143D01*
X66090143Y-134103748D01*
X66076000Y-134089605D01*
X65120192Y-135045413D01*
X65215956Y-135309814D01*
X65505571Y-135450704D01*
X65817108Y-135532384D01*
X66138595Y-135551718D01*
X66457675Y-135507961D01*
X66762088Y-135402795D01*
X66936044Y-135309814D01*
X67031807Y-135045415D01*
X67147475Y-135161083D01*
X67183001Y-135125557D01*
X67183000Y-136225369D01*
X63953375Y-139454994D01*
X63940912Y-139449832D01*
X63625033Y-139387000D01*
X63302967Y-139387000D01*
X62987088Y-139449832D01*
X62689537Y-139573082D01*
X62421748Y-139752013D01*
X62194013Y-139979748D01*
X62015082Y-140247537D01*
X61891832Y-140545088D01*
X61829000Y-140860967D01*
X61829000Y-141183033D01*
X61891832Y-141498912D01*
X62015082Y-141796463D01*
X62194013Y-142064252D01*
X62421748Y-142291987D01*
X62689537Y-142470918D01*
X62987088Y-142594168D01*
X63302967Y-142657000D01*
X63625033Y-142657000D01*
X63940912Y-142594168D01*
X64238463Y-142470918D01*
X64506252Y-142291987D01*
X64733987Y-142064252D01*
X64912918Y-141796463D01*
X64979401Y-141635959D01*
X65004525Y-141661083D01*
X65120193Y-141545415D01*
X65215956Y-141809814D01*
X65505571Y-141950704D01*
X65817108Y-142032384D01*
X66138595Y-142051718D01*
X66457675Y-142007961D01*
X66762088Y-141902795D01*
X66936044Y-141809814D01*
X67031808Y-141545413D01*
X66076000Y-140589605D01*
X66061858Y-140603748D01*
X65882253Y-140424143D01*
X65896395Y-140410000D01*
X66255605Y-140410000D01*
X67211413Y-141365808D01*
X67475814Y-141270044D01*
X67616704Y-140980429D01*
X67698384Y-140668892D01*
X67717718Y-140347405D01*
X67673961Y-140028325D01*
X67568795Y-139723912D01*
X67475814Y-139549956D01*
X67211413Y-139454192D01*
X66255605Y-140410000D01*
X65896395Y-140410000D01*
X65882253Y-140395858D01*
X66061858Y-140216253D01*
X66076000Y-140230395D01*
X67031808Y-139274587D01*
X66936044Y-139010186D01*
X66678657Y-138884974D01*
X68457353Y-137106278D01*
X68486422Y-137082422D01*
X68545347Y-137010622D01*
X68581645Y-136966393D01*
X68627957Y-136879748D01*
X68652402Y-136834015D01*
X68695974Y-136690378D01*
X68707000Y-136578426D01*
X68707000Y-136578423D01*
X68710686Y-136541000D01*
X68707000Y-136503577D01*
X68707000Y-133919630D01*
X68956727Y-133669903D01*
X68941000Y-133748967D01*
X68941000Y-134071033D01*
X69003832Y-134386912D01*
X69127082Y-134684463D01*
X69306013Y-134952252D01*
X69533748Y-135179987D01*
X69801537Y-135358918D01*
X70099088Y-135482168D01*
X70414967Y-135545000D01*
X70737033Y-135545000D01*
X71052912Y-135482168D01*
X71350463Y-135358918D01*
X71618252Y-135179987D01*
X71845987Y-134952252D01*
X72024918Y-134684463D01*
X72148168Y-134386912D01*
X72211000Y-134071033D01*
X72211000Y-133748967D01*
X72148168Y-133433088D01*
X72063924Y-133229706D01*
X72981984Y-132311646D01*
X73022068Y-132513158D01*
X73134010Y-132783411D01*
X73296525Y-133026632D01*
X73503368Y-133233475D01*
X73677760Y-133350000D01*
X73503368Y-133466525D01*
X73296525Y-133673368D01*
X73134010Y-133916589D01*
X73022068Y-134186842D01*
X72965000Y-134473740D01*
X72965000Y-134766260D01*
X73022068Y-135053158D01*
X73134010Y-135323411D01*
X73296525Y-135566632D01*
X73503368Y-135773475D01*
X73677760Y-135890000D01*
X73503368Y-136006525D01*
X73296525Y-136213368D01*
X73134010Y-136456589D01*
X73022068Y-136726842D01*
X72965000Y-137013740D01*
X72965000Y-137306260D01*
X73008321Y-137524049D01*
X72258654Y-138273716D01*
X72229578Y-138297578D01*
X72173983Y-138365322D01*
X72134355Y-138413608D01*
X72123268Y-138434351D01*
X72063598Y-138545986D01*
X72020026Y-138689623D01*
X72010924Y-138782044D01*
X72005314Y-138839000D01*
X72009000Y-138876423D01*
X72009000Y-139611714D01*
X71845987Y-139367748D01*
X71618252Y-139140013D01*
X71350463Y-138961082D01*
X71052912Y-138837832D01*
X70737033Y-138775000D01*
X70414967Y-138775000D01*
X70099088Y-138837832D01*
X69801537Y-138961082D01*
X69533748Y-139140013D01*
X69306013Y-139367748D01*
X69127082Y-139635537D01*
X69003832Y-139933088D01*
X68941000Y-140248967D01*
X68941000Y-140571033D01*
X69003832Y-140886912D01*
X69127082Y-141184463D01*
X69306013Y-141452252D01*
X69533748Y-141679987D01*
X69801537Y-141858918D01*
X70099088Y-141982168D01*
X70414967Y-142045000D01*
X70737033Y-142045000D01*
X71052912Y-141982168D01*
X71350463Y-141858918D01*
X71618252Y-141679987D01*
X71845987Y-141452252D01*
X72009000Y-141208286D01*
X72009001Y-148171567D01*
X72005314Y-148209000D01*
X72020027Y-148358378D01*
X72063599Y-148502015D01*
X72134355Y-148634392D01*
X72205721Y-148721351D01*
X72229579Y-148750422D01*
X72258649Y-148774279D01*
X85921721Y-162437352D01*
X85945578Y-162466422D01*
X86061608Y-162561645D01*
X86193985Y-162632402D01*
X86337622Y-162675974D01*
X86449574Y-162687000D01*
X86449576Y-162687000D01*
X86486999Y-162690686D01*
X86524422Y-162687000D01*
X95243158Y-162687000D01*
X95204010Y-162745589D01*
X95092068Y-163015842D01*
X95035000Y-163302740D01*
X95035000Y-163595260D01*
X95092068Y-163882158D01*
X95204010Y-164152411D01*
X95366525Y-164395632D01*
X95573368Y-164602475D01*
X95816589Y-164764990D01*
X96086842Y-164876932D01*
X96373740Y-164934000D01*
X96666260Y-164934000D01*
X96953158Y-164876932D01*
X97223411Y-164764990D01*
X97466632Y-164602475D01*
X97673475Y-164395632D01*
X97790000Y-164221240D01*
X97906525Y-164395632D01*
X98113368Y-164602475D01*
X98356589Y-164764990D01*
X98626842Y-164876932D01*
X98913740Y-164934000D01*
X99206260Y-164934000D01*
X99493158Y-164876932D01*
X99763411Y-164764990D01*
X100006632Y-164602475D01*
X100213475Y-164395632D01*
X100330000Y-164221240D01*
X100446525Y-164395632D01*
X100653368Y-164602475D01*
X100896589Y-164764990D01*
X101166842Y-164876932D01*
X101453740Y-164934000D01*
X101746260Y-164934000D01*
X102033158Y-164876932D01*
X102303411Y-164764990D01*
X102546632Y-164602475D01*
X102753475Y-164395632D01*
X102870000Y-164221240D01*
X102986525Y-164395632D01*
X103193368Y-164602475D01*
X103436589Y-164764990D01*
X103706842Y-164876932D01*
X103993740Y-164934000D01*
X104286260Y-164934000D01*
X104573158Y-164876932D01*
X104843411Y-164764990D01*
X105086632Y-164602475D01*
X105293475Y-164395632D01*
X105410000Y-164221240D01*
X105526525Y-164395632D01*
X105733368Y-164602475D01*
X105976589Y-164764990D01*
X106246842Y-164876932D01*
X106533740Y-164934000D01*
X106826260Y-164934000D01*
X107113158Y-164876932D01*
X107383411Y-164764990D01*
X107626632Y-164602475D01*
X107833475Y-164395632D01*
X107950000Y-164221240D01*
X108066525Y-164395632D01*
X108273368Y-164602475D01*
X108516589Y-164764990D01*
X108786842Y-164876932D01*
X109073740Y-164934000D01*
X109366260Y-164934000D01*
X109653158Y-164876932D01*
X109923411Y-164764990D01*
X110166632Y-164602475D01*
X110373475Y-164395632D01*
X110490000Y-164221240D01*
X110606525Y-164395632D01*
X110813368Y-164602475D01*
X111056589Y-164764990D01*
X111326842Y-164876932D01*
X111613740Y-164934000D01*
X111906260Y-164934000D01*
X112193158Y-164876932D01*
X112463411Y-164764990D01*
X112706632Y-164602475D01*
X112913475Y-164395632D01*
X113030000Y-164221240D01*
X113146525Y-164395632D01*
X113353368Y-164602475D01*
X113596589Y-164764990D01*
X113866842Y-164876932D01*
X114153740Y-164934000D01*
X114446260Y-164934000D01*
X114733158Y-164876932D01*
X115003411Y-164764990D01*
X115246632Y-164602475D01*
X115453475Y-164395632D01*
X115570000Y-164221240D01*
X115686525Y-164395632D01*
X115893368Y-164602475D01*
X116136589Y-164764990D01*
X116406842Y-164876932D01*
X116693740Y-164934000D01*
X116986260Y-164934000D01*
X117273158Y-164876932D01*
X117543411Y-164764990D01*
X117786632Y-164602475D01*
X117993475Y-164395632D01*
X118115195Y-164213466D01*
X118184822Y-164330355D01*
X118379731Y-164546588D01*
X118613080Y-164720641D01*
X118875901Y-164845825D01*
X119023110Y-164890476D01*
X119253000Y-164769155D01*
X119253000Y-163576000D01*
X119507000Y-163576000D01*
X119507000Y-164769155D01*
X119736890Y-164890476D01*
X119884099Y-164845825D01*
X120086877Y-164749240D01*
X132737365Y-164749240D01*
X132818025Y-165000868D01*
X133086329Y-165129267D01*
X133374526Y-165202855D01*
X133671543Y-165218804D01*
X133965963Y-165176501D01*
X134246474Y-165077572D01*
X134389975Y-165000868D01*
X134470635Y-164749240D01*
X133604000Y-163882605D01*
X132737365Y-164749240D01*
X120086877Y-164749240D01*
X120146920Y-164720641D01*
X120380269Y-164546588D01*
X120575178Y-164330355D01*
X120724157Y-164080252D01*
X120821481Y-163805891D01*
X120700814Y-163576000D01*
X119507000Y-163576000D01*
X119253000Y-163576000D01*
X119233000Y-163576000D01*
X119233000Y-163322000D01*
X119253000Y-163322000D01*
X119253000Y-163302000D01*
X119507000Y-163302000D01*
X119507000Y-163322000D01*
X120700814Y-163322000D01*
X120821481Y-163092109D01*
X120724157Y-162817748D01*
X120575178Y-162567645D01*
X120380269Y-162351412D01*
X120363057Y-162338573D01*
X121534691Y-161166940D01*
X121771278Y-161214000D01*
X122068722Y-161214000D01*
X122360451Y-161155971D01*
X122635253Y-161042144D01*
X122882569Y-160876893D01*
X123092893Y-160666569D01*
X123190000Y-160521238D01*
X123287107Y-160666569D01*
X123483538Y-160863000D01*
X123351911Y-160863000D01*
X123171271Y-160898932D01*
X123001111Y-160969414D01*
X122847972Y-161071738D01*
X122717738Y-161201972D01*
X122615414Y-161355111D01*
X122544932Y-161525271D01*
X122509000Y-161705911D01*
X122509000Y-161890089D01*
X122544932Y-162070729D01*
X122615414Y-162240889D01*
X122717738Y-162394028D01*
X122847972Y-162524262D01*
X123001111Y-162626586D01*
X123171271Y-162697068D01*
X123351911Y-162733000D01*
X123536089Y-162733000D01*
X123716729Y-162697068D01*
X123886889Y-162626586D01*
X123986542Y-162560000D01*
X128740577Y-162560000D01*
X128778000Y-162563686D01*
X128815423Y-162560000D01*
X128815426Y-162560000D01*
X128927378Y-162548974D01*
X129071015Y-162505402D01*
X129203392Y-162434645D01*
X129319422Y-162339422D01*
X129343284Y-162310346D01*
X130684497Y-160969133D01*
X130669000Y-161047042D01*
X130669000Y-161378958D01*
X130733754Y-161704496D01*
X130860772Y-162011147D01*
X131045175Y-162287125D01*
X131279875Y-162521825D01*
X131555853Y-162706228D01*
X131862504Y-162833246D01*
X132188042Y-162898000D01*
X132365483Y-162898000D01*
X132306132Y-162917025D01*
X132177733Y-163185329D01*
X132104145Y-163473526D01*
X132088196Y-163770543D01*
X132130499Y-164064963D01*
X132229428Y-164345474D01*
X132306132Y-164488975D01*
X132557760Y-164569635D01*
X133424395Y-163703000D01*
X133783605Y-163703000D01*
X134650240Y-164569635D01*
X134901868Y-164488975D01*
X135030267Y-164220671D01*
X135103855Y-163932474D01*
X135119804Y-163635457D01*
X135108140Y-163554278D01*
X136594000Y-163554278D01*
X136594000Y-163851722D01*
X136652029Y-164143451D01*
X136765856Y-164418253D01*
X136931107Y-164665569D01*
X137141431Y-164875893D01*
X137388747Y-165041144D01*
X137663549Y-165154971D01*
X137955278Y-165213000D01*
X138252722Y-165213000D01*
X138544451Y-165154971D01*
X138819253Y-165041144D01*
X139066569Y-164875893D01*
X139276893Y-164665569D01*
X139442144Y-164418253D01*
X139555971Y-164143451D01*
X139614000Y-163851722D01*
X139614000Y-163554278D01*
X139555971Y-163262549D01*
X139442144Y-162987747D01*
X139382177Y-162898000D01*
X139529958Y-162898000D01*
X139855496Y-162833246D01*
X140162147Y-162706228D01*
X140438125Y-162521825D01*
X140672825Y-162287125D01*
X140857228Y-162011147D01*
X140984246Y-161704496D01*
X141049000Y-161378958D01*
X141049000Y-161047042D01*
X140984246Y-160721504D01*
X140857228Y-160414853D01*
X140672825Y-160138875D01*
X140438125Y-159904175D01*
X140162147Y-159719772D01*
X139855496Y-159592754D01*
X139529958Y-159528000D01*
X139198042Y-159528000D01*
X138872504Y-159592754D01*
X138565853Y-159719772D01*
X138289875Y-159904175D01*
X138055175Y-160138875D01*
X137870772Y-160414853D01*
X137743754Y-160721504D01*
X137679000Y-161047042D01*
X137679000Y-161378958D01*
X137743754Y-161704496D01*
X137870772Y-162011147D01*
X137992283Y-162193000D01*
X137955278Y-162193000D01*
X137663549Y-162251029D01*
X137388747Y-162364856D01*
X137141431Y-162530107D01*
X136931107Y-162740431D01*
X136765856Y-162987747D01*
X136652029Y-163262549D01*
X136594000Y-163554278D01*
X135108140Y-163554278D01*
X135077501Y-163341037D01*
X134978572Y-163060526D01*
X134901868Y-162917025D01*
X134650240Y-162836365D01*
X133783605Y-163703000D01*
X133424395Y-163703000D01*
X133410253Y-163688858D01*
X133589858Y-163509253D01*
X133604000Y-163523395D01*
X134470635Y-162656760D01*
X134389975Y-162405132D01*
X134121671Y-162276733D01*
X133833474Y-162203145D01*
X133722906Y-162197208D01*
X133847228Y-162011147D01*
X133974246Y-161704496D01*
X134039000Y-161378958D01*
X134039000Y-161047042D01*
X133974246Y-160721504D01*
X133847228Y-160414853D01*
X133662825Y-160138875D01*
X133428125Y-159904175D01*
X133152147Y-159719772D01*
X132845496Y-159592754D01*
X132519958Y-159528000D01*
X132188042Y-159528000D01*
X132110133Y-159543497D01*
X134364130Y-157289500D01*
X140236958Y-157289500D01*
X140336611Y-157356086D01*
X140506771Y-157426568D01*
X140687411Y-157462500D01*
X140871589Y-157462500D01*
X141052229Y-157426568D01*
X141222389Y-157356086D01*
X141375528Y-157253762D01*
X141505762Y-157123528D01*
X141608086Y-156970389D01*
X141678568Y-156800229D01*
X141714500Y-156619589D01*
X141714500Y-156435411D01*
X141678568Y-156254771D01*
X141660023Y-156210000D01*
X145483521Y-156210000D01*
X148367399Y-159093879D01*
X148353992Y-159161280D01*
X148353992Y-159414402D01*
X148403373Y-159662662D01*
X148500239Y-159896517D01*
X148640867Y-160106981D01*
X148819852Y-160285966D01*
X149030316Y-160426594D01*
X149264171Y-160523460D01*
X149512431Y-160572841D01*
X149765553Y-160572841D01*
X150013813Y-160523460D01*
X150247668Y-160426594D01*
X150458132Y-160285966D01*
X150637117Y-160106981D01*
X150777745Y-159896517D01*
X150874611Y-159662662D01*
X150923992Y-159414402D01*
X150923992Y-159161280D01*
X150874611Y-158913020D01*
X150866208Y-158892734D01*
X150893875Y-158934140D01*
X151072860Y-159113125D01*
X151283324Y-159253753D01*
X151517179Y-159350619D01*
X151765439Y-159400000D01*
X152018561Y-159400000D01*
X152266821Y-159350619D01*
X152500676Y-159253753D01*
X152711140Y-159113125D01*
X152890125Y-158934140D01*
X153030753Y-158723676D01*
X153127619Y-158489821D01*
X153177000Y-158241561D01*
X153177000Y-157988439D01*
X153127619Y-157740179D01*
X153119216Y-157719893D01*
X153146883Y-157761299D01*
X153325868Y-157940284D01*
X153536332Y-158080912D01*
X153770187Y-158177778D01*
X154018447Y-158227159D01*
X154271569Y-158227159D01*
X154519829Y-158177778D01*
X154753684Y-158080912D01*
X154964148Y-157940284D01*
X155143133Y-157761299D01*
X155283761Y-157550835D01*
X155380627Y-157316980D01*
X155430008Y-157068720D01*
X155430008Y-156815598D01*
X155380627Y-156567338D01*
X155283761Y-156333483D01*
X155143133Y-156123019D01*
X154964148Y-155944034D01*
X154753684Y-155803406D01*
X154519829Y-155706540D01*
X154271569Y-155657159D01*
X154018447Y-155657159D01*
X153770187Y-155706540D01*
X153536332Y-155803406D01*
X153325868Y-155944034D01*
X153146883Y-156123019D01*
X153006255Y-156333483D01*
X152909389Y-156567338D01*
X152860008Y-156815598D01*
X152860008Y-157068720D01*
X152909389Y-157316980D01*
X152917792Y-157337266D01*
X152890125Y-157295860D01*
X152711140Y-157116875D01*
X152500676Y-156976247D01*
X152266821Y-156879381D01*
X152018561Y-156830000D01*
X151765439Y-156830000D01*
X151517179Y-156879381D01*
X151283324Y-156976247D01*
X151072860Y-157116875D01*
X150893875Y-157295860D01*
X150753247Y-157506324D01*
X150656381Y-157740179D01*
X150607000Y-157988439D01*
X150607000Y-158241561D01*
X150656381Y-158489821D01*
X150664784Y-158510107D01*
X150637117Y-158468701D01*
X150458132Y-158289716D01*
X150247668Y-158149088D01*
X150013813Y-158052222D01*
X149765553Y-158002841D01*
X149512431Y-158002841D01*
X149445030Y-158016248D01*
X146364435Y-154935654D01*
X146340573Y-154906578D01*
X146224543Y-154811355D01*
X146092166Y-154740598D01*
X145948529Y-154697026D01*
X145836577Y-154686000D01*
X145836574Y-154686000D01*
X145799151Y-154682314D01*
X145761728Y-154686000D01*
X130971540Y-154686000D01*
X130871887Y-154619414D01*
X130701727Y-154548932D01*
X130521087Y-154513000D01*
X130336909Y-154513000D01*
X130156269Y-154548932D01*
X129986109Y-154619414D01*
X129921000Y-154662918D01*
X129921000Y-151418911D01*
X132796000Y-151418911D01*
X132796000Y-151603089D01*
X132831932Y-151783729D01*
X132902414Y-151953889D01*
X133004738Y-152107028D01*
X133134972Y-152237262D01*
X133288111Y-152339586D01*
X133433964Y-152400000D01*
X133288111Y-152460414D01*
X133134972Y-152562738D01*
X133004738Y-152692972D01*
X132902414Y-152846111D01*
X132831932Y-153016271D01*
X132796000Y-153196911D01*
X132796000Y-153381089D01*
X132831932Y-153561729D01*
X132902414Y-153731889D01*
X133004738Y-153885028D01*
X133134972Y-154015262D01*
X133288111Y-154117586D01*
X133458271Y-154188068D01*
X133638911Y-154224000D01*
X133823089Y-154224000D01*
X134003729Y-154188068D01*
X134173889Y-154117586D01*
X134273542Y-154051000D01*
X135598577Y-154051000D01*
X135636000Y-154054686D01*
X135673423Y-154051000D01*
X135673426Y-154051000D01*
X135785378Y-154039974D01*
X135929015Y-153996402D01*
X136061392Y-153925645D01*
X136177422Y-153830422D01*
X136201284Y-153801346D01*
X137878352Y-152124278D01*
X157788000Y-152124278D01*
X157788000Y-152421722D01*
X157846029Y-152713451D01*
X157959856Y-152988253D01*
X158125107Y-153235569D01*
X158335431Y-153445893D01*
X158582747Y-153611144D01*
X158857549Y-153724971D01*
X159149278Y-153783000D01*
X159446722Y-153783000D01*
X159738451Y-153724971D01*
X160013253Y-153611144D01*
X160260569Y-153445893D01*
X160470893Y-153235569D01*
X160636144Y-152988253D01*
X160749971Y-152713451D01*
X160808000Y-152421722D01*
X160808000Y-152124278D01*
X162788000Y-152124278D01*
X162788000Y-152421722D01*
X162846029Y-152713451D01*
X162959856Y-152988253D01*
X163125107Y-153235569D01*
X163335431Y-153445893D01*
X163582747Y-153611144D01*
X163857549Y-153724971D01*
X164149278Y-153783000D01*
X164446722Y-153783000D01*
X164738451Y-153724971D01*
X165013253Y-153611144D01*
X165260569Y-153445893D01*
X165470893Y-153235569D01*
X165636144Y-152988253D01*
X165749971Y-152713451D01*
X165808000Y-152421722D01*
X165808000Y-152124278D01*
X165749971Y-151832549D01*
X165636144Y-151557747D01*
X165470893Y-151310431D01*
X165260569Y-151100107D01*
X165013253Y-150934856D01*
X164738451Y-150821029D01*
X164446722Y-150763000D01*
X164149278Y-150763000D01*
X163857549Y-150821029D01*
X163582747Y-150934856D01*
X163335431Y-151100107D01*
X163125107Y-151310431D01*
X162959856Y-151557747D01*
X162846029Y-151832549D01*
X162788000Y-152124278D01*
X160808000Y-152124278D01*
X160749971Y-151832549D01*
X160636144Y-151557747D01*
X160470893Y-151310431D01*
X160260569Y-151100107D01*
X160013253Y-150934856D01*
X159738451Y-150821029D01*
X159446722Y-150763000D01*
X159149278Y-150763000D01*
X158857549Y-150821029D01*
X158582747Y-150934856D01*
X158335431Y-151100107D01*
X158125107Y-151310431D01*
X157959856Y-151557747D01*
X157846029Y-151832549D01*
X157788000Y-152124278D01*
X137878352Y-152124278D01*
X145560625Y-144442006D01*
X145573088Y-144447168D01*
X145888967Y-144510000D01*
X146211033Y-144510000D01*
X146526912Y-144447168D01*
X146824463Y-144323918D01*
X147092252Y-144144987D01*
X147226826Y-144010413D01*
X149594192Y-144010413D01*
X149689956Y-144274814D01*
X149979571Y-144415704D01*
X150291108Y-144497384D01*
X150612595Y-144516718D01*
X150931675Y-144472961D01*
X151236088Y-144367795D01*
X151410044Y-144274814D01*
X151505808Y-144010413D01*
X150550000Y-143054605D01*
X149594192Y-144010413D01*
X147226826Y-144010413D01*
X147319987Y-143917252D01*
X147498918Y-143649463D01*
X147622168Y-143351912D01*
X147685000Y-143036033D01*
X147685000Y-142937595D01*
X148908282Y-142937595D01*
X148952039Y-143256675D01*
X149057205Y-143561088D01*
X149150186Y-143735044D01*
X149414587Y-143830808D01*
X150370395Y-142875000D01*
X150729605Y-142875000D01*
X151685413Y-143830808D01*
X151949814Y-143735044D01*
X152090704Y-143445429D01*
X152172384Y-143133892D01*
X152191718Y-142812405D01*
X152147961Y-142493325D01*
X152042795Y-142188912D01*
X151949814Y-142014956D01*
X151685413Y-141919192D01*
X150729605Y-142875000D01*
X150370395Y-142875000D01*
X149414587Y-141919192D01*
X149150186Y-142014956D01*
X149009296Y-142304571D01*
X148927616Y-142616108D01*
X148908282Y-142937595D01*
X147685000Y-142937595D01*
X147685000Y-142713967D01*
X147622168Y-142398088D01*
X147498918Y-142100537D01*
X147319987Y-141832748D01*
X147226826Y-141739587D01*
X149594192Y-141739587D01*
X150550000Y-142695395D01*
X151505808Y-141739587D01*
X151410044Y-141475186D01*
X151120429Y-141334296D01*
X150808892Y-141252616D01*
X150487405Y-141233282D01*
X150168325Y-141277039D01*
X149863912Y-141382205D01*
X149689956Y-141475186D01*
X149594192Y-141739587D01*
X147226826Y-141739587D01*
X147092252Y-141605013D01*
X146824463Y-141426082D01*
X146526912Y-141302832D01*
X146211033Y-141240000D01*
X145888967Y-141240000D01*
X145573088Y-141302832D01*
X145275537Y-141426082D01*
X145007748Y-141605013D01*
X144780013Y-141832748D01*
X144601082Y-142100537D01*
X144477832Y-142398088D01*
X144415000Y-142713967D01*
X144415000Y-143036033D01*
X144477832Y-143351912D01*
X144482994Y-143364375D01*
X135320370Y-152527000D01*
X134273542Y-152527000D01*
X134173889Y-152460414D01*
X134028036Y-152400000D01*
X134173889Y-152339586D01*
X134327028Y-152237262D01*
X134457262Y-152107028D01*
X134559586Y-151953889D01*
X134630068Y-151783729D01*
X134653450Y-151666180D01*
X145984630Y-140335000D01*
X154140577Y-140335000D01*
X154178000Y-140338686D01*
X154215423Y-140335000D01*
X154215426Y-140335000D01*
X154327378Y-140323974D01*
X154471015Y-140280402D01*
X154603392Y-140209645D01*
X154719422Y-140114422D01*
X154743284Y-140085346D01*
X155339625Y-139489005D01*
X155352088Y-139494168D01*
X155667967Y-139557000D01*
X155990033Y-139557000D01*
X156305912Y-139494168D01*
X156603463Y-139370918D01*
X156871252Y-139191987D01*
X157005826Y-139057413D01*
X159373192Y-139057413D01*
X159468956Y-139321814D01*
X159758571Y-139462704D01*
X160070108Y-139544384D01*
X160391595Y-139563718D01*
X160710675Y-139519961D01*
X161015088Y-139414795D01*
X161189044Y-139321814D01*
X161284808Y-139057413D01*
X160329000Y-138101605D01*
X159373192Y-139057413D01*
X157005826Y-139057413D01*
X157098987Y-138964252D01*
X157277918Y-138696463D01*
X157401168Y-138398912D01*
X157464000Y-138083033D01*
X157464000Y-137984595D01*
X158687282Y-137984595D01*
X158731039Y-138303675D01*
X158836205Y-138608088D01*
X158929186Y-138782044D01*
X159193587Y-138877808D01*
X160149395Y-137922000D01*
X160508605Y-137922000D01*
X161464413Y-138877808D01*
X161728814Y-138782044D01*
X161869704Y-138492429D01*
X161951384Y-138180892D01*
X161970718Y-137859405D01*
X161926961Y-137540325D01*
X161821795Y-137235912D01*
X161728814Y-137061956D01*
X161464413Y-136966192D01*
X160508605Y-137922000D01*
X160149395Y-137922000D01*
X159193587Y-136966192D01*
X158929186Y-137061956D01*
X158788296Y-137351571D01*
X158706616Y-137663108D01*
X158687282Y-137984595D01*
X157464000Y-137984595D01*
X157464000Y-137760967D01*
X157401168Y-137445088D01*
X157277918Y-137147537D01*
X157098987Y-136879748D01*
X157005826Y-136786587D01*
X159373192Y-136786587D01*
X160329000Y-137742395D01*
X161284808Y-136786587D01*
X161189044Y-136522186D01*
X160899429Y-136381296D01*
X160587892Y-136299616D01*
X160266405Y-136280282D01*
X159947325Y-136324039D01*
X159642912Y-136429205D01*
X159468956Y-136522186D01*
X159373192Y-136786587D01*
X157005826Y-136786587D01*
X156871252Y-136652013D01*
X156603463Y-136473082D01*
X156305912Y-136349832D01*
X155990033Y-136287000D01*
X155667967Y-136287000D01*
X155352088Y-136349832D01*
X155054537Y-136473082D01*
X154786748Y-136652013D01*
X154559013Y-136879748D01*
X154380082Y-137147537D01*
X154256832Y-137445088D01*
X154194000Y-137760967D01*
X154194000Y-138083033D01*
X154256832Y-138398912D01*
X154261995Y-138411375D01*
X153862370Y-138811000D01*
X145706423Y-138811000D01*
X145669000Y-138807314D01*
X145631577Y-138811000D01*
X145631574Y-138811000D01*
X145519622Y-138822026D01*
X145375985Y-138865598D01*
X145353142Y-138877808D01*
X145243607Y-138936355D01*
X145228157Y-138949035D01*
X145127578Y-139031578D01*
X145103716Y-139060654D01*
X133575820Y-150588550D01*
X133458271Y-150611932D01*
X133288111Y-150682414D01*
X133134972Y-150784738D01*
X133004738Y-150914972D01*
X132902414Y-151068111D01*
X132831932Y-151238271D01*
X132796000Y-151418911D01*
X129921000Y-151418911D01*
X129921000Y-144817422D01*
X129924686Y-144779999D01*
X129920313Y-144735601D01*
X129909974Y-144630622D01*
X129866402Y-144486985D01*
X129795645Y-144354608D01*
X129700422Y-144238578D01*
X129671353Y-144214722D01*
X121670598Y-136213967D01*
X144415000Y-136213967D01*
X144415000Y-136536033D01*
X144477832Y-136851912D01*
X144601082Y-137149463D01*
X144780013Y-137417252D01*
X145007748Y-137644987D01*
X145275537Y-137823918D01*
X145573088Y-137947168D01*
X145888967Y-138010000D01*
X146211033Y-138010000D01*
X146526912Y-137947168D01*
X146824463Y-137823918D01*
X147092252Y-137644987D01*
X147226826Y-137510413D01*
X149594192Y-137510413D01*
X149689956Y-137774814D01*
X149979571Y-137915704D01*
X150291108Y-137997384D01*
X150612595Y-138016718D01*
X150931675Y-137972961D01*
X151236088Y-137867795D01*
X151410044Y-137774814D01*
X151505808Y-137510413D01*
X150550000Y-136554605D01*
X149594192Y-137510413D01*
X147226826Y-137510413D01*
X147319987Y-137417252D01*
X147498918Y-137149463D01*
X147622168Y-136851912D01*
X147685000Y-136536033D01*
X147685000Y-136437595D01*
X148908282Y-136437595D01*
X148952039Y-136756675D01*
X149057205Y-137061088D01*
X149150186Y-137235044D01*
X149414587Y-137330808D01*
X150370395Y-136375000D01*
X150729605Y-136375000D01*
X151685413Y-137330808D01*
X151949814Y-137235044D01*
X152090704Y-136945429D01*
X152172384Y-136633892D01*
X152191718Y-136312405D01*
X152147961Y-135993325D01*
X152042795Y-135688912D01*
X151949814Y-135514956D01*
X151685413Y-135419192D01*
X150729605Y-136375000D01*
X150370395Y-136375000D01*
X149414587Y-135419192D01*
X149150186Y-135514956D01*
X149009296Y-135804571D01*
X148927616Y-136116108D01*
X148908282Y-136437595D01*
X147685000Y-136437595D01*
X147685000Y-136213967D01*
X147622168Y-135898088D01*
X147498918Y-135600537D01*
X147319987Y-135332748D01*
X147226826Y-135239587D01*
X149594192Y-135239587D01*
X150550000Y-136195395D01*
X151505808Y-135239587D01*
X151410044Y-134975186D01*
X151120429Y-134834296D01*
X150808892Y-134752616D01*
X150487405Y-134733282D01*
X150168325Y-134777039D01*
X149863912Y-134882205D01*
X149689956Y-134975186D01*
X149594192Y-135239587D01*
X147226826Y-135239587D01*
X147092252Y-135105013D01*
X146824463Y-134926082D01*
X146526912Y-134802832D01*
X146211033Y-134740000D01*
X145888967Y-134740000D01*
X145573088Y-134802832D01*
X145275537Y-134926082D01*
X145007748Y-135105013D01*
X144780013Y-135332748D01*
X144601082Y-135600537D01*
X144477832Y-135898088D01*
X144415000Y-136213967D01*
X121670598Y-136213967D01*
X117024284Y-131567654D01*
X117000422Y-131538578D01*
X116884392Y-131443355D01*
X116752015Y-131372598D01*
X116608378Y-131329026D01*
X116496426Y-131318000D01*
X116496423Y-131318000D01*
X116459000Y-131314314D01*
X116421577Y-131318000D01*
X95850221Y-131318000D01*
X95873844Y-131260967D01*
X154194000Y-131260967D01*
X154194000Y-131583033D01*
X154256832Y-131898912D01*
X154380082Y-132196463D01*
X154559013Y-132464252D01*
X154786748Y-132691987D01*
X155054537Y-132870918D01*
X155352088Y-132994168D01*
X155667967Y-133057000D01*
X155990033Y-133057000D01*
X156305912Y-132994168D01*
X156603463Y-132870918D01*
X156871252Y-132691987D01*
X157005826Y-132557413D01*
X159373192Y-132557413D01*
X159468956Y-132821814D01*
X159758571Y-132962704D01*
X160070108Y-133044384D01*
X160391595Y-133063718D01*
X160710675Y-133019961D01*
X161015088Y-132914795D01*
X161189044Y-132821814D01*
X161284808Y-132557413D01*
X160329000Y-131601605D01*
X159373192Y-132557413D01*
X157005826Y-132557413D01*
X157098987Y-132464252D01*
X157277918Y-132196463D01*
X157401168Y-131898912D01*
X157464000Y-131583033D01*
X157464000Y-131484595D01*
X158687282Y-131484595D01*
X158731039Y-131803675D01*
X158836205Y-132108088D01*
X158929186Y-132282044D01*
X159193587Y-132377808D01*
X160149395Y-131422000D01*
X160508605Y-131422000D01*
X161464413Y-132377808D01*
X161728814Y-132282044D01*
X161869704Y-131992429D01*
X161951384Y-131680892D01*
X161970718Y-131359405D01*
X161926961Y-131040325D01*
X161821795Y-130735912D01*
X161728814Y-130561956D01*
X161464413Y-130466192D01*
X160508605Y-131422000D01*
X160149395Y-131422000D01*
X159193587Y-130466192D01*
X158929186Y-130561956D01*
X158788296Y-130851571D01*
X158706616Y-131163108D01*
X158687282Y-131484595D01*
X157464000Y-131484595D01*
X157464000Y-131260967D01*
X157401168Y-130945088D01*
X157277918Y-130647537D01*
X157098987Y-130379748D01*
X157005826Y-130286587D01*
X159373192Y-130286587D01*
X160329000Y-131242395D01*
X161284808Y-130286587D01*
X161189044Y-130022186D01*
X160899429Y-129881296D01*
X160587892Y-129799616D01*
X160266405Y-129780282D01*
X159947325Y-129824039D01*
X159642912Y-129929205D01*
X159468956Y-130022186D01*
X159373192Y-130286587D01*
X157005826Y-130286587D01*
X156871252Y-130152013D01*
X156603463Y-129973082D01*
X156305912Y-129849832D01*
X155990033Y-129787000D01*
X155667967Y-129787000D01*
X155352088Y-129849832D01*
X155054537Y-129973082D01*
X154786748Y-130152013D01*
X154559013Y-130379748D01*
X154380082Y-130647537D01*
X154256832Y-130945088D01*
X154194000Y-131260967D01*
X95873844Y-131260967D01*
X95895068Y-131209729D01*
X95931000Y-131029089D01*
X95931000Y-130844911D01*
X95895068Y-130664271D01*
X95824586Y-130494111D01*
X95722262Y-130340972D01*
X95592028Y-130210738D01*
X95438889Y-130108414D01*
X95268729Y-130037932D01*
X95151181Y-130014550D01*
X94164284Y-129027654D01*
X94140422Y-128998578D01*
X94024392Y-128903355D01*
X93892015Y-128832598D01*
X93748378Y-128789026D01*
X93636426Y-128778000D01*
X93636423Y-128778000D01*
X93599000Y-128774314D01*
X93561577Y-128778000D01*
X85738789Y-128778000D01*
X85770996Y-128616085D01*
X85770996Y-128431907D01*
X85735064Y-128251267D01*
X85664582Y-128081107D01*
X85562258Y-127927968D01*
X85432024Y-127797734D01*
X85278885Y-127695410D01*
X85108725Y-127624928D01*
X84928085Y-127588996D01*
X84743907Y-127588996D01*
X84563267Y-127624928D01*
X84393107Y-127695410D01*
X84293454Y-127761996D01*
X80192024Y-127761996D01*
X80210567Y-127717230D01*
X80246499Y-127536590D01*
X80246499Y-127352412D01*
X80210567Y-127171772D01*
X80140085Y-127001612D01*
X80037761Y-126848473D01*
X79907527Y-126718239D01*
X79754388Y-126615915D01*
X79584228Y-126545433D01*
X79403588Y-126509501D01*
X79219410Y-126509501D01*
X79038770Y-126545433D01*
X78868610Y-126615915D01*
X78768957Y-126682501D01*
X70830412Y-126682501D01*
X70911990Y-126560411D01*
X71023932Y-126290158D01*
X71081000Y-126003260D01*
X71081000Y-125710740D01*
X71023932Y-125423842D01*
X70911990Y-125153589D01*
X70749475Y-124910368D01*
X70542632Y-124703525D01*
X70369271Y-124587689D01*
X70444792Y-124345397D01*
X69596000Y-123496605D01*
X68747208Y-124345397D01*
X68822729Y-124587689D01*
X68649368Y-124703525D01*
X68442525Y-124910368D01*
X68280010Y-125153589D01*
X68168068Y-125423842D01*
X68111559Y-125707929D01*
X66986284Y-124582654D01*
X66962422Y-124553578D01*
X66846392Y-124458355D01*
X66714015Y-124387598D01*
X66570378Y-124344026D01*
X66458426Y-124333000D01*
X66458423Y-124333000D01*
X66421000Y-124329314D01*
X66383577Y-124333000D01*
X60704423Y-124333000D01*
X60667000Y-124329314D01*
X60629577Y-124333000D01*
X60629574Y-124333000D01*
X60517622Y-124344026D01*
X60373985Y-124387598D01*
X60331644Y-124410230D01*
X60241607Y-124458355D01*
X60199219Y-124493143D01*
X60125578Y-124553578D01*
X60101716Y-124582654D01*
X59453375Y-125230995D01*
X59440912Y-125225832D01*
X59125033Y-125163000D01*
X58802967Y-125163000D01*
X58487088Y-125225832D01*
X58189537Y-125349082D01*
X57921748Y-125528013D01*
X57694013Y-125755748D01*
X57515082Y-126023537D01*
X57391832Y-126321088D01*
X57329000Y-126636967D01*
X57329000Y-126959033D01*
X57391832Y-127274912D01*
X57515082Y-127572463D01*
X57641724Y-127761996D01*
X57275427Y-127761996D01*
X57238004Y-127758310D01*
X57200581Y-127761996D01*
X57200578Y-127761996D01*
X57088626Y-127773022D01*
X56944989Y-127816594D01*
X56900728Y-127840252D01*
X56812611Y-127887351D01*
X56756485Y-127933413D01*
X56696582Y-127982574D01*
X56672725Y-128011644D01*
X52341375Y-132342994D01*
X52328912Y-132337832D01*
X52013033Y-132275000D01*
X51690967Y-132275000D01*
X51375088Y-132337832D01*
X51077537Y-132461082D01*
X50809748Y-132640013D01*
X50582013Y-132867748D01*
X50403082Y-133135537D01*
X50279832Y-133433088D01*
X50217000Y-133748967D01*
X49217835Y-133748967D01*
X49754350Y-124526900D01*
X49870338Y-123596861D01*
X49930173Y-123385531D01*
X68105389Y-123385531D01*
X68147401Y-123675019D01*
X68245081Y-123950747D01*
X68318528Y-124088157D01*
X68567603Y-124165792D01*
X69416395Y-123317000D01*
X69775605Y-123317000D01*
X70624397Y-124165792D01*
X70873472Y-124088157D01*
X70999371Y-123824117D01*
X71071339Y-123540589D01*
X71086611Y-123248469D01*
X71044599Y-122958981D01*
X70946919Y-122683253D01*
X70873472Y-122545843D01*
X70624397Y-122468208D01*
X69775605Y-123317000D01*
X69416395Y-123317000D01*
X68567603Y-122468208D01*
X68318528Y-122545843D01*
X68192629Y-122809883D01*
X68120661Y-123093411D01*
X68105389Y-123385531D01*
X49930173Y-123385531D01*
X50117045Y-122725527D01*
X50492712Y-121901539D01*
X50555646Y-121805397D01*
X68747208Y-121805397D01*
X68822514Y-122047000D01*
X68747208Y-122288603D01*
X69596000Y-123137395D01*
X70444792Y-122288603D01*
X70369486Y-122047000D01*
X70444792Y-121805397D01*
X69596000Y-120956605D01*
X68747208Y-121805397D01*
X50555646Y-121805397D01*
X50988694Y-121143854D01*
X51593573Y-120469915D01*
X52293435Y-119895222D01*
X53094123Y-119419975D01*
X53143879Y-119395755D01*
X58934261Y-116664240D01*
X58896163Y-116756217D01*
X58768001Y-117400531D01*
X58768001Y-118057469D01*
X58896163Y-118701783D01*
X59147562Y-119308715D01*
X59512537Y-119854938D01*
X59977062Y-120319463D01*
X60523285Y-120684438D01*
X61130217Y-120935837D01*
X61774531Y-121063999D01*
X62431469Y-121063999D01*
X63075783Y-120935837D01*
X63293801Y-120845531D01*
X68105389Y-120845531D01*
X68147401Y-121135019D01*
X68245081Y-121410747D01*
X68318528Y-121548157D01*
X68567603Y-121625792D01*
X69416395Y-120777000D01*
X69775605Y-120777000D01*
X70624397Y-121625792D01*
X70873472Y-121548157D01*
X70999371Y-121284117D01*
X71071339Y-121000589D01*
X71086611Y-120708469D01*
X71044599Y-120418981D01*
X70946919Y-120143253D01*
X70873472Y-120005843D01*
X70624397Y-119928208D01*
X69775605Y-120777000D01*
X69416395Y-120777000D01*
X68567603Y-119928208D01*
X68318528Y-120005843D01*
X68192629Y-120269883D01*
X68120661Y-120553411D01*
X68105389Y-120845531D01*
X63293801Y-120845531D01*
X63682715Y-120684438D01*
X64228938Y-120319463D01*
X64693463Y-119854938D01*
X65058438Y-119308715D01*
X65309837Y-118701783D01*
X65431380Y-118090740D01*
X68111000Y-118090740D01*
X68111000Y-118383260D01*
X68168068Y-118670158D01*
X68280010Y-118940411D01*
X68442525Y-119183632D01*
X68649368Y-119390475D01*
X68822729Y-119506311D01*
X68747208Y-119748603D01*
X69596000Y-120597395D01*
X70444792Y-119748603D01*
X70369271Y-119506311D01*
X70542632Y-119390475D01*
X70749475Y-119183632D01*
X70911990Y-118940411D01*
X71023932Y-118670158D01*
X71081000Y-118383260D01*
X71081000Y-118090740D01*
X71023932Y-117803842D01*
X70911990Y-117533589D01*
X70749475Y-117290368D01*
X70542632Y-117083525D01*
X70299411Y-116921010D01*
X70029158Y-116809068D01*
X69742260Y-116752000D01*
X69449740Y-116752000D01*
X69162842Y-116809068D01*
X68892589Y-116921010D01*
X68649368Y-117083525D01*
X68442525Y-117290368D01*
X68280010Y-117533589D01*
X68168068Y-117803842D01*
X68111000Y-118090740D01*
X65431380Y-118090740D01*
X65437999Y-118057469D01*
X65437999Y-117400531D01*
X65309837Y-116756217D01*
X65126144Y-116312740D01*
X80303000Y-116312740D01*
X80303000Y-116605260D01*
X80360068Y-116892158D01*
X80472010Y-117162411D01*
X80634525Y-117405632D01*
X80841368Y-117612475D01*
X81084589Y-117774990D01*
X81354842Y-117886932D01*
X81641740Y-117944000D01*
X81934260Y-117944000D01*
X82221158Y-117886932D01*
X82491411Y-117774990D01*
X82734632Y-117612475D01*
X82941475Y-117405632D01*
X83103990Y-117162411D01*
X83215932Y-116892158D01*
X83273000Y-116605260D01*
X83273000Y-116312740D01*
X83215932Y-116025842D01*
X83103990Y-115755589D01*
X82941475Y-115512368D01*
X82734632Y-115305525D01*
X82491411Y-115143010D01*
X82221158Y-115031068D01*
X81934260Y-114974000D01*
X81641740Y-114974000D01*
X81354842Y-115031068D01*
X81084589Y-115143010D01*
X80841368Y-115305525D01*
X80634525Y-115512368D01*
X80472010Y-115755589D01*
X80360068Y-116025842D01*
X80303000Y-116312740D01*
X65126144Y-116312740D01*
X65058438Y-116149285D01*
X64693463Y-115603062D01*
X64228938Y-115138537D01*
X63682715Y-114773562D01*
X63288418Y-114610239D01*
X66814439Y-112946898D01*
X67683405Y-112664944D01*
X68587974Y-112517192D01*
X69103808Y-112495000D01*
X72988895Y-112495000D01*
X73025000Y-112498556D01*
X73061105Y-112495000D01*
X73110491Y-112490136D01*
X73169085Y-112484365D01*
X73307633Y-112442337D01*
X73413760Y-112385611D01*
X73538312Y-112360836D01*
X73700099Y-112293821D01*
X73723500Y-112278185D01*
X73746901Y-112293821D01*
X73908688Y-112360836D01*
X74080441Y-112395000D01*
X74255559Y-112395000D01*
X74427312Y-112360836D01*
X74589099Y-112293821D01*
X74612500Y-112278185D01*
X74635901Y-112293821D01*
X74797688Y-112360836D01*
X74922240Y-112385611D01*
X75028367Y-112442337D01*
X75166915Y-112484365D01*
X75274895Y-112495000D01*
X75311000Y-112498556D01*
X75347105Y-112495000D01*
X86324054Y-112495000D01*
X86463231Y-112508646D01*
X86562528Y-112538626D01*
X86654114Y-112587323D01*
X86734497Y-112652882D01*
X86800613Y-112732803D01*
X86862228Y-112846756D01*
X89983885Y-120639803D01*
X89995664Y-120678633D01*
X90027718Y-120738602D01*
X90059153Y-120799106D01*
X90061871Y-120802499D01*
X90063914Y-120806320D01*
X90107045Y-120858875D01*
X90149686Y-120912091D01*
X90153013Y-120914887D01*
X90155763Y-120918238D01*
X90208327Y-120961376D01*
X90260522Y-121005244D01*
X90264331Y-121007337D01*
X90267681Y-121010087D01*
X90327680Y-121042157D01*
X90387402Y-121074983D01*
X90391542Y-121076292D01*
X90395368Y-121078337D01*
X90460512Y-121098098D01*
X90525448Y-121118629D01*
X90529762Y-121119105D01*
X90533916Y-121120365D01*
X90601703Y-121127041D01*
X90669358Y-121134505D01*
X90709790Y-121131000D01*
X102418572Y-121130999D01*
X102418572Y-124186500D01*
X113481429Y-124186500D01*
X113481429Y-121130999D01*
X125190198Y-121130998D01*
X125230641Y-121134504D01*
X125298364Y-121127033D01*
X125366085Y-121120363D01*
X125370235Y-121119104D01*
X125374551Y-121118628D01*
X125439493Y-121098095D01*
X125504633Y-121078335D01*
X125508460Y-121076289D01*
X125512598Y-121074981D01*
X125572268Y-121042183D01*
X125632320Y-121010085D01*
X125635674Y-121007332D01*
X125639477Y-121005242D01*
X125691613Y-120961424D01*
X125744238Y-120918236D01*
X125746990Y-120914883D01*
X125750313Y-120912090D01*
X125792889Y-120858954D01*
X125836087Y-120806318D01*
X125838134Y-120802489D01*
X125840846Y-120799104D01*
X125872223Y-120738712D01*
X125904337Y-120678631D01*
X125916121Y-120639784D01*
X128512261Y-114158665D01*
X132931000Y-114158665D01*
X132931000Y-114441335D01*
X132986147Y-114718574D01*
X133094320Y-114979727D01*
X133251363Y-115214759D01*
X133451241Y-115414637D01*
X133686273Y-115571680D01*
X133947426Y-115679853D01*
X134224665Y-115735000D01*
X134507335Y-115735000D01*
X134784574Y-115679853D01*
X135045727Y-115571680D01*
X135280759Y-115414637D01*
X135480637Y-115214759D01*
X135637680Y-114979727D01*
X135745853Y-114718574D01*
X135801000Y-114441335D01*
X135801000Y-114158665D01*
X140551000Y-114158665D01*
X140551000Y-114441335D01*
X140606147Y-114718574D01*
X140714320Y-114979727D01*
X140871363Y-115214759D01*
X141071241Y-115414637D01*
X141306273Y-115571680D01*
X141567426Y-115679853D01*
X141844665Y-115735000D01*
X142127335Y-115735000D01*
X142404574Y-115679853D01*
X142665727Y-115571680D01*
X142900759Y-115414637D01*
X143100637Y-115214759D01*
X143257680Y-114979727D01*
X143365853Y-114718574D01*
X143421000Y-114441335D01*
X143421000Y-114158665D01*
X143365853Y-113881426D01*
X143257680Y-113620273D01*
X143100637Y-113385241D01*
X142900759Y-113185363D01*
X142665727Y-113028320D01*
X142404574Y-112920147D01*
X142127335Y-112865000D01*
X141844665Y-112865000D01*
X141567426Y-112920147D01*
X141306273Y-113028320D01*
X141071241Y-113185363D01*
X140871363Y-113385241D01*
X140714320Y-113620273D01*
X140606147Y-113881426D01*
X140551000Y-114158665D01*
X135801000Y-114158665D01*
X135745853Y-113881426D01*
X135637680Y-113620273D01*
X135480637Y-113385241D01*
X135280759Y-113185363D01*
X135045727Y-113028320D01*
X134784574Y-112920147D01*
X134507335Y-112865000D01*
X134224665Y-112865000D01*
X133947426Y-112920147D01*
X133686273Y-113028320D01*
X133451241Y-113185363D01*
X133251363Y-113385241D01*
X133094320Y-113620273D01*
X132986147Y-113881426D01*
X132931000Y-114158665D01*
X128512261Y-114158665D01*
X129019885Y-112891410D01*
X129085394Y-112754682D01*
X129147530Y-112671623D01*
X129224611Y-112602219D01*
X129313711Y-112549105D01*
X129411424Y-112514311D01*
X129540853Y-112495199D01*
X129548994Y-112495000D01*
X140552895Y-112495000D01*
X140589000Y-112498556D01*
X140625105Y-112495000D01*
X140674491Y-112490136D01*
X140733085Y-112484365D01*
X140871633Y-112442337D01*
X140977760Y-112385611D01*
X141102312Y-112360836D01*
X141264099Y-112293821D01*
X141287500Y-112278185D01*
X141310901Y-112293821D01*
X141472688Y-112360836D01*
X141644441Y-112395000D01*
X141819559Y-112395000D01*
X141991312Y-112360836D01*
X142153099Y-112293821D01*
X142176500Y-112278185D01*
X142199901Y-112293821D01*
G37*
G04 #@! TD.AperFunction*
D24*
X77683597Y-146551228D02*
X77713932Y-146703729D01*
X77784414Y-146873889D01*
X77886738Y-147027028D01*
X78016972Y-147157262D01*
X78170111Y-147259586D01*
X78340271Y-147330068D01*
X78520911Y-147366000D01*
X78705089Y-147366000D01*
X78885729Y-147330068D01*
X79055889Y-147259586D01*
X79209028Y-147157262D01*
X79339262Y-147027028D01*
X79441586Y-146873889D01*
X79512068Y-146703729D01*
X79548000Y-146523089D01*
X79548000Y-146338911D01*
X79512068Y-146158271D01*
X79486207Y-146095837D01*
X90239716Y-156849346D01*
X90263578Y-156878422D01*
X90330116Y-156933028D01*
X90379607Y-156973645D01*
X90450364Y-157011465D01*
X90511985Y-157044402D01*
X90655622Y-157087974D01*
X90767574Y-157099000D01*
X90767577Y-157099000D01*
X90805000Y-157102686D01*
X90842423Y-157099000D01*
X100443215Y-157099000D01*
X100411008Y-157260911D01*
X100411008Y-157275362D01*
X99445309Y-158241061D01*
X99208722Y-158194000D01*
X98911278Y-158194000D01*
X98619549Y-158252029D01*
X98344747Y-158365856D01*
X98097431Y-158531107D01*
X97887107Y-158741431D01*
X97790000Y-158886762D01*
X97692893Y-158741431D01*
X97482569Y-158531107D01*
X97235253Y-158365856D01*
X96960451Y-158252029D01*
X96668722Y-158194000D01*
X96371278Y-158194000D01*
X96079549Y-158252029D01*
X95804747Y-158365856D01*
X95557431Y-158531107D01*
X95347107Y-158741431D01*
X95250000Y-158886762D01*
X95152893Y-158741431D01*
X94942569Y-158531107D01*
X94695253Y-158365856D01*
X94420451Y-158252029D01*
X94128722Y-158194000D01*
X93831278Y-158194000D01*
X93539549Y-158252029D01*
X93264747Y-158365856D01*
X93017431Y-158531107D01*
X92807107Y-158741431D01*
X92710000Y-158886762D01*
X92612893Y-158741431D01*
X92402569Y-158531107D01*
X92155253Y-158365856D01*
X91880451Y-158252029D01*
X91588722Y-158194000D01*
X91291278Y-158194000D01*
X90999549Y-158252029D01*
X90724747Y-158365856D01*
X90477431Y-158531107D01*
X90267107Y-158741431D01*
X90101856Y-158988747D01*
X89988029Y-159263549D01*
X89930000Y-159555278D01*
X89930000Y-159852722D01*
X89988029Y-160144451D01*
X90101856Y-160419253D01*
X90267107Y-160666569D01*
X90477431Y-160876893D01*
X90724747Y-161042144D01*
X90999549Y-161155971D01*
X91034886Y-161163000D01*
X86802631Y-161163000D01*
X74446474Y-148806844D01*
X74518531Y-148810611D01*
X74808019Y-148768599D01*
X75083747Y-148670919D01*
X75221157Y-148597472D01*
X75298792Y-148348397D01*
X74450000Y-147499605D01*
X74435858Y-147513748D01*
X74256253Y-147334143D01*
X74270395Y-147320000D01*
X74629605Y-147320000D01*
X75478397Y-148168792D01*
X75727472Y-148091157D01*
X75853371Y-147827117D01*
X75925339Y-147543589D01*
X75940611Y-147251469D01*
X75898599Y-146961981D01*
X75800919Y-146686253D01*
X75727472Y-146548843D01*
X75478397Y-146471208D01*
X74629605Y-147320000D01*
X74270395Y-147320000D01*
X74256253Y-147305858D01*
X74435858Y-147126253D01*
X74450000Y-147140395D01*
X75298792Y-146291603D01*
X75223271Y-146049311D01*
X75396632Y-145933475D01*
X75603475Y-145726632D01*
X75765990Y-145483411D01*
X75877932Y-145213158D01*
X75935000Y-144926260D01*
X75935000Y-144802630D01*
X77683597Y-146551228D01*
G04 #@! TA.AperFunction,Conductor*
D25*
G36*
X77683597Y-146551228D02*
G01*
X77713932Y-146703729D01*
X77784414Y-146873889D01*
X77886738Y-147027028D01*
X78016972Y-147157262D01*
X78170111Y-147259586D01*
X78340271Y-147330068D01*
X78520911Y-147366000D01*
X78705089Y-147366000D01*
X78885729Y-147330068D01*
X79055889Y-147259586D01*
X79209028Y-147157262D01*
X79339262Y-147027028D01*
X79441586Y-146873889D01*
X79512068Y-146703729D01*
X79548000Y-146523089D01*
X79548000Y-146338911D01*
X79512068Y-146158271D01*
X79486207Y-146095837D01*
X90239716Y-156849346D01*
X90263578Y-156878422D01*
X90330116Y-156933028D01*
X90379607Y-156973645D01*
X90450364Y-157011465D01*
X90511985Y-157044402D01*
X90655622Y-157087974D01*
X90767574Y-157099000D01*
X90767577Y-157099000D01*
X90805000Y-157102686D01*
X90842423Y-157099000D01*
X100443215Y-157099000D01*
X100411008Y-157260911D01*
X100411008Y-157275362D01*
X99445309Y-158241061D01*
X99208722Y-158194000D01*
X98911278Y-158194000D01*
X98619549Y-158252029D01*
X98344747Y-158365856D01*
X98097431Y-158531107D01*
X97887107Y-158741431D01*
X97790000Y-158886762D01*
X97692893Y-158741431D01*
X97482569Y-158531107D01*
X97235253Y-158365856D01*
X96960451Y-158252029D01*
X96668722Y-158194000D01*
X96371278Y-158194000D01*
X96079549Y-158252029D01*
X95804747Y-158365856D01*
X95557431Y-158531107D01*
X95347107Y-158741431D01*
X95250000Y-158886762D01*
X95152893Y-158741431D01*
X94942569Y-158531107D01*
X94695253Y-158365856D01*
X94420451Y-158252029D01*
X94128722Y-158194000D01*
X93831278Y-158194000D01*
X93539549Y-158252029D01*
X93264747Y-158365856D01*
X93017431Y-158531107D01*
X92807107Y-158741431D01*
X92710000Y-158886762D01*
X92612893Y-158741431D01*
X92402569Y-158531107D01*
X92155253Y-158365856D01*
X91880451Y-158252029D01*
X91588722Y-158194000D01*
X91291278Y-158194000D01*
X90999549Y-158252029D01*
X90724747Y-158365856D01*
X90477431Y-158531107D01*
X90267107Y-158741431D01*
X90101856Y-158988747D01*
X89988029Y-159263549D01*
X89930000Y-159555278D01*
X89930000Y-159852722D01*
X89988029Y-160144451D01*
X90101856Y-160419253D01*
X90267107Y-160666569D01*
X90477431Y-160876893D01*
X90724747Y-161042144D01*
X90999549Y-161155971D01*
X91034886Y-161163000D01*
X86802631Y-161163000D01*
X74446474Y-148806844D01*
X74518531Y-148810611D01*
X74808019Y-148768599D01*
X75083747Y-148670919D01*
X75221157Y-148597472D01*
X75298792Y-148348397D01*
X74450000Y-147499605D01*
X74435858Y-147513748D01*
X74256253Y-147334143D01*
X74270395Y-147320000D01*
X74629605Y-147320000D01*
X75478397Y-148168792D01*
X75727472Y-148091157D01*
X75853371Y-147827117D01*
X75925339Y-147543589D01*
X75940611Y-147251469D01*
X75898599Y-146961981D01*
X75800919Y-146686253D01*
X75727472Y-146548843D01*
X75478397Y-146471208D01*
X74629605Y-147320000D01*
X74270395Y-147320000D01*
X74256253Y-147305858D01*
X74435858Y-147126253D01*
X74450000Y-147140395D01*
X75298792Y-146291603D01*
X75223271Y-146049311D01*
X75396632Y-145933475D01*
X75603475Y-145726632D01*
X75765990Y-145483411D01*
X75877932Y-145213158D01*
X75935000Y-144926260D01*
X75935000Y-144802630D01*
X77683597Y-146551228D01*
G37*
G04 #@! TD.AperFunction*
D24*
X128462370Y-161036000D02*
X125184448Y-161036000D01*
X125422569Y-160876893D01*
X125632893Y-160666569D01*
X125766909Y-160466000D01*
X125881577Y-160466000D01*
X125919000Y-160469686D01*
X125956423Y-160466000D01*
X125956426Y-160466000D01*
X126068378Y-160454974D01*
X126212015Y-160411402D01*
X126344392Y-160340645D01*
X126460422Y-160245422D01*
X126484284Y-160216346D01*
X129671352Y-157029279D01*
X129700422Y-157005422D01*
X129759834Y-156933028D01*
X129795645Y-156889393D01*
X129843101Y-156800608D01*
X129866402Y-156757015D01*
X129909974Y-156613378D01*
X129921000Y-156501426D01*
X129921000Y-156501423D01*
X129924686Y-156464000D01*
X129921000Y-156426577D01*
X129921000Y-156233082D01*
X129986109Y-156276586D01*
X130156269Y-156347068D01*
X130336909Y-156383000D01*
X130521087Y-156383000D01*
X130701727Y-156347068D01*
X130871887Y-156276586D01*
X130971540Y-156210000D01*
X133288370Y-156210000D01*
X128462370Y-161036000D01*
G04 #@! TA.AperFunction,Conductor*
D25*
G36*
X128462370Y-161036000D02*
G01*
X125184448Y-161036000D01*
X125422569Y-160876893D01*
X125632893Y-160666569D01*
X125766909Y-160466000D01*
X125881577Y-160466000D01*
X125919000Y-160469686D01*
X125956423Y-160466000D01*
X125956426Y-160466000D01*
X126068378Y-160454974D01*
X126212015Y-160411402D01*
X126344392Y-160340645D01*
X126460422Y-160245422D01*
X126484284Y-160216346D01*
X129671352Y-157029279D01*
X129700422Y-157005422D01*
X129759834Y-156933028D01*
X129795645Y-156889393D01*
X129843101Y-156800608D01*
X129866402Y-156757015D01*
X129909974Y-156613378D01*
X129921000Y-156501426D01*
X129921000Y-156501423D01*
X129924686Y-156464000D01*
X129921000Y-156426577D01*
X129921000Y-156233082D01*
X129986109Y-156276586D01*
X130156269Y-156347068D01*
X130336909Y-156383000D01*
X130521087Y-156383000D01*
X130701727Y-156347068D01*
X130871887Y-156276586D01*
X130971540Y-156210000D01*
X133288370Y-156210000D01*
X128462370Y-161036000D01*
G37*
G04 #@! TD.AperFunction*
D24*
X119573748Y-159689858D02*
X119559605Y-159704000D01*
X119573748Y-159718143D01*
X119394143Y-159897748D01*
X119380000Y-159883605D01*
X119365858Y-159897748D01*
X119186253Y-159718143D01*
X119200395Y-159704000D01*
X119186253Y-159689858D01*
X119365858Y-159510253D01*
X119380000Y-159524395D01*
X119394143Y-159510253D01*
X119573748Y-159689858D01*
G04 #@! TA.AperFunction,Conductor*
D25*
G36*
X119573748Y-159689858D02*
G01*
X119559605Y-159704000D01*
X119573748Y-159718143D01*
X119394143Y-159897748D01*
X119380000Y-159883605D01*
X119365858Y-159897748D01*
X119186253Y-159718143D01*
X119200395Y-159704000D01*
X119186253Y-159689858D01*
X119365858Y-159510253D01*
X119380000Y-159524395D01*
X119394143Y-159510253D01*
X119573748Y-159689858D01*
G37*
G04 #@! TD.AperFunction*
D24*
X78551111Y-140528594D02*
X78721271Y-140599076D01*
X78901911Y-140635008D01*
X78913378Y-140635008D01*
X91392369Y-153114000D01*
X91291278Y-153114000D01*
X90999549Y-153172029D01*
X90724747Y-153285856D01*
X90477431Y-153451107D01*
X90267107Y-153661431D01*
X90101856Y-153908747D01*
X89988029Y-154183549D01*
X89945083Y-154399453D01*
X78486000Y-142940370D01*
X78486000Y-140485088D01*
X78551111Y-140528594D01*
G04 #@! TA.AperFunction,Conductor*
D25*
G36*
X78551111Y-140528594D02*
G01*
X78721271Y-140599076D01*
X78901911Y-140635008D01*
X78913378Y-140635008D01*
X91392369Y-153114000D01*
X91291278Y-153114000D01*
X90999549Y-153172029D01*
X90724747Y-153285856D01*
X90477431Y-153451107D01*
X90267107Y-153661431D01*
X90101856Y-153908747D01*
X89988029Y-154183549D01*
X89945083Y-154399453D01*
X78486000Y-142940370D01*
X78486000Y-140485088D01*
X78551111Y-140528594D01*
G37*
G04 #@! TD.AperFunction*
D24*
X128397000Y-145095631D02*
X128397001Y-152434779D01*
X128288729Y-152389932D01*
X128108089Y-152354000D01*
X128016000Y-152354000D01*
X128016000Y-152053548D01*
X128082586Y-151953895D01*
X128153068Y-151783735D01*
X128189000Y-151603095D01*
X128189000Y-151418917D01*
X128153068Y-151238277D01*
X128082586Y-151068117D01*
X127980262Y-150914978D01*
X127850028Y-150784744D01*
X127696889Y-150682420D01*
X127526729Y-150611938D01*
X127346089Y-150576006D01*
X127161911Y-150576006D01*
X126981271Y-150611938D01*
X126811111Y-150682420D01*
X126657972Y-150784744D01*
X126527738Y-150914978D01*
X126425414Y-151068117D01*
X126354932Y-151238277D01*
X126319000Y-151418917D01*
X126319000Y-151603095D01*
X126354932Y-151783735D01*
X126425414Y-151953895D01*
X126492000Y-152053549D01*
X126492001Y-153735368D01*
X125933846Y-154293523D01*
X125911971Y-154183549D01*
X125798144Y-153908747D01*
X125632893Y-153661431D01*
X125422569Y-153451107D01*
X125175253Y-153285856D01*
X124900451Y-153172029D01*
X124608722Y-153114000D01*
X124311278Y-153114000D01*
X124019549Y-153172029D01*
X123744747Y-153285856D01*
X123497431Y-153451107D01*
X123287107Y-153661431D01*
X123190000Y-153806762D01*
X123092893Y-153661431D01*
X122882569Y-153451107D01*
X122635253Y-153285856D01*
X122360451Y-153172029D01*
X122068722Y-153114000D01*
X121771278Y-153114000D01*
X121479549Y-153172029D01*
X121204747Y-153285856D01*
X120957431Y-153451107D01*
X120747107Y-153661431D01*
X120650000Y-153806762D01*
X120552893Y-153661431D01*
X120342569Y-153451107D01*
X120095253Y-153285856D01*
X119820451Y-153172029D01*
X119528722Y-153114000D01*
X119231278Y-153114000D01*
X118939549Y-153172029D01*
X118664747Y-153285856D01*
X118417431Y-153451107D01*
X118207107Y-153661431D01*
X118110000Y-153806762D01*
X118012893Y-153661431D01*
X117802569Y-153451107D01*
X117555253Y-153285856D01*
X117280451Y-153172029D01*
X116988722Y-153114000D01*
X116691278Y-153114000D01*
X116399549Y-153172029D01*
X116124747Y-153285856D01*
X115877431Y-153451107D01*
X115667107Y-153661431D01*
X115570000Y-153806762D01*
X115472893Y-153661431D01*
X115262569Y-153451107D01*
X115015253Y-153285856D01*
X114740451Y-153172029D01*
X114448722Y-153114000D01*
X114151278Y-153114000D01*
X113859549Y-153172029D01*
X113584747Y-153285856D01*
X113337431Y-153451107D01*
X113127107Y-153661431D01*
X113030000Y-153806762D01*
X112932893Y-153661431D01*
X112722569Y-153451107D01*
X112475253Y-153285856D01*
X112200451Y-153172029D01*
X111908722Y-153114000D01*
X111611278Y-153114000D01*
X111319549Y-153172029D01*
X111044747Y-153285856D01*
X110797431Y-153451107D01*
X110587107Y-153661431D01*
X110490000Y-153806762D01*
X110392893Y-153661431D01*
X110182569Y-153451107D01*
X109982000Y-153317091D01*
X109982000Y-145198416D01*
X109985686Y-145160993D01*
X109977021Y-145073015D01*
X109970974Y-145011616D01*
X109927402Y-144867979D01*
X109856645Y-144735602D01*
X109761422Y-144619572D01*
X109732352Y-144595715D01*
X98966456Y-133829820D01*
X98943074Y-133712271D01*
X98872592Y-133542111D01*
X98770268Y-133388972D01*
X98640034Y-133258738D01*
X98486895Y-133156414D01*
X98316735Y-133085932D01*
X98136095Y-133050000D01*
X97951917Y-133050000D01*
X97771277Y-133085932D01*
X97601117Y-133156414D01*
X97447978Y-133258738D01*
X97317744Y-133388972D01*
X97215420Y-133542111D01*
X97144938Y-133712271D01*
X97109006Y-133892911D01*
X97109006Y-134077089D01*
X97144938Y-134257729D01*
X97215420Y-134427889D01*
X97317744Y-134581028D01*
X97447978Y-134711262D01*
X97601117Y-134813586D01*
X97771277Y-134884068D01*
X97888826Y-134907450D01*
X108458001Y-145476626D01*
X108458000Y-153317091D01*
X108257431Y-153451107D01*
X108047107Y-153661431D01*
X107950000Y-153806762D01*
X107852893Y-153661431D01*
X107642569Y-153451107D01*
X107442000Y-153317091D01*
X107442000Y-150405418D01*
X107445686Y-150367995D01*
X107442000Y-150330570D01*
X107430974Y-150218618D01*
X107387402Y-150074981D01*
X107316645Y-149942604D01*
X107221422Y-149826574D01*
X107192352Y-149802717D01*
X94902450Y-137512816D01*
X94879068Y-137395267D01*
X94808586Y-137225107D01*
X94706262Y-137071968D01*
X94576028Y-136941734D01*
X94422889Y-136839410D01*
X94252729Y-136768928D01*
X94072089Y-136732996D01*
X93887911Y-136732996D01*
X93707271Y-136768928D01*
X93537111Y-136839410D01*
X93383972Y-136941734D01*
X93253738Y-137071968D01*
X93151414Y-137225107D01*
X93080932Y-137395267D01*
X93045000Y-137575907D01*
X93045000Y-137760085D01*
X93080932Y-137940725D01*
X93151414Y-138110885D01*
X93253738Y-138264024D01*
X93383972Y-138394258D01*
X93537111Y-138496582D01*
X93707271Y-138567064D01*
X93824820Y-138590446D01*
X105918001Y-150683628D01*
X105918000Y-153317091D01*
X105717431Y-153451107D01*
X105507107Y-153661431D01*
X105410000Y-153806762D01*
X105312893Y-153661431D01*
X105102569Y-153451107D01*
X104902000Y-153317091D01*
X104902000Y-150151423D01*
X104905686Y-150114000D01*
X104901843Y-150074979D01*
X104890974Y-149964622D01*
X104847402Y-149820985D01*
X104814465Y-149759364D01*
X104776645Y-149688607D01*
X104717896Y-149617022D01*
X104681422Y-149572578D01*
X104652346Y-149548716D01*
X94672284Y-139568654D01*
X94648422Y-139539578D01*
X94532392Y-139444355D01*
X94400015Y-139373598D01*
X94256378Y-139330026D01*
X94144426Y-139319000D01*
X94144423Y-139319000D01*
X94107000Y-139315314D01*
X94069577Y-139319000D01*
X90458540Y-139319000D01*
X90358887Y-139252414D01*
X90188727Y-139181932D01*
X90008087Y-139146000D01*
X89823909Y-139146000D01*
X89643269Y-139181932D01*
X89473109Y-139252414D01*
X89319970Y-139354738D01*
X89189736Y-139484972D01*
X89087412Y-139638111D01*
X89016930Y-139808271D01*
X88980998Y-139988911D01*
X88980998Y-140173089D01*
X89016930Y-140353729D01*
X89087412Y-140523889D01*
X89189736Y-140677028D01*
X89319970Y-140807262D01*
X89473109Y-140909586D01*
X89643269Y-140980068D01*
X89823909Y-141016000D01*
X90008087Y-141016000D01*
X90188727Y-140980068D01*
X90358887Y-140909586D01*
X90458540Y-140843000D01*
X93791370Y-140843000D01*
X94139848Y-141191478D01*
X94072089Y-141178000D01*
X93887911Y-141178000D01*
X93707271Y-141213932D01*
X93537111Y-141284414D01*
X93383972Y-141386738D01*
X93253738Y-141516972D01*
X93151414Y-141670111D01*
X93080932Y-141840271D01*
X93045000Y-142020911D01*
X93045000Y-142205089D01*
X93080932Y-142385729D01*
X93151414Y-142555889D01*
X93253738Y-142709028D01*
X93383972Y-142839262D01*
X93537111Y-142941586D01*
X93707271Y-143012068D01*
X93824820Y-143035450D01*
X100838000Y-150048631D01*
X100838001Y-153317091D01*
X100637431Y-153451107D01*
X100427107Y-153661431D01*
X100330000Y-153806762D01*
X100232893Y-153661431D01*
X100022569Y-153451107D01*
X99775253Y-153285856D01*
X99500451Y-153172029D01*
X99208722Y-153114000D01*
X98911278Y-153114000D01*
X98619549Y-153172029D01*
X98344747Y-153285856D01*
X98097431Y-153451107D01*
X97887107Y-153661431D01*
X97790000Y-153806762D01*
X97692893Y-153661431D01*
X97482569Y-153451107D01*
X97235253Y-153285856D01*
X96960451Y-153172029D01*
X96668722Y-153114000D01*
X96371278Y-153114000D01*
X96079549Y-153172029D01*
X95804747Y-153285856D01*
X95557431Y-153451107D01*
X95347107Y-153661431D01*
X95250000Y-153806762D01*
X95152893Y-153661431D01*
X94942569Y-153451107D01*
X94695253Y-153285856D01*
X94420451Y-153172029D01*
X94128722Y-153114000D01*
X93831278Y-153114000D01*
X93594691Y-153161060D01*
X79901053Y-139467423D01*
X79893068Y-139427279D01*
X79822586Y-139257119D01*
X79720262Y-139103980D01*
X79590028Y-138973746D01*
X79436889Y-138871422D01*
X79266729Y-138800940D01*
X79086089Y-138765008D01*
X78901911Y-138765008D01*
X78721271Y-138800940D01*
X78551111Y-138871422D01*
X78486000Y-138914928D01*
X78486000Y-137931422D01*
X78489686Y-137893999D01*
X78486000Y-137856574D01*
X78474974Y-137744622D01*
X78431402Y-137600985D01*
X78360645Y-137468608D01*
X78265422Y-137352578D01*
X78236353Y-137328722D01*
X75891679Y-134984049D01*
X75935000Y-134766260D01*
X75935000Y-134473740D01*
X75877932Y-134186842D01*
X75765990Y-133916589D01*
X75603475Y-133673368D01*
X75396632Y-133466525D01*
X75222240Y-133350000D01*
X75396632Y-133233475D01*
X75603475Y-133026632D01*
X75726842Y-132842000D01*
X116143370Y-132842000D01*
X128397000Y-145095631D01*
G04 #@! TA.AperFunction,Conductor*
D25*
G36*
X128397000Y-145095631D02*
G01*
X128397001Y-152434779D01*
X128288729Y-152389932D01*
X128108089Y-152354000D01*
X128016000Y-152354000D01*
X128016000Y-152053548D01*
X128082586Y-151953895D01*
X128153068Y-151783735D01*
X128189000Y-151603095D01*
X128189000Y-151418917D01*
X128153068Y-151238277D01*
X128082586Y-151068117D01*
X127980262Y-150914978D01*
X127850028Y-150784744D01*
X127696889Y-150682420D01*
X127526729Y-150611938D01*
X127346089Y-150576006D01*
X127161911Y-150576006D01*
X126981271Y-150611938D01*
X126811111Y-150682420D01*
X126657972Y-150784744D01*
X126527738Y-150914978D01*
X126425414Y-151068117D01*
X126354932Y-151238277D01*
X126319000Y-151418917D01*
X126319000Y-151603095D01*
X126354932Y-151783735D01*
X126425414Y-151953895D01*
X126492000Y-152053549D01*
X126492001Y-153735368D01*
X125933846Y-154293523D01*
X125911971Y-154183549D01*
X125798144Y-153908747D01*
X125632893Y-153661431D01*
X125422569Y-153451107D01*
X125175253Y-153285856D01*
X124900451Y-153172029D01*
X124608722Y-153114000D01*
X124311278Y-153114000D01*
X124019549Y-153172029D01*
X123744747Y-153285856D01*
X123497431Y-153451107D01*
X123287107Y-153661431D01*
X123190000Y-153806762D01*
X123092893Y-153661431D01*
X122882569Y-153451107D01*
X122635253Y-153285856D01*
X122360451Y-153172029D01*
X122068722Y-153114000D01*
X121771278Y-153114000D01*
X121479549Y-153172029D01*
X121204747Y-153285856D01*
X120957431Y-153451107D01*
X120747107Y-153661431D01*
X120650000Y-153806762D01*
X120552893Y-153661431D01*
X120342569Y-153451107D01*
X120095253Y-153285856D01*
X119820451Y-153172029D01*
X119528722Y-153114000D01*
X119231278Y-153114000D01*
X118939549Y-153172029D01*
X118664747Y-153285856D01*
X118417431Y-153451107D01*
X118207107Y-153661431D01*
X118110000Y-153806762D01*
X118012893Y-153661431D01*
X117802569Y-153451107D01*
X117555253Y-153285856D01*
X117280451Y-153172029D01*
X116988722Y-153114000D01*
X116691278Y-153114000D01*
X116399549Y-153172029D01*
X116124747Y-153285856D01*
X115877431Y-153451107D01*
X115667107Y-153661431D01*
X115570000Y-153806762D01*
X115472893Y-153661431D01*
X115262569Y-153451107D01*
X115015253Y-153285856D01*
X114740451Y-153172029D01*
X114448722Y-153114000D01*
X114151278Y-153114000D01*
X113859549Y-153172029D01*
X113584747Y-153285856D01*
X113337431Y-153451107D01*
X113127107Y-153661431D01*
X113030000Y-153806762D01*
X112932893Y-153661431D01*
X112722569Y-153451107D01*
X112475253Y-153285856D01*
X112200451Y-153172029D01*
X111908722Y-153114000D01*
X111611278Y-153114000D01*
X111319549Y-153172029D01*
X111044747Y-153285856D01*
X110797431Y-153451107D01*
X110587107Y-153661431D01*
X110490000Y-153806762D01*
X110392893Y-153661431D01*
X110182569Y-153451107D01*
X109982000Y-153317091D01*
X109982000Y-145198416D01*
X109985686Y-145160993D01*
X109977021Y-145073015D01*
X109970974Y-145011616D01*
X109927402Y-144867979D01*
X109856645Y-144735602D01*
X109761422Y-144619572D01*
X109732352Y-144595715D01*
X98966456Y-133829820D01*
X98943074Y-133712271D01*
X98872592Y-133542111D01*
X98770268Y-133388972D01*
X98640034Y-133258738D01*
X98486895Y-133156414D01*
X98316735Y-133085932D01*
X98136095Y-133050000D01*
X97951917Y-133050000D01*
X97771277Y-133085932D01*
X97601117Y-133156414D01*
X97447978Y-133258738D01*
X97317744Y-133388972D01*
X97215420Y-133542111D01*
X97144938Y-133712271D01*
X97109006Y-133892911D01*
X97109006Y-134077089D01*
X97144938Y-134257729D01*
X97215420Y-134427889D01*
X97317744Y-134581028D01*
X97447978Y-134711262D01*
X97601117Y-134813586D01*
X97771277Y-134884068D01*
X97888826Y-134907450D01*
X108458001Y-145476626D01*
X108458000Y-153317091D01*
X108257431Y-153451107D01*
X108047107Y-153661431D01*
X107950000Y-153806762D01*
X107852893Y-153661431D01*
X107642569Y-153451107D01*
X107442000Y-153317091D01*
X107442000Y-150405418D01*
X107445686Y-150367995D01*
X107442000Y-150330570D01*
X107430974Y-150218618D01*
X107387402Y-150074981D01*
X107316645Y-149942604D01*
X107221422Y-149826574D01*
X107192352Y-149802717D01*
X94902450Y-137512816D01*
X94879068Y-137395267D01*
X94808586Y-137225107D01*
X94706262Y-137071968D01*
X94576028Y-136941734D01*
X94422889Y-136839410D01*
X94252729Y-136768928D01*
X94072089Y-136732996D01*
X93887911Y-136732996D01*
X93707271Y-136768928D01*
X93537111Y-136839410D01*
X93383972Y-136941734D01*
X93253738Y-137071968D01*
X93151414Y-137225107D01*
X93080932Y-137395267D01*
X93045000Y-137575907D01*
X93045000Y-137760085D01*
X93080932Y-137940725D01*
X93151414Y-138110885D01*
X93253738Y-138264024D01*
X93383972Y-138394258D01*
X93537111Y-138496582D01*
X93707271Y-138567064D01*
X93824820Y-138590446D01*
X105918001Y-150683628D01*
X105918000Y-153317091D01*
X105717431Y-153451107D01*
X105507107Y-153661431D01*
X105410000Y-153806762D01*
X105312893Y-153661431D01*
X105102569Y-153451107D01*
X104902000Y-153317091D01*
X104902000Y-150151423D01*
X104905686Y-150114000D01*
X104901843Y-150074979D01*
X104890974Y-149964622D01*
X104847402Y-149820985D01*
X104814465Y-149759364D01*
X104776645Y-149688607D01*
X104717896Y-149617022D01*
X104681422Y-149572578D01*
X104652346Y-149548716D01*
X94672284Y-139568654D01*
X94648422Y-139539578D01*
X94532392Y-139444355D01*
X94400015Y-139373598D01*
X94256378Y-139330026D01*
X94144426Y-139319000D01*
X94144423Y-139319000D01*
X94107000Y-139315314D01*
X94069577Y-139319000D01*
X90458540Y-139319000D01*
X90358887Y-139252414D01*
X90188727Y-139181932D01*
X90008087Y-139146000D01*
X89823909Y-139146000D01*
X89643269Y-139181932D01*
X89473109Y-139252414D01*
X89319970Y-139354738D01*
X89189736Y-139484972D01*
X89087412Y-139638111D01*
X89016930Y-139808271D01*
X88980998Y-139988911D01*
X88980998Y-140173089D01*
X89016930Y-140353729D01*
X89087412Y-140523889D01*
X89189736Y-140677028D01*
X89319970Y-140807262D01*
X89473109Y-140909586D01*
X89643269Y-140980068D01*
X89823909Y-141016000D01*
X90008087Y-141016000D01*
X90188727Y-140980068D01*
X90358887Y-140909586D01*
X90458540Y-140843000D01*
X93791370Y-140843000D01*
X94139848Y-141191478D01*
X94072089Y-141178000D01*
X93887911Y-141178000D01*
X93707271Y-141213932D01*
X93537111Y-141284414D01*
X93383972Y-141386738D01*
X93253738Y-141516972D01*
X93151414Y-141670111D01*
X93080932Y-141840271D01*
X93045000Y-142020911D01*
X93045000Y-142205089D01*
X93080932Y-142385729D01*
X93151414Y-142555889D01*
X93253738Y-142709028D01*
X93383972Y-142839262D01*
X93537111Y-142941586D01*
X93707271Y-143012068D01*
X93824820Y-143035450D01*
X100838000Y-150048631D01*
X100838001Y-153317091D01*
X100637431Y-153451107D01*
X100427107Y-153661431D01*
X100330000Y-153806762D01*
X100232893Y-153661431D01*
X100022569Y-153451107D01*
X99775253Y-153285856D01*
X99500451Y-153172029D01*
X99208722Y-153114000D01*
X98911278Y-153114000D01*
X98619549Y-153172029D01*
X98344747Y-153285856D01*
X98097431Y-153451107D01*
X97887107Y-153661431D01*
X97790000Y-153806762D01*
X97692893Y-153661431D01*
X97482569Y-153451107D01*
X97235253Y-153285856D01*
X96960451Y-153172029D01*
X96668722Y-153114000D01*
X96371278Y-153114000D01*
X96079549Y-153172029D01*
X95804747Y-153285856D01*
X95557431Y-153451107D01*
X95347107Y-153661431D01*
X95250000Y-153806762D01*
X95152893Y-153661431D01*
X94942569Y-153451107D01*
X94695253Y-153285856D01*
X94420451Y-153172029D01*
X94128722Y-153114000D01*
X93831278Y-153114000D01*
X93594691Y-153161060D01*
X79901053Y-139467423D01*
X79893068Y-139427279D01*
X79822586Y-139257119D01*
X79720262Y-139103980D01*
X79590028Y-138973746D01*
X79436889Y-138871422D01*
X79266729Y-138800940D01*
X79086089Y-138765008D01*
X78901911Y-138765008D01*
X78721271Y-138800940D01*
X78551111Y-138871422D01*
X78486000Y-138914928D01*
X78486000Y-137931422D01*
X78489686Y-137893999D01*
X78486000Y-137856574D01*
X78474974Y-137744622D01*
X78431402Y-137600985D01*
X78360645Y-137468608D01*
X78265422Y-137352578D01*
X78236353Y-137328722D01*
X75891679Y-134984049D01*
X75935000Y-134766260D01*
X75935000Y-134473740D01*
X75877932Y-134186842D01*
X75765990Y-133916589D01*
X75603475Y-133673368D01*
X75396632Y-133466525D01*
X75222240Y-133350000D01*
X75396632Y-133233475D01*
X75603475Y-133026632D01*
X75726842Y-132842000D01*
X116143370Y-132842000D01*
X128397000Y-145095631D01*
G37*
G04 #@! TD.AperFunction*
D24*
X103378001Y-150429631D02*
X103378000Y-153317091D01*
X103177431Y-153451107D01*
X102967107Y-153661431D01*
X102870000Y-153806762D01*
X102772893Y-153661431D01*
X102562569Y-153451107D01*
X102362000Y-153317091D01*
X102362000Y-149770422D01*
X102365686Y-149732999D01*
X102361314Y-149688607D01*
X102350974Y-149583622D01*
X102307402Y-149439985D01*
X102236645Y-149307608D01*
X102148168Y-149199798D01*
X103378001Y-150429631D01*
G04 #@! TA.AperFunction,Conductor*
D25*
G36*
X103378001Y-150429631D02*
G01*
X103378000Y-153317091D01*
X103177431Y-153451107D01*
X102967107Y-153661431D01*
X102870000Y-153806762D01*
X102772893Y-153661431D01*
X102562569Y-153451107D01*
X102362000Y-153317091D01*
X102362000Y-149770422D01*
X102365686Y-149732999D01*
X102361314Y-149688607D01*
X102350974Y-149583622D01*
X102307402Y-149439985D01*
X102236645Y-149307608D01*
X102148168Y-149199798D01*
X103378001Y-150429631D01*
G37*
G04 #@! TD.AperFunction*
D24*
X76962000Y-138209631D02*
X76962001Y-143218567D01*
X76958314Y-143256000D01*
X76973027Y-143405378D01*
X77016599Y-143549015D01*
X77087355Y-143681392D01*
X77158721Y-143768351D01*
X77182579Y-143797422D01*
X77211649Y-143821279D01*
X78948163Y-145557793D01*
X78885729Y-145531932D01*
X78803133Y-145515503D01*
X75891679Y-142604049D01*
X75935000Y-142386260D01*
X75935000Y-142093740D01*
X75877932Y-141806842D01*
X75765990Y-141536589D01*
X75603475Y-141293368D01*
X75396632Y-141086525D01*
X75222240Y-140970000D01*
X75396632Y-140853475D01*
X75603475Y-140646632D01*
X75765990Y-140403411D01*
X75877932Y-140133158D01*
X75935000Y-139846260D01*
X75935000Y-139553740D01*
X75877932Y-139266842D01*
X75765990Y-138996589D01*
X75603475Y-138753368D01*
X75396632Y-138546525D01*
X75222240Y-138430000D01*
X75396632Y-138313475D01*
X75603475Y-138106632D01*
X75765990Y-137863411D01*
X75877932Y-137593158D01*
X75935000Y-137306260D01*
X75935000Y-137182631D01*
X76962000Y-138209631D01*
G04 #@! TA.AperFunction,Conductor*
D25*
G36*
X76962000Y-138209631D02*
G01*
X76962001Y-143218567D01*
X76958314Y-143256000D01*
X76973027Y-143405378D01*
X77016599Y-143549015D01*
X77087355Y-143681392D01*
X77158721Y-143768351D01*
X77182579Y-143797422D01*
X77211649Y-143821279D01*
X78948163Y-145557793D01*
X78885729Y-145531932D01*
X78803133Y-145515503D01*
X75891679Y-142604049D01*
X75935000Y-142386260D01*
X75935000Y-142093740D01*
X75877932Y-141806842D01*
X75765990Y-141536589D01*
X75603475Y-141293368D01*
X75396632Y-141086525D01*
X75222240Y-140970000D01*
X75396632Y-140853475D01*
X75603475Y-140646632D01*
X75765990Y-140403411D01*
X75877932Y-140133158D01*
X75935000Y-139846260D01*
X75935000Y-139553740D01*
X75877932Y-139266842D01*
X75765990Y-138996589D01*
X75603475Y-138753368D01*
X75396632Y-138546525D01*
X75222240Y-138430000D01*
X75396632Y-138313475D01*
X75603475Y-138106632D01*
X75765990Y-137863411D01*
X75877932Y-137593158D01*
X75935000Y-137306260D01*
X75935000Y-137182631D01*
X76962000Y-138209631D01*
G37*
G04 #@! TD.AperFunction*
D24*
X94073550Y-131092181D02*
X94096932Y-131209729D01*
X94141779Y-131318000D01*
X80933542Y-131318000D01*
X80987028Y-131282262D01*
X81117262Y-131152028D01*
X81219586Y-130998889D01*
X81290068Y-130828729D01*
X81326000Y-130648089D01*
X81326000Y-130463911D01*
X81293793Y-130302000D01*
X93283370Y-130302000D01*
X94073550Y-131092181D01*
G04 #@! TA.AperFunction,Conductor*
D25*
G36*
X94073550Y-131092181D02*
G01*
X94096932Y-131209729D01*
X94141779Y-131318000D01*
X80933542Y-131318000D01*
X80987028Y-131282262D01*
X81117262Y-131152028D01*
X81219586Y-130998889D01*
X81290068Y-130828729D01*
X81326000Y-130648089D01*
X81326000Y-130463911D01*
X81293793Y-130302000D01*
X93283370Y-130302000D01*
X94073550Y-131092181D01*
G37*
G04 #@! TD.AperFunction*
D24*
X68010365Y-127761996D02*
X64607604Y-127761996D01*
X64599415Y-127753807D01*
X64863814Y-127658044D01*
X65004704Y-127368429D01*
X65086384Y-127056892D01*
X65105718Y-126735405D01*
X65061961Y-126416325D01*
X64956795Y-126111912D01*
X64863814Y-125937956D01*
X64640297Y-125857000D01*
X66105370Y-125857000D01*
X68010365Y-127761996D01*
G04 #@! TA.AperFunction,Conductor*
D25*
G36*
X68010365Y-127761996D02*
G01*
X64607604Y-127761996D01*
X64599415Y-127753807D01*
X64863814Y-127658044D01*
X65004704Y-127368429D01*
X65086384Y-127056892D01*
X65105718Y-126735405D01*
X65061961Y-126416325D01*
X64956795Y-126111912D01*
X64863814Y-125937956D01*
X64640297Y-125857000D01*
X66105370Y-125857000D01*
X68010365Y-127761996D01*
G37*
G04 #@! TD.AperFunction*
D24*
X63657748Y-126783858D02*
X63643605Y-126798000D01*
X63657748Y-126812143D01*
X63478143Y-126991748D01*
X63464000Y-126977605D01*
X63449858Y-126991748D01*
X63270253Y-126812143D01*
X63284395Y-126798000D01*
X63270253Y-126783858D01*
X63449858Y-126604253D01*
X63464000Y-126618395D01*
X63478143Y-126604253D01*
X63657748Y-126783858D01*
G04 #@! TA.AperFunction,Conductor*
D25*
G36*
X63657748Y-126783858D02*
G01*
X63643605Y-126798000D01*
X63657748Y-126812143D01*
X63478143Y-126991748D01*
X63464000Y-126977605D01*
X63449858Y-126991748D01*
X63270253Y-126812143D01*
X63284395Y-126798000D01*
X63270253Y-126783858D01*
X63449858Y-126604253D01*
X63464000Y-126618395D01*
X63478143Y-126604253D01*
X63657748Y-126783858D01*
G37*
G04 #@! TD.AperFunction*
M02*
