M48
; DRILL file {KiCad (5.1.9-0-10_14)} date Monday, July 26, 2021 at 08:55:08 PM
; FORMAT={-:-/ absolute / inch / decimal}
; #@! TF.CreationDate,2021-07-26T20:55:08-07:00
; #@! TF.GenerationSoftware,Kicad,Pcbnew,(5.1.9-0-10_14)
; #@! TF.FileFunction,Plated,1,2,PTH
FMAT,2
INCH
T1C0.0118
T2C0.0256
T3C0.0315
T4C0.0320
T5C0.0390
T6C0.0394
T7C0.0433
T8C0.0512
T9C0.1063
%
G90
G05
T1
X2.6Y-5.0
X2.995Y-6.425
X3.01Y-5.56
X3.095Y-5.765
X3.11Y-5.5
X3.1225Y-5.0175
X3.165Y-5.14
X3.34Y-5.06
X3.385Y-5.865
X3.385Y-5.865
X3.4Y-5.58
X3.4Y-6.2
X3.54Y-5.515
X3.595Y-5.155
X3.62Y-5.87
X3.62Y-6.445
X3.65Y-6.21
X3.7Y-5.42
X3.7Y-5.595
X3.74Y-5.155
X3.82Y-5.87
X3.86Y-5.275
X3.99Y-6.195
X4.05Y-5.98
X4.35Y-6.19
X4.45Y-6.225
X4.55Y-6.52
X4.65Y-6.33
X4.845Y-6.155
X4.86Y-6.37
X5.01Y-5.965
X5.04Y-6.035
X5.04Y-6.12
X5.1Y-6.26
X5.135Y-6.12
X5.265Y-5.965
X5.265Y-6.035
X5.5425Y-6.1625
T2
X5.8913Y-6.2712
X5.98Y-6.225
X6.0687Y-6.1788
T3
X5.29Y-4.5
X5.59Y-4.5
T4
X3.082Y-6.445
X3.18Y-6.445
X3.278Y-6.445
T5
X5.26Y-6.445
X5.4372Y-6.445
T6
X2.74Y-4.655
X2.74Y-4.755
X2.74Y-4.855
X2.74Y-4.955
X2.9311Y-5.2
X2.9311Y-5.3
X2.9311Y-5.4
X2.9311Y-5.5
X2.9311Y-5.6
X2.9311Y-5.7
X2.9311Y-5.8
X3.22Y-4.585
X3.8Y-6.435
X3.9Y-6.435
X4.0Y-6.435
X4.1Y-6.435
X4.2Y-6.435
X4.3Y-6.435
X4.4Y-6.435
X4.5Y-6.435
X4.6Y-6.435
X4.7Y-6.435
X6.2716Y-5.995
X6.4684Y-5.995
T7
X2.0414Y-5.272
X2.0414Y-5.528
X2.2186Y-5.272
X2.2186Y-5.528
X2.3214Y-4.992
X2.3214Y-5.248
X2.3214Y-5.552
X2.3214Y-5.808
X2.3339Y-6.0115
X2.3339Y-6.2215
X2.4986Y-4.992
X2.4986Y-5.248
X2.4986Y-5.552
X2.4986Y-5.808
X2.6Y-6.15
X2.6Y-6.36
X2.6014Y-5.272
X2.6014Y-5.528
X2.7786Y-5.272
X2.7786Y-5.528
X3.6Y-6.0876
X3.6Y-6.2876
X3.7Y-6.0876
X3.7Y-6.2876
X3.8Y-6.0876
X3.8Y-6.2876
X3.9Y-6.0876
X3.9Y-6.2876
X4.0Y-6.0876
X4.0Y-6.2876
X4.1Y-6.0876
X4.1Y-6.2876
X4.2Y-6.0876
X4.2Y-6.2876
X4.3Y-6.0876
X4.3Y-6.2876
X4.4Y-6.0876
X4.4Y-6.2876
X4.5Y-6.0876
X4.5Y-6.2876
X4.6Y-6.0876
X4.6Y-6.2876
X4.7Y-6.0876
X4.7Y-6.2876
X4.8Y-6.0876
X4.8Y-6.2876
X4.9Y-6.0876
X4.9Y-6.2876
X5.75Y-5.3691
X5.75Y-5.625
X5.9272Y-5.3691
X5.9272Y-5.625
X6.135Y-5.1741
X6.135Y-5.43
X6.3122Y-5.1741
X6.3122Y-5.43
T8
X5.2108Y-6.347
X5.4868Y-6.347
T9
X2.445Y-4.635
X2.756Y-6.48
X5.744Y-6.48
X6.055Y-4.635
T0
M30
