G04 #@! TF.GenerationSoftware,KiCad,Pcbnew,(5.1.9-0-10_14)*
G04 #@! TF.CreationDate,2021-07-17T22:46:38-07:00*
G04 #@! TF.ProjectId,system_advance,73797374-656d-45f6-9164-76616e63652e,1.0-dev0*
G04 #@! TF.SameCoordinates,Original*
G04 #@! TF.FileFunction,Legend,Bot*
G04 #@! TF.FilePolarity,Positive*
%FSLAX46Y46*%
G04 Gerber Fmt 4.6, Leading zero omitted, Abs format (unit mm)*
G04 Created by KiCad (PCBNEW (5.1.9-0-10_14)) date 2021-07-17 22:46:38*
%MOMM*%
%LPD*%
G01*
G04 APERTURE LIST*
%ADD10C,0.100000*%
%ADD11C,0.200000*%
%ADD12C,0.150000*%
%ADD13C,0.120000*%
%ADD14C,0.127000*%
%ADD15C,3.851600*%
%ADD16C,1.851600*%
%ADD17C,0.609600*%
%ADD18O,1.801600X1.801600*%
%ADD19C,1.801600*%
%ADD20C,1.625600*%
%ADD21C,5.501599*%
%ADD22C,2.101600*%
%ADD23C,1.401600*%
%ADD24C,1.701600*%
%ADD25O,1.701600X1.701600*%
%ADD26C,2.201600*%
G04 APERTURE END LIST*
D10*
G36*
X135890000Y-225298000D02*
G01*
X135128000Y-224536000D01*
X136652000Y-224536000D01*
X135890000Y-225298000D01*
G37*
X135890000Y-225298000D02*
X135128000Y-224536000D01*
X136652000Y-224536000D01*
X135890000Y-225298000D01*
D11*
X130633476Y-119402761D02*
X131526333Y-119402761D01*
X131704904Y-119343238D01*
X131823952Y-119224190D01*
X131883476Y-119045619D01*
X131883476Y-118926571D01*
X131883476Y-120593238D02*
X131883476Y-119998000D01*
X130633476Y-119998000D01*
X131764428Y-121724190D02*
X131823952Y-121664666D01*
X131883476Y-121486095D01*
X131883476Y-121367047D01*
X131823952Y-121188476D01*
X131704904Y-121069428D01*
X131585857Y-121009904D01*
X131347761Y-120950380D01*
X131169190Y-120950380D01*
X130931095Y-121009904D01*
X130812047Y-121069428D01*
X130693000Y-121188476D01*
X130633476Y-121367047D01*
X130633476Y-121486095D01*
X130693000Y-121664666D01*
X130752523Y-121724190D01*
X130633476Y-122617047D02*
X131526333Y-122617047D01*
X131704904Y-122557523D01*
X131823952Y-122438476D01*
X131883476Y-122259904D01*
X131883476Y-122140857D01*
X131883476Y-123807523D02*
X131883476Y-123212285D01*
X130633476Y-123212285D01*
X131764428Y-124938476D02*
X131823952Y-124878952D01*
X131883476Y-124700380D01*
X131883476Y-124581333D01*
X131823952Y-124402761D01*
X131704904Y-124283714D01*
X131585857Y-124224190D01*
X131347761Y-124164666D01*
X131169190Y-124164666D01*
X130931095Y-124224190D01*
X130812047Y-124283714D01*
X130693000Y-124402761D01*
X130633476Y-124581333D01*
X130633476Y-124700380D01*
X130693000Y-124878952D01*
X130752523Y-124938476D01*
X130633476Y-125831333D02*
X131526333Y-125831333D01*
X131704904Y-125771809D01*
X131823952Y-125652761D01*
X131883476Y-125474190D01*
X131883476Y-125355142D01*
X131883476Y-127021809D02*
X131883476Y-126426571D01*
X130633476Y-126426571D01*
X131764428Y-128152761D02*
X131823952Y-128093238D01*
X131883476Y-127914666D01*
X131883476Y-127795619D01*
X131823952Y-127617047D01*
X131704904Y-127498000D01*
X131585857Y-127438476D01*
X131347761Y-127378952D01*
X131169190Y-127378952D01*
X130931095Y-127438476D01*
X130812047Y-127498000D01*
X130693000Y-127617047D01*
X130633476Y-127795619D01*
X130633476Y-127914666D01*
X130693000Y-128093238D01*
X130752523Y-128152761D01*
X130633476Y-129045619D02*
X131526333Y-129045619D01*
X131704904Y-128986095D01*
X131823952Y-128867047D01*
X131883476Y-128688476D01*
X131883476Y-128569428D01*
X131883476Y-130236095D02*
X131883476Y-129640857D01*
X130633476Y-129640857D01*
X131764428Y-131367047D02*
X131823952Y-131307523D01*
X131883476Y-131128952D01*
X131883476Y-131009904D01*
X131823952Y-130831333D01*
X131704904Y-130712285D01*
X131585857Y-130652761D01*
X131347761Y-130593238D01*
X131169190Y-130593238D01*
X130931095Y-130652761D01*
X130812047Y-130712285D01*
X130693000Y-130831333D01*
X130633476Y-131009904D01*
X130633476Y-131128952D01*
X130693000Y-131307523D01*
X130752523Y-131367047D01*
D12*
X137051904Y-223881904D02*
X137318571Y-223500952D01*
X137509047Y-223881904D02*
X137509047Y-223081904D01*
X137204285Y-223081904D01*
X137128095Y-223120000D01*
X137090000Y-223158095D01*
X137051904Y-223234285D01*
X137051904Y-223348571D01*
X137090000Y-223424761D01*
X137128095Y-223462857D01*
X137204285Y-223500952D01*
X137509047Y-223500952D01*
X136709047Y-223462857D02*
X136442380Y-223462857D01*
X136328095Y-223881904D02*
X136709047Y-223881904D01*
X136709047Y-223081904D01*
X136328095Y-223081904D01*
X136023333Y-223843809D02*
X135909047Y-223881904D01*
X135718571Y-223881904D01*
X135642380Y-223843809D01*
X135604285Y-223805714D01*
X135566190Y-223729523D01*
X135566190Y-223653333D01*
X135604285Y-223577142D01*
X135642380Y-223539047D01*
X135718571Y-223500952D01*
X135870952Y-223462857D01*
X135947142Y-223424761D01*
X135985238Y-223386666D01*
X136023333Y-223310476D01*
X136023333Y-223234285D01*
X135985238Y-223158095D01*
X135947142Y-223120000D01*
X135870952Y-223081904D01*
X135680476Y-223081904D01*
X135566190Y-223120000D01*
X135223333Y-223462857D02*
X134956666Y-223462857D01*
X134842380Y-223881904D02*
X135223333Y-223881904D01*
X135223333Y-223081904D01*
X134842380Y-223081904D01*
X134613809Y-223081904D02*
X134156666Y-223081904D01*
X134385238Y-223881904D02*
X134385238Y-223081904D01*
D13*
X129030000Y-154624000D02*
X129030000Y-140624000D01*
X129030000Y-154624000D02*
X86870000Y-154624000D01*
X124460000Y-159704000D02*
X124460000Y-154624000D01*
X121920000Y-159704000D02*
X121920000Y-154624000D01*
X119380000Y-159704000D02*
X119380000Y-154624000D01*
X116840000Y-159704000D02*
X116840000Y-154624000D01*
X114300000Y-159704000D02*
X114300000Y-154624000D01*
X111760000Y-159704000D02*
X111760000Y-154624000D01*
X109220000Y-159704000D02*
X109220000Y-154624000D01*
X106680000Y-159704000D02*
X106680000Y-154624000D01*
X104140000Y-159704000D02*
X104140000Y-154624000D01*
X101600000Y-159704000D02*
X101600000Y-154624000D01*
X99060000Y-159704000D02*
X99060000Y-154624000D01*
X96520000Y-159704000D02*
X96520000Y-154624000D01*
X93980000Y-159704000D02*
X93980000Y-154624000D01*
X91440000Y-159704000D02*
X91440000Y-154624000D01*
X86870000Y-154624000D02*
X86870000Y-140624000D01*
X129030000Y-140624000D02*
X86870000Y-140624000D01*
D12*
X120650000Y-163322000D02*
X120650000Y-167767000D01*
X114300000Y-162052000D02*
X119380000Y-162052000D01*
X120650000Y-163322000D02*
X119380000Y-162052000D01*
X95250000Y-163322000D02*
X96520000Y-162052000D01*
X100330000Y-163322000D02*
X99060000Y-162052000D01*
X100330000Y-163322000D02*
X100330000Y-167767000D01*
D10*
X115570000Y-162052000D02*
X115570000Y-167894000D01*
X110490000Y-162052000D02*
X110490000Y-167894000D01*
X105410000Y-162052000D02*
X105410000Y-167894000D01*
X102870000Y-162052000D02*
X102870000Y-167894000D01*
X97790000Y-162052000D02*
X97790000Y-168148000D01*
D12*
X113030000Y-163322000D02*
X114300000Y-162052000D01*
X113030000Y-163322000D02*
X111760000Y-162052000D01*
X109220000Y-162052000D02*
X111760000Y-162052000D01*
X113030000Y-163322000D02*
X113030000Y-167767000D01*
X107950000Y-163322000D02*
X109220000Y-162052000D01*
X107950000Y-163322000D02*
X107950000Y-167767000D01*
X107950000Y-163322000D02*
X106680000Y-162052000D01*
X100330000Y-163322000D02*
X101600000Y-162052000D01*
X101600000Y-162052000D02*
X106680000Y-162052000D01*
X96520000Y-162052000D02*
X99060000Y-162052000D01*
X95250000Y-163322000D02*
X95250000Y-167767000D01*
D10*
X118110000Y-162052000D02*
X118110000Y-167894000D01*
D13*
X80518000Y-126549000D02*
X80518000Y-117919000D01*
X81428000Y-117919000D02*
X81428000Y-117569000D01*
X82148000Y-117919000D02*
X82148000Y-117569000D01*
X83058000Y-126549000D02*
X83058000Y-117919000D01*
X80518000Y-117919000D02*
X83058000Y-117913000D01*
X80518000Y-126549000D02*
X83058000Y-126549000D01*
X134906000Y-115340000D02*
X134906000Y-115670000D01*
X134906000Y-115670000D02*
X141446000Y-115670000D01*
X141446000Y-115670000D02*
X141446000Y-115340000D01*
X134906000Y-113260000D02*
X134906000Y-112930000D01*
X134906000Y-112930000D02*
X141446000Y-112930000D01*
X141446000Y-112930000D02*
X141446000Y-113260000D01*
X132514000Y-162733000D02*
X132514000Y-162503000D01*
X131994000Y-166403000D02*
X139714000Y-166403000D01*
X139714000Y-166403000D02*
X139714000Y-162503000D01*
X131994000Y-159393000D02*
X132514000Y-159393000D01*
X131994000Y-166403000D02*
X131994000Y-162503000D01*
X139194000Y-162733000D02*
X139194000Y-162503000D01*
X132514000Y-159903000D02*
X132514000Y-159393000D01*
X131994000Y-159903000D02*
X131994000Y-159393000D01*
X138654000Y-162733000D02*
X139194000Y-162733000D01*
X139194000Y-159903000D02*
X139194000Y-159393000D01*
X139194000Y-159393000D02*
X139714000Y-159393000D01*
X139714000Y-159903000D02*
X139714000Y-159393000D01*
X132514000Y-162733000D02*
X133054000Y-162733000D01*
X134154000Y-162733000D02*
X137554000Y-162733000D01*
D12*
X69596000Y-132207000D02*
X83566000Y-132207000D01*
X69596000Y-111887000D02*
X83566000Y-111887000D01*
X86106000Y-129667000D02*
X86106000Y-114427000D01*
X67056000Y-129667000D02*
X67056000Y-114427000D01*
X72771000Y-111887000D02*
X72771000Y-116332000D01*
X72771000Y-116332000D02*
X80391000Y-116332000D01*
X80391000Y-116332000D02*
X80391000Y-111887000D01*
X67056000Y-129667000D02*
G75*
G03*
X69596000Y-132207000I2540000J0D01*
G01*
X69596000Y-111887000D02*
G75*
G03*
X67056000Y-114427000I0J-2540000D01*
G01*
X86106000Y-114427000D02*
G75*
G03*
X83566000Y-111887000I-2540000J0D01*
G01*
X83566000Y-132207000D02*
G75*
G03*
X86106000Y-129667000I0J2540000D01*
G01*
D14*
X117127261Y-165404497D02*
X116824880Y-165192830D01*
X117127261Y-165041640D02*
X116492261Y-165041640D01*
X116492261Y-165283545D01*
X116522500Y-165344021D01*
X116552738Y-165374259D01*
X116613214Y-165404497D01*
X116703928Y-165404497D01*
X116764404Y-165374259D01*
X116794642Y-165344021D01*
X116824880Y-165283545D01*
X116824880Y-165041640D01*
X116945833Y-165646402D02*
X116945833Y-165948783D01*
X117127261Y-165585926D02*
X116492261Y-165797592D01*
X117127261Y-166009259D01*
X116492261Y-166160450D02*
X117127261Y-166311640D01*
X116673690Y-166432592D01*
X117127261Y-166553545D01*
X116492261Y-166704735D01*
X96625833Y-165162592D02*
X96625833Y-165464973D01*
X96807261Y-165102116D02*
X96172261Y-165313783D01*
X96807261Y-165525450D01*
X96807261Y-166069735D02*
X96807261Y-165706878D01*
X96807261Y-165888307D02*
X96172261Y-165888307D01*
X96262976Y-165827830D01*
X96323452Y-165767354D01*
X96353690Y-165706878D01*
X96172261Y-166462830D02*
X96172261Y-166523307D01*
X96202500Y-166583783D01*
X96232738Y-166614021D01*
X96293214Y-166644259D01*
X96414166Y-166674497D01*
X96565357Y-166674497D01*
X96686309Y-166644259D01*
X96746785Y-166614021D01*
X96777023Y-166583783D01*
X96807261Y-166523307D01*
X96807261Y-166462830D01*
X96777023Y-166402354D01*
X96746785Y-166372116D01*
X96686309Y-166341878D01*
X96565357Y-166311640D01*
X96414166Y-166311640D01*
X96293214Y-166341878D01*
X96232738Y-166372116D01*
X96202500Y-166402354D01*
X96172261Y-166462830D01*
X99347261Y-165706878D02*
X98712261Y-165706878D01*
X98712261Y-165858069D01*
X98742500Y-165948783D01*
X98802976Y-166009259D01*
X98863452Y-166039497D01*
X98984404Y-166069735D01*
X99075119Y-166069735D01*
X99196071Y-166039497D01*
X99256547Y-166009259D01*
X99317023Y-165948783D01*
X99347261Y-165858069D01*
X99347261Y-165706878D01*
X99347261Y-166372116D02*
X99347261Y-166493069D01*
X99317023Y-166553545D01*
X99286785Y-166583783D01*
X99196071Y-166644259D01*
X99075119Y-166674497D01*
X98833214Y-166674497D01*
X98772738Y-166644259D01*
X98742500Y-166614021D01*
X98712261Y-166553545D01*
X98712261Y-166432592D01*
X98742500Y-166372116D01*
X98772738Y-166341878D01*
X98833214Y-166311640D01*
X98984404Y-166311640D01*
X99044880Y-166341878D01*
X99075119Y-166372116D01*
X99105357Y-166432592D01*
X99105357Y-166553545D01*
X99075119Y-166614021D01*
X99044880Y-166644259D01*
X98984404Y-166674497D01*
X109477023Y-165162592D02*
X109507261Y-165253307D01*
X109507261Y-165404497D01*
X109477023Y-165464973D01*
X109446785Y-165495211D01*
X109386309Y-165525450D01*
X109325833Y-165525450D01*
X109265357Y-165495211D01*
X109235119Y-165464973D01*
X109204880Y-165404497D01*
X109174642Y-165283545D01*
X109144404Y-165223069D01*
X109114166Y-165192830D01*
X109053690Y-165162592D01*
X108993214Y-165162592D01*
X108932738Y-165192830D01*
X108902500Y-165223069D01*
X108872261Y-165283545D01*
X108872261Y-165434735D01*
X108902500Y-165525450D01*
X109446785Y-166160450D02*
X109477023Y-166130211D01*
X109507261Y-166039497D01*
X109507261Y-165979021D01*
X109477023Y-165888307D01*
X109416547Y-165827830D01*
X109356071Y-165797592D01*
X109235119Y-165767354D01*
X109144404Y-165767354D01*
X109023452Y-165797592D01*
X108962976Y-165827830D01*
X108902500Y-165888307D01*
X108872261Y-165979021D01*
X108872261Y-166039497D01*
X108902500Y-166130211D01*
X108932738Y-166160450D01*
X109507261Y-166734973D02*
X109507261Y-166432592D01*
X108872261Y-166432592D01*
X106967261Y-164648545D02*
X106332261Y-164648545D01*
X106785833Y-164860211D01*
X106332261Y-165071878D01*
X106967261Y-165071878D01*
X106967261Y-165374259D02*
X106332261Y-165374259D01*
X106937023Y-165646402D02*
X106967261Y-165737116D01*
X106967261Y-165888307D01*
X106937023Y-165948783D01*
X106906785Y-165979021D01*
X106846309Y-166009259D01*
X106785833Y-166009259D01*
X106725357Y-165979021D01*
X106695119Y-165948783D01*
X106664880Y-165888307D01*
X106634642Y-165767354D01*
X106604404Y-165706878D01*
X106574166Y-165676640D01*
X106513690Y-165646402D01*
X106453214Y-165646402D01*
X106392738Y-165676640D01*
X106362500Y-165706878D01*
X106332261Y-165767354D01*
X106332261Y-165918545D01*
X106362500Y-166009259D01*
X106332261Y-166402354D02*
X106332261Y-166523307D01*
X106362500Y-166583783D01*
X106422976Y-166644259D01*
X106543928Y-166674497D01*
X106755595Y-166674497D01*
X106876547Y-166644259D01*
X106937023Y-166583783D01*
X106967261Y-166523307D01*
X106967261Y-166402354D01*
X106937023Y-166341878D01*
X106876547Y-166281402D01*
X106755595Y-166251164D01*
X106543928Y-166251164D01*
X106422976Y-166281402D01*
X106362500Y-166341878D01*
X106332261Y-166402354D01*
X101857023Y-165041640D02*
X101887261Y-165132354D01*
X101887261Y-165283545D01*
X101857023Y-165344021D01*
X101826785Y-165374259D01*
X101766309Y-165404497D01*
X101705833Y-165404497D01*
X101645357Y-165374259D01*
X101615119Y-165344021D01*
X101584880Y-165283545D01*
X101554642Y-165162592D01*
X101524404Y-165102116D01*
X101494166Y-165071878D01*
X101433690Y-165041640D01*
X101373214Y-165041640D01*
X101312738Y-165071878D01*
X101282500Y-165102116D01*
X101252261Y-165162592D01*
X101252261Y-165313783D01*
X101282500Y-165404497D01*
X101826785Y-166039497D02*
X101857023Y-166009259D01*
X101887261Y-165918545D01*
X101887261Y-165858069D01*
X101857023Y-165767354D01*
X101796547Y-165706878D01*
X101736071Y-165676640D01*
X101615119Y-165646402D01*
X101524404Y-165646402D01*
X101403452Y-165676640D01*
X101342976Y-165706878D01*
X101282500Y-165767354D01*
X101252261Y-165858069D01*
X101252261Y-165918545D01*
X101282500Y-166009259D01*
X101312738Y-166039497D01*
X101887261Y-166311640D02*
X101252261Y-166311640D01*
X101887261Y-166674497D02*
X101524404Y-166402354D01*
X101252261Y-166674497D02*
X101615119Y-166311640D01*
X113952261Y-165041640D02*
X114587261Y-165253307D01*
X113952261Y-165464973D01*
X114526785Y-166039497D02*
X114557023Y-166009259D01*
X114587261Y-165918545D01*
X114587261Y-165858069D01*
X114557023Y-165767354D01*
X114496547Y-165706878D01*
X114436071Y-165676640D01*
X114315119Y-165646402D01*
X114224404Y-165646402D01*
X114103452Y-165676640D01*
X114042976Y-165706878D01*
X113982500Y-165767354D01*
X113952261Y-165858069D01*
X113952261Y-165918545D01*
X113982500Y-166009259D01*
X114012738Y-166039497D01*
X114526785Y-166674497D02*
X114557023Y-166644259D01*
X114587261Y-166553545D01*
X114587261Y-166493069D01*
X114557023Y-166402354D01*
X114496547Y-166341878D01*
X114436071Y-166311640D01*
X114315119Y-166281402D01*
X114224404Y-166281402D01*
X114103452Y-166311640D01*
X114042976Y-166341878D01*
X113982500Y-166402354D01*
X113952261Y-166493069D01*
X113952261Y-166553545D01*
X113982500Y-166644259D01*
X114012738Y-166674497D01*
X104427261Y-164648545D02*
X103792261Y-164648545D01*
X104245833Y-164860211D01*
X103792261Y-165071878D01*
X104427261Y-165071878D01*
X103792261Y-165495211D02*
X103792261Y-165616164D01*
X103822500Y-165676640D01*
X103882976Y-165737116D01*
X104003928Y-165767354D01*
X104215595Y-165767354D01*
X104336547Y-165737116D01*
X104397023Y-165676640D01*
X104427261Y-165616164D01*
X104427261Y-165495211D01*
X104397023Y-165434735D01*
X104336547Y-165374259D01*
X104215595Y-165344021D01*
X104003928Y-165344021D01*
X103882976Y-165374259D01*
X103822500Y-165434735D01*
X103792261Y-165495211D01*
X104397023Y-166009259D02*
X104427261Y-166099973D01*
X104427261Y-166251164D01*
X104397023Y-166311640D01*
X104366785Y-166341878D01*
X104306309Y-166372116D01*
X104245833Y-166372116D01*
X104185357Y-166341878D01*
X104155119Y-166311640D01*
X104124880Y-166251164D01*
X104094642Y-166130211D01*
X104064404Y-166069735D01*
X104034166Y-166039497D01*
X103973690Y-166009259D01*
X103913214Y-166009259D01*
X103852738Y-166039497D01*
X103822500Y-166069735D01*
X103792261Y-166130211D01*
X103792261Y-166281402D01*
X103822500Y-166372116D01*
X104427261Y-166644259D02*
X103792261Y-166644259D01*
X112017023Y-165132354D02*
X112047261Y-165223069D01*
X112047261Y-165374259D01*
X112017023Y-165434735D01*
X111986785Y-165464973D01*
X111926309Y-165495211D01*
X111865833Y-165495211D01*
X111805357Y-165464973D01*
X111775119Y-165434735D01*
X111744880Y-165374259D01*
X111714642Y-165253307D01*
X111684404Y-165192830D01*
X111654166Y-165162592D01*
X111593690Y-165132354D01*
X111533214Y-165132354D01*
X111472738Y-165162592D01*
X111442500Y-165192830D01*
X111412261Y-165253307D01*
X111412261Y-165404497D01*
X111442500Y-165495211D01*
X112047261Y-165767354D02*
X111412261Y-165767354D01*
X111412261Y-165918545D01*
X111442500Y-166009259D01*
X111502976Y-166069735D01*
X111563452Y-166099973D01*
X111684404Y-166130211D01*
X111775119Y-166130211D01*
X111896071Y-166099973D01*
X111956547Y-166069735D01*
X112017023Y-166009259D01*
X112047261Y-165918545D01*
X112047261Y-165767354D01*
X111865833Y-166372116D02*
X111865833Y-166674497D01*
X112047261Y-166311640D02*
X111412261Y-166523307D01*
X112047261Y-166734973D01*
X119062500Y-165344021D02*
X119032261Y-165283545D01*
X119032261Y-165192830D01*
X119062500Y-165102116D01*
X119122976Y-165041640D01*
X119183452Y-165011402D01*
X119304404Y-164981164D01*
X119395119Y-164981164D01*
X119516071Y-165011402D01*
X119576547Y-165041640D01*
X119637023Y-165102116D01*
X119667261Y-165192830D01*
X119667261Y-165253307D01*
X119637023Y-165344021D01*
X119606785Y-165374259D01*
X119395119Y-165374259D01*
X119395119Y-165253307D01*
X119667261Y-165646402D02*
X119032261Y-165646402D01*
X119667261Y-166009259D01*
X119032261Y-166009259D01*
X119667261Y-166311640D02*
X119032261Y-166311640D01*
X119032261Y-166462830D01*
X119062500Y-166553545D01*
X119122976Y-166614021D01*
X119183452Y-166644259D01*
X119304404Y-166674497D01*
X119395119Y-166674497D01*
X119516071Y-166644259D01*
X119576547Y-166614021D01*
X119637023Y-166553545D01*
X119667261Y-166462830D01*
X119667261Y-166311640D01*
D12*
X81383238Y-125515285D02*
X81335619Y-125372428D01*
X81335619Y-125134333D01*
X81383238Y-125039095D01*
X81430857Y-124991476D01*
X81526095Y-124943857D01*
X81621333Y-124943857D01*
X81716571Y-124991476D01*
X81764190Y-125039095D01*
X81811809Y-125134333D01*
X81859428Y-125324809D01*
X81907047Y-125420047D01*
X81954666Y-125467666D01*
X82049904Y-125515285D01*
X82145142Y-125515285D01*
X82240380Y-125467666D01*
X82288000Y-125420047D01*
X82335619Y-125324809D01*
X82335619Y-125086714D01*
X82288000Y-124943857D01*
X82335619Y-124515285D02*
X81526095Y-124515285D01*
X81430857Y-124467666D01*
X81383238Y-124420047D01*
X81335619Y-124324809D01*
X81335619Y-124134333D01*
X81383238Y-124039095D01*
X81430857Y-123991476D01*
X81526095Y-123943857D01*
X82335619Y-123943857D01*
X81335619Y-123467666D02*
X82335619Y-123467666D01*
X82335619Y-123086714D01*
X82288000Y-122991476D01*
X82240380Y-122943857D01*
X82145142Y-122896238D01*
X82002285Y-122896238D01*
X81907047Y-122943857D01*
X81859428Y-122991476D01*
X81811809Y-123086714D01*
X81811809Y-123467666D01*
X81335619Y-122467666D02*
X82335619Y-122467666D01*
X82335619Y-122086714D01*
X82288000Y-121991476D01*
X82240380Y-121943857D01*
X82145142Y-121896238D01*
X82002285Y-121896238D01*
X81907047Y-121943857D01*
X81859428Y-121991476D01*
X81811809Y-122086714D01*
X81811809Y-122467666D01*
X82335619Y-121277190D02*
X82335619Y-121086714D01*
X82288000Y-120991476D01*
X82192761Y-120896238D01*
X82002285Y-120848619D01*
X81668952Y-120848619D01*
X81478476Y-120896238D01*
X81383238Y-120991476D01*
X81335619Y-121086714D01*
X81335619Y-121277190D01*
X81383238Y-121372428D01*
X81478476Y-121467666D01*
X81668952Y-121515285D01*
X82002285Y-121515285D01*
X82192761Y-121467666D01*
X82288000Y-121372428D01*
X82335619Y-121277190D01*
X81335619Y-119848619D02*
X81811809Y-120181952D01*
X81335619Y-120420047D02*
X82335619Y-120420047D01*
X82335619Y-120039095D01*
X82288000Y-119943857D01*
X82240380Y-119896238D01*
X82145142Y-119848619D01*
X82002285Y-119848619D01*
X81907047Y-119896238D01*
X81859428Y-119943857D01*
X81811809Y-120039095D01*
X81811809Y-120420047D01*
X82335619Y-119562904D02*
X82335619Y-118991476D01*
X81335619Y-119277190D02*
X82335619Y-119277190D01*
X138866476Y-114752380D02*
X139437904Y-114752380D01*
X139152190Y-114752380D02*
X139152190Y-113752380D01*
X139247428Y-113895238D01*
X139342666Y-113990476D01*
X139437904Y-114038095D01*
X138247428Y-113752380D02*
X138152190Y-113752380D01*
X138056952Y-113800000D01*
X138009333Y-113847619D01*
X137961714Y-113942857D01*
X137914095Y-114133333D01*
X137914095Y-114371428D01*
X137961714Y-114561904D01*
X138009333Y-114657142D01*
X138056952Y-114704761D01*
X138152190Y-114752380D01*
X138247428Y-114752380D01*
X138342666Y-114704761D01*
X138390285Y-114657142D01*
X138437904Y-114561904D01*
X138485523Y-114371428D01*
X138485523Y-114133333D01*
X138437904Y-113942857D01*
X138390285Y-113847619D01*
X138342666Y-113800000D01*
X138247428Y-113752380D01*
X137485523Y-114752380D02*
X137485523Y-113752380D01*
X136914095Y-114752380D02*
X137342666Y-114180952D01*
X136914095Y-113752380D02*
X137485523Y-114323809D01*
%LPC*%
D10*
G36*
X77597000Y-173736000D02*
G01*
X76200000Y-173482000D01*
X75438000Y-170815000D01*
X77597000Y-173736000D01*
G37*
X77597000Y-173736000D02*
X76200000Y-173482000D01*
X75438000Y-170815000D01*
X77597000Y-173736000D01*
G36*
X76581000Y-173228000D02*
G01*
X77343000Y-175895000D01*
X75184000Y-172974000D01*
X76581000Y-173228000D01*
G37*
X76581000Y-173228000D02*
X77343000Y-175895000D01*
X75184000Y-172974000D01*
X76581000Y-173228000D01*
D15*
X62103000Y-59309000D03*
X153797000Y-59309000D03*
X70002400Y-106172000D03*
X145897600Y-106172000D03*
D16*
X124460000Y-154624000D03*
X121920000Y-154624000D03*
X119380000Y-154624000D03*
X116840000Y-154624000D03*
X114300000Y-154624000D03*
X111760000Y-154624000D03*
X109220000Y-154624000D03*
X106680000Y-154624000D03*
X104140000Y-154624000D03*
X101600000Y-154624000D03*
X99060000Y-154624000D03*
X96520000Y-154624000D03*
X93980000Y-154624000D03*
X91440000Y-154624000D03*
X91440000Y-159704000D03*
X93980000Y-159704000D03*
X96520000Y-159704000D03*
X99060000Y-159704000D03*
X101600000Y-159704000D03*
X104140000Y-159704000D03*
X124460000Y-159704000D03*
X121920000Y-159704000D03*
X119380000Y-159704000D03*
X116840000Y-159704000D03*
X114300000Y-159704000D03*
X111760000Y-159704000D03*
X106680000Y-159704000D03*
X109220000Y-159704000D03*
D15*
X145897600Y-223012000D03*
X70002400Y-223012000D03*
X153797000Y-176149000D03*
D17*
X75057000Y-169926000D03*
X74168000Y-169926000D03*
X73279000Y-169926000D03*
X75057000Y-167894000D03*
X73279000Y-167894000D03*
X74168000Y-167894000D03*
X141732000Y-167894000D03*
X140843000Y-167894000D03*
X142621000Y-167894000D03*
X140843000Y-169926000D03*
X141732000Y-169926000D03*
X142621000Y-169926000D03*
X142621000Y-111506000D03*
X141732000Y-111506000D03*
X140843000Y-111506000D03*
X142621000Y-109474000D03*
X140843000Y-109474000D03*
X141732000Y-109474000D03*
D18*
X116840000Y-163449000D03*
X101600000Y-163449000D03*
X99060000Y-163449000D03*
X96520000Y-163449000D03*
X119380000Y-163449000D03*
D19*
X104140000Y-163449000D03*
D18*
X114300000Y-163449000D03*
X111760000Y-163449000D03*
X109220000Y-163449000D03*
D19*
X106680000Y-163449000D03*
D20*
X78282800Y-163703000D03*
X80772000Y-163703000D03*
X83261200Y-163703000D03*
D21*
X62103000Y-117729000D03*
D18*
X81788000Y-116459000D03*
D21*
X70002400Y-164592000D03*
X153797000Y-117729000D03*
G36*
G01*
X60301749Y-153222856D02*
X60301749Y-153222856D01*
G75*
G02*
X58749597Y-153712248I-1020772J531380D01*
G01*
X58749597Y-153712248D01*
G75*
G02*
X58260205Y-152160096I531380J1020772D01*
G01*
X58260205Y-152160096D01*
G75*
G02*
X59812357Y-151670704I1020772J-531380D01*
G01*
X59812357Y-151670704D01*
G75*
G02*
X60301749Y-153222856I-531380J-1020772D01*
G01*
G37*
G36*
G01*
X67568695Y-155765669D02*
X66552848Y-157717092D01*
G75*
G02*
X66484331Y-157738695I-45060J23457D01*
G01*
X64532908Y-156722848D01*
G75*
G02*
X64511305Y-156654331I23457J45060D01*
G01*
X65527152Y-154702908D01*
G75*
G02*
X65595669Y-154681305I45060J-23457D01*
G01*
X67547092Y-155697152D01*
G75*
G02*
X67568695Y-155765669I-23457J-45060D01*
G01*
G37*
G36*
G01*
X60301749Y-158556856D02*
X60301749Y-158556856D01*
G75*
G02*
X58749597Y-159046248I-1020772J531380D01*
G01*
X58749597Y-159046248D01*
G75*
G02*
X58260205Y-157494096I531380J1020772D01*
G01*
X58260205Y-157494096D01*
G75*
G02*
X59812357Y-157004704I1020772J-531380D01*
G01*
X59812357Y-157004704D01*
G75*
G02*
X60301749Y-158556856I-531380J-1020772D01*
G01*
G37*
G36*
G01*
X67568695Y-161099669D02*
X66552848Y-163051092D01*
G75*
G02*
X66484331Y-163072695I-45060J23457D01*
G01*
X64532908Y-162056848D01*
G75*
G02*
X64511305Y-161988331I23457J45060D01*
G01*
X65527152Y-160036908D01*
G75*
G02*
X65595669Y-160015305I45060J-23457D01*
G01*
X67547092Y-161031152D01*
G75*
G02*
X67568695Y-161099669I-23457J-45060D01*
G01*
G37*
D19*
X74450000Y-147320000D03*
X74450000Y-144780000D03*
X74450000Y-142240000D03*
X74450000Y-139700000D03*
X74450000Y-137160000D03*
X74450000Y-134620000D03*
X74450000Y-132080000D03*
D22*
X150550000Y-142875000D03*
X146050000Y-142875000D03*
X150550000Y-136375000D03*
X146050000Y-136375000D03*
X160329000Y-137922000D03*
X155829000Y-137922000D03*
X160329000Y-131422000D03*
X155829000Y-131422000D03*
X63464000Y-133298000D03*
X58964000Y-133298000D03*
X63464000Y-126798000D03*
X58964000Y-126798000D03*
X58964000Y-141022000D03*
X63464000Y-141022000D03*
X58964000Y-147522000D03*
X63464000Y-147522000D03*
X56352000Y-140410000D03*
X51852000Y-140410000D03*
X56352000Y-133910000D03*
X51852000Y-133910000D03*
X66076000Y-133910000D03*
X70576000Y-133910000D03*
X66076000Y-140410000D03*
X70576000Y-140410000D03*
D23*
X151892000Y-158115000D03*
X149638992Y-159287841D03*
X154145008Y-156942159D03*
D15*
X62103000Y-176149000D03*
D17*
X74168000Y-109474000D03*
X73279000Y-109474000D03*
X75057000Y-109474000D03*
X73279000Y-111506000D03*
X74168000Y-111506000D03*
X75057000Y-111506000D03*
D21*
X145897600Y-164592000D03*
D16*
X164298000Y-152273000D03*
X159298000Y-152273000D03*
D24*
X134366000Y-114300000D03*
D25*
X141986000Y-114300000D03*
D26*
X139364000Y-161213000D03*
D16*
X138104000Y-163703000D03*
X133604000Y-163703000D03*
D26*
X132354000Y-161213000D03*
D19*
X69596000Y-123317000D03*
X69596000Y-120777000D03*
X69596000Y-125857000D03*
X69596000Y-118237000D03*
M02*
