G04 #@! TF.GenerationSoftware,KiCad,Pcbnew,(5.1.9-0-10_14)*
G04 #@! TF.CreationDate,2021-02-12T07:08:18-08:00*
G04 #@! TF.ProjectId,system,73797374-656d-42e6-9b69-6361645f7063,1.0-dev2*
G04 #@! TF.SameCoordinates,Original*
G04 #@! TF.FileFunction,Other,Fab,Bot*
%FSLAX46Y46*%
G04 Gerber Fmt 4.6, Leading zero omitted, Abs format (unit mm)*
G04 Created by KiCad (PCBNEW (5.1.9-0-10_14)) date 2021-02-12 07:08:18*
%MOMM*%
%LPD*%
G01*
G04 APERTURE LIST*
%ADD10C,0.100000*%
%ADD11C,0.150000*%
G04 APERTURE END LIST*
D10*
X110510000Y-114960000D02*
X113010000Y-114960000D01*
X113010000Y-114960000D02*
X113010000Y-121260000D01*
X113010000Y-121260000D02*
X110510000Y-121260000D01*
X110510000Y-121260000D02*
X110510000Y-114960000D01*
X111760000Y-114300000D02*
X111760000Y-114960000D01*
X111760000Y-121920000D02*
X111760000Y-121260000D01*
X101814000Y-116324000D02*
X103074000Y-116324000D01*
X101814000Y-119824000D02*
X103074000Y-119824000D01*
X101814000Y-116324000D02*
X101814000Y-119824000D01*
X109864000Y-121524000D02*
X106524000Y-121524000D01*
X109864000Y-114324000D02*
X109864000Y-114624000D01*
X106524000Y-114624000D02*
X106524000Y-121524000D01*
X109864000Y-121824000D02*
X103074000Y-121824000D01*
X103074000Y-114324000D02*
X103074000Y-121824000D01*
X109864000Y-114324000D02*
X103074000Y-114324000D01*
X109864000Y-121524000D02*
X109864000Y-121824000D01*
X109864000Y-114624000D02*
X106524000Y-114624000D01*
D11*
X140033333Y-111864480D02*
X140033333Y-112578766D01*
X140080952Y-112721623D01*
X140176190Y-112816861D01*
X140319047Y-112864480D01*
X140414285Y-112864480D01*
X139033333Y-112864480D02*
X139604761Y-112864480D01*
X139319047Y-112864480D02*
X139319047Y-111864480D01*
X139414285Y-112007338D01*
X139509523Y-112102576D01*
X139604761Y-112150195D01*
X163655333Y-94448380D02*
X163655333Y-95162666D01*
X163702952Y-95305523D01*
X163798190Y-95400761D01*
X163941047Y-95448380D01*
X164036285Y-95448380D01*
X163226761Y-94543619D02*
X163179142Y-94496000D01*
X163083904Y-94448380D01*
X162845809Y-94448380D01*
X162750571Y-94496000D01*
X162702952Y-94543619D01*
X162655333Y-94638857D01*
X162655333Y-94734095D01*
X162702952Y-94876952D01*
X163274380Y-95448380D01*
X162655333Y-95448380D01*
X114752380Y-117943333D02*
X114276190Y-117610000D01*
X114752380Y-117371904D02*
X113752380Y-117371904D01*
X113752380Y-117752857D01*
X113800000Y-117848095D01*
X113847619Y-117895714D01*
X113942857Y-117943333D01*
X114085714Y-117943333D01*
X114180952Y-117895714D01*
X114228571Y-117848095D01*
X114276190Y-117752857D01*
X114276190Y-117371904D01*
X114752380Y-118895714D02*
X114752380Y-118324285D01*
X114752380Y-118610000D02*
X113752380Y-118610000D01*
X113895238Y-118514761D01*
X113990476Y-118419523D01*
X114038095Y-118324285D01*
X107748761Y-116740666D02*
X107796380Y-116883523D01*
X107796380Y-117121619D01*
X107748761Y-117216857D01*
X107701142Y-117264476D01*
X107605904Y-117312095D01*
X107510666Y-117312095D01*
X107415428Y-117264476D01*
X107367809Y-117216857D01*
X107320190Y-117121619D01*
X107272571Y-116931142D01*
X107224952Y-116835904D01*
X107177333Y-116788285D01*
X107082095Y-116740666D01*
X106986857Y-116740666D01*
X106891619Y-116788285D01*
X106844000Y-116835904D01*
X106796380Y-116931142D01*
X106796380Y-117169238D01*
X106844000Y-117312095D01*
X106796380Y-117645428D02*
X107796380Y-117883523D01*
X107082095Y-118074000D01*
X107796380Y-118264476D01*
X106796380Y-118502571D01*
X106891619Y-118835904D02*
X106844000Y-118883523D01*
X106796380Y-118978761D01*
X106796380Y-119216857D01*
X106844000Y-119312095D01*
X106891619Y-119359714D01*
X106986857Y-119407333D01*
X107082095Y-119407333D01*
X107224952Y-119359714D01*
X107796380Y-118788285D01*
X107796380Y-119407333D01*
X114045904Y-139660380D02*
X114045904Y-140469904D01*
X113998285Y-140565142D01*
X113950666Y-140612761D01*
X113855428Y-140660380D01*
X113664952Y-140660380D01*
X113569714Y-140612761D01*
X113522095Y-140565142D01*
X113474476Y-140469904D01*
X113474476Y-139660380D01*
X112474476Y-140660380D02*
X113045904Y-140660380D01*
X112760190Y-140660380D02*
X112760190Y-139660380D01*
X112855428Y-139803238D01*
X112950666Y-139898476D01*
X113045904Y-139946095D01*
X118022095Y-142692380D02*
X118498285Y-142692380D01*
X118498285Y-141692380D01*
X117688761Y-142692380D02*
X117688761Y-141692380D01*
X117212571Y-142692380D02*
X117212571Y-141692380D01*
X116831619Y-141692380D01*
X116736380Y-141740000D01*
X116688761Y-141787619D01*
X116641142Y-141882857D01*
X116641142Y-142025714D01*
X116688761Y-142120952D01*
X116736380Y-142168571D01*
X116831619Y-142216190D01*
X117212571Y-142216190D01*
X116022095Y-141692380D02*
X115831619Y-141692380D01*
X115736380Y-141740000D01*
X115641142Y-141835238D01*
X115593523Y-142025714D01*
X115593523Y-142359047D01*
X115641142Y-142549523D01*
X115736380Y-142644761D01*
X115831619Y-142692380D01*
X116022095Y-142692380D01*
X116117333Y-142644761D01*
X116212571Y-142549523D01*
X116260190Y-142359047D01*
X116260190Y-142025714D01*
X116212571Y-141835238D01*
X116117333Y-141740000D01*
X116022095Y-141692380D01*
X115403047Y-142787619D02*
X114641142Y-142787619D01*
X113831619Y-142597142D02*
X113879238Y-142644761D01*
X114022095Y-142692380D01*
X114117333Y-142692380D01*
X114260190Y-142644761D01*
X114355428Y-142549523D01*
X114403047Y-142454285D01*
X114450666Y-142263809D01*
X114450666Y-142120952D01*
X114403047Y-141930476D01*
X114355428Y-141835238D01*
X114260190Y-141740000D01*
X114117333Y-141692380D01*
X114022095Y-141692380D01*
X113879238Y-141740000D01*
X113831619Y-141787619D01*
X113403047Y-142692380D02*
X113403047Y-141692380D01*
X113403047Y-142168571D02*
X112831619Y-142168571D01*
X112831619Y-142692380D02*
X112831619Y-141692380D01*
X112403047Y-142406666D02*
X111926857Y-142406666D01*
X112498285Y-142692380D02*
X112164952Y-141692380D01*
X111831619Y-142692380D01*
X110926857Y-142692380D02*
X111260190Y-142216190D01*
X111498285Y-142692380D02*
X111498285Y-141692380D01*
X111117333Y-141692380D01*
X111022095Y-141740000D01*
X110974476Y-141787619D01*
X110926857Y-141882857D01*
X110926857Y-142025714D01*
X110974476Y-142120952D01*
X111022095Y-142168571D01*
X111117333Y-142216190D01*
X111498285Y-142216190D01*
X109974476Y-141740000D02*
X110069714Y-141692380D01*
X110212571Y-141692380D01*
X110355428Y-141740000D01*
X110450666Y-141835238D01*
X110498285Y-141930476D01*
X110545904Y-142120952D01*
X110545904Y-142263809D01*
X110498285Y-142454285D01*
X110450666Y-142549523D01*
X110355428Y-142644761D01*
X110212571Y-142692380D01*
X110117333Y-142692380D01*
X109974476Y-142644761D01*
X109926857Y-142597142D01*
X109926857Y-142263809D01*
X110117333Y-142263809D01*
X109498285Y-142168571D02*
X109164952Y-142168571D01*
X109022095Y-142692380D02*
X109498285Y-142692380D01*
X109498285Y-141692380D01*
X109022095Y-141692380D01*
X108022095Y-142692380D02*
X108355428Y-142216190D01*
X108593523Y-142692380D02*
X108593523Y-141692380D01*
X108212571Y-141692380D01*
X108117333Y-141740000D01*
X108069714Y-141787619D01*
X108022095Y-141882857D01*
X108022095Y-142025714D01*
X108069714Y-142120952D01*
X108117333Y-142168571D01*
X108212571Y-142216190D01*
X108593523Y-142216190D01*
M02*
