G04 #@! TF.GenerationSoftware,KiCad,Pcbnew,(5.1.9-0-10_14)*
G04 #@! TF.CreationDate,2021-02-11T14:44:49-08:00*
G04 #@! TF.ProjectId,system,73797374-656d-42e6-9b69-6361645f7063,rev?*
G04 #@! TF.SameCoordinates,Original*
G04 #@! TF.FileFunction,Soldermask,Bot*
G04 #@! TF.FilePolarity,Negative*
%FSLAX46Y46*%
G04 Gerber Fmt 4.6, Leading zero omitted, Abs format (unit mm)*
G04 Created by KiCad (PCBNEW (5.1.9-0-10_14)) date 2021-02-11 14:44:49*
%MOMM*%
%LPD*%
G01*
G04 APERTURE LIST*
%ADD10C,0.100000*%
%ADD11C,3.851600*%
%ADD12C,1.851600*%
%ADD13C,1.401600*%
%ADD14C,0.609600*%
%ADD15O,1.801600X1.801600*%
%ADD16C,1.801600*%
%ADD17C,5.501599*%
%ADD18C,5.501600*%
%ADD19C,1.701600*%
%ADD20O,1.701600X1.701600*%
%ADD21C,1.625600*%
%ADD22C,2.201600*%
%ADD23C,1.621600*%
%ADD24C,2.101600*%
G04 APERTURE END LIST*
D10*
G36*
X180657500Y-140716000D02*
G01*
X181419500Y-138049000D01*
X182816500Y-137795000D01*
X180657500Y-140716000D01*
G37*
X180657500Y-140716000D02*
X181419500Y-138049000D01*
X182816500Y-137795000D01*
X180657500Y-140716000D01*
G36*
X181800500Y-138430000D02*
G01*
X180403500Y-138684000D01*
X182562500Y-135763000D01*
X181800500Y-138430000D01*
G37*
X181800500Y-138430000D02*
X180403500Y-138684000D01*
X182562500Y-135763000D01*
X181800500Y-138430000D01*
G36*
X180657500Y-140716000D02*
G01*
X181419500Y-138049000D01*
X182816500Y-137795000D01*
X180657500Y-140716000D01*
G37*
X180657500Y-140716000D02*
X181419500Y-138049000D01*
X182816500Y-137795000D01*
X180657500Y-140716000D01*
G36*
X181800500Y-138430000D02*
G01*
X180403500Y-138684000D01*
X182562500Y-135763000D01*
X181800500Y-138430000D01*
G37*
X181800500Y-138430000D02*
X180403500Y-138684000D01*
X182562500Y-135763000D01*
X181800500Y-138430000D01*
D11*
X249999500Y-70104000D03*
X232854500Y-151130000D03*
X182181500Y-70104000D03*
X182181500Y-151130000D03*
D12*
X156210000Y-109920000D03*
X153670000Y-109920000D03*
X151130000Y-109920000D03*
X148590000Y-109920000D03*
X146050000Y-109920000D03*
X143510000Y-109920000D03*
X140970000Y-109920000D03*
X138430000Y-109920000D03*
X135890000Y-109920000D03*
X133350000Y-109920000D03*
X130810000Y-109920000D03*
X128270000Y-109920000D03*
X125730000Y-109920000D03*
X123190000Y-109920000D03*
X123190000Y-115000000D03*
X125730000Y-115000000D03*
X128270000Y-115000000D03*
X130810000Y-115000000D03*
X133350000Y-115000000D03*
X135890000Y-115000000D03*
X156210000Y-115000000D03*
X153670000Y-115000000D03*
X151130000Y-115000000D03*
X148590000Y-115000000D03*
X146050000Y-115000000D03*
X143510000Y-115000000D03*
X138430000Y-115000000D03*
X140970000Y-115000000D03*
D13*
X170434000Y-121920000D03*
X170434000Y-124460000D03*
X170434000Y-119380000D03*
D11*
X97218500Y-70104000D03*
X80073500Y-151130000D03*
X29400500Y-70104000D03*
X29400500Y-151130000D03*
D14*
X178911000Y-131318000D03*
X178911000Y-130429000D03*
X178911000Y-132207000D03*
X176879000Y-130429000D03*
X176879000Y-131318000D03*
X176879000Y-132207000D03*
X176879000Y-97028000D03*
X176879000Y-96139000D03*
X176879000Y-95250000D03*
X178911000Y-97028000D03*
X178911000Y-95250000D03*
X178911000Y-96139000D03*
X100489000Y-96139000D03*
X100489000Y-97028000D03*
X100489000Y-95250000D03*
X102521000Y-97028000D03*
X102521000Y-96139000D03*
X102521000Y-95250000D03*
X102521000Y-130429000D03*
X102521000Y-131318000D03*
X102521000Y-132207000D03*
X100489000Y-130429000D03*
X100489000Y-132207000D03*
X100489000Y-131318000D03*
D15*
X166116000Y-107696000D03*
X166116000Y-97536000D03*
X166116000Y-105156000D03*
X166116000Y-100076000D03*
X166116000Y-102616000D03*
X166116000Y-82296000D03*
D16*
X166116000Y-94996000D03*
D15*
X166116000Y-84836000D03*
X166116000Y-87376000D03*
X166116000Y-89916000D03*
D16*
X166116000Y-92456000D03*
D17*
X105791000Y-151130000D03*
X105791000Y-70104000D03*
X156464000Y-151130000D03*
D18*
X173609000Y-70104000D03*
D12*
X172426000Y-140208000D03*
X167426000Y-140208000D03*
D19*
X134493000Y-119888000D03*
X134493000Y-122388000D03*
X144907000Y-119928000D03*
X144907000Y-122428000D03*
G36*
G01*
X142585646Y-149467144D02*
X142585646Y-149467144D01*
G75*
G02*
X142223833Y-150614669I-754669J-392856D01*
G01*
X142223833Y-150614669D01*
G75*
G02*
X141076308Y-150252856I-392856J754669D01*
G01*
X141076308Y-150252856D01*
G75*
G02*
X141438121Y-149105331I754669J392856D01*
G01*
X141438121Y-149105331D01*
G75*
G02*
X142585646Y-149467144I392856J-754669D01*
G01*
G37*
G36*
G01*
X148975270Y-145239011D02*
X149714068Y-146658229D01*
G75*
G02*
X149692465Y-146726746I-45060J-23457D01*
G01*
X148273247Y-147465544D01*
G75*
G02*
X148204730Y-147443941I-23457J45060D01*
G01*
X147465932Y-146024723D01*
G75*
G02*
X147487535Y-145956206I45060J23457D01*
G01*
X148906753Y-145217408D01*
G75*
G02*
X148975270Y-145239011I23457J-45060D01*
G01*
G37*
G36*
G01*
X137954293Y-145239011D02*
X138693091Y-146658229D01*
G75*
G02*
X138671488Y-146726746I-45060J-23457D01*
G01*
X137252270Y-147465544D01*
G75*
G02*
X137183753Y-147443941I-23457J45060D01*
G01*
X136444955Y-146024723D01*
G75*
G02*
X136466558Y-145956206I45060J23457D01*
G01*
X137885776Y-145217408D01*
G75*
G02*
X137954293Y-145239011I23457J-45060D01*
G01*
G37*
G36*
G01*
X131564669Y-149467144D02*
X131564669Y-149467144D01*
G75*
G02*
X131202856Y-150614669I-754669J-392856D01*
G01*
X131202856Y-150614669D01*
G75*
G02*
X130055331Y-150252856I-392856J754669D01*
G01*
X130055331Y-150252856D01*
G75*
G02*
X130417144Y-149105331I754669J392856D01*
G01*
X130417144Y-149105331D01*
G75*
G02*
X131564669Y-149467144I392856J-754669D01*
G01*
G37*
X111760000Y-114300000D03*
D20*
X111760000Y-121920000D03*
D21*
X110794800Y-70104000D03*
X113284000Y-70104000D03*
X115773200Y-70104000D03*
D22*
X108154000Y-121584000D03*
D12*
X105664000Y-120324000D03*
X105664000Y-115824000D03*
D22*
X108154000Y-114574000D03*
D16*
X114554000Y-145161000D03*
X112014000Y-145161000D03*
X117094000Y-145161000D03*
X109474000Y-145161000D03*
D23*
X137160000Y-121412000D03*
X142240000Y-121412000D03*
X139700000Y-121412000D03*
D16*
X106200000Y-102616000D03*
X106200000Y-100076000D03*
X106200000Y-97536000D03*
X106200000Y-94996000D03*
X106200000Y-92456000D03*
X106200000Y-89916000D03*
X106200000Y-87376000D03*
D24*
X149352000Y-131803000D03*
X153852000Y-131803000D03*
X149352000Y-138303000D03*
X153852000Y-138303000D03*
X163631000Y-133350000D03*
X159131000Y-133350000D03*
X163631000Y-126850000D03*
X159131000Y-126850000D03*
X120686000Y-122734000D03*
X125186000Y-122734000D03*
X120686000Y-129234000D03*
X125186000Y-129234000D03*
X125186000Y-143458000D03*
X120686000Y-143458000D03*
X125186000Y-136958000D03*
X120686000Y-136958000D03*
X118074000Y-136346000D03*
X113574000Y-136346000D03*
X118074000Y-129846000D03*
X113574000Y-129846000D03*
X127798000Y-129846000D03*
X132298000Y-129846000D03*
X127798000Y-136346000D03*
X132298000Y-136346000D03*
M02*
