G04 #@! TF.GenerationSoftware,KiCad,Pcbnew,(5.1.9-0-10_14)*
G04 #@! TF.CreationDate,2021-02-11T14:44:49-08:00*
G04 #@! TF.ProjectId,system,73797374-656d-42e6-9b69-6361645f7063,rev?*
G04 #@! TF.SameCoordinates,Original*
G04 #@! TF.FileFunction,Other,Fab,Top*
%FSLAX46Y46*%
G04 Gerber Fmt 4.6, Leading zero omitted, Abs format (unit mm)*
G04 Created by KiCad (PCBNEW (5.1.9-0-10_14)) date 2021-02-11 14:44:49*
%MOMM*%
%LPD*%
G01*
G04 APERTURE LIST*
%ADD10C,0.120000*%
%ADD11C,0.250000*%
%ADD12C,0.150000*%
%ADD13C,0.100000*%
G04 APERTURE END LIST*
D10*
X99635500Y-140208000D02*
G75*
G03*
X99635500Y-140208000I-6100000J0D01*
G01*
D11*
X91809500Y-77596000D02*
X91809500Y-107096000D01*
X34809500Y-77596000D02*
X34809500Y-107096000D01*
X34809500Y-107096000D02*
X91809500Y-107096000D01*
X34809500Y-77596000D02*
X91809500Y-77596000D01*
D12*
X27309500Y-73496000D02*
X27309500Y-116496000D01*
X99309500Y-73496000D02*
X99309500Y-116496000D01*
X27309500Y-116496000D02*
X99309500Y-116496000D01*
X27309500Y-73496000D02*
X99309500Y-73496000D01*
D13*
X179165000Y-130175000D02*
X176625000Y-130175000D01*
X179165000Y-132461000D02*
X176625000Y-132461000D01*
X179165000Y-97282000D02*
X176625000Y-97282000D01*
X179165000Y-94996000D02*
X176625000Y-94996000D01*
X100235000Y-97282000D02*
X102775000Y-97282000D01*
X100235000Y-94996000D02*
X102775000Y-94996000D01*
X100235000Y-130175000D02*
X102775000Y-130175000D01*
X100235000Y-132461000D02*
X102775000Y-132461000D01*
X166116000Y-105456000D02*
X167636000Y-105456000D01*
X167636000Y-104856000D02*
X166116000Y-104856000D01*
X166116000Y-100376000D02*
X167636000Y-100376000D01*
X166116000Y-99776000D02*
X166116000Y-100376000D01*
X167636000Y-99776000D02*
X166116000Y-99776000D01*
X167636000Y-102316000D02*
X166116000Y-102316000D01*
X166116000Y-102916000D02*
X167636000Y-102916000D01*
X166116000Y-104856000D02*
X166116000Y-105456000D01*
X167640000Y-96266000D02*
X167636000Y-97236000D01*
X167636000Y-108966000D02*
X167636000Y-97236000D01*
X176146000Y-96266000D02*
X176146000Y-108966000D01*
X176146000Y-108966000D02*
X167636000Y-108966000D01*
X166116000Y-102316000D02*
X166116000Y-102916000D01*
X166116000Y-97236000D02*
X166116000Y-97836000D01*
X166116000Y-97836000D02*
X167636000Y-97836000D01*
X167636000Y-97236000D02*
X166116000Y-97236000D01*
X166116000Y-81996000D02*
X166116000Y-82596000D01*
X166116000Y-82596000D02*
X167636000Y-82596000D01*
X167636000Y-81996000D02*
X166116000Y-81996000D01*
X166116000Y-94696000D02*
X166116000Y-95296000D01*
X167636000Y-94696000D02*
X166116000Y-94696000D01*
X166116000Y-95296000D02*
X167636000Y-95296000D01*
X176146000Y-81026000D02*
X167640000Y-81026000D01*
X166116000Y-84536000D02*
X166116000Y-85136000D01*
X167636000Y-84536000D02*
X166116000Y-84536000D01*
X166116000Y-85136000D02*
X167636000Y-85136000D01*
X166116000Y-87076000D02*
X166116000Y-87676000D01*
X167636000Y-87076000D02*
X166116000Y-87076000D01*
X166116000Y-87676000D02*
X167636000Y-87676000D01*
X166116000Y-89616000D02*
X166116000Y-90216000D01*
X167636000Y-89616000D02*
X166116000Y-89616000D01*
X166116000Y-90216000D02*
X167636000Y-90216000D01*
X166116000Y-92156000D02*
X166116000Y-92756000D01*
X167636000Y-92156000D02*
X166116000Y-92156000D01*
X166116000Y-92756000D02*
X167636000Y-92756000D01*
X176146000Y-81026000D02*
X176146000Y-96266000D01*
X167636000Y-96266000D02*
X167636000Y-81996000D01*
X167640000Y-81026000D02*
X167636000Y-81996000D01*
X167636000Y-107396000D02*
X166116000Y-107396000D01*
X166116000Y-107996000D02*
X167636000Y-107996000D01*
X135743000Y-119138000D02*
X133243000Y-119138000D01*
X133243000Y-119138000D02*
X133243000Y-123138000D01*
X133243000Y-123138000D02*
X135743000Y-123138000D01*
X135743000Y-123138000D02*
X135743000Y-119138000D01*
X143657000Y-119178000D02*
X143657000Y-123178000D01*
X146157000Y-119178000D02*
X143657000Y-119178000D01*
X146157000Y-123178000D02*
X146157000Y-119178000D01*
X143657000Y-123178000D02*
X146157000Y-123178000D01*
X147002754Y-148295126D02*
X146079256Y-146521104D01*
X146825351Y-148387476D02*
X145901854Y-146613454D01*
X146914053Y-148341301D02*
X145990555Y-146567279D01*
X141830977Y-149860000D02*
X143436467Y-149024235D01*
X148590000Y-146341476D02*
X146984510Y-147177241D01*
X143898216Y-149911246D02*
X147446259Y-148064252D01*
X142974718Y-148137225D02*
X143898216Y-149911246D01*
X146522762Y-146290230D02*
X142974718Y-148137225D01*
X147446259Y-148064252D02*
X146522762Y-146290230D01*
X136425282Y-148064252D02*
X135501785Y-146290230D01*
X135501785Y-146290230D02*
X131953741Y-148137225D01*
X131953741Y-148137225D02*
X132877239Y-149911246D01*
X132877239Y-149911246D02*
X136425282Y-148064252D01*
X137569023Y-146341476D02*
X135963533Y-147177241D01*
X130810000Y-149860000D02*
X132415490Y-149024235D01*
X135893076Y-148341301D02*
X134969578Y-146567279D01*
X135804374Y-148387476D02*
X134880877Y-146613454D01*
X135981777Y-148295126D02*
X135058279Y-146521104D01*
X137960000Y-123162000D02*
X141460000Y-123162000D01*
X137946375Y-123165625D02*
G75*
G02*
X139700000Y-118932000I1753625J1753625D01*
G01*
X141453625Y-123165625D02*
G75*
G03*
X139700000Y-118932000I-1753625J1753625D01*
G01*
X153617564Y-135053000D02*
G75*
G03*
X153617564Y-135053000I-2015564J0D01*
G01*
X148602000Y-138053000D02*
X148602000Y-135053000D01*
X154602000Y-138053000D02*
X148602000Y-138053000D01*
X154602000Y-132053000D02*
X154602000Y-138053000D01*
X148602000Y-132053000D02*
X154602000Y-132053000D01*
X148602000Y-135053000D02*
X148602000Y-132053000D01*
X158381000Y-130100000D02*
X158381000Y-127100000D01*
X158381000Y-127100000D02*
X164381000Y-127100000D01*
X164381000Y-127100000D02*
X164381000Y-133100000D01*
X164381000Y-133100000D02*
X158381000Y-133100000D01*
X158381000Y-133100000D02*
X158381000Y-130100000D01*
X163396564Y-130100000D02*
G75*
G03*
X163396564Y-130100000I-2015564J0D01*
G01*
X124951564Y-125984000D02*
G75*
G03*
X124951564Y-125984000I-2015564J0D01*
G01*
X119936000Y-128984000D02*
X119936000Y-125984000D01*
X125936000Y-128984000D02*
X119936000Y-128984000D01*
X125936000Y-122984000D02*
X125936000Y-128984000D01*
X119936000Y-122984000D02*
X125936000Y-122984000D01*
X119936000Y-125984000D02*
X119936000Y-122984000D01*
X124951564Y-140208000D02*
G75*
G03*
X124951564Y-140208000I-2015564J0D01*
G01*
X125936000Y-137208000D02*
X125936000Y-140208000D01*
X119936000Y-137208000D02*
X125936000Y-137208000D01*
X119936000Y-143208000D02*
X119936000Y-137208000D01*
X125936000Y-143208000D02*
X119936000Y-143208000D01*
X125936000Y-140208000D02*
X125936000Y-143208000D01*
X112824000Y-133096000D02*
X112824000Y-130096000D01*
X112824000Y-130096000D02*
X118824000Y-130096000D01*
X118824000Y-130096000D02*
X118824000Y-136096000D01*
X118824000Y-136096000D02*
X112824000Y-136096000D01*
X112824000Y-136096000D02*
X112824000Y-133096000D01*
X117839564Y-133096000D02*
G75*
G03*
X117839564Y-133096000I-2015564J0D01*
G01*
X133048000Y-133096000D02*
X133048000Y-136096000D01*
X133048000Y-136096000D02*
X127048000Y-136096000D01*
X127048000Y-136096000D02*
X127048000Y-130096000D01*
X127048000Y-130096000D02*
X133048000Y-130096000D01*
X133048000Y-130096000D02*
X133048000Y-133096000D01*
X132063564Y-133096000D02*
G75*
G03*
X132063564Y-133096000I-2015564J0D01*
G01*
D12*
X248632833Y-70556380D02*
X248632833Y-69556380D01*
X248632833Y-70032571D02*
X249204261Y-70032571D01*
X249204261Y-70556380D02*
X249204261Y-69556380D01*
X249870928Y-69556380D02*
X250061404Y-69556380D01*
X250156642Y-69604000D01*
X250251880Y-69699238D01*
X250299500Y-69889714D01*
X250299500Y-70223047D01*
X250251880Y-70413523D01*
X250156642Y-70508761D01*
X250061404Y-70556380D01*
X249870928Y-70556380D01*
X249775690Y-70508761D01*
X249680452Y-70413523D01*
X249632833Y-70223047D01*
X249632833Y-69889714D01*
X249680452Y-69699238D01*
X249775690Y-69604000D01*
X249870928Y-69556380D01*
X251204261Y-70556380D02*
X250728071Y-70556380D01*
X250728071Y-69556380D01*
X251537595Y-70032571D02*
X251870928Y-70032571D01*
X252013785Y-70556380D02*
X251537595Y-70556380D01*
X251537595Y-69556380D01*
X252013785Y-69556380D01*
X231487833Y-151582380D02*
X231487833Y-150582380D01*
X231487833Y-151058571D02*
X232059261Y-151058571D01*
X232059261Y-151582380D02*
X232059261Y-150582380D01*
X232725928Y-150582380D02*
X232916404Y-150582380D01*
X233011642Y-150630000D01*
X233106880Y-150725238D01*
X233154500Y-150915714D01*
X233154500Y-151249047D01*
X233106880Y-151439523D01*
X233011642Y-151534761D01*
X232916404Y-151582380D01*
X232725928Y-151582380D01*
X232630690Y-151534761D01*
X232535452Y-151439523D01*
X232487833Y-151249047D01*
X232487833Y-150915714D01*
X232535452Y-150725238D01*
X232630690Y-150630000D01*
X232725928Y-150582380D01*
X234059261Y-151582380D02*
X233583071Y-151582380D01*
X233583071Y-150582380D01*
X234392595Y-151058571D02*
X234725928Y-151058571D01*
X234868785Y-151582380D02*
X234392595Y-151582380D01*
X234392595Y-150582380D01*
X234868785Y-150582380D01*
X180814833Y-70556380D02*
X180814833Y-69556380D01*
X180814833Y-70032571D02*
X181386261Y-70032571D01*
X181386261Y-70556380D02*
X181386261Y-69556380D01*
X182052928Y-69556380D02*
X182243404Y-69556380D01*
X182338642Y-69604000D01*
X182433880Y-69699238D01*
X182481500Y-69889714D01*
X182481500Y-70223047D01*
X182433880Y-70413523D01*
X182338642Y-70508761D01*
X182243404Y-70556380D01*
X182052928Y-70556380D01*
X181957690Y-70508761D01*
X181862452Y-70413523D01*
X181814833Y-70223047D01*
X181814833Y-69889714D01*
X181862452Y-69699238D01*
X181957690Y-69604000D01*
X182052928Y-69556380D01*
X183386261Y-70556380D02*
X182910071Y-70556380D01*
X182910071Y-69556380D01*
X183719595Y-70032571D02*
X184052928Y-70032571D01*
X184195785Y-70556380D02*
X183719595Y-70556380D01*
X183719595Y-69556380D01*
X184195785Y-69556380D01*
X180814833Y-151582380D02*
X180814833Y-150582380D01*
X180814833Y-151058571D02*
X181386261Y-151058571D01*
X181386261Y-151582380D02*
X181386261Y-150582380D01*
X182052928Y-150582380D02*
X182243404Y-150582380D01*
X182338642Y-150630000D01*
X182433880Y-150725238D01*
X182481500Y-150915714D01*
X182481500Y-151249047D01*
X182433880Y-151439523D01*
X182338642Y-151534761D01*
X182243404Y-151582380D01*
X182052928Y-151582380D01*
X181957690Y-151534761D01*
X181862452Y-151439523D01*
X181814833Y-151249047D01*
X181814833Y-150915714D01*
X181862452Y-150725238D01*
X181957690Y-150630000D01*
X182052928Y-150582380D01*
X183386261Y-151582380D02*
X182910071Y-151582380D01*
X182910071Y-150582380D01*
X183719595Y-151058571D02*
X184052928Y-151058571D01*
X184195785Y-151582380D02*
X183719595Y-151582380D01*
X183719595Y-150582380D01*
X184195785Y-150582380D01*
X95851833Y-70556380D02*
X95851833Y-69556380D01*
X95851833Y-70032571D02*
X96423261Y-70032571D01*
X96423261Y-70556380D02*
X96423261Y-69556380D01*
X97089928Y-69556380D02*
X97280404Y-69556380D01*
X97375642Y-69604000D01*
X97470880Y-69699238D01*
X97518500Y-69889714D01*
X97518500Y-70223047D01*
X97470880Y-70413523D01*
X97375642Y-70508761D01*
X97280404Y-70556380D01*
X97089928Y-70556380D01*
X96994690Y-70508761D01*
X96899452Y-70413523D01*
X96851833Y-70223047D01*
X96851833Y-69889714D01*
X96899452Y-69699238D01*
X96994690Y-69604000D01*
X97089928Y-69556380D01*
X98423261Y-70556380D02*
X97947071Y-70556380D01*
X97947071Y-69556380D01*
X98756595Y-70032571D02*
X99089928Y-70032571D01*
X99232785Y-70556380D02*
X98756595Y-70556380D01*
X98756595Y-69556380D01*
X99232785Y-69556380D01*
X78706833Y-151582380D02*
X78706833Y-150582380D01*
X78706833Y-151058571D02*
X79278261Y-151058571D01*
X79278261Y-151582380D02*
X79278261Y-150582380D01*
X79944928Y-150582380D02*
X80135404Y-150582380D01*
X80230642Y-150630000D01*
X80325880Y-150725238D01*
X80373500Y-150915714D01*
X80373500Y-151249047D01*
X80325880Y-151439523D01*
X80230642Y-151534761D01*
X80135404Y-151582380D01*
X79944928Y-151582380D01*
X79849690Y-151534761D01*
X79754452Y-151439523D01*
X79706833Y-151249047D01*
X79706833Y-150915714D01*
X79754452Y-150725238D01*
X79849690Y-150630000D01*
X79944928Y-150582380D01*
X81278261Y-151582380D02*
X80802071Y-151582380D01*
X80802071Y-150582380D01*
X81611595Y-151058571D02*
X81944928Y-151058571D01*
X82087785Y-151582380D02*
X81611595Y-151582380D01*
X81611595Y-150582380D01*
X82087785Y-150582380D01*
X28033833Y-70556380D02*
X28033833Y-69556380D01*
X28033833Y-70032571D02*
X28605261Y-70032571D01*
X28605261Y-70556380D02*
X28605261Y-69556380D01*
X29271928Y-69556380D02*
X29462404Y-69556380D01*
X29557642Y-69604000D01*
X29652880Y-69699238D01*
X29700500Y-69889714D01*
X29700500Y-70223047D01*
X29652880Y-70413523D01*
X29557642Y-70508761D01*
X29462404Y-70556380D01*
X29271928Y-70556380D01*
X29176690Y-70508761D01*
X29081452Y-70413523D01*
X29033833Y-70223047D01*
X29033833Y-69889714D01*
X29081452Y-69699238D01*
X29176690Y-69604000D01*
X29271928Y-69556380D01*
X30605261Y-70556380D02*
X30129071Y-70556380D01*
X30129071Y-69556380D01*
X30938595Y-70032571D02*
X31271928Y-70032571D01*
X31414785Y-70556380D02*
X30938595Y-70556380D01*
X30938595Y-69556380D01*
X31414785Y-69556380D01*
X28033833Y-151582380D02*
X28033833Y-150582380D01*
X28033833Y-151058571D02*
X28605261Y-151058571D01*
X28605261Y-151582380D02*
X28605261Y-150582380D01*
X29271928Y-150582380D02*
X29462404Y-150582380D01*
X29557642Y-150630000D01*
X29652880Y-150725238D01*
X29700500Y-150915714D01*
X29700500Y-151249047D01*
X29652880Y-151439523D01*
X29557642Y-151534761D01*
X29462404Y-151582380D01*
X29271928Y-151582380D01*
X29176690Y-151534761D01*
X29081452Y-151439523D01*
X29033833Y-151249047D01*
X29033833Y-150915714D01*
X29081452Y-150725238D01*
X29176690Y-150630000D01*
X29271928Y-150582380D01*
X30605261Y-151582380D02*
X30129071Y-151582380D01*
X30129071Y-150582380D01*
X30938595Y-151058571D02*
X31271928Y-151058571D01*
X31414785Y-151582380D02*
X30938595Y-151582380D01*
X30938595Y-150582380D01*
X31414785Y-150582380D01*
X104424333Y-151582380D02*
X104424333Y-150582380D01*
X104424333Y-151058571D02*
X104995761Y-151058571D01*
X104995761Y-151582380D02*
X104995761Y-150582380D01*
X105662428Y-150582380D02*
X105852904Y-150582380D01*
X105948142Y-150630000D01*
X106043380Y-150725238D01*
X106091000Y-150915714D01*
X106091000Y-151249047D01*
X106043380Y-151439523D01*
X105948142Y-151534761D01*
X105852904Y-151582380D01*
X105662428Y-151582380D01*
X105567190Y-151534761D01*
X105471952Y-151439523D01*
X105424333Y-151249047D01*
X105424333Y-150915714D01*
X105471952Y-150725238D01*
X105567190Y-150630000D01*
X105662428Y-150582380D01*
X106995761Y-151582380D02*
X106519571Y-151582380D01*
X106519571Y-150582380D01*
X107329095Y-151058571D02*
X107662428Y-151058571D01*
X107805285Y-151582380D02*
X107329095Y-151582380D01*
X107329095Y-150582380D01*
X107805285Y-150582380D01*
X104424333Y-70556380D02*
X104424333Y-69556380D01*
X104424333Y-70032571D02*
X104995761Y-70032571D01*
X104995761Y-70556380D02*
X104995761Y-69556380D01*
X105662428Y-69556380D02*
X105852904Y-69556380D01*
X105948142Y-69604000D01*
X106043380Y-69699238D01*
X106091000Y-69889714D01*
X106091000Y-70223047D01*
X106043380Y-70413523D01*
X105948142Y-70508761D01*
X105852904Y-70556380D01*
X105662428Y-70556380D01*
X105567190Y-70508761D01*
X105471952Y-70413523D01*
X105424333Y-70223047D01*
X105424333Y-69889714D01*
X105471952Y-69699238D01*
X105567190Y-69604000D01*
X105662428Y-69556380D01*
X106995761Y-70556380D02*
X106519571Y-70556380D01*
X106519571Y-69556380D01*
X107329095Y-70032571D02*
X107662428Y-70032571D01*
X107805285Y-70556380D02*
X107329095Y-70556380D01*
X107329095Y-69556380D01*
X107805285Y-69556380D01*
X155097333Y-151582380D02*
X155097333Y-150582380D01*
X155097333Y-151058571D02*
X155668761Y-151058571D01*
X155668761Y-151582380D02*
X155668761Y-150582380D01*
X156335428Y-150582380D02*
X156525904Y-150582380D01*
X156621142Y-150630000D01*
X156716380Y-150725238D01*
X156764000Y-150915714D01*
X156764000Y-151249047D01*
X156716380Y-151439523D01*
X156621142Y-151534761D01*
X156525904Y-151582380D01*
X156335428Y-151582380D01*
X156240190Y-151534761D01*
X156144952Y-151439523D01*
X156097333Y-151249047D01*
X156097333Y-150915714D01*
X156144952Y-150725238D01*
X156240190Y-150630000D01*
X156335428Y-150582380D01*
X157668761Y-151582380D02*
X157192571Y-151582380D01*
X157192571Y-150582380D01*
X158002095Y-151058571D02*
X158335428Y-151058571D01*
X158478285Y-151582380D02*
X158002095Y-151582380D01*
X158002095Y-150582380D01*
X158478285Y-150582380D01*
X172242333Y-70556380D02*
X172242333Y-69556380D01*
X172242333Y-70032571D02*
X172813761Y-70032571D01*
X172813761Y-70556380D02*
X172813761Y-69556380D01*
X173480428Y-69556380D02*
X173670904Y-69556380D01*
X173766142Y-69604000D01*
X173861380Y-69699238D01*
X173909000Y-69889714D01*
X173909000Y-70223047D01*
X173861380Y-70413523D01*
X173766142Y-70508761D01*
X173670904Y-70556380D01*
X173480428Y-70556380D01*
X173385190Y-70508761D01*
X173289952Y-70413523D01*
X173242333Y-70223047D01*
X173242333Y-69889714D01*
X173289952Y-69699238D01*
X173385190Y-69604000D01*
X173480428Y-69556380D01*
X174813761Y-70556380D02*
X174337571Y-70556380D01*
X174337571Y-69556380D01*
X175147095Y-70032571D02*
X175480428Y-70032571D01*
X175623285Y-70556380D02*
X175147095Y-70556380D01*
X175147095Y-69556380D01*
X175623285Y-69556380D01*
X169045047Y-137342571D02*
X169187904Y-137390190D01*
X169235523Y-137437809D01*
X169283142Y-137533047D01*
X169283142Y-137675904D01*
X169235523Y-137771142D01*
X169187904Y-137818761D01*
X169092666Y-137866380D01*
X168711714Y-137866380D01*
X168711714Y-136866380D01*
X169045047Y-136866380D01*
X169140285Y-136914000D01*
X169187904Y-136961619D01*
X169235523Y-137056857D01*
X169235523Y-137152095D01*
X169187904Y-137247333D01*
X169140285Y-137294952D01*
X169045047Y-137342571D01*
X168711714Y-137342571D01*
X169616476Y-136866380D02*
X170283142Y-136866380D01*
X169616476Y-137866380D01*
X170283142Y-137866380D01*
X171187904Y-137866380D02*
X170616476Y-137866380D01*
X170902190Y-137866380D02*
X170902190Y-136866380D01*
X170806952Y-137009238D01*
X170711714Y-137104476D01*
X170616476Y-137152095D01*
D10*
X134778714Y-121271333D02*
X134816809Y-121309428D01*
X134854904Y-121423714D01*
X134854904Y-121499904D01*
X134816809Y-121614190D01*
X134740619Y-121690380D01*
X134664428Y-121728476D01*
X134512047Y-121766571D01*
X134397761Y-121766571D01*
X134245380Y-121728476D01*
X134169190Y-121690380D01*
X134093000Y-121614190D01*
X134054904Y-121499904D01*
X134054904Y-121423714D01*
X134093000Y-121309428D01*
X134131095Y-121271333D01*
X134854904Y-120509428D02*
X134854904Y-120966571D01*
X134854904Y-120738000D02*
X134054904Y-120738000D01*
X134169190Y-120814190D01*
X134245380Y-120890380D01*
X134283476Y-120966571D01*
X145192714Y-121311333D02*
X145230809Y-121349428D01*
X145268904Y-121463714D01*
X145268904Y-121539904D01*
X145230809Y-121654190D01*
X145154619Y-121730380D01*
X145078428Y-121768476D01*
X144926047Y-121806571D01*
X144811761Y-121806571D01*
X144659380Y-121768476D01*
X144583190Y-121730380D01*
X144507000Y-121654190D01*
X144468904Y-121539904D01*
X144468904Y-121463714D01*
X144507000Y-121349428D01*
X144545095Y-121311333D01*
X144545095Y-121006571D02*
X144507000Y-120968476D01*
X144468904Y-120892285D01*
X144468904Y-120701809D01*
X144507000Y-120625619D01*
X144545095Y-120587523D01*
X144621285Y-120549428D01*
X144697476Y-120549428D01*
X144811761Y-120587523D01*
X145268904Y-121044666D01*
X145268904Y-120549428D01*
D12*
X142031998Y-147821626D02*
X142180702Y-147797901D01*
X142391895Y-147687961D01*
X142454384Y-147601746D01*
X142474635Y-147537519D01*
X142472897Y-147431054D01*
X142428921Y-147346577D01*
X142342707Y-147284088D01*
X142278480Y-147263837D01*
X142172015Y-147265575D01*
X141981072Y-147311288D01*
X141874607Y-147313026D01*
X141810380Y-147292775D01*
X141724166Y-147230286D01*
X141680190Y-147145809D01*
X141678452Y-147039343D01*
X141698703Y-146975117D01*
X141761192Y-146888902D01*
X141972385Y-146778962D01*
X142121089Y-146755236D01*
X142994799Y-146783575D02*
X143143503Y-146759850D01*
X143207730Y-146780101D01*
X143293944Y-146842590D01*
X143359908Y-146969306D01*
X143361646Y-147075771D01*
X143341395Y-147139997D01*
X143278906Y-147226212D01*
X142940997Y-147402116D01*
X142479248Y-146515106D01*
X142774919Y-146361189D01*
X142881384Y-146359452D01*
X142945611Y-146379702D01*
X143031825Y-146442192D01*
X143075801Y-146526669D01*
X143077539Y-146633134D01*
X143057288Y-146697361D01*
X142994799Y-146783575D01*
X142699129Y-146937492D01*
X144292633Y-146698499D02*
X143785769Y-146962356D01*
X144039201Y-146830428D02*
X143577452Y-145943417D01*
X143558939Y-146114109D01*
X143518438Y-146242562D01*
X143455949Y-146328777D01*
X145137405Y-146258739D02*
X144630542Y-146522595D01*
X144883973Y-146390667D02*
X144422225Y-145503656D01*
X144403711Y-145674348D01*
X144363210Y-145802801D01*
X144300721Y-145889016D01*
X145224758Y-145085884D02*
X145309235Y-145041908D01*
X145415701Y-145040170D01*
X145479927Y-145060421D01*
X145566142Y-145122910D01*
X145696333Y-145269876D01*
X145806273Y-145481069D01*
X145851986Y-145672012D01*
X145853724Y-145778477D01*
X145833473Y-145842704D01*
X145770984Y-145928918D01*
X145686507Y-145972894D01*
X145580042Y-145974632D01*
X145515815Y-145954381D01*
X145429600Y-145891892D01*
X145299410Y-145744926D01*
X145189469Y-145533733D01*
X145143756Y-145342790D01*
X145142018Y-145236325D01*
X145162269Y-145172098D01*
X145224758Y-145085884D01*
X146069530Y-144646123D02*
X146154008Y-144602147D01*
X146260473Y-144600410D01*
X146324700Y-144620660D01*
X146410914Y-144683149D01*
X146541105Y-144830116D01*
X146651045Y-145041309D01*
X146696759Y-145232251D01*
X146698496Y-145338716D01*
X146678245Y-145402943D01*
X146615756Y-145489158D01*
X146531279Y-145533134D01*
X146424814Y-145534871D01*
X146360587Y-145514621D01*
X146274372Y-145452132D01*
X146144182Y-145305165D01*
X146034242Y-145093972D01*
X145988528Y-144903030D01*
X145986791Y-144796564D01*
X146007041Y-144732338D01*
X146069530Y-144646123D01*
X149397721Y-148460295D02*
X148935973Y-147573285D01*
X149904585Y-148196439D02*
X149260581Y-147887468D01*
X149442836Y-147309428D02*
X149199829Y-148080148D01*
D10*
X144587735Y-148832928D02*
X144218336Y-148123319D01*
X144387290Y-148035367D01*
X144506253Y-148016386D01*
X144609016Y-148048787D01*
X144677988Y-148098779D01*
X144782140Y-148216352D01*
X144834912Y-148317724D01*
X144871482Y-148470478D01*
X144872872Y-148555651D01*
X144840471Y-148658413D01*
X144756689Y-148744975D01*
X144587735Y-148832928D01*
X145669043Y-148270034D02*
X145263553Y-148481119D01*
X145466298Y-148375576D02*
X145096899Y-147665968D01*
X145082088Y-147802521D01*
X145049688Y-147905284D01*
X144999696Y-147974256D01*
D12*
X131011021Y-147821626D02*
X131159725Y-147797901D01*
X131370918Y-147687961D01*
X131433407Y-147601746D01*
X131453658Y-147537519D01*
X131451920Y-147431054D01*
X131407944Y-147346577D01*
X131321730Y-147284088D01*
X131257503Y-147263837D01*
X131151038Y-147265575D01*
X130960095Y-147311288D01*
X130853630Y-147313026D01*
X130789403Y-147292775D01*
X130703189Y-147230286D01*
X130659213Y-147145809D01*
X130657475Y-147039343D01*
X130677726Y-146975117D01*
X130740215Y-146888902D01*
X130951408Y-146778962D01*
X131100112Y-146755236D01*
X131973822Y-146783575D02*
X132122526Y-146759850D01*
X132186753Y-146780101D01*
X132272967Y-146842590D01*
X132338931Y-146969306D01*
X132340669Y-147075771D01*
X132320418Y-147139997D01*
X132257929Y-147226212D01*
X131920020Y-147402116D01*
X131458271Y-146515106D01*
X131753942Y-146361189D01*
X131860407Y-146359452D01*
X131924634Y-146379702D01*
X132010848Y-146442192D01*
X132054824Y-146526669D01*
X132056562Y-146633134D01*
X132036311Y-146697361D01*
X131973822Y-146783575D01*
X131678152Y-146937492D01*
X133271656Y-146698499D02*
X132764792Y-146962356D01*
X133018224Y-146830428D02*
X132556475Y-145943417D01*
X132537962Y-146114109D01*
X132497461Y-146242562D01*
X132434972Y-146328777D01*
X134116428Y-146258739D02*
X133609565Y-146522595D01*
X133862996Y-146390667D02*
X133401248Y-145503656D01*
X133382734Y-145674348D01*
X133342233Y-145802801D01*
X133279744Y-145889016D01*
X134203781Y-145085884D02*
X134288258Y-145041908D01*
X134394724Y-145040170D01*
X134458950Y-145060421D01*
X134545165Y-145122910D01*
X134675356Y-145269876D01*
X134785296Y-145481069D01*
X134831009Y-145672012D01*
X134832747Y-145778477D01*
X134812496Y-145842704D01*
X134750007Y-145928918D01*
X134665530Y-145972894D01*
X134559065Y-145974632D01*
X134494838Y-145954381D01*
X134408623Y-145891892D01*
X134278433Y-145744926D01*
X134168492Y-145533733D01*
X134122779Y-145342790D01*
X134121041Y-145236325D01*
X134141292Y-145172098D01*
X134203781Y-145085884D01*
X135048553Y-144646123D02*
X135133031Y-144602147D01*
X135239496Y-144600410D01*
X135303723Y-144620660D01*
X135389937Y-144683149D01*
X135520128Y-144830116D01*
X135630068Y-145041309D01*
X135675782Y-145232251D01*
X135677519Y-145338716D01*
X135657268Y-145402943D01*
X135594779Y-145489158D01*
X135510302Y-145533134D01*
X135403837Y-145534871D01*
X135339610Y-145514621D01*
X135253395Y-145452132D01*
X135123205Y-145305165D01*
X135013265Y-145093972D01*
X134967551Y-144903030D01*
X134965814Y-144796564D01*
X134986064Y-144732338D01*
X135048553Y-144646123D01*
D10*
X133566758Y-148832928D02*
X133197359Y-148123319D01*
X133366313Y-148035367D01*
X133485276Y-148016386D01*
X133588039Y-148048787D01*
X133657011Y-148098779D01*
X133761163Y-148216352D01*
X133813935Y-148317724D01*
X133850505Y-148470478D01*
X133851895Y-148555651D01*
X133819494Y-148658413D01*
X133735712Y-148744975D01*
X133566758Y-148832928D01*
X133908357Y-147839092D02*
X133924558Y-147787711D01*
X133974549Y-147718739D01*
X134143504Y-147630787D01*
X134228676Y-147629397D01*
X134280057Y-147645597D01*
X134349029Y-147695589D01*
X134384210Y-147763171D01*
X134403190Y-147882134D01*
X134208785Y-148498709D01*
X134648066Y-148270034D01*
D12*
X138376744Y-148460295D02*
X137914996Y-147573285D01*
X138883608Y-148196439D02*
X138239604Y-147887468D01*
X138421859Y-147309428D02*
X138178852Y-148080148D01*
X138938095Y-124928380D02*
X138938095Y-125737904D01*
X138985714Y-125833142D01*
X139033333Y-125880761D01*
X139128571Y-125928380D01*
X139319047Y-125928380D01*
X139414285Y-125880761D01*
X139461904Y-125833142D01*
X139509523Y-125737904D01*
X139509523Y-124928380D01*
X139938095Y-125023619D02*
X139985714Y-124976000D01*
X140080952Y-124928380D01*
X140319047Y-124928380D01*
X140414285Y-124976000D01*
X140461904Y-125023619D01*
X140509523Y-125118857D01*
X140509523Y-125214095D01*
X140461904Y-125356952D01*
X139890476Y-125928380D01*
X140509523Y-125928380D01*
X135319047Y-94900761D02*
X135461904Y-94948380D01*
X135700000Y-94948380D01*
X135795238Y-94900761D01*
X135842857Y-94853142D01*
X135890476Y-94757904D01*
X135890476Y-94662666D01*
X135842857Y-94567428D01*
X135795238Y-94519809D01*
X135700000Y-94472190D01*
X135509523Y-94424571D01*
X135414285Y-94376952D01*
X135366666Y-94329333D01*
X135319047Y-94234095D01*
X135319047Y-94138857D01*
X135366666Y-94043619D01*
X135414285Y-93996000D01*
X135509523Y-93948380D01*
X135747619Y-93948380D01*
X135890476Y-93996000D01*
X136319047Y-94948380D02*
X136319047Y-93948380D01*
X136700000Y-93948380D01*
X136795238Y-93996000D01*
X136842857Y-94043619D01*
X136890476Y-94138857D01*
X136890476Y-94281714D01*
X136842857Y-94376952D01*
X136795238Y-94424571D01*
X136700000Y-94472190D01*
X136319047Y-94472190D01*
X137319047Y-94948380D02*
X137319047Y-93948380D01*
X137557142Y-95043619D02*
X138319047Y-95043619D01*
X138557142Y-94948380D02*
X138557142Y-93948380D01*
X138795238Y-93948380D01*
X138938095Y-93996000D01*
X139033333Y-94091238D01*
X139080952Y-94186476D01*
X139128571Y-94376952D01*
X139128571Y-94519809D01*
X139080952Y-94710285D01*
X139033333Y-94805523D01*
X138938095Y-94900761D01*
X138795238Y-94948380D01*
X138557142Y-94948380D01*
X139557142Y-94948380D02*
X139557142Y-93948380D01*
X139985714Y-94900761D02*
X140128571Y-94948380D01*
X140366666Y-94948380D01*
X140461904Y-94900761D01*
X140509523Y-94853142D01*
X140557142Y-94757904D01*
X140557142Y-94662666D01*
X140509523Y-94567428D01*
X140461904Y-94519809D01*
X140366666Y-94472190D01*
X140176190Y-94424571D01*
X140080952Y-94376952D01*
X140033333Y-94329333D01*
X139985714Y-94234095D01*
X139985714Y-94138857D01*
X140033333Y-94043619D01*
X140080952Y-93996000D01*
X140176190Y-93948380D01*
X140414285Y-93948380D01*
X140557142Y-93996000D01*
X140985714Y-94948380D02*
X140985714Y-93948380D01*
X141366666Y-93948380D01*
X141461904Y-93996000D01*
X141509523Y-94043619D01*
X141557142Y-94138857D01*
X141557142Y-94281714D01*
X141509523Y-94376952D01*
X141461904Y-94424571D01*
X141366666Y-94472190D01*
X140985714Y-94472190D01*
X142461904Y-94948380D02*
X141985714Y-94948380D01*
X141985714Y-93948380D01*
X142747619Y-94662666D02*
X143223809Y-94662666D01*
X142652380Y-94948380D02*
X142985714Y-93948380D01*
X143319047Y-94948380D01*
X143842857Y-94472190D02*
X143842857Y-94948380D01*
X143509523Y-93948380D02*
X143842857Y-94472190D01*
X144176190Y-93948380D01*
X152006761Y-136386333D02*
X152054380Y-136243476D01*
X152054380Y-136005380D01*
X152006761Y-135910142D01*
X151959142Y-135862523D01*
X151863904Y-135814904D01*
X151768666Y-135814904D01*
X151673428Y-135862523D01*
X151625809Y-135910142D01*
X151578190Y-136005380D01*
X151530571Y-136195857D01*
X151482952Y-136291095D01*
X151435333Y-136338714D01*
X151340095Y-136386333D01*
X151244857Y-136386333D01*
X151149619Y-136338714D01*
X151102000Y-136291095D01*
X151054380Y-136195857D01*
X151054380Y-135957761D01*
X151102000Y-135814904D01*
X151054380Y-135481571D02*
X152054380Y-135243476D01*
X151340095Y-135053000D01*
X152054380Y-134862523D01*
X151054380Y-134624428D01*
X151054380Y-134338714D02*
X151054380Y-133719666D01*
X151435333Y-134053000D01*
X151435333Y-133910142D01*
X151482952Y-133814904D01*
X151530571Y-133767285D01*
X151625809Y-133719666D01*
X151863904Y-133719666D01*
X151959142Y-133767285D01*
X152006761Y-133814904D01*
X152054380Y-133910142D01*
X152054380Y-134195857D01*
X152006761Y-134291095D01*
X151959142Y-134338714D01*
X161785761Y-131433333D02*
X161833380Y-131290476D01*
X161833380Y-131052380D01*
X161785761Y-130957142D01*
X161738142Y-130909523D01*
X161642904Y-130861904D01*
X161547666Y-130861904D01*
X161452428Y-130909523D01*
X161404809Y-130957142D01*
X161357190Y-131052380D01*
X161309571Y-131242857D01*
X161261952Y-131338095D01*
X161214333Y-131385714D01*
X161119095Y-131433333D01*
X161023857Y-131433333D01*
X160928619Y-131385714D01*
X160881000Y-131338095D01*
X160833380Y-131242857D01*
X160833380Y-131004761D01*
X160881000Y-130861904D01*
X160833380Y-130528571D02*
X161833380Y-130290476D01*
X161119095Y-130100000D01*
X161833380Y-129909523D01*
X160833380Y-129671428D01*
X161166714Y-128861904D02*
X161833380Y-128861904D01*
X160785761Y-129100000D02*
X161500047Y-129338095D01*
X161500047Y-128719047D01*
X122150285Y-119848380D02*
X122150285Y-120657904D01*
X122197904Y-120753142D01*
X122245523Y-120800761D01*
X122340761Y-120848380D01*
X122531238Y-120848380D01*
X122626476Y-120800761D01*
X122674095Y-120753142D01*
X122721714Y-120657904D01*
X122721714Y-119848380D01*
X123197904Y-120848380D02*
X123197904Y-119848380D01*
X123578857Y-119848380D01*
X123674095Y-119896000D01*
X123721714Y-119943619D01*
X123769333Y-120038857D01*
X123769333Y-120181714D01*
X123721714Y-120276952D01*
X123674095Y-120324571D01*
X123578857Y-120372190D01*
X123197904Y-120372190D01*
X123340761Y-127317333D02*
X123388380Y-127174476D01*
X123388380Y-126936380D01*
X123340761Y-126841142D01*
X123293142Y-126793523D01*
X123197904Y-126745904D01*
X123102666Y-126745904D01*
X123007428Y-126793523D01*
X122959809Y-126841142D01*
X122912190Y-126936380D01*
X122864571Y-127126857D01*
X122816952Y-127222095D01*
X122769333Y-127269714D01*
X122674095Y-127317333D01*
X122578857Y-127317333D01*
X122483619Y-127269714D01*
X122436000Y-127222095D01*
X122388380Y-127126857D01*
X122388380Y-126888761D01*
X122436000Y-126745904D01*
X122388380Y-126412571D02*
X123388380Y-126174476D01*
X122674095Y-125984000D01*
X123388380Y-125793523D01*
X122388380Y-125555428D01*
X122388380Y-124698285D02*
X122388380Y-125174476D01*
X122864571Y-125222095D01*
X122816952Y-125174476D01*
X122769333Y-125079238D01*
X122769333Y-124841142D01*
X122816952Y-124745904D01*
X122864571Y-124698285D01*
X122959809Y-124650666D01*
X123197904Y-124650666D01*
X123293142Y-124698285D01*
X123340761Y-124745904D01*
X123388380Y-124841142D01*
X123388380Y-125079238D01*
X123340761Y-125174476D01*
X123293142Y-125222095D01*
X122150285Y-146248380D02*
X122150285Y-145248380D01*
X122388380Y-145248380D01*
X122531238Y-145296000D01*
X122626476Y-145391238D01*
X122674095Y-145486476D01*
X122721714Y-145676952D01*
X122721714Y-145819809D01*
X122674095Y-146010285D01*
X122626476Y-146105523D01*
X122531238Y-146200761D01*
X122388380Y-146248380D01*
X122150285Y-146248380D01*
X123150285Y-146248380D02*
X123150285Y-145248380D01*
X123721714Y-146248380D01*
X123721714Y-145248380D01*
X123340761Y-141541333D02*
X123388380Y-141398476D01*
X123388380Y-141160380D01*
X123340761Y-141065142D01*
X123293142Y-141017523D01*
X123197904Y-140969904D01*
X123102666Y-140969904D01*
X123007428Y-141017523D01*
X122959809Y-141065142D01*
X122912190Y-141160380D01*
X122864571Y-141350857D01*
X122816952Y-141446095D01*
X122769333Y-141493714D01*
X122674095Y-141541333D01*
X122578857Y-141541333D01*
X122483619Y-141493714D01*
X122436000Y-141446095D01*
X122388380Y-141350857D01*
X122388380Y-141112761D01*
X122436000Y-140969904D01*
X122388380Y-140636571D02*
X123388380Y-140398476D01*
X122674095Y-140208000D01*
X123388380Y-140017523D01*
X122388380Y-139779428D01*
X122388380Y-138969904D02*
X122388380Y-139160380D01*
X122436000Y-139255619D01*
X122483619Y-139303238D01*
X122626476Y-139398476D01*
X122816952Y-139446095D01*
X123197904Y-139446095D01*
X123293142Y-139398476D01*
X123340761Y-139350857D01*
X123388380Y-139255619D01*
X123388380Y-139065142D01*
X123340761Y-138969904D01*
X123293142Y-138922285D01*
X123197904Y-138874666D01*
X122959809Y-138874666D01*
X122864571Y-138922285D01*
X122816952Y-138969904D01*
X122769333Y-139065142D01*
X122769333Y-139255619D01*
X122816952Y-139350857D01*
X122864571Y-139398476D01*
X122959809Y-139446095D01*
X111132952Y-133548380D02*
X110656761Y-133548380D01*
X110656761Y-132548380D01*
X111799619Y-133024571D02*
X111466285Y-133024571D01*
X111466285Y-133548380D02*
X111466285Y-132548380D01*
X111942476Y-132548380D01*
X116228761Y-134429333D02*
X116276380Y-134286476D01*
X116276380Y-134048380D01*
X116228761Y-133953142D01*
X116181142Y-133905523D01*
X116085904Y-133857904D01*
X115990666Y-133857904D01*
X115895428Y-133905523D01*
X115847809Y-133953142D01*
X115800190Y-134048380D01*
X115752571Y-134238857D01*
X115704952Y-134334095D01*
X115657333Y-134381714D01*
X115562095Y-134429333D01*
X115466857Y-134429333D01*
X115371619Y-134381714D01*
X115324000Y-134334095D01*
X115276380Y-134238857D01*
X115276380Y-134000761D01*
X115324000Y-133857904D01*
X115276380Y-133524571D02*
X116276380Y-133286476D01*
X115562095Y-133096000D01*
X116276380Y-132905523D01*
X115276380Y-132667428D01*
X115276380Y-132381714D02*
X115276380Y-131715047D01*
X116276380Y-132143619D01*
X134548571Y-133548380D02*
X134215238Y-133072190D01*
X133977142Y-133548380D02*
X133977142Y-132548380D01*
X134358095Y-132548380D01*
X134453333Y-132596000D01*
X134500952Y-132643619D01*
X134548571Y-132738857D01*
X134548571Y-132881714D01*
X134500952Y-132976952D01*
X134453333Y-133024571D01*
X134358095Y-133072190D01*
X133977142Y-133072190D01*
X134834285Y-132548380D02*
X135405714Y-132548380D01*
X135120000Y-133548380D02*
X135120000Y-132548380D01*
X130452761Y-134429333D02*
X130500380Y-134286476D01*
X130500380Y-134048380D01*
X130452761Y-133953142D01*
X130405142Y-133905523D01*
X130309904Y-133857904D01*
X130214666Y-133857904D01*
X130119428Y-133905523D01*
X130071809Y-133953142D01*
X130024190Y-134048380D01*
X129976571Y-134238857D01*
X129928952Y-134334095D01*
X129881333Y-134381714D01*
X129786095Y-134429333D01*
X129690857Y-134429333D01*
X129595619Y-134381714D01*
X129548000Y-134334095D01*
X129500380Y-134238857D01*
X129500380Y-134000761D01*
X129548000Y-133857904D01*
X129500380Y-133524571D02*
X130500380Y-133286476D01*
X129786095Y-133096000D01*
X130500380Y-132905523D01*
X129500380Y-132667428D01*
X129928952Y-132143619D02*
X129881333Y-132238857D01*
X129833714Y-132286476D01*
X129738476Y-132334095D01*
X129690857Y-132334095D01*
X129595619Y-132286476D01*
X129548000Y-132238857D01*
X129500380Y-132143619D01*
X129500380Y-131953142D01*
X129548000Y-131857904D01*
X129595619Y-131810285D01*
X129690857Y-131762666D01*
X129738476Y-131762666D01*
X129833714Y-131810285D01*
X129881333Y-131857904D01*
X129928952Y-131953142D01*
X129928952Y-132143619D01*
X129976571Y-132238857D01*
X130024190Y-132286476D01*
X130119428Y-132334095D01*
X130309904Y-132334095D01*
X130405142Y-132286476D01*
X130452761Y-132238857D01*
X130500380Y-132143619D01*
X130500380Y-131953142D01*
X130452761Y-131857904D01*
X130405142Y-131810285D01*
X130309904Y-131762666D01*
X130119428Y-131762666D01*
X130024190Y-131810285D01*
X129976571Y-131857904D01*
X129928952Y-131953142D01*
M02*
