G04 #@! TF.GenerationSoftware,KiCad,Pcbnew,(5.1.9-0-10_14)*
G04 #@! TF.CreationDate,2021-02-11T14:19:42-08:00*
G04 #@! TF.ProjectId,system,73797374-656d-42e6-9b69-6361645f7063,rev?*
G04 #@! TF.SameCoordinates,Original*
G04 #@! TF.FileFunction,Legend,Bot*
G04 #@! TF.FilePolarity,Positive*
%FSLAX46Y46*%
G04 Gerber Fmt 4.6, Leading zero omitted, Abs format (unit mm)*
G04 Created by KiCad (PCBNEW (5.1.9-0-10_14)) date 2021-02-11 14:19:42*
%MOMM*%
%LPD*%
G01*
G04 APERTURE LIST*
%ADD10C,0.254000*%
%ADD11C,0.127000*%
%ADD12C,0.150000*%
%ADD13C,0.100000*%
%ADD14C,0.120000*%
%ADD15C,3.851600*%
%ADD16C,1.851600*%
%ADD17C,1.401600*%
%ADD18C,0.609600*%
%ADD19O,1.801600X1.801600*%
%ADD20C,1.801600*%
%ADD21C,5.501599*%
%ADD22C,5.501600*%
%ADD23C,1.701600*%
%ADD24O,1.701600X1.701600*%
%ADD25C,1.625600*%
%ADD26C,2.201600*%
%ADD27C,1.621600*%
%ADD28C,2.101600*%
G04 APERTURE END LIST*
D10*
X221261214Y-127465666D02*
X220656452Y-127465666D01*
X221382166Y-127828523D02*
X220958833Y-126558523D01*
X220535500Y-127828523D01*
X220112166Y-127828523D02*
X220112166Y-126981857D01*
X220112166Y-127223761D02*
X220051690Y-127102809D01*
X219991214Y-127042333D01*
X219870261Y-126981857D01*
X219749309Y-126981857D01*
X218781690Y-127828523D02*
X218781690Y-126558523D01*
X218781690Y-127768047D02*
X218902642Y-127828523D01*
X219144547Y-127828523D01*
X219265500Y-127768047D01*
X219325976Y-127707571D01*
X219386452Y-127586619D01*
X219386452Y-127223761D01*
X219325976Y-127102809D01*
X219265500Y-127042333D01*
X219144547Y-126981857D01*
X218902642Y-126981857D01*
X218781690Y-127042333D01*
X217632642Y-126981857D02*
X217632642Y-127828523D01*
X218176928Y-126981857D02*
X218176928Y-127647095D01*
X218116452Y-127768047D01*
X217995500Y-127828523D01*
X217814071Y-127828523D01*
X217693119Y-127768047D01*
X217632642Y-127707571D01*
X217027880Y-127828523D02*
X217027880Y-126558523D01*
X217027880Y-127042333D02*
X216906928Y-126981857D01*
X216665023Y-126981857D01*
X216544071Y-127042333D01*
X216483595Y-127102809D01*
X216423119Y-127223761D01*
X216423119Y-127586619D01*
X216483595Y-127707571D01*
X216544071Y-127768047D01*
X216665023Y-127828523D01*
X216906928Y-127828523D01*
X217027880Y-127768047D01*
X215697404Y-127828523D02*
X215818357Y-127768047D01*
X215878833Y-127707571D01*
X215939309Y-127586619D01*
X215939309Y-127223761D01*
X215878833Y-127102809D01*
X215818357Y-127042333D01*
X215697404Y-126981857D01*
X215515976Y-126981857D01*
X215395023Y-127042333D01*
X215334547Y-127102809D01*
X215274071Y-127223761D01*
X215274071Y-127586619D01*
X215334547Y-127707571D01*
X215395023Y-127768047D01*
X215515976Y-127828523D01*
X215697404Y-127828523D01*
X214850738Y-126981857D02*
X214548357Y-127828523D01*
X214245976Y-126981857D02*
X214548357Y-127828523D01*
X214669309Y-128130904D01*
X214729785Y-128191380D01*
X214850738Y-128251857D01*
X212068833Y-127707571D02*
X212129309Y-127768047D01*
X212310738Y-127828523D01*
X212431690Y-127828523D01*
X212613119Y-127768047D01*
X212734071Y-127647095D01*
X212794547Y-127526142D01*
X212855023Y-127284238D01*
X212855023Y-127102809D01*
X212794547Y-126860904D01*
X212734071Y-126739952D01*
X212613119Y-126619000D01*
X212431690Y-126558523D01*
X212310738Y-126558523D01*
X212129309Y-126619000D01*
X212068833Y-126679476D01*
X211524547Y-127163285D02*
X211101214Y-127163285D01*
X210919785Y-127828523D02*
X211524547Y-127828523D01*
X211524547Y-126558523D01*
X210919785Y-126558523D01*
D11*
X223656071Y-132170714D02*
X223656071Y-131408714D01*
X223474642Y-131408714D01*
X223365785Y-131445000D01*
X223293214Y-131517571D01*
X223256928Y-131590142D01*
X223220642Y-131735285D01*
X223220642Y-131844142D01*
X223256928Y-131989285D01*
X223293214Y-132061857D01*
X223365785Y-132134428D01*
X223474642Y-132170714D01*
X223656071Y-132170714D01*
X222603785Y-132134428D02*
X222676357Y-132170714D01*
X222821500Y-132170714D01*
X222894071Y-132134428D01*
X222930357Y-132061857D01*
X222930357Y-131771571D01*
X222894071Y-131699000D01*
X222821500Y-131662714D01*
X222676357Y-131662714D01*
X222603785Y-131699000D01*
X222567500Y-131771571D01*
X222567500Y-131844142D01*
X222930357Y-131916714D01*
X222277214Y-132134428D02*
X222204642Y-132170714D01*
X222059500Y-132170714D01*
X221986928Y-132134428D01*
X221950642Y-132061857D01*
X221950642Y-132025571D01*
X221986928Y-131953000D01*
X222059500Y-131916714D01*
X222168357Y-131916714D01*
X222240928Y-131880428D01*
X222277214Y-131807857D01*
X222277214Y-131771571D01*
X222240928Y-131699000D01*
X222168357Y-131662714D01*
X222059500Y-131662714D01*
X221986928Y-131699000D01*
X221624071Y-132170714D02*
X221624071Y-131662714D01*
X221624071Y-131408714D02*
X221660357Y-131445000D01*
X221624071Y-131481285D01*
X221587785Y-131445000D01*
X221624071Y-131408714D01*
X221624071Y-131481285D01*
X220934642Y-131662714D02*
X220934642Y-132279571D01*
X220970928Y-132352142D01*
X221007214Y-132388428D01*
X221079785Y-132424714D01*
X221188642Y-132424714D01*
X221261214Y-132388428D01*
X220934642Y-132134428D02*
X221007214Y-132170714D01*
X221152357Y-132170714D01*
X221224928Y-132134428D01*
X221261214Y-132098142D01*
X221297500Y-132025571D01*
X221297500Y-131807857D01*
X221261214Y-131735285D01*
X221224928Y-131699000D01*
X221152357Y-131662714D01*
X221007214Y-131662714D01*
X220934642Y-131699000D01*
X220571785Y-131662714D02*
X220571785Y-132170714D01*
X220571785Y-131735285D02*
X220535500Y-131699000D01*
X220462928Y-131662714D01*
X220354071Y-131662714D01*
X220281500Y-131699000D01*
X220245214Y-131771571D01*
X220245214Y-132170714D01*
X219592071Y-132134428D02*
X219664642Y-132170714D01*
X219809785Y-132170714D01*
X219882357Y-132134428D01*
X219918642Y-132061857D01*
X219918642Y-131771571D01*
X219882357Y-131699000D01*
X219809785Y-131662714D01*
X219664642Y-131662714D01*
X219592071Y-131699000D01*
X219555785Y-131771571D01*
X219555785Y-131844142D01*
X219918642Y-131916714D01*
X218902642Y-132170714D02*
X218902642Y-131408714D01*
X218902642Y-132134428D02*
X218975214Y-132170714D01*
X219120357Y-132170714D01*
X219192928Y-132134428D01*
X219229214Y-132098142D01*
X219265500Y-132025571D01*
X219265500Y-131807857D01*
X219229214Y-131735285D01*
X219192928Y-131699000D01*
X219120357Y-131662714D01*
X218975214Y-131662714D01*
X218902642Y-131699000D01*
X217959214Y-132170714D02*
X217959214Y-131408714D01*
X217959214Y-131699000D02*
X217886642Y-131662714D01*
X217741500Y-131662714D01*
X217668928Y-131699000D01*
X217632642Y-131735285D01*
X217596357Y-131807857D01*
X217596357Y-132025571D01*
X217632642Y-132098142D01*
X217668928Y-132134428D01*
X217741500Y-132170714D01*
X217886642Y-132170714D01*
X217959214Y-132134428D01*
X217342357Y-131662714D02*
X217160928Y-132170714D01*
X216979500Y-131662714D02*
X217160928Y-132170714D01*
X217233500Y-132352142D01*
X217269785Y-132388428D01*
X217342357Y-132424714D01*
X215890928Y-131408714D02*
X215890928Y-131953000D01*
X215927214Y-132061857D01*
X215999785Y-132134428D01*
X216108642Y-132170714D01*
X216181214Y-132170714D01*
X215419214Y-132170714D02*
X215491785Y-132134428D01*
X215528071Y-132098142D01*
X215564357Y-132025571D01*
X215564357Y-131807857D01*
X215528071Y-131735285D01*
X215491785Y-131699000D01*
X215419214Y-131662714D01*
X215310357Y-131662714D01*
X215237785Y-131699000D01*
X215201500Y-131735285D01*
X215165214Y-131807857D01*
X215165214Y-132025571D01*
X215201500Y-132098142D01*
X215237785Y-132134428D01*
X215310357Y-132170714D01*
X215419214Y-132170714D01*
X214838642Y-132170714D02*
X214838642Y-131408714D01*
X214512071Y-132170714D02*
X214512071Y-131771571D01*
X214548357Y-131699000D01*
X214620928Y-131662714D01*
X214729785Y-131662714D01*
X214802357Y-131699000D01*
X214838642Y-131735285D01*
X214149214Y-131662714D02*
X214149214Y-132170714D01*
X214149214Y-131735285D02*
X214112928Y-131699000D01*
X214040357Y-131662714D01*
X213931500Y-131662714D01*
X213858928Y-131699000D01*
X213822642Y-131771571D01*
X213822642Y-132170714D01*
X213423500Y-132134428D02*
X213423500Y-132170714D01*
X213459785Y-132243285D01*
X213496071Y-132279571D01*
X212516357Y-132170714D02*
X212516357Y-131408714D01*
X212080928Y-132170714D01*
X212080928Y-131408714D01*
X211391500Y-132170714D02*
X211391500Y-131771571D01*
X211427785Y-131699000D01*
X211500357Y-131662714D01*
X211645500Y-131662714D01*
X211718071Y-131699000D01*
X211391500Y-132134428D02*
X211464071Y-132170714D01*
X211645500Y-132170714D01*
X211718071Y-132134428D01*
X211754357Y-132061857D01*
X211754357Y-131989285D01*
X211718071Y-131916714D01*
X211645500Y-131880428D01*
X211464071Y-131880428D01*
X211391500Y-131844142D01*
X211137500Y-131662714D02*
X210847214Y-131662714D01*
X211028642Y-131408714D02*
X211028642Y-132061857D01*
X210992357Y-132134428D01*
X210919785Y-132170714D01*
X210847214Y-132170714D01*
X210593214Y-132170714D02*
X210593214Y-131408714D01*
X210266642Y-132170714D02*
X210266642Y-131771571D01*
X210302928Y-131699000D01*
X210375500Y-131662714D01*
X210484357Y-131662714D01*
X210556928Y-131699000D01*
X210593214Y-131735285D01*
X209577214Y-132170714D02*
X209577214Y-131771571D01*
X209613500Y-131699000D01*
X209686071Y-131662714D01*
X209831214Y-131662714D01*
X209903785Y-131699000D01*
X209577214Y-132134428D02*
X209649785Y-132170714D01*
X209831214Y-132170714D01*
X209903785Y-132134428D01*
X209940071Y-132061857D01*
X209940071Y-131989285D01*
X209903785Y-131916714D01*
X209831214Y-131880428D01*
X209649785Y-131880428D01*
X209577214Y-131844142D01*
X209214357Y-131662714D02*
X209214357Y-132170714D01*
X209214357Y-131735285D02*
X209178071Y-131699000D01*
X209105500Y-131662714D01*
X208996642Y-131662714D01*
X208924071Y-131699000D01*
X208887785Y-131771571D01*
X208887785Y-132170714D01*
X208488642Y-132134428D02*
X208488642Y-132170714D01*
X208524928Y-132243285D01*
X208561214Y-132279571D01*
X220789500Y-133440714D02*
X220789500Y-133041571D01*
X220825785Y-132969000D01*
X220898357Y-132932714D01*
X221043500Y-132932714D01*
X221116071Y-132969000D01*
X220789500Y-133404428D02*
X220862071Y-133440714D01*
X221043500Y-133440714D01*
X221116071Y-133404428D01*
X221152357Y-133331857D01*
X221152357Y-133259285D01*
X221116071Y-133186714D01*
X221043500Y-133150428D01*
X220862071Y-133150428D01*
X220789500Y-133114142D01*
X220426642Y-132932714D02*
X220426642Y-133440714D01*
X220426642Y-133005285D02*
X220390357Y-132969000D01*
X220317785Y-132932714D01*
X220208928Y-132932714D01*
X220136357Y-132969000D01*
X220100071Y-133041571D01*
X220100071Y-133440714D01*
X219410642Y-133440714D02*
X219410642Y-132678714D01*
X219410642Y-133404428D02*
X219483214Y-133440714D01*
X219628357Y-133440714D01*
X219700928Y-133404428D01*
X219737214Y-133368142D01*
X219773500Y-133295571D01*
X219773500Y-133077857D01*
X219737214Y-133005285D01*
X219700928Y-132969000D01*
X219628357Y-132932714D01*
X219483214Y-132932714D01*
X219410642Y-132969000D01*
X218503500Y-133223000D02*
X218140642Y-133223000D01*
X218576071Y-133440714D02*
X218322071Y-132678714D01*
X218068071Y-133440714D01*
X217814071Y-132932714D02*
X217814071Y-133440714D01*
X217814071Y-133005285D02*
X217777785Y-132969000D01*
X217705214Y-132932714D01*
X217596357Y-132932714D01*
X217523785Y-132969000D01*
X217487500Y-133041571D01*
X217487500Y-133440714D01*
X216798071Y-133440714D02*
X216798071Y-132678714D01*
X216798071Y-133404428D02*
X216870642Y-133440714D01*
X217015785Y-133440714D01*
X217088357Y-133404428D01*
X217124642Y-133368142D01*
X217160928Y-133295571D01*
X217160928Y-133077857D01*
X217124642Y-133005285D01*
X217088357Y-132969000D01*
X217015785Y-132932714D01*
X216870642Y-132932714D01*
X216798071Y-132969000D01*
X216435214Y-133440714D02*
X216435214Y-132932714D01*
X216435214Y-133077857D02*
X216398928Y-133005285D01*
X216362642Y-132969000D01*
X216290071Y-132932714D01*
X216217500Y-132932714D01*
X215673214Y-133404428D02*
X215745785Y-133440714D01*
X215890928Y-133440714D01*
X215963500Y-133404428D01*
X215999785Y-133331857D01*
X215999785Y-133041571D01*
X215963500Y-132969000D01*
X215890928Y-132932714D01*
X215745785Y-132932714D01*
X215673214Y-132969000D01*
X215636928Y-133041571D01*
X215636928Y-133114142D01*
X215999785Y-133186714D01*
X215382928Y-132932714D02*
X215237785Y-133440714D01*
X215092642Y-133077857D01*
X214947500Y-133440714D01*
X214802357Y-132932714D01*
X213931500Y-133440714D02*
X213931500Y-132678714D01*
X213677500Y-133223000D01*
X213423500Y-132678714D01*
X213423500Y-133440714D01*
X212770357Y-133404428D02*
X212842928Y-133440714D01*
X212988071Y-133440714D01*
X213060642Y-133404428D01*
X213096928Y-133331857D01*
X213096928Y-133041571D01*
X213060642Y-132969000D01*
X212988071Y-132932714D01*
X212842928Y-132932714D01*
X212770357Y-132969000D01*
X212734071Y-133041571D01*
X212734071Y-133114142D01*
X213096928Y-133186714D01*
X212480071Y-132932714D02*
X212298642Y-133440714D01*
X212117214Y-132932714D02*
X212298642Y-133440714D01*
X212371214Y-133622142D01*
X212407500Y-133658428D01*
X212480071Y-133694714D01*
X211536642Y-133404428D02*
X211609214Y-133440714D01*
X211754357Y-133440714D01*
X211826928Y-133404428D01*
X211863214Y-133331857D01*
X211863214Y-133041571D01*
X211826928Y-132969000D01*
X211754357Y-132932714D01*
X211609214Y-132932714D01*
X211536642Y-132969000D01*
X211500357Y-133041571D01*
X211500357Y-133114142D01*
X211863214Y-133186714D01*
X211173785Y-133440714D02*
X211173785Y-132932714D01*
X211173785Y-133077857D02*
X211137500Y-133005285D01*
X211101214Y-132969000D01*
X211028642Y-132932714D01*
X210956071Y-132932714D01*
X226486357Y-137123714D02*
X226486357Y-137740571D01*
X226522642Y-137813142D01*
X226558928Y-137849428D01*
X226631500Y-137885714D01*
X226740357Y-137885714D01*
X226812928Y-137849428D01*
X226486357Y-137595428D02*
X226558928Y-137631714D01*
X226704071Y-137631714D01*
X226776642Y-137595428D01*
X226812928Y-137559142D01*
X226849214Y-137486571D01*
X226849214Y-137268857D01*
X226812928Y-137196285D01*
X226776642Y-137160000D01*
X226704071Y-137123714D01*
X226558928Y-137123714D01*
X226486357Y-137160000D01*
X226123500Y-137631714D02*
X226123500Y-137123714D01*
X226123500Y-136869714D02*
X226159785Y-136906000D01*
X226123500Y-136942285D01*
X226087214Y-136906000D01*
X226123500Y-136869714D01*
X226123500Y-136942285D01*
X225869500Y-137123714D02*
X225579214Y-137123714D01*
X225760642Y-136869714D02*
X225760642Y-137522857D01*
X225724357Y-137595428D01*
X225651785Y-137631714D01*
X225579214Y-137631714D01*
X225325214Y-137631714D02*
X225325214Y-136869714D01*
X224998642Y-137631714D02*
X224998642Y-137232571D01*
X225034928Y-137160000D01*
X225107500Y-137123714D01*
X225216357Y-137123714D01*
X225288928Y-137160000D01*
X225325214Y-137196285D01*
X224309214Y-137123714D02*
X224309214Y-137631714D01*
X224635785Y-137123714D02*
X224635785Y-137522857D01*
X224599500Y-137595428D01*
X224526928Y-137631714D01*
X224418071Y-137631714D01*
X224345500Y-137595428D01*
X224309214Y-137559142D01*
X223946357Y-137631714D02*
X223946357Y-136869714D01*
X223946357Y-137160000D02*
X223873785Y-137123714D01*
X223728642Y-137123714D01*
X223656071Y-137160000D01*
X223619785Y-137196285D01*
X223583500Y-137268857D01*
X223583500Y-137486571D01*
X223619785Y-137559142D01*
X223656071Y-137595428D01*
X223728642Y-137631714D01*
X223873785Y-137631714D01*
X223946357Y-137595428D01*
X223256928Y-137559142D02*
X223220642Y-137595428D01*
X223256928Y-137631714D01*
X223293214Y-137595428D01*
X223256928Y-137559142D01*
X223256928Y-137631714D01*
X222567500Y-137595428D02*
X222640071Y-137631714D01*
X222785214Y-137631714D01*
X222857785Y-137595428D01*
X222894071Y-137559142D01*
X222930357Y-137486571D01*
X222930357Y-137268857D01*
X222894071Y-137196285D01*
X222857785Y-137160000D01*
X222785214Y-137123714D01*
X222640071Y-137123714D01*
X222567500Y-137160000D01*
X222132071Y-137631714D02*
X222204642Y-137595428D01*
X222240928Y-137559142D01*
X222277214Y-137486571D01*
X222277214Y-137268857D01*
X222240928Y-137196285D01*
X222204642Y-137160000D01*
X222132071Y-137123714D01*
X222023214Y-137123714D01*
X221950642Y-137160000D01*
X221914357Y-137196285D01*
X221878071Y-137268857D01*
X221878071Y-137486571D01*
X221914357Y-137559142D01*
X221950642Y-137595428D01*
X222023214Y-137631714D01*
X222132071Y-137631714D01*
X221551500Y-137631714D02*
X221551500Y-137123714D01*
X221551500Y-137196285D02*
X221515214Y-137160000D01*
X221442642Y-137123714D01*
X221333785Y-137123714D01*
X221261214Y-137160000D01*
X221224928Y-137232571D01*
X221224928Y-137631714D01*
X221224928Y-137232571D02*
X221188642Y-137160000D01*
X221116071Y-137123714D01*
X221007214Y-137123714D01*
X220934642Y-137160000D01*
X220898357Y-137232571D01*
X220898357Y-137631714D01*
X219991214Y-136833428D02*
X220644357Y-137813142D01*
X219737214Y-137631714D02*
X219737214Y-137123714D01*
X219737214Y-137196285D02*
X219700928Y-137160000D01*
X219628357Y-137123714D01*
X219519500Y-137123714D01*
X219446928Y-137160000D01*
X219410642Y-137232571D01*
X219410642Y-137631714D01*
X219410642Y-137232571D02*
X219374357Y-137160000D01*
X219301785Y-137123714D01*
X219192928Y-137123714D01*
X219120357Y-137160000D01*
X219084071Y-137232571D01*
X219084071Y-137631714D01*
X218430928Y-137595428D02*
X218503500Y-137631714D01*
X218648642Y-137631714D01*
X218721214Y-137595428D01*
X218757500Y-137522857D01*
X218757500Y-137232571D01*
X218721214Y-137160000D01*
X218648642Y-137123714D01*
X218503500Y-137123714D01*
X218430928Y-137160000D01*
X218394642Y-137232571D01*
X218394642Y-137305142D01*
X218757500Y-137377714D01*
X218068071Y-137123714D02*
X218068071Y-137631714D01*
X218068071Y-137196285D02*
X218031785Y-137160000D01*
X217959214Y-137123714D01*
X217850357Y-137123714D01*
X217777785Y-137160000D01*
X217741500Y-137232571D01*
X217741500Y-137631714D01*
X217088357Y-137595428D02*
X217160928Y-137631714D01*
X217306071Y-137631714D01*
X217378642Y-137595428D01*
X217414928Y-137522857D01*
X217414928Y-137232571D01*
X217378642Y-137160000D01*
X217306071Y-137123714D01*
X217160928Y-137123714D01*
X217088357Y-137160000D01*
X217052071Y-137232571D01*
X217052071Y-137305142D01*
X217414928Y-137377714D01*
X216725500Y-137631714D02*
X216725500Y-136869714D01*
X216398928Y-137631714D02*
X216398928Y-137232571D01*
X216435214Y-137160000D01*
X216507785Y-137123714D01*
X216616642Y-137123714D01*
X216689214Y-137160000D01*
X216725500Y-137196285D01*
X215709500Y-137123714D02*
X215709500Y-137631714D01*
X216036071Y-137123714D02*
X216036071Y-137522857D01*
X215999785Y-137595428D01*
X215927214Y-137631714D01*
X215818357Y-137631714D01*
X215745785Y-137595428D01*
X215709500Y-137559142D01*
X215346642Y-137123714D02*
X215346642Y-137631714D01*
X215346642Y-137196285D02*
X215310357Y-137160000D01*
X215237785Y-137123714D01*
X215128928Y-137123714D01*
X215056357Y-137160000D01*
X215020071Y-137232571D01*
X215020071Y-137631714D01*
X214366928Y-137595428D02*
X214439500Y-137631714D01*
X214584642Y-137631714D01*
X214657214Y-137595428D01*
X214693500Y-137522857D01*
X214693500Y-137232571D01*
X214657214Y-137160000D01*
X214584642Y-137123714D01*
X214439500Y-137123714D01*
X214366928Y-137160000D01*
X214330642Y-137232571D01*
X214330642Y-137305142D01*
X214693500Y-137377714D01*
X214040357Y-136942285D02*
X214004071Y-136906000D01*
X213931500Y-136869714D01*
X213750071Y-136869714D01*
X213677500Y-136906000D01*
X213641214Y-136942285D01*
X213604928Y-137014857D01*
X213604928Y-137087428D01*
X213641214Y-137196285D01*
X214076642Y-137631714D01*
X213604928Y-137631714D01*
X213350928Y-136869714D02*
X212879214Y-136869714D01*
X213133214Y-137160000D01*
X213024357Y-137160000D01*
X212951785Y-137196285D01*
X212915500Y-137232571D01*
X212879214Y-137305142D01*
X212879214Y-137486571D01*
X212915500Y-137559142D01*
X212951785Y-137595428D01*
X213024357Y-137631714D01*
X213242071Y-137631714D01*
X213314642Y-137595428D01*
X213350928Y-137559142D01*
X212008357Y-136833428D02*
X212661500Y-137813142D01*
X211427785Y-137631714D02*
X211427785Y-137232571D01*
X211464071Y-137160000D01*
X211536642Y-137123714D01*
X211681785Y-137123714D01*
X211754357Y-137160000D01*
X211427785Y-137595428D02*
X211500357Y-137631714D01*
X211681785Y-137631714D01*
X211754357Y-137595428D01*
X211790642Y-137522857D01*
X211790642Y-137450285D01*
X211754357Y-137377714D01*
X211681785Y-137341428D01*
X211500357Y-137341428D01*
X211427785Y-137305142D01*
X211064928Y-137631714D02*
X211064928Y-137123714D01*
X211064928Y-137268857D02*
X211028642Y-137196285D01*
X210992357Y-137160000D01*
X210919785Y-137123714D01*
X210847214Y-137123714D01*
X210266642Y-137631714D02*
X210266642Y-136869714D01*
X210266642Y-137595428D02*
X210339214Y-137631714D01*
X210484357Y-137631714D01*
X210556928Y-137595428D01*
X210593214Y-137559142D01*
X210629500Y-137486571D01*
X210629500Y-137268857D01*
X210593214Y-137196285D01*
X210556928Y-137160000D01*
X210484357Y-137123714D01*
X210339214Y-137123714D01*
X210266642Y-137160000D01*
X209577214Y-137123714D02*
X209577214Y-137631714D01*
X209903785Y-137123714D02*
X209903785Y-137522857D01*
X209867500Y-137595428D01*
X209794928Y-137631714D01*
X209686071Y-137631714D01*
X209613500Y-137595428D01*
X209577214Y-137559142D01*
X209214357Y-137631714D02*
X209214357Y-136869714D01*
X209214357Y-137160000D02*
X209141785Y-137123714D01*
X208996642Y-137123714D01*
X208924071Y-137160000D01*
X208887785Y-137196285D01*
X208851500Y-137268857D01*
X208851500Y-137486571D01*
X208887785Y-137559142D01*
X208924071Y-137595428D01*
X208996642Y-137631714D01*
X209141785Y-137631714D01*
X209214357Y-137595428D01*
X208416071Y-137631714D02*
X208488642Y-137595428D01*
X208524928Y-137559142D01*
X208561214Y-137486571D01*
X208561214Y-137268857D01*
X208524928Y-137196285D01*
X208488642Y-137160000D01*
X208416071Y-137123714D01*
X208307214Y-137123714D01*
X208234642Y-137160000D01*
X208198357Y-137196285D01*
X208162071Y-137268857D01*
X208162071Y-137486571D01*
X208198357Y-137559142D01*
X208234642Y-137595428D01*
X208307214Y-137631714D01*
X208416071Y-137631714D01*
X207908071Y-137123714D02*
X207726642Y-137631714D01*
X207545214Y-137123714D02*
X207726642Y-137631714D01*
X207799214Y-137813142D01*
X207835500Y-137849428D01*
X207908071Y-137885714D01*
X207254928Y-137341428D02*
X206674357Y-137341428D01*
X205984928Y-137595428D02*
X206057500Y-137631714D01*
X206202642Y-137631714D01*
X206275214Y-137595428D01*
X206311500Y-137559142D01*
X206347785Y-137486571D01*
X206347785Y-137268857D01*
X206311500Y-137196285D01*
X206275214Y-137160000D01*
X206202642Y-137123714D01*
X206057500Y-137123714D01*
X205984928Y-137160000D01*
X205368071Y-137595428D02*
X205440642Y-137631714D01*
X205585785Y-137631714D01*
X205658357Y-137595428D01*
X205694642Y-137522857D01*
X205694642Y-137232571D01*
X205658357Y-137160000D01*
X205585785Y-137123714D01*
X205440642Y-137123714D01*
X205368071Y-137160000D01*
X205331785Y-137232571D01*
X205331785Y-137305142D01*
X205694642Y-137377714D01*
D12*
X184551928Y-118471904D02*
X184818595Y-118090952D01*
X185009071Y-118471904D02*
X185009071Y-117671904D01*
X184704309Y-117671904D01*
X184628119Y-117710000D01*
X184590023Y-117748095D01*
X184551928Y-117824285D01*
X184551928Y-117938571D01*
X184590023Y-118014761D01*
X184628119Y-118052857D01*
X184704309Y-118090952D01*
X185009071Y-118090952D01*
X184209071Y-118052857D02*
X183942404Y-118052857D01*
X183828119Y-118471904D02*
X184209071Y-118471904D01*
X184209071Y-117671904D01*
X183828119Y-117671904D01*
X183523357Y-118433809D02*
X183409071Y-118471904D01*
X183218595Y-118471904D01*
X183142404Y-118433809D01*
X183104309Y-118395714D01*
X183066214Y-118319523D01*
X183066214Y-118243333D01*
X183104309Y-118167142D01*
X183142404Y-118129047D01*
X183218595Y-118090952D01*
X183370976Y-118052857D01*
X183447166Y-118014761D01*
X183485261Y-117976666D01*
X183523357Y-117900476D01*
X183523357Y-117824285D01*
X183485261Y-117748095D01*
X183447166Y-117710000D01*
X183370976Y-117671904D01*
X183180500Y-117671904D01*
X183066214Y-117710000D01*
X182723357Y-118052857D02*
X182456690Y-118052857D01*
X182342404Y-118471904D02*
X182723357Y-118471904D01*
X182723357Y-117671904D01*
X182342404Y-117671904D01*
X182113833Y-117671904D02*
X181656690Y-117671904D01*
X181885261Y-118471904D02*
X181885261Y-117671904D01*
D13*
G36*
X181038500Y-118872000D02*
G01*
X180276500Y-118110000D01*
X181038500Y-117348000D01*
X181038500Y-118872000D01*
G37*
X181038500Y-118872000D02*
X180276500Y-118110000D01*
X181038500Y-117348000D01*
X181038500Y-118872000D01*
D14*
X160780000Y-95920000D02*
X118620000Y-95920000D01*
X118620000Y-109920000D02*
X118620000Y-95920000D01*
X123190000Y-115000000D02*
X123190000Y-109920000D01*
X125730000Y-115000000D02*
X125730000Y-109920000D01*
X128270000Y-115000000D02*
X128270000Y-109920000D01*
X130810000Y-115000000D02*
X130810000Y-109920000D01*
X133350000Y-115000000D02*
X133350000Y-109920000D01*
X135890000Y-115000000D02*
X135890000Y-109920000D01*
X138430000Y-115000000D02*
X138430000Y-109920000D01*
X140970000Y-115000000D02*
X140970000Y-109920000D01*
X143510000Y-115000000D02*
X143510000Y-109920000D01*
X146050000Y-115000000D02*
X146050000Y-109920000D01*
X148590000Y-115000000D02*
X148590000Y-109920000D01*
X151130000Y-115000000D02*
X151130000Y-109920000D01*
X153670000Y-115000000D02*
X153670000Y-109920000D01*
X156210000Y-115000000D02*
X156210000Y-109920000D01*
X160780000Y-109920000D02*
X118620000Y-109920000D01*
X160780000Y-109920000D02*
X160780000Y-95920000D01*
D13*
X171196000Y-106426000D02*
X177292000Y-106426000D01*
D12*
X172466000Y-81026000D02*
X176911000Y-81026000D01*
X171196000Y-87376000D02*
X171196000Y-82296000D01*
X172466000Y-81026000D02*
X171196000Y-82296000D01*
X172466000Y-108966000D02*
X171196000Y-107696000D01*
X172466000Y-101346000D02*
X171196000Y-102616000D01*
X172466000Y-101346000D02*
X176911000Y-101346000D01*
D13*
X171196000Y-83566000D02*
X177038000Y-83566000D01*
X171196000Y-86106000D02*
X177038000Y-86106000D01*
X171196000Y-91186000D02*
X177038000Y-91186000D01*
X171196000Y-96266000D02*
X177038000Y-96266000D01*
X171196000Y-98806000D02*
X177038000Y-98806000D01*
X171196000Y-103886000D02*
X177292000Y-103886000D01*
D12*
X172466000Y-88646000D02*
X171196000Y-87376000D01*
X172466000Y-88646000D02*
X171196000Y-89916000D01*
X171196000Y-92456000D02*
X171196000Y-89916000D01*
X172466000Y-88646000D02*
X176911000Y-88646000D01*
X172466000Y-93726000D02*
X171196000Y-92456000D01*
X172466000Y-93726000D02*
X176911000Y-93726000D01*
X172466000Y-93726000D02*
X171196000Y-94996000D01*
X172466000Y-101346000D02*
X171196000Y-100076000D01*
X171196000Y-100076000D02*
X171196000Y-94996000D01*
X171196000Y-107696000D02*
X171196000Y-102616000D01*
X172466000Y-108966000D02*
X176911000Y-108966000D01*
D14*
X113130000Y-121380000D02*
X112800000Y-121380000D01*
X113130000Y-114840000D02*
X113130000Y-121380000D01*
X112800000Y-114840000D02*
X113130000Y-114840000D01*
X110390000Y-121380000D02*
X110720000Y-121380000D01*
X110390000Y-114840000D02*
X110390000Y-121380000D01*
X110720000Y-114840000D02*
X110390000Y-114840000D01*
X106634000Y-116374000D02*
X106634000Y-119774000D01*
X106634000Y-114734000D02*
X106634000Y-115274000D01*
X109464000Y-121934000D02*
X109974000Y-121934000D01*
X109974000Y-121414000D02*
X109974000Y-121934000D01*
X109464000Y-121414000D02*
X109974000Y-121414000D01*
X106634000Y-120874000D02*
X106634000Y-121414000D01*
X109464000Y-114214000D02*
X109974000Y-114214000D01*
X109464000Y-114734000D02*
X109974000Y-114734000D01*
X106634000Y-121414000D02*
X106864000Y-121414000D01*
X102964000Y-114214000D02*
X106864000Y-114214000D01*
X109974000Y-114214000D02*
X109974000Y-114734000D01*
X102964000Y-121934000D02*
X106864000Y-121934000D01*
X102964000Y-114214000D02*
X102964000Y-121934000D01*
X106634000Y-114734000D02*
X106864000Y-114734000D01*
D12*
X107569000Y-134366000D02*
X103124000Y-134366000D01*
X107569000Y-141986000D02*
X107569000Y-134366000D01*
X103124000Y-141986000D02*
X107569000Y-141986000D01*
X120904000Y-147701000D02*
X105664000Y-147701000D01*
X120904000Y-128651000D02*
X105664000Y-128651000D01*
X103124000Y-145161000D02*
X103124000Y-131191000D01*
X123444000Y-145161000D02*
X123444000Y-131191000D01*
X120904000Y-147701000D02*
G75*
G03*
X123444000Y-145161000I0J2540000D01*
G01*
X103124000Y-145161000D02*
G75*
G03*
X105664000Y-147701000I2540000J0D01*
G01*
X105664000Y-128651000D02*
G75*
G03*
X103124000Y-131191000I0J-2540000D01*
G01*
X123444000Y-131191000D02*
G75*
G03*
X120904000Y-128651000I-2540000J0D01*
G01*
D11*
X174518259Y-103013261D02*
X174518259Y-102378261D01*
X174367069Y-102378261D01*
X174276354Y-102408500D01*
X174215878Y-102468976D01*
X174185640Y-102529452D01*
X174155402Y-102650404D01*
X174155402Y-102741119D01*
X174185640Y-102862071D01*
X174215878Y-102922547D01*
X174276354Y-102983023D01*
X174367069Y-103013261D01*
X174518259Y-103013261D01*
X173762307Y-102378261D02*
X173701830Y-102378261D01*
X173641354Y-102408500D01*
X173611116Y-102438738D01*
X173580878Y-102499214D01*
X173550640Y-102620166D01*
X173550640Y-102771357D01*
X173580878Y-102892309D01*
X173611116Y-102952785D01*
X173641354Y-102983023D01*
X173701830Y-103013261D01*
X173762307Y-103013261D01*
X173822783Y-102983023D01*
X173853021Y-102952785D01*
X173883259Y-102892309D01*
X173913497Y-102771357D01*
X173913497Y-102620166D01*
X173883259Y-102499214D01*
X173853021Y-102438738D01*
X173822783Y-102408500D01*
X173762307Y-102378261D01*
X174548497Y-107801833D02*
X174246116Y-107801833D01*
X174608973Y-107983261D02*
X174397307Y-107348261D01*
X174185640Y-107983261D01*
X173641354Y-107983261D02*
X174004211Y-107983261D01*
X173822783Y-107983261D02*
X173822783Y-107348261D01*
X173883259Y-107438976D01*
X173943735Y-107499452D01*
X174004211Y-107529690D01*
X173248259Y-107348261D02*
X173187783Y-107348261D01*
X173127307Y-107378500D01*
X173097069Y-107408738D01*
X173066830Y-107469214D01*
X173036592Y-107590166D01*
X173036592Y-107741357D01*
X173066830Y-107862309D01*
X173097069Y-107922785D01*
X173127307Y-107953023D01*
X173187783Y-107983261D01*
X173248259Y-107983261D01*
X173308735Y-107953023D01*
X173338973Y-107922785D01*
X173369211Y-107862309D01*
X173399450Y-107741357D01*
X173399450Y-107590166D01*
X173369211Y-107469214D01*
X173338973Y-107408738D01*
X173308735Y-107378500D01*
X173248259Y-107348261D01*
X174518259Y-105443261D02*
X174518259Y-104808261D01*
X174367069Y-104808261D01*
X174276354Y-104838500D01*
X174215878Y-104898976D01*
X174185640Y-104959452D01*
X174155402Y-105080404D01*
X174155402Y-105171119D01*
X174185640Y-105292071D01*
X174215878Y-105352547D01*
X174276354Y-105413023D01*
X174367069Y-105443261D01*
X174518259Y-105443261D01*
X173853021Y-105443261D02*
X173732069Y-105443261D01*
X173671592Y-105413023D01*
X173641354Y-105382785D01*
X173580878Y-105292071D01*
X173550640Y-105171119D01*
X173550640Y-104929214D01*
X173580878Y-104868738D01*
X173611116Y-104838500D01*
X173671592Y-104808261D01*
X173792545Y-104808261D01*
X173853021Y-104838500D01*
X173883259Y-104868738D01*
X173913497Y-104929214D01*
X173913497Y-105080404D01*
X173883259Y-105140880D01*
X173853021Y-105171119D01*
X173792545Y-105201357D01*
X173671592Y-105201357D01*
X173611116Y-105171119D01*
X173580878Y-105140880D01*
X173550640Y-105080404D01*
X174548497Y-92713023D02*
X174457783Y-92743261D01*
X174306592Y-92743261D01*
X174246116Y-92713023D01*
X174215878Y-92682785D01*
X174185640Y-92622309D01*
X174185640Y-92561833D01*
X174215878Y-92501357D01*
X174246116Y-92471119D01*
X174306592Y-92440880D01*
X174427545Y-92410642D01*
X174488021Y-92380404D01*
X174518259Y-92350166D01*
X174548497Y-92289690D01*
X174548497Y-92229214D01*
X174518259Y-92168738D01*
X174488021Y-92138500D01*
X174427545Y-92108261D01*
X174276354Y-92108261D01*
X174185640Y-92138500D01*
X173550640Y-92682785D02*
X173580878Y-92713023D01*
X173671592Y-92743261D01*
X173732069Y-92743261D01*
X173822783Y-92713023D01*
X173883259Y-92652547D01*
X173913497Y-92592071D01*
X173943735Y-92471119D01*
X173943735Y-92380404D01*
X173913497Y-92259452D01*
X173883259Y-92198976D01*
X173822783Y-92138500D01*
X173732069Y-92108261D01*
X173671592Y-92108261D01*
X173580878Y-92138500D01*
X173550640Y-92168738D01*
X172976116Y-92743261D02*
X173278497Y-92743261D01*
X173278497Y-92108261D01*
X174518259Y-95283261D02*
X174518259Y-94648261D01*
X174306592Y-95101833D01*
X174094926Y-94648261D01*
X174094926Y-95283261D01*
X173792545Y-95283261D02*
X173792545Y-94648261D01*
X173520402Y-95253023D02*
X173429688Y-95283261D01*
X173278497Y-95283261D01*
X173218021Y-95253023D01*
X173187783Y-95222785D01*
X173157545Y-95162309D01*
X173157545Y-95101833D01*
X173187783Y-95041357D01*
X173218021Y-95011119D01*
X173278497Y-94980880D01*
X173399450Y-94950642D01*
X173459926Y-94920404D01*
X173490164Y-94890166D01*
X173520402Y-94829690D01*
X173520402Y-94769214D01*
X173490164Y-94708738D01*
X173459926Y-94678500D01*
X173399450Y-94648261D01*
X173248259Y-94648261D01*
X173157545Y-94678500D01*
X172764450Y-94648261D02*
X172643497Y-94648261D01*
X172583021Y-94678500D01*
X172522545Y-94738976D01*
X172492307Y-94859928D01*
X172492307Y-95071595D01*
X172522545Y-95192547D01*
X172583021Y-95253023D01*
X172643497Y-95283261D01*
X172764450Y-95283261D01*
X172824926Y-95253023D01*
X172885402Y-95192547D01*
X172915640Y-95071595D01*
X172915640Y-94859928D01*
X172885402Y-94738976D01*
X172824926Y-94678500D01*
X172764450Y-94648261D01*
X174548497Y-100333023D02*
X174457783Y-100363261D01*
X174306592Y-100363261D01*
X174246116Y-100333023D01*
X174215878Y-100302785D01*
X174185640Y-100242309D01*
X174185640Y-100181833D01*
X174215878Y-100121357D01*
X174246116Y-100091119D01*
X174306592Y-100060880D01*
X174427545Y-100030642D01*
X174488021Y-100000404D01*
X174518259Y-99970166D01*
X174548497Y-99909690D01*
X174548497Y-99849214D01*
X174518259Y-99788738D01*
X174488021Y-99758500D01*
X174427545Y-99728261D01*
X174276354Y-99728261D01*
X174185640Y-99758500D01*
X173550640Y-100302785D02*
X173580878Y-100333023D01*
X173671592Y-100363261D01*
X173732069Y-100363261D01*
X173822783Y-100333023D01*
X173883259Y-100272547D01*
X173913497Y-100212071D01*
X173943735Y-100091119D01*
X173943735Y-100000404D01*
X173913497Y-99879452D01*
X173883259Y-99818976D01*
X173822783Y-99758500D01*
X173732069Y-99728261D01*
X173671592Y-99728261D01*
X173580878Y-99758500D01*
X173550640Y-99788738D01*
X173278497Y-100363261D02*
X173278497Y-99728261D01*
X172915640Y-100363261D02*
X173187783Y-100000404D01*
X172915640Y-99728261D02*
X173278497Y-100091119D01*
X174608973Y-84488261D02*
X174397307Y-85123261D01*
X174185640Y-84488261D01*
X173611116Y-85062785D02*
X173641354Y-85093023D01*
X173732069Y-85123261D01*
X173792545Y-85123261D01*
X173883259Y-85093023D01*
X173943735Y-85032547D01*
X173973973Y-84972071D01*
X174004211Y-84851119D01*
X174004211Y-84760404D01*
X173973973Y-84639452D01*
X173943735Y-84578976D01*
X173883259Y-84518500D01*
X173792545Y-84488261D01*
X173732069Y-84488261D01*
X173641354Y-84518500D01*
X173611116Y-84548738D01*
X172976116Y-85062785D02*
X173006354Y-85093023D01*
X173097069Y-85123261D01*
X173157545Y-85123261D01*
X173248259Y-85093023D01*
X173308735Y-85032547D01*
X173338973Y-84972071D01*
X173369211Y-84851119D01*
X173369211Y-84760404D01*
X173338973Y-84639452D01*
X173308735Y-84578976D01*
X173248259Y-84518500D01*
X173157545Y-84488261D01*
X173097069Y-84488261D01*
X173006354Y-84518500D01*
X172976116Y-84548738D01*
X174518259Y-97823261D02*
X174518259Y-97188261D01*
X174306592Y-97641833D01*
X174094926Y-97188261D01*
X174094926Y-97823261D01*
X173671592Y-97188261D02*
X173550640Y-97188261D01*
X173490164Y-97218500D01*
X173429688Y-97278976D01*
X173399450Y-97399928D01*
X173399450Y-97611595D01*
X173429688Y-97732547D01*
X173490164Y-97793023D01*
X173550640Y-97823261D01*
X173671592Y-97823261D01*
X173732069Y-97793023D01*
X173792545Y-97732547D01*
X173822783Y-97611595D01*
X173822783Y-97399928D01*
X173792545Y-97278976D01*
X173732069Y-97218500D01*
X173671592Y-97188261D01*
X173157545Y-97793023D02*
X173066830Y-97823261D01*
X172915640Y-97823261D01*
X172855164Y-97793023D01*
X172824926Y-97762785D01*
X172794688Y-97702309D01*
X172794688Y-97641833D01*
X172824926Y-97581357D01*
X172855164Y-97551119D01*
X172915640Y-97520880D01*
X173036592Y-97490642D01*
X173097069Y-97460404D01*
X173127307Y-97430166D01*
X173157545Y-97369690D01*
X173157545Y-97309214D01*
X173127307Y-97248738D01*
X173097069Y-97218500D01*
X173036592Y-97188261D01*
X172885402Y-97188261D01*
X172794688Y-97218500D01*
X172522545Y-97823261D02*
X172522545Y-97188261D01*
X174548497Y-90173023D02*
X174457783Y-90203261D01*
X174306592Y-90203261D01*
X174246116Y-90173023D01*
X174215878Y-90142785D01*
X174185640Y-90082309D01*
X174185640Y-90021833D01*
X174215878Y-89961357D01*
X174246116Y-89931119D01*
X174306592Y-89900880D01*
X174427545Y-89870642D01*
X174488021Y-89840404D01*
X174518259Y-89810166D01*
X174548497Y-89749690D01*
X174548497Y-89689214D01*
X174518259Y-89628738D01*
X174488021Y-89598500D01*
X174427545Y-89568261D01*
X174276354Y-89568261D01*
X174185640Y-89598500D01*
X173913497Y-90203261D02*
X173913497Y-89568261D01*
X173762307Y-89568261D01*
X173671592Y-89598500D01*
X173611116Y-89658976D01*
X173580878Y-89719452D01*
X173550640Y-89840404D01*
X173550640Y-89931119D01*
X173580878Y-90052071D01*
X173611116Y-90112547D01*
X173671592Y-90173023D01*
X173762307Y-90203261D01*
X173913497Y-90203261D01*
X173308735Y-90021833D02*
X173006354Y-90021833D01*
X173369211Y-90203261D02*
X173157545Y-89568261D01*
X172945878Y-90203261D01*
X174578735Y-87028261D02*
X174185640Y-87028261D01*
X174397307Y-87270166D01*
X174306592Y-87270166D01*
X174246116Y-87300404D01*
X174215878Y-87330642D01*
X174185640Y-87391119D01*
X174185640Y-87542309D01*
X174215878Y-87602785D01*
X174246116Y-87633023D01*
X174306592Y-87663261D01*
X174488021Y-87663261D01*
X174548497Y-87633023D01*
X174578735Y-87602785D01*
X174004211Y-87028261D02*
X173792545Y-87663261D01*
X173580878Y-87028261D01*
X173429688Y-87028261D02*
X173036592Y-87028261D01*
X173248259Y-87270166D01*
X173157545Y-87270166D01*
X173097069Y-87300404D01*
X173066830Y-87330642D01*
X173036592Y-87391119D01*
X173036592Y-87542309D01*
X173066830Y-87602785D01*
X173097069Y-87633023D01*
X173157545Y-87663261D01*
X173338973Y-87663261D01*
X173399450Y-87633023D01*
X173429688Y-87602785D01*
X174185640Y-81978500D02*
X174246116Y-81948261D01*
X174336830Y-81948261D01*
X174427545Y-81978500D01*
X174488021Y-82038976D01*
X174518259Y-82099452D01*
X174548497Y-82220404D01*
X174548497Y-82311119D01*
X174518259Y-82432071D01*
X174488021Y-82492547D01*
X174427545Y-82553023D01*
X174336830Y-82583261D01*
X174276354Y-82583261D01*
X174185640Y-82553023D01*
X174155402Y-82522785D01*
X174155402Y-82311119D01*
X174276354Y-82311119D01*
X173883259Y-82583261D02*
X173883259Y-81948261D01*
X173520402Y-82583261D01*
X173520402Y-81948261D01*
X173218021Y-82583261D02*
X173218021Y-81948261D01*
X173066830Y-81948261D01*
X172976116Y-81978500D01*
X172915640Y-82038976D01*
X172885402Y-82099452D01*
X172855164Y-82220404D01*
X172855164Y-82311119D01*
X172885402Y-82432071D01*
X172915640Y-82492547D01*
X172976116Y-82553023D01*
X173066830Y-82583261D01*
X173218021Y-82583261D01*
D12*
X112212380Y-117419523D02*
X112212380Y-116848095D01*
X112212380Y-117133809D02*
X111212380Y-117133809D01*
X111355238Y-117038571D01*
X111450476Y-116943333D01*
X111498095Y-116848095D01*
X111212380Y-118038571D02*
X111212380Y-118133809D01*
X111260000Y-118229047D01*
X111307619Y-118276666D01*
X111402857Y-118324285D01*
X111593333Y-118371904D01*
X111831428Y-118371904D01*
X112021904Y-118324285D01*
X112117142Y-118276666D01*
X112164761Y-118229047D01*
X112212380Y-118133809D01*
X112212380Y-118038571D01*
X112164761Y-117943333D01*
X112117142Y-117895714D01*
X112021904Y-117848095D01*
X111831428Y-117800476D01*
X111593333Y-117800476D01*
X111402857Y-117848095D01*
X111307619Y-117895714D01*
X111260000Y-117943333D01*
X111212380Y-118038571D01*
X112212380Y-118800476D02*
X111212380Y-118800476D01*
X112212380Y-119371904D02*
X111640952Y-118943333D01*
X111212380Y-119371904D02*
X111783809Y-118800476D01*
%LPC*%
D13*
G36*
X180657500Y-140716000D02*
G01*
X181419500Y-138049000D01*
X182816500Y-137795000D01*
X180657500Y-140716000D01*
G37*
X180657500Y-140716000D02*
X181419500Y-138049000D01*
X182816500Y-137795000D01*
X180657500Y-140716000D01*
G36*
X181800500Y-138430000D02*
G01*
X180403500Y-138684000D01*
X182562500Y-135763000D01*
X181800500Y-138430000D01*
G37*
X181800500Y-138430000D02*
X180403500Y-138684000D01*
X182562500Y-135763000D01*
X181800500Y-138430000D01*
D15*
X249999500Y-70104000D03*
X232854500Y-151130000D03*
X182181500Y-70104000D03*
X182181500Y-151130000D03*
D16*
X156210000Y-109920000D03*
X153670000Y-109920000D03*
X151130000Y-109920000D03*
X148590000Y-109920000D03*
X146050000Y-109920000D03*
X143510000Y-109920000D03*
X140970000Y-109920000D03*
X138430000Y-109920000D03*
X135890000Y-109920000D03*
X133350000Y-109920000D03*
X130810000Y-109920000D03*
X128270000Y-109920000D03*
X125730000Y-109920000D03*
X123190000Y-109920000D03*
X123190000Y-115000000D03*
X125730000Y-115000000D03*
X128270000Y-115000000D03*
X130810000Y-115000000D03*
X133350000Y-115000000D03*
X135890000Y-115000000D03*
X156210000Y-115000000D03*
X153670000Y-115000000D03*
X151130000Y-115000000D03*
X148590000Y-115000000D03*
X146050000Y-115000000D03*
X143510000Y-115000000D03*
X138430000Y-115000000D03*
X140970000Y-115000000D03*
D17*
X170434000Y-121920000D03*
X170434000Y-124460000D03*
X170434000Y-119380000D03*
D15*
X97218500Y-70104000D03*
X80073500Y-151130000D03*
X29400500Y-70104000D03*
X29400500Y-151130000D03*
D18*
X178911000Y-131318000D03*
X178911000Y-130429000D03*
X178911000Y-132207000D03*
X176879000Y-130429000D03*
X176879000Y-131318000D03*
X176879000Y-132207000D03*
X176879000Y-97028000D03*
X176879000Y-96139000D03*
X176879000Y-95250000D03*
X178911000Y-97028000D03*
X178911000Y-95250000D03*
X178911000Y-96139000D03*
X100489000Y-96139000D03*
X100489000Y-97028000D03*
X100489000Y-95250000D03*
X102521000Y-97028000D03*
X102521000Y-96139000D03*
X102521000Y-95250000D03*
X102521000Y-130429000D03*
X102521000Y-131318000D03*
X102521000Y-132207000D03*
X100489000Y-130429000D03*
X100489000Y-132207000D03*
X100489000Y-131318000D03*
D19*
X166116000Y-107696000D03*
X166116000Y-97536000D03*
X166116000Y-105156000D03*
X166116000Y-100076000D03*
X166116000Y-102616000D03*
X166116000Y-82296000D03*
D20*
X166116000Y-94996000D03*
D19*
X166116000Y-84836000D03*
X166116000Y-87376000D03*
X166116000Y-89916000D03*
D20*
X166116000Y-92456000D03*
D21*
X105791000Y-151130000D03*
X105791000Y-70104000D03*
X156464000Y-151130000D03*
D22*
X173609000Y-70104000D03*
D16*
X172426000Y-140208000D03*
X167426000Y-140208000D03*
D23*
X134493000Y-119888000D03*
X134493000Y-122388000D03*
X144907000Y-119928000D03*
X144907000Y-122428000D03*
G36*
G01*
X142585646Y-149467144D02*
X142585646Y-149467144D01*
G75*
G02*
X142223833Y-150614669I-754669J-392856D01*
G01*
X142223833Y-150614669D01*
G75*
G02*
X141076308Y-150252856I-392856J754669D01*
G01*
X141076308Y-150252856D01*
G75*
G02*
X141438121Y-149105331I754669J392856D01*
G01*
X141438121Y-149105331D01*
G75*
G02*
X142585646Y-149467144I392856J-754669D01*
G01*
G37*
G36*
G01*
X148975270Y-145239011D02*
X149714068Y-146658229D01*
G75*
G02*
X149692465Y-146726746I-45060J-23457D01*
G01*
X148273247Y-147465544D01*
G75*
G02*
X148204730Y-147443941I-23457J45060D01*
G01*
X147465932Y-146024723D01*
G75*
G02*
X147487535Y-145956206I45060J23457D01*
G01*
X148906753Y-145217408D01*
G75*
G02*
X148975270Y-145239011I23457J-45060D01*
G01*
G37*
G36*
G01*
X137954293Y-145239011D02*
X138693091Y-146658229D01*
G75*
G02*
X138671488Y-146726746I-45060J-23457D01*
G01*
X137252270Y-147465544D01*
G75*
G02*
X137183753Y-147443941I-23457J45060D01*
G01*
X136444955Y-146024723D01*
G75*
G02*
X136466558Y-145956206I45060J23457D01*
G01*
X137885776Y-145217408D01*
G75*
G02*
X137954293Y-145239011I23457J-45060D01*
G01*
G37*
G36*
G01*
X131564669Y-149467144D02*
X131564669Y-149467144D01*
G75*
G02*
X131202856Y-150614669I-754669J-392856D01*
G01*
X131202856Y-150614669D01*
G75*
G02*
X130055331Y-150252856I-392856J754669D01*
G01*
X130055331Y-150252856D01*
G75*
G02*
X130417144Y-149105331I754669J392856D01*
G01*
X130417144Y-149105331D01*
G75*
G02*
X131564669Y-149467144I392856J-754669D01*
G01*
G37*
X111760000Y-114300000D03*
D24*
X111760000Y-121920000D03*
D25*
X110794800Y-70104000D03*
X113284000Y-70104000D03*
X115773200Y-70104000D03*
D26*
X108154000Y-121584000D03*
D16*
X105664000Y-120324000D03*
X105664000Y-115824000D03*
D26*
X108154000Y-114574000D03*
D20*
X114554000Y-145161000D03*
X112014000Y-145161000D03*
X117094000Y-145161000D03*
X109474000Y-145161000D03*
D27*
X137160000Y-121412000D03*
X142240000Y-121412000D03*
X139700000Y-121412000D03*
D20*
X106200000Y-102616000D03*
X106200000Y-100076000D03*
X106200000Y-97536000D03*
X106200000Y-94996000D03*
X106200000Y-92456000D03*
X106200000Y-89916000D03*
X106200000Y-87376000D03*
D28*
X149352000Y-131803000D03*
X153852000Y-131803000D03*
X149352000Y-138303000D03*
X153852000Y-138303000D03*
X163631000Y-133350000D03*
X159131000Y-133350000D03*
X163631000Y-126850000D03*
X159131000Y-126850000D03*
X120686000Y-122734000D03*
X125186000Y-122734000D03*
X120686000Y-129234000D03*
X125186000Y-129234000D03*
X125186000Y-143458000D03*
X120686000Y-143458000D03*
X125186000Y-136958000D03*
X120686000Y-136958000D03*
X118074000Y-136346000D03*
X113574000Y-136346000D03*
X118074000Y-129846000D03*
X113574000Y-129846000D03*
X127798000Y-129846000D03*
X132298000Y-129846000D03*
X127798000Y-136346000D03*
X132298000Y-136346000D03*
M02*
