G04 #@! TF.GenerationSoftware,KiCad,Pcbnew,(5.1.9-0-10_14)*
G04 #@! TF.CreationDate,2021-02-11T15:30:53-08:00*
G04 #@! TF.ProjectId,system,73797374-656d-42e6-9b69-6361645f7063,rev?*
G04 #@! TF.SameCoordinates,Original*
G04 #@! TF.FileFunction,Legend,Top*
G04 #@! TF.FilePolarity,Positive*
%FSLAX46Y46*%
G04 Gerber Fmt 4.6, Leading zero omitted, Abs format (unit mm)*
G04 Created by KiCad (PCBNEW (5.1.9-0-10_14)) date 2021-02-11 15:30:53*
%MOMM*%
%LPD*%
G01*
G04 APERTURE LIST*
%ADD10C,0.381000*%
%ADD11C,0.150000*%
%ADD12C,0.100000*%
%ADD13C,0.177800*%
%ADD14C,0.304800*%
%ADD15C,0.120000*%
%ADD16C,0.050800*%
%ADD17C,0.250000*%
%ADD18C,0.300000*%
%ADD19C,3.851600*%
%ADD20C,1.851600*%
%ADD21C,1.401600*%
%ADD22C,0.609600*%
%ADD23O,1.801600X1.801600*%
%ADD24C,1.801600*%
%ADD25C,5.501599*%
%ADD26C,5.501600*%
%ADD27C,1.701600*%
%ADD28O,1.701600X1.701600*%
%ADD29C,1.625600*%
%ADD30C,2.201600*%
%ADD31C,1.621600*%
%ADD32C,2.101600*%
G04 APERTURE END LIST*
D10*
X161562428Y-123307928D02*
X161925285Y-123398642D01*
X162046238Y-123489357D01*
X162167190Y-123670785D01*
X162167190Y-123942928D01*
X162046238Y-124124357D01*
X161925285Y-124215071D01*
X161683380Y-124305785D01*
X160715761Y-124305785D01*
X160715761Y-122400785D01*
X161562428Y-122400785D01*
X161804333Y-122491500D01*
X161925285Y-122582214D01*
X162046238Y-122763642D01*
X162046238Y-122945071D01*
X161925285Y-123126500D01*
X161804333Y-123217214D01*
X161562428Y-123307928D01*
X160715761Y-123307928D01*
X150997238Y-128841500D02*
X152206761Y-128841500D01*
X150755333Y-129385785D02*
X151602000Y-127480785D01*
X152448666Y-129385785D01*
D11*
X38354000Y-68580000D02*
G75*
G03*
X38354000Y-68580000I-63500J0D01*
G01*
D12*
G36*
X40957500Y-68580000D02*
G01*
X40513000Y-68897500D01*
X40513000Y-68262500D01*
X40957500Y-68580000D01*
G37*
X40957500Y-68580000D02*
X40513000Y-68897500D01*
X40513000Y-68262500D01*
X40957500Y-68580000D01*
G36*
X35560000Y-68897500D02*
G01*
X35115500Y-68580000D01*
X35560000Y-68262500D01*
X35560000Y-68897500D01*
G37*
X35560000Y-68897500D02*
X35115500Y-68580000D01*
X35560000Y-68262500D01*
X35560000Y-68897500D01*
D13*
X115352285Y-71845714D02*
X115497428Y-71845714D01*
X115570000Y-71882000D01*
X115642571Y-71954571D01*
X115678857Y-72099714D01*
X115678857Y-72353714D01*
X115642571Y-72498857D01*
X115570000Y-72571428D01*
X115497428Y-72607714D01*
X115352285Y-72607714D01*
X115279714Y-72571428D01*
X115207142Y-72498857D01*
X115170857Y-72353714D01*
X115170857Y-72099714D01*
X115207142Y-71954571D01*
X115279714Y-71882000D01*
X115352285Y-71845714D01*
X116005428Y-72607714D02*
X116005428Y-71845714D01*
X116440857Y-72607714D01*
X116440857Y-71845714D01*
X39025285Y-68162714D02*
X39170428Y-68162714D01*
X39243000Y-68199000D01*
X39315571Y-68271571D01*
X39351857Y-68416714D01*
X39351857Y-68670714D01*
X39315571Y-68815857D01*
X39243000Y-68888428D01*
X39170428Y-68924714D01*
X39025285Y-68924714D01*
X38952714Y-68888428D01*
X38880142Y-68815857D01*
X38843857Y-68670714D01*
X38843857Y-68416714D01*
X38880142Y-68271571D01*
X38952714Y-68199000D01*
X39025285Y-68162714D01*
X39678428Y-68924714D02*
X39678428Y-68162714D01*
X40113857Y-68924714D01*
X40113857Y-68162714D01*
X36104285Y-68162714D02*
X36249428Y-68162714D01*
X36322000Y-68199000D01*
X36394571Y-68271571D01*
X36430857Y-68416714D01*
X36430857Y-68670714D01*
X36394571Y-68815857D01*
X36322000Y-68888428D01*
X36249428Y-68924714D01*
X36104285Y-68924714D01*
X36031714Y-68888428D01*
X35959142Y-68815857D01*
X35922857Y-68670714D01*
X35922857Y-68416714D01*
X35959142Y-68271571D01*
X36031714Y-68199000D01*
X36104285Y-68162714D01*
X37011428Y-68525571D02*
X36757428Y-68525571D01*
X36757428Y-68924714D02*
X36757428Y-68162714D01*
X37120285Y-68162714D01*
X37664571Y-68525571D02*
X37410571Y-68525571D01*
X37410571Y-68924714D02*
X37410571Y-68162714D01*
X37773428Y-68162714D01*
D12*
G36*
X104267000Y-140716000D02*
G01*
X105029000Y-138049000D01*
X106426000Y-137795000D01*
X104267000Y-140716000D01*
G37*
X104267000Y-140716000D02*
X105029000Y-138049000D01*
X106426000Y-137795000D01*
X104267000Y-140716000D01*
G36*
X105410000Y-138430000D02*
G01*
X104013000Y-138684000D01*
X106172000Y-135763000D01*
X105410000Y-138430000D01*
G37*
X105410000Y-138430000D02*
X104013000Y-138684000D01*
X106172000Y-135763000D01*
X105410000Y-138430000D01*
G36*
X104648000Y-118872000D02*
G01*
X103886000Y-118110000D01*
X104648000Y-117348000D01*
X104648000Y-118872000D01*
G37*
X104648000Y-118872000D02*
X103886000Y-118110000D01*
X104648000Y-117348000D01*
X104648000Y-118872000D01*
D14*
X113284000Y-71501000D02*
X113284000Y-72136000D01*
X112776000Y-71755000D02*
G75*
G03*
X113792000Y-71755000I508000J-508000D01*
G01*
D13*
X110018285Y-71845714D02*
X110163428Y-71845714D01*
X110236000Y-71882000D01*
X110308571Y-71954571D01*
X110344857Y-72099714D01*
X110344857Y-72353714D01*
X110308571Y-72498857D01*
X110236000Y-72571428D01*
X110163428Y-72607714D01*
X110018285Y-72607714D01*
X109945714Y-72571428D01*
X109873142Y-72498857D01*
X109836857Y-72353714D01*
X109836857Y-72099714D01*
X109873142Y-71954571D01*
X109945714Y-71882000D01*
X110018285Y-71845714D01*
X110925428Y-72208571D02*
X110671428Y-72208571D01*
X110671428Y-72607714D02*
X110671428Y-71845714D01*
X111034285Y-71845714D01*
X111578571Y-72208571D02*
X111324571Y-72208571D01*
X111324571Y-72607714D02*
X111324571Y-71845714D01*
X111687428Y-71845714D01*
D11*
G36*
X98171000Y-118110000D02*
G01*
X99421000Y-122428000D01*
X99421000Y-118110000D01*
X98171000Y-118110000D01*
G37*
X98171000Y-118110000D02*
X99421000Y-122428000D01*
X99421000Y-118110000D01*
X98171000Y-118110000D01*
G36*
X166370000Y-118110000D02*
G01*
X167620000Y-122428000D01*
X167620000Y-118110000D01*
X166370000Y-118110000D01*
G37*
X166370000Y-118110000D02*
X167620000Y-122428000D01*
X167620000Y-118110000D01*
X166370000Y-118110000D01*
D15*
X173804000Y-121920000D02*
G75*
G03*
X173804000Y-121920000I-500000J0D01*
G01*
X168224000Y-118110000D02*
X170434000Y-118110000D01*
X177749000Y-121920000D02*
G75*
G03*
X177749000Y-121920000I-4445000J0D01*
G01*
X168224000Y-125730000D02*
X170434000Y-125730000D01*
X168224000Y-125730000D02*
X168224000Y-118110000D01*
X167576000Y-107336000D02*
X167166000Y-107336000D01*
X167576000Y-108056000D02*
X167166000Y-108056000D01*
X167576000Y-92816000D02*
X167226000Y-92816000D01*
X167576000Y-92096000D02*
X167226000Y-92096000D01*
X167576000Y-90276000D02*
X167166000Y-90276000D01*
X167576000Y-89556000D02*
X167166000Y-89556000D01*
X167576000Y-87736000D02*
X167166000Y-87736000D01*
X167576000Y-87016000D02*
X167166000Y-87016000D01*
X167576000Y-85196000D02*
X167166000Y-85196000D01*
X167576000Y-84476000D02*
X167166000Y-84476000D01*
X176206000Y-91186000D02*
X167576000Y-91186000D01*
X176206000Y-88646000D02*
X167576000Y-88646000D01*
X176206000Y-86106000D02*
X167576000Y-86106000D01*
X176206000Y-93726000D02*
X167576000Y-93726000D01*
X167576000Y-96266000D02*
X167576000Y-81026000D01*
X176206000Y-83566000D02*
X167576000Y-83566000D01*
X176206000Y-96266000D02*
X176206000Y-81026000D01*
X176206000Y-96266000D02*
X167576000Y-96266000D01*
X176206000Y-81026000D02*
X167576000Y-81026000D01*
X167576000Y-95356000D02*
X167226000Y-95356000D01*
X167576000Y-94636000D02*
X167226000Y-94636000D01*
X167576000Y-82656000D02*
X167226000Y-82656000D01*
X167576000Y-81936000D02*
X167226000Y-81936000D01*
X176206000Y-108966000D02*
X167576000Y-108966000D01*
X176206000Y-103886000D02*
X167576000Y-103886000D01*
X167576000Y-100436000D02*
X167166000Y-100436000D01*
X167576000Y-99716000D02*
X167166000Y-99716000D01*
X167576000Y-105516000D02*
X167166000Y-105516000D01*
X167576000Y-104796000D02*
X167166000Y-104796000D01*
X167576000Y-108966000D02*
X167576000Y-96266000D01*
X176206000Y-98806000D02*
X167576000Y-98806000D01*
X176206000Y-101346000D02*
X167576000Y-101346000D01*
X176206000Y-106426000D02*
X167576000Y-106426000D01*
X167576000Y-102976000D02*
X167166000Y-102976000D01*
X167576000Y-102256000D02*
X167166000Y-102256000D01*
X176206000Y-108966000D02*
X176206000Y-96266000D01*
X167576000Y-97896000D02*
X167226000Y-97896000D01*
X167576000Y-97176000D02*
X167226000Y-97176000D01*
X176026000Y-140208000D02*
G75*
G03*
X176026000Y-140208000I-6100000J0D01*
G01*
X133828000Y-123258000D02*
X133123000Y-123258000D01*
X135863000Y-123258000D02*
X135158000Y-123258000D01*
X133828000Y-119018000D02*
X133123000Y-119018000D01*
X135863000Y-119018000D02*
X135158000Y-119018000D01*
X133123000Y-119018000D02*
X133123000Y-123258000D01*
X135863000Y-119018000D02*
X135863000Y-123258000D01*
X143537000Y-123298000D02*
X143537000Y-119058000D01*
X146277000Y-123298000D02*
X146277000Y-119058000D01*
X143537000Y-123298000D02*
X144242000Y-123298000D01*
X145572000Y-123298000D02*
X146277000Y-123298000D01*
X143537000Y-119058000D02*
X144242000Y-119058000D01*
X145572000Y-119058000D02*
X146277000Y-119058000D01*
X147608110Y-148115283D02*
X146573793Y-146128379D01*
X146573793Y-146128379D02*
X142812867Y-148086193D01*
X142812867Y-148086193D02*
X143847184Y-150073097D01*
X143847184Y-150073097D02*
X147608110Y-148115283D01*
X147667509Y-146821695D02*
X147090952Y-147121831D01*
X142753469Y-149379782D02*
X143330026Y-149079645D01*
X146969462Y-148447742D02*
X145935145Y-146460838D01*
X146863021Y-148503152D02*
X145828704Y-146516248D01*
X147075904Y-148392332D02*
X146041587Y-146405428D01*
X136054927Y-148392332D02*
X135020610Y-146405428D01*
X135842044Y-148503152D02*
X134807727Y-146516248D01*
X135948485Y-148447742D02*
X134914168Y-146460838D01*
X131732492Y-149379782D02*
X132309049Y-149079645D01*
X136646532Y-146821695D02*
X136069975Y-147121831D01*
X132826207Y-150073097D02*
X136587133Y-148115283D01*
X131791890Y-148086193D02*
X132826207Y-150073097D01*
X135552816Y-146128379D02*
X131791890Y-148086193D01*
X136587133Y-148115283D02*
X135552816Y-146128379D01*
X109029500Y-71018400D02*
X117538500Y-71018400D01*
X117538500Y-71018400D02*
X117538500Y-67513200D01*
X109029500Y-71018400D02*
X109029500Y-67513200D01*
X109029500Y-67513200D02*
X117538500Y-67513200D01*
D16*
X141478000Y-127381000D02*
X141478000Y-123444000D01*
X137922000Y-127381000D02*
X141478000Y-127381000D01*
X137922000Y-123444000D02*
X137922000Y-127381000D01*
D15*
X137900000Y-123262000D02*
X141500000Y-123262000D01*
X142024184Y-122534795D02*
G75*
G02*
X141500000Y-123262000I-2324184J1122795D01*
G01*
X142056400Y-120313193D02*
G75*
G03*
X139700000Y-118812000I-2356400J-1098807D01*
G01*
X137343600Y-120313193D02*
G75*
G02*
X139700000Y-118812000I2356400J-1098807D01*
G01*
X137375816Y-122534795D02*
G75*
G03*
X137900000Y-123262000I2324184J1122795D01*
G01*
D17*
X168200000Y-77596000D02*
X168200000Y-107096000D01*
X111200000Y-77596000D02*
X111200000Y-107096000D01*
X108700000Y-114396000D02*
X170700000Y-114396000D01*
X170700000Y-75596000D02*
X170700000Y-114396000D01*
X108700000Y-75596000D02*
X108700000Y-114396000D01*
X108700000Y-75596000D02*
X170700000Y-75596000D01*
X111200000Y-107096000D02*
X168200000Y-107096000D01*
X111200000Y-77596000D02*
X168200000Y-77596000D01*
D11*
X103700000Y-73496000D02*
X103700000Y-116496000D01*
X175700000Y-73496000D02*
X175700000Y-116496000D01*
X103700000Y-116496000D02*
X175700000Y-116496000D01*
X103700000Y-73496000D02*
X175700000Y-73496000D01*
D15*
X154852000Y-137303000D02*
X154852000Y-132803000D01*
X150852000Y-138553000D02*
X152352000Y-138553000D01*
X148352000Y-132803000D02*
X148352000Y-137303000D01*
X152352000Y-131553000D02*
X150852000Y-131553000D01*
X162131000Y-126600000D02*
X160631000Y-126600000D01*
X158131000Y-127850000D02*
X158131000Y-132350000D01*
X160631000Y-133600000D02*
X162131000Y-133600000D01*
X164631000Y-132350000D02*
X164631000Y-127850000D01*
X126186000Y-128234000D02*
X126186000Y-123734000D01*
X122186000Y-129484000D02*
X123686000Y-129484000D01*
X119686000Y-123734000D02*
X119686000Y-128234000D01*
X123686000Y-122484000D02*
X122186000Y-122484000D01*
X119686000Y-137958000D02*
X119686000Y-142458000D01*
X123686000Y-136708000D02*
X122186000Y-136708000D01*
X126186000Y-142458000D02*
X126186000Y-137958000D01*
X122186000Y-143708000D02*
X123686000Y-143708000D01*
X116574000Y-129596000D02*
X115074000Y-129596000D01*
X112574000Y-130846000D02*
X112574000Y-135346000D01*
X115074000Y-136596000D02*
X116574000Y-136596000D01*
X119074000Y-135346000D02*
X119074000Y-130846000D01*
X129298000Y-136596000D02*
X130798000Y-136596000D01*
X133298000Y-135346000D02*
X133298000Y-130846000D01*
X130798000Y-129596000D02*
X129298000Y-129596000D01*
X126798000Y-130846000D02*
X126798000Y-135346000D01*
D10*
X72067344Y-130322853D02*
X73140205Y-129764357D01*
X72104095Y-130917340D02*
X71975467Y-128836637D01*
X73606100Y-130135446D01*
X82334268Y-124604508D02*
X82698013Y-124517424D01*
X82847186Y-124542039D01*
X83038247Y-124647119D01*
X83163909Y-124888512D01*
X83140397Y-125105291D01*
X83074998Y-125241605D01*
X82902313Y-125433769D01*
X82044024Y-125880566D01*
X81164393Y-124190810D01*
X81915396Y-123799863D01*
X82171855Y-123768628D01*
X82321028Y-123793243D01*
X82512089Y-123898323D01*
X82595863Y-124059252D01*
X82572352Y-124276030D01*
X82506953Y-124412345D01*
X82334268Y-124604508D01*
X81583265Y-124995455D01*
D13*
X98376619Y-125488095D02*
X99392619Y-125149428D01*
X98376619Y-124810761D01*
X98376619Y-124278571D02*
X98376619Y-124085047D01*
X98425000Y-123988285D01*
X98521761Y-123891523D01*
X98715285Y-123843142D01*
X99053952Y-123843142D01*
X99247476Y-123891523D01*
X99344238Y-123988285D01*
X99392619Y-124085047D01*
X99392619Y-124278571D01*
X99344238Y-124375333D01*
X99247476Y-124472095D01*
X99053952Y-124520476D01*
X98715285Y-124520476D01*
X98521761Y-124472095D01*
X98425000Y-124375333D01*
X98376619Y-124278571D01*
X99392619Y-122923904D02*
X99392619Y-123407714D01*
X98376619Y-123407714D01*
X166575619Y-125488095D02*
X167591619Y-125149428D01*
X166575619Y-124810761D01*
X166575619Y-124278571D02*
X166575619Y-124085047D01*
X166624000Y-123988285D01*
X166720761Y-123891523D01*
X166914285Y-123843142D01*
X167252952Y-123843142D01*
X167446476Y-123891523D01*
X167543238Y-123988285D01*
X167591619Y-124085047D01*
X167591619Y-124278571D01*
X167543238Y-124375333D01*
X167446476Y-124472095D01*
X167252952Y-124520476D01*
X166914285Y-124520476D01*
X166720761Y-124472095D01*
X166624000Y-124375333D01*
X166575619Y-124278571D01*
X167591619Y-122923904D02*
X167591619Y-123407714D01*
X166575619Y-123407714D01*
D11*
X132445380Y-121733238D02*
X132445380Y-122304666D01*
X132445380Y-122018952D02*
X131445380Y-122018952D01*
X131588238Y-122114190D01*
X131683476Y-122209428D01*
X131731095Y-122304666D01*
X131778714Y-120876095D02*
X132445380Y-120876095D01*
X131778714Y-121304666D02*
X132302523Y-121304666D01*
X132397761Y-121257047D01*
X132445380Y-121161809D01*
X132445380Y-121018952D01*
X132397761Y-120923714D01*
X132350142Y-120876095D01*
X131921571Y-120066571D02*
X131921571Y-120399904D01*
X132445380Y-120399904D02*
X131445380Y-120399904D01*
X131445380Y-119923714D01*
X147859380Y-121773238D02*
X147859380Y-122344666D01*
X147859380Y-122058952D02*
X146859380Y-122058952D01*
X147002238Y-122154190D01*
X147097476Y-122249428D01*
X147145095Y-122344666D01*
X147192714Y-120916095D02*
X147859380Y-120916095D01*
X147192714Y-121344666D02*
X147716523Y-121344666D01*
X147811761Y-121297047D01*
X147859380Y-121201809D01*
X147859380Y-121058952D01*
X147811761Y-120963714D01*
X147764142Y-120916095D01*
X147335571Y-120106571D02*
X147335571Y-120439904D01*
X147859380Y-120439904D02*
X146859380Y-120439904D01*
X146859380Y-119963714D01*
X106026095Y-118471904D02*
X105759428Y-118090952D01*
X105568952Y-118471904D02*
X105568952Y-117671904D01*
X105873714Y-117671904D01*
X105949904Y-117710000D01*
X105988000Y-117748095D01*
X106026095Y-117824285D01*
X106026095Y-117938571D01*
X105988000Y-118014761D01*
X105949904Y-118052857D01*
X105873714Y-118090952D01*
X105568952Y-118090952D01*
X106368952Y-118052857D02*
X106635619Y-118052857D01*
X106749904Y-118471904D02*
X106368952Y-118471904D01*
X106368952Y-117671904D01*
X106749904Y-117671904D01*
X107054666Y-118433809D02*
X107168952Y-118471904D01*
X107359428Y-118471904D01*
X107435619Y-118433809D01*
X107473714Y-118395714D01*
X107511809Y-118319523D01*
X107511809Y-118243333D01*
X107473714Y-118167142D01*
X107435619Y-118129047D01*
X107359428Y-118090952D01*
X107207047Y-118052857D01*
X107130857Y-118014761D01*
X107092761Y-117976666D01*
X107054666Y-117900476D01*
X107054666Y-117824285D01*
X107092761Y-117748095D01*
X107130857Y-117710000D01*
X107207047Y-117671904D01*
X107397523Y-117671904D01*
X107511809Y-117710000D01*
X107854666Y-118052857D02*
X108121333Y-118052857D01*
X108235619Y-118471904D02*
X107854666Y-118471904D01*
X107854666Y-117671904D01*
X108235619Y-117671904D01*
X108464190Y-117671904D02*
X108921333Y-117671904D01*
X108692761Y-118471904D02*
X108692761Y-117671904D01*
%LPC*%
D18*
X77141378Y-138760262D02*
G75*
G02*
X73281622Y-131345738I-1929878J3707262D01*
G01*
X83060622Y-126392738D02*
G75*
G02*
X86920378Y-133807262I1929878J-3707262D01*
G01*
X86920378Y-133807262D02*
X77141378Y-138760262D01*
X83060622Y-126392738D02*
X73281622Y-131345738D01*
D11*
X37395000Y-66865500D02*
X37395000Y-67691000D01*
X36895000Y-66865500D02*
X36895000Y-67691000D01*
X36395000Y-66865500D02*
X36395000Y-67691000D01*
X40513000Y-67691000D02*
G75*
G02*
X40513000Y-69469000I0J-889000D01*
G01*
X35560000Y-69469000D02*
G75*
G02*
X35560000Y-67691000I0J889000D01*
G01*
X35560000Y-67691000D02*
X40513000Y-67691000D01*
X40513000Y-69469000D02*
X35560000Y-69469000D01*
D18*
X93654500Y-66675000D02*
X93654500Y-73660000D01*
X32964500Y-66675000D02*
X32964500Y-73660000D01*
X25400000Y-73660000D02*
X100965000Y-73660000D01*
X53657500Y-133096000D02*
G75*
G03*
X53657500Y-133096000I-7112000J0D01*
G01*
D19*
X249999500Y-70104000D03*
X232854500Y-151130000D03*
X182181500Y-70104000D03*
X182181500Y-151130000D03*
D20*
X156210000Y-109920000D03*
X153670000Y-109920000D03*
X151130000Y-109920000D03*
X148590000Y-109920000D03*
X146050000Y-109920000D03*
X143510000Y-109920000D03*
X140970000Y-109920000D03*
X138430000Y-109920000D03*
X135890000Y-109920000D03*
X133350000Y-109920000D03*
X130810000Y-109920000D03*
X128270000Y-109920000D03*
X125730000Y-109920000D03*
X123190000Y-109920000D03*
X123190000Y-115000000D03*
X125730000Y-115000000D03*
X128270000Y-115000000D03*
X130810000Y-115000000D03*
X133350000Y-115000000D03*
X135890000Y-115000000D03*
X156210000Y-115000000D03*
X153670000Y-115000000D03*
X151130000Y-115000000D03*
X148590000Y-115000000D03*
X146050000Y-115000000D03*
X143510000Y-115000000D03*
X138430000Y-115000000D03*
X140970000Y-115000000D03*
D21*
X170434000Y-121920000D03*
X170434000Y-124460000D03*
X170434000Y-119380000D03*
D19*
X97218500Y-70104000D03*
X80073500Y-151130000D03*
X29400500Y-70104000D03*
X29400500Y-151130000D03*
D22*
X178911000Y-131318000D03*
X178911000Y-130429000D03*
X178911000Y-132207000D03*
X176879000Y-130429000D03*
X176879000Y-131318000D03*
X176879000Y-132207000D03*
X176879000Y-97028000D03*
X176879000Y-96139000D03*
X176879000Y-95250000D03*
X178911000Y-97028000D03*
X178911000Y-95250000D03*
X178911000Y-96139000D03*
X100489000Y-96139000D03*
X100489000Y-97028000D03*
X100489000Y-95250000D03*
X102521000Y-97028000D03*
X102521000Y-96139000D03*
X102521000Y-95250000D03*
X102521000Y-130429000D03*
X102521000Y-131318000D03*
X102521000Y-132207000D03*
X100489000Y-130429000D03*
X100489000Y-132207000D03*
X100489000Y-131318000D03*
D23*
X166116000Y-107696000D03*
X166116000Y-97536000D03*
X166116000Y-105156000D03*
X166116000Y-100076000D03*
X166116000Y-102616000D03*
X166116000Y-82296000D03*
D24*
X166116000Y-94996000D03*
D23*
X166116000Y-84836000D03*
X166116000Y-87376000D03*
X166116000Y-89916000D03*
D24*
X166116000Y-92456000D03*
D25*
X105791000Y-151130000D03*
X105791000Y-70104000D03*
X156464000Y-151130000D03*
D26*
X173609000Y-70104000D03*
D20*
X172426000Y-140208000D03*
X167426000Y-140208000D03*
D27*
X134493000Y-119888000D03*
X134493000Y-122388000D03*
X144907000Y-119928000D03*
X144907000Y-122428000D03*
G36*
G01*
X142585646Y-149467144D02*
X142585646Y-149467144D01*
G75*
G02*
X142223833Y-150614669I-754669J-392856D01*
G01*
X142223833Y-150614669D01*
G75*
G02*
X141076308Y-150252856I-392856J754669D01*
G01*
X141076308Y-150252856D01*
G75*
G02*
X141438121Y-149105331I754669J392856D01*
G01*
X141438121Y-149105331D01*
G75*
G02*
X142585646Y-149467144I392856J-754669D01*
G01*
G37*
G36*
G01*
X148975270Y-145239011D02*
X149714068Y-146658229D01*
G75*
G02*
X149692465Y-146726746I-45060J-23457D01*
G01*
X148273247Y-147465544D01*
G75*
G02*
X148204730Y-147443941I-23457J45060D01*
G01*
X147465932Y-146024723D01*
G75*
G02*
X147487535Y-145956206I45060J23457D01*
G01*
X148906753Y-145217408D01*
G75*
G02*
X148975270Y-145239011I23457J-45060D01*
G01*
G37*
G36*
G01*
X137954293Y-145239011D02*
X138693091Y-146658229D01*
G75*
G02*
X138671488Y-146726746I-45060J-23457D01*
G01*
X137252270Y-147465544D01*
G75*
G02*
X137183753Y-147443941I-23457J45060D01*
G01*
X136444955Y-146024723D01*
G75*
G02*
X136466558Y-145956206I45060J23457D01*
G01*
X137885776Y-145217408D01*
G75*
G02*
X137954293Y-145239011I23457J-45060D01*
G01*
G37*
G36*
G01*
X131564669Y-149467144D02*
X131564669Y-149467144D01*
G75*
G02*
X131202856Y-150614669I-754669J-392856D01*
G01*
X131202856Y-150614669D01*
G75*
G02*
X130055331Y-150252856I-392856J754669D01*
G01*
X130055331Y-150252856D01*
G75*
G02*
X130417144Y-149105331I754669J392856D01*
G01*
X130417144Y-149105331D01*
G75*
G02*
X131564669Y-149467144I392856J-754669D01*
G01*
G37*
X111760000Y-114300000D03*
D28*
X111760000Y-121920000D03*
D29*
X110794800Y-70104000D03*
X113284000Y-70104000D03*
X115773200Y-70104000D03*
D30*
X108154000Y-121584000D03*
D20*
X105664000Y-120324000D03*
X105664000Y-115824000D03*
D30*
X108154000Y-114574000D03*
D24*
X114554000Y-145161000D03*
X112014000Y-145161000D03*
X117094000Y-145161000D03*
X109474000Y-145161000D03*
D31*
X137160000Y-121412000D03*
X142240000Y-121412000D03*
X139700000Y-121412000D03*
D24*
X106200000Y-102616000D03*
X106200000Y-100076000D03*
X106200000Y-97536000D03*
X106200000Y-94996000D03*
X106200000Y-92456000D03*
X106200000Y-89916000D03*
X106200000Y-87376000D03*
D32*
X149352000Y-131803000D03*
X153852000Y-131803000D03*
X149352000Y-138303000D03*
X153852000Y-138303000D03*
X163631000Y-133350000D03*
X159131000Y-133350000D03*
X163631000Y-126850000D03*
X159131000Y-126850000D03*
X120686000Y-122734000D03*
X125186000Y-122734000D03*
X120686000Y-129234000D03*
X125186000Y-129234000D03*
X125186000Y-143458000D03*
X120686000Y-143458000D03*
X125186000Y-136958000D03*
X120686000Y-136958000D03*
X118074000Y-136346000D03*
X113574000Y-136346000D03*
X118074000Y-129846000D03*
X113574000Y-129846000D03*
X127798000Y-129846000D03*
X132298000Y-129846000D03*
X127798000Y-136346000D03*
X132298000Y-136346000D03*
M02*
