M48
; DRILL file {KiCad (5.1.2-1)-1} date Wednesday, January 20, 2021 at 09:53:49 PM
; FORMAT={-:-/ absolute / inch / decimal}
; #@! TF.CreationDate,2021-01-20T21:53:49-08:00
; #@! TF.GenerationSoftware,Kicad,Pcbnew,(5.1.2-1)-1
; #@! TF.FileFunction,Plated,1,2,PTH
FMAT,2
INCH
T1C0.0118
T2C0.0433
%
G90
G05
T1
X4.89Y-4.4
X5.3Y-4.4
X5.4Y-4.4
X5.5Y-4.4
X5.6Y-4.4
X5.7Y-4.4
X5.8Y-4.4
X5.9Y-4.4
X6.0Y-4.4
X6.1Y-4.4
X6.225Y-4.4
T2
X5.0Y-4.1
X5.0Y-4.7
X5.1Y-4.1
X5.1Y-4.7
X5.2Y-4.1
X5.2Y-4.7
X5.3Y-4.1
X5.3Y-4.7
X5.4Y-4.1
X5.4Y-4.7
X5.5Y-4.1
X5.5Y-4.7
X5.6Y-4.1
X5.6Y-4.7
X5.7Y-4.1
X5.7Y-4.7
X5.8Y-4.1
X5.8Y-4.7
X5.9Y-4.1
X5.9Y-4.7
X6.0Y-4.1
X6.0Y-4.7
X6.1Y-4.1
X6.1Y-4.7
T0
M30
