G04 #@! TF.GenerationSoftware,KiCad,Pcbnew,(5.1.2-1)-1*
G04 #@! TF.CreationDate,2021-01-20T21:53:46-08:00*
G04 #@! TF.ProjectId,cart,63617274-2e6b-4696-9361-645f70636258,rev?*
G04 #@! TF.SameCoordinates,Original*
G04 #@! TF.FileFunction,Copper,L2,Bot*
G04 #@! TF.FilePolarity,Positive*
%FSLAX46Y46*%
G04 Gerber Fmt 4.6, Leading zero omitted, Abs format (unit mm)*
G04 Created by KiCad (PCBNEW (5.1.2-1)-1) date 2021-01-20 21:53:46*
%MOMM*%
%LPD*%
G04 APERTURE LIST*
%ADD10C,0.228600*%
%ADD11R,1.600000X4.000000*%
%ADD12C,1.600000*%
%ADD13C,0.600000*%
%ADD14C,0.254000*%
G04 APERTURE END LIST*
D10*
X121871619Y-104046685D02*
X121871619Y-103466113D01*
X121871619Y-103756399D02*
X120855619Y-103756399D01*
X121000761Y-103659637D01*
X121097523Y-103562875D01*
X121145904Y-103466113D01*
X121774857Y-104482113D02*
X121823238Y-104530494D01*
X121871619Y-104482113D01*
X121823238Y-104433732D01*
X121774857Y-104482113D01*
X121871619Y-104482113D01*
X120855619Y-105159447D02*
X120855619Y-105256209D01*
X120904000Y-105352970D01*
X120952380Y-105401351D01*
X121049142Y-105449732D01*
X121242666Y-105498113D01*
X121484571Y-105498113D01*
X121678095Y-105449732D01*
X121774857Y-105401351D01*
X121823238Y-105352970D01*
X121871619Y-105256209D01*
X121871619Y-105159447D01*
X121823238Y-105062685D01*
X121774857Y-105014304D01*
X121678095Y-104965923D01*
X121484571Y-104917542D01*
X121242666Y-104917542D01*
X121049142Y-104965923D01*
X120952380Y-105014304D01*
X120904000Y-105062685D01*
X120855619Y-105159447D01*
X121484571Y-105933542D02*
X121484571Y-106707637D01*
X121871619Y-107626875D02*
X120855619Y-107626875D01*
X121823238Y-107626875D02*
X121871619Y-107530113D01*
X121871619Y-107336590D01*
X121823238Y-107239828D01*
X121774857Y-107191447D01*
X121678095Y-107143066D01*
X121387809Y-107143066D01*
X121291047Y-107191447D01*
X121242666Y-107239828D01*
X121194285Y-107336590D01*
X121194285Y-107530113D01*
X121242666Y-107626875D01*
X121823238Y-108497732D02*
X121871619Y-108400970D01*
X121871619Y-108207447D01*
X121823238Y-108110685D01*
X121726476Y-108062304D01*
X121339428Y-108062304D01*
X121242666Y-108110685D01*
X121194285Y-108207447D01*
X121194285Y-108400970D01*
X121242666Y-108497732D01*
X121339428Y-108546113D01*
X121436190Y-108546113D01*
X121532952Y-108062304D01*
X121194285Y-108884780D02*
X121871619Y-109126685D01*
X121194285Y-109368590D01*
X120855619Y-109949161D02*
X120855619Y-110045923D01*
X120904000Y-110142685D01*
X120952380Y-110191066D01*
X121049142Y-110239447D01*
X121242666Y-110287828D01*
X121484571Y-110287828D01*
X121678095Y-110239447D01*
X121774857Y-110191066D01*
X121823238Y-110142685D01*
X121871619Y-110045923D01*
X121871619Y-109949161D01*
X121823238Y-109852399D01*
X121774857Y-109804018D01*
X121678095Y-109755637D01*
X121484571Y-109707256D01*
X121242666Y-109707256D01*
X121049142Y-109755637D01*
X120952380Y-109804018D01*
X120904000Y-109852399D01*
X120855619Y-109949161D01*
D11*
X123190000Y-126619000D03*
X125730000Y-126619000D03*
X128270000Y-126619000D03*
X133350000Y-126619000D03*
X135890000Y-126619000D03*
X138430000Y-126619000D03*
X140970000Y-126619000D03*
X143510000Y-126619000D03*
X146050000Y-126619000D03*
X148590000Y-126619000D03*
X151130000Y-126619000D03*
X156210000Y-126619000D03*
X153670000Y-126619000D03*
D12*
X127000000Y-104140000D03*
X129540000Y-104140000D03*
X132080000Y-104140000D03*
X134620000Y-104140000D03*
X137160000Y-104140000D03*
X139700000Y-104140000D03*
X142240000Y-104140000D03*
X144780000Y-104140000D03*
X147320000Y-104140000D03*
X149860000Y-104140000D03*
X152400000Y-104140000D03*
X154940000Y-104140000D03*
X154940000Y-119380000D03*
X152400000Y-119380000D03*
X149860000Y-119380000D03*
X147320000Y-119380000D03*
X144780000Y-119380000D03*
X142240000Y-119380000D03*
X139700000Y-119380000D03*
X137160000Y-119380000D03*
X134620000Y-119380000D03*
X132080000Y-119380000D03*
X129540000Y-119380000D03*
X127000000Y-119380000D03*
D13*
X134620000Y-111760000D03*
X137160000Y-111760000D03*
X139700000Y-111760000D03*
X142240000Y-111760000D03*
X144780000Y-111760000D03*
X147320000Y-111760000D03*
X149860000Y-111760000D03*
X152400000Y-111760000D03*
X154940000Y-111760000D03*
X158115000Y-111760000D03*
X124206000Y-111760000D03*
D14*
X128270000Y-105410000D02*
X128270000Y-126619000D01*
X127000000Y-104140000D02*
X128270000Y-105410000D01*
X133350000Y-105410000D02*
X133350000Y-126619000D01*
X132080000Y-104140000D02*
X133350000Y-105410000D01*
X135890000Y-105410000D02*
X135890000Y-126619000D01*
X134620000Y-104140000D02*
X135890000Y-105410000D01*
X138430000Y-105410000D02*
X138430000Y-126619000D01*
X137160000Y-104140000D02*
X138430000Y-105410000D01*
X140970000Y-105410000D02*
X140970000Y-126619000D01*
X139700000Y-104140000D02*
X140970000Y-105410000D01*
X143510000Y-105410000D02*
X143510000Y-126619000D01*
X142240000Y-104140000D02*
X143510000Y-105410000D01*
X146050000Y-105410000D02*
X146050000Y-126619000D01*
X144780000Y-104140000D02*
X146050000Y-105410000D01*
X148590000Y-105410000D02*
X148590000Y-126619000D01*
X147320000Y-104140000D02*
X148590000Y-105410000D01*
X151130000Y-105410000D02*
X151130000Y-126619000D01*
X149860000Y-104140000D02*
X151130000Y-105410000D01*
X156210000Y-105410000D02*
X156210000Y-126619000D01*
X154940000Y-104140000D02*
X156210000Y-105410000D01*
X153670000Y-105410000D02*
X153670000Y-126619000D01*
X152400000Y-104140000D02*
X153670000Y-105410000D01*
G36*
X128726903Y-103147298D02*
G01*
X129540000Y-103960395D01*
X130353097Y-103147298D01*
X130338339Y-103097000D01*
X131286622Y-103097000D01*
X131246199Y-103124010D01*
X131064010Y-103306199D01*
X130920865Y-103520430D01*
X130878772Y-103622051D01*
X130843603Y-103523708D01*
X130776671Y-103398486D01*
X130532702Y-103326903D01*
X129719605Y-104140000D01*
X130532702Y-104953097D01*
X130776671Y-104881514D01*
X130880492Y-104662100D01*
X130920865Y-104759570D01*
X131064010Y-104973801D01*
X131246199Y-105155990D01*
X131460430Y-105299135D01*
X131698470Y-105397734D01*
X131951173Y-105448000D01*
X132208827Y-105448000D01*
X132443330Y-105401354D01*
X132715000Y-105673025D01*
X132715001Y-118092930D01*
X132566004Y-118022429D01*
X132291816Y-117953700D01*
X132009488Y-117939783D01*
X131729870Y-117981213D01*
X131463708Y-118076397D01*
X131338486Y-118143329D01*
X131266903Y-118387298D01*
X132080000Y-119200395D01*
X132094143Y-119186253D01*
X132273748Y-119365858D01*
X132259605Y-119380000D01*
X132273748Y-119394143D01*
X132094143Y-119573748D01*
X132080000Y-119559605D01*
X131266903Y-120372702D01*
X131338486Y-120616671D01*
X131593996Y-120737571D01*
X131868184Y-120806300D01*
X132150512Y-120820217D01*
X132430130Y-120778787D01*
X132696292Y-120683603D01*
X132715001Y-120673603D01*
X132715001Y-123888500D01*
X128905000Y-123888500D01*
X128905000Y-120528825D01*
X128920430Y-120539135D01*
X129158470Y-120637734D01*
X129411173Y-120688000D01*
X129668827Y-120688000D01*
X129921530Y-120637734D01*
X130159570Y-120539135D01*
X130373801Y-120395990D01*
X130555990Y-120213801D01*
X130699135Y-119999570D01*
X130741228Y-119897949D01*
X130776397Y-119996292D01*
X130843329Y-120121514D01*
X131087298Y-120193097D01*
X131900395Y-119380000D01*
X131087298Y-118566903D01*
X130843329Y-118638486D01*
X130739508Y-118857900D01*
X130699135Y-118760430D01*
X130555990Y-118546199D01*
X130373801Y-118364010D01*
X130159570Y-118220865D01*
X129921530Y-118122266D01*
X129668827Y-118072000D01*
X129411173Y-118072000D01*
X129158470Y-118122266D01*
X128920430Y-118220865D01*
X128905000Y-118231175D01*
X128905000Y-105441180D01*
X128906328Y-105427699D01*
X129053996Y-105497571D01*
X129328184Y-105566300D01*
X129610512Y-105580217D01*
X129890130Y-105538787D01*
X130156292Y-105443603D01*
X130281514Y-105376671D01*
X130353097Y-105132702D01*
X129540000Y-104319605D01*
X129525858Y-104333748D01*
X129346253Y-104154143D01*
X129360395Y-104140000D01*
X128547298Y-103326903D01*
X128303329Y-103398486D01*
X128199508Y-103617900D01*
X128159135Y-103520430D01*
X128015990Y-103306199D01*
X127833801Y-103124010D01*
X127793378Y-103097000D01*
X128741661Y-103097000D01*
X128726903Y-103147298D01*
X128726903Y-103147298D01*
G37*
X128726903Y-103147298D02*
X129540000Y-103960395D01*
X130353097Y-103147298D01*
X130338339Y-103097000D01*
X131286622Y-103097000D01*
X131246199Y-103124010D01*
X131064010Y-103306199D01*
X130920865Y-103520430D01*
X130878772Y-103622051D01*
X130843603Y-103523708D01*
X130776671Y-103398486D01*
X130532702Y-103326903D01*
X129719605Y-104140000D01*
X130532702Y-104953097D01*
X130776671Y-104881514D01*
X130880492Y-104662100D01*
X130920865Y-104759570D01*
X131064010Y-104973801D01*
X131246199Y-105155990D01*
X131460430Y-105299135D01*
X131698470Y-105397734D01*
X131951173Y-105448000D01*
X132208827Y-105448000D01*
X132443330Y-105401354D01*
X132715000Y-105673025D01*
X132715001Y-118092930D01*
X132566004Y-118022429D01*
X132291816Y-117953700D01*
X132009488Y-117939783D01*
X131729870Y-117981213D01*
X131463708Y-118076397D01*
X131338486Y-118143329D01*
X131266903Y-118387298D01*
X132080000Y-119200395D01*
X132094143Y-119186253D01*
X132273748Y-119365858D01*
X132259605Y-119380000D01*
X132273748Y-119394143D01*
X132094143Y-119573748D01*
X132080000Y-119559605D01*
X131266903Y-120372702D01*
X131338486Y-120616671D01*
X131593996Y-120737571D01*
X131868184Y-120806300D01*
X132150512Y-120820217D01*
X132430130Y-120778787D01*
X132696292Y-120683603D01*
X132715001Y-120673603D01*
X132715001Y-123888500D01*
X128905000Y-123888500D01*
X128905000Y-120528825D01*
X128920430Y-120539135D01*
X129158470Y-120637734D01*
X129411173Y-120688000D01*
X129668827Y-120688000D01*
X129921530Y-120637734D01*
X130159570Y-120539135D01*
X130373801Y-120395990D01*
X130555990Y-120213801D01*
X130699135Y-119999570D01*
X130741228Y-119897949D01*
X130776397Y-119996292D01*
X130843329Y-120121514D01*
X131087298Y-120193097D01*
X131900395Y-119380000D01*
X131087298Y-118566903D01*
X130843329Y-118638486D01*
X130739508Y-118857900D01*
X130699135Y-118760430D01*
X130555990Y-118546199D01*
X130373801Y-118364010D01*
X130159570Y-118220865D01*
X129921530Y-118122266D01*
X129668827Y-118072000D01*
X129411173Y-118072000D01*
X129158470Y-118122266D01*
X128920430Y-118220865D01*
X128905000Y-118231175D01*
X128905000Y-105441180D01*
X128906328Y-105427699D01*
X129053996Y-105497571D01*
X129328184Y-105566300D01*
X129610512Y-105580217D01*
X129890130Y-105538787D01*
X130156292Y-105443603D01*
X130281514Y-105376671D01*
X130353097Y-105132702D01*
X129540000Y-104319605D01*
X129525858Y-104333748D01*
X129346253Y-104154143D01*
X129360395Y-104140000D01*
X128547298Y-103326903D01*
X128303329Y-103398486D01*
X128199508Y-103617900D01*
X128159135Y-103520430D01*
X128015990Y-103306199D01*
X127833801Y-103124010D01*
X127793378Y-103097000D01*
X128741661Y-103097000D01*
X128726903Y-103147298D01*
G36*
X159017344Y-103102792D02*
G01*
X159045572Y-103111315D01*
X159071609Y-103125159D01*
X159094460Y-103143796D01*
X159113257Y-103166517D01*
X159127278Y-103192448D01*
X159135998Y-103220620D01*
X159142000Y-103277722D01*
X159142001Y-119840896D01*
X158420334Y-120390807D01*
X158410579Y-120396021D01*
X158372756Y-120427062D01*
X158357746Y-120438499D01*
X158349713Y-120445972D01*
X158317999Y-120471999D01*
X158305935Y-120486699D01*
X158292027Y-120499638D01*
X158268040Y-120532875D01*
X158242021Y-120564580D01*
X158233060Y-120581344D01*
X158221940Y-120596753D01*
X158204895Y-120634038D01*
X158185564Y-120670204D01*
X158180046Y-120688393D01*
X158172145Y-120705677D01*
X158162701Y-120745575D01*
X158150798Y-120784812D01*
X158148935Y-120803726D01*
X158144557Y-120822221D01*
X158143078Y-120863199D01*
X158142000Y-120874140D01*
X158142000Y-120893046D01*
X158140236Y-120941907D01*
X158142000Y-120952819D01*
X158142000Y-123888500D01*
X156845000Y-123888500D01*
X156845000Y-105441180D01*
X156848071Y-105409999D01*
X156845000Y-105378818D01*
X156845000Y-105378808D01*
X156835812Y-105285518D01*
X156799502Y-105165820D01*
X156740538Y-105055507D01*
X156740537Y-105055505D01*
X156681068Y-104983043D01*
X156661185Y-104958815D01*
X156636956Y-104938931D01*
X156201354Y-104503330D01*
X156248000Y-104268827D01*
X156248000Y-104011173D01*
X156197734Y-103758470D01*
X156099135Y-103520430D01*
X155955990Y-103306199D01*
X155773801Y-103124010D01*
X155733378Y-103097000D01*
X158958268Y-103097000D01*
X159017344Y-103102792D01*
X159017344Y-103102792D01*
G37*
X159017344Y-103102792D02*
X159045572Y-103111315D01*
X159071609Y-103125159D01*
X159094460Y-103143796D01*
X159113257Y-103166517D01*
X159127278Y-103192448D01*
X159135998Y-103220620D01*
X159142000Y-103277722D01*
X159142001Y-119840896D01*
X158420334Y-120390807D01*
X158410579Y-120396021D01*
X158372756Y-120427062D01*
X158357746Y-120438499D01*
X158349713Y-120445972D01*
X158317999Y-120471999D01*
X158305935Y-120486699D01*
X158292027Y-120499638D01*
X158268040Y-120532875D01*
X158242021Y-120564580D01*
X158233060Y-120581344D01*
X158221940Y-120596753D01*
X158204895Y-120634038D01*
X158185564Y-120670204D01*
X158180046Y-120688393D01*
X158172145Y-120705677D01*
X158162701Y-120745575D01*
X158150798Y-120784812D01*
X158148935Y-120803726D01*
X158144557Y-120822221D01*
X158143078Y-120863199D01*
X158142000Y-120874140D01*
X158142000Y-120893046D01*
X158140236Y-120941907D01*
X158142000Y-120952819D01*
X158142000Y-123888500D01*
X156845000Y-123888500D01*
X156845000Y-105441180D01*
X156848071Y-105409999D01*
X156845000Y-105378818D01*
X156845000Y-105378808D01*
X156835812Y-105285518D01*
X156799502Y-105165820D01*
X156740538Y-105055507D01*
X156740537Y-105055505D01*
X156681068Y-104983043D01*
X156661185Y-104958815D01*
X156636956Y-104938931D01*
X156201354Y-104503330D01*
X156248000Y-104268827D01*
X156248000Y-104011173D01*
X156197734Y-103758470D01*
X156099135Y-103520430D01*
X155955990Y-103306199D01*
X155773801Y-103124010D01*
X155733378Y-103097000D01*
X158958268Y-103097000D01*
X159017344Y-103102792D01*
G36*
X126166199Y-103124010D02*
G01*
X125984010Y-103306199D01*
X125840865Y-103520430D01*
X125742266Y-103758470D01*
X125692000Y-104011173D01*
X125692000Y-104268827D01*
X125742266Y-104521530D01*
X125840865Y-104759570D01*
X125984010Y-104973801D01*
X126166199Y-105155990D01*
X126380430Y-105299135D01*
X126618470Y-105397734D01*
X126871173Y-105448000D01*
X127128827Y-105448000D01*
X127363330Y-105401354D01*
X127635000Y-105673025D01*
X127635001Y-118231175D01*
X127619570Y-118220865D01*
X127381530Y-118122266D01*
X127128827Y-118072000D01*
X126871173Y-118072000D01*
X126618470Y-118122266D01*
X126380430Y-118220865D01*
X126166199Y-118364010D01*
X125984010Y-118546199D01*
X125840865Y-118760430D01*
X125742266Y-118998470D01*
X125692000Y-119251173D01*
X125692000Y-119508827D01*
X125742266Y-119761530D01*
X125840865Y-119999570D01*
X125984010Y-120213801D01*
X126166199Y-120395990D01*
X126380430Y-120539135D01*
X126618470Y-120637734D01*
X126871173Y-120688000D01*
X127128827Y-120688000D01*
X127381530Y-120637734D01*
X127619570Y-120539135D01*
X127635001Y-120528824D01*
X127635001Y-123888500D01*
X121258000Y-123888500D01*
X121258000Y-120949819D01*
X121259764Y-120938907D01*
X121258000Y-120890046D01*
X121258000Y-120871139D01*
X121256922Y-120860198D01*
X121255443Y-120819220D01*
X121251065Y-120800725D01*
X121249202Y-120781811D01*
X121237299Y-120742574D01*
X121227855Y-120702676D01*
X121219954Y-120685392D01*
X121214436Y-120667203D01*
X121195105Y-120631037D01*
X121178060Y-120593752D01*
X121166940Y-120578343D01*
X121157979Y-120561579D01*
X121131962Y-120529877D01*
X121107973Y-120496637D01*
X121094062Y-120483695D01*
X121082001Y-120468999D01*
X121050298Y-120442982D01*
X121042254Y-120435498D01*
X121027219Y-120424042D01*
X120989420Y-120393021D01*
X120979672Y-120387811D01*
X120258000Y-119837897D01*
X120258000Y-111069362D01*
X122883930Y-111069362D01*
X122883930Y-103097000D01*
X126206622Y-103097000D01*
X126166199Y-103124010D01*
X126166199Y-103124010D01*
G37*
X126166199Y-103124010D02*
X125984010Y-103306199D01*
X125840865Y-103520430D01*
X125742266Y-103758470D01*
X125692000Y-104011173D01*
X125692000Y-104268827D01*
X125742266Y-104521530D01*
X125840865Y-104759570D01*
X125984010Y-104973801D01*
X126166199Y-105155990D01*
X126380430Y-105299135D01*
X126618470Y-105397734D01*
X126871173Y-105448000D01*
X127128827Y-105448000D01*
X127363330Y-105401354D01*
X127635000Y-105673025D01*
X127635001Y-118231175D01*
X127619570Y-118220865D01*
X127381530Y-118122266D01*
X127128827Y-118072000D01*
X126871173Y-118072000D01*
X126618470Y-118122266D01*
X126380430Y-118220865D01*
X126166199Y-118364010D01*
X125984010Y-118546199D01*
X125840865Y-118760430D01*
X125742266Y-118998470D01*
X125692000Y-119251173D01*
X125692000Y-119508827D01*
X125742266Y-119761530D01*
X125840865Y-119999570D01*
X125984010Y-120213801D01*
X126166199Y-120395990D01*
X126380430Y-120539135D01*
X126618470Y-120637734D01*
X126871173Y-120688000D01*
X127128827Y-120688000D01*
X127381530Y-120637734D01*
X127619570Y-120539135D01*
X127635001Y-120528824D01*
X127635001Y-123888500D01*
X121258000Y-123888500D01*
X121258000Y-120949819D01*
X121259764Y-120938907D01*
X121258000Y-120890046D01*
X121258000Y-120871139D01*
X121256922Y-120860198D01*
X121255443Y-120819220D01*
X121251065Y-120800725D01*
X121249202Y-120781811D01*
X121237299Y-120742574D01*
X121227855Y-120702676D01*
X121219954Y-120685392D01*
X121214436Y-120667203D01*
X121195105Y-120631037D01*
X121178060Y-120593752D01*
X121166940Y-120578343D01*
X121157979Y-120561579D01*
X121131962Y-120529877D01*
X121107973Y-120496637D01*
X121094062Y-120483695D01*
X121082001Y-120468999D01*
X121050298Y-120442982D01*
X121042254Y-120435498D01*
X121027219Y-120424042D01*
X120989420Y-120393021D01*
X120979672Y-120387811D01*
X120258000Y-119837897D01*
X120258000Y-111069362D01*
X122883930Y-111069362D01*
X122883930Y-103097000D01*
X126206622Y-103097000D01*
X126166199Y-103124010D01*
G36*
X134813748Y-119365858D02*
G01*
X134799605Y-119380000D01*
X134813748Y-119394143D01*
X134634143Y-119573748D01*
X134620000Y-119559605D01*
X134605858Y-119573748D01*
X134426253Y-119394143D01*
X134440395Y-119380000D01*
X134426253Y-119365858D01*
X134605858Y-119186253D01*
X134620000Y-119200395D01*
X134634143Y-119186253D01*
X134813748Y-119365858D01*
X134813748Y-119365858D01*
G37*
X134813748Y-119365858D02*
X134799605Y-119380000D01*
X134813748Y-119394143D01*
X134634143Y-119573748D01*
X134620000Y-119559605D01*
X134605858Y-119573748D01*
X134426253Y-119394143D01*
X134440395Y-119380000D01*
X134426253Y-119365858D01*
X134605858Y-119186253D01*
X134620000Y-119200395D01*
X134634143Y-119186253D01*
X134813748Y-119365858D01*
G36*
X139080430Y-105299135D02*
G01*
X139318470Y-105397734D01*
X139571173Y-105448000D01*
X139828827Y-105448000D01*
X140063330Y-105401354D01*
X140335000Y-105673025D01*
X140335001Y-118231175D01*
X140319570Y-118220865D01*
X140081530Y-118122266D01*
X139828827Y-118072000D01*
X139571173Y-118072000D01*
X139318470Y-118122266D01*
X139080430Y-118220865D01*
X139065000Y-118231175D01*
X139065000Y-105441180D01*
X139068071Y-105409999D01*
X139065000Y-105378818D01*
X139065000Y-105378808D01*
X139055812Y-105285518D01*
X139054734Y-105281966D01*
X139080430Y-105299135D01*
X139080430Y-105299135D01*
G37*
X139080430Y-105299135D02*
X139318470Y-105397734D01*
X139571173Y-105448000D01*
X139828827Y-105448000D01*
X140063330Y-105401354D01*
X140335000Y-105673025D01*
X140335001Y-118231175D01*
X140319570Y-118220865D01*
X140081530Y-118122266D01*
X139828827Y-118072000D01*
X139571173Y-118072000D01*
X139318470Y-118122266D01*
X139080430Y-118220865D01*
X139065000Y-118231175D01*
X139065000Y-105441180D01*
X139068071Y-105409999D01*
X139065000Y-105378818D01*
X139065000Y-105378808D01*
X139055812Y-105285518D01*
X139054734Y-105281966D01*
X139080430Y-105299135D01*
G36*
X146700430Y-105299135D02*
G01*
X146938470Y-105397734D01*
X147191173Y-105448000D01*
X147448827Y-105448000D01*
X147683330Y-105401354D01*
X147955000Y-105673025D01*
X147955001Y-118231175D01*
X147939570Y-118220865D01*
X147701530Y-118122266D01*
X147448827Y-118072000D01*
X147191173Y-118072000D01*
X146938470Y-118122266D01*
X146700430Y-118220865D01*
X146685000Y-118231175D01*
X146685000Y-105441180D01*
X146688071Y-105409999D01*
X146685000Y-105378818D01*
X146685000Y-105378808D01*
X146675812Y-105285518D01*
X146674734Y-105281966D01*
X146700430Y-105299135D01*
X146700430Y-105299135D01*
G37*
X146700430Y-105299135D02*
X146938470Y-105397734D01*
X147191173Y-105448000D01*
X147448827Y-105448000D01*
X147683330Y-105401354D01*
X147955000Y-105673025D01*
X147955001Y-118231175D01*
X147939570Y-118220865D01*
X147701530Y-118122266D01*
X147448827Y-118072000D01*
X147191173Y-118072000D01*
X146938470Y-118122266D01*
X146700430Y-118220865D01*
X146685000Y-118231175D01*
X146685000Y-105441180D01*
X146688071Y-105409999D01*
X146685000Y-105378818D01*
X146685000Y-105378808D01*
X146675812Y-105285518D01*
X146674734Y-105281966D01*
X146700430Y-105299135D01*
G36*
X149240430Y-105299135D02*
G01*
X149478470Y-105397734D01*
X149731173Y-105448000D01*
X149988827Y-105448000D01*
X150223330Y-105401354D01*
X150495000Y-105673025D01*
X150495001Y-118231175D01*
X150479570Y-118220865D01*
X150241530Y-118122266D01*
X149988827Y-118072000D01*
X149731173Y-118072000D01*
X149478470Y-118122266D01*
X149240430Y-118220865D01*
X149225000Y-118231175D01*
X149225000Y-105441180D01*
X149228071Y-105409999D01*
X149225000Y-105378818D01*
X149225000Y-105378808D01*
X149215812Y-105285518D01*
X149214734Y-105281966D01*
X149240430Y-105299135D01*
X149240430Y-105299135D01*
G37*
X149240430Y-105299135D02*
X149478470Y-105397734D01*
X149731173Y-105448000D01*
X149988827Y-105448000D01*
X150223330Y-105401354D01*
X150495000Y-105673025D01*
X150495001Y-118231175D01*
X150479570Y-118220865D01*
X150241530Y-118122266D01*
X149988827Y-118072000D01*
X149731173Y-118072000D01*
X149478470Y-118122266D01*
X149240430Y-118220865D01*
X149225000Y-118231175D01*
X149225000Y-105441180D01*
X149228071Y-105409999D01*
X149225000Y-105378818D01*
X149225000Y-105378808D01*
X149215812Y-105285518D01*
X149214734Y-105281966D01*
X149240430Y-105299135D01*
G36*
X154320430Y-105299135D02*
G01*
X154558470Y-105397734D01*
X154811173Y-105448000D01*
X155068827Y-105448000D01*
X155303330Y-105401354D01*
X155575000Y-105673025D01*
X155575001Y-118231175D01*
X155559570Y-118220865D01*
X155321530Y-118122266D01*
X155068827Y-118072000D01*
X154811173Y-118072000D01*
X154558470Y-118122266D01*
X154320430Y-118220865D01*
X154305000Y-118231175D01*
X154305000Y-105441180D01*
X154308071Y-105409999D01*
X154305000Y-105378818D01*
X154305000Y-105378808D01*
X154295812Y-105285518D01*
X154294734Y-105281966D01*
X154320430Y-105299135D01*
X154320430Y-105299135D01*
G37*
X154320430Y-105299135D02*
X154558470Y-105397734D01*
X154811173Y-105448000D01*
X155068827Y-105448000D01*
X155303330Y-105401354D01*
X155575000Y-105673025D01*
X155575001Y-118231175D01*
X155559570Y-118220865D01*
X155321530Y-118122266D01*
X155068827Y-118072000D01*
X154811173Y-118072000D01*
X154558470Y-118122266D01*
X154320430Y-118220865D01*
X154305000Y-118231175D01*
X154305000Y-105441180D01*
X154308071Y-105409999D01*
X154305000Y-105378818D01*
X154305000Y-105378808D01*
X154295812Y-105285518D01*
X154294734Y-105281966D01*
X154320430Y-105299135D01*
G36*
X141620430Y-105299135D02*
G01*
X141858470Y-105397734D01*
X142111173Y-105448000D01*
X142368827Y-105448000D01*
X142603330Y-105401354D01*
X142875000Y-105673025D01*
X142875001Y-118231175D01*
X142859570Y-118220865D01*
X142621530Y-118122266D01*
X142368827Y-118072000D01*
X142111173Y-118072000D01*
X141858470Y-118122266D01*
X141620430Y-118220865D01*
X141605000Y-118231175D01*
X141605000Y-105441180D01*
X141608071Y-105409999D01*
X141605000Y-105378818D01*
X141605000Y-105378808D01*
X141595812Y-105285518D01*
X141594734Y-105281966D01*
X141620430Y-105299135D01*
X141620430Y-105299135D01*
G37*
X141620430Y-105299135D02*
X141858470Y-105397734D01*
X142111173Y-105448000D01*
X142368827Y-105448000D01*
X142603330Y-105401354D01*
X142875000Y-105673025D01*
X142875001Y-118231175D01*
X142859570Y-118220865D01*
X142621530Y-118122266D01*
X142368827Y-118072000D01*
X142111173Y-118072000D01*
X141858470Y-118122266D01*
X141620430Y-118220865D01*
X141605000Y-118231175D01*
X141605000Y-105441180D01*
X141608071Y-105409999D01*
X141605000Y-105378818D01*
X141605000Y-105378808D01*
X141595812Y-105285518D01*
X141594734Y-105281966D01*
X141620430Y-105299135D01*
G36*
X136540430Y-105299135D02*
G01*
X136778470Y-105397734D01*
X137031173Y-105448000D01*
X137288827Y-105448000D01*
X137523330Y-105401354D01*
X137795000Y-105673025D01*
X137795001Y-118231175D01*
X137779570Y-118220865D01*
X137541530Y-118122266D01*
X137288827Y-118072000D01*
X137031173Y-118072000D01*
X136778470Y-118122266D01*
X136540430Y-118220865D01*
X136525000Y-118231175D01*
X136525000Y-105441180D01*
X136528071Y-105409999D01*
X136525000Y-105378818D01*
X136525000Y-105378808D01*
X136515812Y-105285518D01*
X136514734Y-105281966D01*
X136540430Y-105299135D01*
X136540430Y-105299135D01*
G37*
X136540430Y-105299135D02*
X136778470Y-105397734D01*
X137031173Y-105448000D01*
X137288827Y-105448000D01*
X137523330Y-105401354D01*
X137795000Y-105673025D01*
X137795001Y-118231175D01*
X137779570Y-118220865D01*
X137541530Y-118122266D01*
X137288827Y-118072000D01*
X137031173Y-118072000D01*
X136778470Y-118122266D01*
X136540430Y-118220865D01*
X136525000Y-118231175D01*
X136525000Y-105441180D01*
X136528071Y-105409999D01*
X136525000Y-105378818D01*
X136525000Y-105378808D01*
X136515812Y-105285518D01*
X136514734Y-105281966D01*
X136540430Y-105299135D01*
G36*
X144160430Y-105299135D02*
G01*
X144398470Y-105397734D01*
X144651173Y-105448000D01*
X144908827Y-105448000D01*
X145143330Y-105401354D01*
X145415000Y-105673025D01*
X145415001Y-118231175D01*
X145399570Y-118220865D01*
X145161530Y-118122266D01*
X144908827Y-118072000D01*
X144651173Y-118072000D01*
X144398470Y-118122266D01*
X144160430Y-118220865D01*
X144145000Y-118231175D01*
X144145000Y-105441180D01*
X144148071Y-105409999D01*
X144145000Y-105378818D01*
X144145000Y-105378808D01*
X144135812Y-105285518D01*
X144134734Y-105281966D01*
X144160430Y-105299135D01*
X144160430Y-105299135D01*
G37*
X144160430Y-105299135D02*
X144398470Y-105397734D01*
X144651173Y-105448000D01*
X144908827Y-105448000D01*
X145143330Y-105401354D01*
X145415000Y-105673025D01*
X145415001Y-118231175D01*
X145399570Y-118220865D01*
X145161530Y-118122266D01*
X144908827Y-118072000D01*
X144651173Y-118072000D01*
X144398470Y-118122266D01*
X144160430Y-118220865D01*
X144145000Y-118231175D01*
X144145000Y-105441180D01*
X144148071Y-105409999D01*
X144145000Y-105378818D01*
X144145000Y-105378808D01*
X144135812Y-105285518D01*
X144134734Y-105281966D01*
X144160430Y-105299135D01*
G36*
X151780430Y-105299135D02*
G01*
X152018470Y-105397734D01*
X152271173Y-105448000D01*
X152528827Y-105448000D01*
X152763330Y-105401354D01*
X153035000Y-105673025D01*
X153035001Y-118231175D01*
X153019570Y-118220865D01*
X152781530Y-118122266D01*
X152528827Y-118072000D01*
X152271173Y-118072000D01*
X152018470Y-118122266D01*
X151780430Y-118220865D01*
X151765000Y-118231175D01*
X151765000Y-105441180D01*
X151768071Y-105409999D01*
X151765000Y-105378818D01*
X151765000Y-105378808D01*
X151755812Y-105285518D01*
X151754734Y-105281966D01*
X151780430Y-105299135D01*
X151780430Y-105299135D01*
G37*
X151780430Y-105299135D02*
X152018470Y-105397734D01*
X152271173Y-105448000D01*
X152528827Y-105448000D01*
X152763330Y-105401354D01*
X153035000Y-105673025D01*
X153035001Y-118231175D01*
X153019570Y-118220865D01*
X152781530Y-118122266D01*
X152528827Y-118072000D01*
X152271173Y-118072000D01*
X152018470Y-118122266D01*
X151780430Y-118220865D01*
X151765000Y-118231175D01*
X151765000Y-105441180D01*
X151768071Y-105409999D01*
X151765000Y-105378818D01*
X151765000Y-105378808D01*
X151755812Y-105285518D01*
X151754734Y-105281966D01*
X151780430Y-105299135D01*
G36*
X134000430Y-105299135D02*
G01*
X134238470Y-105397734D01*
X134491173Y-105448000D01*
X134748827Y-105448000D01*
X134983330Y-105401354D01*
X135255000Y-105673025D01*
X135255001Y-118092930D01*
X135106004Y-118022429D01*
X134831816Y-117953700D01*
X134549488Y-117939783D01*
X134269870Y-117981213D01*
X134003708Y-118076397D01*
X133985000Y-118086397D01*
X133985000Y-105441180D01*
X133988071Y-105409999D01*
X133985000Y-105378818D01*
X133985000Y-105378808D01*
X133975812Y-105285518D01*
X133974734Y-105281966D01*
X134000430Y-105299135D01*
X134000430Y-105299135D01*
G37*
X134000430Y-105299135D02*
X134238470Y-105397734D01*
X134491173Y-105448000D01*
X134748827Y-105448000D01*
X134983330Y-105401354D01*
X135255000Y-105673025D01*
X135255001Y-118092930D01*
X135106004Y-118022429D01*
X134831816Y-117953700D01*
X134549488Y-117939783D01*
X134269870Y-117981213D01*
X134003708Y-118076397D01*
X133985000Y-118086397D01*
X133985000Y-105441180D01*
X133988071Y-105409999D01*
X133985000Y-105378818D01*
X133985000Y-105378808D01*
X133975812Y-105285518D01*
X133974734Y-105281966D01*
X134000430Y-105299135D01*
M02*
