G04 #@! TF.GenerationSoftware,KiCad,Pcbnew,(5.1.2-1)-1*
G04 #@! TF.CreationDate,2021-01-20T21:53:46-08:00*
G04 #@! TF.ProjectId,cart,63617274-2e6b-4696-9361-645f70636258,rev?*
G04 #@! TF.SameCoordinates,Original*
G04 #@! TF.FileFunction,Soldermask,Bot*
G04 #@! TF.FilePolarity,Negative*
%FSLAX46Y46*%
G04 Gerber Fmt 4.6, Leading zero omitted, Abs format (unit mm)*
G04 Created by KiCad (PCBNEW (5.1.2-1)-1) date 2021-01-20 21:53:46*
%MOMM*%
%LPD*%
G04 APERTURE LIST*
%ADD10C,0.100000*%
G04 APERTURE END LIST*
D10*
G36*
X160401000Y-129667000D02*
G01*
X118618000Y-129667000D01*
X118681500Y-124650500D01*
X160464500Y-124650500D01*
X160401000Y-129667000D01*
G37*
X160401000Y-129667000D02*
X118618000Y-129667000D01*
X118681500Y-124650500D01*
X160464500Y-124650500D01*
X160401000Y-129667000D01*
G36*
X157060800Y-128669800D02*
G01*
X155359200Y-128669800D01*
X155359200Y-124568200D01*
X157060800Y-124568200D01*
X157060800Y-128669800D01*
X157060800Y-128669800D01*
G37*
G36*
X154520800Y-128669800D02*
G01*
X152819200Y-128669800D01*
X152819200Y-124568200D01*
X154520800Y-124568200D01*
X154520800Y-128669800D01*
X154520800Y-128669800D01*
G37*
G36*
X151980800Y-128669800D02*
G01*
X150279200Y-128669800D01*
X150279200Y-124568200D01*
X151980800Y-124568200D01*
X151980800Y-128669800D01*
X151980800Y-128669800D01*
G37*
G36*
X149440800Y-128669800D02*
G01*
X147739200Y-128669800D01*
X147739200Y-124568200D01*
X149440800Y-124568200D01*
X149440800Y-128669800D01*
X149440800Y-128669800D01*
G37*
G36*
X146900800Y-128669800D02*
G01*
X145199200Y-128669800D01*
X145199200Y-124568200D01*
X146900800Y-124568200D01*
X146900800Y-128669800D01*
X146900800Y-128669800D01*
G37*
G36*
X144360800Y-128669800D02*
G01*
X142659200Y-128669800D01*
X142659200Y-124568200D01*
X144360800Y-124568200D01*
X144360800Y-128669800D01*
X144360800Y-128669800D01*
G37*
G36*
X141820800Y-128669800D02*
G01*
X140119200Y-128669800D01*
X140119200Y-124568200D01*
X141820800Y-124568200D01*
X141820800Y-128669800D01*
X141820800Y-128669800D01*
G37*
G36*
X139280800Y-128669800D02*
G01*
X137579200Y-128669800D01*
X137579200Y-124568200D01*
X139280800Y-124568200D01*
X139280800Y-128669800D01*
X139280800Y-128669800D01*
G37*
G36*
X136740800Y-128669800D02*
G01*
X135039200Y-128669800D01*
X135039200Y-124568200D01*
X136740800Y-124568200D01*
X136740800Y-128669800D01*
X136740800Y-128669800D01*
G37*
G36*
X134200800Y-128669800D02*
G01*
X132499200Y-128669800D01*
X132499200Y-124568200D01*
X134200800Y-124568200D01*
X134200800Y-128669800D01*
X134200800Y-128669800D01*
G37*
G36*
X129120800Y-128669800D02*
G01*
X127419200Y-128669800D01*
X127419200Y-124568200D01*
X129120800Y-124568200D01*
X129120800Y-128669800D01*
X129120800Y-128669800D01*
G37*
G36*
X126580800Y-128669800D02*
G01*
X124879200Y-128669800D01*
X124879200Y-124568200D01*
X126580800Y-124568200D01*
X126580800Y-128669800D01*
X126580800Y-128669800D01*
G37*
G36*
X124040800Y-128669800D02*
G01*
X122339200Y-128669800D01*
X122339200Y-124568200D01*
X124040800Y-124568200D01*
X124040800Y-128669800D01*
X124040800Y-128669800D01*
G37*
G36*
X131768278Y-124544009D02*
G01*
X131787907Y-124547913D01*
X131815642Y-124559402D01*
X131843378Y-124570890D01*
X131892963Y-124604022D01*
X131893299Y-124604246D01*
X131935754Y-124646701D01*
X131935756Y-124646704D01*
X131969110Y-124696622D01*
X131992087Y-124752094D01*
X132003800Y-124810978D01*
X132003800Y-124871022D01*
X131992087Y-124929906D01*
X131969110Y-124985378D01*
X131935978Y-125034963D01*
X131935754Y-125035299D01*
X131893299Y-125077754D01*
X131893296Y-125077756D01*
X131843378Y-125111110D01*
X131815642Y-125122599D01*
X131787907Y-125134087D01*
X131768278Y-125137991D01*
X131729022Y-125145800D01*
X131668978Y-125145800D01*
X131629722Y-125137991D01*
X131610093Y-125134087D01*
X131582358Y-125122599D01*
X131554622Y-125111110D01*
X131504704Y-125077756D01*
X131504701Y-125077754D01*
X131462246Y-125035299D01*
X131462022Y-125034963D01*
X131428890Y-124985378D01*
X131405913Y-124929906D01*
X131394200Y-124871022D01*
X131394200Y-124810978D01*
X131405913Y-124752094D01*
X131428890Y-124696622D01*
X131462244Y-124646704D01*
X131462246Y-124646701D01*
X131504701Y-124604246D01*
X131505037Y-124604022D01*
X131554622Y-124570890D01*
X131582358Y-124559402D01*
X131610093Y-124547913D01*
X131629722Y-124544009D01*
X131668978Y-124536200D01*
X131729022Y-124536200D01*
X131768278Y-124544009D01*
X131768278Y-124544009D01*
G37*
G36*
X129990278Y-124544009D02*
G01*
X130009907Y-124547913D01*
X130037642Y-124559402D01*
X130065378Y-124570890D01*
X130114963Y-124604022D01*
X130115299Y-124604246D01*
X130157754Y-124646701D01*
X130157756Y-124646704D01*
X130191110Y-124696622D01*
X130214087Y-124752094D01*
X130225800Y-124810978D01*
X130225800Y-124871022D01*
X130214087Y-124929906D01*
X130191110Y-124985378D01*
X130157978Y-125034963D01*
X130157754Y-125035299D01*
X130115299Y-125077754D01*
X130115296Y-125077756D01*
X130065378Y-125111110D01*
X130037642Y-125122599D01*
X130009907Y-125134087D01*
X129990278Y-125137991D01*
X129951022Y-125145800D01*
X129890978Y-125145800D01*
X129851722Y-125137991D01*
X129832093Y-125134087D01*
X129804358Y-125122599D01*
X129776622Y-125111110D01*
X129726704Y-125077756D01*
X129726701Y-125077754D01*
X129684246Y-125035299D01*
X129684022Y-125034963D01*
X129650890Y-124985378D01*
X129627913Y-124929906D01*
X129616200Y-124871022D01*
X129616200Y-124810978D01*
X129627913Y-124752094D01*
X129650890Y-124696622D01*
X129684244Y-124646704D01*
X129684246Y-124646701D01*
X129726701Y-124604246D01*
X129727037Y-124604022D01*
X129776622Y-124570890D01*
X129804358Y-124559402D01*
X129832093Y-124547913D01*
X129851722Y-124544009D01*
X129890978Y-124536200D01*
X129951022Y-124536200D01*
X129990278Y-124544009D01*
X129990278Y-124544009D01*
G37*
G36*
X130879278Y-124544009D02*
G01*
X130898907Y-124547913D01*
X130926642Y-124559402D01*
X130954378Y-124570890D01*
X131003963Y-124604022D01*
X131004299Y-124604246D01*
X131046754Y-124646701D01*
X131046756Y-124646704D01*
X131080110Y-124696622D01*
X131103087Y-124752094D01*
X131114800Y-124810978D01*
X131114800Y-124871022D01*
X131103087Y-124929906D01*
X131080110Y-124985378D01*
X131046978Y-125034963D01*
X131046754Y-125035299D01*
X131004299Y-125077754D01*
X131004296Y-125077756D01*
X130954378Y-125111110D01*
X130926642Y-125122599D01*
X130898907Y-125134087D01*
X130879278Y-125137991D01*
X130840022Y-125145800D01*
X130779978Y-125145800D01*
X130740722Y-125137991D01*
X130721093Y-125134087D01*
X130693358Y-125122599D01*
X130665622Y-125111110D01*
X130615704Y-125077756D01*
X130615701Y-125077754D01*
X130573246Y-125035299D01*
X130573022Y-125034963D01*
X130539890Y-124985378D01*
X130516913Y-124929906D01*
X130505200Y-124871022D01*
X130505200Y-124810978D01*
X130516913Y-124752094D01*
X130539890Y-124696622D01*
X130573244Y-124646704D01*
X130573246Y-124646701D01*
X130615701Y-124604246D01*
X130616037Y-124604022D01*
X130665622Y-124570890D01*
X130693358Y-124559402D01*
X130721093Y-124547913D01*
X130740722Y-124544009D01*
X130779978Y-124536200D01*
X130840022Y-124536200D01*
X130879278Y-124544009D01*
X130879278Y-124544009D01*
G37*
G36*
X127248169Y-118561895D02*
G01*
X127403005Y-118626031D01*
X127542354Y-118719140D01*
X127660860Y-118837646D01*
X127753969Y-118976995D01*
X127818105Y-119131831D01*
X127850800Y-119296203D01*
X127850800Y-119463797D01*
X127818105Y-119628169D01*
X127753969Y-119783005D01*
X127660860Y-119922354D01*
X127542354Y-120040860D01*
X127403005Y-120133969D01*
X127248169Y-120198105D01*
X127083797Y-120230800D01*
X126916203Y-120230800D01*
X126751831Y-120198105D01*
X126596995Y-120133969D01*
X126457646Y-120040860D01*
X126339140Y-119922354D01*
X126246031Y-119783005D01*
X126181895Y-119628169D01*
X126149200Y-119463797D01*
X126149200Y-119296203D01*
X126181895Y-119131831D01*
X126246031Y-118976995D01*
X126339140Y-118837646D01*
X126457646Y-118719140D01*
X126596995Y-118626031D01*
X126751831Y-118561895D01*
X126916203Y-118529200D01*
X127083797Y-118529200D01*
X127248169Y-118561895D01*
X127248169Y-118561895D01*
G37*
G36*
X129788169Y-118561895D02*
G01*
X129943005Y-118626031D01*
X130082354Y-118719140D01*
X130200860Y-118837646D01*
X130293969Y-118976995D01*
X130358105Y-119131831D01*
X130390800Y-119296203D01*
X130390800Y-119463797D01*
X130358105Y-119628169D01*
X130293969Y-119783005D01*
X130200860Y-119922354D01*
X130082354Y-120040860D01*
X129943005Y-120133969D01*
X129788169Y-120198105D01*
X129623797Y-120230800D01*
X129456203Y-120230800D01*
X129291831Y-120198105D01*
X129136995Y-120133969D01*
X128997646Y-120040860D01*
X128879140Y-119922354D01*
X128786031Y-119783005D01*
X128721895Y-119628169D01*
X128689200Y-119463797D01*
X128689200Y-119296203D01*
X128721895Y-119131831D01*
X128786031Y-118976995D01*
X128879140Y-118837646D01*
X128997646Y-118719140D01*
X129136995Y-118626031D01*
X129291831Y-118561895D01*
X129456203Y-118529200D01*
X129623797Y-118529200D01*
X129788169Y-118561895D01*
X129788169Y-118561895D01*
G37*
G36*
X132328169Y-118561895D02*
G01*
X132483005Y-118626031D01*
X132622354Y-118719140D01*
X132740860Y-118837646D01*
X132833969Y-118976995D01*
X132898105Y-119131831D01*
X132930800Y-119296203D01*
X132930800Y-119463797D01*
X132898105Y-119628169D01*
X132833969Y-119783005D01*
X132740860Y-119922354D01*
X132622354Y-120040860D01*
X132483005Y-120133969D01*
X132328169Y-120198105D01*
X132163797Y-120230800D01*
X131996203Y-120230800D01*
X131831831Y-120198105D01*
X131676995Y-120133969D01*
X131537646Y-120040860D01*
X131419140Y-119922354D01*
X131326031Y-119783005D01*
X131261895Y-119628169D01*
X131229200Y-119463797D01*
X131229200Y-119296203D01*
X131261895Y-119131831D01*
X131326031Y-118976995D01*
X131419140Y-118837646D01*
X131537646Y-118719140D01*
X131676995Y-118626031D01*
X131831831Y-118561895D01*
X131996203Y-118529200D01*
X132163797Y-118529200D01*
X132328169Y-118561895D01*
X132328169Y-118561895D01*
G37*
G36*
X134868169Y-118561895D02*
G01*
X135023005Y-118626031D01*
X135162354Y-118719140D01*
X135280860Y-118837646D01*
X135373969Y-118976995D01*
X135438105Y-119131831D01*
X135470800Y-119296203D01*
X135470800Y-119463797D01*
X135438105Y-119628169D01*
X135373969Y-119783005D01*
X135280860Y-119922354D01*
X135162354Y-120040860D01*
X135023005Y-120133969D01*
X134868169Y-120198105D01*
X134703797Y-120230800D01*
X134536203Y-120230800D01*
X134371831Y-120198105D01*
X134216995Y-120133969D01*
X134077646Y-120040860D01*
X133959140Y-119922354D01*
X133866031Y-119783005D01*
X133801895Y-119628169D01*
X133769200Y-119463797D01*
X133769200Y-119296203D01*
X133801895Y-119131831D01*
X133866031Y-118976995D01*
X133959140Y-118837646D01*
X134077646Y-118719140D01*
X134216995Y-118626031D01*
X134371831Y-118561895D01*
X134536203Y-118529200D01*
X134703797Y-118529200D01*
X134868169Y-118561895D01*
X134868169Y-118561895D01*
G37*
G36*
X137408169Y-118561895D02*
G01*
X137563005Y-118626031D01*
X137702354Y-118719140D01*
X137820860Y-118837646D01*
X137913969Y-118976995D01*
X137978105Y-119131831D01*
X138010800Y-119296203D01*
X138010800Y-119463797D01*
X137978105Y-119628169D01*
X137913969Y-119783005D01*
X137820860Y-119922354D01*
X137702354Y-120040860D01*
X137563005Y-120133969D01*
X137408169Y-120198105D01*
X137243797Y-120230800D01*
X137076203Y-120230800D01*
X136911831Y-120198105D01*
X136756995Y-120133969D01*
X136617646Y-120040860D01*
X136499140Y-119922354D01*
X136406031Y-119783005D01*
X136341895Y-119628169D01*
X136309200Y-119463797D01*
X136309200Y-119296203D01*
X136341895Y-119131831D01*
X136406031Y-118976995D01*
X136499140Y-118837646D01*
X136617646Y-118719140D01*
X136756995Y-118626031D01*
X136911831Y-118561895D01*
X137076203Y-118529200D01*
X137243797Y-118529200D01*
X137408169Y-118561895D01*
X137408169Y-118561895D01*
G37*
G36*
X139948169Y-118561895D02*
G01*
X140103005Y-118626031D01*
X140242354Y-118719140D01*
X140360860Y-118837646D01*
X140453969Y-118976995D01*
X140518105Y-119131831D01*
X140550800Y-119296203D01*
X140550800Y-119463797D01*
X140518105Y-119628169D01*
X140453969Y-119783005D01*
X140360860Y-119922354D01*
X140242354Y-120040860D01*
X140103005Y-120133969D01*
X139948169Y-120198105D01*
X139783797Y-120230800D01*
X139616203Y-120230800D01*
X139451831Y-120198105D01*
X139296995Y-120133969D01*
X139157646Y-120040860D01*
X139039140Y-119922354D01*
X138946031Y-119783005D01*
X138881895Y-119628169D01*
X138849200Y-119463797D01*
X138849200Y-119296203D01*
X138881895Y-119131831D01*
X138946031Y-118976995D01*
X139039140Y-118837646D01*
X139157646Y-118719140D01*
X139296995Y-118626031D01*
X139451831Y-118561895D01*
X139616203Y-118529200D01*
X139783797Y-118529200D01*
X139948169Y-118561895D01*
X139948169Y-118561895D01*
G37*
G36*
X142488169Y-118561895D02*
G01*
X142643005Y-118626031D01*
X142782354Y-118719140D01*
X142900860Y-118837646D01*
X142993969Y-118976995D01*
X143058105Y-119131831D01*
X143090800Y-119296203D01*
X143090800Y-119463797D01*
X143058105Y-119628169D01*
X142993969Y-119783005D01*
X142900860Y-119922354D01*
X142782354Y-120040860D01*
X142643005Y-120133969D01*
X142488169Y-120198105D01*
X142323797Y-120230800D01*
X142156203Y-120230800D01*
X141991831Y-120198105D01*
X141836995Y-120133969D01*
X141697646Y-120040860D01*
X141579140Y-119922354D01*
X141486031Y-119783005D01*
X141421895Y-119628169D01*
X141389200Y-119463797D01*
X141389200Y-119296203D01*
X141421895Y-119131831D01*
X141486031Y-118976995D01*
X141579140Y-118837646D01*
X141697646Y-118719140D01*
X141836995Y-118626031D01*
X141991831Y-118561895D01*
X142156203Y-118529200D01*
X142323797Y-118529200D01*
X142488169Y-118561895D01*
X142488169Y-118561895D01*
G37*
G36*
X145028169Y-118561895D02*
G01*
X145183005Y-118626031D01*
X145322354Y-118719140D01*
X145440860Y-118837646D01*
X145533969Y-118976995D01*
X145598105Y-119131831D01*
X145630800Y-119296203D01*
X145630800Y-119463797D01*
X145598105Y-119628169D01*
X145533969Y-119783005D01*
X145440860Y-119922354D01*
X145322354Y-120040860D01*
X145183005Y-120133969D01*
X145028169Y-120198105D01*
X144863797Y-120230800D01*
X144696203Y-120230800D01*
X144531831Y-120198105D01*
X144376995Y-120133969D01*
X144237646Y-120040860D01*
X144119140Y-119922354D01*
X144026031Y-119783005D01*
X143961895Y-119628169D01*
X143929200Y-119463797D01*
X143929200Y-119296203D01*
X143961895Y-119131831D01*
X144026031Y-118976995D01*
X144119140Y-118837646D01*
X144237646Y-118719140D01*
X144376995Y-118626031D01*
X144531831Y-118561895D01*
X144696203Y-118529200D01*
X144863797Y-118529200D01*
X145028169Y-118561895D01*
X145028169Y-118561895D01*
G37*
G36*
X147568169Y-118561895D02*
G01*
X147723005Y-118626031D01*
X147862354Y-118719140D01*
X147980860Y-118837646D01*
X148073969Y-118976995D01*
X148138105Y-119131831D01*
X148170800Y-119296203D01*
X148170800Y-119463797D01*
X148138105Y-119628169D01*
X148073969Y-119783005D01*
X147980860Y-119922354D01*
X147862354Y-120040860D01*
X147723005Y-120133969D01*
X147568169Y-120198105D01*
X147403797Y-120230800D01*
X147236203Y-120230800D01*
X147071831Y-120198105D01*
X146916995Y-120133969D01*
X146777646Y-120040860D01*
X146659140Y-119922354D01*
X146566031Y-119783005D01*
X146501895Y-119628169D01*
X146469200Y-119463797D01*
X146469200Y-119296203D01*
X146501895Y-119131831D01*
X146566031Y-118976995D01*
X146659140Y-118837646D01*
X146777646Y-118719140D01*
X146916995Y-118626031D01*
X147071831Y-118561895D01*
X147236203Y-118529200D01*
X147403797Y-118529200D01*
X147568169Y-118561895D01*
X147568169Y-118561895D01*
G37*
G36*
X150108169Y-118561895D02*
G01*
X150263005Y-118626031D01*
X150402354Y-118719140D01*
X150520860Y-118837646D01*
X150613969Y-118976995D01*
X150678105Y-119131831D01*
X150710800Y-119296203D01*
X150710800Y-119463797D01*
X150678105Y-119628169D01*
X150613969Y-119783005D01*
X150520860Y-119922354D01*
X150402354Y-120040860D01*
X150263005Y-120133969D01*
X150108169Y-120198105D01*
X149943797Y-120230800D01*
X149776203Y-120230800D01*
X149611831Y-120198105D01*
X149456995Y-120133969D01*
X149317646Y-120040860D01*
X149199140Y-119922354D01*
X149106031Y-119783005D01*
X149041895Y-119628169D01*
X149009200Y-119463797D01*
X149009200Y-119296203D01*
X149041895Y-119131831D01*
X149106031Y-118976995D01*
X149199140Y-118837646D01*
X149317646Y-118719140D01*
X149456995Y-118626031D01*
X149611831Y-118561895D01*
X149776203Y-118529200D01*
X149943797Y-118529200D01*
X150108169Y-118561895D01*
X150108169Y-118561895D01*
G37*
G36*
X152648169Y-118561895D02*
G01*
X152803005Y-118626031D01*
X152942354Y-118719140D01*
X153060860Y-118837646D01*
X153153969Y-118976995D01*
X153218105Y-119131831D01*
X153250800Y-119296203D01*
X153250800Y-119463797D01*
X153218105Y-119628169D01*
X153153969Y-119783005D01*
X153060860Y-119922354D01*
X152942354Y-120040860D01*
X152803005Y-120133969D01*
X152648169Y-120198105D01*
X152483797Y-120230800D01*
X152316203Y-120230800D01*
X152151831Y-120198105D01*
X151996995Y-120133969D01*
X151857646Y-120040860D01*
X151739140Y-119922354D01*
X151646031Y-119783005D01*
X151581895Y-119628169D01*
X151549200Y-119463797D01*
X151549200Y-119296203D01*
X151581895Y-119131831D01*
X151646031Y-118976995D01*
X151739140Y-118837646D01*
X151857646Y-118719140D01*
X151996995Y-118626031D01*
X152151831Y-118561895D01*
X152316203Y-118529200D01*
X152483797Y-118529200D01*
X152648169Y-118561895D01*
X152648169Y-118561895D01*
G37*
G36*
X155188169Y-118561895D02*
G01*
X155343005Y-118626031D01*
X155482354Y-118719140D01*
X155600860Y-118837646D01*
X155693969Y-118976995D01*
X155758105Y-119131831D01*
X155790800Y-119296203D01*
X155790800Y-119463797D01*
X155758105Y-119628169D01*
X155693969Y-119783005D01*
X155600860Y-119922354D01*
X155482354Y-120040860D01*
X155343005Y-120133969D01*
X155188169Y-120198105D01*
X155023797Y-120230800D01*
X154856203Y-120230800D01*
X154691831Y-120198105D01*
X154536995Y-120133969D01*
X154397646Y-120040860D01*
X154279140Y-119922354D01*
X154186031Y-119783005D01*
X154121895Y-119628169D01*
X154089200Y-119463797D01*
X154089200Y-119296203D01*
X154121895Y-119131831D01*
X154186031Y-118976995D01*
X154279140Y-118837646D01*
X154397646Y-118719140D01*
X154536995Y-118626031D01*
X154691831Y-118561895D01*
X154856203Y-118529200D01*
X155023797Y-118529200D01*
X155188169Y-118561895D01*
X155188169Y-118561895D01*
G37*
G36*
X142488169Y-103321895D02*
G01*
X142643005Y-103386031D01*
X142782354Y-103479140D01*
X142900860Y-103597646D01*
X142993969Y-103736995D01*
X143058105Y-103891831D01*
X143090800Y-104056203D01*
X143090800Y-104223797D01*
X143058105Y-104388169D01*
X142993969Y-104543005D01*
X142900860Y-104682354D01*
X142782354Y-104800860D01*
X142643005Y-104893969D01*
X142488169Y-104958105D01*
X142323797Y-104990800D01*
X142156203Y-104990800D01*
X141991831Y-104958105D01*
X141836995Y-104893969D01*
X141697646Y-104800860D01*
X141579140Y-104682354D01*
X141486031Y-104543005D01*
X141421895Y-104388169D01*
X141389200Y-104223797D01*
X141389200Y-104056203D01*
X141421895Y-103891831D01*
X141486031Y-103736995D01*
X141579140Y-103597646D01*
X141697646Y-103479140D01*
X141836995Y-103386031D01*
X141991831Y-103321895D01*
X142156203Y-103289200D01*
X142323797Y-103289200D01*
X142488169Y-103321895D01*
X142488169Y-103321895D01*
G37*
G36*
X129788169Y-103321895D02*
G01*
X129943005Y-103386031D01*
X130082354Y-103479140D01*
X130200860Y-103597646D01*
X130293969Y-103736995D01*
X130358105Y-103891831D01*
X130390800Y-104056203D01*
X130390800Y-104223797D01*
X130358105Y-104388169D01*
X130293969Y-104543005D01*
X130200860Y-104682354D01*
X130082354Y-104800860D01*
X129943005Y-104893969D01*
X129788169Y-104958105D01*
X129623797Y-104990800D01*
X129456203Y-104990800D01*
X129291831Y-104958105D01*
X129136995Y-104893969D01*
X128997646Y-104800860D01*
X128879140Y-104682354D01*
X128786031Y-104543005D01*
X128721895Y-104388169D01*
X128689200Y-104223797D01*
X128689200Y-104056203D01*
X128721895Y-103891831D01*
X128786031Y-103736995D01*
X128879140Y-103597646D01*
X128997646Y-103479140D01*
X129136995Y-103386031D01*
X129291831Y-103321895D01*
X129456203Y-103289200D01*
X129623797Y-103289200D01*
X129788169Y-103321895D01*
X129788169Y-103321895D01*
G37*
G36*
X132328169Y-103321895D02*
G01*
X132483005Y-103386031D01*
X132622354Y-103479140D01*
X132740860Y-103597646D01*
X132833969Y-103736995D01*
X132898105Y-103891831D01*
X132930800Y-104056203D01*
X132930800Y-104223797D01*
X132898105Y-104388169D01*
X132833969Y-104543005D01*
X132740860Y-104682354D01*
X132622354Y-104800860D01*
X132483005Y-104893969D01*
X132328169Y-104958105D01*
X132163797Y-104990800D01*
X131996203Y-104990800D01*
X131831831Y-104958105D01*
X131676995Y-104893969D01*
X131537646Y-104800860D01*
X131419140Y-104682354D01*
X131326031Y-104543005D01*
X131261895Y-104388169D01*
X131229200Y-104223797D01*
X131229200Y-104056203D01*
X131261895Y-103891831D01*
X131326031Y-103736995D01*
X131419140Y-103597646D01*
X131537646Y-103479140D01*
X131676995Y-103386031D01*
X131831831Y-103321895D01*
X131996203Y-103289200D01*
X132163797Y-103289200D01*
X132328169Y-103321895D01*
X132328169Y-103321895D01*
G37*
G36*
X134868169Y-103321895D02*
G01*
X135023005Y-103386031D01*
X135162354Y-103479140D01*
X135280860Y-103597646D01*
X135373969Y-103736995D01*
X135438105Y-103891831D01*
X135470800Y-104056203D01*
X135470800Y-104223797D01*
X135438105Y-104388169D01*
X135373969Y-104543005D01*
X135280860Y-104682354D01*
X135162354Y-104800860D01*
X135023005Y-104893969D01*
X134868169Y-104958105D01*
X134703797Y-104990800D01*
X134536203Y-104990800D01*
X134371831Y-104958105D01*
X134216995Y-104893969D01*
X134077646Y-104800860D01*
X133959140Y-104682354D01*
X133866031Y-104543005D01*
X133801895Y-104388169D01*
X133769200Y-104223797D01*
X133769200Y-104056203D01*
X133801895Y-103891831D01*
X133866031Y-103736995D01*
X133959140Y-103597646D01*
X134077646Y-103479140D01*
X134216995Y-103386031D01*
X134371831Y-103321895D01*
X134536203Y-103289200D01*
X134703797Y-103289200D01*
X134868169Y-103321895D01*
X134868169Y-103321895D01*
G37*
G36*
X137408169Y-103321895D02*
G01*
X137563005Y-103386031D01*
X137702354Y-103479140D01*
X137820860Y-103597646D01*
X137913969Y-103736995D01*
X137978105Y-103891831D01*
X138010800Y-104056203D01*
X138010800Y-104223797D01*
X137978105Y-104388169D01*
X137913969Y-104543005D01*
X137820860Y-104682354D01*
X137702354Y-104800860D01*
X137563005Y-104893969D01*
X137408169Y-104958105D01*
X137243797Y-104990800D01*
X137076203Y-104990800D01*
X136911831Y-104958105D01*
X136756995Y-104893969D01*
X136617646Y-104800860D01*
X136499140Y-104682354D01*
X136406031Y-104543005D01*
X136341895Y-104388169D01*
X136309200Y-104223797D01*
X136309200Y-104056203D01*
X136341895Y-103891831D01*
X136406031Y-103736995D01*
X136499140Y-103597646D01*
X136617646Y-103479140D01*
X136756995Y-103386031D01*
X136911831Y-103321895D01*
X137076203Y-103289200D01*
X137243797Y-103289200D01*
X137408169Y-103321895D01*
X137408169Y-103321895D01*
G37*
G36*
X139948169Y-103321895D02*
G01*
X140103005Y-103386031D01*
X140242354Y-103479140D01*
X140360860Y-103597646D01*
X140453969Y-103736995D01*
X140518105Y-103891831D01*
X140550800Y-104056203D01*
X140550800Y-104223797D01*
X140518105Y-104388169D01*
X140453969Y-104543005D01*
X140360860Y-104682354D01*
X140242354Y-104800860D01*
X140103005Y-104893969D01*
X139948169Y-104958105D01*
X139783797Y-104990800D01*
X139616203Y-104990800D01*
X139451831Y-104958105D01*
X139296995Y-104893969D01*
X139157646Y-104800860D01*
X139039140Y-104682354D01*
X138946031Y-104543005D01*
X138881895Y-104388169D01*
X138849200Y-104223797D01*
X138849200Y-104056203D01*
X138881895Y-103891831D01*
X138946031Y-103736995D01*
X139039140Y-103597646D01*
X139157646Y-103479140D01*
X139296995Y-103386031D01*
X139451831Y-103321895D01*
X139616203Y-103289200D01*
X139783797Y-103289200D01*
X139948169Y-103321895D01*
X139948169Y-103321895D01*
G37*
G36*
X145028169Y-103321895D02*
G01*
X145183005Y-103386031D01*
X145322354Y-103479140D01*
X145440860Y-103597646D01*
X145533969Y-103736995D01*
X145598105Y-103891831D01*
X145630800Y-104056203D01*
X145630800Y-104223797D01*
X145598105Y-104388169D01*
X145533969Y-104543005D01*
X145440860Y-104682354D01*
X145322354Y-104800860D01*
X145183005Y-104893969D01*
X145028169Y-104958105D01*
X144863797Y-104990800D01*
X144696203Y-104990800D01*
X144531831Y-104958105D01*
X144376995Y-104893969D01*
X144237646Y-104800860D01*
X144119140Y-104682354D01*
X144026031Y-104543005D01*
X143961895Y-104388169D01*
X143929200Y-104223797D01*
X143929200Y-104056203D01*
X143961895Y-103891831D01*
X144026031Y-103736995D01*
X144119140Y-103597646D01*
X144237646Y-103479140D01*
X144376995Y-103386031D01*
X144531831Y-103321895D01*
X144696203Y-103289200D01*
X144863797Y-103289200D01*
X145028169Y-103321895D01*
X145028169Y-103321895D01*
G37*
G36*
X147568169Y-103321895D02*
G01*
X147723005Y-103386031D01*
X147862354Y-103479140D01*
X147980860Y-103597646D01*
X148073969Y-103736995D01*
X148138105Y-103891831D01*
X148170800Y-104056203D01*
X148170800Y-104223797D01*
X148138105Y-104388169D01*
X148073969Y-104543005D01*
X147980860Y-104682354D01*
X147862354Y-104800860D01*
X147723005Y-104893969D01*
X147568169Y-104958105D01*
X147403797Y-104990800D01*
X147236203Y-104990800D01*
X147071831Y-104958105D01*
X146916995Y-104893969D01*
X146777646Y-104800860D01*
X146659140Y-104682354D01*
X146566031Y-104543005D01*
X146501895Y-104388169D01*
X146469200Y-104223797D01*
X146469200Y-104056203D01*
X146501895Y-103891831D01*
X146566031Y-103736995D01*
X146659140Y-103597646D01*
X146777646Y-103479140D01*
X146916995Y-103386031D01*
X147071831Y-103321895D01*
X147236203Y-103289200D01*
X147403797Y-103289200D01*
X147568169Y-103321895D01*
X147568169Y-103321895D01*
G37*
G36*
X150108169Y-103321895D02*
G01*
X150263005Y-103386031D01*
X150402354Y-103479140D01*
X150520860Y-103597646D01*
X150613969Y-103736995D01*
X150678105Y-103891831D01*
X150710800Y-104056203D01*
X150710800Y-104223797D01*
X150678105Y-104388169D01*
X150613969Y-104543005D01*
X150520860Y-104682354D01*
X150402354Y-104800860D01*
X150263005Y-104893969D01*
X150108169Y-104958105D01*
X149943797Y-104990800D01*
X149776203Y-104990800D01*
X149611831Y-104958105D01*
X149456995Y-104893969D01*
X149317646Y-104800860D01*
X149199140Y-104682354D01*
X149106031Y-104543005D01*
X149041895Y-104388169D01*
X149009200Y-104223797D01*
X149009200Y-104056203D01*
X149041895Y-103891831D01*
X149106031Y-103736995D01*
X149199140Y-103597646D01*
X149317646Y-103479140D01*
X149456995Y-103386031D01*
X149611831Y-103321895D01*
X149776203Y-103289200D01*
X149943797Y-103289200D01*
X150108169Y-103321895D01*
X150108169Y-103321895D01*
G37*
G36*
X152648169Y-103321895D02*
G01*
X152803005Y-103386031D01*
X152942354Y-103479140D01*
X153060860Y-103597646D01*
X153153969Y-103736995D01*
X153218105Y-103891831D01*
X153250800Y-104056203D01*
X153250800Y-104223797D01*
X153218105Y-104388169D01*
X153153969Y-104543005D01*
X153060860Y-104682354D01*
X152942354Y-104800860D01*
X152803005Y-104893969D01*
X152648169Y-104958105D01*
X152483797Y-104990800D01*
X152316203Y-104990800D01*
X152151831Y-104958105D01*
X151996995Y-104893969D01*
X151857646Y-104800860D01*
X151739140Y-104682354D01*
X151646031Y-104543005D01*
X151581895Y-104388169D01*
X151549200Y-104223797D01*
X151549200Y-104056203D01*
X151581895Y-103891831D01*
X151646031Y-103736995D01*
X151739140Y-103597646D01*
X151857646Y-103479140D01*
X151996995Y-103386031D01*
X152151831Y-103321895D01*
X152316203Y-103289200D01*
X152483797Y-103289200D01*
X152648169Y-103321895D01*
X152648169Y-103321895D01*
G37*
G36*
X155188169Y-103321895D02*
G01*
X155343005Y-103386031D01*
X155482354Y-103479140D01*
X155600860Y-103597646D01*
X155693969Y-103736995D01*
X155758105Y-103891831D01*
X155790800Y-104056203D01*
X155790800Y-104223797D01*
X155758105Y-104388169D01*
X155693969Y-104543005D01*
X155600860Y-104682354D01*
X155482354Y-104800860D01*
X155343005Y-104893969D01*
X155188169Y-104958105D01*
X155023797Y-104990800D01*
X154856203Y-104990800D01*
X154691831Y-104958105D01*
X154536995Y-104893969D01*
X154397646Y-104800860D01*
X154279140Y-104682354D01*
X154186031Y-104543005D01*
X154121895Y-104388169D01*
X154089200Y-104223797D01*
X154089200Y-104056203D01*
X154121895Y-103891831D01*
X154186031Y-103736995D01*
X154279140Y-103597646D01*
X154397646Y-103479140D01*
X154536995Y-103386031D01*
X154691831Y-103321895D01*
X154856203Y-103289200D01*
X155023797Y-103289200D01*
X155188169Y-103321895D01*
X155188169Y-103321895D01*
G37*
G36*
X127248169Y-103321895D02*
G01*
X127403005Y-103386031D01*
X127542354Y-103479140D01*
X127660860Y-103597646D01*
X127753969Y-103736995D01*
X127818105Y-103891831D01*
X127850800Y-104056203D01*
X127850800Y-104223797D01*
X127818105Y-104388169D01*
X127753969Y-104543005D01*
X127660860Y-104682354D01*
X127542354Y-104800860D01*
X127403005Y-104893969D01*
X127248169Y-104958105D01*
X127083797Y-104990800D01*
X126916203Y-104990800D01*
X126751831Y-104958105D01*
X126596995Y-104893969D01*
X126457646Y-104800860D01*
X126339140Y-104682354D01*
X126246031Y-104543005D01*
X126181895Y-104388169D01*
X126149200Y-104223797D01*
X126149200Y-104056203D01*
X126181895Y-103891831D01*
X126246031Y-103736995D01*
X126339140Y-103597646D01*
X126457646Y-103479140D01*
X126596995Y-103386031D01*
X126751831Y-103321895D01*
X126916203Y-103289200D01*
X127083797Y-103289200D01*
X127248169Y-103321895D01*
X127248169Y-103321895D01*
G37*
M02*
