G04 #@! TF.GenerationSoftware,KiCad,Pcbnew,(5.1.2-1)-1*
G04 #@! TF.CreationDate,2021-01-20T21:53:46-08:00*
G04 #@! TF.ProjectId,cart,63617274-2e6b-4696-9361-645f70636258,rev?*
G04 #@! TF.SameCoordinates,Original*
G04 #@! TF.FileFunction,Profile,NP*
%FSLAX46Y46*%
G04 Gerber Fmt 4.6, Leading zero omitted, Abs format (unit mm)*
G04 Created by KiCad (PCBNEW (5.1.2-1)-1) date 2021-01-20 21:53:46*
%MOMM*%
%LPD*%
G04 APERTURE LIST*
%ADD10C,0.200000*%
G04 APERTURE END LIST*
D10*
X131826000Y-124714000D02*
X132207000Y-124714000D01*
X129794000Y-128651000D02*
X131826000Y-128651000D01*
X131826000Y-124714000D02*
X131826000Y-128651000D01*
X129794000Y-124714000D02*
X129794000Y-128651000D01*
X132461000Y-128651000D02*
X132207000Y-128397000D01*
X129413000Y-128397000D02*
X129159000Y-128651000D01*
X129413000Y-124714000D02*
X129794000Y-124714000D01*
X132207000Y-124714000D02*
X132207000Y-128397000D01*
X129413000Y-124714000D02*
X129413000Y-128397000D01*
X157988000Y-128651000D02*
X132461000Y-128651000D01*
X119650000Y-103251000D02*
X119650000Y-120139000D01*
X120650000Y-120901000D02*
X119650000Y-120139000D01*
X119650000Y-103251000D02*
G75*
G02X120412000Y-102489000I762000J0D01*
G01*
X159750000Y-120142000D02*
X158750000Y-120904000D01*
X120650000Y-120901000D02*
X120650000Y-127127000D01*
X158750000Y-120904000D02*
X158750000Y-127127000D01*
X159750000Y-103251000D02*
X159750000Y-120142000D01*
X120412000Y-102489000D02*
X158988000Y-102489000D01*
X158988000Y-102489000D02*
G75*
G02X159750000Y-103251000I0J-762000D01*
G01*
X121412000Y-128651000D02*
X120650000Y-127127000D01*
X157988000Y-128651000D02*
X158750000Y-127127000D01*
X121412000Y-128651000D02*
X129159000Y-128651000D01*
M02*
