G04 #@! TF.GenerationSoftware,KiCad,Pcbnew,(5.1.2-1)-1*
G04 #@! TF.CreationDate,2021-01-18T23:47:08-08:00*
G04 #@! TF.ProjectId,cart,63617274-2e6b-4696-9361-645f70636258,rev?*
G04 #@! TF.SameCoordinates,Original*
G04 #@! TF.FileFunction,Legend,Top*
G04 #@! TF.FilePolarity,Positive*
%FSLAX46Y46*%
G04 Gerber Fmt 4.6, Leading zero omitted, Abs format (unit mm)*
G04 Created by KiCad (PCBNEW (5.1.2-1)-1) date 2021-01-18 23:47:08*
%MOMM*%
%LPD*%
G04 APERTURE LIST*
%ADD10C,0.200000*%
%ADD11C,0.150000*%
G04 APERTURE END LIST*
D10*
G36*
X123126500Y-114300000D02*
G01*
X119253000Y-114300000D01*
X119253000Y-113792000D01*
X123126500Y-113792000D01*
X123126500Y-114300000D01*
G37*
X123126500Y-114300000D02*
X119253000Y-114300000D01*
X119253000Y-113792000D01*
X123126500Y-113792000D01*
X123126500Y-114300000D01*
G36*
X123126500Y-110871000D02*
G01*
X119253000Y-110871000D01*
X119253000Y-110363000D01*
X123126500Y-110363000D01*
X123126500Y-110871000D01*
G37*
X123126500Y-110871000D02*
X119253000Y-110871000D01*
X119253000Y-110363000D01*
X123126500Y-110363000D01*
X123126500Y-110871000D01*
G36*
X123126500Y-113157000D02*
G01*
X119253000Y-113157000D01*
X119253000Y-112649000D01*
X123126500Y-112649000D01*
X123126500Y-113157000D01*
G37*
X123126500Y-113157000D02*
X119253000Y-113157000D01*
X119253000Y-112649000D01*
X123126500Y-112649000D01*
X123126500Y-113157000D01*
G36*
X123126500Y-112014000D02*
G01*
X119253000Y-112014000D01*
X119253000Y-111506000D01*
X123126500Y-111506000D01*
X123126500Y-112014000D01*
G37*
X123126500Y-112014000D02*
X119253000Y-112014000D01*
X119253000Y-111506000D01*
X123126500Y-111506000D01*
X123126500Y-112014000D01*
G36*
X123126500Y-109728000D02*
G01*
X119253000Y-109728000D01*
X119253000Y-109220000D01*
X123126500Y-109220000D01*
X123126500Y-109728000D01*
G37*
X123126500Y-109728000D02*
X119253000Y-109728000D01*
X119253000Y-109220000D01*
X123126500Y-109220000D01*
X123126500Y-109728000D01*
G36*
X160147000Y-114300000D02*
G01*
X156273500Y-114300000D01*
X156273500Y-113792000D01*
X160147000Y-113792000D01*
X160147000Y-114300000D01*
G37*
X160147000Y-114300000D02*
X156273500Y-114300000D01*
X156273500Y-113792000D01*
X160147000Y-113792000D01*
X160147000Y-114300000D01*
G36*
X160147000Y-113157000D02*
G01*
X156273500Y-113157000D01*
X156273500Y-112649000D01*
X160147000Y-112649000D01*
X160147000Y-113157000D01*
G37*
X160147000Y-113157000D02*
X156273500Y-113157000D01*
X156273500Y-112649000D01*
X160147000Y-112649000D01*
X160147000Y-113157000D01*
G36*
X160147000Y-109728000D02*
G01*
X156273500Y-109728000D01*
X156273500Y-109220000D01*
X160147000Y-109220000D01*
X160147000Y-109728000D01*
G37*
X160147000Y-109728000D02*
X156273500Y-109728000D01*
X156273500Y-109220000D01*
X160147000Y-109220000D01*
X160147000Y-109728000D01*
G36*
X160147000Y-110871000D02*
G01*
X156273500Y-110871000D01*
X156273500Y-110363000D01*
X160147000Y-110363000D01*
X160147000Y-110871000D01*
G37*
X160147000Y-110871000D02*
X156273500Y-110871000D01*
X156273500Y-110363000D01*
X160147000Y-110363000D01*
X160147000Y-110871000D01*
G36*
X160147000Y-112014000D02*
G01*
X156273500Y-112014000D01*
X156273500Y-111506000D01*
X160147000Y-111506000D01*
X160147000Y-112014000D01*
G37*
X160147000Y-112014000D02*
X156273500Y-112014000D01*
X156273500Y-111506000D01*
X160147000Y-111506000D01*
X160147000Y-112014000D01*
G36*
X139700000Y-123698000D02*
G01*
X137922000Y-122174000D01*
X141478000Y-122174000D01*
X139700000Y-123698000D01*
G37*
X139700000Y-123698000D02*
X137922000Y-122174000D01*
X141478000Y-122174000D01*
X139700000Y-123698000D01*
D11*
X125730000Y-115570000D02*
X125730000Y-107950000D01*
X156210000Y-102870000D02*
X156210000Y-120650000D01*
X123190000Y-102870000D02*
X156210000Y-102870000D01*
X123190000Y-107950000D02*
X123190000Y-102870000D01*
X123190000Y-107950000D02*
X125730000Y-107950000D01*
X123190000Y-115570000D02*
X123190000Y-107950000D01*
X125730000Y-115570000D02*
X123190000Y-115570000D01*
X123190000Y-120650000D02*
X123190000Y-115570000D01*
X123190000Y-120650000D02*
X156210000Y-120650000D01*
M02*
