G04 #@! TF.GenerationSoftware,KiCad,Pcbnew,(5.1.2-1)-1*
G04 #@! TF.CreationDate,2021-01-20T21:53:46-08:00*
G04 #@! TF.ProjectId,cart,63617274-2e6b-4696-9361-645f70636258,rev?*
G04 #@! TF.SameCoordinates,Original*
G04 #@! TF.FileFunction,Legend,Bot*
G04 #@! TF.FilePolarity,Positive*
%FSLAX46Y46*%
G04 Gerber Fmt 4.6, Leading zero omitted, Abs format (unit mm)*
G04 Created by KiCad (PCBNEW (5.1.2-1)-1) date 2021-01-20 21:53:46*
%MOMM*%
%LPD*%
G04 APERTURE LIST*
%ADD10C,0.127000*%
%ADD11C,0.254000*%
G04 APERTURE END LIST*
D10*
X150095857Y-122137714D02*
X150095857Y-122754571D01*
X150132142Y-122827142D01*
X150168428Y-122863428D01*
X150241000Y-122899714D01*
X150349857Y-122899714D01*
X150422428Y-122863428D01*
X150095857Y-122609428D02*
X150168428Y-122645714D01*
X150313571Y-122645714D01*
X150386142Y-122609428D01*
X150422428Y-122573142D01*
X150458714Y-122500571D01*
X150458714Y-122282857D01*
X150422428Y-122210285D01*
X150386142Y-122174000D01*
X150313571Y-122137714D01*
X150168428Y-122137714D01*
X150095857Y-122174000D01*
X149733000Y-122645714D02*
X149733000Y-122137714D01*
X149733000Y-121883714D02*
X149769285Y-121920000D01*
X149733000Y-121956285D01*
X149696714Y-121920000D01*
X149733000Y-121883714D01*
X149733000Y-121956285D01*
X149479000Y-122137714D02*
X149188714Y-122137714D01*
X149370142Y-121883714D02*
X149370142Y-122536857D01*
X149333857Y-122609428D01*
X149261285Y-122645714D01*
X149188714Y-122645714D01*
X148934714Y-122645714D02*
X148934714Y-121883714D01*
X148608142Y-122645714D02*
X148608142Y-122246571D01*
X148644428Y-122174000D01*
X148717000Y-122137714D01*
X148825857Y-122137714D01*
X148898428Y-122174000D01*
X148934714Y-122210285D01*
X147918714Y-122137714D02*
X147918714Y-122645714D01*
X148245285Y-122137714D02*
X148245285Y-122536857D01*
X148209000Y-122609428D01*
X148136428Y-122645714D01*
X148027571Y-122645714D01*
X147955000Y-122609428D01*
X147918714Y-122573142D01*
X147555857Y-122645714D02*
X147555857Y-121883714D01*
X147555857Y-122174000D02*
X147483285Y-122137714D01*
X147338142Y-122137714D01*
X147265571Y-122174000D01*
X147229285Y-122210285D01*
X147193000Y-122282857D01*
X147193000Y-122500571D01*
X147229285Y-122573142D01*
X147265571Y-122609428D01*
X147338142Y-122645714D01*
X147483285Y-122645714D01*
X147555857Y-122609428D01*
X146866428Y-122573142D02*
X146830142Y-122609428D01*
X146866428Y-122645714D01*
X146902714Y-122609428D01*
X146866428Y-122573142D01*
X146866428Y-122645714D01*
X146177000Y-122609428D02*
X146249571Y-122645714D01*
X146394714Y-122645714D01*
X146467285Y-122609428D01*
X146503571Y-122573142D01*
X146539857Y-122500571D01*
X146539857Y-122282857D01*
X146503571Y-122210285D01*
X146467285Y-122174000D01*
X146394714Y-122137714D01*
X146249571Y-122137714D01*
X146177000Y-122174000D01*
X145741571Y-122645714D02*
X145814142Y-122609428D01*
X145850428Y-122573142D01*
X145886714Y-122500571D01*
X145886714Y-122282857D01*
X145850428Y-122210285D01*
X145814142Y-122174000D01*
X145741571Y-122137714D01*
X145632714Y-122137714D01*
X145560142Y-122174000D01*
X145523857Y-122210285D01*
X145487571Y-122282857D01*
X145487571Y-122500571D01*
X145523857Y-122573142D01*
X145560142Y-122609428D01*
X145632714Y-122645714D01*
X145741571Y-122645714D01*
X145161000Y-122645714D02*
X145161000Y-122137714D01*
X145161000Y-122210285D02*
X145124714Y-122174000D01*
X145052142Y-122137714D01*
X144943285Y-122137714D01*
X144870714Y-122174000D01*
X144834428Y-122246571D01*
X144834428Y-122645714D01*
X144834428Y-122246571D02*
X144798142Y-122174000D01*
X144725571Y-122137714D01*
X144616714Y-122137714D01*
X144544142Y-122174000D01*
X144507857Y-122246571D01*
X144507857Y-122645714D01*
X143600714Y-121847428D02*
X144253857Y-122827142D01*
X143346714Y-122645714D02*
X143346714Y-122137714D01*
X143346714Y-122210285D02*
X143310428Y-122174000D01*
X143237857Y-122137714D01*
X143129000Y-122137714D01*
X143056428Y-122174000D01*
X143020142Y-122246571D01*
X143020142Y-122645714D01*
X143020142Y-122246571D02*
X142983857Y-122174000D01*
X142911285Y-122137714D01*
X142802428Y-122137714D01*
X142729857Y-122174000D01*
X142693571Y-122246571D01*
X142693571Y-122645714D01*
X142040428Y-122609428D02*
X142113000Y-122645714D01*
X142258142Y-122645714D01*
X142330714Y-122609428D01*
X142367000Y-122536857D01*
X142367000Y-122246571D01*
X142330714Y-122174000D01*
X142258142Y-122137714D01*
X142113000Y-122137714D01*
X142040428Y-122174000D01*
X142004142Y-122246571D01*
X142004142Y-122319142D01*
X142367000Y-122391714D01*
X141677571Y-122137714D02*
X141677571Y-122645714D01*
X141677571Y-122210285D02*
X141641285Y-122174000D01*
X141568714Y-122137714D01*
X141459857Y-122137714D01*
X141387285Y-122174000D01*
X141351000Y-122246571D01*
X141351000Y-122645714D01*
X140697857Y-122609428D02*
X140770428Y-122645714D01*
X140915571Y-122645714D01*
X140988142Y-122609428D01*
X141024428Y-122536857D01*
X141024428Y-122246571D01*
X140988142Y-122174000D01*
X140915571Y-122137714D01*
X140770428Y-122137714D01*
X140697857Y-122174000D01*
X140661571Y-122246571D01*
X140661571Y-122319142D01*
X141024428Y-122391714D01*
X140335000Y-122645714D02*
X140335000Y-121883714D01*
X140008428Y-122645714D02*
X140008428Y-122246571D01*
X140044714Y-122174000D01*
X140117285Y-122137714D01*
X140226142Y-122137714D01*
X140298714Y-122174000D01*
X140335000Y-122210285D01*
X139319000Y-122137714D02*
X139319000Y-122645714D01*
X139645571Y-122137714D02*
X139645571Y-122536857D01*
X139609285Y-122609428D01*
X139536714Y-122645714D01*
X139427857Y-122645714D01*
X139355285Y-122609428D01*
X139319000Y-122573142D01*
X138956142Y-122137714D02*
X138956142Y-122645714D01*
X138956142Y-122210285D02*
X138919857Y-122174000D01*
X138847285Y-122137714D01*
X138738428Y-122137714D01*
X138665857Y-122174000D01*
X138629571Y-122246571D01*
X138629571Y-122645714D01*
X137976428Y-122609428D02*
X138049000Y-122645714D01*
X138194142Y-122645714D01*
X138266714Y-122609428D01*
X138303000Y-122536857D01*
X138303000Y-122246571D01*
X138266714Y-122174000D01*
X138194142Y-122137714D01*
X138049000Y-122137714D01*
X137976428Y-122174000D01*
X137940142Y-122246571D01*
X137940142Y-122319142D01*
X138303000Y-122391714D01*
X137649857Y-121956285D02*
X137613571Y-121920000D01*
X137541000Y-121883714D01*
X137359571Y-121883714D01*
X137287000Y-121920000D01*
X137250714Y-121956285D01*
X137214428Y-122028857D01*
X137214428Y-122101428D01*
X137250714Y-122210285D01*
X137686142Y-122645714D01*
X137214428Y-122645714D01*
X136960428Y-121883714D02*
X136488714Y-121883714D01*
X136742714Y-122174000D01*
X136633857Y-122174000D01*
X136561285Y-122210285D01*
X136525000Y-122246571D01*
X136488714Y-122319142D01*
X136488714Y-122500571D01*
X136525000Y-122573142D01*
X136561285Y-122609428D01*
X136633857Y-122645714D01*
X136851571Y-122645714D01*
X136924142Y-122609428D01*
X136960428Y-122573142D01*
X135617857Y-121847428D02*
X136271000Y-122827142D01*
X135037285Y-122645714D02*
X135037285Y-122246571D01*
X135073571Y-122174000D01*
X135146142Y-122137714D01*
X135291285Y-122137714D01*
X135363857Y-122174000D01*
X135037285Y-122609428D02*
X135109857Y-122645714D01*
X135291285Y-122645714D01*
X135363857Y-122609428D01*
X135400142Y-122536857D01*
X135400142Y-122464285D01*
X135363857Y-122391714D01*
X135291285Y-122355428D01*
X135109857Y-122355428D01*
X135037285Y-122319142D01*
X134674428Y-122645714D02*
X134674428Y-122137714D01*
X134674428Y-122282857D02*
X134638142Y-122210285D01*
X134601857Y-122174000D01*
X134529285Y-122137714D01*
X134456714Y-122137714D01*
X133876142Y-122645714D02*
X133876142Y-121883714D01*
X133876142Y-122609428D02*
X133948714Y-122645714D01*
X134093857Y-122645714D01*
X134166428Y-122609428D01*
X134202714Y-122573142D01*
X134239000Y-122500571D01*
X134239000Y-122282857D01*
X134202714Y-122210285D01*
X134166428Y-122174000D01*
X134093857Y-122137714D01*
X133948714Y-122137714D01*
X133876142Y-122174000D01*
X133186714Y-122137714D02*
X133186714Y-122645714D01*
X133513285Y-122137714D02*
X133513285Y-122536857D01*
X133477000Y-122609428D01*
X133404428Y-122645714D01*
X133295571Y-122645714D01*
X133223000Y-122609428D01*
X133186714Y-122573142D01*
X132823857Y-122645714D02*
X132823857Y-121883714D01*
X132823857Y-122174000D02*
X132751285Y-122137714D01*
X132606142Y-122137714D01*
X132533571Y-122174000D01*
X132497285Y-122210285D01*
X132461000Y-122282857D01*
X132461000Y-122500571D01*
X132497285Y-122573142D01*
X132533571Y-122609428D01*
X132606142Y-122645714D01*
X132751285Y-122645714D01*
X132823857Y-122609428D01*
X132025571Y-122645714D02*
X132098142Y-122609428D01*
X132134428Y-122573142D01*
X132170714Y-122500571D01*
X132170714Y-122282857D01*
X132134428Y-122210285D01*
X132098142Y-122174000D01*
X132025571Y-122137714D01*
X131916714Y-122137714D01*
X131844142Y-122174000D01*
X131807857Y-122210285D01*
X131771571Y-122282857D01*
X131771571Y-122500571D01*
X131807857Y-122573142D01*
X131844142Y-122609428D01*
X131916714Y-122645714D01*
X132025571Y-122645714D01*
X131517571Y-122137714D02*
X131336142Y-122645714D01*
X131154714Y-122137714D02*
X131336142Y-122645714D01*
X131408714Y-122827142D01*
X131445000Y-122863428D01*
X131517571Y-122899714D01*
X130864428Y-122355428D02*
X130283857Y-122355428D01*
X129594428Y-122609428D02*
X129667000Y-122645714D01*
X129812142Y-122645714D01*
X129884714Y-122609428D01*
X129921000Y-122573142D01*
X129957285Y-122500571D01*
X129957285Y-122282857D01*
X129921000Y-122210285D01*
X129884714Y-122174000D01*
X129812142Y-122137714D01*
X129667000Y-122137714D01*
X129594428Y-122174000D01*
X128977571Y-122609428D02*
X129050142Y-122645714D01*
X129195285Y-122645714D01*
X129267857Y-122609428D01*
X129304142Y-122536857D01*
X129304142Y-122246571D01*
X129267857Y-122174000D01*
X129195285Y-122137714D01*
X129050142Y-122137714D01*
X128977571Y-122174000D01*
X128941285Y-122246571D01*
X128941285Y-122319142D01*
X129304142Y-122391714D01*
X147265571Y-115152714D02*
X147265571Y-114390714D01*
X147084142Y-114390714D01*
X146975285Y-114427000D01*
X146902714Y-114499571D01*
X146866428Y-114572142D01*
X146830142Y-114717285D01*
X146830142Y-114826142D01*
X146866428Y-114971285D01*
X146902714Y-115043857D01*
X146975285Y-115116428D01*
X147084142Y-115152714D01*
X147265571Y-115152714D01*
X146213285Y-115116428D02*
X146285857Y-115152714D01*
X146431000Y-115152714D01*
X146503571Y-115116428D01*
X146539857Y-115043857D01*
X146539857Y-114753571D01*
X146503571Y-114681000D01*
X146431000Y-114644714D01*
X146285857Y-114644714D01*
X146213285Y-114681000D01*
X146177000Y-114753571D01*
X146177000Y-114826142D01*
X146539857Y-114898714D01*
X145886714Y-115116428D02*
X145814142Y-115152714D01*
X145669000Y-115152714D01*
X145596428Y-115116428D01*
X145560142Y-115043857D01*
X145560142Y-115007571D01*
X145596428Y-114935000D01*
X145669000Y-114898714D01*
X145777857Y-114898714D01*
X145850428Y-114862428D01*
X145886714Y-114789857D01*
X145886714Y-114753571D01*
X145850428Y-114681000D01*
X145777857Y-114644714D01*
X145669000Y-114644714D01*
X145596428Y-114681000D01*
X145233571Y-115152714D02*
X145233571Y-114644714D01*
X145233571Y-114390714D02*
X145269857Y-114427000D01*
X145233571Y-114463285D01*
X145197285Y-114427000D01*
X145233571Y-114390714D01*
X145233571Y-114463285D01*
X144544142Y-114644714D02*
X144544142Y-115261571D01*
X144580428Y-115334142D01*
X144616714Y-115370428D01*
X144689285Y-115406714D01*
X144798142Y-115406714D01*
X144870714Y-115370428D01*
X144544142Y-115116428D02*
X144616714Y-115152714D01*
X144761857Y-115152714D01*
X144834428Y-115116428D01*
X144870714Y-115080142D01*
X144907000Y-115007571D01*
X144907000Y-114789857D01*
X144870714Y-114717285D01*
X144834428Y-114681000D01*
X144761857Y-114644714D01*
X144616714Y-114644714D01*
X144544142Y-114681000D01*
X144181285Y-114644714D02*
X144181285Y-115152714D01*
X144181285Y-114717285D02*
X144145000Y-114681000D01*
X144072428Y-114644714D01*
X143963571Y-114644714D01*
X143891000Y-114681000D01*
X143854714Y-114753571D01*
X143854714Y-115152714D01*
X143201571Y-115116428D02*
X143274142Y-115152714D01*
X143419285Y-115152714D01*
X143491857Y-115116428D01*
X143528142Y-115043857D01*
X143528142Y-114753571D01*
X143491857Y-114681000D01*
X143419285Y-114644714D01*
X143274142Y-114644714D01*
X143201571Y-114681000D01*
X143165285Y-114753571D01*
X143165285Y-114826142D01*
X143528142Y-114898714D01*
X142512142Y-115152714D02*
X142512142Y-114390714D01*
X142512142Y-115116428D02*
X142584714Y-115152714D01*
X142729857Y-115152714D01*
X142802428Y-115116428D01*
X142838714Y-115080142D01*
X142875000Y-115007571D01*
X142875000Y-114789857D01*
X142838714Y-114717285D01*
X142802428Y-114681000D01*
X142729857Y-114644714D01*
X142584714Y-114644714D01*
X142512142Y-114681000D01*
X141568714Y-115152714D02*
X141568714Y-114390714D01*
X141568714Y-114681000D02*
X141496142Y-114644714D01*
X141351000Y-114644714D01*
X141278428Y-114681000D01*
X141242142Y-114717285D01*
X141205857Y-114789857D01*
X141205857Y-115007571D01*
X141242142Y-115080142D01*
X141278428Y-115116428D01*
X141351000Y-115152714D01*
X141496142Y-115152714D01*
X141568714Y-115116428D01*
X140951857Y-114644714D02*
X140770428Y-115152714D01*
X140589000Y-114644714D02*
X140770428Y-115152714D01*
X140843000Y-115334142D01*
X140879285Y-115370428D01*
X140951857Y-115406714D01*
X139500428Y-114390714D02*
X139500428Y-114935000D01*
X139536714Y-115043857D01*
X139609285Y-115116428D01*
X139718142Y-115152714D01*
X139790714Y-115152714D01*
X139028714Y-115152714D02*
X139101285Y-115116428D01*
X139137571Y-115080142D01*
X139173857Y-115007571D01*
X139173857Y-114789857D01*
X139137571Y-114717285D01*
X139101285Y-114681000D01*
X139028714Y-114644714D01*
X138919857Y-114644714D01*
X138847285Y-114681000D01*
X138811000Y-114717285D01*
X138774714Y-114789857D01*
X138774714Y-115007571D01*
X138811000Y-115080142D01*
X138847285Y-115116428D01*
X138919857Y-115152714D01*
X139028714Y-115152714D01*
X138448142Y-115152714D02*
X138448142Y-114390714D01*
X138121571Y-115152714D02*
X138121571Y-114753571D01*
X138157857Y-114681000D01*
X138230428Y-114644714D01*
X138339285Y-114644714D01*
X138411857Y-114681000D01*
X138448142Y-114717285D01*
X137758714Y-114644714D02*
X137758714Y-115152714D01*
X137758714Y-114717285D02*
X137722428Y-114681000D01*
X137649857Y-114644714D01*
X137541000Y-114644714D01*
X137468428Y-114681000D01*
X137432142Y-114753571D01*
X137432142Y-115152714D01*
X137033000Y-115116428D02*
X137033000Y-115152714D01*
X137069285Y-115225285D01*
X137105571Y-115261571D01*
X136125857Y-115152714D02*
X136125857Y-114390714D01*
X135690428Y-115152714D01*
X135690428Y-114390714D01*
X135001000Y-115152714D02*
X135001000Y-114753571D01*
X135037285Y-114681000D01*
X135109857Y-114644714D01*
X135255000Y-114644714D01*
X135327571Y-114681000D01*
X135001000Y-115116428D02*
X135073571Y-115152714D01*
X135255000Y-115152714D01*
X135327571Y-115116428D01*
X135363857Y-115043857D01*
X135363857Y-114971285D01*
X135327571Y-114898714D01*
X135255000Y-114862428D01*
X135073571Y-114862428D01*
X135001000Y-114826142D01*
X134747000Y-114644714D02*
X134456714Y-114644714D01*
X134638142Y-114390714D02*
X134638142Y-115043857D01*
X134601857Y-115116428D01*
X134529285Y-115152714D01*
X134456714Y-115152714D01*
X134202714Y-115152714D02*
X134202714Y-114390714D01*
X133876142Y-115152714D02*
X133876142Y-114753571D01*
X133912428Y-114681000D01*
X133985000Y-114644714D01*
X134093857Y-114644714D01*
X134166428Y-114681000D01*
X134202714Y-114717285D01*
X133186714Y-115152714D02*
X133186714Y-114753571D01*
X133223000Y-114681000D01*
X133295571Y-114644714D01*
X133440714Y-114644714D01*
X133513285Y-114681000D01*
X133186714Y-115116428D02*
X133259285Y-115152714D01*
X133440714Y-115152714D01*
X133513285Y-115116428D01*
X133549571Y-115043857D01*
X133549571Y-114971285D01*
X133513285Y-114898714D01*
X133440714Y-114862428D01*
X133259285Y-114862428D01*
X133186714Y-114826142D01*
X132823857Y-114644714D02*
X132823857Y-115152714D01*
X132823857Y-114717285D02*
X132787571Y-114681000D01*
X132715000Y-114644714D01*
X132606142Y-114644714D01*
X132533571Y-114681000D01*
X132497285Y-114753571D01*
X132497285Y-115152714D01*
X132098142Y-115116428D02*
X132098142Y-115152714D01*
X132134428Y-115225285D01*
X132170714Y-115261571D01*
X144399000Y-116422714D02*
X144399000Y-116023571D01*
X144435285Y-115951000D01*
X144507857Y-115914714D01*
X144653000Y-115914714D01*
X144725571Y-115951000D01*
X144399000Y-116386428D02*
X144471571Y-116422714D01*
X144653000Y-116422714D01*
X144725571Y-116386428D01*
X144761857Y-116313857D01*
X144761857Y-116241285D01*
X144725571Y-116168714D01*
X144653000Y-116132428D01*
X144471571Y-116132428D01*
X144399000Y-116096142D01*
X144036142Y-115914714D02*
X144036142Y-116422714D01*
X144036142Y-115987285D02*
X143999857Y-115951000D01*
X143927285Y-115914714D01*
X143818428Y-115914714D01*
X143745857Y-115951000D01*
X143709571Y-116023571D01*
X143709571Y-116422714D01*
X143020142Y-116422714D02*
X143020142Y-115660714D01*
X143020142Y-116386428D02*
X143092714Y-116422714D01*
X143237857Y-116422714D01*
X143310428Y-116386428D01*
X143346714Y-116350142D01*
X143383000Y-116277571D01*
X143383000Y-116059857D01*
X143346714Y-115987285D01*
X143310428Y-115951000D01*
X143237857Y-115914714D01*
X143092714Y-115914714D01*
X143020142Y-115951000D01*
X142113000Y-116205000D02*
X141750142Y-116205000D01*
X142185571Y-116422714D02*
X141931571Y-115660714D01*
X141677571Y-116422714D01*
X141423571Y-115914714D02*
X141423571Y-116422714D01*
X141423571Y-115987285D02*
X141387285Y-115951000D01*
X141314714Y-115914714D01*
X141205857Y-115914714D01*
X141133285Y-115951000D01*
X141097000Y-116023571D01*
X141097000Y-116422714D01*
X140407571Y-116422714D02*
X140407571Y-115660714D01*
X140407571Y-116386428D02*
X140480142Y-116422714D01*
X140625285Y-116422714D01*
X140697857Y-116386428D01*
X140734142Y-116350142D01*
X140770428Y-116277571D01*
X140770428Y-116059857D01*
X140734142Y-115987285D01*
X140697857Y-115951000D01*
X140625285Y-115914714D01*
X140480142Y-115914714D01*
X140407571Y-115951000D01*
X140044714Y-116422714D02*
X140044714Y-115914714D01*
X140044714Y-116059857D02*
X140008428Y-115987285D01*
X139972142Y-115951000D01*
X139899571Y-115914714D01*
X139827000Y-115914714D01*
X139282714Y-116386428D02*
X139355285Y-116422714D01*
X139500428Y-116422714D01*
X139573000Y-116386428D01*
X139609285Y-116313857D01*
X139609285Y-116023571D01*
X139573000Y-115951000D01*
X139500428Y-115914714D01*
X139355285Y-115914714D01*
X139282714Y-115951000D01*
X139246428Y-116023571D01*
X139246428Y-116096142D01*
X139609285Y-116168714D01*
X138992428Y-115914714D02*
X138847285Y-116422714D01*
X138702142Y-116059857D01*
X138557000Y-116422714D01*
X138411857Y-115914714D01*
X137541000Y-116422714D02*
X137541000Y-115660714D01*
X137287000Y-116205000D01*
X137033000Y-115660714D01*
X137033000Y-116422714D01*
X136379857Y-116386428D02*
X136452428Y-116422714D01*
X136597571Y-116422714D01*
X136670142Y-116386428D01*
X136706428Y-116313857D01*
X136706428Y-116023571D01*
X136670142Y-115951000D01*
X136597571Y-115914714D01*
X136452428Y-115914714D01*
X136379857Y-115951000D01*
X136343571Y-116023571D01*
X136343571Y-116096142D01*
X136706428Y-116168714D01*
X136089571Y-115914714D02*
X135908142Y-116422714D01*
X135726714Y-115914714D02*
X135908142Y-116422714D01*
X135980714Y-116604142D01*
X136017000Y-116640428D01*
X136089571Y-116676714D01*
X135146142Y-116386428D02*
X135218714Y-116422714D01*
X135363857Y-116422714D01*
X135436428Y-116386428D01*
X135472714Y-116313857D01*
X135472714Y-116023571D01*
X135436428Y-115951000D01*
X135363857Y-115914714D01*
X135218714Y-115914714D01*
X135146142Y-115951000D01*
X135109857Y-116023571D01*
X135109857Y-116096142D01*
X135472714Y-116168714D01*
X134783285Y-116422714D02*
X134783285Y-115914714D01*
X134783285Y-116059857D02*
X134747000Y-115987285D01*
X134710714Y-115951000D01*
X134638142Y-115914714D01*
X134565571Y-115914714D01*
D11*
X144870714Y-109368166D02*
X144265952Y-109368166D01*
X144991666Y-109731023D02*
X144568333Y-108461023D01*
X144145000Y-109731023D01*
X143721666Y-109731023D02*
X143721666Y-108884357D01*
X143721666Y-109126261D02*
X143661190Y-109005309D01*
X143600714Y-108944833D01*
X143479761Y-108884357D01*
X143358809Y-108884357D01*
X142391190Y-109731023D02*
X142391190Y-108461023D01*
X142391190Y-109670547D02*
X142512142Y-109731023D01*
X142754047Y-109731023D01*
X142875000Y-109670547D01*
X142935476Y-109610071D01*
X142995952Y-109489119D01*
X142995952Y-109126261D01*
X142935476Y-109005309D01*
X142875000Y-108944833D01*
X142754047Y-108884357D01*
X142512142Y-108884357D01*
X142391190Y-108944833D01*
X141242142Y-108884357D02*
X141242142Y-109731023D01*
X141786428Y-108884357D02*
X141786428Y-109549595D01*
X141725952Y-109670547D01*
X141605000Y-109731023D01*
X141423571Y-109731023D01*
X141302619Y-109670547D01*
X141242142Y-109610071D01*
X140637380Y-109731023D02*
X140637380Y-108461023D01*
X140637380Y-108944833D02*
X140516428Y-108884357D01*
X140274523Y-108884357D01*
X140153571Y-108944833D01*
X140093095Y-109005309D01*
X140032619Y-109126261D01*
X140032619Y-109489119D01*
X140093095Y-109610071D01*
X140153571Y-109670547D01*
X140274523Y-109731023D01*
X140516428Y-109731023D01*
X140637380Y-109670547D01*
X139306904Y-109731023D02*
X139427857Y-109670547D01*
X139488333Y-109610071D01*
X139548809Y-109489119D01*
X139548809Y-109126261D01*
X139488333Y-109005309D01*
X139427857Y-108944833D01*
X139306904Y-108884357D01*
X139125476Y-108884357D01*
X139004523Y-108944833D01*
X138944047Y-109005309D01*
X138883571Y-109126261D01*
X138883571Y-109489119D01*
X138944047Y-109610071D01*
X139004523Y-109670547D01*
X139125476Y-109731023D01*
X139306904Y-109731023D01*
X138460238Y-108884357D02*
X138157857Y-109731023D01*
X137855476Y-108884357D02*
X138157857Y-109731023D01*
X138278809Y-110033404D01*
X138339285Y-110093880D01*
X138460238Y-110154357D01*
X135678333Y-109610071D02*
X135738809Y-109670547D01*
X135920238Y-109731023D01*
X136041190Y-109731023D01*
X136222619Y-109670547D01*
X136343571Y-109549595D01*
X136404047Y-109428642D01*
X136464523Y-109186738D01*
X136464523Y-109005309D01*
X136404047Y-108763404D01*
X136343571Y-108642452D01*
X136222619Y-108521500D01*
X136041190Y-108461023D01*
X135920238Y-108461023D01*
X135738809Y-108521500D01*
X135678333Y-108581976D01*
X135134047Y-109065785D02*
X134710714Y-109065785D01*
X134529285Y-109731023D02*
X135134047Y-109731023D01*
X135134047Y-108461023D01*
X134529285Y-108461023D01*
X140637380Y-111769071D02*
X140697857Y-111829547D01*
X140879285Y-111890023D01*
X141000238Y-111890023D01*
X141181666Y-111829547D01*
X141302619Y-111708595D01*
X141363095Y-111587642D01*
X141423571Y-111345738D01*
X141423571Y-111164309D01*
X141363095Y-110922404D01*
X141302619Y-110801452D01*
X141181666Y-110680500D01*
X141000238Y-110620023D01*
X140879285Y-110620023D01*
X140697857Y-110680500D01*
X140637380Y-110740976D01*
X139548809Y-111890023D02*
X139548809Y-111224785D01*
X139609285Y-111103833D01*
X139730238Y-111043357D01*
X139972142Y-111043357D01*
X140093095Y-111103833D01*
X139548809Y-111829547D02*
X139669761Y-111890023D01*
X139972142Y-111890023D01*
X140093095Y-111829547D01*
X140153571Y-111708595D01*
X140153571Y-111587642D01*
X140093095Y-111466690D01*
X139972142Y-111406214D01*
X139669761Y-111406214D01*
X139548809Y-111345738D01*
X138944047Y-111890023D02*
X138944047Y-111043357D01*
X138944047Y-111285261D02*
X138883571Y-111164309D01*
X138823095Y-111103833D01*
X138702142Y-111043357D01*
X138581190Y-111043357D01*
X138339285Y-111043357D02*
X137855476Y-111043357D01*
X138157857Y-110620023D02*
X138157857Y-111708595D01*
X138097380Y-111829547D01*
X137976428Y-111890023D01*
X137855476Y-111890023D01*
M02*
