G04 #@! TF.GenerationSoftware,KiCad,Pcbnew,(5.1.9-0-10_14)*
G04 #@! TF.CreationDate,2021-06-07T20:14:56-07:00*
G04 #@! TF.ProjectId,system,73797374-656d-42e6-9b69-6361645f7063,1.0-dev5*
G04 #@! TF.SameCoordinates,Original*
G04 #@! TF.FileFunction,Legend,Top*
G04 #@! TF.FilePolarity,Positive*
%FSLAX46Y46*%
G04 Gerber Fmt 4.6, Leading zero omitted, Abs format (unit mm)*
G04 Created by KiCad (PCBNEW (5.1.9-0-10_14)) date 2021-06-07 20:14:56*
%MOMM*%
%LPD*%
G01*
G04 APERTURE LIST*
%ADD10C,0.381000*%
%ADD11C,0.250000*%
%ADD12C,0.100000*%
%ADD13C,0.177800*%
%ADD14C,0.304800*%
%ADD15C,0.120000*%
%ADD16C,0.150000*%
%ADD17C,0.300000*%
%ADD18O,1.801600X1.801600*%
%ADD19C,1.801600*%
%ADD20C,1.851600*%
%ADD21C,2.101600*%
%ADD22C,3.851600*%
%ADD23C,1.401600*%
%ADD24C,0.609600*%
%ADD25C,5.501599*%
%ADD26C,5.501600*%
%ADD27C,1.701600*%
%ADD28O,1.701600X1.701600*%
%ADD29C,1.625600*%
%ADD30C,2.201600*%
G04 APERTURE END LIST*
D10*
X161562428Y-123307928D02*
X161925285Y-123398642D01*
X162046238Y-123489357D01*
X162167190Y-123670785D01*
X162167190Y-123942928D01*
X162046238Y-124124357D01*
X161925285Y-124215071D01*
X161683380Y-124305785D01*
X160715761Y-124305785D01*
X160715761Y-122400785D01*
X161562428Y-122400785D01*
X161804333Y-122491500D01*
X161925285Y-122582214D01*
X162046238Y-122763642D01*
X162046238Y-122945071D01*
X161925285Y-123126500D01*
X161804333Y-123217214D01*
X161562428Y-123307928D01*
X160715761Y-123307928D01*
X150997238Y-128841500D02*
X152206761Y-128841500D01*
X150755333Y-129385785D02*
X151602000Y-127480785D01*
X152448666Y-129385785D01*
D11*
X38354000Y-68580000D02*
G75*
G03*
X38354000Y-68580000I-63500J0D01*
G01*
D12*
G36*
X40957500Y-68580000D02*
G01*
X40513000Y-68897500D01*
X40513000Y-68262500D01*
X40957500Y-68580000D01*
G37*
X40957500Y-68580000D02*
X40513000Y-68897500D01*
X40513000Y-68262500D01*
X40957500Y-68580000D01*
G36*
X35560000Y-68897500D02*
G01*
X35115500Y-68580000D01*
X35560000Y-68262500D01*
X35560000Y-68897500D01*
G37*
X35560000Y-68897500D02*
X35115500Y-68580000D01*
X35560000Y-68262500D01*
X35560000Y-68897500D01*
D13*
X115352285Y-71845714D02*
X115497428Y-71845714D01*
X115570000Y-71882000D01*
X115642571Y-71954571D01*
X115678857Y-72099714D01*
X115678857Y-72353714D01*
X115642571Y-72498857D01*
X115570000Y-72571428D01*
X115497428Y-72607714D01*
X115352285Y-72607714D01*
X115279714Y-72571428D01*
X115207142Y-72498857D01*
X115170857Y-72353714D01*
X115170857Y-72099714D01*
X115207142Y-71954571D01*
X115279714Y-71882000D01*
X115352285Y-71845714D01*
X116005428Y-72607714D02*
X116005428Y-71845714D01*
X116440857Y-72607714D01*
X116440857Y-71845714D01*
X39025285Y-68162714D02*
X39170428Y-68162714D01*
X39243000Y-68199000D01*
X39315571Y-68271571D01*
X39351857Y-68416714D01*
X39351857Y-68670714D01*
X39315571Y-68815857D01*
X39243000Y-68888428D01*
X39170428Y-68924714D01*
X39025285Y-68924714D01*
X38952714Y-68888428D01*
X38880142Y-68815857D01*
X38843857Y-68670714D01*
X38843857Y-68416714D01*
X38880142Y-68271571D01*
X38952714Y-68199000D01*
X39025285Y-68162714D01*
X39678428Y-68924714D02*
X39678428Y-68162714D01*
X40113857Y-68924714D01*
X40113857Y-68162714D01*
X36104285Y-68162714D02*
X36249428Y-68162714D01*
X36322000Y-68199000D01*
X36394571Y-68271571D01*
X36430857Y-68416714D01*
X36430857Y-68670714D01*
X36394571Y-68815857D01*
X36322000Y-68888428D01*
X36249428Y-68924714D01*
X36104285Y-68924714D01*
X36031714Y-68888428D01*
X35959142Y-68815857D01*
X35922857Y-68670714D01*
X35922857Y-68416714D01*
X35959142Y-68271571D01*
X36031714Y-68199000D01*
X36104285Y-68162714D01*
X37011428Y-68525571D02*
X36757428Y-68525571D01*
X36757428Y-68924714D02*
X36757428Y-68162714D01*
X37120285Y-68162714D01*
X37664571Y-68525571D02*
X37410571Y-68525571D01*
X37410571Y-68924714D02*
X37410571Y-68162714D01*
X37773428Y-68162714D01*
D12*
G36*
X104267000Y-140716000D02*
G01*
X105029000Y-138049000D01*
X106426000Y-137795000D01*
X104267000Y-140716000D01*
G37*
X104267000Y-140716000D02*
X105029000Y-138049000D01*
X106426000Y-137795000D01*
X104267000Y-140716000D01*
G36*
X105410000Y-138430000D02*
G01*
X104013000Y-138684000D01*
X106172000Y-135763000D01*
X105410000Y-138430000D01*
G37*
X105410000Y-138430000D02*
X104013000Y-138684000D01*
X106172000Y-135763000D01*
X105410000Y-138430000D01*
G36*
X104648000Y-118872000D02*
G01*
X103886000Y-118110000D01*
X104648000Y-117348000D01*
X104648000Y-118872000D01*
G37*
X104648000Y-118872000D02*
X103886000Y-118110000D01*
X104648000Y-117348000D01*
X104648000Y-118872000D01*
D14*
X113284000Y-71501000D02*
X113284000Y-72136000D01*
X112776000Y-71755000D02*
G75*
G03*
X113792000Y-71755000I508000J-508000D01*
G01*
D13*
X110018285Y-71845714D02*
X110163428Y-71845714D01*
X110236000Y-71882000D01*
X110308571Y-71954571D01*
X110344857Y-72099714D01*
X110344857Y-72353714D01*
X110308571Y-72498857D01*
X110236000Y-72571428D01*
X110163428Y-72607714D01*
X110018285Y-72607714D01*
X109945714Y-72571428D01*
X109873142Y-72498857D01*
X109836857Y-72353714D01*
X109836857Y-72099714D01*
X109873142Y-71954571D01*
X109945714Y-71882000D01*
X110018285Y-71845714D01*
X110925428Y-72208571D02*
X110671428Y-72208571D01*
X110671428Y-72607714D02*
X110671428Y-71845714D01*
X111034285Y-71845714D01*
X111578571Y-72208571D02*
X111324571Y-72208571D01*
X111324571Y-72607714D02*
X111324571Y-71845714D01*
X111687428Y-71845714D01*
D15*
X167576000Y-96626000D02*
X167226000Y-96626000D01*
X167576000Y-95906000D02*
X167226000Y-95906000D01*
X167576000Y-94086000D02*
X167166000Y-94086000D01*
X167576000Y-93366000D02*
X167166000Y-93366000D01*
X167576000Y-91546000D02*
X167166000Y-91546000D01*
X167576000Y-90826000D02*
X167166000Y-90826000D01*
X167576000Y-89006000D02*
X167166000Y-89006000D01*
X167576000Y-88286000D02*
X167166000Y-88286000D01*
X176206000Y-94996000D02*
X167576000Y-94996000D01*
X176206000Y-92456000D02*
X167576000Y-92456000D01*
X176206000Y-89916000D02*
X167576000Y-89916000D01*
X176206000Y-97536000D02*
X167576000Y-97536000D01*
X167576000Y-100076000D02*
X167576000Y-82296000D01*
X176206000Y-87376000D02*
X167576000Y-87376000D01*
X176206000Y-100076000D02*
X176206000Y-82296000D01*
X176206000Y-100076000D02*
X167576000Y-100076000D01*
X176206000Y-82296000D02*
X167576000Y-82296000D01*
X167576000Y-99166000D02*
X167226000Y-99166000D01*
X167576000Y-98446000D02*
X167226000Y-98446000D01*
X167576000Y-86466000D02*
X167226000Y-86466000D01*
X167576000Y-85746000D02*
X167226000Y-85746000D01*
X176206000Y-107696000D02*
X167576000Y-107696000D01*
X167576000Y-104246000D02*
X167166000Y-104246000D01*
X167576000Y-103526000D02*
X167166000Y-103526000D01*
X167576000Y-107696000D02*
X167576000Y-100076000D01*
X176206000Y-102616000D02*
X167576000Y-102616000D01*
X176206000Y-105156000D02*
X167576000Y-105156000D01*
X167576000Y-106786000D02*
X167166000Y-106786000D01*
X167576000Y-106066000D02*
X167166000Y-106066000D01*
X176206000Y-107696000D02*
X176206000Y-100076000D01*
X167576000Y-101706000D02*
X167226000Y-101706000D01*
X167576000Y-100986000D02*
X167226000Y-100986000D01*
X167576000Y-83206000D02*
X167226000Y-83206000D01*
X167576000Y-83926000D02*
X167226000Y-83926000D01*
X176206000Y-84836000D02*
X167576000Y-84836000D01*
X148241901Y-148033377D02*
X148301929Y-148148688D01*
X148301929Y-148148688D02*
X143476590Y-150660600D01*
X143476590Y-150660600D02*
X143416562Y-150545289D01*
X147004415Y-145656187D02*
X146944388Y-145540876D01*
X146944388Y-145540876D02*
X142119049Y-148052789D01*
X142119049Y-148052789D02*
X142179076Y-148168100D01*
X147503619Y-148564262D02*
X146146078Y-145956450D01*
X147397178Y-148619671D02*
X146039637Y-146011860D01*
X147610060Y-148508852D02*
X146252519Y-145901040D01*
X137220924Y-148033377D02*
X137280952Y-148148688D01*
X137280952Y-148148688D02*
X132455613Y-150660600D01*
X132455613Y-150660600D02*
X132395585Y-150545289D01*
X135983438Y-145656187D02*
X135923411Y-145540876D01*
X135923411Y-145540876D02*
X131098072Y-148052789D01*
X131098072Y-148052789D02*
X131158099Y-148168100D01*
X136482642Y-148564262D02*
X135125101Y-145956450D01*
X136376201Y-148619671D02*
X135018660Y-146011860D01*
X136589083Y-148508852D02*
X135231542Y-145901040D01*
D16*
G36*
X98171000Y-118110000D02*
G01*
X99421000Y-122428000D01*
X99421000Y-118110000D01*
X98171000Y-118110000D01*
G37*
X98171000Y-118110000D02*
X99421000Y-122428000D01*
X99421000Y-118110000D01*
X98171000Y-118110000D01*
X103700000Y-73496000D02*
X175700000Y-73496000D01*
X103700000Y-116496000D02*
X175700000Y-116496000D01*
X175700000Y-73496000D02*
X175700000Y-116496000D01*
X103700000Y-73496000D02*
X103700000Y-116496000D01*
D11*
X111200000Y-77596000D02*
X168200000Y-77596000D01*
X111200000Y-107096000D02*
X168200000Y-107096000D01*
X108700000Y-75596000D02*
X170700000Y-75596000D01*
X108700000Y-75596000D02*
X108700000Y-114396000D01*
X170700000Y-75596000D02*
X170700000Y-114396000D01*
X108700000Y-114396000D02*
X170700000Y-114396000D01*
X111200000Y-77596000D02*
X111200000Y-107096000D01*
X168200000Y-77596000D02*
X168200000Y-107096000D01*
D15*
X154852000Y-137303000D02*
X154852000Y-132803000D01*
X150852000Y-138553000D02*
X152352000Y-138553000D01*
X148352000Y-132803000D02*
X148352000Y-137303000D01*
X152352000Y-131553000D02*
X150852000Y-131553000D01*
X164631000Y-132350000D02*
X164631000Y-127850000D01*
X160631000Y-133600000D02*
X162131000Y-133600000D01*
X158131000Y-127850000D02*
X158131000Y-132350000D01*
X162131000Y-126600000D02*
X160631000Y-126600000D01*
X126186000Y-128234000D02*
X126186000Y-123734000D01*
X122186000Y-129484000D02*
X123686000Y-129484000D01*
X119686000Y-123734000D02*
X119686000Y-128234000D01*
X123686000Y-122484000D02*
X122186000Y-122484000D01*
X119686000Y-137958000D02*
X119686000Y-142458000D01*
X123686000Y-136708000D02*
X122186000Y-136708000D01*
X126186000Y-142458000D02*
X126186000Y-137958000D01*
X122186000Y-143708000D02*
X123686000Y-143708000D01*
X119074000Y-135346000D02*
X119074000Y-130846000D01*
X115074000Y-136596000D02*
X116574000Y-136596000D01*
X112574000Y-130846000D02*
X112574000Y-135346000D01*
X116574000Y-129596000D02*
X115074000Y-129596000D01*
X126798000Y-130846000D02*
X126798000Y-135346000D01*
X130798000Y-129596000D02*
X129298000Y-129596000D01*
X133298000Y-135346000D02*
X133298000Y-130846000D01*
X129298000Y-136596000D02*
X130798000Y-136596000D01*
X168224000Y-125730000D02*
X168224000Y-118110000D01*
X168224000Y-125730000D02*
X170434000Y-125730000D01*
X177749000Y-121920000D02*
G75*
G03*
X177749000Y-121920000I-4445000J0D01*
G01*
X168224000Y-118110000D02*
X170434000Y-118110000D01*
X173804000Y-121920000D02*
G75*
G03*
X173804000Y-121920000I-500000J0D01*
G01*
D16*
G36*
X166370000Y-118110000D02*
G01*
X167620000Y-122428000D01*
X167620000Y-118110000D01*
X166370000Y-118110000D01*
G37*
X166370000Y-118110000D02*
X167620000Y-122428000D01*
X167620000Y-118110000D01*
X166370000Y-118110000D01*
D15*
X176026000Y-140208000D02*
G75*
G03*
X176026000Y-140208000I-6100000J0D01*
G01*
X109029500Y-67513200D02*
X117538500Y-67513200D01*
X109029500Y-71018400D02*
X109029500Y-67513200D01*
X117538500Y-71018400D02*
X117538500Y-67513200D01*
X109029500Y-71018400D02*
X117538500Y-71018400D01*
D13*
X98376619Y-125488095D02*
X99392619Y-125149428D01*
X98376619Y-124810761D01*
X98376619Y-124278571D02*
X98376619Y-124085047D01*
X98425000Y-123988285D01*
X98521761Y-123891523D01*
X98715285Y-123843142D01*
X99053952Y-123843142D01*
X99247476Y-123891523D01*
X99344238Y-123988285D01*
X99392619Y-124085047D01*
X99392619Y-124278571D01*
X99344238Y-124375333D01*
X99247476Y-124472095D01*
X99053952Y-124520476D01*
X98715285Y-124520476D01*
X98521761Y-124472095D01*
X98425000Y-124375333D01*
X98376619Y-124278571D01*
X99392619Y-122923904D02*
X99392619Y-123407714D01*
X98376619Y-123407714D01*
D10*
X72067344Y-130322853D02*
X73140205Y-129764357D01*
X72104095Y-130917340D02*
X71975467Y-128836637D01*
X73606100Y-130135446D01*
X82334268Y-124604508D02*
X82698013Y-124517424D01*
X82847186Y-124542039D01*
X83038247Y-124647119D01*
X83163909Y-124888512D01*
X83140397Y-125105291D01*
X83074998Y-125241605D01*
X82902313Y-125433769D01*
X82044024Y-125880566D01*
X81164393Y-124190810D01*
X81915396Y-123799863D01*
X82171855Y-123768628D01*
X82321028Y-123793243D01*
X82512089Y-123898323D01*
X82595863Y-124059252D01*
X82572352Y-124276030D01*
X82506953Y-124412345D01*
X82334268Y-124604508D01*
X81583265Y-124995455D01*
D13*
X166575619Y-125488095D02*
X167591619Y-125149428D01*
X166575619Y-124810761D01*
X166575619Y-124278571D02*
X166575619Y-124085047D01*
X166624000Y-123988285D01*
X166720761Y-123891523D01*
X166914285Y-123843142D01*
X167252952Y-123843142D01*
X167446476Y-123891523D01*
X167543238Y-123988285D01*
X167591619Y-124085047D01*
X167591619Y-124278571D01*
X167543238Y-124375333D01*
X167446476Y-124472095D01*
X167252952Y-124520476D01*
X166914285Y-124520476D01*
X166720761Y-124472095D01*
X166624000Y-124375333D01*
X166575619Y-124278571D01*
X167591619Y-122923904D02*
X167591619Y-123407714D01*
X166575619Y-123407714D01*
D16*
X106026095Y-118471904D02*
X105759428Y-118090952D01*
X105568952Y-118471904D02*
X105568952Y-117671904D01*
X105873714Y-117671904D01*
X105949904Y-117710000D01*
X105988000Y-117748095D01*
X106026095Y-117824285D01*
X106026095Y-117938571D01*
X105988000Y-118014761D01*
X105949904Y-118052857D01*
X105873714Y-118090952D01*
X105568952Y-118090952D01*
X106368952Y-118052857D02*
X106635619Y-118052857D01*
X106749904Y-118471904D02*
X106368952Y-118471904D01*
X106368952Y-117671904D01*
X106749904Y-117671904D01*
X107054666Y-118433809D02*
X107168952Y-118471904D01*
X107359428Y-118471904D01*
X107435619Y-118433809D01*
X107473714Y-118395714D01*
X107511809Y-118319523D01*
X107511809Y-118243333D01*
X107473714Y-118167142D01*
X107435619Y-118129047D01*
X107359428Y-118090952D01*
X107207047Y-118052857D01*
X107130857Y-118014761D01*
X107092761Y-117976666D01*
X107054666Y-117900476D01*
X107054666Y-117824285D01*
X107092761Y-117748095D01*
X107130857Y-117710000D01*
X107207047Y-117671904D01*
X107397523Y-117671904D01*
X107511809Y-117710000D01*
X107854666Y-118052857D02*
X108121333Y-118052857D01*
X108235619Y-118471904D02*
X107854666Y-118471904D01*
X107854666Y-117671904D01*
X108235619Y-117671904D01*
X108464190Y-117671904D02*
X108921333Y-117671904D01*
X108692761Y-118471904D02*
X108692761Y-117671904D01*
%LPC*%
D17*
X77141378Y-138760262D02*
G75*
G02*
X73281622Y-131345738I-1929878J3707262D01*
G01*
X83060622Y-126392738D02*
G75*
G02*
X86920378Y-133807262I1929878J-3707262D01*
G01*
X86920378Y-133807262D02*
X77141378Y-138760262D01*
X83060622Y-126392738D02*
X73281622Y-131345738D01*
D16*
X37395000Y-66865500D02*
X37395000Y-67691000D01*
X36895000Y-66865500D02*
X36895000Y-67691000D01*
X36395000Y-66865500D02*
X36395000Y-67691000D01*
X40513000Y-67691000D02*
G75*
G02*
X40513000Y-69469000I0J-889000D01*
G01*
X35560000Y-69469000D02*
G75*
G02*
X35560000Y-67691000I0J889000D01*
G01*
X35560000Y-67691000D02*
X40513000Y-67691000D01*
X40513000Y-69469000D02*
X35560000Y-69469000D01*
D17*
X93654500Y-66675000D02*
X93654500Y-73660000D01*
X32964500Y-66675000D02*
X32964500Y-73660000D01*
X25400000Y-73660000D02*
X100965000Y-73660000D01*
X53657500Y-133096000D02*
G75*
G03*
X53657500Y-133096000I-7112000J0D01*
G01*
D18*
X166116000Y-86106000D03*
X166116000Y-101346000D03*
X166116000Y-103886000D03*
X166116000Y-106426000D03*
X166116000Y-83566000D03*
D19*
X166116000Y-98806000D03*
D18*
X166116000Y-88646000D03*
X166116000Y-91186000D03*
X166116000Y-93726000D03*
D19*
X166116000Y-96266000D03*
D18*
X107696000Y-132969000D03*
G36*
G01*
X142851749Y-149328620D02*
X142851749Y-149328620D01*
G75*
G02*
X142362357Y-150880772I-1020772J-531380D01*
G01*
X142362357Y-150880772D01*
G75*
G02*
X140810205Y-150391380I-531380J1020772D01*
G01*
X140810205Y-150391380D01*
G75*
G02*
X141299597Y-148839228I1020772J531380D01*
G01*
X141299597Y-148839228D01*
G75*
G02*
X142851749Y-149328620I531380J-1020772D01*
G01*
G37*
G36*
G01*
X149102848Y-144834384D02*
X150118695Y-146785807D01*
G75*
G02*
X150097092Y-146854324I-45060J-23457D01*
G01*
X148145669Y-147870171D01*
G75*
G02*
X148077152Y-147848568I-23457J45060D01*
G01*
X147061305Y-145897145D01*
G75*
G02*
X147082908Y-145828628I45060J23457D01*
G01*
X149034331Y-144812781D01*
G75*
G02*
X149102848Y-144834384I23457J-45060D01*
G01*
G37*
G36*
G01*
X131830772Y-149328620D02*
X131830772Y-149328620D01*
G75*
G02*
X131341380Y-150880772I-1020772J-531380D01*
G01*
X131341380Y-150880772D01*
G75*
G02*
X129789228Y-150391380I-531380J1020772D01*
G01*
X129789228Y-150391380D01*
G75*
G02*
X130278620Y-148839228I1020772J531380D01*
G01*
X130278620Y-148839228D01*
G75*
G02*
X131830772Y-149328620I531380J-1020772D01*
G01*
G37*
G36*
G01*
X138081871Y-144834384D02*
X139097718Y-146785807D01*
G75*
G02*
X139076115Y-146854324I-45060J-23457D01*
G01*
X137124692Y-147870171D01*
G75*
G02*
X137056175Y-147848568I-23457J45060D01*
G01*
X136040328Y-145897145D01*
G75*
G02*
X136061931Y-145828628I45060J23457D01*
G01*
X138013354Y-144812781D01*
G75*
G02*
X138081871Y-144834384I23457J-45060D01*
G01*
G37*
D20*
X156210000Y-109920000D03*
X153670000Y-109920000D03*
X151130000Y-109920000D03*
X148590000Y-109920000D03*
X146050000Y-109920000D03*
X143510000Y-109920000D03*
X140970000Y-109920000D03*
X138430000Y-109920000D03*
X135890000Y-109920000D03*
X133350000Y-109920000D03*
X130810000Y-109920000D03*
X128270000Y-109920000D03*
X125730000Y-109920000D03*
X123190000Y-109920000D03*
X123190000Y-115000000D03*
X125730000Y-115000000D03*
X128270000Y-115000000D03*
X130810000Y-115000000D03*
X133350000Y-115000000D03*
X135890000Y-115000000D03*
X156210000Y-115000000D03*
X153670000Y-115000000D03*
X151130000Y-115000000D03*
X148590000Y-115000000D03*
X146050000Y-115000000D03*
X143510000Y-115000000D03*
X138430000Y-115000000D03*
X140970000Y-115000000D03*
D19*
X106200000Y-102616000D03*
X106200000Y-100076000D03*
X106200000Y-97536000D03*
X106200000Y-94996000D03*
X106200000Y-92456000D03*
X106200000Y-89916000D03*
X106200000Y-87376000D03*
D21*
X153852000Y-138303000D03*
X149352000Y-138303000D03*
X153852000Y-131803000D03*
X149352000Y-131803000D03*
X163631000Y-133350000D03*
X159131000Y-133350000D03*
X163631000Y-126850000D03*
X159131000Y-126850000D03*
X125186000Y-129234000D03*
X120686000Y-129234000D03*
X125186000Y-122734000D03*
X120686000Y-122734000D03*
X120686000Y-136958000D03*
X125186000Y-136958000D03*
X120686000Y-143458000D03*
X125186000Y-143458000D03*
X118074000Y-136346000D03*
X113574000Y-136346000D03*
X118074000Y-129846000D03*
X113574000Y-129846000D03*
X127798000Y-129846000D03*
X132298000Y-129846000D03*
X127798000Y-136346000D03*
X132298000Y-136346000D03*
D22*
X249999500Y-70104000D03*
X232854500Y-151130000D03*
X182181500Y-70104000D03*
X182181500Y-151130000D03*
D23*
X170434000Y-121920000D03*
X170434000Y-124460000D03*
X170434000Y-119380000D03*
D22*
X97218500Y-70104000D03*
X80073500Y-151130000D03*
X29400500Y-70104000D03*
X29400500Y-151130000D03*
D24*
X178911000Y-131318000D03*
X178911000Y-130429000D03*
X178911000Y-132207000D03*
X176879000Y-130429000D03*
X176879000Y-131318000D03*
X176879000Y-132207000D03*
X176879000Y-97028000D03*
X176879000Y-96139000D03*
X176879000Y-95250000D03*
X178911000Y-97028000D03*
X178911000Y-95250000D03*
X178911000Y-96139000D03*
X100489000Y-96139000D03*
X100489000Y-97028000D03*
X100489000Y-95250000D03*
X102521000Y-97028000D03*
X102521000Y-96139000D03*
X102521000Y-95250000D03*
X102521000Y-130429000D03*
X102521000Y-131318000D03*
X102521000Y-132207000D03*
X100489000Y-130429000D03*
X100489000Y-132207000D03*
X100489000Y-131318000D03*
D25*
X105791000Y-151130000D03*
X105791000Y-70104000D03*
X156464000Y-151130000D03*
D26*
X173609000Y-70104000D03*
D20*
X172426000Y-140208000D03*
X167426000Y-140208000D03*
D27*
X111760000Y-114300000D03*
D28*
X111760000Y-121920000D03*
D29*
X110794800Y-70104000D03*
X113284000Y-70104000D03*
X115773200Y-70104000D03*
D30*
X108154000Y-121584000D03*
D20*
X105664000Y-120324000D03*
X105664000Y-115824000D03*
D30*
X108154000Y-114574000D03*
D19*
X114554000Y-145161000D03*
X112014000Y-145161000D03*
X117094000Y-145161000D03*
X109474000Y-145161000D03*
M02*
