G04 #@! TF.GenerationSoftware,KiCad,Pcbnew,(5.1.9-0-10_14)*
G04 #@! TF.CreationDate,2021-04-12T21:43:25-07:00*
G04 #@! TF.ProjectId,system,73797374-656d-42e6-9b69-6361645f7063,1.0-dev5*
G04 #@! TF.SameCoordinates,Original*
G04 #@! TF.FileFunction,Legend,Bot*
G04 #@! TF.FilePolarity,Positive*
%FSLAX46Y46*%
G04 Gerber Fmt 4.6, Leading zero omitted, Abs format (unit mm)*
G04 Created by KiCad (PCBNEW (5.1.9-0-10_14)) date 2021-04-12 21:43:25*
%MOMM*%
%LPD*%
G01*
G04 APERTURE LIST*
%ADD10C,0.200000*%
%ADD11C,0.317500*%
%ADD12C,0.190500*%
%ADD13C,0.150000*%
%ADD14C,0.100000*%
%ADD15C,0.120000*%
%ADD16C,0.127000*%
%ADD17O,1.801600X1.801600*%
%ADD18C,1.801600*%
%ADD19C,1.851600*%
%ADD20C,2.101600*%
%ADD21C,3.851600*%
%ADD22C,1.401600*%
%ADD23C,0.609600*%
%ADD24C,5.501599*%
%ADD25C,5.501600*%
%ADD26C,1.701600*%
%ADD27O,1.701600X1.701600*%
%ADD28C,1.625600*%
%ADD29C,2.201600*%
%ADD30C,1.621600*%
G04 APERTURE END LIST*
D10*
X151107238Y-151715476D02*
X151107238Y-152608333D01*
X151166761Y-152786904D01*
X151285809Y-152905952D01*
X151464380Y-152965476D01*
X151583428Y-152965476D01*
X149916761Y-152965476D02*
X150512000Y-152965476D01*
X150512000Y-151715476D01*
X148785809Y-152846428D02*
X148845333Y-152905952D01*
X149023904Y-152965476D01*
X149142952Y-152965476D01*
X149321523Y-152905952D01*
X149440571Y-152786904D01*
X149500095Y-152667857D01*
X149559619Y-152429761D01*
X149559619Y-152251190D01*
X149500095Y-152013095D01*
X149440571Y-151894047D01*
X149321523Y-151775000D01*
X149142952Y-151715476D01*
X149023904Y-151715476D01*
X148845333Y-151775000D01*
X148785809Y-151834523D01*
X147892952Y-151715476D02*
X147892952Y-152608333D01*
X147952476Y-152786904D01*
X148071523Y-152905952D01*
X148250095Y-152965476D01*
X148369142Y-152965476D01*
X146702476Y-152965476D02*
X147297714Y-152965476D01*
X147297714Y-151715476D01*
X145571523Y-152846428D02*
X145631047Y-152905952D01*
X145809619Y-152965476D01*
X145928666Y-152965476D01*
X146107238Y-152905952D01*
X146226285Y-152786904D01*
X146285809Y-152667857D01*
X146345333Y-152429761D01*
X146345333Y-152251190D01*
X146285809Y-152013095D01*
X146226285Y-151894047D01*
X146107238Y-151775000D01*
X145928666Y-151715476D01*
X145809619Y-151715476D01*
X145631047Y-151775000D01*
X145571523Y-151834523D01*
X144678666Y-151715476D02*
X144678666Y-152608333D01*
X144738190Y-152786904D01*
X144857238Y-152905952D01*
X145035809Y-152965476D01*
X145154857Y-152965476D01*
X143488190Y-152965476D02*
X144083428Y-152965476D01*
X144083428Y-151715476D01*
X142357238Y-152846428D02*
X142416761Y-152905952D01*
X142595333Y-152965476D01*
X142714380Y-152965476D01*
X142892952Y-152905952D01*
X143012000Y-152786904D01*
X143071523Y-152667857D01*
X143131047Y-152429761D01*
X143131047Y-152251190D01*
X143071523Y-152013095D01*
X143012000Y-151894047D01*
X142892952Y-151775000D01*
X142714380Y-151715476D01*
X142595333Y-151715476D01*
X142416761Y-151775000D01*
X142357238Y-151834523D01*
X141464380Y-151715476D02*
X141464380Y-152608333D01*
X141523904Y-152786904D01*
X141642952Y-152905952D01*
X141821523Y-152965476D01*
X141940571Y-152965476D01*
X140273904Y-152965476D02*
X140869142Y-152965476D01*
X140869142Y-151715476D01*
X139142952Y-152846428D02*
X139202476Y-152905952D01*
X139381047Y-152965476D01*
X139500095Y-152965476D01*
X139678666Y-152905952D01*
X139797714Y-152786904D01*
X139857238Y-152667857D01*
X139916761Y-152429761D01*
X139916761Y-152251190D01*
X139857238Y-152013095D01*
X139797714Y-151894047D01*
X139678666Y-151775000D01*
X139500095Y-151715476D01*
X139381047Y-151715476D01*
X139202476Y-151775000D01*
X139142952Y-151834523D01*
D11*
X223846571Y-127571500D02*
X222939428Y-127571500D01*
X224028000Y-128115785D02*
X223393000Y-126210785D01*
X222758000Y-128115785D01*
X222123000Y-128115785D02*
X222123000Y-126845785D01*
X222123000Y-127208642D02*
X222032285Y-127027214D01*
X221941571Y-126936500D01*
X221760142Y-126845785D01*
X221578714Y-126845785D01*
X220127285Y-128115785D02*
X220127285Y-126210785D01*
X220127285Y-128025071D02*
X220308714Y-128115785D01*
X220671571Y-128115785D01*
X220853000Y-128025071D01*
X220943714Y-127934357D01*
X221034428Y-127752928D01*
X221034428Y-127208642D01*
X220943714Y-127027214D01*
X220853000Y-126936500D01*
X220671571Y-126845785D01*
X220308714Y-126845785D01*
X220127285Y-126936500D01*
X218403714Y-126845785D02*
X218403714Y-128115785D01*
X219220142Y-126845785D02*
X219220142Y-127843642D01*
X219129428Y-128025071D01*
X218948000Y-128115785D01*
X218675857Y-128115785D01*
X218494428Y-128025071D01*
X218403714Y-127934357D01*
X217496571Y-128115785D02*
X217496571Y-126210785D01*
X217496571Y-126936500D02*
X217315142Y-126845785D01*
X216952285Y-126845785D01*
X216770857Y-126936500D01*
X216680142Y-127027214D01*
X216589428Y-127208642D01*
X216589428Y-127752928D01*
X216680142Y-127934357D01*
X216770857Y-128025071D01*
X216952285Y-128115785D01*
X217315142Y-128115785D01*
X217496571Y-128025071D01*
X215500857Y-128115785D02*
X215682285Y-128025071D01*
X215773000Y-127934357D01*
X215863714Y-127752928D01*
X215863714Y-127208642D01*
X215773000Y-127027214D01*
X215682285Y-126936500D01*
X215500857Y-126845785D01*
X215228714Y-126845785D01*
X215047285Y-126936500D01*
X214956571Y-127027214D01*
X214865857Y-127208642D01*
X214865857Y-127752928D01*
X214956571Y-127934357D01*
X215047285Y-128025071D01*
X215228714Y-128115785D01*
X215500857Y-128115785D01*
X214230857Y-126845785D02*
X213777285Y-128115785D01*
X213323714Y-126845785D02*
X213777285Y-128115785D01*
X213958714Y-128569357D01*
X214049428Y-128660071D01*
X214230857Y-128750785D01*
X210058000Y-127934357D02*
X210148714Y-128025071D01*
X210420857Y-128115785D01*
X210602285Y-128115785D01*
X210874428Y-128025071D01*
X211055857Y-127843642D01*
X211146571Y-127662214D01*
X211237285Y-127299357D01*
X211237285Y-127027214D01*
X211146571Y-126664357D01*
X211055857Y-126482928D01*
X210874428Y-126301500D01*
X210602285Y-126210785D01*
X210420857Y-126210785D01*
X210148714Y-126301500D01*
X210058000Y-126392214D01*
X209241571Y-127117928D02*
X208606571Y-127117928D01*
X208334428Y-128115785D02*
X209241571Y-128115785D01*
X209241571Y-126210785D01*
X208334428Y-126210785D01*
D12*
X227438857Y-132025571D02*
X227438857Y-130882571D01*
X227166714Y-130882571D01*
X227003428Y-130937000D01*
X226894571Y-131045857D01*
X226840142Y-131154714D01*
X226785714Y-131372428D01*
X226785714Y-131535714D01*
X226840142Y-131753428D01*
X226894571Y-131862285D01*
X227003428Y-131971142D01*
X227166714Y-132025571D01*
X227438857Y-132025571D01*
X225860428Y-131971142D02*
X225969285Y-132025571D01*
X226187000Y-132025571D01*
X226295857Y-131971142D01*
X226350285Y-131862285D01*
X226350285Y-131426857D01*
X226295857Y-131318000D01*
X226187000Y-131263571D01*
X225969285Y-131263571D01*
X225860428Y-131318000D01*
X225806000Y-131426857D01*
X225806000Y-131535714D01*
X226350285Y-131644571D01*
X225370571Y-131971142D02*
X225261714Y-132025571D01*
X225044000Y-132025571D01*
X224935142Y-131971142D01*
X224880714Y-131862285D01*
X224880714Y-131807857D01*
X224935142Y-131699000D01*
X225044000Y-131644571D01*
X225207285Y-131644571D01*
X225316142Y-131590142D01*
X225370571Y-131481285D01*
X225370571Y-131426857D01*
X225316142Y-131318000D01*
X225207285Y-131263571D01*
X225044000Y-131263571D01*
X224935142Y-131318000D01*
X224390857Y-132025571D02*
X224390857Y-131263571D01*
X224390857Y-130882571D02*
X224445285Y-130937000D01*
X224390857Y-130991428D01*
X224336428Y-130937000D01*
X224390857Y-130882571D01*
X224390857Y-130991428D01*
X223356714Y-131263571D02*
X223356714Y-132188857D01*
X223411142Y-132297714D01*
X223465571Y-132352142D01*
X223574428Y-132406571D01*
X223737714Y-132406571D01*
X223846571Y-132352142D01*
X223356714Y-131971142D02*
X223465571Y-132025571D01*
X223683285Y-132025571D01*
X223792142Y-131971142D01*
X223846571Y-131916714D01*
X223901000Y-131807857D01*
X223901000Y-131481285D01*
X223846571Y-131372428D01*
X223792142Y-131318000D01*
X223683285Y-131263571D01*
X223465571Y-131263571D01*
X223356714Y-131318000D01*
X222812428Y-131263571D02*
X222812428Y-132025571D01*
X222812428Y-131372428D02*
X222758000Y-131318000D01*
X222649142Y-131263571D01*
X222485857Y-131263571D01*
X222377000Y-131318000D01*
X222322571Y-131426857D01*
X222322571Y-132025571D01*
X221342857Y-131971142D02*
X221451714Y-132025571D01*
X221669428Y-132025571D01*
X221778285Y-131971142D01*
X221832714Y-131862285D01*
X221832714Y-131426857D01*
X221778285Y-131318000D01*
X221669428Y-131263571D01*
X221451714Y-131263571D01*
X221342857Y-131318000D01*
X221288428Y-131426857D01*
X221288428Y-131535714D01*
X221832714Y-131644571D01*
X220308714Y-132025571D02*
X220308714Y-130882571D01*
X220308714Y-131971142D02*
X220417571Y-132025571D01*
X220635285Y-132025571D01*
X220744142Y-131971142D01*
X220798571Y-131916714D01*
X220853000Y-131807857D01*
X220853000Y-131481285D01*
X220798571Y-131372428D01*
X220744142Y-131318000D01*
X220635285Y-131263571D01*
X220417571Y-131263571D01*
X220308714Y-131318000D01*
X218893571Y-132025571D02*
X218893571Y-130882571D01*
X218893571Y-131318000D02*
X218784714Y-131263571D01*
X218567000Y-131263571D01*
X218458142Y-131318000D01*
X218403714Y-131372428D01*
X218349285Y-131481285D01*
X218349285Y-131807857D01*
X218403714Y-131916714D01*
X218458142Y-131971142D01*
X218567000Y-132025571D01*
X218784714Y-132025571D01*
X218893571Y-131971142D01*
X217968285Y-131263571D02*
X217696142Y-132025571D01*
X217424000Y-131263571D02*
X217696142Y-132025571D01*
X217805000Y-132297714D01*
X217859428Y-132352142D01*
X217968285Y-132406571D01*
X215791142Y-130882571D02*
X215791142Y-131699000D01*
X215845571Y-131862285D01*
X215954428Y-131971142D01*
X216117714Y-132025571D01*
X216226571Y-132025571D01*
X215083571Y-132025571D02*
X215192428Y-131971142D01*
X215246857Y-131916714D01*
X215301285Y-131807857D01*
X215301285Y-131481285D01*
X215246857Y-131372428D01*
X215192428Y-131318000D01*
X215083571Y-131263571D01*
X214920285Y-131263571D01*
X214811428Y-131318000D01*
X214757000Y-131372428D01*
X214702571Y-131481285D01*
X214702571Y-131807857D01*
X214757000Y-131916714D01*
X214811428Y-131971142D01*
X214920285Y-132025571D01*
X215083571Y-132025571D01*
X214212714Y-132025571D02*
X214212714Y-130882571D01*
X213722857Y-132025571D02*
X213722857Y-131426857D01*
X213777285Y-131318000D01*
X213886142Y-131263571D01*
X214049428Y-131263571D01*
X214158285Y-131318000D01*
X214212714Y-131372428D01*
X213178571Y-131263571D02*
X213178571Y-132025571D01*
X213178571Y-131372428D02*
X213124142Y-131318000D01*
X213015285Y-131263571D01*
X212852000Y-131263571D01*
X212743142Y-131318000D01*
X212688714Y-131426857D01*
X212688714Y-132025571D01*
X212090000Y-131971142D02*
X212090000Y-132025571D01*
X212144428Y-132134428D01*
X212198857Y-132188857D01*
X210729285Y-132025571D02*
X210729285Y-130882571D01*
X210076142Y-132025571D01*
X210076142Y-130882571D01*
X209042000Y-132025571D02*
X209042000Y-131426857D01*
X209096428Y-131318000D01*
X209205285Y-131263571D01*
X209423000Y-131263571D01*
X209531857Y-131318000D01*
X209042000Y-131971142D02*
X209150857Y-132025571D01*
X209423000Y-132025571D01*
X209531857Y-131971142D01*
X209586285Y-131862285D01*
X209586285Y-131753428D01*
X209531857Y-131644571D01*
X209423000Y-131590142D01*
X209150857Y-131590142D01*
X209042000Y-131535714D01*
X208661000Y-131263571D02*
X208225571Y-131263571D01*
X208497714Y-130882571D02*
X208497714Y-131862285D01*
X208443285Y-131971142D01*
X208334428Y-132025571D01*
X208225571Y-132025571D01*
X207844571Y-132025571D02*
X207844571Y-130882571D01*
X207354714Y-132025571D02*
X207354714Y-131426857D01*
X207409142Y-131318000D01*
X207518000Y-131263571D01*
X207681285Y-131263571D01*
X207790142Y-131318000D01*
X207844571Y-131372428D01*
X206320571Y-132025571D02*
X206320571Y-131426857D01*
X206375000Y-131318000D01*
X206483857Y-131263571D01*
X206701571Y-131263571D01*
X206810428Y-131318000D01*
X206320571Y-131971142D02*
X206429428Y-132025571D01*
X206701571Y-132025571D01*
X206810428Y-131971142D01*
X206864857Y-131862285D01*
X206864857Y-131753428D01*
X206810428Y-131644571D01*
X206701571Y-131590142D01*
X206429428Y-131590142D01*
X206320571Y-131535714D01*
X205776285Y-131263571D02*
X205776285Y-132025571D01*
X205776285Y-131372428D02*
X205721857Y-131318000D01*
X205613000Y-131263571D01*
X205449714Y-131263571D01*
X205340857Y-131318000D01*
X205286428Y-131426857D01*
X205286428Y-132025571D01*
X204687714Y-131971142D02*
X204687714Y-132025571D01*
X204742142Y-132134428D01*
X204796571Y-132188857D01*
X223139000Y-133930571D02*
X223139000Y-133331857D01*
X223193428Y-133223000D01*
X223302285Y-133168571D01*
X223520000Y-133168571D01*
X223628857Y-133223000D01*
X223139000Y-133876142D02*
X223247857Y-133930571D01*
X223520000Y-133930571D01*
X223628857Y-133876142D01*
X223683285Y-133767285D01*
X223683285Y-133658428D01*
X223628857Y-133549571D01*
X223520000Y-133495142D01*
X223247857Y-133495142D01*
X223139000Y-133440714D01*
X222594714Y-133168571D02*
X222594714Y-133930571D01*
X222594714Y-133277428D02*
X222540285Y-133223000D01*
X222431428Y-133168571D01*
X222268142Y-133168571D01*
X222159285Y-133223000D01*
X222104857Y-133331857D01*
X222104857Y-133930571D01*
X221070714Y-133930571D02*
X221070714Y-132787571D01*
X221070714Y-133876142D02*
X221179571Y-133930571D01*
X221397285Y-133930571D01*
X221506142Y-133876142D01*
X221560571Y-133821714D01*
X221615000Y-133712857D01*
X221615000Y-133386285D01*
X221560571Y-133277428D01*
X221506142Y-133223000D01*
X221397285Y-133168571D01*
X221179571Y-133168571D01*
X221070714Y-133223000D01*
X219710000Y-133604000D02*
X219165714Y-133604000D01*
X219818857Y-133930571D02*
X219437857Y-132787571D01*
X219056857Y-133930571D01*
X218675857Y-133168571D02*
X218675857Y-133930571D01*
X218675857Y-133277428D02*
X218621428Y-133223000D01*
X218512571Y-133168571D01*
X218349285Y-133168571D01*
X218240428Y-133223000D01*
X218186000Y-133331857D01*
X218186000Y-133930571D01*
X217151857Y-133930571D02*
X217151857Y-132787571D01*
X217151857Y-133876142D02*
X217260714Y-133930571D01*
X217478428Y-133930571D01*
X217587285Y-133876142D01*
X217641714Y-133821714D01*
X217696142Y-133712857D01*
X217696142Y-133386285D01*
X217641714Y-133277428D01*
X217587285Y-133223000D01*
X217478428Y-133168571D01*
X217260714Y-133168571D01*
X217151857Y-133223000D01*
X216607571Y-133930571D02*
X216607571Y-133168571D01*
X216607571Y-133386285D02*
X216553142Y-133277428D01*
X216498714Y-133223000D01*
X216389857Y-133168571D01*
X216281000Y-133168571D01*
X215464571Y-133876142D02*
X215573428Y-133930571D01*
X215791142Y-133930571D01*
X215900000Y-133876142D01*
X215954428Y-133767285D01*
X215954428Y-133331857D01*
X215900000Y-133223000D01*
X215791142Y-133168571D01*
X215573428Y-133168571D01*
X215464571Y-133223000D01*
X215410142Y-133331857D01*
X215410142Y-133440714D01*
X215954428Y-133549571D01*
X215029142Y-133168571D02*
X214811428Y-133930571D01*
X214593714Y-133386285D01*
X214376000Y-133930571D01*
X214158285Y-133168571D01*
X212852000Y-133930571D02*
X212852000Y-132787571D01*
X212471000Y-133604000D01*
X212090000Y-132787571D01*
X212090000Y-133930571D01*
X211110285Y-133876142D02*
X211219142Y-133930571D01*
X211436857Y-133930571D01*
X211545714Y-133876142D01*
X211600142Y-133767285D01*
X211600142Y-133331857D01*
X211545714Y-133223000D01*
X211436857Y-133168571D01*
X211219142Y-133168571D01*
X211110285Y-133223000D01*
X211055857Y-133331857D01*
X211055857Y-133440714D01*
X211600142Y-133549571D01*
X210674857Y-133168571D02*
X210402714Y-133930571D01*
X210130571Y-133168571D02*
X210402714Y-133930571D01*
X210511571Y-134202714D01*
X210566000Y-134257142D01*
X210674857Y-134311571D01*
X209259714Y-133876142D02*
X209368571Y-133930571D01*
X209586285Y-133930571D01*
X209695142Y-133876142D01*
X209749571Y-133767285D01*
X209749571Y-133331857D01*
X209695142Y-133223000D01*
X209586285Y-133168571D01*
X209368571Y-133168571D01*
X209259714Y-133223000D01*
X209205285Y-133331857D01*
X209205285Y-133440714D01*
X209749571Y-133549571D01*
X208715428Y-133930571D02*
X208715428Y-133168571D01*
X208715428Y-133386285D02*
X208661000Y-133277428D01*
X208606571Y-133223000D01*
X208497714Y-133168571D01*
X208388857Y-133168571D01*
X231684285Y-137042071D02*
X231684285Y-137967357D01*
X231738714Y-138076214D01*
X231793142Y-138130642D01*
X231902000Y-138185071D01*
X232065285Y-138185071D01*
X232174142Y-138130642D01*
X231684285Y-137749642D02*
X231793142Y-137804071D01*
X232010857Y-137804071D01*
X232119714Y-137749642D01*
X232174142Y-137695214D01*
X232228571Y-137586357D01*
X232228571Y-137259785D01*
X232174142Y-137150928D01*
X232119714Y-137096500D01*
X232010857Y-137042071D01*
X231793142Y-137042071D01*
X231684285Y-137096500D01*
X231140000Y-137804071D02*
X231140000Y-137042071D01*
X231140000Y-136661071D02*
X231194428Y-136715500D01*
X231140000Y-136769928D01*
X231085571Y-136715500D01*
X231140000Y-136661071D01*
X231140000Y-136769928D01*
X230759000Y-137042071D02*
X230323571Y-137042071D01*
X230595714Y-136661071D02*
X230595714Y-137640785D01*
X230541285Y-137749642D01*
X230432428Y-137804071D01*
X230323571Y-137804071D01*
X229942571Y-137804071D02*
X229942571Y-136661071D01*
X229452714Y-137804071D02*
X229452714Y-137205357D01*
X229507142Y-137096500D01*
X229616000Y-137042071D01*
X229779285Y-137042071D01*
X229888142Y-137096500D01*
X229942571Y-137150928D01*
X228418571Y-137042071D02*
X228418571Y-137804071D01*
X228908428Y-137042071D02*
X228908428Y-137640785D01*
X228854000Y-137749642D01*
X228745142Y-137804071D01*
X228581857Y-137804071D01*
X228473000Y-137749642D01*
X228418571Y-137695214D01*
X227874285Y-137804071D02*
X227874285Y-136661071D01*
X227874285Y-137096500D02*
X227765428Y-137042071D01*
X227547714Y-137042071D01*
X227438857Y-137096500D01*
X227384428Y-137150928D01*
X227330000Y-137259785D01*
X227330000Y-137586357D01*
X227384428Y-137695214D01*
X227438857Y-137749642D01*
X227547714Y-137804071D01*
X227765428Y-137804071D01*
X227874285Y-137749642D01*
X226840142Y-137695214D02*
X226785714Y-137749642D01*
X226840142Y-137804071D01*
X226894571Y-137749642D01*
X226840142Y-137695214D01*
X226840142Y-137804071D01*
X225806000Y-137749642D02*
X225914857Y-137804071D01*
X226132571Y-137804071D01*
X226241428Y-137749642D01*
X226295857Y-137695214D01*
X226350285Y-137586357D01*
X226350285Y-137259785D01*
X226295857Y-137150928D01*
X226241428Y-137096500D01*
X226132571Y-137042071D01*
X225914857Y-137042071D01*
X225806000Y-137096500D01*
X225152857Y-137804071D02*
X225261714Y-137749642D01*
X225316142Y-137695214D01*
X225370571Y-137586357D01*
X225370571Y-137259785D01*
X225316142Y-137150928D01*
X225261714Y-137096500D01*
X225152857Y-137042071D01*
X224989571Y-137042071D01*
X224880714Y-137096500D01*
X224826285Y-137150928D01*
X224771857Y-137259785D01*
X224771857Y-137586357D01*
X224826285Y-137695214D01*
X224880714Y-137749642D01*
X224989571Y-137804071D01*
X225152857Y-137804071D01*
X224281999Y-137804071D02*
X224281999Y-137042071D01*
X224281999Y-137150928D02*
X224227571Y-137096500D01*
X224118714Y-137042071D01*
X223955428Y-137042071D01*
X223846571Y-137096500D01*
X223792142Y-137205357D01*
X223792142Y-137804071D01*
X223792142Y-137205357D02*
X223737714Y-137096500D01*
X223628857Y-137042071D01*
X223465571Y-137042071D01*
X223356714Y-137096500D01*
X223302285Y-137205357D01*
X223302285Y-137804071D01*
X221941571Y-136606642D02*
X222921285Y-138076214D01*
X221560571Y-137804071D02*
X221560571Y-137042071D01*
X221560571Y-137150928D02*
X221506142Y-137096500D01*
X221397285Y-137042071D01*
X221233999Y-137042071D01*
X221125142Y-137096500D01*
X221070714Y-137205357D01*
X221070714Y-137804071D01*
X221070714Y-137205357D02*
X221016285Y-137096500D01*
X220907428Y-137042071D01*
X220744142Y-137042071D01*
X220635285Y-137096500D01*
X220580857Y-137205357D01*
X220580857Y-137804071D01*
X219601142Y-137749642D02*
X219709999Y-137804071D01*
X219927714Y-137804071D01*
X220036571Y-137749642D01*
X220090999Y-137640785D01*
X220090999Y-137205357D01*
X220036571Y-137096500D01*
X219927714Y-137042071D01*
X219709999Y-137042071D01*
X219601142Y-137096500D01*
X219546714Y-137205357D01*
X219546714Y-137314214D01*
X220090999Y-137423071D01*
X219056857Y-137042071D02*
X219056857Y-137804071D01*
X219056857Y-137150928D02*
X219002428Y-137096500D01*
X218893571Y-137042071D01*
X218730285Y-137042071D01*
X218621428Y-137096500D01*
X218566999Y-137205357D01*
X218566999Y-137804071D01*
X217587285Y-137749642D02*
X217696142Y-137804071D01*
X217913857Y-137804071D01*
X218022714Y-137749642D01*
X218077142Y-137640785D01*
X218077142Y-137205357D01*
X218022714Y-137096500D01*
X217913857Y-137042071D01*
X217696142Y-137042071D01*
X217587285Y-137096500D01*
X217532857Y-137205357D01*
X217532857Y-137314214D01*
X218077142Y-137423071D01*
X217042999Y-137804071D02*
X217042999Y-136661071D01*
X216553142Y-137804071D02*
X216553142Y-137205357D01*
X216607571Y-137096500D01*
X216716428Y-137042071D01*
X216879714Y-137042071D01*
X216988571Y-137096500D01*
X217042999Y-137150928D01*
X215518999Y-137042071D02*
X215518999Y-137804071D01*
X216008857Y-137042071D02*
X216008857Y-137640785D01*
X215954428Y-137749642D01*
X215845571Y-137804071D01*
X215682285Y-137804071D01*
X215573428Y-137749642D01*
X215518999Y-137695214D01*
X214974714Y-137042071D02*
X214974714Y-137804071D01*
X214974714Y-137150928D02*
X214920285Y-137096500D01*
X214811428Y-137042071D01*
X214648142Y-137042071D01*
X214539285Y-137096500D01*
X214484857Y-137205357D01*
X214484857Y-137804071D01*
X213505142Y-137749642D02*
X213613999Y-137804071D01*
X213831714Y-137804071D01*
X213940571Y-137749642D01*
X213994999Y-137640785D01*
X213994999Y-137205357D01*
X213940571Y-137096500D01*
X213831714Y-137042071D01*
X213613999Y-137042071D01*
X213505142Y-137096500D01*
X213450714Y-137205357D01*
X213450714Y-137314214D01*
X213994999Y-137423071D01*
X213015285Y-136769928D02*
X212960857Y-136715500D01*
X212851999Y-136661071D01*
X212579857Y-136661071D01*
X212470999Y-136715500D01*
X212416571Y-136769928D01*
X212362142Y-136878785D01*
X212362142Y-136987642D01*
X212416571Y-137150928D01*
X213069714Y-137804071D01*
X212362142Y-137804071D01*
X211981142Y-136661071D02*
X211273571Y-136661071D01*
X211654571Y-137096500D01*
X211491285Y-137096500D01*
X211382428Y-137150928D01*
X211327999Y-137205357D01*
X211273571Y-137314214D01*
X211273571Y-137586357D01*
X211327999Y-137695214D01*
X211382428Y-137749642D01*
X211491285Y-137804071D01*
X211817857Y-137804071D01*
X211926714Y-137749642D01*
X211981142Y-137695214D01*
X209967285Y-136606642D02*
X210946999Y-138076214D01*
X209096428Y-137804071D02*
X209096428Y-137205357D01*
X209150857Y-137096500D01*
X209259714Y-137042071D01*
X209477428Y-137042071D01*
X209586285Y-137096500D01*
X209096428Y-137749642D02*
X209205285Y-137804071D01*
X209477428Y-137804071D01*
X209586285Y-137749642D01*
X209640714Y-137640785D01*
X209640714Y-137531928D01*
X209586285Y-137423071D01*
X209477428Y-137368642D01*
X209205285Y-137368642D01*
X209096428Y-137314214D01*
X208552142Y-137804071D02*
X208552142Y-137042071D01*
X208552142Y-137259785D02*
X208497714Y-137150928D01*
X208443285Y-137096500D01*
X208334428Y-137042071D01*
X208225571Y-137042071D01*
X207354714Y-137804071D02*
X207354714Y-136661071D01*
X207354714Y-137749642D02*
X207463571Y-137804071D01*
X207681285Y-137804071D01*
X207790142Y-137749642D01*
X207844571Y-137695214D01*
X207898999Y-137586357D01*
X207898999Y-137259785D01*
X207844571Y-137150928D01*
X207790142Y-137096500D01*
X207681285Y-137042071D01*
X207463571Y-137042071D01*
X207354714Y-137096500D01*
X206320571Y-137042071D02*
X206320571Y-137804071D01*
X206810428Y-137042071D02*
X206810428Y-137640785D01*
X206755999Y-137749642D01*
X206647142Y-137804071D01*
X206483857Y-137804071D01*
X206374999Y-137749642D01*
X206320571Y-137695214D01*
X205776285Y-137804071D02*
X205776285Y-136661071D01*
X205776285Y-137096500D02*
X205667428Y-137042071D01*
X205449714Y-137042071D01*
X205340857Y-137096500D01*
X205286428Y-137150928D01*
X205231999Y-137259785D01*
X205231999Y-137586357D01*
X205286428Y-137695214D01*
X205340857Y-137749642D01*
X205449714Y-137804071D01*
X205667428Y-137804071D01*
X205776285Y-137749642D01*
X204578857Y-137804071D02*
X204687714Y-137749642D01*
X204742142Y-137695214D01*
X204796571Y-137586357D01*
X204796571Y-137259785D01*
X204742142Y-137150928D01*
X204687714Y-137096500D01*
X204578857Y-137042071D01*
X204415571Y-137042071D01*
X204306714Y-137096500D01*
X204252285Y-137150928D01*
X204197857Y-137259785D01*
X204197857Y-137586357D01*
X204252285Y-137695214D01*
X204306714Y-137749642D01*
X204415571Y-137804071D01*
X204578857Y-137804071D01*
X203816857Y-137042071D02*
X203544714Y-137804071D01*
X203272571Y-137042071D02*
X203544714Y-137804071D01*
X203653571Y-138076214D01*
X203707999Y-138130642D01*
X203816857Y-138185071D01*
X202837142Y-137368642D02*
X201966285Y-137368642D01*
X200932142Y-137749642D02*
X201040999Y-137804071D01*
X201258714Y-137804071D01*
X201367571Y-137749642D01*
X201421999Y-137695214D01*
X201476428Y-137586357D01*
X201476428Y-137259785D01*
X201421999Y-137150928D01*
X201367571Y-137096500D01*
X201258714Y-137042071D01*
X201040999Y-137042071D01*
X200932142Y-137096500D01*
X200006857Y-137749642D02*
X200115714Y-137804071D01*
X200333428Y-137804071D01*
X200442285Y-137749642D01*
X200496714Y-137640785D01*
X200496714Y-137205357D01*
X200442285Y-137096500D01*
X200333428Y-137042071D01*
X200115714Y-137042071D01*
X200006857Y-137096500D01*
X199952428Y-137205357D01*
X199952428Y-137314214D01*
X200496714Y-137423071D01*
D13*
X184551928Y-118471904D02*
X184818595Y-118090952D01*
X185009071Y-118471904D02*
X185009071Y-117671904D01*
X184704309Y-117671904D01*
X184628119Y-117710000D01*
X184590023Y-117748095D01*
X184551928Y-117824285D01*
X184551928Y-117938571D01*
X184590023Y-118014761D01*
X184628119Y-118052857D01*
X184704309Y-118090952D01*
X185009071Y-118090952D01*
X184209071Y-118052857D02*
X183942404Y-118052857D01*
X183828119Y-118471904D02*
X184209071Y-118471904D01*
X184209071Y-117671904D01*
X183828119Y-117671904D01*
X183523357Y-118433809D02*
X183409071Y-118471904D01*
X183218595Y-118471904D01*
X183142404Y-118433809D01*
X183104309Y-118395714D01*
X183066214Y-118319523D01*
X183066214Y-118243333D01*
X183104309Y-118167142D01*
X183142404Y-118129047D01*
X183218595Y-118090952D01*
X183370976Y-118052857D01*
X183447166Y-118014761D01*
X183485261Y-117976666D01*
X183523357Y-117900476D01*
X183523357Y-117824285D01*
X183485261Y-117748095D01*
X183447166Y-117710000D01*
X183370976Y-117671904D01*
X183180500Y-117671904D01*
X183066214Y-117710000D01*
X182723357Y-118052857D02*
X182456690Y-118052857D01*
X182342404Y-118471904D02*
X182723357Y-118471904D01*
X182723357Y-117671904D01*
X182342404Y-117671904D01*
X182113833Y-117671904D02*
X181656690Y-117671904D01*
X181885261Y-118471904D02*
X181885261Y-117671904D01*
D14*
G36*
X181038500Y-118872000D02*
G01*
X180276500Y-118110000D01*
X181038500Y-117348000D01*
X181038500Y-118872000D01*
G37*
X181038500Y-118872000D02*
X180276500Y-118110000D01*
X181038500Y-117348000D01*
X181038500Y-118872000D01*
D15*
X117786000Y-134239000D02*
X109156000Y-134239000D01*
X109156000Y-133329000D02*
X108806000Y-133329000D01*
X109156000Y-132609000D02*
X108806000Y-132609000D01*
X117786000Y-131699000D02*
X109156000Y-131699000D01*
X109156000Y-134239000D02*
X109150000Y-131699000D01*
X117786000Y-134239000D02*
X117786000Y-131699000D01*
D14*
G36*
X175260000Y-90106500D02*
G01*
X175577500Y-89852500D01*
X175260000Y-89598500D01*
X175260000Y-90106500D01*
G37*
X175260000Y-90106500D02*
X175577500Y-89852500D01*
X175260000Y-89598500D01*
X175260000Y-90106500D01*
D13*
X173101000Y-81026000D02*
X177546000Y-81026000D01*
X171831000Y-89916000D02*
X171831000Y-82296000D01*
X173101000Y-81026000D02*
X171831000Y-82296000D01*
X173101000Y-108966000D02*
X171831000Y-107696000D01*
X173101000Y-103886000D02*
X171831000Y-105156000D01*
X173101000Y-103886000D02*
X177546000Y-103886000D01*
D14*
X171831000Y-86106000D02*
X177673000Y-86106000D01*
X171831000Y-88646000D02*
X177673000Y-88646000D01*
X171831000Y-93726000D02*
X177673000Y-93726000D01*
X171831000Y-98806000D02*
X177673000Y-98806000D01*
X171831000Y-101346000D02*
X177673000Y-101346000D01*
X171831000Y-106426000D02*
X177927000Y-106426000D01*
D13*
X173101000Y-91186000D02*
X171831000Y-89916000D01*
X173101000Y-91186000D02*
X171831000Y-92456000D01*
X171831000Y-94996000D02*
X171831000Y-92456000D01*
X173101000Y-91186000D02*
X177546000Y-91186000D01*
X173101000Y-96266000D02*
X171831000Y-94996000D01*
X173101000Y-96266000D02*
X177546000Y-96266000D01*
X173101000Y-96266000D02*
X171831000Y-97536000D01*
X173101000Y-103886000D02*
X171831000Y-102616000D01*
X171831000Y-102616000D02*
X171831000Y-97536000D01*
X171831000Y-107696000D02*
X171831000Y-105156000D01*
X173101000Y-108966000D02*
X177546000Y-108966000D01*
D14*
X171831000Y-83566000D02*
X177673000Y-83566000D01*
D15*
X160780000Y-95920000D02*
X118620000Y-95920000D01*
X118620000Y-109920000D02*
X118620000Y-95920000D01*
X123190000Y-115000000D02*
X123190000Y-109920000D01*
X125730000Y-115000000D02*
X125730000Y-109920000D01*
X128270000Y-115000000D02*
X128270000Y-109920000D01*
X130810000Y-115000000D02*
X130810000Y-109920000D01*
X133350000Y-115000000D02*
X133350000Y-109920000D01*
X135890000Y-115000000D02*
X135890000Y-109920000D01*
X138430000Y-115000000D02*
X138430000Y-109920000D01*
X140970000Y-115000000D02*
X140970000Y-109920000D01*
X143510000Y-115000000D02*
X143510000Y-109920000D01*
X146050000Y-115000000D02*
X146050000Y-109920000D01*
X148590000Y-115000000D02*
X148590000Y-109920000D01*
X151130000Y-115000000D02*
X151130000Y-109920000D01*
X153670000Y-115000000D02*
X153670000Y-109920000D01*
X156210000Y-115000000D02*
X156210000Y-109920000D01*
X160780000Y-109920000D02*
X118620000Y-109920000D01*
X160780000Y-109920000D02*
X160780000Y-95920000D01*
X113130000Y-121380000D02*
X112800000Y-121380000D01*
X113130000Y-114840000D02*
X113130000Y-121380000D01*
X112800000Y-114840000D02*
X113130000Y-114840000D01*
X110390000Y-121380000D02*
X110720000Y-121380000D01*
X110390000Y-114840000D02*
X110390000Y-121380000D01*
X110720000Y-114840000D02*
X110390000Y-114840000D01*
X106634000Y-116374000D02*
X106634000Y-119774000D01*
X106634000Y-114734000D02*
X106634000Y-115274000D01*
X109464000Y-121934000D02*
X109974000Y-121934000D01*
X109974000Y-121414000D02*
X109974000Y-121934000D01*
X109464000Y-121414000D02*
X109974000Y-121414000D01*
X106634000Y-120874000D02*
X106634000Y-121414000D01*
X109464000Y-114214000D02*
X109974000Y-114214000D01*
X109464000Y-114734000D02*
X109974000Y-114734000D01*
X106634000Y-121414000D02*
X106864000Y-121414000D01*
X102964000Y-114214000D02*
X106864000Y-114214000D01*
X109974000Y-114214000D02*
X109974000Y-114734000D01*
X102964000Y-121934000D02*
X106864000Y-121934000D01*
X102964000Y-114214000D02*
X102964000Y-121934000D01*
X106634000Y-114734000D02*
X106864000Y-114734000D01*
D13*
X107569000Y-134366000D02*
X103124000Y-134366000D01*
X107569000Y-141986000D02*
X107569000Y-134366000D01*
X103124000Y-141986000D02*
X107569000Y-141986000D01*
X120904000Y-147701000D02*
X105664000Y-147701000D01*
X120904000Y-128651000D02*
X105664000Y-128651000D01*
X103124000Y-145161000D02*
X103124000Y-131191000D01*
X123444000Y-145161000D02*
X123444000Y-131191000D01*
X120904000Y-147701000D02*
G75*
G03*
X123444000Y-145161000I0J2540000D01*
G01*
X103124000Y-145161000D02*
G75*
G03*
X105664000Y-147701000I2540000J0D01*
G01*
X105664000Y-128651000D02*
G75*
G03*
X103124000Y-131191000I0J-2540000D01*
G01*
X123444000Y-131191000D02*
G75*
G03*
X120904000Y-128651000I-2540000J0D01*
G01*
X116752285Y-133373761D02*
X116609428Y-133421380D01*
X116371333Y-133421380D01*
X116276095Y-133373761D01*
X116228476Y-133326142D01*
X116180857Y-133230904D01*
X116180857Y-133135666D01*
X116228476Y-133040428D01*
X116276095Y-132992809D01*
X116371333Y-132945190D01*
X116561809Y-132897571D01*
X116657047Y-132849952D01*
X116704666Y-132802333D01*
X116752285Y-132707095D01*
X116752285Y-132611857D01*
X116704666Y-132516619D01*
X116657047Y-132469000D01*
X116561809Y-132421380D01*
X116323714Y-132421380D01*
X116180857Y-132469000D01*
X115752285Y-132421380D02*
X115752285Y-133230904D01*
X115704666Y-133326142D01*
X115657047Y-133373761D01*
X115561809Y-133421380D01*
X115371333Y-133421380D01*
X115276095Y-133373761D01*
X115228476Y-133326142D01*
X115180857Y-133230904D01*
X115180857Y-132421380D01*
X114704666Y-133421380D02*
X114704666Y-132421380D01*
X114323714Y-132421380D01*
X114228476Y-132469000D01*
X114180857Y-132516619D01*
X114133238Y-132611857D01*
X114133238Y-132754714D01*
X114180857Y-132849952D01*
X114228476Y-132897571D01*
X114323714Y-132945190D01*
X114704666Y-132945190D01*
X113704666Y-133421380D02*
X113704666Y-132421380D01*
X113323714Y-132421380D01*
X113228476Y-132469000D01*
X113180857Y-132516619D01*
X113133238Y-132611857D01*
X113133238Y-132754714D01*
X113180857Y-132849952D01*
X113228476Y-132897571D01*
X113323714Y-132945190D01*
X113704666Y-132945190D01*
X112514190Y-132421380D02*
X112323714Y-132421380D01*
X112228476Y-132469000D01*
X112133238Y-132564238D01*
X112085619Y-132754714D01*
X112085619Y-133088047D01*
X112133238Y-133278523D01*
X112228476Y-133373761D01*
X112323714Y-133421380D01*
X112514190Y-133421380D01*
X112609428Y-133373761D01*
X112704666Y-133278523D01*
X112752285Y-133088047D01*
X112752285Y-132754714D01*
X112704666Y-132564238D01*
X112609428Y-132469000D01*
X112514190Y-132421380D01*
X111085619Y-133421380D02*
X111418952Y-132945190D01*
X111657047Y-133421380D02*
X111657047Y-132421380D01*
X111276095Y-132421380D01*
X111180857Y-132469000D01*
X111133238Y-132516619D01*
X111085619Y-132611857D01*
X111085619Y-132754714D01*
X111133238Y-132849952D01*
X111180857Y-132897571D01*
X111276095Y-132945190D01*
X111657047Y-132945190D01*
X110799904Y-132421380D02*
X110228476Y-132421380D01*
X110514190Y-133421380D02*
X110514190Y-132421380D01*
D16*
X175044402Y-85123261D02*
X175256069Y-84820880D01*
X175407259Y-85123261D02*
X175407259Y-84488261D01*
X175165354Y-84488261D01*
X175104878Y-84518500D01*
X175074640Y-84548738D01*
X175044402Y-84609214D01*
X175044402Y-84699928D01*
X175074640Y-84760404D01*
X175104878Y-84790642D01*
X175165354Y-84820880D01*
X175407259Y-84820880D01*
X174802497Y-84941833D02*
X174500116Y-84941833D01*
X174862973Y-85123261D02*
X174651307Y-84488261D01*
X174439640Y-85123261D01*
X174288450Y-84488261D02*
X174137259Y-85123261D01*
X174016307Y-84669690D01*
X173895354Y-85123261D01*
X173744164Y-84488261D01*
X175437497Y-107801833D02*
X175135116Y-107801833D01*
X175497973Y-107983261D02*
X175286307Y-107348261D01*
X175074640Y-107983261D01*
X174530354Y-107983261D02*
X174893211Y-107983261D01*
X174711783Y-107983261D02*
X174711783Y-107348261D01*
X174772259Y-107438976D01*
X174832735Y-107499452D01*
X174893211Y-107529690D01*
X174137259Y-107348261D02*
X174076783Y-107348261D01*
X174016307Y-107378500D01*
X173986069Y-107408738D01*
X173955830Y-107469214D01*
X173925592Y-107590166D01*
X173925592Y-107741357D01*
X173955830Y-107862309D01*
X173986069Y-107922785D01*
X174016307Y-107953023D01*
X174076783Y-107983261D01*
X174137259Y-107983261D01*
X174197735Y-107953023D01*
X174227973Y-107922785D01*
X174258211Y-107862309D01*
X174288450Y-107741357D01*
X174288450Y-107590166D01*
X174258211Y-107469214D01*
X174227973Y-107408738D01*
X174197735Y-107378500D01*
X174137259Y-107348261D01*
X175407259Y-105443261D02*
X175407259Y-104808261D01*
X175256069Y-104808261D01*
X175165354Y-104838500D01*
X175104878Y-104898976D01*
X175074640Y-104959452D01*
X175044402Y-105080404D01*
X175044402Y-105171119D01*
X175074640Y-105292071D01*
X175104878Y-105352547D01*
X175165354Y-105413023D01*
X175256069Y-105443261D01*
X175407259Y-105443261D01*
X174742021Y-105443261D02*
X174621069Y-105443261D01*
X174560592Y-105413023D01*
X174530354Y-105382785D01*
X174469878Y-105292071D01*
X174439640Y-105171119D01*
X174439640Y-104929214D01*
X174469878Y-104868738D01*
X174500116Y-104838500D01*
X174560592Y-104808261D01*
X174681545Y-104808261D01*
X174742021Y-104838500D01*
X174772259Y-104868738D01*
X174802497Y-104929214D01*
X174802497Y-105080404D01*
X174772259Y-105140880D01*
X174742021Y-105171119D01*
X174681545Y-105201357D01*
X174560592Y-105201357D01*
X174500116Y-105171119D01*
X174469878Y-105140880D01*
X174439640Y-105080404D01*
X175437497Y-95253023D02*
X175346783Y-95283261D01*
X175195592Y-95283261D01*
X175135116Y-95253023D01*
X175104878Y-95222785D01*
X175074640Y-95162309D01*
X175074640Y-95101833D01*
X175104878Y-95041357D01*
X175135116Y-95011119D01*
X175195592Y-94980880D01*
X175316545Y-94950642D01*
X175377021Y-94920404D01*
X175407259Y-94890166D01*
X175437497Y-94829690D01*
X175437497Y-94769214D01*
X175407259Y-94708738D01*
X175377021Y-94678500D01*
X175316545Y-94648261D01*
X175165354Y-94648261D01*
X175074640Y-94678500D01*
X174439640Y-95222785D02*
X174469878Y-95253023D01*
X174560592Y-95283261D01*
X174621069Y-95283261D01*
X174711783Y-95253023D01*
X174772259Y-95192547D01*
X174802497Y-95132071D01*
X174832735Y-95011119D01*
X174832735Y-94920404D01*
X174802497Y-94799452D01*
X174772259Y-94738976D01*
X174711783Y-94678500D01*
X174621069Y-94648261D01*
X174560592Y-94648261D01*
X174469878Y-94678500D01*
X174439640Y-94708738D01*
X173865116Y-95283261D02*
X174167497Y-95283261D01*
X174167497Y-94648261D01*
X175407259Y-97823261D02*
X175407259Y-97188261D01*
X175195592Y-97641833D01*
X174983926Y-97188261D01*
X174983926Y-97823261D01*
X174681545Y-97823261D02*
X174681545Y-97188261D01*
X174409402Y-97793023D02*
X174318688Y-97823261D01*
X174167497Y-97823261D01*
X174107021Y-97793023D01*
X174076783Y-97762785D01*
X174046545Y-97702309D01*
X174046545Y-97641833D01*
X174076783Y-97581357D01*
X174107021Y-97551119D01*
X174167497Y-97520880D01*
X174288450Y-97490642D01*
X174348926Y-97460404D01*
X174379164Y-97430166D01*
X174409402Y-97369690D01*
X174409402Y-97309214D01*
X174379164Y-97248738D01*
X174348926Y-97218500D01*
X174288450Y-97188261D01*
X174137259Y-97188261D01*
X174046545Y-97218500D01*
X173653450Y-97188261D02*
X173532497Y-97188261D01*
X173472021Y-97218500D01*
X173411545Y-97278976D01*
X173381307Y-97399928D01*
X173381307Y-97611595D01*
X173411545Y-97732547D01*
X173472021Y-97793023D01*
X173532497Y-97823261D01*
X173653450Y-97823261D01*
X173713926Y-97793023D01*
X173774402Y-97732547D01*
X173804640Y-97611595D01*
X173804640Y-97399928D01*
X173774402Y-97278976D01*
X173713926Y-97218500D01*
X173653450Y-97188261D01*
X175437497Y-102873023D02*
X175346783Y-102903261D01*
X175195592Y-102903261D01*
X175135116Y-102873023D01*
X175104878Y-102842785D01*
X175074640Y-102782309D01*
X175074640Y-102721833D01*
X175104878Y-102661357D01*
X175135116Y-102631119D01*
X175195592Y-102600880D01*
X175316545Y-102570642D01*
X175377021Y-102540404D01*
X175407259Y-102510166D01*
X175437497Y-102449690D01*
X175437497Y-102389214D01*
X175407259Y-102328738D01*
X175377021Y-102298500D01*
X175316545Y-102268261D01*
X175165354Y-102268261D01*
X175074640Y-102298500D01*
X174439640Y-102842785D02*
X174469878Y-102873023D01*
X174560592Y-102903261D01*
X174621069Y-102903261D01*
X174711783Y-102873023D01*
X174772259Y-102812547D01*
X174802497Y-102752071D01*
X174832735Y-102631119D01*
X174832735Y-102540404D01*
X174802497Y-102419452D01*
X174772259Y-102358976D01*
X174711783Y-102298500D01*
X174621069Y-102268261D01*
X174560592Y-102268261D01*
X174469878Y-102298500D01*
X174439640Y-102328738D01*
X174167497Y-102903261D02*
X174167497Y-102268261D01*
X173804640Y-102903261D02*
X174076783Y-102540404D01*
X173804640Y-102268261D02*
X174167497Y-102631119D01*
X175497973Y-87028261D02*
X175286307Y-87663261D01*
X175074640Y-87028261D01*
X174500116Y-87602785D02*
X174530354Y-87633023D01*
X174621069Y-87663261D01*
X174681545Y-87663261D01*
X174772259Y-87633023D01*
X174832735Y-87572547D01*
X174862973Y-87512071D01*
X174893211Y-87391119D01*
X174893211Y-87300404D01*
X174862973Y-87179452D01*
X174832735Y-87118976D01*
X174772259Y-87058500D01*
X174681545Y-87028261D01*
X174621069Y-87028261D01*
X174530354Y-87058500D01*
X174500116Y-87088738D01*
X173865116Y-87602785D02*
X173895354Y-87633023D01*
X173986069Y-87663261D01*
X174046545Y-87663261D01*
X174137259Y-87633023D01*
X174197735Y-87572547D01*
X174227973Y-87512071D01*
X174258211Y-87391119D01*
X174258211Y-87300404D01*
X174227973Y-87179452D01*
X174197735Y-87118976D01*
X174137259Y-87058500D01*
X174046545Y-87028261D01*
X173986069Y-87028261D01*
X173895354Y-87058500D01*
X173865116Y-87088738D01*
X175407259Y-100363261D02*
X175407259Y-99728261D01*
X175195592Y-100181833D01*
X174983926Y-99728261D01*
X174983926Y-100363261D01*
X174560592Y-99728261D02*
X174439640Y-99728261D01*
X174379164Y-99758500D01*
X174318688Y-99818976D01*
X174288450Y-99939928D01*
X174288450Y-100151595D01*
X174318688Y-100272547D01*
X174379164Y-100333023D01*
X174439640Y-100363261D01*
X174560592Y-100363261D01*
X174621069Y-100333023D01*
X174681545Y-100272547D01*
X174711783Y-100151595D01*
X174711783Y-99939928D01*
X174681545Y-99818976D01*
X174621069Y-99758500D01*
X174560592Y-99728261D01*
X174046545Y-100333023D02*
X173955830Y-100363261D01*
X173804640Y-100363261D01*
X173744164Y-100333023D01*
X173713926Y-100302785D01*
X173683688Y-100242309D01*
X173683688Y-100181833D01*
X173713926Y-100121357D01*
X173744164Y-100091119D01*
X173804640Y-100060880D01*
X173925592Y-100030642D01*
X173986069Y-100000404D01*
X174016307Y-99970166D01*
X174046545Y-99909690D01*
X174046545Y-99849214D01*
X174016307Y-99788738D01*
X173986069Y-99758500D01*
X173925592Y-99728261D01*
X173774402Y-99728261D01*
X173683688Y-99758500D01*
X173411545Y-100363261D02*
X173411545Y-99728261D01*
X175437497Y-92713023D02*
X175346783Y-92743261D01*
X175195592Y-92743261D01*
X175135116Y-92713023D01*
X175104878Y-92682785D01*
X175074640Y-92622309D01*
X175074640Y-92561833D01*
X175104878Y-92501357D01*
X175135116Y-92471119D01*
X175195592Y-92440880D01*
X175316545Y-92410642D01*
X175377021Y-92380404D01*
X175407259Y-92350166D01*
X175437497Y-92289690D01*
X175437497Y-92229214D01*
X175407259Y-92168738D01*
X175377021Y-92138500D01*
X175316545Y-92108261D01*
X175165354Y-92108261D01*
X175074640Y-92138500D01*
X174802497Y-92743261D02*
X174802497Y-92108261D01*
X174651307Y-92108261D01*
X174560592Y-92138500D01*
X174500116Y-92198976D01*
X174469878Y-92259452D01*
X174439640Y-92380404D01*
X174439640Y-92471119D01*
X174469878Y-92592071D01*
X174500116Y-92652547D01*
X174560592Y-92713023D01*
X174651307Y-92743261D01*
X174802497Y-92743261D01*
X174197735Y-92561833D02*
X173895354Y-92561833D01*
X174258211Y-92743261D02*
X174046545Y-92108261D01*
X173834878Y-92743261D01*
X174832735Y-89568261D02*
X174439640Y-89568261D01*
X174651307Y-89810166D01*
X174560592Y-89810166D01*
X174500116Y-89840404D01*
X174469878Y-89870642D01*
X174439640Y-89931119D01*
X174439640Y-90082309D01*
X174469878Y-90142785D01*
X174500116Y-90173023D01*
X174560592Y-90203261D01*
X174742021Y-90203261D01*
X174802497Y-90173023D01*
X174832735Y-90142785D01*
X174258211Y-89568261D02*
X174046545Y-90203261D01*
X173834878Y-89568261D01*
X173683688Y-89568261D02*
X173290592Y-89568261D01*
X173502259Y-89810166D01*
X173411545Y-89810166D01*
X173351069Y-89840404D01*
X173320830Y-89870642D01*
X173290592Y-89931119D01*
X173290592Y-90082309D01*
X173320830Y-90142785D01*
X173351069Y-90173023D01*
X173411545Y-90203261D01*
X173592973Y-90203261D01*
X173653450Y-90173023D01*
X173683688Y-90142785D01*
X175074640Y-81978500D02*
X175135116Y-81948261D01*
X175225830Y-81948261D01*
X175316545Y-81978500D01*
X175377021Y-82038976D01*
X175407259Y-82099452D01*
X175437497Y-82220404D01*
X175437497Y-82311119D01*
X175407259Y-82432071D01*
X175377021Y-82492547D01*
X175316545Y-82553023D01*
X175225830Y-82583261D01*
X175165354Y-82583261D01*
X175074640Y-82553023D01*
X175044402Y-82522785D01*
X175044402Y-82311119D01*
X175165354Y-82311119D01*
X174772259Y-82583261D02*
X174772259Y-81948261D01*
X174409402Y-82583261D01*
X174409402Y-81948261D01*
X174107021Y-82583261D02*
X174107021Y-81948261D01*
X173955830Y-81948261D01*
X173865116Y-81978500D01*
X173804640Y-82038976D01*
X173774402Y-82099452D01*
X173744164Y-82220404D01*
X173744164Y-82311119D01*
X173774402Y-82432071D01*
X173804640Y-82492547D01*
X173865116Y-82553023D01*
X173955830Y-82583261D01*
X174107021Y-82583261D01*
D13*
X112212380Y-117419523D02*
X112212380Y-116848095D01*
X112212380Y-117133809D02*
X111212380Y-117133809D01*
X111355238Y-117038571D01*
X111450476Y-116943333D01*
X111498095Y-116848095D01*
X111212380Y-118038571D02*
X111212380Y-118133809D01*
X111260000Y-118229047D01*
X111307619Y-118276666D01*
X111402857Y-118324285D01*
X111593333Y-118371904D01*
X111831428Y-118371904D01*
X112021904Y-118324285D01*
X112117142Y-118276666D01*
X112164761Y-118229047D01*
X112212380Y-118133809D01*
X112212380Y-118038571D01*
X112164761Y-117943333D01*
X112117142Y-117895714D01*
X112021904Y-117848095D01*
X111831428Y-117800476D01*
X111593333Y-117800476D01*
X111402857Y-117848095D01*
X111307619Y-117895714D01*
X111260000Y-117943333D01*
X111212380Y-118038571D01*
X112212380Y-118800476D02*
X111212380Y-118800476D01*
X112212380Y-119371904D02*
X111640952Y-118943333D01*
X111212380Y-119371904D02*
X111783809Y-118800476D01*
%LPC*%
D14*
G36*
X182753000Y-138684000D02*
G01*
X181356000Y-138430000D01*
X180594000Y-135763000D01*
X182753000Y-138684000D01*
G37*
X182753000Y-138684000D02*
X181356000Y-138430000D01*
X180594000Y-135763000D01*
X182753000Y-138684000D01*
G36*
X181737000Y-138176000D02*
G01*
X182499000Y-140843000D01*
X180340000Y-137922000D01*
X181737000Y-138176000D01*
G37*
X181737000Y-138176000D02*
X182499000Y-140843000D01*
X180340000Y-137922000D01*
X181737000Y-138176000D01*
D17*
X107696000Y-132969000D03*
G36*
G01*
X142851749Y-149328620D02*
X142851749Y-149328620D01*
G75*
G02*
X142362357Y-150880772I-1020772J-531380D01*
G01*
X142362357Y-150880772D01*
G75*
G02*
X140810205Y-150391380I-531380J1020772D01*
G01*
X140810205Y-150391380D01*
G75*
G02*
X141299597Y-148839228I1020772J531380D01*
G01*
X141299597Y-148839228D01*
G75*
G02*
X142851749Y-149328620I531380J-1020772D01*
G01*
G37*
G36*
G01*
X149102848Y-144834384D02*
X150118695Y-146785807D01*
G75*
G02*
X150097092Y-146854324I-45060J-23457D01*
G01*
X148145669Y-147870171D01*
G75*
G02*
X148077152Y-147848568I-23457J45060D01*
G01*
X147061305Y-145897145D01*
G75*
G02*
X147082908Y-145828628I45060J23457D01*
G01*
X149034331Y-144812781D01*
G75*
G02*
X149102848Y-144834384I23457J-45060D01*
G01*
G37*
G36*
G01*
X131830772Y-149328620D02*
X131830772Y-149328620D01*
G75*
G02*
X131341380Y-150880772I-1020772J-531380D01*
G01*
X131341380Y-150880772D01*
G75*
G02*
X129789228Y-150391380I-531380J1020772D01*
G01*
X129789228Y-150391380D01*
G75*
G02*
X130278620Y-148839228I1020772J531380D01*
G01*
X130278620Y-148839228D01*
G75*
G02*
X131830772Y-149328620I531380J-1020772D01*
G01*
G37*
G36*
G01*
X138081871Y-144834384D02*
X139097718Y-146785807D01*
G75*
G02*
X139076115Y-146854324I-45060J-23457D01*
G01*
X137124692Y-147870171D01*
G75*
G02*
X137056175Y-147848568I-23457J45060D01*
G01*
X136040328Y-145897145D01*
G75*
G02*
X136061931Y-145828628I45060J23457D01*
G01*
X138013354Y-144812781D01*
G75*
G02*
X138081871Y-144834384I23457J-45060D01*
G01*
G37*
X166116000Y-84836000D03*
X166116000Y-100076000D03*
X166116000Y-107696000D03*
X166116000Y-102616000D03*
X166116000Y-105156000D03*
X166116000Y-82296000D03*
D18*
X166116000Y-97536000D03*
D17*
X166116000Y-87376000D03*
X166116000Y-89916000D03*
X166116000Y-92456000D03*
D18*
X166116000Y-94996000D03*
D19*
X156210000Y-109920000D03*
X153670000Y-109920000D03*
X151130000Y-109920000D03*
X148590000Y-109920000D03*
X146050000Y-109920000D03*
X143510000Y-109920000D03*
X140970000Y-109920000D03*
X138430000Y-109920000D03*
X135890000Y-109920000D03*
X133350000Y-109920000D03*
X130810000Y-109920000D03*
X128270000Y-109920000D03*
X125730000Y-109920000D03*
X123190000Y-109920000D03*
X123190000Y-115000000D03*
X125730000Y-115000000D03*
X128270000Y-115000000D03*
X130810000Y-115000000D03*
X133350000Y-115000000D03*
X135890000Y-115000000D03*
X156210000Y-115000000D03*
X153670000Y-115000000D03*
X151130000Y-115000000D03*
X148590000Y-115000000D03*
X146050000Y-115000000D03*
X143510000Y-115000000D03*
X138430000Y-115000000D03*
X140970000Y-115000000D03*
D18*
X106200000Y-102616000D03*
X106200000Y-100076000D03*
X106200000Y-97536000D03*
X106200000Y-94996000D03*
X106200000Y-92456000D03*
X106200000Y-89916000D03*
X106200000Y-87376000D03*
D20*
X153852000Y-138303000D03*
X149352000Y-138303000D03*
X153852000Y-131803000D03*
X149352000Y-131803000D03*
X163631000Y-133350000D03*
X159131000Y-133350000D03*
X163631000Y-126850000D03*
X159131000Y-126850000D03*
X125186000Y-129234000D03*
X120686000Y-129234000D03*
X125186000Y-122734000D03*
X120686000Y-122734000D03*
X120686000Y-136958000D03*
X125186000Y-136958000D03*
X120686000Y-143458000D03*
X125186000Y-143458000D03*
X118074000Y-136346000D03*
X113574000Y-136346000D03*
X118074000Y-129846000D03*
X113574000Y-129846000D03*
X127798000Y-129846000D03*
X132298000Y-129846000D03*
X127798000Y-136346000D03*
X132298000Y-136346000D03*
D21*
X249999500Y-70104000D03*
X232854500Y-151130000D03*
X182181500Y-70104000D03*
X182181500Y-151130000D03*
D22*
X170434000Y-121920000D03*
X170434000Y-124460000D03*
X170434000Y-119380000D03*
D21*
X97218500Y-70104000D03*
X80073500Y-151130000D03*
X29400500Y-70104000D03*
X29400500Y-151130000D03*
D23*
X178911000Y-131318000D03*
X178911000Y-130429000D03*
X178911000Y-132207000D03*
X176879000Y-130429000D03*
X176879000Y-131318000D03*
X176879000Y-132207000D03*
X176879000Y-97028000D03*
X176879000Y-96139000D03*
X176879000Y-95250000D03*
X178911000Y-97028000D03*
X178911000Y-95250000D03*
X178911000Y-96139000D03*
X100489000Y-96139000D03*
X100489000Y-97028000D03*
X100489000Y-95250000D03*
X102521000Y-97028000D03*
X102521000Y-96139000D03*
X102521000Y-95250000D03*
X102521000Y-130429000D03*
X102521000Y-131318000D03*
X102521000Y-132207000D03*
X100489000Y-130429000D03*
X100489000Y-132207000D03*
X100489000Y-131318000D03*
D24*
X105791000Y-151130000D03*
X105791000Y-70104000D03*
X156464000Y-151130000D03*
D25*
X173609000Y-70104000D03*
D19*
X172426000Y-140208000D03*
X167426000Y-140208000D03*
D26*
X134493000Y-119888000D03*
X134493000Y-122388000D03*
X144907000Y-119928000D03*
X144907000Y-122428000D03*
X111760000Y-114300000D03*
D27*
X111760000Y-121920000D03*
D28*
X110794800Y-70104000D03*
X113284000Y-70104000D03*
X115773200Y-70104000D03*
D29*
X108154000Y-121584000D03*
D19*
X105664000Y-120324000D03*
X105664000Y-115824000D03*
D29*
X108154000Y-114574000D03*
D18*
X114554000Y-145161000D03*
X112014000Y-145161000D03*
X117094000Y-145161000D03*
X109474000Y-145161000D03*
D30*
X137160000Y-121412000D03*
X142240000Y-121412000D03*
X139700000Y-121412000D03*
M02*
