M48
; DRILL file {KiCad (5.1.9-0-10_14)} date Monday, April 12, 2021 at 09:43:30 PM
; FORMAT={-:-/ absolute / inch / decimal}
; #@! TF.CreationDate,2021-04-12T21:43:30-07:00
; #@! TF.GenerationSoftware,Kicad,Pcbnew,(5.1.9-0-10_14)
; #@! TF.FileFunction,Plated,1,2,PTH
FMAT,2
INCH
T1C0.0118
T2C0.0256
T3C0.0315
T4C0.0320
T5C0.0390
T6C0.0394
T7C0.0433
T8C0.0512
T9C0.1063
%
G90
G05
T1
X4.3Y-3.79
X4.4Y-3.9
X4.47Y-4.3
X4.53Y-4.2
X4.6Y-4.15
X4.63Y-4.22
X4.66Y-4.54
X4.68Y-4.39
X4.71Y-4.61
X4.75Y-3.05
X4.79Y-3.8
X4.79Y-4.09
X4.79Y-4.47
X4.82Y-4.27
X4.9Y-4.6
X5.08Y-4.61
X5.13Y-3.11
X5.61Y-3.98
X5.8125Y-3.6475
X5.87Y-3.79
X6.04Y-3.84
X6.05Y-4.74
X6.05Y-4.9
X6.1Y-3.11
X6.12Y-3.34
X6.16Y-4.065
X6.46Y-4.8
X6.5Y-4.35
T2
X6.71Y-4.7
X6.71Y-4.8
X6.71Y-4.9
T3
X4.4Y-4.5
X4.4Y-4.8
X5.295Y-4.72
X5.295Y-4.8184
X5.4Y-4.78
X5.5Y-4.78
X5.6Y-4.78
X5.705Y-4.7216
X5.705Y-4.82
T4
X4.362Y-2.76
X4.46Y-2.76
X4.558Y-2.76
T5
X4.16Y-4.56
X4.16Y-4.7372
T6
X4.1811Y-3.44
X4.1811Y-3.54
X4.1811Y-3.64
X4.1811Y-3.74
X4.1811Y-3.84
X4.1811Y-3.94
X4.1811Y-4.04
X4.24Y-5.235
X4.31Y-5.715
X4.41Y-5.715
X4.51Y-5.715
X4.61Y-5.715
X6.54Y-3.24
X6.54Y-3.34
X6.54Y-3.44
X6.54Y-3.54
X6.54Y-3.64
X6.54Y-3.74
X6.54Y-3.84
X6.54Y-3.94
X6.54Y-4.04
X6.54Y-4.14
X6.54Y-4.24
X6.5916Y-5.52
X6.7884Y-5.52
T7
X4.4714Y-5.112
X4.4714Y-5.368
X4.6486Y-5.112
X4.6486Y-5.368
X4.7514Y-4.832
X4.7514Y-5.088
X4.7514Y-5.392
X4.7514Y-5.648
X4.85Y-4.3276
X4.85Y-4.5276
X4.9286Y-4.832
X4.9286Y-5.088
X4.9286Y-5.392
X4.9286Y-5.648
X4.95Y-4.3276
X4.95Y-4.5276
X5.0314Y-5.112
X5.0314Y-5.368
X5.05Y-4.3276
X5.05Y-4.5276
X5.15Y-4.3276
X5.15Y-4.5276
X5.15Y-5.9
X5.2086Y-5.112
X5.2086Y-5.368
X5.25Y-4.3276
X5.25Y-4.5276
X5.35Y-4.3276
X5.35Y-4.5276
X5.4161Y-5.7615
X5.45Y-4.3276
X5.45Y-4.5276
X5.55Y-4.3276
X5.55Y-4.5276
X5.5839Y-5.9
X5.65Y-4.3276
X5.65Y-4.5276
X5.75Y-4.3276
X5.75Y-4.5276
X5.85Y-4.3276
X5.85Y-4.5276
X5.85Y-5.7615
X5.88Y-5.1891
X5.88Y-5.445
X5.95Y-4.3276
X5.95Y-4.5276
X6.05Y-4.3276
X6.05Y-4.5276
X6.0572Y-5.1891
X6.0572Y-5.445
X6.15Y-4.3276
X6.15Y-4.5276
X6.265Y-4.9941
X6.265Y-5.25
X6.4422Y-4.9941
X6.4422Y-5.25
T8
X4.258Y-4.5108
X4.258Y-4.7868
T9
X4.165Y-2.76
X4.165Y-5.95
X6.16Y-5.95
X6.835Y-2.76
T0
M30
