G04 #@! TF.GenerationSoftware,KiCad,Pcbnew,(5.1.9-0-10_14)*
G04 #@! TF.CreationDate,2021-02-11T22:39:59-08:00*
G04 #@! TF.ProjectId,system,73797374-656d-42e6-9b69-6361645f7063,rev?*
G04 #@! TF.SameCoordinates,Original*
G04 #@! TF.FileFunction,Other,Fab,Bot*
%FSLAX46Y46*%
G04 Gerber Fmt 4.6, Leading zero omitted, Abs format (unit mm)*
G04 Created by KiCad (PCBNEW (5.1.9-0-10_14)) date 2021-02-11 22:39:59*
%MOMM*%
%LPD*%
G01*
G04 APERTURE LIST*
%ADD10C,0.100000*%
%ADD11C,0.150000*%
G04 APERTURE END LIST*
D10*
X111760000Y-121920000D02*
X111760000Y-121260000D01*
X111760000Y-114300000D02*
X111760000Y-114960000D01*
X110510000Y-121260000D02*
X110510000Y-114960000D01*
X113010000Y-121260000D02*
X110510000Y-121260000D01*
X113010000Y-114960000D02*
X113010000Y-121260000D01*
X110510000Y-114960000D02*
X113010000Y-114960000D01*
X109864000Y-114624000D02*
X106524000Y-114624000D01*
X109864000Y-121524000D02*
X109864000Y-121824000D01*
X109864000Y-114324000D02*
X103074000Y-114324000D01*
X103074000Y-114324000D02*
X103074000Y-121824000D01*
X109864000Y-121824000D02*
X103074000Y-121824000D01*
X106524000Y-114624000D02*
X106524000Y-121524000D01*
X109864000Y-114324000D02*
X109864000Y-114624000D01*
X109864000Y-121524000D02*
X106524000Y-121524000D01*
X101814000Y-116324000D02*
X101814000Y-119824000D01*
X101814000Y-119824000D02*
X103074000Y-119824000D01*
X101814000Y-116324000D02*
X103074000Y-116324000D01*
D11*
X140033333Y-111864480D02*
X140033333Y-112578766D01*
X140080952Y-112721623D01*
X140176190Y-112816861D01*
X140319047Y-112864480D01*
X140414285Y-112864480D01*
X139033333Y-112864480D02*
X139604761Y-112864480D01*
X139319047Y-112864480D02*
X139319047Y-111864480D01*
X139414285Y-112007338D01*
X139509523Y-112102576D01*
X139604761Y-112150195D01*
X109926380Y-117943333D02*
X109450190Y-117610000D01*
X109926380Y-117371904D02*
X108926380Y-117371904D01*
X108926380Y-117752857D01*
X108974000Y-117848095D01*
X109021619Y-117895714D01*
X109116857Y-117943333D01*
X109259714Y-117943333D01*
X109354952Y-117895714D01*
X109402571Y-117848095D01*
X109450190Y-117752857D01*
X109450190Y-117371904D01*
X109926380Y-118895714D02*
X109926380Y-118324285D01*
X109926380Y-118610000D02*
X108926380Y-118610000D01*
X109069238Y-118514761D01*
X109164476Y-118419523D01*
X109212095Y-118324285D01*
X107748761Y-116740666D02*
X107796380Y-116883523D01*
X107796380Y-117121619D01*
X107748761Y-117216857D01*
X107701142Y-117264476D01*
X107605904Y-117312095D01*
X107510666Y-117312095D01*
X107415428Y-117264476D01*
X107367809Y-117216857D01*
X107320190Y-117121619D01*
X107272571Y-116931142D01*
X107224952Y-116835904D01*
X107177333Y-116788285D01*
X107082095Y-116740666D01*
X106986857Y-116740666D01*
X106891619Y-116788285D01*
X106844000Y-116835904D01*
X106796380Y-116931142D01*
X106796380Y-117169238D01*
X106844000Y-117312095D01*
X106796380Y-117645428D02*
X107796380Y-117883523D01*
X107082095Y-118074000D01*
X107796380Y-118264476D01*
X106796380Y-118502571D01*
X106891619Y-118835904D02*
X106844000Y-118883523D01*
X106796380Y-118978761D01*
X106796380Y-119216857D01*
X106844000Y-119312095D01*
X106891619Y-119359714D01*
X106986857Y-119407333D01*
X107082095Y-119407333D01*
X107224952Y-119359714D01*
X107796380Y-118788285D01*
X107796380Y-119407333D01*
X114879380Y-133437904D02*
X114879380Y-132961714D01*
X113879380Y-132961714D01*
X114879380Y-133771238D02*
X113879380Y-133771238D01*
X114879380Y-134247428D02*
X113879380Y-134247428D01*
X113879380Y-134628380D01*
X113927000Y-134723619D01*
X113974619Y-134771238D01*
X114069857Y-134818857D01*
X114212714Y-134818857D01*
X114307952Y-134771238D01*
X114355571Y-134723619D01*
X114403190Y-134628380D01*
X114403190Y-134247428D01*
X113879380Y-135437904D02*
X113879380Y-135628380D01*
X113927000Y-135723619D01*
X114022238Y-135818857D01*
X114212714Y-135866476D01*
X114546047Y-135866476D01*
X114736523Y-135818857D01*
X114831761Y-135723619D01*
X114879380Y-135628380D01*
X114879380Y-135437904D01*
X114831761Y-135342666D01*
X114736523Y-135247428D01*
X114546047Y-135199809D01*
X114212714Y-135199809D01*
X114022238Y-135247428D01*
X113927000Y-135342666D01*
X113879380Y-135437904D01*
X114974619Y-136056952D02*
X114974619Y-136818857D01*
X114784142Y-137628380D02*
X114831761Y-137580761D01*
X114879380Y-137437904D01*
X114879380Y-137342666D01*
X114831761Y-137199809D01*
X114736523Y-137104571D01*
X114641285Y-137056952D01*
X114450809Y-137009333D01*
X114307952Y-137009333D01*
X114117476Y-137056952D01*
X114022238Y-137104571D01*
X113927000Y-137199809D01*
X113879380Y-137342666D01*
X113879380Y-137437904D01*
X113927000Y-137580761D01*
X113974619Y-137628380D01*
X114879380Y-138056952D02*
X113879380Y-138056952D01*
X114355571Y-138056952D02*
X114355571Y-138628380D01*
X114879380Y-138628380D02*
X113879380Y-138628380D01*
X114593666Y-139056952D02*
X114593666Y-139533142D01*
X114879380Y-138961714D02*
X113879380Y-139295047D01*
X114879380Y-139628380D01*
X114879380Y-140533142D02*
X114403190Y-140199809D01*
X114879380Y-139961714D02*
X113879380Y-139961714D01*
X113879380Y-140342666D01*
X113927000Y-140437904D01*
X113974619Y-140485523D01*
X114069857Y-140533142D01*
X114212714Y-140533142D01*
X114307952Y-140485523D01*
X114355571Y-140437904D01*
X114403190Y-140342666D01*
X114403190Y-139961714D01*
X113927000Y-141485523D02*
X113879380Y-141390285D01*
X113879380Y-141247428D01*
X113927000Y-141104571D01*
X114022238Y-141009333D01*
X114117476Y-140961714D01*
X114307952Y-140914095D01*
X114450809Y-140914095D01*
X114641285Y-140961714D01*
X114736523Y-141009333D01*
X114831761Y-141104571D01*
X114879380Y-141247428D01*
X114879380Y-141342666D01*
X114831761Y-141485523D01*
X114784142Y-141533142D01*
X114450809Y-141533142D01*
X114450809Y-141342666D01*
X114355571Y-141961714D02*
X114355571Y-142295047D01*
X114879380Y-142437904D02*
X114879380Y-141961714D01*
X113879380Y-141961714D01*
X113879380Y-142437904D01*
X114879380Y-143437904D02*
X114403190Y-143104571D01*
X114879380Y-142866476D02*
X113879380Y-142866476D01*
X113879380Y-143247428D01*
X113927000Y-143342666D01*
X113974619Y-143390285D01*
X114069857Y-143437904D01*
X114212714Y-143437904D01*
X114307952Y-143390285D01*
X114355571Y-143342666D01*
X114403190Y-143247428D01*
X114403190Y-142866476D01*
M02*
