M48
; DRILL file {KiCad (5.1.9-0-10_14)} date Sunday, November 21, 2021 at 11:45:33 AM
; FORMAT={-:-/ absolute / inch / decimal}
; #@! TF.CreationDate,2021-11-21T11:45:33-08:00
; #@! TF.GenerationSoftware,Kicad,Pcbnew,(5.1.9-0-10_14)
; #@! TF.FileFunction,NonPlated,1,2,NPTH
FMAT,2
INCH
T1C0.0200
T2C0.1476
%
G90
G05
T1
X2.9681Y-4.31
X2.9681Y-4.39
X2.9681Y-6.61
X2.9681Y-6.69
X3.0031Y-4.31
X3.0031Y-4.39
X3.0031Y-6.61
X3.0031Y-6.69
X3.0381Y-4.31
X3.0381Y-4.39
X3.0381Y-6.61
X3.0381Y-6.69
X3.0731Y-4.31
X3.0731Y-4.39
X3.0731Y-6.61
X3.0731Y-6.69
X3.1081Y-4.31
X3.1081Y-4.39
X3.1081Y-6.61
X3.1081Y-6.69
X5.3919Y-4.31
X5.3919Y-4.39
X5.3919Y-6.61
X5.3919Y-6.69
X5.4269Y-4.31
X5.4269Y-4.39
X5.4269Y-6.61
X5.4269Y-6.69
X5.4619Y-4.31
X5.4619Y-4.39
X5.4619Y-6.61
X5.4619Y-6.69
X5.4969Y-4.31
X5.4969Y-4.39
X5.4969Y-6.61
X5.4969Y-6.69
X5.5319Y-4.31
X5.5319Y-4.39
X5.5319Y-6.61
X5.5319Y-6.69
T2
X2.445Y-2.335
X2.445Y-6.935
X2.756Y-4.18
X2.756Y-8.78
X5.744Y-4.18
X5.744Y-8.78
X6.055Y-2.335
X6.055Y-6.935
T0
M30
