G04 #@! TF.GenerationSoftware,KiCad,Pcbnew,(5.1.9-0-10_14)*
G04 #@! TF.CreationDate,2021-11-21T11:45:30-08:00*
G04 #@! TF.ProjectId,system_advance,73797374-656d-45f6-9164-76616e63652e,1.0-dev1*
G04 #@! TF.SameCoordinates,Original*
G04 #@! TF.FileFunction,Soldermask,Bot*
G04 #@! TF.FilePolarity,Negative*
%FSLAX46Y46*%
G04 Gerber Fmt 4.6, Leading zero omitted, Abs format (unit mm)*
G04 Created by KiCad (PCBNEW (5.1.9-0-10_14)) date 2021-11-21 11:45:30*
%MOMM*%
%LPD*%
G01*
G04 APERTURE LIST*
%ADD10C,0.100000*%
%ADD11C,0.609600*%
%ADD12C,1.801600*%
%ADD13O,1.801600X1.801600*%
%ADD14C,3.851600*%
%ADD15C,1.851600*%
%ADD16C,1.625600*%
%ADD17C,5.501599*%
%ADD18C,2.101600*%
%ADD19C,1.401600*%
%ADD20C,1.701600*%
%ADD21O,1.701600X1.701600*%
%ADD22C,2.201600*%
G04 APERTURE END LIST*
D10*
G36*
X77597000Y-174498000D02*
G01*
X76200000Y-174244000D01*
X75438000Y-171577000D01*
X77597000Y-174498000D01*
G37*
X77597000Y-174498000D02*
X76200000Y-174244000D01*
X75438000Y-171577000D01*
X77597000Y-174498000D01*
G36*
X76581000Y-173990000D02*
G01*
X77343000Y-176657000D01*
X75184000Y-173736000D01*
X76581000Y-173990000D01*
G37*
X76581000Y-173990000D02*
X77343000Y-176657000D01*
X75184000Y-173736000D01*
X76581000Y-173990000D01*
G36*
X77597000Y-174498000D02*
G01*
X76200000Y-174244000D01*
X75438000Y-171577000D01*
X77597000Y-174498000D01*
G37*
X77597000Y-174498000D02*
X76200000Y-174244000D01*
X75438000Y-171577000D01*
X77597000Y-174498000D01*
G36*
X76581000Y-173990000D02*
G01*
X77343000Y-176657000D01*
X75184000Y-173736000D01*
X76581000Y-173990000D01*
G37*
X76581000Y-173990000D02*
X77343000Y-176657000D01*
X75184000Y-173736000D01*
X76581000Y-173990000D01*
D11*
X139621000Y-111506000D03*
X139621000Y-109474000D03*
X137843000Y-111506000D03*
X137843000Y-109474000D03*
X140510000Y-111506000D03*
X138732000Y-111506000D03*
X136954000Y-111506000D03*
X140510000Y-109474000D03*
X136954000Y-109474000D03*
X138732000Y-109474000D03*
X78057000Y-169926000D03*
X78057000Y-167894000D03*
X76279000Y-169926000D03*
X76279000Y-167894000D03*
X78946000Y-169926000D03*
X77168000Y-169926000D03*
X75390000Y-169926000D03*
X78946000Y-167894000D03*
X75390000Y-167894000D03*
X77168000Y-167894000D03*
X139621000Y-169926000D03*
X139621000Y-167894000D03*
X137843000Y-169926000D03*
X137843000Y-167894000D03*
X140510000Y-169926000D03*
X138732000Y-169926000D03*
X136954000Y-169926000D03*
X140510000Y-167894000D03*
X136954000Y-167894000D03*
X138732000Y-167894000D03*
X78057000Y-111506000D03*
X78057000Y-109474000D03*
X76279000Y-111506000D03*
X76279000Y-109474000D03*
X78946000Y-111506000D03*
X77168000Y-111506000D03*
X75390000Y-111506000D03*
X78946000Y-109474000D03*
X75390000Y-109474000D03*
X77168000Y-109474000D03*
D12*
X106680000Y-163449000D03*
D13*
X109220000Y-163449000D03*
X111760000Y-163449000D03*
X114300000Y-163449000D03*
D12*
X104140000Y-163449000D03*
D13*
X119380000Y-163449000D03*
X96520000Y-163449000D03*
X99060000Y-163449000D03*
X101600000Y-163449000D03*
X116840000Y-163449000D03*
D14*
X62103000Y-59309000D03*
X153797000Y-59309000D03*
X70002400Y-106172000D03*
X145897600Y-106172000D03*
D15*
X124460000Y-154624000D03*
X121920000Y-154624000D03*
X119380000Y-154624000D03*
X116840000Y-154624000D03*
X114300000Y-154624000D03*
X111760000Y-154624000D03*
X109220000Y-154624000D03*
X106680000Y-154624000D03*
X104140000Y-154624000D03*
X101600000Y-154624000D03*
X99060000Y-154624000D03*
X96520000Y-154624000D03*
X93980000Y-154624000D03*
X91440000Y-154624000D03*
X91440000Y-159704000D03*
X93980000Y-159704000D03*
X96520000Y-159704000D03*
X99060000Y-159704000D03*
X101600000Y-159704000D03*
X104140000Y-159704000D03*
X124460000Y-159704000D03*
X121920000Y-159704000D03*
X119380000Y-159704000D03*
X116840000Y-159704000D03*
X114300000Y-159704000D03*
X111760000Y-159704000D03*
X106680000Y-159704000D03*
X109220000Y-159704000D03*
D14*
X145897600Y-223012000D03*
X70002400Y-223012000D03*
X153797000Y-176149000D03*
D16*
X78282800Y-163703000D03*
X80772000Y-163703000D03*
X83261200Y-163703000D03*
D17*
X62103000Y-117729000D03*
D13*
X81788000Y-116459000D03*
D17*
X70002400Y-164592000D03*
X153797000Y-117729000D03*
G36*
G01*
X60301749Y-153222856D02*
X60301749Y-153222856D01*
G75*
G02*
X58749597Y-153712248I-1020772J531380D01*
G01*
X58749597Y-153712248D01*
G75*
G02*
X58260205Y-152160096I531380J1020772D01*
G01*
X58260205Y-152160096D01*
G75*
G02*
X59812357Y-151670704I1020772J-531380D01*
G01*
X59812357Y-151670704D01*
G75*
G02*
X60301749Y-153222856I-531380J-1020772D01*
G01*
G37*
G36*
G01*
X67568695Y-155765669D02*
X66552848Y-157717092D01*
G75*
G02*
X66484331Y-157738695I-45060J23457D01*
G01*
X64532908Y-156722848D01*
G75*
G02*
X64511305Y-156654331I23457J45060D01*
G01*
X65527152Y-154702908D01*
G75*
G02*
X65595669Y-154681305I45060J-23457D01*
G01*
X67547092Y-155697152D01*
G75*
G02*
X67568695Y-155765669I-23457J-45060D01*
G01*
G37*
G36*
G01*
X60301749Y-158556856D02*
X60301749Y-158556856D01*
G75*
G02*
X58749597Y-159046248I-1020772J531380D01*
G01*
X58749597Y-159046248D01*
G75*
G02*
X58260205Y-157494096I531380J1020772D01*
G01*
X58260205Y-157494096D01*
G75*
G02*
X59812357Y-157004704I1020772J-531380D01*
G01*
X59812357Y-157004704D01*
G75*
G02*
X60301749Y-158556856I-531380J-1020772D01*
G01*
G37*
G36*
G01*
X67568695Y-161099669D02*
X66552848Y-163051092D01*
G75*
G02*
X66484331Y-163072695I-45060J23457D01*
G01*
X64532908Y-162056848D01*
G75*
G02*
X64511305Y-161988331I23457J45060D01*
G01*
X65527152Y-160036908D01*
G75*
G02*
X65595669Y-160015305I45060J-23457D01*
G01*
X67547092Y-161031152D01*
G75*
G02*
X67568695Y-161099669I-23457J-45060D01*
G01*
G37*
D12*
X74450000Y-147320000D03*
X74450000Y-144780000D03*
X74450000Y-142240000D03*
X74450000Y-139700000D03*
X74450000Y-137160000D03*
X74450000Y-134620000D03*
X74450000Y-132080000D03*
D18*
X150550000Y-142875000D03*
X146050000Y-142875000D03*
X150550000Y-136375000D03*
X146050000Y-136375000D03*
X160329000Y-137922000D03*
X155829000Y-137922000D03*
X160329000Y-131422000D03*
X155829000Y-131422000D03*
X63464000Y-133298000D03*
X58964000Y-133298000D03*
X63464000Y-126798000D03*
X58964000Y-126798000D03*
X58964000Y-141022000D03*
X63464000Y-141022000D03*
X58964000Y-147522000D03*
X63464000Y-147522000D03*
X56352000Y-140410000D03*
X51852000Y-140410000D03*
X56352000Y-133910000D03*
X51852000Y-133910000D03*
X66076000Y-133910000D03*
X70576000Y-133910000D03*
X66076000Y-140410000D03*
X70576000Y-140410000D03*
D19*
X151892000Y-158115000D03*
X149638992Y-159287841D03*
X154145008Y-156942159D03*
D14*
X62103000Y-176149000D03*
D17*
X145897600Y-164592000D03*
D15*
X164298000Y-152273000D03*
X159298000Y-152273000D03*
D20*
X134366000Y-114300000D03*
D21*
X141986000Y-114300000D03*
D22*
X139364000Y-161213000D03*
D15*
X138104000Y-163703000D03*
X133604000Y-163703000D03*
D22*
X132354000Y-161213000D03*
D12*
X69596000Y-123317000D03*
X69596000Y-120777000D03*
X69596000Y-125857000D03*
X69596000Y-118237000D03*
D10*
G36*
X67593076Y-161052834D02*
G01*
X67594151Y-161054521D01*
X67593927Y-161055531D01*
X67084404Y-162034315D01*
X66531166Y-163097076D01*
X66528469Y-163097927D01*
X64486924Y-162035166D01*
X64485849Y-162033479D01*
X64486056Y-162032542D01*
X64490545Y-162032542D01*
X66528542Y-163093455D01*
X67080856Y-162032469D01*
X67589455Y-161055458D01*
X65551458Y-159994545D01*
X64999144Y-161055531D01*
X64490545Y-162032542D01*
X64486056Y-162032542D01*
X64486073Y-162032469D01*
X64995596Y-161053685D01*
X65548834Y-159990924D01*
X65551531Y-159990073D01*
X67593076Y-161052834D01*
G37*
G36*
X67593076Y-155718834D02*
G01*
X67594151Y-155720521D01*
X67593927Y-155721531D01*
X67084404Y-156700315D01*
X66531166Y-157763076D01*
X66528469Y-157763927D01*
X64486924Y-156701166D01*
X64485849Y-156699479D01*
X64486056Y-156698542D01*
X64490545Y-156698542D01*
X66528542Y-157759455D01*
X67080856Y-156698469D01*
X67589455Y-155721458D01*
X65551458Y-154660545D01*
X64999144Y-155721531D01*
X64490545Y-156698542D01*
X64486056Y-156698542D01*
X64486073Y-156698469D01*
X64995596Y-155719685D01*
X65548834Y-154656924D01*
X65551531Y-154656073D01*
X67593076Y-155718834D01*
G37*
M02*
